<?xml version="1.0" encoding="UTF-8"?><svg xmlns="http://www.w3.org/2000/svg" viewBox="0 0 210.22 259.38"><defs><style>.cls-1,.cls-2,.cls-3{fill:#ebc15c;}.cls-1,.cls-4{opacity:.3;}.cls-1,.cls-5{mix-blend-mode:screen;}.cls-6{fill:#0074af;}.cls-7{fill:#f08e44;}.cls-8{fill:#ebebeb;}.cls-9{fill:#f27a85;}.cls-10,.cls-11,.cls-5{fill:#f6abba;}.cls-12,.cls-4{fill:#ef7a42;}.cls-13,.cls-14{fill:#e48970;}.cls-15{fill:#fff;}.cls-11,.cls-4,.cls-16,.cls-3,.cls-17,.cls-18,.cls-14{mix-blend-mode:multiply;}.cls-16{fill:#ffe800;}.cls-16,.cls-3,.cls-17,.cls-18{opacity:.4;}.cls-17{fill:#f89737;}.cls-18{fill:#f3a820;}.cls-14{opacity:.5;}.cls-19{isolation:isolate;}</style></defs><g class="cls-19"><g id="Layer_2"><g id="_1"><g><g><g><path d="M207.86,123.62c-.91-.91-2.13-.4-3.13,.36-.02-.06-.06-.12-.12-.17-2.22-1.49-4.59-2.5-7.04-3.23-.04-.07-.08-.14-.17-.18-2.56-1.54-4.51-3.51-5.82-6.21-1.59-3.28,.53-5.98,2.32-8.51,.85,.31,1.87,.35,2.65,.18,1.46-.32,2.49-1.46,2.57-2.96,.09-1.6-.89-3.25-2.5-3.6-1.09-.24-2.13,.26-2.91,1.01,0,0,0,0,0,0-.95,.03-2.53,.17-4.44,.32-3.9-1.46-6.58-3.22-7.52-7.63-1.02-4.83,1.31-9.49,5.09-12.3,2.15-.62,3.48-1.71,4.62-3.95,.84-1.65,.93-4.53-.88-5.65-2.88-1.79-6.15,.09-7.29,2.86-10.7,4.78-22.57,10.64-30.5,19.53-6.6,7.39-7.84,17.58-8.84,27.39-.6,2.38-1.16,4.75-1.34,7.21-.04,.53-.19,2.01,.19,2.67,.03,1.27,.85,2.65,1.26,3.78,.77,2.16,1.57,4.32,2.38,6.47,1.26,3.32,2.46,5,5.76,3.58,10.68-2.56,20.82-2.63,31.68-1.01-.06,1.07,.56,2.06,1.72,2.38,1.38,.38,2.85-.06,3.73-1.18,1.02-1.29,.49-3.11-.54-4.19-.59-.61-1.33-.8-1.96-.58,3-6.44,8.84-8.4,15.22-10.83,.36,.64,.96,1.11,1.83,1.24,1.56,.24,3.24-.68,4.18-1.87,1.15-1.43,1.12-3.59-.21-4.93Z"/><path class="cls-7" d="M190.21,112.61c.09,2.71,1.99,5.39,4.22,7.19-3.59-.74-7.29-1.06-10.95-1.5-1.65-.2-10.16-1.08-6.98-4.39,4.16-4.32,11.02-6.07,16.59-8.34-1.63,2.12-2.98,4.2-2.88,7.04Z"/><path class="cls-7" d="M180.67,90.98c-.17,4.74,2.43,8.14,6.42,9.81-8.91,.57-21.87,.54-16.63-8.1,2.96-4.89,8.89-10.2,14.65-11.57-2.81,2.35-4.3,6.21-4.44,9.86Z"/><path class="cls-4" d="M191.6,116.65c-1.81-.15-3.59-.48-5.27-1.09-2.45-.9-4.62-2.83-4.37-5.51-2.05,1.04-3.93,2.28-5.45,3.85-3.19,3.31,5.32,4.19,6.98,4.39,3.65,.44,7.36,.76,10.95,1.5-1.08-.88-2.08-1.95-2.83-3.14Z"/><path class="cls-4" d="M175.11,97.78c-1.35-4.5,1.43-7.61,4.98-9.99,.42-.28,.85-.55,1.28-.82,.71-2.26,1.96-4.35,3.74-5.85-5.76,1.38-11.68,6.68-14.65,11.57-3.4,5.61,.88,7.59,6.74,8.13-.96-.77-1.71-1.76-2.09-3.04Z"/><path class="cls-15" d="M185.78,140.51c-3.07-1.6-7.74-4.88-5.11-8.04,1.72-2.06,5.3-2.71,7.77-3.21,4.13-.82,8.67-1.11,12.89-.43-6.77,1.39-12.83,5.19-15.56,11.67Z"/><path class="cls-12" d="M207.12,128.15c-.69,.77-1.82,1.26-2.86,1.18-1.3-.11-1.53-1.31-1.61-2.39-.04-.62-.92-.23-.98,.22-.04,.35-.04,.68,.01,1-2.07-.63-4.55-.47-6.61-.43-3.97,.09-8.07,.65-11.79,2.08-8.39,3.22-2.27,9.97,3.39,12.37,.55,.23,1.2-.71,.6-.96-.23-.1-.52-.23-.82-.37,.01-.04,.03-.07,.05-.11,.77-.55,1.63,.08,2.16,.95,.6,.98,.55,2.24-.42,2.95-.65,.47-1.55,.45-2.25,.12-.87-.41-1-1.2-.85-2.08,.13-.72-.87-.5-1.06-.03-.04,.1-.07,.21-.1,.31-4.9-1.9-10.38-2.16-15.58-2.09-5.18,.07-11.63,.22-16.47,2.57-1.24,.18-2.28,.79-3.18-.53-.76-1.12-1.2-2.51-1.7-3.76-1.11-2.76-1.98-5.77-3.47-8.37,.36-.52,.23-1.54,.23-2.04-.03-3.05,.82-6.22,1.2-9.24,.02-.12-.02-.2-.09-.26,1.56-9.25,3.63-18.56,9.92-25.54,7.7-8.57,18.32-12.62,28.08-18.19-.04,.46-.04,.92,.04,1.39,.07,.38,.57,.15,.61-.14,.06-1.5,.63-2.73,1.71-3.71,3.58-2.59,5.19-1.15,4.82,4.3-1.18,2.31-4.67,2.55-6.92,3.27-1.49,.48-2.85,1.73-4.09,2.63-3.68,2.68-7.32,5.81-9.72,9.72-7.04,11.46,17.87,8.96,23.74,8.02-.12,.16-.23,.33-.32,.5-.26,.46,.32,.67,.6,.3,.66-.89,1.72-1.61,2.87-1.45,1.28,.18,1.82,1.78,1.75,2.89-.07,1.04-1.02,1.51-1.94,1.61-1.08,.11-1.76-.45-2.69-.83-.38-.15-1.04,.33-.75,.75,.08,.12,.18,.22,.28,.31-5.41,1.96-22.43,8.67-17.19,12.06,2.95,1.9,7.04,2.03,10.42,2.36,6.46,.64,12.13,2.19,18.04,4.94-.33,.3-.62,.61-.84,.86-.19,.22,0,.59,.28,.39,.82-.55,2.4-2.02,3.42-1.25,1.16,.88,.94,2.75,.08,3.7Z"/><path class="cls-4" d="M207.03,124.44c-.49,0-.98,0-1.47-.02-.73,.32-1.46,.95-1.94,1.27-.29,.2-.47-.17-.28-.39,.21-.25,.5-.56,.84-.86-.04-.02-.07-.03-.11-.05-3.72-.08-7.45-.21-11.17-.36-4.92-.19-9.93-.08-14.83-.52-3-.27-6.55-.98-7.77-4.11-1.41-3.6,1.53-6.21,3.5-8.91-2.82,.86-5.46,2.34-8.27,3.23-2.06,.65-5.11,1.29-6.88-.41-3.81-3.67,1.38-9.32,3.41-12.92-5.29,.84-8.8,6.04-11.88,9.98-.25,.32-.69,.14-.63-.26,1.12-6.65,3.87-13.11,7.77-18.93-.85,.79-1.68,1.62-2.47,2.5-6.28,6.99-8.35,16.29-9.92,25.54,.07,.05,.11,.13,.09,.26-.38,3.02-1.23,6.19-1.2,9.24,0,.5,.14,1.52-.23,2.04,1.49,2.6,2.36,5.61,3.47,8.37,.51,1.25,.94,2.64,1.7,3.76,.89,1.32,1.94,.72,3.18,.53,4.84-2.35,11.29-2.5,16.47-2.57,5.2-.07,10.68,.19,15.58,2.09,.03-.1,.05-.2,.1-.31,.2-.47,1.19-.69,1.06,.03-.15,.88-.02,1.67,.85,2.08,.7,.33,1.6,.35,2.25-.12,.98-.71,1.02-1.97,.42-2.95-.53-.87-1.4-1.5-2.16-.95-.02,.04-.03,.07-.05,.11,.3,.15,.58,.27,.82,.37,.6,.25-.05,1.19-.6,.96-5.66-2.39-11.79-9.15-3.39-12.37,3.72-1.43,7.82-1.99,11.79-2.08,2.06-.04,4.54-.2,6.61,.43-.05-.32-.06-.65-.01-1,.06-.44,.93-.84,.98-.22,.07,1.08,.31,2.28,1.61,2.39,1.04,.08,2.16-.41,2.86-1.18,.85-.95,1.08-2.82-.08-3.7t0,0Z"/><path d="M158.06,105.03c-4.98,5.86-8.97,12.87-9.4,20.69-.02,.35,.47,.23,.5-.05,.77-7.63,4.6-14.33,9.36-20.18,.3-.37-.13-.83-.46-.46Z"/><path d="M167.73,116.23c-4.6,3.06-10.23,6.27-12.93,11.3-.09,.17,.11,.33,.24,.17,3.73-4.47,8.33-7.46,13-10.85,.4-.29,.15-.94-.31-.63Z"/></g><g><path d="M52.1,200.09c1.45,.03,3.15-.65,3.92-1.93,.43-.72,.45-1.45,.2-2.1,5.68-3.21,10.68-6.3,17.24-4.58-.54,.33-.86,.99-.77,1.79,.17,1.42,1.18,2.92,2.75,2.96,1.37,.03,2.59-.77,3.15-2.02,.47-1.05,.12-2.1-.71-2.71,5.44-8.96,11.67-16.37,20.07-22.66,3.05-1.56,2.56-3.46,.88-6.41-1.08-1.91-2.18-3.81-3.3-5.69-.58-.99-1.1-2.43-2.01-3.23-.24-.68-1.42-1.47-1.84-1.77-1.92-1.37-4-2.41-6.12-3.42-7.81-5.25-16.06-10.55-25.51-10.21-11.37,.41-22.91,5.55-32.96,10.5-2.73-.86-6.1,.4-6.55,3.61-.28,2.01,1.89,3.71,3.62,4.09,2.34,.52,3.96,.22,5.72-.99,4.37-1.06,9.21,.07,12.14,3.77,2.67,3.37,2.32,6.42,1.01,10.17-1.27,1.31-2.34,2.39-2.94,3.07h0c-1.03,.12-2.03,.58-2.52,1.52-.72,1.4-.11,3.12,1.13,4.04,1.15,.85,2.62,.79,3.74-.08,.59-.47,1.19-1.24,1.48-2.06,2.95,.22,6.23,.31,7.67,3.48,1.18,2.61,1.44,5.24,1.01,8.06-.01,.09,0,.17,.03,.24-.96,2.25-1.66,4.6-1.92,7.14,0,.08,.01,.14,.05,.19-1.17,.27-2.28,.86-2.17,2.08,.17,1.79,1.74,3.13,3.49,3.16Z"/><path class="cls-7" d="M44.35,175.07c5.07-2.7,10.54-6.68,16.25-7.1,4.38-.32-.16,6.47-1.03,7.8-1.91,2.95-3.94,5.87-5.58,8.96,.04-2.74-.77-5.77-2.71-7.48-2.02-1.8-4.38-2.08-6.93-2.18Z"/><path class="cls-7" d="M31.26,154.29c4.53-3.39,12.03-4.5,17.43-3.7,9.54,1.42,1.66,10.96-4.2,17.16,1.21-3.94,.3-7.94-3.29-10.7-2.77-2.13-6.51-3.38-9.95-2.76Z"/><path class="cls-4" d="M60.59,167.97c-1.7,.12-3.38,.57-5.04,1.2,.07,.06,.15,.13,.22,.2,1.77,1.73,2.08,5.07,1.57,7.35-.55,2.48-1.8,4.67-3.43,6.59,.04,.48,.07,.96,.07,1.42,1.64-3.09,3.67-6.01,5.58-8.96,.86-1.33,5.41-8.13,1.03-7.8Z"/><path class="cls-4" d="M46.67,159.66c.47,1.86,.54,3.65,.3,5.38,5.22-5.95,9.97-13.23,1.73-14.46-2.41-.36-5.23-.33-8.02,.1,2.88,2.11,5.05,5.28,6,8.98Z"/><path class="cls-7" d="M56.42,195.32c2.07-3.52,5.05-6.68,8.18-9.21,1.87-1.52,4.54-3.75,7.1-3.75,3.93-.01,3.49,5.42,2.79,8.66-6.43-1.95-12.92,.18-18.07,4.31Z"/><path class="cls-12" d="M49.72,196.83c.05-1.22,2.09-1.49,3-1.75,.32-.09,.17-.45-.11-.44-.31,0-.72,.03-1.14,.09,1.59-6.02,3.91-11.13,7.38-16.27,1.82-2.69,4.22-5.77,4.62-9.1,.71-5.91-14.6,2.5-19.34,5.27,0-.13-.02-.27-.06-.39-.14-.47-.89-.28-1.01,.09-.29,.91-.29,1.75-1.03,2.48-.63,.62-1.55,1.03-2.36,.45-.86-.62-1.7-2-1.06-3.04,.59-.95,1.76-1.28,2.82-1.23,.44,.02,.64-.52,.15-.62-.18-.04-.37-.06-.56-.07,4.27-3.75,21.31-20.52,8.59-22.34-4.33-.62-8.86,.15-13.07,1.21-1.42,.36-3.17,.6-4.43,1.4-1.9,1.21-4.2,3.62-6.62,3.08-4.23-3.06-4.31-5.11-.22-6.16,1.37-.2,2.63,.14,3.77,1.01,.23,.15,.71-.08,.47-.36-.29-.35-.63-.64-1-.88,10.04-3.77,19.5-9.1,30.49-9.53,8.97-.35,17.06,3.8,24.81,8.3,0,.08,.03,.16,.13,.22,2.45,1.57,5.3,2.87,7.52,4.76,.36,.31,1.03,1.03,1.63,1.08,1,2.68,2.69,5.16,4.04,7.65,.61,1.14,1.36,2.3,1.73,3.55,.42,1.46-.66,1.87-1.55,2.66-4.68,2.13-8.72,6.78-11.93,10.53-3.22,3.78-6.37,7.96-7.97,12.72-.09-.04-.18-.09-.29-.12-.46-.14-1.23,.46-.62,.81,.74,.42,1.24,1,1.01,1.89-.19,.72-.72,1.39-1.47,1.58-1.11,.29-2.07-.45-2.43-1.49-.31-.92-.25-1.94,.62-2.17,.04,.01,.07,.02,.11,.03-.08,.31-.16,.59-.23,.83-.18,.6,.91,.7,1.07,.14,1.7-5.62,.47-14.24-7.02-10.04-3.32,1.87-6.24,4.53-8.72,7.39-1.28,1.48-2.92,3.21-3.72,5.12-.21-.23-.45-.44-.73-.62-.36-.23-1.19,.17-.76,.58,.75,.71,1.48,1.62,.77,2.64-.57,.82-1.62,1.34-2.61,1.38-1.22,.05-2.73-.93-2.67-2.32Z"/><path class="cls-4" d="M98.83,165.28c-.36-1.25-1.12-2.41-1.73-3.55-1.35-2.5-3.04-4.97-4.04-7.65-.6-.05-1.27-.77-1.63-1.08-2.22-1.89-5.07-3.19-7.52-4.76-.1-.06-.13-.14-.13-.22-7.75-4.5-15.85-8.65-24.81-8.3-2.22,.09-4.37,.38-6.49,.81,2.93,.17,5.85,.53,8.71,1.18,2.26,.52,4.78,1.22,6.54,2.8,.3,.27-.06,.72-.39,.71-4.13-.15-8.42,1.43-11.08,4.65,3.96,.2,8.65,.73,11.96,2.96,3.65,2.46,2.05,5.86-.64,8.42-4.62,4.39-10.87,7.26-16.9,9.12-2.92,.9-5.89,1.61-8.89,2.11,.15,.19-.04,.51-.38,.49-1.06-.06-2.23,.28-2.82,1.23-.65,1.05,.2,2.42,1.06,3.04,.81,.59,1.73,.17,2.36-.45,.74-.72,.74-1.57,1.03-2.48,.12-.38,.87-.56,1.01-.09,.04,.13,.05,.26,.06,.39,4.74-2.78,20.05-11.19,19.34-5.27-.4,3.32-2.8,6.41-4.62,9.1-3.47,5.14-5.79,10.25-7.38,16.27,.43-.06,.83-.09,1.14-.09,.28,0,.44,.35,.11,.44-.9,.27-2.94,.53-3,1.75-.06,1.39,1.45,2.36,2.67,2.32,.99-.04,2.04-.56,2.61-1.38,.71-1.02-.02-1.92-.77-2.64-.43-.41,.39-.81,.76-.58,.28,.17,.52,.38,.73,.62,.8-1.91,2.43-3.64,3.72-5.12,2.48-2.86,5.4-5.53,8.72-7.39,7.49-4.2,8.71,4.42,7.02,10.04-.17,.55-1.25,.45-1.07-.14,.07-.24,.15-.52,.23-.83-.04-.02-.07-.02-.11-.03-.87,.23-.93,1.25-.62,2.17,.35,1.04,1.31,1.78,2.43,1.49,.74-.19,1.28-.86,1.47-1.58,.23-.89-.27-1.47-1.01-1.89-.61-.35,.16-.94,.62-.81,.1,.03,.19,.08,.29,.12,1.59-4.76,4.74-8.95,7.97-12.72,3.21-3.76,7.26-8.41,11.93-10.53,.89-.79,1.97-1.2,1.55-2.66Z"/><path d="M65.33,149c7.34-.08,14.93,1.26,20.93,5.72,.27,.2-.11,.49-.34,.33-6.07-4.09-13.33-5.36-20.54-5.43-.46,0-.53-.61-.06-.62Z"/><path d="M67.65,162.94c5.05-1.51,10.85-3.69,16.19-2.61,.18,.04,.18,.28-.02,.28-5.56,.02-10.56,1.57-15.9,2.94-.45,.11-.78-.46-.27-.62Z"/></g><path d="M69.19,80.26c-.39-1.46-1.45-2.77-3.08-2.58-.06,0-.11,.13-.03,.13,.78,.02,1.28,.4,1.62,.93-1.15-.17-1.16,3.95,.6,4.11-.08,.58-.18,1.15-.22,1.76-.02,.42,.47,.51,.73,.24,1-1.06,.72-3.33,.38-4.6Zm-1.42,.55c-.15-.39-.45-1.49-.04-1.81,.03-.02,.06-.06,.07-.11,.31,.57,.47,1.28,.56,1.95,.04,.32,.05,.63,.04,.93-.29-.23-.47-.52-.64-.96Z"/><path d="M75.54,76.98c-.88-1.23-2.33-2.08-3.79-1.34-.06,.03-.06,.16,.02,.13,.74-.25,1.34-.07,1.84,.3-1.13,.24,.3,4.11,2,3.64,.13,.57,.23,1.14,.41,1.73,.13,.4,.62,.31,.77-.03,.57-1.34-.49-3.37-1.26-4.44Zm-1.14,1.02c-.28-.31-.95-1.24-.67-1.68,.02-.04,.03-.08,.03-.13,.5,.42,.89,1.04,1.21,1.63,.15,.29,.27,.57,.37,.85-.35-.11-.62-.32-.93-.67Z"/><path d="M207.89,135.35c-.3-.3-.62-.59-.93-.88,.02-.04,.04-.09,.05-.14,.03-.01,.07-.03,.1-.06,3.09-4.58-7.31-7.81-10.12-8.11-4.95-.54-10.02,.18-13.21,3.56-.04-.03-.05-.06-.1-.08-7.18-3.99-15.19-6.69-23.11-8.79-3.9-1.03-7.73-1.58-11.58-1.83-4.68-1.52-9.49-2.5-14.37-3.06-1.45-.17-3.85-.51-5.39,.22,2.73-2.66,5.11-5.58,6.96-8.5,3.38-5.35,4.31-11.58,4.78-17.77,.28-3.7,.22-7.39-.22-11.08-.4-3.33-2.26-6.29-3.94-9.12,.56-.93,.95-1.96,1.22-3.02-.33-3.06-3.59-6.47-5.33-7.98-.02-.01-.04-.02-.05-.03,.21-.21,.41-.42,.62-.62,2.04-1.97,4.52-3.53,6.59-5.47,.1-.06,.2-.12,.3-.17,.23-.18,.46-.35,.69-.54,1.19,1.11,2.58,2.04,4.17,2.74,7.96,3.49,16.01-.18,20.08-7.44,1.87-3.34,2.41-7.71,.92-11.25-2-4.74-6.26-8.58-11.34-9.71-1.48-.33-3.14-.42-4.66-.26-1.72,.18-3.46,.55-5.1,1.17-1.92,.73-3.68,1.82-5.05,3.39-.08,.09-.16,.12-.25,.13-1.18,1.22-2.14,2.62-2.68,4.11-1.34,3.71-1.3,7.61-.08,11.05-3.49,1.95-6.87,4.3-9.65,7.2-.75-1.45-2.59-2.67-3.93-3.24-2.14-.91-5.74-1.15-7.69,.48-.5-.46-1.52-.55-2.15-.75-.61-.19-1.19-.35-1.81-.35-.35-2.64-3.25-5.05-5.52-5.91-1.45-.55-3.73-.96-5.37-.4,0-4.24-.87-8.51-2.11-12.55,3.44-1.74,6.32-4.69,8.01-8.5,.68-1.53,.97-3.3,.96-5.1-.06-.07-.1-.16-.09-.28,.1-2.19-.45-4.31-1.38-6.27-.79-1.67-1.86-3.22-3.04-4.61-1.04-1.23-2.37-2.37-3.74-3.21-4.7-2.85-10.75-3.02-15.75-.86-3.73,1.61-6.5,5.34-7.51,9.26-2.19,8.52,1.28,17.2,9.9,20.35,1.73,.63,3.47,.93,5.19,.95,.04,.31,.09,.61,.14,.91,.04,.11,.07,.24,.1,.35,.17,2.99,.92,6,1.04,8.99,.01,.31,.01,.62,.02,.93-.02,0-.04,0-.06-.01-2.43-.12-7.41,.1-9.9,2.2-.69,1.24-1.23,2.57-1.43,3.98,.02,.14,.05,.28,.08,.42-.04-.02-.06-.04-.12-.04-.93,0-1.87,.46-2.74,.74-.89,.28-1.81,.54-2.74,.71-.27-.13-.56-.23-.87-.31-3.04-.8-6.18-.55-9.1,.58,0-.01-.01-.02-.02-.03-1.36-1.46-2.73-2.92-3.89-4.52-.14-.2-.28-.42-.42-.64-1.78-2.16-3.33-4.32-3.17-5.41-.15-.17-.29-.34-.45-.48,1.15-.95,2.18-2.09,3.02-3.43,4.44-7.08,2.08-15.25-4.25-20.15-2.91-2.25-6.99-3.38-10.57-2.46-4.79,1.24-9.04,4.74-10.83,9.41-.52,1.37-.84,2.93-.9,4.39-.07,1.66,.03,3.37,.4,5.01,.42,1.93,1.21,3.76,2.51,5.28,.07,.08,.09,.17,.09,.26,.99,1.3,2.19,2.41,3.53,3.13,3.16,1.7,6.64,2.23,9.92,1.72,1.73,2.48,2.73,5.57,4.53,8.06,.8,1.11,1.6,2.24,2.43,3.33-.3,0-.62,.07-.87,.13-.72,.18-1.37,.42-1.96,.89-.05,.05-.09,.09-.12,.14-.51,.32-.98,.67-1.35,1-1.5,1.33-3.02,3.87-3,6.13-.01,0-.02,0-.03,0-1.03,.15-2.02,1.01-2.86,1.57-.8,.54-1.64,.96-2.47,1.43-2.03-.97-4.96-.68-6.8,.1-.46,.2-.97,.46-1.48,.79-.06,0-.11,.02-.18,.05-.68,.33-1.17,.81-1.64,1.39-.17,.21-.36,.46-.49,.73-.64-1.23-1.32-2.43-1.97-3.63-1.48-2.69-3.85-4.91-5.35-7.54,1.86-2.74,2.87-6.13,2.69-9.7-.08-1.52-.57-3.07-1.32-4.53-.08-.03-.15-.09-.19-.19-.82-1.82-2.14-3.32-3.7-4.53-1.33-1.03-2.83-1.86-4.36-2.5-1.35-.57-2.9-.95-4.36-1.07-4.99-.38-9.97,1.96-13.14,5.76C.24,44.21-.48,48.38,.31,51.97c1.72,7.82,8.1,13.44,16.39,12.46,1.58-.19,3.05-.63,4.4-1.26,.06,.2,.16,.41,.24,.61,1.06,.32,2.34,2.65,3.54,5.18,.15,.22,.28,.44,.4,.65,.95,1.74,1.68,3.59,2.42,5.45,0,.01,.01,.02,.02,.03-2.27,2.16-3.84,4.89-4.42,7.98-.37,2.01,.45,3.94,2.18,4.59-1.43,6.59-2.94,12.6-2.91,19.45,.03,6.26,2.03,12.44,5.01,17.9,5.47,10.01,17.37,17.47,28.58,18.8,0,0,0,0,.01,0,4.89,3.03,13.12,1.69,18.19,.67,3.28-.66,6.79-1.67,10.13-3.09-2.05,5.17-4.24,10.34-5.97,15.63-2.1,1.57-4.12,3.28-6.05,5.22-5.26,5.31-10.3,11.14-14.09,17.6-.02,.04-.02,.07-.04,.11-4.07-1.17-8.39,.61-12.03,3.32-2.07,1.54-8.75,8.89-4.2,11.06,.03,.02,.07,0,.1,0,.04,.03,.07,.06,.11,.09-.12,.37-.23,.74-.33,1.12-.55,2.25-.3,6.2,2.59,6.02,.18,1.08,.69,2.06,1.63,2.87,1.45,1.24,3.38-.41,4.38-1.41,2.37-2.35,4.01-7.68,7.62-8.12,.02,.03,.06,.05,.08,.08,.02,.02,.05,.03,.07,.05,.72,.61,.76,1.55,.54,2.51h0s0,0,0,0c-.09,.4-.23,.81-.38,1.19,0,.03-.02,.06-.03,.09-.39,1.17-.78,2.32-1.08,3.52-.24,.98-.47,2.71,.31,3.52,1.91,1.99,3.91,.5,5.42-1.25,2.36-2.73,3.94-6.53,4.5-10.05,.29-1.87,.09-4.17-.47-5.96-.42-1.35-1.03-2.42-1.8-3.6-.35-.54-.55-1.08-.66-1.63,3.49-4.71,7.01-9.22,10.87-13.37-.91,8.41,.56,17.17,4.36,24.72,3.87,7.68,10.03,13.08,18.32,15.25,9.27,2.42,19.59,3.48,29.01,1.34-.08,3.65,.69,7.32,2.69,10.35,1.04,1.58,2.29,2.51,3.6,2.92-.89,4.14-6.17,8.44-8.6,11.65-2.27,3.01-4.06,6.63-4.7,10.37-.51,3.04-.58,6.75,1.54,9.29,1.74,2.08,3.67,2.4,5.48,.64,2.4,4.31,6.7,3.36,8.9-.67,.91,1.66,3.16,2.04,4.76,1.1,3.04-1.79,4.89-5.24,6.34-8.34,3.71-7.94,6.15-17.42,4.97-26.19-.53-3.94-2.5-8.65-6.24-10.45-3.24-1.56-6.05,2.18-6.92,4.71-.03,.09-.04,.16-.03,.22-.96,.39-1.95,.63-2.87,.12-1.27-.7-1.63-2.94-1.87-4.19-.19-1.02-.26-2.05-.29-3.09,1.62,.38,3.63-.11,5.2-1.15,5.44-.61,9.93-3.96,14.2-7.26,1.45,3.78,3.78,7.21,7.1,9.49,1.74,1.2,3.42,1.63,4.94,1.5,.82,4.66-2.83,11.31-3.99,15.65-1.08,4.06-1.41,8.55-.49,12.68,.75,3.35,2.24,7.22,5.49,8.94,2.67,1.42,4.8,.94,5.93-1.64,4.29,3.44,8.33,.65,8.91-4.43,1.63,1.33,4.12,.78,5.37-.87,2.39-3.13,2.85-7.47,3.04-11.28,.49-9.76-.97-20.57-5.87-29.14-2.2-3.84-6.21-7.88-10.83-8.17-4.01-.25-5.33,4.8-5.17,7.78,0,.1,.03,.18,.07,.24-.82,.81-1.75,1.47-2.92,1.33-1.6-.19-2.92-2.35-3.69-3.55-.61-.95-1.11-1.96-1.56-2.98,2.78,.62,6.69-1.7,9.01-2.83,3.28-1.6,6.22-3.64,7.8-6.84,3.98,5.11,13.05,3.79,16.96-.94,1.75-2.11,.73-4.69-.86-6.51-.79-.91-1.85-1.57-3.02-2.03,1.54-.26,3.02-.72,4.39-1.56,1.53-.95,4.02-3.7,3-5.71-1.96-3.85-6.81-3.89-10.86-3,2.8-1.6,5.36-4.16,3.56-6.78-2.75-3.98-9.75-.06-11.94,3.11,.12-5.72-.98-11.45-2.63-16.91-.55-5.46-4.22-11.82-8.68-15.6,4.41,1.52,8.79,3.29,13.22,5.16,.2,.59,.32,1.21,.28,1.91-.07,1.54-.05,2.9,.3,4.41,.47,2,1.56,4.28,2.87,5.89,2.48,3.02,6.09,5.73,9.84,6.99,2.4,.81,5.11,1.11,5.81-1.83,.29-1.21-.9-2.72-1.67-3.5-.95-.97-1.96-1.84-2.98-2.73-.03-.02-.05-.04-.08-.07-.36-.28-.71-.58-1.02-.91,0,0,0,0-.01,0h0c-.74-.79-1.24-1.7-.89-2.67,0-.03,.03-.06,.04-.09,0-.04,.02-.08,.03-.12,3.65-1.58,8.17,2.54,11.72,3.44,1.49,.38,4.24,.86,4.92-1.11,.44-1.29,.37-2.51-.06-3.62,2.82-1.44,.87-5.31-.9-7.13Z"/><path class="cls-8" d="M137.31,37.64c.52-7.03,7.38-10.75,13.76-10.98,2.34-.08,4.82,.28,6.74,1.49,3.27,1.27,6.28,4.95,7.32,8.44,1.13,2.83,1.21,6.04-.37,9.59-.3,.67-.64,1.29-1,1.88-.21,.55-.52,1.04-.99,1.43-.01,.01-.03,.01-.04,.02-3.86,4.78-10.25,6.36-16.35,4.32-6.94-2.31-9.58-9.41-9.08-16.19Z"/><path class="cls-12" d="M136.6,46.85c.18-.1,.37-.19,.55-.28,.71,1.73,1.75,3.31,3.06,4.68-2.91,1.03-5.28,3.22-7.55,5.28-2.09,1.9-4.25,4.04-4.93,6.84-.85-.32-1.65-.8-2.44-1.65-.75-.81-1.31-1.83-1.7-2.91,0,0,0,0,.01-.01,3.44-4.79,8.45-8.22,12.99-11.95Z"/><path class="cls-8" d="M85.52,29.48c-6.14-2.91-9.87-8.78-9.33-15.24,0-.02,0-.03-.01-.05-.08-.64,.05-1.25,.28-1.82,.15-.72,.34-1.44,.6-2.17,1.39-3.86,3.79-6.26,6.72-7.59,3.35-1.9,8.34-2.51,11.76-1.1,2.35,.48,4.51,2.02,6.24,3.79,4.71,4.84,7.23,12.69,2.49,18.44-4.57,5.55-11.77,9.04-18.76,5.73Z"/><path class="cls-12" d="M92.13,32.01c2-.09,3.95-.54,5.76-1.34,.08,.2,.14,.41,.21,.62,.75,6.16,2.06,12.44,1.2,18.61,0,0,0,.01,0,.02-1.09,.54-2.26,.91-3.42,.98-1.23,.08-2.19-.14-3.07-.52,1.53-2.64,1.44-5.85,1.24-8.83-.23-3.22-.44-6.63-1.91-9.54Z"/><path class="cls-8" d="M43.45,41.9c-6.61-1.48-9.19-8.53-8.51-14.63,.25-2.24,.94-4.55,2.36-6.21,1.67-2.93,5.59-5.27,9.06-5.78,2.85-.68,5.91-.3,9.07,1.7,.59,.37,1.13,.79,1.64,1.22,.49,.28,.92,.64,1.22,1.15,0,.02,.01,.03,.01,.04,4.01,4.34,4.6,10.64,1.81,16.16-3.18,6.28-10.3,7.79-16.68,6.36Z"/><path class="cls-12" d="M57.54,52.85c-1.96-2.89-3.64-6.01-5.42-8.99-.07-.19-.13-.38-.19-.56,1.74-.43,3.39-1.2,4.88-2.25,.04,.23,.11,.45,.17,.67,1.77,1.6,2.43,4.07,3.8,5.98,2.11,2.94,4.92,5.28,6.9,8.34,.03,.05,.05,.1,.05,.14,.25,.32,.49,.64,.73,.97-.7,.89-1.57,1.74-2.53,2.29-.53,.3-1.14,.56-1.81,.74-.47-.37-.94-.72-1.41-1.08-.01-.04-.02-.08-.05-.11-1.64-2.11-3.44-4.06-5.11-6.14Z"/><path class="cls-8" d="M15.66,63.33c-6.18,.16-11.62-3.07-13.83-8.55,0-.01-.02-.02-.03-.03-.33-.49-.47-1.03-.51-1.59-.17-.65-.31-1.31-.4-2.01-.45-3.71,.51-6.64,2.34-8.92,1.94-2.92,5.74-5.46,9.1-5.72,2.11-.58,4.49-.21,6.62,.52,5.81,1.99,11.08,7.34,9.59,13.95-1.43,6.38-5.85,12.17-12.88,12.35Z"/><path class="cls-12" d="M26.38,69.11c-1.14-2.05-3.09-3.71-3.78-5.99-.18-.15-.35-.3-.53-.44,1.59-.89,2.98-2.05,4.12-3.45,.14,.13,.28,.27,.43,.41,1.93,2.89,4.04,5.73,5.8,8.75,1.16,2.4,2.16,4.86,3.36,7.25,.02,.04,.05,.07,.08,.1,.12,.58,.24,1.16,.37,1.74-.45,.52-.94,.97-1.44,1.32-.91,.63-2.05,1.05-3.16,1.31-.19-.36-.38-.71-.56-1.07-.04-.02-.08-.06-.11-.11-1.91-3.1-2.82-6.65-4.58-9.81Z"/><path class="cls-10" d="M88.74,99.1c-3.46,1.05-6.79,2.7-9.4,5.25-6.09,5.93-8.98,13.74-10.2,22.01,0,.06-.11,.08-.1,0,1.07-8.5,4.1-18.11,11-23.7-12.47-2.47-25.71,5.79-27.31,18.86-1.18,9.63,3.54,24.72,16.21,21.99,10.78-2.32,13.82-13.3,17.38-22.28,3.11-7.87,7.85-14.6,14.77-19.47-2.33-3.39-9.14-3.65-12.34-2.67Z"/><path class="cls-11" d="M97.72,99.41c-3.8,2.32-7.2,5.26-10.01,8.74-3.83,4.74-6,10.06-8.61,15.49-2.02,4.21-4.38,8.3-8.52,10.71-2.58,1.5-5.22,1.44-6.36-1.38-2.12,1.91-5.06,3.16-7.68,1.3-1.84-1.31-2.99-3.28-3.64-5.44,1.28,8.38,6.32,16.8,16.04,14.7,10.78-2.32,13.82-13.3,17.38-22.28,3.11-7.87,7.85-14.6,14.77-19.47-.75-1.09-1.96-1.85-3.37-2.36Z"/><path class="cls-9" d="M55.73,106.01c.17,.12,.4-.05,.5-.18,.75-1.03,1.21-2.9,1.27-4.37,.02,0,.04,0,.05,0,.95,1.19,2.47,3.41,4.04,2.81,1.22-.47,2.13-2.17,2.37-3.46,.53,.89,1.55,1.49,2.58,1.4,.97-.09,2.46-1.28,2.99-2.25,.74,.83,1.82,1.56,2.89,1.43,.71-.09,1.31-.69,1.79-1.17,.38-.38,.97-.92,1.22-1.49,.38,.35,.87,.66,1.16,.87,.69,.48,1.55,.69,2.31,.24,.71-.43,1.16-1.1,1.54-1.82,.2-.38,.44-.84,.61-1.31,1.18,1.09,3.02,1.99,4.37,1.14,.69-.43,.99-1.32,1.23-2.04,.23-.69,.62-1.54,.8-2.3,.21,.24,.44,.5,.44,.5,.57,.51,1.19,.96,1.81,1.39,1.11,.77,2.47,1.6,3.79,1,.88-.4,1.23-1.74,1.49-2.56,.37-1.19,.92-2.55,.97-3.85,1.69,1.86,4.35,3.8,6.44,2.62,1.21-.68,1.7-2.48,2.02-3.7,.56-2.13,.44-4.15,.02-6.24,1.47-1.26,2.8-2.61,3.87-4.1,1.02,4.28,.48,8.26-.99,12.57-1,2.92-2.58,7.62-5.1,10.06-.03,0-.06-.01-.1,0-1.11-2.25-4.6-3.46-6.8-3.97-3.94-.9-9.19,1.71-12.49,3.58-.76,.43-1.47,.92-2.15,1.43-9.1-2.83-19.97,1.58-25.22,9.52-4.16-2.45-4.72-6.86-6.55-10.82,.56,.15,1.16,.27,1.8,.37,1.1,2.13,3.06,3.39,5.04,4.75Z"/><path class="cls-15" d="M51.23,101.33c1.57,.19,3.3,.23,5.08,.18-.09,.45-.13,.92-.2,1.38-.11,.75-.31,1.48-.44,2.23-1.76-.88-3.29-2.19-4.44-3.79Z"/><path class="cls-15" d="M58.06,101.42c1.63-.11,3.25-.28,4.76-.48-.39,.7-.56,1.56-.99,2.23-.74,1.17-2.67-.71-3.77-1.76Z"/><path class="cls-15" d="M64.41,100.72c1.44-.22,2.73-.45,3.75-.65-.24,.28-.47,.57-.69,.8-.83,.82-2.22,.63-3.06-.15Z"/><path class="cls-15" d="M70.05,99.65s.09-.02,.13-.03c1.44-.37,2.87-.81,4.29-1.28-.52,.47-.95,1.22-1.39,1.63-.75,.72-2.12,.32-3.03-.33Z"/><path class="cls-15" d="M75.91,97.86c1.34-.47,2.67-.97,3.99-1.5-.33,.75-.54,1.6-1.1,2.24-.87,.99-1.94-.13-2.89-.74Z"/><path class="cls-15" d="M81.21,96.05c.01-.09,.04-.18,.04-.26,1.65-.7,3.29-1.46,4.9-2.24-.36,.82-.46,1.91-.67,2.6-.39,1.26-1.14,1.34-2.3,.93-.67-.24-1.37-.6-1.98-1.02Z"/><path class="cls-15" d="M87.64,92.82c1.7-.85,3.38-1.73,5.02-2.64,.77-.42,1.57-.87,2.39-1.33,.02,.03,.04,.06,.06,.09-.03,.03-.05,.07-.06,.11-.6,1.73-.83,3.59-1.37,5.34-.78,2.49-4.85-.53-6.04-1.57Z"/><path class="cls-15" d="M95.71,88.48c2.5-1.42,5.14-3.02,7.5-4.86,.23,2.3,.28,4.53-.59,6.78-.94,2.44-3.15,.67-4.43-.32-.78-.6-1.69-1.01-2.49-1.6Z"/><path class="cls-2" d="M64.6,181.4c.03-.39,.08-.78,.13-1.18-.5,1.32-.75,2.68-.81,4.13,.74,1.73,1.97,3.36,2.45,5.66,1.04,4.97-1.23,10.14-4.18,14.05-.61,.81-3.26,3.69-3.82,.05-.16-1.06,.34-2.43,.63-3.45,.52-1.79,1.2-3.3,.89-5.19-.4-2.47-3.97-1.45-5.31-.9-.02,0-.04,.02-.06,.03,.65-.14,1.38-.32,2.06-.32-2.81,.83-4.18,4.48-5.89,6.77-.64,.85-1.35,1.65-2.19,2.3-2.68,2.07-2.88-3.1-2.7-4.22,.76-4.76,4.77-9.11,9-10.95,.11-.05,.07-.21-.05-.18-3.81,.88-10.28,7.54-10.28,12.67-3.13-.17-1-6.79-.42-8.12,1.26-2.9,3.6-5.28,6.33-6.81,.09-.05,0-.15-.08-.12-3.84,1.29-6.5,4.58-7.83,8.31-.07-.03-.14-.03-.22,0-2.51-3.66,3.17-8.78,5.75-10.69,4.03-3,8.94-3.68,13.48-1.35,.13,.06,.32-.07,.18-.18-.73-.57-1.48-1-2.25-1.33,.04-.03,.08-.06,.11-.1,5.52-7.79,11.41-14.73,18.23-20.85,.14-.53,.31-1.05,.49-1.56-1.01,3.2-1.85,6.44-2.38,9.77-4.24,3.97-8.55,8.66-11.27,13.79Z"/><path class="cls-3" d="M48.78,186.27c-.09-1.4,.19-2.74,.72-4.03-.51,.29-1,.62-1.49,.98-2.58,1.92-8.26,7.04-5.75,10.69,.08-.02,.15-.03,.22,0,1.15-3.21,3.28-6.08,6.3-7.64Z"/><path class="cls-3" d="M50.47,190.49c-.48-.44-.88-1.04-1.18-1.82-.24-.65-.39-1.28-.47-1.91-2.03,1.49-3.74,3.47-4.75,5.78-.58,1.33-2.7,7.94,.42,8.12,0-3.44,2.91-7.56,5.98-10.17Z"/><path class="cls-3" d="M74.09,166.86c-1.96,2.81-3.95,5.45-6.19,8.05-2.16,2.5-4.26,5.02-5.74,7.99-1.05,2.11-2.02,4.49-3.69,6.21-2.01,2.07-5.46,3.27-7.67,1.65-2.51,2.19-4.47,5.18-4.98,8.36-.18,1.13,.01,6.3,2.7,4.22,.84-.65,1.56-1.45,2.19-2.3,1.71-2.29,3.08-5.94,5.89-6.77-.68,0-1.41,.18-2.06,.32,.02,0,.03-.02,.06-.03,1.34-.55,4.91-1.56,5.31,.9,.31,1.89-.38,3.4-.89,5.19-.29,1.02-.8,2.39-.63,3.45,.56,3.64,3.21,.75,3.82-.05,2.95-3.91,5.22-9.08,4.18-14.05-.48-2.29-1.71-3.93-2.45-5.66,.06-1.45,.31-2.81,.81-4.13-.05,.4-.1,.79-.13,1.18,2.72-5.14,7.03-9.82,11.27-13.79,.23-1.44,.52-2.87,.86-4.28-.93,1.14-1.8,2.33-2.64,3.54Z"/><path class="cls-13" d="M137.53,218.93c1.43-.49,2.67-1.32,3.61-2.62,.03-.08,.05-.17,.08-.25-.09-.01-.18,0-.28,.04-.28,.11-.57,.25-.87,.39,1.57-2.86,5.15-4.31,7.79-1.4,1.4,1.55,2.22,3.6,2.83,5.56,1,3.24,.94,6.8,.66,10.13-.44,5.2-2.29,10.28-4.27,15.08-1.21,2.93-7.97,15.22-10.19,6.92-1-3.74-.6-10.28,2.06-13.33,.06-.07,0-.19-.09-.13-3.71,2.7-4.31,10.96-3.16,15.36-1.47,2.25-4.07,4.29-6.38,1.94-1.45-1.47-1.76-3.84-1.95-5.79-.41-4.15,1.31-8.57,4.29-11.41,.03-.03,0-.08-.04-.05-4.13,3.28-6.94,10.68-5,15.84,.05,.13,.11,.24,.16,.37-3.5,2.22-4.85-2.94-5.22-4.66-.44-2.09-.09-4.5,.37-6.54,.76-3.33,2.72-6.19,4.69-8.91,2.08-2.88,6.88-6.8,7.25-10.78,.16,.04,.33,.05,.5,.07,.07-.09,.16-.17,.26-.18,1.91-.32,5.87-1.63,6.15-3.98-2.55,2.4-5.18,4.14-8.46,1.45-1.84-1.5-2.51-3.87-2.91-6.09-.62-3.41-.24-6.92-.79-10.33,.35-.28,.73-.52,1.18-.71,1.3-.55,2.47-.63,3.65-.39-.4,3.65-.89,7.6-.09,11.19,.56,2.49,2.28,3.4,4.14,3.22Z"/><path class="cls-12" d="M133.99,208.64c-.01-1.35,0-2.7-.17-4.03,.55,.14,1.11,.33,1.69,.57-1.05-1.53-3.03-2.06-4.87-1.77-2.67,.7-3.42,2.95-4.96,4.92-.13,.17,.11,.31,.25,.18,.73-.7,1.31-1.49,1.97-2.18-.29,1.26-.49,2.56-.58,3.87-.56,.17-1.12,.33-1.7,.48-.94-.08-1.76-.65-2.47-1.72-1.3-1.9,.54-4.18,1.75-5.37,1.36-1.34,3.24-2.11,5.02-2.73,2.2-.77,4.47-1.22,6.8-.91,3.29,.44,4.79,4.49,2.54,7.11-1.28,1.49-3.41,1.91-5.27,1.59Z"/><path class="cls-13" d="M161.55,203.25c.59,.85,1.25,1.41,1.94,1.75,.03,0,.06-.01,.1-.01,2.15,.25,4.16-.45,5.2-2.49,.28-.55,.46-1.33,.72-2.03,0,0,0,0-.01,0-.24,.23-.48,.5-.73,.77,.42-3.61,3.51-6.61,7.46-4.71,2.1,1.01,3.81,2.78,5.26,4.55,2.4,2.92,3.83,6.62,4.94,10.19,1.73,5.55,1.95,11.58,1.93,17.36-.01,3.53-1.83,19.07-7.61,11.43-2.6-3.44-4.94-10.36-3.48-14.63,.03-.1-.08-.19-.14-.09-2.7,4.35,.16,13.13,3.2,17.19-.57,2.93-2.41,6.14-5.77,4.68-2.11-.91-3.43-3.22-4.45-5.16-2.17-4.11-2.25-9.4-.36-13.59,.02-.04-.04-.08-.06-.04-2.88,5.12-2.68,13.94,1.49,18.46,.1,.12,.21,.21,.32,.32-2.68,3.76-6.24-.99-7.35-2.62-1.33-1.97-1.98-4.6-2.36-6.91-.62-3.76,.21-7.53,1.1-11.17,.94-3.85,4.24-9.91,2.96-14.18,.9-.14,1.74-.48,2.51-.98,.43-.38,1.04-1.07,1.65-1.91,.33-.7,.67-1.4,.99-2.1,.28-.72,.32-1.48,.34-2.25-.01,.03-.04,.04-.05,.07-1.63,3.58-3.61,6.5-8.14,5.1-2.53-.78-4.22-2.94-5.57-5.07-2.07-3.26-3.16-7.05-5.15-10.33,.24-.43,.54-.85,.92-1.23,1.11-1.12,2.29-1.69,3.6-1.94,1.12,3.94,2.27,8.22,4.61,11.59Z"/><path class="cls-14" d="M126.64,247.31c-2-.88-3.48-3.01-4-5.11-.28,.71-.52,1.43-.69,2.18-.46,2.04-.81,4.45-.37,6.54,.37,1.72,1.72,6.88,5.22,4.66-.05-.13-.11-.24-.16-.37-.89-2.37-.77-5.21,0-7.9Z"/><path class="cls-14" d="M135.87,244.45c-2,1.67-4.38,3.13-6.98,3.28-.49,.03-.96-.03-1.41-.14-.16,1.08-.2,2.17-.1,3.24,.2,1.95,.5,4.32,1.95,5.79,2.3,2.35,4.91,.31,6.38-1.94-.71-2.69-.75-6.81,.16-10.24Z"/><path class="cls-14" d="M150.69,220.65c-.61-1.96-1.43-4.01-2.83-5.56-2.64-2.91-6.22-1.46-7.79,1.4,.3-.14,.59-.28,.87-.39,.11-.04,.2-.05,.28-.04-.03,.09-.05,.17-.08,.25-.94,1.31-2.18,2.14-3.61,2.62-1.86,.18-3.58-.73-4.14-3.22-.81-3.59-.32-7.54,.09-11.19-.61-.12-1.22-.16-1.84-.09-.56,2.3-.96,4.63-1.08,6.97-.11,2.1-.14,4.54,.86,6.46,.38,.74,.86,1.47,1.57,1.93,1.96,1.25,3.68,.69,5.71,.05,3.1-.98,6.23-1.89,7.18,2.03,1.03,4.32-.24,9.63-2.37,13.46-1.67,3-3.92,5.7-6.42,8.04-.02,.02-.04,.04-.06,.06-.83,3.12-.79,6.85-.12,9.34,2.22,8.3,8.98-3.99,10.19-6.92,1.97-4.8,3.83-9.88,4.27-15.08,.28-3.34,.34-6.9-.66-10.13Z"/><path class="cls-14" d="M168.05,240.09c-2.34,.23-4.39-.31-6.08-1.38,.4,2.02,1.04,4.18,2.17,5.85,1.1,1.62,4.67,6.38,7.35,2.62-.11-.11-.22-.2-.32-.32-1.63-1.76-2.65-4.18-3.12-6.78Z"/><path class="cls-14" d="M169.24,239.92s-.02,0-.03,0c.24,.73,.54,1.44,.89,2.11,1.02,1.94,2.33,4.25,4.45,5.16,3.37,1.46,5.2-1.75,5.77-4.68-1.39-1.86-2.74-4.71-3.54-7.67-1.67,2.5-4.11,4.39-7.54,5.07Z"/><path class="cls-14" d="M186.43,211.26c-1.11-3.56-2.55-7.27-4.94-10.19-1.46-1.77-3.16-3.54-5.26-4.55-3.95-1.9-7.04,1.1-7.46,4.71,.25-.27,.49-.54,.73-.77,0,0,0,0,.01,0-.25,.7-.43,1.48-.72,2.03-1.04,2.04-3.05,2.74-5.2,2.49-.04,0-.07,0-.1,.01-.69-.33-1.35-.9-1.94-1.75-2.35-3.37-3.5-7.65-4.61-11.59-.6,.12-1.18,.3-1.73,.57,.03,3.89,1.8,7.96,4.05,10.94,1.81,2.4,6.39,6.66,8.82,2.46,.83-1.43,1.36-3.22,2.51-4.44,1.7-1.8,3.78-.97,5.03,.91,3.27,4.94,3.65,11.8,4.17,17.54,.41,4.46-.06,9.74-2.19,13.83,.74,2.55,1.91,4.96,3.14,6.6,5.78,7.64,7.6-7.9,7.61-11.43,.02-5.78-.2-11.81-1.93-17.36Z"/><path class="cls-12" d="M159.19,195.69c-.58-1.39-1.14-2.78-1.87-4.09,.66-.1,1.35-.13,2.08-.12,.13,0,.24-.04,.33-.11-.39-1.19-1.83-1.46-3.24-1.3-1.08,.35-2.12,.99-2.95,1.6-2.48,1.85-2.3,4.49-3.07,7.18-.07,.23,.24,.27,.33,.08,.46-1.03,.72-2.08,1.12-3.08,.23,1.42,.57,2.85,1.02,4.24-.5,.41-1.02,.81-1.55,1.2-1,.32-2.1,.07-3.28-.74-2.15-1.42-1.2-4.55-.45-6.28,.85-1.96,2.46-3.54,4.03-4.93,1.95-1.72,4.1-3.13,6.64-3.79,3.58-.93,6.84,2.63,5.61,6.27-.7,2.08-2.71,3.4-4.77,3.85Z"/><path class="cls-2" d="M208.37,141.57c-2.85-4.85-12.68-7.53-16.76-6.25-.13,.04-.08,.21,.05,.2,5.02-.61,11.23,1.26,14.6,5.33,.8,.97,3.49,5.96-.2,5.49-1.16-.15-2.28-.5-3.35-.95-2.89-1.21-6.21-3.89-9.33-3.12,.64-.37,1.43-.61,2.12-.84-.03,0-.05,0-.07,0-1.57,.22-5.51,1.25-4.51,3.81,.76,1.95,2.25,3,3.73,4.4,.85,.8,2.08,1.82,2.52,2.91,1.5,3.75-2.62,2.5-3.64,2.08-4.96-2.06-9.98-5.68-11.76-10.94-.82-2.44-.57-4.67-.83-6.71-.86-1.33-1.86-2.48-3.06-3.45,.27,.34,.54,.69,.78,1.04-6-3.69-13.54-5.79-20.27-7.19-6.06-1.26-12.19-2.04-18.34-1.04-.08,.01-.1,.13,0,.13,8.21-.02,15.83,1.5,23.29,3.84,.01,.05,.04,.1,.07,.14,2.26,2.82,4.72,5.34,6.71,8.39,1.3,2.01,2.14,4.18,3.06,6.34,.3,1.01,.59,2.01,.88,2.96,2.06,6.86,2.92,13.47,2.87,20.62,0,.33,.42,.21,.46-.05,.2-1.32,.32-2.65,.38-3.98,.07-.02,.15-.07,.21-.15,1.87-2.49,8.4-6.33,10.8-2.72,1.9,2.85-4.78,5.61-6.49,6.58-.26,.15-.29,.73,.11,.64,.48-.11,1.06-.29,1.69-.55,3.09-.56,6.35-1.05,9.35,.04,1.77,.65,3.32,2.5,1.99,4.74-.8,1.34-2.14,2.19-3.54,2.74-1.59,.63-3.33,.76-5.02,1.01-1.42-.2-2.86-.18-4.12,.01-.31,.05-.52,.52-.14,.63,3.43,.93,13.27,2.74,9.78,8.52-1.29,2.13-4.43,3.04-6.72,3.44-3.44,.59-6-.99-8.39-3.28-.08-.08-.18-.11-.27-.12,.1-.27,.2-.55,.28-.84,.18-.61-.6-.6-.81-.14-1.73,3.8-4.57,5.99-8.18,7.89-1.82,.95-4.11,2.19-6.33,2.81,2.5-1.5,4.47-4.6,3.73-7.31-1.64-6-8.03-5.15-12.09-2.29-3.74,2.64-8,7.35-7.39,12.26,.28,2.3,2.18,3.53,4.06,3.45-.18,.12-.36,.23-.54,.35,.5-.08,1-.18,1.5-.27-3.3,2.72-7.31,4.97-11.41,6.02,1.04-.84,1.79-1.95,1.94-3.21,.66-5.54-4.93-6.99-9.27-5.99-4,.93-9.14,3.41-10.29,7.69-.54,2,.62,3.67,2.2,4.24-8.7,1.87-19.13,.8-27.19-2.16-7.82-2.87-13.62-9.98-17.07-17.27-3.6-7.61-4.3-16.69-3.3-24.94,1.08-8.94,5.6-16.98,8.32-25.46,2.97-1.32,5.78-2.97,8.14-5,.47-.62,.92-1.25,1.35-1.89,.11-.26,.2-.53,.28-.8-.03,.02-.06,.03-.09,.05-6.2,5.06-12.36,8.52-20.35,9.84-.97,.16-1.97,.3-3,.43,4.18-1.8,7.84-5.44,10.09-9.29,2.57-4.4,3.92-9.36,5.82-14.06,2.91-7.21,7.64-12.92,13.9-17.36,.66-.79,1.4-1.52,2.16-2.23,1.89-2.61,3.36-5.68,4.49-8.68,1.24-3.3,2.03-6.07,1.82-10.7-.06-1.19-.5-2.74-.6-3.91-.06-.81,.21-1.53,.35-2.28-.31-.18-.79-.11-1.11,.33-7.74,10.62-20.37,17.08-32.57,21.29-6.47,2.24-13.8,3.54-20.66,3.1-2.31-.15-9.96,.19-10.22-3.18,0-.04-.07-.02-.07,.02-.05,1.92,1.22,3.13,3.2,3.84,.57,4.5,2.81,9.69,6.76,12.04-.35,.61-.68,1.23-.97,1.88-4.1,9.17-3.49,22.05,5.42,28.17,.83,.57,1.67,1.02,2.52,1.35-1.77-.13-3.5-.39-5.15-.82-.03-.1-.1-.18-.24-.22-5.86-1.65-11.43-3.24-16.6-6.56-5.14-3.3-8.43-8.36-11.22-13.65-2.89-5.49-4.02-11.43-4.66-17.54-.41-3.87-.39-7.55,.5-11.33,.49-2.08,1.06-4.08,1.36-6.19,.33,.09,.69,.14,1.08,.13,.03,0,.05,0,.08-.01,2.13,.56,4.45-.23,6.48-1.44,.18-.18,.35-.37,.51-.56-.05-.14-.21-.24-.39-.15-1.46,.73-3.75,1.68-5.64,1.52-1.04,0-2.1-.2-2.67-1.02-1.82-2.64,.65-7.19,2.54-9.15,.1-.1,.2-.14,.3-.15,.08-.09,.16-.19,.23-.28,.51,1.23,1.06,2.42,1.7,3.57-.71-.06-1.44-.22-2.13-.2-.38,0-.88,.67-.47,.97,1.32,1,2.94,1.19,4.56,.86,3.88-1.46,7.01-4.52,6.69-8.78-.16-.44-.37-.84-.59-1.23,.32,1.4-.13,2.98-.94,4.34-.04-.02-.08-.04-.12-.05-.12-.25-.24-.5-.36-.75,.02-.06,.02-.13,0-.19-.44-1.74-1.13-3.4-1.92-5.02,0,0,.01,0,.01-.02,.44-.9,1.44-1.43,2.11-2.13,.04-.05,.08-.1,.1-.15,.42-.32,.87-.62,1.39-.83,1.68-.69,4.43-.9,5.95,.42,2.31,1.99,1.2,4.78,.5,7.23,.95-1,1.76-2.08,2.28-3.36,.21-1.21,.12-2.43-.43-3.47-.25-.47-.59-.84-.99-1.15,.45-.17,.89-.43,1.24-.63,1.11-.62,2.42-1.26,3.41-2.04,.1,.52,.3,1.02,.64,1.47,.7,.95,1.77,1.55,2.95,1.87,1.38,.07,2.7-.19,4.01-.63-2.51-.41-5.51-.61-6.32-3.54-.54-1.95,.82-4.34,2.17-5.57,.41-.38,.87-.66,1.34-.9,.06,0,.13,0,.19-.03,.91-.31,1.83-.99,2.83-1,0,0,.01,0,.02,0,1.12,1.41,2.33,2.75,3.72,3.89,.05,.04,.11,.07,.18,.08,.18,.21,.35,.43,.52,.65-.01,.04-.01,.08,0,.13-1.57,.15-3.19-.13-4.33-1.01,.27,.37,.54,.73,.86,1.06,3.72,2.11,7.82,.6,10.8-2.29,.99-1.32,1.51-2.87,1.18-4.49-.1-.49-.91-.32-1.08,.02-.31,.62-.48,1.34-.74,2.01-.77-1.06-1.61-2.08-2.5-3.06,.11-.03,.24-.06,.35-.09,.05-.09,.13-.16,.26-.21,2.58-.87,7.75-1.16,9.36,1.62,.5,.86,.23,1.92-.22,2.85-.67,1.78-2.5,3.44-3.79,4.45-.16,.12-.13,.31-.03,.41,.24-.06,.49-.14,.73-.23,1.97-1.32,3.68-3.08,4.08-5.24,.02-.02,.04-.04,.05-.06,.94-1.89,.16-3.7-1.41-4.69,.48-.05,.97-.14,1.46-.26,1.13-.26,2.44-.49,3.48-.99,.08-.04,.13-.11,.17-.19,.82,3.12,3.96,4.62,7.13,5.25,.38,.08,.5-.45,.13-.56-2.79-.86-7.89-2.96-5.94-6.93,1.75-3.57,6.57-3.48,9.94-4.01,.02,2.09-.08,4.14-.35,6.24-.99-.52-1.92-1.22-3.06-1.87-.32-.18-.98-.05-.71,.44,1.34,2.5,5.05,3.59,7.72,3.28,1.96-.22,6.46-1.15,6.4-3.79,0-.17-.21-.25-.34-.14-.65,.58-1.4,1.12-2.2,1.59,.52-2.01,.76-4.05,.8-6.1,1.69,.13,3.39-.14,5.06,.52,1.79,.7,4.04,2.55,4.24,4.67,.31,3.26-2.68,4.57-5.02,5.96-.37,.22,.02,.73,.35,.67,2.49-.38,5.45-2.04,6.17-4.61,.08-.28,.11-.57,.12-.85,.55,.16,1.07,.42,1.59,.67,.48,.24,1.06,.55,1.61,.56-.05,.08-.11,.16-.16,.25-1.19,2.22-.25,5.29,1.21,7.19,.2,.26,.79,.16,.68-.23-.7-2.48-1.89-5.33,.46-7.36,1.53-1.32,4.27-1.11,5.96-.42,1.57,.64,2.55,1.94,3.8,2.95-1.32,1.43-2.48,2.99-3.44,4.7-.25-.84-.4-1.7-.47-2.52-.01-.16-.21-.24-.32-.13-1.77,1.77,.7,5.34,1.89,6.78,1.63,1.96,4.88,3.65,7.43,2.81,.5-.17,.14-.68-.2-.77-1.21-.3-2.3-.43-3.32-.72,1.19-1.62,2.45-3.08,3.84-4.5,1.95,2.57,5.31,5.67,4.17,9.24-.08,.24-.17,.46-.27,.67-.1,.05-.19,.16-.18,.28-1.71,2.68-5.91,1.02-8.15-.1-.32-.16-.58,.27-.27,.47,2.77,1.76,6.16,2.82,8.86,.69,0-.01,.02-.03,.03-.04,1.17,2.45,2.27,4.86,2.95,7.52,.87,3.39,.52,7.19,.35,10.65-.3,5.85-1.24,11.24-3.48,16.66-5.02,12.11-16.82,19.08-29.22,21.4,1.31,.13,2.62,.19,3.93,.11,6.39-1.34,12.52-5.08,17.52-9.73,4.7-1.97,11.3,.26,16.65,1.94-2.69-.06-5.41-.01-8.19,.08-.06,0-.1,.1-.02,.1,16.39,.65,31,4.92,45.91,11.61,.05,.03,.1,.03,.16,.04-.54,.73-1.01,1.56-1.38,2.5-.08,.19,.19,.21,.27,.08,2.99-4.72,8.01-6.8,13.48-6.22,3.51,.38,11.72,2.06,11.38,6.9-.09,.02-.16,.06-.2,.13-3.33-2.78-7.67-4.41-12.02-3.49-.09,.02-.12,.16-.01,.16,3.43-.06,6.97,.88,9.77,2.92,1.29,.93,6.97,6,4.12,7.9Z"/><path class="cls-3" d="M204.25,133.67c-2.81-2.03-6.34-2.98-9.77-2.92-.11,0-.08-.14,.01-.16,4.35-.92,8.69,.71,12.02,3.49,.04-.07,.12-.11,.2-.13,.34-4.85-7.87-6.53-11.38-6.9-5.47-.59-10.49,1.5-13.48,6.22-.08,.13-.35,.11-.27-.08,.37-.94,.85-1.77,1.38-2.5-.05,0-.1-.01-.16-.04-14.91-6.7-29.52-10.96-45.91-11.61-.08,0-.04-.1,.02-.1,2.78-.1,5.49-.14,8.19-.08-5.35-1.68-11.96-3.91-16.65-1.94-5,4.65-11.12,8.39-17.52,9.73-1.31,.08-2.62,.02-3.93-.11,12.4-2.32,24.2-9.29,29.22-21.4,2.25-5.42,3.18-10.82,3.48-16.66,.18-3.46,.52-7.26-.35-10.65-.68-2.66-1.78-5.08-2.95-7.52,0,.01-.02,.03-.03,.04-2.7,2.13-6.09,1.07-8.86-.69-.31-.2-.05-.63,.27-.47,2.24,1.12,6.44,2.78,8.15,.1-.01-.12,.07-.23,.18-.28,.1-.2,.19-.42,.27-.67,1.14-3.58-2.22-6.67-4.17-9.24-1.39,1.42-2.65,2.89-3.84,4.5,1.02,.29,2.11,.42,3.32,.72,.34,.08,.7,.6,.2,.77-2.55,.84-5.8-.85-7.43-2.81-1.2-1.44-3.67-5.01-1.89-6.78,.11-.11,.31-.03,.32,.13,.07,.82,.22,1.68,.47,2.52,.96-1.71,2.13-3.27,3.44-4.7-1.25-1.01-2.23-2.32-3.8-2.95-1.68-.69-4.43-.89-5.96,.42-2.35,2.03-1.16,4.88-.46,7.36,.11,.39-.49,.49-.68,.23-1.46-1.89-2.39-4.96-1.21-7.19,.05-.09,.11-.17,.16-.25-.55,0-1.13-.32-1.61-.56-.52-.26-1.04-.51-1.59-.67-.01,.28-.04,.56-.12,.85-.71,2.56-3.67,4.22-6.17,4.61-.33,.05-.72-.46-.35-.67,2.34-1.38,5.33-2.69,5.02-5.96-.2-2.12-2.45-3.97-4.24-4.67-1.67-.66-3.36-.39-5.06-.52-.04,2.05-.29,4.09-.8,6.1,.81-.47,1.55-1.01,2.2-1.59,.12-.11,.33-.03,.34,.14,.06,2.65-4.43,3.57-6.4,3.79-2.68,.3-6.38-.78-7.72-3.28-.26-.49,.39-.62,.71-.44,1.15,.65,2.07,1.35,3.06,1.87,.27-2.1,.38-4.15,.35-6.24-3.37,.53-8.19,.45-9.94,4.01-1.95,3.97,3.16,6.07,5.94,6.93,.36,.11,.25,.63-.13,.56-3.17-.63-6.31-2.13-7.13-5.25-.04,.08-.09,.15-.17,.19-1.04,.5-2.35,.73-3.48,.99-.5,.11-.98,.2-1.46,.26,1.57,1,2.35,2.81,1.41,4.69-.01,.02-.03,.04-.05,.06-.4,2.16-2.11,3.93-4.08,5.24-.24,.09-.48,.17-.73,.23-.1-.11-.12-.29,.03-.41,1.28-1.01,3.12-2.67,3.79-4.45,.45-.93,.72-1.99,.22-2.85-1.6-2.78-6.78-2.48-9.36-1.62-.13,.05-.21,.12-.26,.21-.12,.03-.24,.06-.35,.09,.89,.99,1.73,2,2.5,3.06,.25-.67,.42-1.39,.74-2.01,.17-.34,.98-.5,1.08-.02,.33,1.62-.18,3.17-1.18,4.49-2.98,2.88-7.08,4.4-10.8,2.29-.33-.33-.6-.7-.86-1.06,1.13,.88,2.75,1.16,4.33,1.01,0-.05,0-.09,0-.13-.17-.22-.35-.44-.52-.65-.06-.01-.13-.04-.18-.08-1.39-1.14-2.59-2.48-3.72-3.89,0,0-.01,0-.02,0-1,.01-1.92,.69-2.83,1-.06,.02-.12,.03-.19,.03-.47,.24-.93,.52-1.34,.9-1.34,1.23-2.7,3.62-2.17,5.57,.81,2.94,3.81,3.13,6.32,3.54-1.31,.43-2.63,.7-4.01,.63-1.18-.32-2.25-.93-2.95-1.87-.33-.45-.53-.95-.64-1.47-.99,.78-2.31,1.42-3.41,2.04-.35,.2-.79,.46-1.24,.63,.4,.31,.74,.69,.99,1.15,.56,1.04,.64,2.27,.43,3.47-.52,1.28-1.33,2.36-2.28,3.36,.7-2.45,1.81-5.24-.5-7.23-1.31-1.13-3.5-1.14-5.16-.68,1.07,.69,2,1.54,2.6,2.72,2.1,4.16,.04,8.16-.26,12.44,4.63-2.28,9.79-6.94,9.72-12.41,0-.26,.25-.46,.49-.46,2.17,.02,11.5,1.12,9.51-3.05-.15-.32,.13-.64,.45-.64,2.58-.06,4.95-.74,7.1-2.19,.24-.16,.55-.08,.56,.24,.04,1.12,.15,2.21,.04,3.33,5.65-.64,10.49-5.12,12.3-10.4,.08-.23,.31-.43,.57-.34,1.76,.61,3.47,1.33,5.27,1.83,1.75,.48,5.97,1.65,4.96-1.58-.08-.25,.16-.5,.39-.55,2.55-.62,5.14-1.09,7.77-1.14,.21,0,.32,.25,.26,.43-.53,1.59-1.41,2.93-2.25,4.36-.67,1.14,.97,1.06,1.82,1.05,.84-.02,1.69-.08,2.51-.3,3.42-.92,6.28-3.01,9.04-5.16,.18-.14,.49-.12,.55,.14,.33,1.45,.42,2.96,.89,4.37,.26,.8,.63,1.81,1.34,2.35,.73,.55,3.12,1.97,3.27-.52,.02-.3,.52-.7,.72-.32,1.25,2.32,3.06,4.21,4.77,6.18,.21,.24,.04,.67-.29,.71-.56,.06-1.1,.22-1.64,.37,2.68,2.12,6.23,2.77,8.87,4.95,2.25,1.86,3.04,4.51,3.08,7.36,.09,6.51-1.79,13.61-4.57,19.48-3.07,6.48-8.26,13.33-14.92,16.4-2.97,1.37-6.61,2.15-9.78,.9-2.29-.91-4.71-2.54-4.16-5.35,.69-3.57,3.69-6.39,5.81-9.18,3.81-5.01,7.16-10.69,8.43-16.92,.71-3.43,.83-6.89,.33-10.36-.21-1.43-.37-4.05-1.75-4.94-2.12-1.37-6.12,3.59-7.43,4.78-4.13,3.72-8.95,6.79-13.72,9.62-5.34,3.16-10.89,6-16.7,8.2-5.3,2.01-11.04,4.05-16.78,4.03-5.23-.02-10.14-1.61-15.05-3.24,.66,4.4,1.28,9.07,3.54,12.97,1.64,2.83,4.55,6.42,4,9.94-.89,5.77-5.9,9.69-11.66,8.13-6.51-1.76-11.3-6.8-14.22-12.92,.74,3.72,1.86,7.33,3.67,10.76,2.79,5.29,6.08,10.34,11.22,13.65,5.17,3.32,10.75,4.91,16.6,6.56,.14,.04,.21,.12,.24,.22,1.65,.43,3.38,.69,5.15,.82-.85-.34-1.69-.78-2.52-1.35-8.91-6.11-9.52-19-5.42-28.17,.29-.64,.61-1.27,.97-1.88-3.95-2.35-6.2-7.53-6.76-12.04-1.99-.72-3.25-1.92-3.2-3.84,0-.04,.07-.06,.07-.02,.25,3.37,7.91,3.03,10.22,3.18,6.86,.43,14.19-.87,20.66-3.1,12.2-4.21,24.83-10.66,32.57-21.29,.32-.44,.8-.51,1.11-.33-.15,.75-.42,1.48-.35,2.28,.1,1.17,.54,2.73,.6,3.91,.21,4.62-.57,7.4-1.82,10.7-1.13,2.99-2.6,6.06-4.49,8.68-.75,.71-1.49,1.44-2.16,2.23-6.26,4.45-11,10.15-13.9,17.36-1.89,4.7-3.24,9.66-5.82,14.06-2.25,3.84-5.91,7.49-10.09,9.29,1.03-.13,2.03-.27,3-.43,7.99-1.32,14.15-4.79,20.35-9.84,.03-.02,.06-.03,.09-.05-.08,.27-.17,.54-.28,.8-.43,.65-.88,1.28-1.35,1.89-2.37,2.03-5.18,3.68-8.14,5-2.71,8.48-7.24,16.52-8.32,25.46-.99,8.25-.3,17.34,3.3,24.94,3.45,7.29,9.26,14.4,17.07,17.27,8.06,2.96,18.5,4.03,27.19,2.16-1.58-.58-2.74-2.24-2.2-4.24,1.15-4.28,6.28-6.76,10.29-7.69,4.34-1.01,9.93,.45,9.27,5.99-.15,1.26-.91,2.36-1.94,3.21,4.1-1.05,8.11-3.3,11.41-6.02-.5,.09-1,.19-1.5,.27,.18-.12,.36-.23,.54-.35-1.88,.07-3.77-1.16-4.06-3.45-.61-4.91,3.65-9.62,7.39-12.26,4.06-2.86,10.44-3.72,12.09,2.29,.74,2.72-1.22,5.81-3.73,7.31,2.23-.61,4.51-1.85,6.33-2.81,3.61-1.89,6.45-4.09,8.18-7.89,.21-.46,.99-.48,.81,.14-.08,.29-.18,.57-.28,.84,.09,0,.18,.04,.27,.12,2.39,2.29,4.94,3.87,8.39,3.28,2.28-.39,5.43-1.3,6.72-3.44,3.49-5.78-6.35-7.58-9.78-8.52-.38-.11-.17-.58,.14-.63,1.26-.19,2.7-.21,4.12-.01,1.69-.25,3.43-.38,5.02-1.01,1.4-.56,2.74-1.4,3.54-2.74,1.33-2.24-.22-4.09-1.99-4.74-3-1.09-6.26-.6-9.35-.04-.63,.25-1.21,.44-1.69,.55-.4,.09-.37-.5-.11-.64,1.71-.97,8.39-3.73,6.49-6.58-2.39-3.6-8.93,.23-10.8,2.72-.06,.08-.13,.13-.21,.15-.06,1.33-.18,2.65-.38,3.98-.04,.26-.46,.37-.46,.05,.05-7.15-.81-13.76-2.87-20.62-.29-.95-.57-1.95-.88-2.96-.92-2.16-1.76-4.33-3.06-6.34-1.99-3.05-4.45-5.57-6.71-8.39-.03-.04-.06-.09-.07-.14-7.46-2.34-15.08-3.86-23.29-3.84-.1,0-.07-.12,0-.13,6.15-1,12.28-.22,18.34,1.04,6.74,1.4,14.27,3.5,20.27,7.19-.25-.35-.51-.7-.78-1.04,1.21,.97,2.2,2.11,3.06,3.45,.26,2.05,0,4.28,.83,6.71,1.78,5.27,6.8,8.89,11.76,10.94,1.02,.42,5.14,1.67,3.64-2.08-.44-1.09-1.67-2.11-2.52-2.91-1.48-1.4-2.97-2.45-3.73-4.4-.99-2.55,2.94-3.58,4.51-3.81,.03,0,.05,0,.07,0-.69,.23-1.49,.47-2.12,.84,3.12-.77,6.44,1.91,9.33,3.12,1.07,.45,2.19,.8,3.35,.95,3.69,.47,.99-4.53,.2-5.49-3.37-4.07-9.57-5.95-14.6-5.33-.13,.02-.18-.15-.05-.2,4.09-1.28,13.91,1.4,16.76,6.25,2.86-1.9-2.83-6.97-4.12-7.9Z"/><path class="cls-16" d="M204.25,133.67c-2.81-2.03-6.34-2.98-9.77-2.92-.11,0-.08-.14,.01-.16,4.35-.92,8.69,.71,12.02,3.49,.04-.07,.12-.11,.2-.13,.34-4.85-7.87-6.53-11.38-6.9-5.47-.59-10.49,1.5-13.48,6.22-.08,.13-.35,.11-.27-.08,.37-.94,.85-1.77,1.38-2.5-.05,0-.1-.01-.16-.04-14.91-6.7-29.52-10.96-45.91-11.61-.08,0-.04-.1,.02-.1,2.78-.1,5.49-.14,8.19-.08-5.35-1.68-11.96-3.91-16.65-1.94-5,4.65-11.12,8.39-17.52,9.73-1.31,.08-2.62,.02-3.93-.11,12.4-2.32,24.2-9.29,29.22-21.4,2.25-5.42,3.18-10.82,3.48-16.66,.18-3.46,.52-7.26-.35-10.65-.68-2.66-1.78-5.08-2.95-7.52,0,.01-.02,.03-.03,.04-2.7,2.13-6.09,1.07-8.86-.69-.31-.2-.05-.63,.27-.47,2.24,1.12,6.44,2.78,8.15,.1-.01-.12,.07-.23,.18-.28,.1-.2,.19-.42,.27-.67,1.14-3.58-2.22-6.67-4.17-9.24-1.39,1.42-2.65,2.89-3.84,4.5,1.02,.29,2.11,.42,3.32,.72,.34,.08,.7,.6,.2,.77-2.55,.84-5.8-.85-7.43-2.81-1.2-1.44-3.67-5.01-1.89-6.78,.11-.11,.31-.03,.32,.13,.07,.82,.22,1.68,.47,2.52,.96-1.71,2.13-3.27,3.44-4.7-1.25-1.01-2.23-2.32-3.8-2.95-1.68-.69-4.43-.89-5.96,.42-2.35,2.03-1.16,4.88-.46,7.36,.11,.39-.49,.49-.68,.23-1.46-1.89-2.39-4.96-1.21-7.19,.05-.09,.11-.17,.16-.25-.55,0-1.13-.32-1.61-.56-.52-.26-1.04-.51-1.59-.67-.01,.28-.04,.56-.12,.85-.71,2.56-3.67,4.22-6.17,4.61-.33,.05-.72-.46-.35-.67,2.34-1.38,5.33-2.69,5.02-5.96-.2-2.12-2.45-3.97-4.24-4.67-1.67-.66-3.36-.39-5.06-.52-.04,2.05-.29,4.09-.8,6.1,.81-.47,1.55-1.01,2.2-1.59,.12-.11,.33-.03,.34,.14,.06,2.65-4.43,3.57-6.4,3.79-2.68,.3-6.38-.78-7.72-3.28-.26-.49,.39-.62,.71-.44,1.15,.65,2.07,1.35,3.06,1.87,.27-2.1,.38-4.15,.35-6.24-3.37,.53-8.19,.45-9.94,4.01-1.95,3.97,3.16,6.07,5.94,6.93,.36,.11,.25,.63-.13,.56-3.17-.63-6.31-2.13-7.13-5.25-.04,.08-.09,.15-.17,.19-1.04,.5-2.35,.73-3.48,.99-.5,.11-.98,.2-1.46,.26,1.57,1,2.35,2.81,1.41,4.69-.01,.02-.03,.04-.05,.06-.4,2.16-2.11,3.93-4.08,5.24-.24,.09-.48,.17-.73,.23-.1-.11-.12-.29,.03-.41,1.28-1.01,3.12-2.67,3.79-4.45,.45-.93,.72-1.99,.22-2.85-1.6-2.78-6.78-2.48-9.36-1.62-.13,.05-.21,.12-.26,.21-.12,.03-.24,.06-.35,.09,.89,.99,1.73,2,2.5,3.06,.25-.67,.42-1.39,.74-2.01,.17-.34,.98-.5,1.08-.02,.33,1.62-.18,3.17-1.18,4.49-2.98,2.88-7.08,4.4-10.8,2.29-.33-.33-.6-.7-.86-1.06,1.13,.88,2.75,1.16,4.33,1.01,0-.05,0-.09,0-.13-.17-.22-.35-.44-.52-.65-.06-.01-.13-.04-.18-.08-1.39-1.14-2.59-2.48-3.72-3.89,0,0-.01,0-.02,0-1,.01-1.92,.69-2.83,1-.06,.02-.12,.03-.19,.03-.47,.24-.93,.52-1.34,.9-1.34,1.23-2.7,3.62-2.17,5.57,.81,2.94,3.81,3.13,6.32,3.54-1.31,.43-2.63,.7-4.01,.63-1.18-.32-2.25-.93-2.95-1.87-.33-.45-.53-.95-.64-1.47-.99,.78-2.31,1.42-3.41,2.04-.35,.2-.79,.46-1.24,.63,.4,.31,.74,.69,.99,1.15,.56,1.04,.64,2.27,.43,3.47-.52,1.28-1.33,2.36-2.28,3.36,.7-2.45,1.81-5.24-.5-7.23-1.31-1.13-3.5-1.14-5.16-.68,1.07,.69,2,1.54,2.6,2.72,2.1,4.16,.04,8.16-.26,12.44,4.63-2.28,9.79-6.94,9.72-12.41,0-.26,.25-.46,.49-.46,2.17,.02,11.5,1.12,9.51-3.05-.15-.32,.13-.64,.45-.64,2.58-.06,4.95-.74,7.1-2.19,.24-.16,.55-.08,.56,.24,.04,1.12,.15,2.21,.04,3.33,5.65-.64,10.49-5.12,12.3-10.4,.08-.23,.31-.43,.57-.34,1.76,.61,3.47,1.33,5.27,1.83,1.75,.48,5.97,1.65,4.96-1.58-.08-.25,.16-.5,.39-.55,2.55-.62,5.14-1.09,7.77-1.14,.21,0,.32,.25,.26,.43-.53,1.59-1.41,2.93-2.25,4.36-.67,1.14,.97,1.06,1.82,1.05,.84-.02,1.69-.08,2.51-.3,3.42-.92,6.28-3.01,9.04-5.16,.18-.14,.49-.12,.55,.14,.33,1.45,.42,2.96,.89,4.37,.26,.8,.63,1.81,1.34,2.35,.73,.55,3.12,1.97,3.27-.52,.02-.3,.52-.7,.72-.32,1.25,2.32,3.06,4.21,4.77,6.18,.21,.24,.04,.67-.29,.71-.56,.06-1.1,.22-1.64,.37,2.68,2.12,6.23,2.77,8.87,4.95,2.25,1.86,3.04,4.51,3.08,7.36,.09,6.51-1.79,13.61-4.57,19.48-3.07,6.48-8.26,13.33-14.92,16.4-2.97,1.37-6.61,2.15-9.78,.9-2.29-.91-4.71-2.54-4.16-5.35,.69-3.57,3.69-6.39,5.81-9.18,3.81-5.01,7.16-10.69,8.43-16.92,.71-3.43,.83-6.89,.33-10.36-.21-1.43-.37-4.05-1.75-4.94-2.12-1.37-6.12,3.59-7.43,4.78-4.13,3.72-8.95,6.79-13.72,9.62-5.34,3.16-10.89,6-16.7,8.2-5.3,2.01-11.04,4.05-16.78,4.03-5.23-.02-10.14-1.61-15.05-3.24,.66,4.4,1.28,9.07,3.54,12.97,1.64,2.83,4.55,6.42,4,9.94-.89,5.77-5.9,9.69-11.66,8.13-6.51-1.76-11.3-6.8-14.22-12.92,.74,3.72,1.86,7.33,3.67,10.76,2.79,5.29,6.08,10.34,11.22,13.65,5.17,3.32,10.75,4.91,16.6,6.56,.14,.04,.21,.12,.24,.22,1.65,.43,3.38,.69,5.15,.82-.85-.34-1.69-.78-2.52-1.35-8.91-6.11-9.52-19-5.42-28.17,.29-.64,.61-1.27,.97-1.88-3.95-2.35-6.2-7.53-6.76-12.04-1.99-.72-3.25-1.92-3.2-3.84,0-.04,.07-.06,.07-.02,.25,3.37,7.91,3.03,10.22,3.18,6.86,.43,14.19-.87,20.66-3.1,12.2-4.21,24.83-10.66,32.57-21.29,.32-.44,.8-.51,1.11-.33-.15,.75-.42,1.48-.35,2.28,.1,1.17,.54,2.73,.6,3.91,.21,4.62-.57,7.4-1.82,10.7-1.13,2.99-2.6,6.06-4.49,8.68-.75,.71-1.49,1.44-2.16,2.23-6.26,4.45-11,10.15-13.9,17.36-1.89,4.7-3.24,9.66-5.82,14.06-2.25,3.84-5.91,7.49-10.09,9.29,1.03-.13,2.03-.27,3-.43,7.99-1.32,14.15-4.79,20.35-9.84,.03-.02,.06-.03,.09-.05-.08,.27-.17,.54-.28,.8-.43,.65-.88,1.28-1.35,1.89-2.37,2.03-5.18,3.68-8.14,5-.38,1.17-.79,2.33-1.22,3.49,.67-.65,1.36-1.27,2.1-1.85,3.47-2.74,7.44-4.71,11.6-6.16,10.49-3.67,23.17-4.72,33.83-1.08,18.18,6.21,27.81,24.91,27.37,43.39,0,.25-.32,.58-.58,.44-8.77-4.51-14.53,9.08-17.39,15.12-.11,.23-.4,.33-.61,.19-4.58-3.04-10.13-2.45-14.52,.69-2.06,1.48-3.96,3.29-5.32,5.46-.86,1.36-1.86,2.73-3.03,3.83-2.35,2.21-5.4,3.16-8.47,3.95-2.69,.7-5.47,1.2-8.26,1.32,7.45,2.09,16.24,2.66,23.74,1.05-1.58-.58-2.74-2.24-2.2-4.24,1.15-4.28,6.28-6.76,10.29-7.69,4.34-1.01,9.93,.45,9.27,5.99-.15,1.26-.91,2.36-1.94,3.21,4.1-1.05,8.11-3.3,11.41-6.02-.5,.09-1,.19-1.5,.27,.18-.12,.36-.23,.54-.35-1.88,.07-3.77-1.16-4.06-3.45-.61-4.91,3.65-9.62,7.39-12.26,4.06-2.86,10.44-3.72,12.09,2.29,.74,2.72-1.22,5.81-3.73,7.31,2.23-.61,4.51-1.85,6.33-2.81,3.61-1.89,6.45-4.09,8.18-7.89,.21-.46,.99-.48,.81,.14-.08,.29-.18,.57-.28,.84,.09,0,.18,.04,.27,.12,2.39,2.29,4.94,3.87,8.39,3.28,2.28-.39,5.43-1.3,6.72-3.44,3.49-5.78-6.35-7.58-9.78-8.52-.38-.11-.17-.58,.14-.63,1.26-.19,2.7-.21,4.12-.01,1.69-.25,3.43-.38,5.02-1.01,1.4-.56,2.74-1.4,3.54-2.74,1.33-2.24-.22-4.09-1.99-4.74-3-1.09-6.26-.6-9.35-.04-.63,.25-1.21,.44-1.69,.55-.4,.09-.37-.5-.11-.64,1.71-.97,8.39-3.73,6.49-6.58-2.39-3.6-8.93,.23-10.8,2.72-.06,.08-.13,.13-.21,.15-.06,1.33-.18,2.65-.38,3.98-.04,.26-.46,.37-.46,.05,.05-7.15-.81-13.76-2.87-20.62-.29-.95-.57-1.95-.88-2.96-.92-2.16-1.76-4.33-3.06-6.34-1.99-3.05-4.45-5.57-6.71-8.39-.03-.04-.06-.09-.07-.14-7.46-2.34-15.08-3.86-23.29-3.84-.1,0-.07-.12,0-.13,6.15-1,12.28-.22,18.34,1.04,6.74,1.4,14.27,3.5,20.27,7.19-.25-.35-.51-.7-.78-1.04,1.21,.97,2.2,2.11,3.06,3.45,.26,2.05,0,4.28,.83,6.71,1.78,5.27,6.8,8.89,11.76,10.94,1.02,.42,5.14,1.67,3.64-2.08-.44-1.09-1.67-2.11-2.52-2.91-1.48-1.4-2.97-2.45-3.73-4.4-.99-2.55,2.94-3.58,4.51-3.81,.03,0,.05,0,.07,0-.69,.23-1.49,.47-2.12,.84,3.12-.77,6.44,1.91,9.33,3.12,1.07,.45,2.19,.8,3.35,.95,3.69,.47,.99-4.53,.2-5.49-3.37-4.07-9.57-5.95-14.6-5.33-.13,.02-.18-.15-.05-.2,4.09-1.28,13.91,1.4,16.76,6.25,2.86-1.9-2.83-6.97-4.12-7.9Z"/><path class="cls-18" d="M193.4,168.58c-3-1.09-6.26-.6-9.35-.04-.63,.25-1.21,.44-1.69,.55-.4,.09-.37-.5-.11-.64,1.71-.97,8.39-3.73,6.49-6.58-2.39-3.6-8.93,.23-10.8,2.72-.06,.08-.13,.13-.21,.15-.06,1.33-.18,2.65-.38,3.98-.04,.26-.46,.37-.46,.05,.05-7.15-.81-13.76-2.87-20.62-.29-.95-.57-1.95-.88-2.96-.92-2.16-1.76-4.33-3.06-6.34-1.99-3.05-4.45-5.57-6.71-8.39-.03-.04-.06-.09-.07-.14-7.39-2.32-14.95-3.83-23.07-3.83-1.15,.48-2.29,.99-3.44,1.5,13.55,5.21,24.42,16.88,28.43,31.02,2.38,8.37,2.93,17.36-.17,25.64-.2,.53-.41,1.05-.63,1.57,.52,.65,.95,1.46,1.23,2.48,.74,2.72-1.22,5.81-3.73,7.31,2.23-.61,4.51-1.85,6.33-2.81,3.61-1.89,6.45-4.09,8.18-7.89,.21-.46,.99-.48,.81,.14-.08,.29-.18,.57-.28,.84,.09,0,.18,.04,.27,.12,2.39,2.29,4.94,3.87,8.39,3.28,2.28-.39,5.43-1.3,6.72-3.44,3.49-5.78-6.35-7.58-9.78-8.52-.38-.11-.17-.58,.14-.63,1.26-.19,2.7-.21,4.12-.01,1.69-.25,3.43-.38,5.02-1.01,1.4-.56,2.74-1.4,3.54-2.74,1.33-2.24-.22-4.09-1.99-4.74Z"/><path class="cls-18" d="M207.59,143.35c-.74-.26-1.49-.55-2.23-.87-2.45-1.05-4.9-2.26-7.51-2.88-2.51-.6-4.41-.15-6.79,.74-1.67,.63-6.28,3.1-7.34,.31-.6-1.57-.04-3.21,.32-4.76,.3-1.26,.38-2.07-.73-2.95-.27-.21-.55-.39-.83-.59-.22,.29-.43,.6-.63,.92-.08,.13-.35,.11-.27-.08,.15-.39,.34-.75,.52-1.11-.6-.4-1.22-.77-1.86-1.11-4.98-2.62-10-4.42-15.62-5.07-2.86-.33-5.73-.51-8.6-.77-2.49-.22-5.18-.31-7.56-1.13-.13-.04-.26-.09-.38-.14-2.52,.55-4.9,1.4-7.24,2.36,5.89-.81,11.75-.06,17.55,1.14,6.74,1.4,14.27,3.5,20.27,7.19-.25-.35-.51-.7-.78-1.04,1.21,.97,2.2,2.11,3.06,3.45,.26,2.05,0,4.28,.83,6.71,1.78,5.27,6.8,8.89,11.76,10.94,1.02,.42,5.14,1.67,3.64-2.08-.44-1.09-1.67-2.11-2.52-2.91-1.48-1.4-2.97-2.45-3.73-4.4-.99-2.55,2.94-3.58,4.51-3.81,.03,0,.05,0,.07,0-.69,.23-1.49,.47-2.12,.84,3.12-.77,6.44,1.91,9.33,3.12,1.07,.45,2.19,.8,3.35,.95,2.2,.28,2.13-1.39,1.54-2.99Z"/><path class="cls-17" d="M171.35,152.17c-5.31,.54-10.6,.98-15.86,1.97-11.35,2.14-22.25,5.83-32.13,11.88-8.78,5.38-16.66,12.11-23.59,19.71-3.63,3.98-7.1,8.11-9.65,12.88-.74,1.38-1.43,2.81-2.07,4.25,2.63,2.57,5.69,4.66,9.14,5.93,1.82,.67,3.77,1.24,5.79,1.7,.44-1,.92-1.91,1.29-2.61,3.26-6.07,7.58-11.6,11.99-16.86,3.64-4.34,7.29-8.33,11.75-11.84,13.84-10.85,30.47-19.38,47.96-22.71-.26-1.57-.58-3.14-.96-4.71-1.29,.12-2.54,.29-3.66,.4Z"/><path class="cls-17" d="M165.47,132.94c-6.75-1.1-13.86-.44-20.52,.56-8.85,1.32-17.82,3.11-26.37,5.79-9.47,2.97-18.64,7.02-27.13,12.18-3.61,2.2-7.07,4.57-10.39,7.17-1.04,.81-2.14,1.66-3.2,2.55-.47,1.77-.84,3.55-1.06,5.38-.45,3.72-.55,7.6-.2,11.45,2.5-2.63,5.36-4.97,7.79-7.01,7.47-6.3,15.09-12.27,23.79-16.8,9.88-5.14,20.59-8.69,31.58-10.51,10.53-1.75,21.18-2.05,31.82-2.09-.44-.94-.93-1.88-1.51-2.77-1.39-2.13-3-4-4.62-5.9Z"/><path class="cls-6" d="M152.86,29.38c1.43-.05,2.96,.17,4.14,.91,2.01,.78,3.85,3.04,4.49,5.18,.69,1.73,.74,3.7-.23,5.88-.18,.41-.39,.79-.62,1.15-.13,.33-.32,.64-.61,.88,0,0-.01,0-.02,.02-2.37,2.93-6.29,3.9-10.03,2.65-3.65-1.22-5.73-4.98-5.57-8.66,.21-4.84,3.47-7.83,8.44-8Z"/><path class="cls-15" d="M155.19,32.15c.65-.02,1.35,.08,1.88,.42,.91,.35,1.75,1.38,2.04,2.35,.32,.79,.34,1.68-.1,2.67-.08,.18-.18,.36-.28,.52-.06,.15-.14,.29-.28,.4,0,0,0,0,0,0-1.08,1.33-2.86,1.77-4.56,1.2-1.66-.55-2.6-2.26-2.53-3.94,.1-2.2,1.58-3.56,3.84-3.64Z"/><path class="cls-6" d="M93.58,3.79c1.43-.05,2.96,.17,4.14,.91,2,.78,3.85,3.04,4.49,5.18,.69,1.73,.74,3.7-.22,5.88-.18,.41-.39,.79-.62,1.15-.13,.34-.32,.64-.61,.88,0,0-.01,0-.02,.01-2.37,2.93-6.29,3.9-10.03,2.65-3.65-1.22-5.73-4.98-5.57-8.66,.21-4.84,3.47-7.83,8.44-8Z"/><path class="cls-15" d="M95.9,6.56c.65-.02,1.34,.08,1.88,.42,.91,.35,1.75,1.38,2.04,2.35,.32,.79,.34,1.68-.1,2.67-.08,.18-.18,.36-.28,.52-.06,.15-.15,.29-.28,.4,0,0,0,0,0,0-1.08,1.33-2.86,1.77-4.56,1.21-1.66-.55-2.6-2.27-2.53-3.94,.09-2.2,1.58-3.56,3.84-3.64Z"/><path class="cls-6" d="M48.93,18.57c1.44-.05,2.96,.17,4.14,.91,2,.78,3.85,3.04,4.49,5.18,.69,1.73,.74,3.7-.23,5.88-.18,.41-.39,.79-.61,1.15-.13,.33-.32,.64-.61,.88-.01,0-.02,0-.02,.02-2.36,2.93-6.29,3.9-10.03,2.65-3.65-1.22-5.72-4.98-5.57-8.66,.21-4.85,3.48-7.83,8.44-8Z"/><path class="cls-15" d="M51.26,21.35c.65-.02,1.34,.08,1.88,.42,.91,.35,1.75,1.38,2.04,2.36,.32,.79,.34,1.68-.1,2.67-.08,.18-.18,.36-.28,.52-.06,.15-.14,.29-.28,.4,0,0,0,0,0,0-1.08,1.33-2.86,1.78-4.56,1.21-1.66-.55-2.6-2.26-2.53-3.94,.1-2.2,1.58-3.56,3.84-3.64Z"/><path class="cls-6" d="M14.95,38.05c1.43-.05,2.96,.17,4.14,.91,2,.78,3.85,3.04,4.49,5.18,.69,1.73,.74,3.7-.23,5.88-.18,.41-.39,.79-.61,1.15-.13,.33-.32,.64-.61,.88,0,0-.02,0-.02,.01-2.36,2.93-6.29,3.9-10.03,2.65-3.65-1.22-5.72-4.98-5.57-8.66,.21-4.84,3.48-7.83,8.44-8Z"/><path class="cls-15" d="M17.28,40.82c.65-.02,1.34,.08,1.88,.42,.91,.35,1.75,1.38,2.04,2.36,.32,.79,.34,1.68-.1,2.67-.08,.19-.18,.36-.28,.52-.06,.15-.14,.29-.28,.4,0,0,0,0-.01,0-1.08,1.33-2.86,1.77-4.56,1.21-1.66-.55-2.6-2.26-2.53-3.94,.1-2.2,1.58-3.56,3.84-3.64Z"/></g><path class="cls-5" d="M68.09,110.41c.03-.16,0-.32-.11-.44-4.07-3.91-8.83,1.1-10.87,4.69-1.68,2.94-4.16,10.97,.32,12.93,7.56,3.3,14.57-11.91,10.67-17.17Z"/><path class="cls-5" d="M72.65,104.35s0-.08-.03-.11c-1-.97-2.18,.27-2.68,1.16-.42,.73-1.03,2.71,.08,3.19,1.87,.82,3.6-2.94,2.63-4.24Z"/><path class="cls-1" d="M131.86,146.7c-2.69-1.82-5.73-3.09-8.82-4.23-2.05-.99-4.29-1.83-6.62-2.43-5.22-2.03-9.89-1.88-15.18-.09-2.06,.7-4.06,1.81-5.93,2.89-.39,.23-.7,.62-.89,1.07-5.04,4.15-8.62,10.3-10.48,16.39-4.25,13.93-.92,35.52,15.46,39.72,3.71,.95,7.75-.78,10.48-3.21,1.79-1.6,3.34-3.39,4.87-5.23,2.05-2.45,5.17-3.52,8.1-4.5,9.38-3.13,17.37-7.6,20.97-17.41,3.57-9.74-4.53-17.95-11.96-22.96Z"/></g></g></g></g></svg>