<?xml version="1.0" encoding="UTF-8"?><svg xmlns="http://www.w3.org/2000/svg" viewBox="0 0 182.51 238.68"><defs><style>.cls-1{fill:#f0606f;}.cls-2{fill:#eaeaeb;}.cls-3,.cls-4,.cls-5{fill:#f69673;}.cls-6{fill:#e9d8bb;}.cls-7{fill:#f0316f;}.cls-8{fill:#fff;}.cls-9{fill:#fcba7f;}.cls-10{fill:#83c0c3;}.cls-11{fill:#b92357;}.cls-12{fill:#e25a69;}.cls-13,.cls-14{fill:#d55562;}.cls-15{fill:#12293e;}.cls-16{fill:#122961;}.cls-4,.cls-14,.cls-17,.cls-5,.cls-18,.cls-19{mix-blend-mode:multiply;}.cls-14{opacity:.3;}.cls-17,.cls-5{opacity:.4;}.cls-17,.cls-18{fill:#e9d8b7;}.cls-18,.cls-19{opacity:.5;}.cls-19{fill:#de8173;}.cls-20{fill:#f5f5f5;opacity:.2;}.cls-21{isolation:isolate;}</style></defs><g class="cls-21"><g id="Layer_2"><g id="_2-example"><g><g><path d="M180.29,165.95c-.58-.35-1.3-.69-1.94-.79,.84,2.22,.62,4.53-.89,6.08-1.1,1.55-3.03,2.3-5.75,1.28-3.01-1.12-3.14-4.73-2.87-7.35,.42-4.11,2.25-8.3,3.5-12.2,.96-3,1.78-6.69,1.79-10.27,.37,1.4,.57,2.8,.36,4.43-.05,.39,.44,.25,.55,.02,3.93-8.27,5.41-17.33,4.86-26.44-.2-3.35-.75-7.5-1.97-11.37,.06-.05,.11-.11,.12-.2,.83-8.78-.99-17.26-5.76-24.54,.52-6.67,.65-12.82-1.56-19.33-1.46-4.32-3.81-9.87-8.09-12.27-.37-2.18-1.51-3.96-3.16-5.49-1.14-1.06-3.12-2.31-4.86-2.41,1.61-3.96,2.42-8.26,2.8-12.5,3.87-.31,7.67-1.97,10.7-4.88,1.21-1.17,2.15-2.71,2.83-4.39-.03-.09-.03-.19,.02-.3,1.72-3.72,1.25-8.04,.01-11.83-.5-1.54-1.31-3.11-2.27-4.41C165.43,2.35,159.85-.11,154.37,0c-4.09,.08-8.1,2.51-10.52,5.78-5.28,7.11-5.34,16.52,1.5,22.74,1.37,1.24,2.88,2.18,4.48,2.86-.08,.3-.15,.6-.22,.9,0,.12-.03,.25-.04,.37-.98,2.85-1.42,5.94-2.45,8.78-.11,.3-.22,.58-.33,.87-.02-.01-.03-.03-.06-.04-2.57-1.2-8.52-3.28-11.41-1.02-15.12-1.14-28,7.09-42.59,9.45-.06,.01-.12,.04-.16,.09-2.95-.16-6.53,1.16-8.38,2.02-.02,0-.04,.02-.05,.04-.11-.29-.23-.58-.34-.88-1.02-2.84-1.46-5.93-2.45-8.78-.01-.12-.03-.25-.04-.37-.07-.3-.14-.6-.22-.9,1.59-.68,3.11-1.62,4.48-2.86,6.84-6.21,6.78-15.63,1.5-22.74-2.43-3.27-6.44-5.7-10.52-5.78-5.48-.11-11.06,2.35-14.36,6.79-.96,1.3-1.77,2.87-2.27,4.41-1.24,3.79-1.7,8.11,.02,11.83,.05,.11,.05,.21,.02,.3,.67,1.68,1.61,3.22,2.83,4.39,3.02,2.91,6.83,4.57,10.7,4.88,.38,4.23,1.2,8.54,2.8,12.5-1.74,.1-3.72,1.35-4.86,2.41-.48,.45-.92,.91-1.31,1.4-.07-.02-.16-.03-.28,.01-18.92,6.66-19.89,31.85-10.22,46.53-3.03,6.76-3.89,14.76-2.83,21.78,1.5,9.9,7.92,18.22,8.9,28.32,.65,6.7-4.64,14.34-12.02,10.9-2.35-1.09-3.81-3.82-4.74-6.1-1.16-2.83-.69-5.61,.67-8,.36-.46,.75-.9,1.15-1.34,.04-.08,.07-.16,.11-.24,.25-.53,.54-.99,.85-1.43-.42,.4-.81,.8-1.15,1.21-8.61,7.25-7.98,22.06,1.95,28.46,4.65,3,9.95,3.89,15.15,2.83,.19,.77,.69,1.44,1.19,2.06,.26,.32,.58,.72,.94,1.11-1.8-.32-3.85-.22-5.51,0-1.89,.25-3.62,1.07-4.29,2.94-.48,1.35-.08,3.71,.87,5.6-1.82-.58-3.77-.5-5.36,.78-3.02,2.42-2.54,7.18-1.81,10.71-1.52-3.12-5.7-6.8-9.03-3.89-2.06,1.8-3.43,5.09-3.76,8.14-1.13-2.91-3.24-5.81-6.33-5.06-2.1,.52-4.26,2.96-5.54,5.54,.44-3.04,.38-6.29-2.48-7.3-1.48-.53-3.34,.38-4.66,.95-1.46,.64-2.85,1.4-4.21,2.21,1.29-1.22,2.43-2.59,3.47-4.02,.82-1.14,2.6-3.63,1.78-5.16-1.24-2.34-5.68-.37-7.92,.61,.1-.18,.2-.37,.3-.55,2.53-1.5,9.6-4.27,9.92-7.67,.32-3.37-7.87-.78-9.24-.31C5.88,192.58-.53,204.18,.03,214.59c.73,13.52,11.99,19.42,23.94,22.16,6.99,1.6,14.18,2.11,21.34,1.88,7.82-.25,16.63-.98,23.95-4.01,1.22,1.37,2.85,2.29,4.78,2.85,2.25,.65,4.58,.15,5.76-1.8,3.01,1.92,7.04,2.19,9.98-.07,.76,.59,1.65,1.04,2.72,1.3,3.16,1.41,6.53,1.16,9.15-2.4,1.39-1.89,2.14-4.19,2.4-6.58,4.55-1.06,8.55-4.13,12.48-6.52,4.4-2.68,8.84-5.43,11.98-9.6,.28,.62,.56,1.23,.87,1.83-1.51,1.27-2.65,3.27-3.46,5.59-1.67,4.81-1.74,11.06,1.37,15.28,2.62,3.56,5.99,3.81,9.15,2.4,1.07-.26,1.97-.72,2.72-1.3,2.94,2.26,6.97,2,9.99,.07,1.18,1.95,3.51,2.45,5.76,1.8,3.2-.93,5.61-2.84,6.61-6.15,1.77-5.86-1.76-17.06-9.56-13.23-.73-1.35-1.74-2.49-3.12-3.32-1.6-.97-4.52-1.88-6.54-1.29-.39-3.67-1.61-7.16-2.57-10.73-.37-1.37-.75-2.66-1.22-3.91,2.57,.4,5.09,0,7.48-2.08,5.25-4.58,3.17-11.44,2.1-17.28,4.53,3.26,9.71,5.49,14.91,6.24,5.35,.77,15.21-.02,17.52-6.01,1.6-4.17,3.7-10.76-.2-13.77Z"/><path class="cls-2" d="M145.52,26.85c-4.74-5.17-5.95-12.29-2.68-18.2,.02,0,.04,0,.07,0,5.18-1.36,11.02-.49,15.98,1.4,2.3,.88,4.57,1.89,6.66,3.2,2.23,1.39,3.85,3.3,5.9,4.83-.02,.27-.04,.54-.08,.8,0,0,.01,0,.02,0-.61,4.07-2.36,7.71-6.2,9.77-6.37,3.43-14.41,3.95-19.67-1.78Z"/><path class="cls-7" d="M148.86,41.35c1.01-3.09,2.11-6.35,1.85-9.62,1.9,.68,3.89,1,5.87,.94,0,.22-.02,.44-.04,.65-1.64,6.03-2.81,12.39-5.96,17.81,0,0,0,.01,0,.02-1.22,.09-2.45-.02-3.57-.39-1.17-.39-1.99-.97-2.66-1.65,2.42-1.88,3.57-4.9,4.51-7.76Z"/><path class="cls-2" d="M65.74,39.17c-3.84-2.07-5.58-5.7-6.2-9.77,0,0,.02,0,.02,0-.04-.26-.06-.53-.08-.8,2.06-1.54,3.68-3.44,5.9-4.83,2.09-1.31,4.36-2.32,6.66-3.2,4.95-1.89,10.8-2.76,15.98-1.4,.03,0,.04,0,.06,0,3.26,5.91,2.06,13.03-2.68,18.2-5.26,5.74-13.3,5.22-19.67,1.79Z"/><path class="cls-7" d="M74.38,43.86c-.02-.22-.03-.44-.04-.66,1.99,.06,3.98-.26,5.87-.94-.26,3.28,.84,6.54,1.85,9.62,.94,2.85,2.08,5.88,4.51,7.76-.68,.68-1.49,1.25-2.66,1.65-1.11,.38-2.35,.48-3.57,.39,0,0,0-.01,0-.02-3.15-5.42-4.31-11.78-5.96-17.81Z"/><path class="cls-11" d="M154.37,32.56c-1.48,6.37-3.61,12.74-6.99,18.3,1.02,.28,2.11,.37,3.2,.29,0,0,0-.01,0-.02,3.15-5.42,4.32-11.78,5.96-17.81,.01-.22,.03-.44,.04-.65-.74,.02-1.48-.03-2.22-.11Z"/><path class="cls-11" d="M76.9,43.06c0,3.75,1.75,7.88,3.18,10.83,1.17,2.43,2.54,4.95,4.16,7.27,.99-.39,1.72-.9,2.33-1.51-2.43-1.88-3.57-4.91-4.51-7.76-1.01-3.09-2.11-6.35-1.85-9.62-1.08,.39-2.19,.64-3.31,.79Z"/><path class="cls-1" d="M54.88,82.22c.44-9.41,5.94-17.59,14.44-21.57-.63,1.08-1.03,2.28-1.14,3.63-.36,4.4,5.33,5.48,8.52,4.72,.33-.08,.5-.7,.07-.76-2.71-.4-6-.49-6.95-3.64-.62-2.06,.78-4.64,2.18-5.97,1.31-1.24,2.99-1.64,4.52-2.4,.82,1.9,1.82,3.71,3.07,5.38-.93-.13-1.83-.35-2.66-.64-.16-.06-.32,.1-.26,.26,.95,2.49,5.49,1.64,7.41,1.11,2.61-.73,5.66-3.15,5.95-6,.06-.56-.6-.43-.83-.14-.82,1.04-1.42,2.05-2.15,2.91-1.05-1.85-1.93-3.72-2.7-5.69,3.35-.78,7.81-2.7,10.79-.04,3.33,2.96-.63,6.86-2.91,8.72-.29,.24,.01,.68,.34,.47,3.12-2.06,5.77-5.17,4.28-9.08-.42-1.1-1.16-1.79-2.09-2.21,2.17-.28,5.83-1.32,6.67-1.52,3.78-.89,7.46-2.2,11.13-3.45,7.26-2.47,14.03-3.38,21.59-3.56-.03,.07-.07,.12-.1,.19-1.5,3.91,1.16,7.02,4.28,9.09,.33,.21,.63-.23,.34-.47-2.27-1.86-6.23-5.76-2.91-8.72,2.98-2.66,7.44-.75,10.79,.04-.78,1.96-1.65,3.83-2.7,5.69-.72-.87-1.33-1.87-2.14-2.91-.23-.29-.89-.42-.83,.14,.3,2.84,3.34,5.26,5.95,6,1.92,.54,6.46,1.38,7.41-1.11,.06-.16-.1-.32-.26-.26-.83,.29-1.73,.52-2.66,.64,1.24-1.67,2.25-3.49,3.07-5.38,1.53,.77,3.22,1.16,4.52,2.41,1.4,1.34,2.79,3.91,2.18,5.97-.95,3.16-4.23,3.25-6.95,3.64-.43,.06-.26,.68,.07,.76,3.03,.72,8.3-.22,8.52-4.08,.41,.48,.89,.92,1.27,1.34,2.08,2.24,3.38,5.02,4.51,7.83,2.42,6.05,3.67,13.7,3.32,20.35-.35-.51-.72-1.02-1.1-1.51-2.94-3.84-6.82-7.1-11.09-9.35-1.88-.99-4.46-1.88-6.99-2.2,.08-.19,.06-.42-.14-.56-4.07-2.83-8.87-3-13.67-2.86-5.46,.16-9.2,1.83-13.76,4.19,.77-1.59,1.64-3.1,3.39-3.95,.35-.17,.52-.81-.03-.79-7.06,.31-14.35,4.53-16.99,11.31-.82-2.97-3.41-5.39-5.99-7.07-.36-.23-.89,.4-.56,.71,1.12,1.05,1.38,2.47,1.28,3.91-2.22-4.95-10.08-5.91-14.74-5.13-.36,.06-.91,.79-.34,.98,1.43,.47,2.23,1.56,3.03,2.77-6-1.36-12.1,.39-17.71,3.5-3.52,1.95-6.67,4.81-9.16,7.95-3.2,4.04-4.48,8.44-6.75,12.96-.22,.43,.23,.73,.57,.41,1.98-1.82,4.05-2.7,6.41-3.51-3.15,2.46-5.59,5.72-7.37,9.37-3.16-7.38-5.62-14.6-5.24-22.78Z"/><path class="cls-12" d="M71.73,58.92c-.04,1.38,.49,2.71,1.91,3.82,2.83,2.2,6.81,2.81,10.3,2.86,6.37,.09,17.84-2.52,14.57-11.31-.07-.19,.11-.41,.27-.48,10.78-4.52,22.47-6.84,34.16-6.62,.15,0,.27,.16,.25,.3-.4,4.49,3.25,7.15,6.98,8.74,3.31,1.41,6.82,2.46,10.38,3.01,5.01,.77,10.6,.67,15-1.57-.46-.68-.96-1.33-1.53-1.93-.38-.41-.86-.85-1.27-1.34-.22,3.86-5.49,4.8-8.52,4.08-.33-.08-.5-.7-.07-.76,2.71-.4,6-.48,6.95-3.64,.62-2.06-.78-4.63-2.18-5.97-1.3-1.25-2.99-1.64-4.52-2.41-.82,1.9-1.82,3.71-3.07,5.38,.93-.12,1.83-.35,2.66-.64,.16-.06,.32,.1,.26,.26-.95,2.49-5.49,1.64-7.41,1.11-2.61-.73-5.66-3.15-5.95-6-.06-.56,.6-.43,.83-.14,.82,1.04,1.42,2.05,2.14,2.91,1.05-1.85,1.93-3.72,2.7-5.69-3.35-.78-7.81-2.69-10.79-.04-3.32,2.96,.63,6.86,2.91,8.72,.29,.24-.01,.68-.34,.47-3.12-2.06-5.77-5.17-4.28-9.09,.03-.07,.07-.12,.1-.19-7.57,.17-14.33,1.09-21.59,3.56-3.67,1.25-7.35,2.56-11.13,3.45-.83,.2-4.5,1.23-6.67,1.52,.92,.42,1.67,1.11,2.09,2.21,1.49,3.91-1.16,7.02-4.28,9.08-.33,.22-.63-.23-.34-.47,2.27-1.86,6.23-5.76,2.91-8.72-2.98-2.66-7.44-.75-10.79,.04,.77,1.96,1.65,3.83,2.7,5.69,.72-.87,1.33-1.87,2.15-2.91,.23-.29,.89-.42,.83,.14-.3,2.84-3.34,5.26-5.95,6-1.91,.54-6.46,1.38-7.41-1.11-.06-.16,.1-.32,.26-.26,.83,.29,1.73,.51,2.66,.64-1.24-1.67-2.25-3.49-3.07-5.38-1.53,.77-3.21,1.16-4.52,2.4-.09,.09-.19,.19-.28,.29Z"/><path class="cls-12" d="M169.94,70c-4.27,4.35-10.21,.13-14.63-1.56-.28-.11-.17-.49,.02-.62,.85-.6,1.75-.94,2.7-1.14-10.18-1.98-20.33-3.27-30.73-2.17-.35,.04-.42-.34-.23-.57,.8-.97,1.65-1.87,2.52-2.77-7.54,.81-13.88,4.65-18.63,10.56-.15,.18-.41,.21-.56,.02-2.58-3.46-6.4-5.87-10.65-6.56,1.16,1.14,1.98,2.38,2.1,4.16,.02,.24-.31,.52-.54,.41-6.19-3.04-13.11-1.43-19.51,.29,2.21,.29,4.37,.83,5.99,2.5,.27,.28-.1,.76-.45,.64-6.75-2.36-14.23,.88-19.65,4.9-5.05,3.74-10.24,9.08-11.61,15.45,.96,3.89,2.41,7.67,4.04,11.48,1.79-3.65,4.22-6.9,7.37-9.37-2.35,.81-4.43,1.69-6.41,3.51-.35,.32-.79,.02-.57-.41,2.27-4.52,3.55-8.92,6.75-12.96,2.49-3.14,5.64-6,9.16-7.95,5.6-3.11,11.71-4.86,17.71-3.5-.8-1.21-1.6-2.3-3.03-2.77-.57-.18-.01-.92,.34-.98,4.66-.77,12.52,.18,14.74,5.13,.09-1.43-.16-2.86-1.28-3.91-.32-.3,.2-.94,.56-.71,2.58,1.68,5.17,4.1,5.99,7.07,2.64-6.78,9.93-11,16.99-11.31,.55-.02,.37,.62,.03,.79-1.75,.84-2.62,2.35-3.39,3.95,4.56-2.36,8.31-4.03,13.76-4.19,4.8-.14,9.6,.03,13.67,2.86,.2,.14,.22,.37,.14,.56,2.53,.32,5.11,1.21,6.99,2.2,4.27,2.25,8.15,5.51,11.09,9.35,.38,.5,.75,1,1.1,1.51,.25-4.61-.3-9.7-1.45-14.41-.15,.17-.29,.35-.45,.51Z"/><path class="cls-8" d="M68.44,182.22c1.08-.26,2.15-.59,3.21-1.02,.59-.24,1.14-.52,1.68-.83-.15,1.21-1,3.21-1.97,5.19-.43-.42-.96-.79-1.36-1.19-.59-.6-1.25-1.33-1.56-2.15Z"/><path class="cls-10" d="M70.73,186.79c-1.16,2.24-2.33,4.23-2.61,4.66-1.1,1.68-2.35,3.26-3.69,4.77-.17-.16-.35-.31-.53-.46-1.59-1.9-3.08-3.62-2.95-6.43,.18-4.15,6.99-2.53,9.79-2.54Z"/><path class="cls-10" d="M54.88,196.84c1.69-3.13,4.73-2.4,7.19-.98,.46,.48,.96,.83,1.52,1,.05,.04,.1,.08,.15,.11-1.23,1.34-2.53,2.63-3.84,3.88-1.8,1.7-3.68,3.28-5.65,4.75-.21-3-.89-5.94,.64-8.77Z"/><path class="cls-10" d="M43.43,204.07c1.11-2.19,3.27-3.37,5.65-2.25,1.85,.88,3.05,2.93,3.95,4.67-3.42,2.41-7.09,4.45-11.01,6.02-.1,.04-.2,.07-.3,.11-.04-.19-.08-.38-.13-.58,.42-2.74,.55-5.42,1.84-7.97Z"/><path class="cls-10" d="M28.44,214.79c.67-3.39,2.85-7.82,6.27-9.15,3.71-1.44,4.94,4.96,6.11,7.32-3.95,1.44-8.24,2.27-12.41,1.9,.01-.02,.02-.04,.03-.06Z"/><path class="cls-10" d="M19.5,205.85c1.64-.84,3.36-1.7,5.18-2.08,5.59-1.19,3.13,8.14,2.67,10.97-1.5-.21-2.99-.59-4.43-1.16-2.93-1.18-5.13-3.39-6.87-5.93,.41-.25,3.24-1.68,3.46-1.8Z"/><path class="cls-10" d="M21.87,196.91c2.9,1.31-4.8,9.02-5.97,9.95-.1,.08-.16,.19-.17,.3-.18-.28-.36-.55-.53-.83-1.79-2.95-1.59-5.7-.42-8.21,2.11-.67,5.06-2.13,7.1-1.21Z"/><path class="cls-1" d="M8.65,195.22c3.13-3.1,7.25-5.16,11.6-5.9,.78-.13,4.95-.9,3.08,1.39-.61,.74-1.41,1.32-2.19,1.86-1.72,1.21-3.5,2.33-5.21,3.54,.97-1.42,2.18-2.75,3.42-3.97,.16-.15,0-.41-.2-.28-7.31,4.93-7.96,12.3-2.28,18.86,4.8,5.54,12.92,6.19,19.62,4.59,16.34-3.89,34.39-17.62,37.04-35.06,1.86-1.12,3.4-2.67,4.66-4.45-.66,5.3-3.11,10.28-1.93,15.83,.86,4.05,4.59,5.85,8.41,5.52-.38,3.06-.43,6.31-.03,9.41-11.63,14.67-32.77,18.91-50.52,18.97-9.61,.03-17.9-2.62-24.72-9.49-6.15-6.19-5.52-14.58-.73-20.83Z"/><path class="cls-19" d="M84.65,197.16c-.46,.04-.91,.05-1.36,.03-1.09,1.97-2.73,3.65-4.38,5.14-3.47,3.14-7.33,5.83-11.24,8.37-3.95,2.56-7.93,5.01-12.3,6.8-9.08,3.72-19.59,5.6-29.18,2.66-8.3-2.54-16.9-9.23-17-18.7-.04-3.43,.99-6.31,2.66-8.81-1.14,.75-2.22,1.61-3.19,2.57-4.79,6.25-5.42,14.64,.73,20.83,6.82,6.87,15.12,9.52,24.72,9.49,17.75-.06,38.89-4.3,50.52-18.97-.4-3.11-.35-6.35,.03-9.41Z"/><path class="cls-3" d="M84.78,207.71c.34,2.02,.9,3.96,1.71,5.72-2.02-.5-4.82,.39-6.38,1.33-1.38,.83-2.39,1.97-3.12,3.32-1.4-.69-2.66-.88-3.78-.72,4.4-2.59,8.4-5.83,11.57-9.66Z"/><path class="cls-3" d="M53.04,237.03c-6.54,.78-13.15,.89-19.7,.22-9.65-.99-20.47-3.28-27.67-10.21-7.02-6.76-5.14-19.26-.5-27.25-1.72,3.48-2.4,7.37-1.11,10.85,3.39,9.09,13.01,13.74,21.98,15.21,10.88,1.79,22.93-.01,33.48-2.79,3.54-.93,7.1-2.26,10.49-3.96-2.75,2.88-3.7,8.59-2.6,12.23,.29,.95,.7,1.77,1.21,2.5-4.94,1.95-10.35,2.59-15.59,3.21Z"/><path class="cls-13" d="M73.33,235.77c-2.05-.81-3.2-2.38-4.14-4.31-1.23-2.55-1.09-5.62-.23-8.23,1.26-3.81,4.1-4.37,7.5-4.17-2.24,3.97-2,9.09,.06,13.11,.66,1.28,1.63,2.36,2.78,3.19-1.45,1.94-4.06,1.19-5.98,.43Z"/><path class="cls-13" d="M88.71,234.85c-4.62,2.03-9.29-.47-11.31-5.02-.97-2.19-1.25-4.6-1.01-6.95,.5-2.36,1.49-4.58,3.5-6.13,1.18-.9,2.52-1.55,3.99-1.8,1.73-.29,2.61,.6,3.63,1.64,.06,.02,.11,.06,.14,.14,.06,.06,.12,.12,.18,.18-.08,.14-.14,.29-.22,.43-.22,1.74-.92,3.37-1.1,5.13-.04,.45-.09,.91-.13,1.37,.02,.4,.04,.81,.08,1.21-.2,2.67,.06,5.43,1.08,7.64,.38,.65,.87,1.18,1.53,1.47,.41,.18,0,.85-.37,.69Z"/><path class="cls-13" d="M102.71,229.45c-.31,3.59-2.5,5.76-5.73,7.14-.62,.26-1.25,.31-1.87,.21-.54-.02-1.08-.12-1.47-.21-1.21-.29-2.3-1.14-3.06-2.1-1.74-2.22-2.72-5.25-2.83-8.12-.13-.9-.2-1.82-.22-2.75,.37-2.73,.88-5.19,3-7.46,.42-.67,.85-1.1,1.29-1.13,2.23-1.54,5.39-2.02,7.47-.09,1.52,1.41,2.3,3.82,2.86,5.74,.83,2.82,.8,5.87,.55,8.77Z"/><path class="cls-3" d="M127.97,211.08c-6.59,6.75-15.38,12.11-23.86,16.21,.2-2.76-.23-5.6-1.09-8.08-1.29-3.72-3.46-6.61-6.62-7-.59-5.38-.23-10.74,1.12-15.93,4.24-.87,8.37-1.96,12.7-2.35,4.97-.45,9.53,.51,14.41,1.11,.13,.02,.28-.03,.41-.1-.21,5.41,1.03,11.03,3.12,16.01-.06,.02-.12,.06-.18,.12Z"/><path class="cls-9" d="M82.99,209.71c-2.05,2.14-4.36,4.08-6.85,5.78,.54,.47,1.1,.91,1.67,1.34,.62-.8,1.37-1.51,2.3-2.07,1.56-.94,4.36-1.83,6.38-1.33-.41-.88-.75-1.81-1.04-2.78-.84-.27-1.67-.59-2.46-.95Z"/><path class="cls-9" d="M75.46,215.95c-.74,.49-1.49,.97-2.26,1.42,1.12-.17,2.38,.03,3.78,.72,.12-.21,.25-.41,.38-.61-.65-.48-1.29-.99-1.9-1.53Z"/><path class="cls-9" d="M4.81,212.34c-.27-.55-.52-1.12-.74-1.71-1.3-3.48-.61-7.37,1.11-10.85-3.44,5.91-5.35,14.28-3.28,20.98,.63-2.75,1.56-5.72,2.91-8.42Z"/><path class="cls-9" d="M7.01,224.78c.28-2.38,.72-4.9,1.46-7.33-1.27-1.31-2.39-2.77-3.28-4.41-1.29,2.7-2.16,5.65-2.72,8.24-.05,.23-.1,.47-.14,.7,.75,1.88,1.84,3.6,3.35,5.05,.36,.34,.73,.67,1.11,.99,.03-1.12,.11-2.21,.23-3.25Z"/><path class="cls-9" d="M13.52,227.43c-.19-1.97-.25-4.04-.08-6.09-1.6-.97-3.12-2.08-4.45-3.36-.65,2.23-1.05,4.52-1.27,6.67-.13,1.26-.22,2.6-.22,3.97,2.12,1.7,4.49,3.06,7,4.17-.49-1.8-.81-3.62-.97-5.37Z"/><path class="cls-9" d="M21.37,224.77c-2.53-.74-5.01-1.76-7.31-3.07-.15,2.35,0,4.71,.34,6.88,.24,1.52,.57,3.08,1.03,4.61,3.76,1.55,7.81,2.56,11.84,3.24-3.08-3.26-5.21-7.36-5.9-11.66Z"/><path class="cls-9" d="M34.96,233.47c-1.73-2.01-3.36-4.49-4.13-7.08-1.61-.12-3.21-.29-4.77-.55-1.3-.21-2.61-.5-3.91-.86,.81,4.36,3.14,8.49,6.42,11.66,1.61,.25,3.21,.45,4.78,.61,2.01,.21,4.03,.33,6.04,.39-1.7-1.3-3.22-2.76-4.43-4.17Z"/><path class="cls-9" d="M47.28,233.42c-1.66-1.72-4.17-4.35-5.65-7.16-3.37,.29-6.74,.37-10.06,.17,.97,2.96,3.12,5.77,5.13,7.75,1.19,1.17,2.61,2.41,4.16,3.5,3.77,.05,7.54-.15,11.29-.56-1.73-.93-3.36-2.15-4.87-3.71Z"/><path class="cls-9" d="M68.1,222.19c.49-1.19,1.13-2.26,1.92-3.1-1.08,.54-2.18,1.03-3.28,1.49,.41,.57,.87,1.1,1.36,1.61Z"/><path class="cls-9" d="M67.74,223.16c-.7-.7-1.33-1.45-1.85-2.24-2.1,.84-4.23,1.56-6.36,2.12-2.03,.54-4.11,1.03-6.23,1.47,2.4,4.36,7.1,7.6,11.48,9.5,.49,.21,1,.41,1.52,.61,.79-.24,1.57-.51,2.34-.81-.51-.73-.92-1.55-1.21-2.5-.7-2.31-.57-5.44,.31-8.16Z"/><path class="cls-9" d="M64.41,234.71c-4.59-2.07-9.49-5.42-11.9-10.03-3.24,.65-6.56,1.17-9.89,1.5,.34,.58,.7,1.13,1.04,1.63,1.56,2.25,3.36,4.46,5.44,6.25,1.43,1.24,2.93,2.2,4.49,2.91,3.84-.46,7.75-.95,11.5-1.97-.22-.09-.45-.19-.67-.29Z"/><path class="cls-9" d="M107.41,225.64c-1.09,.02-2.18,0-3.26-.04,0,.57,0,1.13-.04,1.7,1.1-.53,2.2-1.09,3.3-1.66Z"/><path class="cls-9" d="M116.33,201.34c2.94-.17,5.96-.37,8.99-.69-.25-1.9-.36-3.81-.29-5.69-.13,.07-.27,.12-.41,.1-4.87-.61-9.43-1.57-14.41-1.11-4.33,.39-8.46,1.48-12.7,2.35-.51,1.95-.87,3.93-1.1,5.93,6.67,.36,13.61-.52,19.92-.88Z"/><path class="cls-9" d="M115.72,202.09c-6.17,.32-12.89,1.16-19.38,.84-.29,2.97-.29,5.98,.02,9,3.91,.41,7.85,.62,11.78,.73,6.12,.18,12.32,.16,18.38-.79,.25-.04,.5-.08,.75-.12,.23-.22,.46-.44,.68-.66,.05-.06,.12-.09,.18-.12-1.27-3.03-2.22-6.3-2.73-9.61-3.26,.36-6.52,.57-9.7,.73Z"/><path class="cls-9" d="M108.4,213.41c-3.29-.1-6.61-.22-9.91-.5,2.05,1.14,3.54,3.48,4.52,6.31,.6,1.74,.99,3.66,1.1,5.61,1.59,.07,3.21,.07,4.82,0,6.25-3.37,12.41-7.43,17.48-12.24-5.95,.9-12.01,1-18.01,.82Z"/><path class="cls-5" d="M43.43,235.64c-8.79,.26-18.13-.41-26.25-4.08-7.23-3.26-12.15-8.71-15.5-15.79-.21-.43-.42-.89-.63-1.37-.06,4.78,1.25,9.37,4.63,12.63,7.2,6.93,18.02,9.22,27.67,10.21,6.56,.67,13.16,.56,19.7-.22,5.24-.62,10.66-1.26,15.59-3.21-.46-.67-.84-1.42-1.13-2.27-7.78,2.67-15.87,3.84-24.08,4.09Z"/><path class="cls-5" d="M125.03,194.95c-.13,.07-.27,.12-.41,.1-4.87-.61-9.43-1.57-14.41-1.11-1.84,.16-3.64,.46-5.42,.81-1.62,6.01-4.44,11.69-8.36,16.69-.03,.04-.07,.08-.1,.12,.02,.22,.03,.44,.06,.66,3.17,.39,5.33,3.28,6.62,7,.86,2.47,1.29,5.32,1.09,8.08,8.48-4.11,17.28-9.46,23.86-16.21,.05-.06,.12-.09,.18-.12-2.09-4.98-3.33-10.6-3.12-16.01Z"/><path class="cls-13" d="M138.35,234.5c-.75,.96-1.85,1.81-3.06,2.1-.39,.09-.92,.19-1.47,.21-.63,.1-1.26,.06-1.87-.21-3.23-1.38-5.42-3.56-5.73-7.14-.25-2.9-.28-5.94,.55-8.77,.56-1.92,1.34-4.33,2.86-5.74,2.08-1.92,5.24-1.45,7.47,.09,.44,.03,.88,.46,1.29,1.13,2.12,2.27,2.64,4.73,3.01,7.46-.01,.92-.09,1.85-.22,2.75-.11,2.87-1.09,5.9-2.83,8.12Z"/><path class="cls-13" d="M159.96,223.22c.86,2.62,1.01,5.68-.23,8.23-.93,1.93-2.09,3.5-4.14,4.31-1.92,.76-4.53,1.51-5.98-.43,1.15-.83,2.12-1.91,2.78-3.19,2.07-4.02,2.31-9.14,.06-13.11,3.41-.19,6.24,.36,7.5,4.17Z"/><path class="cls-13" d="M141.42,216.59c1.02-1.04,1.9-1.94,3.63-1.64,1.47,.25,2.81,.9,3.99,1.8,2.02,1.55,3.01,3.76,3.5,6.13,.24,2.36-.05,4.76-1.01,6.95-2.01,4.55-6.69,7.05-11.31,5.02-.37,.17-.78-.51-.37-.69,.65-.29,1.15-.82,1.53-1.47,1.02-2.21,1.28-4.97,1.08-7.64,.04-.4,.07-.81,.09-1.21-.04-.46-.08-.92-.13-1.37-.18-1.76-.88-3.39-1.1-5.13-.07-.14-.14-.29-.22-.43,.06-.06,.12-.12,.18-.18,.02-.08,.07-.12,.14-.14Z"/><path class="cls-14" d="M76.54,232.15c-.62-1.2-1.07-2.51-1.35-3.85-2.3-.36-4.82-.98-6.84-2.15-.17,1.81,.05,3.66,.84,5.3,.93,1.93,2.09,3.5,4.14,4.31,1.92,.76,4.53,1.51,5.98-.43-1.15-.83-2.12-1.91-2.78-3.19Z"/><path class="cls-14" d="M89.08,234.16c-.65-.29-1.15-.82-1.53-1.47-.58-1.25-.9-2.68-1.05-4.17-3.2,.34-6.42,.36-9.58,0,.14,.44,.29,.88,.48,1.3,2.01,4.55,6.69,7.05,11.31,5.02,.37,.17,.78-.51,.37-.69Z"/><path class="cls-14" d="M96.99,226.31c-2.91,.93-5.95,1.61-9.03,2.03,.38,2.24,1.27,4.44,2.61,6.16,.75,.96,1.85,1.81,3.06,2.1,.39,.09,.93,.19,1.47,.21,.63,.1,1.26,.06,1.87-.21,3.23-1.38,5.42-3.56,5.73-7.14,.16-1.81,.23-3.68,.06-5.51-1.87,.98-3.85,1.76-5.77,2.37Z"/><path class="cls-14" d="M137.44,226.53c-3.95-.83-7.7-2.45-10.91-4.9-.58,2.55-.53,5.24-.31,7.82,.32,3.59,2.51,5.76,5.73,7.14,.62,.26,1.25,.31,1.87,.21,.54-.02,1.08-.12,1.47-.21,1.21-.29,2.3-1.14,3.06-2.1,1.58-2.01,2.52-4.69,2.76-7.3-1.23-.19-2.46-.41-3.68-.67Z"/><path class="cls-14" d="M156.03,227.83c-.74,.07-1.48,.11-2.23,.15-.26,1.46-.74,2.88-1.41,4.18-.66,1.28-1.63,2.36-2.78,3.19,1.45,1.94,4.06,1.19,5.98,.43,2.05-.81,3.2-2.38,4.14-4.31,.65-1.35,.91-2.84,.89-4.34-1.52,.35-3.07,.58-4.59,.71Z"/><path class="cls-14" d="M142.5,227.4c-.07,1.89-.4,3.73-1.12,5.29-.38,.65-.87,1.18-1.53,1.47-.41,.18,0,.85,.37,.69,4.62,2.03,9.3-.47,11.31-5.02,.26-.59,.47-1.2,.63-1.81-3.22,.05-6.46-.17-9.66-.61Z"/><path class="cls-1" d="M147.32,192.85c-1.95,5.22-5.57,5.51-9.43,4.54-.5-1.12-1.1-2.22-1.86-3.3h0c.18,.49,.36,.97,.54,1.47,.01,.04,.03,.07,.04,.1,.9,2.49,1.72,5.01,2.23,7.6,.3,1.5,.53,3.02,.82,4.52,.41,1.51,.82,3.02,1.16,4.55,.02,.06,.03,.11,.05,.16,.02,.05,.02,.1,.02,.14,.1,.46,.19,.93,.27,1.4-.45,.36-.79,.87-.97,1.56-.82-.99-1.88-1.84-3.24-2.5-2.57-1.24-4.69-1.17-6.42-.25-2.7-7.49-5.19-14.19-4.79-22.31,0-.14-.17-.09-.19,.02-.21,1.05-.35,2.11-.44,3.19-14.15-1.98-19.46-.51-27.53,2.32,.39-1.48,.85-2.95,1.41-4.4,.12-.31-.31-.31-.42-.07-3.03,6.29-4.47,13.64-3.38,20.59-.98,.07-2.05,.36-3.21,.91-1.35,.65-2.41,1.51-3.24,2.5-.14-.53-.38-.95-.69-1.29-.89-3.19-1.74-6.25-2.07-9.58-.14-1.39-.18-2.78-.17-4.18-.02-.04-.04-.1-.04-.17,0-.61,.04-1.23,.08-1.85,.05-1.5,.13-3.01,.18-4.51-.03-.78-.11-1.55-.27-2.3-.05,.03-.08,.07-.1,.13-.35,1.32-.65,2.74-.87,4.22-5.6-.97-7.64-4.23-7.66-9.92,0-2.29,.8-4.77,1.31-7.2,.09,.08,.22,.12,.38,.05,6.85-2.67,11.12-8.56,14.17-15.02,2.62-5.55,4.76-11.94,4.03-18.1,1.3,2.74,1.57,5.75,1.81,8.8,.04,.49,.73,.47,.97,.17,4.62-5.67,6.91-12.66,7.03-19.71,.14,0,.3-.04,.46-.2,3.09-3.01,4.33-7.52,4.71-12.04,.35,1.81,.8,3.54,1.31,5.13,.17,.51,.95,.3,.94-.21-.12-3.93,1.15-7.31,3.24-10.43-2.69,8.32-.49,18.93,3.08,26,.03,.05,.06,.07,.1,.08,0,.03,0,.05,0,.08,0,.12,.15,.1,.18,0,.02-.06,.04-.12,.06-.18,.04-.05,.07-.11,.06-.17,0,0,0-.01,0-.02,.65-2,1.09-4.07,1.73-6.07,.67-2.05,1.81-3.78,2.83-5.62-3.35,10.84-.62,23.72,6.78,32.24,.02,.03,.05,.04,.08,.05,.07,.22,.14,.43,.23,.65,.07,.18,.32,0,.3-.15-.25-2.35-.37-4.59-.1-6.94,.14-1.25,.48-2.46,.8-3.68-.19,9.81,5.65,19.16,13.74,25.26-.57,4.8,1.77,9.11-.02,13.9Z"/><path class="cls-12" d="M147.34,178.95c-8.09-6.09-13.93-15.45-13.74-25.26-.31,1.21-.65,2.42-.8,3.68-.26,2.35-.14,4.59,.1,6.94,.01,.14-.23,.33-.3,.15-.08-.21-.15-.43-.23-.65-.03,0-.05-.03-.08-.05-7.4-8.53-10.13-21.4-6.78-32.24-1.02,1.84-2.17,3.57-2.83,5.62-.65,2-1.09,4.07-1.73,6.07,0,0,0,0,0,.02,.01,.06-.02,.12-.06,.17-.02,.06-.04,.12-.06,.18-.03,.09-.17,.11-.18,0,0-.02,0-.05,0-.08-.04-.01-.07-.03-.1-.08-3.58-7.07-5.78-17.68-3.08-26-2.08,3.11-3.36,6.5-3.24,10.43,.01,.5-.77,.72-.94,.21-.51-1.58-.96-3.32-1.31-5.13-.39,4.52-1.62,9.03-4.71,12.04-.16,.15-.32,.2-.46,.2-.02,.96-.08,1.91-.17,2.86,2.78-1.53,4.85-5.16,6.96-7.16,.2-.19,.59-.22,.6,.15,.04,7.93,1.49,16.73,6.37,23.22,.63-2.42,.87-4.91,1.93-7.21,.1-.22,.61-.39,.65-.03,.59,5.74,1.68,11.13,4.47,16.24,.67,1.23,5.29,9.61,7,6.97,.12-.19,.46-.38,.62-.11,3.34,5.83,8.26,11.68,8.68,18.67,.13,2.23-.03,6.45-1.6,8.95,2.05-.38,3.82-1.73,4.99-4.85,1.79-4.79-.55-9.1,.02-13.9Z"/><path class="cls-12" d="M129.28,200.62c-1.88-6.6-3.04-13.39-3.56-20.23-1.43,2.59-2.68,5.55-5.26,7.11-2.63,1.58-6.15,1.45-9.13,1.55-4.83,.16-11.93-.31-11.41-6.27-6.74,8.19-8.74,19.62-7.4,30.09,.95-.4,1.85-.62,2.67-.68-1.09-6.95,.35-14.3,3.38-20.59,.11-.24,.54-.24,.42,.07-.56,1.45-1.01,2.92-1.41,4.4,8.07-2.84,13.38-4.3,27.53-2.32,.09-1.08,.23-2.14,.44-3.19,.02-.1,.2-.16,.19-.02-.4,8.12,2.09,14.83,4.79,22.31,.96-.51,2.05-.75,3.27-.65-1.97-3.66-3.4-7.63-4.53-11.58Z"/><path class="cls-8" d="M78.81,174.87c1.11-1.76,1.98-3.69,2.67-5.63-.23,3.03-1.18,5.93-2.85,8.74,.18-1.06,.27-2.11,.18-3.11Z"/><path class="cls-6" d="M175.57,183.08c-6.35,2.74-13.8,1.86-20.03-.63-11.82-4.71-20.11-16.74-20.56-29.27-.03-.31-.06-.63-.08-.94-.09-1.76,.05-3.47,.21-5.19,.01-.22,.02-.43,.03-.65-.14,.03-.29,.12-.34,.26-.42,1.26-.71,2.51-.91,3.77-.07,.02-.14,.06-.17,.13-1.8,3.34-2.51,7.81-1.75,11.68-2.95-4.87-5.38-9.59-6.32-15.38-1.1-6.71,.3-13.17,2.16-19.58-.47,.92-1.07,1.78-1.73,2.61-.02,.07-.05,.13-.08,.2-.02-.01-.04-.02-.05-.03-1,1.27-2.08,2.51-2.96,3.85-.72,1.46-1.31,2.98-1.63,4.59-.02,.1-.07,.17-.13,.22-.26,1.14-.43,2.27-.51,3.37-.35-1.45-.83-2.82-1.36-4.24-1.27-3.42-1.74-6.87-1.8-10.51-.07-4.35,.59-8.41,2.08-12.3,.31-1.66,1.04-3.23,1.99-4.67-.01,0-.03,0-.04,.02-1.22,1.26-2.2,2.68-2.98,4.22-.09,.02-.18,.07-.27,.17-2.61,3.01-4.38,6.45-4.89,10.27-2.38-8.82-1.97-18.01,3.44-25.73,.07-.11-.07-.19-.15-.11-5.12,5-6.11,13.11-5.24,20.51-.48,5.07-1.42,9.95-4.68,14.15-.1-5.46-1.48-10.91-4.08-15.79-.02-.04-.09,0-.07,.05,5.46,10.81,4.64,24.96-2.76,34.8-.25-3.32-.73-6.27-3.18-8.83,0,0-.02,0-.02-.01-.07-.32-.16-.63-.24-.94-.32-.42-.62-.85-.89-1.3,3.18,10.11-1.74,22.03-8.16,29.9-1.56,1.92-3.5,3.52-5.55,4.87-3.91,2.59-1.19-.64-.5-2.41,.11-.3,.2-.6,.3-.91,0-.03,0-.05,0-.08,.29-1.01,.48-2.01,.56-2.99,0-.03,0-.06,0-.08,.17-2.19-.2-4.31-1.15-6.32,.2,1.06,.34,2.1,.38,3.12-.03,.04-.06,.07-.08,.12-2.09,4.68-4.01,9.1-8.25,11.9h-.04c-.1-.04-.19,.06-.21,.15-.47,.3-.96,.58-1.5,.84-5.15,2.49-11.29,1.91-16.3-.54-9.91-4.86-11.75-17.21-6.25-25.5-.6,1.54-.81,3.24-.69,5.23,.22,3.59,2.21,8.12,5.95,9.24,3.45,1.04,7.32,.16,9.63-2.75,2.95-3.71,3.2-7.87,2.54-12.41-.79-5.46-3.3-10.59-5.28-15.68-1.82-4.69-2.99-9.33-3.26-14.21-.64-3.03-.36-6.37,.11-9.35,.53-3.41,1.87-6.81,3.75-9.7,.6-.93,1.26-1.82,1.95-2.67,2.83-4.07,6.64-7.42,11.37-9.58,.12-.05,.12-.26-.04-.21-2.13,.64-4.06,1.55-5.8,2.69-.02,0-.05,0-.07,0-2.39,.28-6.55,1.61-7.34,3.37,2.23-4.97,3.87-9.43,7.7-13.49,3.49-3.71,7.96-6.45,12.7-8.2,2.78-1.03,5.72-1.44,8.66-1.59,2.79-.14,4.72,1.11,7.28,1.6,.2,.04,.41-.29,.19-.4-1.07-.52-2.16-.92-3.24-1.22,.08-.12,.11-.26,.06-.4-.42-1.18-.97-2.08-1.82-2.73,4.72-.2,12.68,1.05,12.58,6.57-.01,.62,.73,.46,.91,.03,.59-1.4,.77-3.25,.27-4.79,1.91,1.49,3.52,3.42,4.17,5.7,0,.01-.01,.03-.02,.04-.02,.08,.01,.13,.07,.15,.19,.72,.29,1.47,.27,2.25,0,.09,.11,.06,.12-.01,.16-.91,.13-1.79-.03-2.62,3.25-5.87,8.59-10.56,15.44-11.02-1.63,1.27-2.65,3.17-3.32,5.16-.16,.46,.5,.61,.69,.22,.19-.39,.38-.79,.56-1.19,1.71-.71,3.29-1.66,5.02-2.34,2.38-.92,5.01-1.16,7.53-1.33,4.38-.31,9.34-.2,13.23,2.06-1.57,.14-2.99,.52-4.45,1.35-.41,.23-.26,1,.25,.77,1.03-.45,2.04-.75,3.07-.96,.71,.05,1.54,.07,2.33,.13,2.55,.19,5.01,.99,7.29,2.12,3.86,1.91,7.17,5.32,9.95,8.55,6.11,7.07,8.91,16.83,8.43,26.09-1.29-3.66-3.22-6.97-6.1-8.96-.02-.01-.05,.02-.03,.04,7.44,6.02,7.64,18.84,7.34,27.46-.19,5.26-1.31,10.35-2.64,15.42-.23,.81-.49,1.61-.76,2.41-.06,.17-.1,.31-.14,.45,.04-.23,.07-.49,.07-.77,.03-1.67-.63-3.36-1.41-4.81-.37-2.46-1.27-4.75-2.92-6.58,.03,.07,.07,.13,.1,.2,.23,.54,.42,1.09,.59,1.64,.74,1.44,1.23,2.97,1.51,4.54-.03,.07-.04,.15-.01,.23,.03,.08,.05,.15,.08,.23,.77,5.18-.66,10.81-2.52,15.59-1.59,4.08-4.7,9.85-3.2,14.38,2.67,8.09,14.04,3.88,12.45-3.12,1.67,1.5,2.09,3.93,1.88,6.39-.35,4.06-2.53,8.34-6.28,9.96Z"/><path class="cls-18" d="M179.97,166.73c1.59,7-9.78,11.22-12.45,3.12-1.49-4.53,1.61-10.3,3.2-14.38,1.86-4.78,3.29-10.41,2.52-15.59-.03-.08-.05-.15-.08-.23-.02-.08-.02-.16,.01-.23-.27-1.57-.76-3.1-1.51-4.54-.17-.55-.36-1.1-.59-1.64-.03-.07-.07-.14-.1-.2,1.66,1.83,2.55,4.12,2.92,6.58,.79,1.45,1.45,3.14,1.41,4.81,0,.28-.04,.54-.07,.77,.04-.13,.09-.27,.14-.45,.28-.8,.53-1.6,.76-2.41,1.33-5.07,2.46-10.16,2.64-15.42,.3-8.62,.1-21.45-7.34-27.46-.02-.01,.01-.05,.03-.04,2.88,1.99,4.81,5.3,6.1,8.96,.49-9.26-2.32-19.02-8.43-26.09-2.79-3.22-6.09-6.64-9.95-8.55-2.28-1.12-4.74-1.92-7.29-2.12-.79-.06-1.61-.08-2.33-.13-1.03,.2-2.04,.5-3.07,.96-.52,.23-.66-.54-.25-.77,1.46-.84,2.88-1.21,4.45-1.35-3.89-2.26-8.85-2.36-13.23-2.06-2.53,.17-5.15,.41-7.53,1.33-1.73,.67-3.31,1.63-5.02,2.34-.19,.4-.37,.79-.56,1.19-.19,.39-.84,.24-.69-.22,.67-1.99,1.69-3.89,3.32-5.16-6.85,.46-12.19,5.15-15.44,11.02,.16,.84,.19,1.71,.03,2.62-.01,.07-.13,.1-.12,.01,.02-.78-.08-1.53-.27-2.25-.05-.02-.09-.07-.07-.15,0-.01,.01-.03,.02-.04-.66-2.28-2.27-4.21-4.17-5.7,.5,1.53,.32,3.39-.27,4.79-.18,.43-.92,.59-.91-.03,.1-5.52-7.86-6.76-12.58-6.57,.85,.65,1.4,1.55,1.82,2.73,.05,.14,.01,.28-.06,.4,1.09,.3,2.17,.7,3.24,1.22,.22,.11,0,.44-.19,.4-2.56-.49-4.49-1.74-7.28-1.6-2.94,.15-5.88,.56-8.66,1.59-4.75,1.75-9.22,4.5-12.7,8.2-3.83,4.06-5.47,8.52-7.7,13.49,.79-1.76,4.95-3.1,7.34-3.37,.03,0,.05,0,.07,0,1.75-1.13,3.67-2.05,5.8-2.69,.16-.05,.16,.16,.04,.21-4.73,2.16-8.54,5.51-11.37,9.58-.69,.86-1.35,1.74-1.95,2.67-1.88,2.89-3.21,6.29-3.75,9.7-.47,2.97-.75,6.31-.11,9.35,.27,4.89,1.45,9.53,3.26,14.21,1.98,5.09,4.48,10.22,5.28,15.68,.66,4.54,.42,8.7-2.54,12.41-2.31,2.91-6.18,3.79-9.63,2.75-3.74-1.12-5.73-5.65-5.95-9.24-.12-1.99,.09-3.69,.69-5.23-5.51,8.3-3.67,20.65,6.25,25.5,5.01,2.45,11.15,3.03,16.3,.54,.53-.26,1.03-.54,1.5-.84,.03-.09,.11-.19,.21-.16h.04c4.24-2.79,6.16-7.21,8.25-11.89,.02-.05,.05-.08,.08-.12-.04-1.02-.18-2.06-.38-3.12,.95,2.01,1.32,4.13,1.15,6.32v.08c-.09,.98-.28,1.98-.57,2.99,0,.03,0,.06,0,.08-.1,.3-.19,.61-.3,.91-.69,1.78-3.41,5,.5,2.41,2.05-1.36,3.99-2.96,5.55-4.87,6.41-7.87,11.34-19.79,8.16-29.9,.27,.45,.57,.88,.89,1.3,.08,.31,.18,.63,.24,.94,0,0,.01,0,.02,.01,2.44,2.56,2.92,5.52,3.18,8.83,7.4-9.84,8.22-23.99,2.76-34.8-.02-.04,.05-.09,.07-.05,2.59,4.88,3.98,10.33,4.08,15.79,3.26-4.2,4.2-9.08,4.68-14.15-.88-7.4,.11-15.52,5.24-20.51,.08-.08,.22,0,.15,.11-5.41,7.72-5.82,16.92-3.44,25.73,.51-3.82,2.28-7.26,4.89-10.27,.09-.1,.18-.15,.27-.17,.77-1.54,1.75-2.96,2.98-4.22,.01,0,.02,0,.04-.02-.94,1.45-1.68,3.02-1.99,4.67-1.49,3.89-2.15,7.95-2.08,12.3,.06,3.63,.53,7.08,1.8,10.51,.53,1.42,1.02,2.79,1.36,4.24,.08-1.09,.25-2.23,.51-3.37,.06-.06,.12-.13,.13-.22,.32-1.61,.91-3.13,1.63-4.59,.88-1.34,1.96-2.58,2.96-3.85,.02,0,.04,.02,.05,.03,.03-.07,.06-.13,.08-.2,.65-.84,1.26-1.7,1.73-2.61-1.86,6.41-3.26,12.86-2.16,19.58,.95,5.78,3.38,10.5,6.32,15.38-.77-3.87-.05-8.33,1.75-11.68,.04-.07,.1-.1,.17-.13,.2-1.26,.49-2.51,.91-3.77,.05-.14,.19-.23,.34-.26-.01,.22-.02,.43-.03,.65-.17,1.72-.3,3.43-.21,5.19,.02,.32,.05,.63,.08,.94,.45,12.53,8.74,24.56,20.56,29.27,6.23,2.48,13.68,3.37,20.03,.63,3.75-1.62,5.93-5.9,6.28-9.96,.21-2.46-.2-4.89-1.88-6.39Zm-13.58-45.89c-1.16-2.42-2.91-4.7-4.61-6.76-1.44-1.74-2.83-3.55-4.32-5.25-1.1-1.25-2.3-2.61-3.78-3.44,1.9,3.81,4.14,7.46,5.89,11.35,1.43,3.17,2.42,6.44,3.19,9.83,.69,3.03,1.32,6.13,1.48,9.25,.12,2.32,.14,4.94-1.26,6.91-.16,.23-.5,.2-.59-.06-1.65-4.52-1.76-11.35-6.05-14.37,1.89,10.08,3.89,20.01,1.79,30.25-.06,.3-.6,.51-.69,.12-.49-2.2-.88-4.42-1.47-6.59-1.09,3.92-1,7.87,.18,11.82,.09,.29-.35,.69-.6,.45-5.3-4.87-10.61-9.43-12.99-16.47-2.38-7.06-2.16-13.69,.5-20.47-4.07,4.1-6.51,9.17-8.88,14.43-.11,.25-.58,.37-.65,.03-2.36-10.96,.7-24.24,9.67-31.48-7.52,3.17-14.26,8.35-18.7,15.24-.13,.2-.57,.4-.65,.03-1.94-9.85,4.11-19.37,11.58-25.4-6.73,1.96-14.13,3.86-18.24,9.96-.21,.31-.74,.32-.64-.15,1.18-5.81,3.71-11.11,6.85-16.09-4.93,2.01-9.64,5.8-12.13,10.52-2.45,4.63-1.86,10.13-4.15,14.82-.08,.16-.4,.36-.56,.18-2.34-2.81-3.7-6.25-5.94-9.12-1.86-2.37-3.85-5.68-6.52-7.34,1.39,3.52,3.37,6.96,2.59,10.86-.05,.25-.49,.5-.65,.2-1.08-2-1.76-4.17-2.87-6.09,2.52,5.46,4.13,11.35,5.04,17.28,.53,3.41,1.84,10.14-1.98,12.22-.13,.07-.31,.03-.39-.1-3.4-5.45-5.25-14.47-11.66-17.32,1.68,4.36,3.74,8.65,4.67,13.24,.65,3.22,.86,6.52,.65,9.8-.33,5.03-1.29,12.34-6.5,14.73-.21,.09-.44-.03-.43-.27,.14-3.97,.08-8.01-.58-11.94-.57-3.38-1.59-8.03-5.01-9.62,2.91,9.79,1.6,21.33-6.06,28.62-.22,.21-.74,.17-.58-.24,3.05-8.18-.89-16.28-4.02-23.78-1.46-3.5-2.96-7.1-3.54-10.86-.55-3.53-.41-7.18,.17-10.7,1.24-7.53,4.23-15.75,9.34-21.57,4.38-4.98,10.42-7.22,16.71-8.65-3.99-1.98-9.69-1.44-13.52,.46-.36,.18-.55-.3-.32-.54,4.76-5.03,10.55-9.18,17.77-9.07,3.6,.06,7.18,.95,10.51,2.31,2.66,1.08,5.47,2.42,7.25,4.76,.24,.32-.36,.82-.63,.46-.09-.12-.2-.23-.3-.35,1.48,1.94,1.46,4.2,1.27,6.54,1.3-2.16,2.09-4.6,3.38-6.77,.99-1.68,2.17-3.29,3.38-4.82,1.96-2.48,5.07-6.61,8.69-6.27,.24,.02,.31,.3,.2,.49-2.52,4.45-7.37,8.75-6.91,14.25,3.51-2.81,4.56-7.72,7.75-10.83,3.44-3.35,7.84-5.95,12.79-5.09,.28,.05,.33,.39,.14,.57-2.86,2.91-7.32,4.28-8.99,8.21,2.17-.5,4-2.14,5.86-3.29,1.78-1.1,3.56-1.83,5.64-2.12,4.63-.65,9.15,.14,13.46,1.91,3.52,1.44,6.96,3.35,9.91,5.76,2.63,2.14,5.3,4.84,5.83,8.33,.05,.32-.3,.66-.6,.45-7.33-5.16-16.01-9.34-25.12-7.44,2.2,1.55,4.76,2.49,7.06,3.89,2.16,1.31,4.15,3.21,5.83,5.08,2.91,3.22,5.16,6.89,7.01,10.8,1.79,3.78,3.39,7.77,4.25,11.88,.65,3.12,1.13,6.69-.46,9.61-.12,.21-.45,.36-.62,.11-1.47-2.28-1.99-4.87-3.14-7.29Z"/><path class="cls-17" d="M93.1,159.11c-2.43,3.27-5.31,6.48-8.84,8.58-.18,.11-.45,.12-.51-.13-.87-3.49-1.81-6.88-3.45-10.08-1.07,5.87-3.87,11.96-8.56,15.72-4.68,3.76-11.71,5.07-17.31,2.64-4.29-1.85-7-5.66-8.52-9.94,.53,5.51,3.55,10.73,9.21,13.51,5.01,2.45,11.15,3.03,16.3,.54,.53-.26,1.03-.54,1.5-.84,.03-.09,.11-.19,.21-.16h.04c4.24-2.79,6.16-7.21,8.25-11.89,.02-.05,.05-.08,.08-.12-.04-1.02-.18-2.06-.38-3.12,.95,2.01,1.32,4.13,1.15,6.32v.08c-.09,.98-.28,1.98-.57,2.99,0,.03,0,.06,0,.08-.1,.3-.19,.61-.3,.91-.69,1.78-3.41,5,.5,2.41,2.05-1.36,3.99-2.96,5.55-4.87,3.81-4.68,7.1-10.78,8.47-17.09-.81,1.57-1.78,3.06-2.81,4.44Z"/><path class="cls-17" d="M99.35,148.91c.33,1.28,.48,2.63,.58,4.05,5.56-7.4,7.4-17.23,5.66-26.25,.87,7.95,.06,16.99-6.24,22.21Z"/><path class="cls-17" d="M173.9,100.36c-.09,.17-.3,.29-.49,.22-.24-.09-.48-.16-.73-.22,2.23,2.01,3.81,4.88,4.91,8.01,.27-5.1-.47-10.34-2.19-15.21,.02,2.58-.45,5.15-1.5,7.2Z"/><path class="cls-18" d="M179.97,166.73c1.59,7-9.78,11.22-12.45,3.12-1.49-4.53,1.61-10.3,3.2-14.38,1.86-4.78,3.29-10.41,2.52-15.59-.03-.08-.05-.15-.08-.23-.02-.08-.02-.16,.01-.23-.27-1.57-.76-3.1-1.51-4.54-.17-.55-.36-1.1-.59-1.64-.03-.07-.07-.14-.1-.2,1.66,1.83,2.55,4.12,2.92,6.58,.79,1.45,1.45,3.14,1.41,4.81,0,.28-.04,.54-.07,.77,.04-.13,.09-.27,.14-.45,.28-.8,.53-1.6,.76-2.41,1.33-5.07,2.46-10.16,2.64-15.42,.29-8.26,.1-20.35-6.45-26.64-.29-.07-.58-.14-.86-.21,2.51,6.04,4.9,12,5.11,18.64,.16,4.92,.56,11.06-2.11,15.45-.15,.24-.54,.37-.65,.03-.83-2.61-3.5-5.01-6.33-5.14,8.83,15.75-10.59,32.37-1.31,48.02,.17,.28-.14,.6-.42,.59-9.3-.17-17.65-6.97-22.56-14.46-4.99-7.64-5.48-16.24-4.52-25.02-2.55,3.94-4.79,8.08-7.1,12.17-.11,.19-.47,.38-.62,.11-4.92-9.4-2.05-21.66,2.91-30.56-4.94,2.23-8.59,6.71-12.43,10.39-.14,.13-.43,.26-.56,.02-2.69-5.12-2.21-11.17-.61-16.6-.16,.22-.32,.43-.48,.65-.06,.24-.13,.47-.18,.71-1.49,3.89-2.15,7.95-2.08,12.3,.06,3.63,.53,7.08,1.8,10.51,.53,1.42,1.02,2.79,1.36,4.24,.08-1.09,.25-2.23,.51-3.37,.06-.06,.12-.13,.13-.22,.32-1.61,.91-3.13,1.63-4.59,.88-1.34,1.96-2.58,2.96-3.85,.02,0,.04,.02,.05,.03,.03-.07,.06-.13,.08-.2,.65-.84,1.26-1.7,1.73-2.61-1.86,6.41-3.26,12.86-2.16,19.58,.95,5.78,3.38,10.5,6.32,15.38-.77-3.87-.05-8.33,1.75-11.68,.04-.07,.1-.1,.17-.13,.2-1.26,.49-2.51,.91-3.77,.05-.14,.19-.23,.34-.26-.01,.22-.02,.43-.03,.65-.17,1.72-.3,3.43-.21,5.19,.02,.32,.05,.63,.08,.94,.45,12.53,8.74,24.56,20.56,29.27,6.23,2.48,13.68,3.37,20.03,.63,3.75-1.62,5.93-5.9,6.28-9.96,.21-2.46-.2-4.89-1.88-6.39Z"/><path class="cls-17" d="M108.67,125.07c-1.28,.5-2.45-.85-3.53-1.59,.03,.18,.06,.37,.09,.56,1,3.2,1.55,6.52,1.61,9.86,2.76-3.55,3.85-7.6,4.41-11.82-.76,1.1-1.33,2.51-2.58,3Z"/><g><path class="cls-16" d="M166.74,13.41c-2.51-1.05-5.01-2.97-7.54-4.01-2.72-1.11-6.07-1.02-8.86-1.92-.71,.35-.95,.25-1.58,.81-4.23,3.73-5.39,11.01-1.4,15.35,4.97,5.41,14.94,4.05,18.5-2.38,.95-1.71,1.68-4.84,1.19-6.78-.13-.52-.11-.58-.32-1.07Z"/><path class="cls-15" d="M165.02,12.26c-1.86-.78-3.7-2.2-5.57-2.97-2.01-.82-4.49-.75-6.55-1.42-.53,.26-.7,.19-1.17,.6-3.13,2.76-3.99,8.14-1.03,11.35,3.68,4,11.04,3,13.68-1.76,.7-1.26,1.24-3.58,.88-5.01-.1-.39-.08-.43-.23-.79Z"/><path class="cls-8" d="M161.15,11.28c-1.51-.42-3.17-.21-4.4,.88-1.89,1.67-2.41,4.92-.63,6.85,2.22,2.42,6.67,1.81,8.26-1.06,.42-.76,.75-2.16,.53-3.03-.45-1.81-2.01-3.15-3.77-3.64Z"/></g><g><path class="cls-16" d="M82.18,17.66c-2.63,.72-5.78,.75-8.41,1.49-2.83,.8-5.41,2.94-8.16,3.96-.34,.72-.59,.79-.74,1.61-1.03,5.55,2.55,11.99,8.37,12.95,7.25,1.19,14.26-6.03,13.09-13.29-.31-1.93-1.67-4.85-3.25-6.07-.43-.33-.45-.39-.91-.65Z"/><path class="cls-15" d="M80.59,18.03c-1.94,.53-4.26,.55-6.2,1.1-2.09,.59-3.99,2.17-6.01,2.92-.25,.53-.44,.58-.55,1.19-.76,4.09,1.88,8.84,6.17,9.55,5.35,.88,10.51-4.44,9.65-9.8-.23-1.42-1.23-3.57-2.39-4.48-.31-.25-.33-.29-.67-.48Z"/><path class="cls-8" d="M76.46,19.43c-1.45,.6-2.62,1.79-2.92,3.4-.46,2.48,1.14,5.35,3.74,5.78,3.24,.53,6.36-2.69,5.84-5.93-.14-.86-.75-2.16-1.45-2.71-1.47-1.15-3.53-1.24-5.21-.54Z"/></g><path class="cls-3" d="M144.96,5.67c2.77-3.07,5.92-4.39,9.16-4.52,3.84-.5,8.73,.82,11.38,3.45,2.01,1.34,3.44,3.6,4.37,5.91,.82,2.03,1.6,4.49,1.6,6.84-3.94-3.74-7.94-6.59-13.26-8.32-4.78-1.56-9.87-2.46-14.82-1.31,.46-.7,.98-1.39,1.57-2.05Z"/><path class="cls-3" d="M61.06,21.03c.94-2.31,2.36-4.56,4.37-5.9,2.65-2.62,7.54-3.95,11.38-3.45,3.24,.12,6.39,1.45,9.16,4.52,.59,.66,1.11,1.34,1.57,2.05-4.95-1.16-10.04-.25-14.82,1.3-5.31,1.73-9.32,4.58-13.26,8.32,0-2.35,.78-4.82,1.6-6.85Z"/><path class="cls-4" d="M169.87,10.5c-.19-.46-.39-.91-.62-1.35-.05,.02-.11,.04-.17,.04-6.75-.31-15.42-5.91-22.42-5.13-.58,.48-1.15,1-1.7,1.61-.59,.66-1.11,1.34-1.57,2.05,4.95-1.16,10.04-.25,14.82,1.31,5.31,1.73,9.32,4.58,13.26,8.32,0-2.35-.77-4.82-1.6-6.84Z"/><path class="cls-4" d="M85.97,16.2c-1.98-2.19-4.15-3.48-6.41-4.09-1.63,1.09-3.5,1.96-5.39,2.71-5.26,2.09-10.48,4.4-13.99,8.65-.43,1.42-.73,2.94-.73,4.41,3.94-3.74,7.95-6.59,13.26-8.32,4.78-1.55,9.86-2.46,14.82-1.3-.46-.71-.98-1.39-1.57-2.05Z"/></g><path class="cls-20" d="M74.35,192.47c-.28-.41-.73-.47-1.15-.21-1.35,.82-1.99,2.19-2.82,3.51-1.48,2.35-3.69,4.17-5.74,5.98-3.89,3.43-9.28,5.29-12.83,9-1.02,1.07-.85,3.26,1.02,3.06,5.4-.56,10.92-5.6,14.85-9.03,2.32-2.03,9.07-8.82,6.67-12.31Z"/><path class="cls-20" d="M47.95,213.17c-1.4-.43-3.44,.44-4.79,.83-2.03,.59-4.27,1.07-5.84,2.54-.96,.9-.54,2.38,.8,2.4,1.91,.03,3.84-1.18,5.56-1.92,1.57-.67,3.66-1.47,4.57-2.99,.22-.35,.11-.74-.3-.87Z"/><path class="cls-20" d="M90.09,195.49c.12-3.97,.7-7.89,1.28-11.81,.13-.91-1.09-.65-1.34-.04-2.97,7.38-4.84,17.3-1.74,24.92,.67,1.64,2.92-.04,2.77-1.35-.44-3.95-1.1-7.72-.98-11.73Z"/><path class="cls-20" d="M136.83,206.98c-.56-3.37-2.25-6.5-3.01-9.87-.85-3.73-1.01-7.59-1.95-11.3-.28-1.1-1.64-.45-1.77,.4-.97,6.3-.94,17.76,4.3,22.32,1.03,.89,2.63-.31,2.43-1.55Z"/><path class="cls-20" d="M64.67,65.8c-1.9,2.12-3.66,4.44-5.06,6.92-1.08,1.91-2.92,6.02-.77,7.72,.85,.67,2.1,.34,2.63-.6,.62-1.1,.61-1.77,.66-3.01,.06-1.29,.59-2.57,1.08-3.75,.9-2.21,2.35-4.17,3.24-6.38,.47-1.16-1.06-1.7-1.78-.9Z"/><path class="cls-20" d="M125.58,49.6c-5.96-2.89-15.03,2.41-20.72,4.16-1.05,.32-1.32,2.28,.07,2.12,3.08-.35,6.01-1.22,8.98-2.09,3.65-1.08,7.08-1.05,10.76-1.6,1.07-.16,2.27-1.93,.91-2.59Z"/></g></g></g></g></svg>