<?xml version="1.0" encoding="UTF-8"?><svg xmlns="http://www.w3.org/2000/svg" viewBox="0 0 236.66 240.48"><defs><style>.cls-1{fill:#f49cb5;}.cls-2{fill:#01b6b8;}.cls-3{fill:#00b3b8;}.cls-4{fill:#00acbd;}.cls-5{fill:#fff;}.cls-6,.cls-7{fill:#f08021;}.cls-8,.cls-9{fill:#f17aa2;}.cls-10{fill:#00a8b7;}.cls-11{fill:#00a3a6;}.cls-12{fill:#d44e32;}.cls-13{fill:#cae4bd;}.cls-14{fill:#dfdcbf;}.cls-15{fill:#221f1f;}.cls-16{fill:#079db0;}.cls-17{fill:#93d1bb;}.cls-18{fill:#61c4ba;}.cls-19{fill:#38bdba;}.cls-20{fill:#59180a;}.cls-21{fill:#4cb3ac;}.cls-22{fill:#7acabb;}.cls-9{mix-blend-mode:multiply;}.cls-7{mix-blend-mode:screen;}.cls-23{isolation:isolate;}</style></defs><g class="cls-23"><g id="Layer_2"><g id="_3"><g><path class="cls-15" d="M92.78,205.15c-4.23-.92-6.32-3.84-7.58-7.18,.87-4.39,1.31-9.3-.53-13.45-1.83-4.13-6.92-6.74-11.38-8.23-4.44-1.48-9.13-1.53-13.66-.35-4.99,1.31-7.56,5.22-9.37,9.2-.05,.02-.09,.05-.1,.09-1.24,4.66-3.13,8.69-3.69,13.54-.55,4.78,.25,10.78-3.57,14.7-.42,.43-.02,1.11,.61,.75,1.66-.95,3.12-1.93,4.41-3.16-.82,4.1-.14,8.27,.69,12.63-.84,1.32-2.04,2.85-3.72,2.99-.5,.04-.86,.55-.7,.9-.81,.32-1.58,.73-2.08,.98-2.58,1.28-4.5,3.95-5.15,6.42-.32,1.19-1.12,3.42,.71,3.92,.87,.24,1.86-.67,2.39-1.12,1.36-1.19,2.8-1.34,4.51-1.74-.22,.69-.36,1.4-.39,2.14-.06,1.2,.41,2.13,1.87,2.15,.84,0,1.57-.63,2.14-1.07,1.46-1.12,2.93-1.82,4.59-2.6-.24,.55-.45,1.13-.6,1.74-.26,1.09,.66,2.45,2.1,1.98,1.61-.52,2.93-1.43,4.35-2.26,3.97-2.34,7.68-.76,11.83-.18,2.5,.35,6.08-.01,8.01-1.56,.06-.05,.09-.09,.13-.14,2-.29,3.89-1.06,5.64-2.63,2.88-2.59,2.28-5.47,.69-8.13,.82,.64,1.55,1.32,2.09,2.37,.33,.64,1.25,.05,1.34-.41,.49-2.65,.77-5.74,.18-8.57,.23-.09,.42-.27,.45-.51,.36-3.23,.7-5.59-.36-8.77-.4-1.21-.96-2.29-1.64-3.3,1.67,.47,3.45,.19,5.5,.07,.69-.04,1.11-1.02,.3-1.19Z"/><path class="cls-15" d="M139.03,206.34c2.05,.12,3.83,.4,5.5-.07-.68,1.01-1.24,2.09-1.64,3.3-1.06,3.17-.72,5.54-.36,8.77,.03,.24,.22,.43,.45,.51-.59,2.83-.31,5.92,.18,8.57,.09,.46,1.01,1.05,1.34,.41,.54-1.05,1.27-1.73,2.09-2.37-1.6,2.66-2.19,5.55,.69,8.13,1.74,1.57,3.64,2.33,5.64,2.63,.03,.05,.07,.1,.13,.14,1.93,1.55,5.51,1.91,8.01,1.56,4.15-.58,7.86-2.15,11.83,.18,1.42,.83,2.74,1.74,4.34,2.26,1.44,.46,2.36-.89,2.1-1.98-.15-.61-.35-1.19-.6-1.74,1.66,.78,3.13,1.48,4.59,2.6,.57,.44,1.31,1.08,2.14,1.07,1.46-.01,1.93-.95,1.87-2.15-.03-.74-.17-1.45-.39-2.14,1.71,.4,3.15,.55,4.51,1.74,.52,.46,1.52,1.36,2.39,1.12,1.83-.5,1.03-2.73,.71-3.92-.66-2.48-2.58-5.14-5.15-6.42-.5-.25-1.27-.66-2.08-.98,.15-.35-.2-.86-.71-.9-1.68-.14-2.88-1.67-3.72-2.99,.83-4.35,1.51-8.53,.69-12.63,1.28,1.23,2.75,2.2,4.41,3.16,.64,.37,1.03-.32,.61-.75-3.83-3.92-3.02-9.91-3.57-14.7-.56-4.84-2.45-8.88-3.69-13.54,0-.05-.05-.07-.1-.09-1.81-3.98-4.38-7.89-9.37-9.2-4.53-1.19-9.21-1.13-13.66,.35-4.46,1.48-9.55,4.1-11.38,8.23-1.84,4.16-1.4,9.06-.53,13.45-1.25,3.34-3.35,6.26-7.58,7.18-.81,.18-.38,1.15,.3,1.19Z"/><path class="cls-6" d="M40.64,235.93c-.53,.29-.95,.77-1.36,1.17-1.52,1.47-1.67-.25-1.58-1.29,.26-3.19,3.3-7.07,7.14-7.89,1.87,.43,3.76,.52,5.57,.05-.53,.82-.94,1.7-1.23,2.58-1.87,1.09-3.34,2.61-4.19,4.39-1.37,.19-3.17,.32-4.35,.97Z"/><path class="cls-6" d="M53.22,235.81c-.09-.05-.21-.07-.35-.03-1.52,.42-2.9,1.07-4.22,1.85-.58,.34-1.14,.85-1.69,1.21-1.65,1.06-1.38-1.12-1.36-1.54,.15-2.25,1.55-4.14,3.32-5.68-.03,.61,.94,.42,1.25,.09,2.05-2.26,5.15-2.82,8.15-3.45-1,1.22-1.75,2.65-2.39,3.94-.12,.23-.06,.42,.07,.55-1.18,.87-2.1,1.88-2.78,3.07Z"/><path class="cls-6" d="M62.01,235.54c-1.82,.16-3.61,1.31-5.08,2.17-1.78,1.05-3.7,1.57-2.88-1.03,.48-1.51,1.49-2.7,2.7-3.76,.07-.02,.14-.04,.2-.08,3.64-1.94,7.29-3.93,11.65-2.6,.15,.05,.31,.03,.45-.02-.26,.78-.38,1.61-.35,2.45,.02,.48,.52,.71,.99,.45,.79-.43,1.5-.85,2.27-1.17-.48,.99-1.08,1.95-2.3,2.45-.47,.19-.84,.92-.11,1.06,2.52,.51,4.99,.97,7.34,.92-3.83,2.21-10.87-1.19-14.87-.83Z"/><path class="cls-4" d="M89.45,205.85c-.64,0-1.29-.05-1.92-.13-.07,.02-.15,.03-.23,.01-.18-.04-.36-.09-.54-.15-.87-.18-1.7-.46-2.43-.89,.91,1.78,2.19,3.42,2.88,5.32,.83,2.3,.69,4.32,.6,6.5-.61-1.4-1.51-2.68-2.82-3.72-.08-.06-.21,.05-.14,.12,1.55,1.52,2.47,3.4,2.92,5.39,0,.05,0,.09,0,.14,0,.12,.04,.21,.09,.28,.37,1.97,.28,4.03-.12,5.98,.06,.19,.11,.38,.15,.58,.06,.38-.43,.74-.8,.41-1.12-1.01-2.5-1.69-3.95-2.23,1.41,2.28,1.84,5.01,1.41,7.58-.05,.3-.37,.35-.62,.25-.45,.83-1.21,1.62-2.41,2.34-3.17,1.9-6.88,1.04-10.43,.78,.73-.79,1.21-1.71,1.49-2.71,.3-.09,.61-.17,.95-.22,.45-.07,1.11-.84,.43-1.06-1.32-.44-2.66,.34-3.82,1.06,.02-.41,.09-.82,.17-1.23-.15-.91,0-1.74,.28-2.55-.51,.53-.92,1.12-1.22,1.74-.03-.04-.06-.07-.12-.11-3.42-2.09-7.58-.38-10.96,1.37,.31-.5,.64-.98,1-1.44-.04-.1-.03-.21,.04-.32,.89-1.41,2.18-2.51,3.54-3.56-1.42,.26-2.57,.9-3.53,1.78-.09-.07-.21-.12-.37-.12-2.78,.01-5.83,1.02-8.11,2.6,.87-2.04,2.44-3.9,4.45-5.13,.21-.13,.17-.48-.14-.38-1.52,.51-2.8,1.44-3.81,2.58-1.55,.12-2.95,.29-4.42,.21,2.29-1.53,3.52-4.33,4.31-6.8,.08-.44,.11-.88,.05-1.32,0-.04-.01-.08-.02-.12-.49,1.12-1.06,2.21-1.66,3.28-.04-1.59-.18-3.18-.32-4.76-.05-.06-.09-.14-.11-.23-.65-3.4-.35-6.76,.16-10.12-.43,.88-.77,1.75-1.03,2.63-.99,.84-1.98,1.64-3.02,2.39,1.35-2.46,1.61-5.26,1.69-8.06,.09-3.36,.28-6.64,.9-9.98,.55-2.97,2.23-5.63,2.6-8.61,0-.02,0-.02-.01-.04,2.99-4.32,5.93-7.36,11.91-8.4,4.54-.79,9.28,.49,13.3,2.25,3.92,1.72,6.79,4.59,7.79,8.34,.46,1.71,.43,3.45,.28,5.2-.13-.62-.26-1.24-.39-1.83-.03-.13-.22-.04-.21,.07,.1,1.2,.23,2.47,.41,3.74-.16,1.62-.3,3.23-.12,4.83,.08,.71,.92,.46,1.33,.05,.54,1.41,1.28,2.73,2.3,3.84,.83,.64,1.7,1.25,2.64,1.78,.39,.22,.25,.79-.24,.78Z"/><path class="cls-17" d="M87.85,218.73c-.05-.07-.09-.16-.09-.28,0-.05,0-.09,0-.14-.45-1.99-1.37-3.87-2.92-5.39-.07-.07,.06-.18,.14-.12,1.31,1.04,2.21,2.32,2.82,3.72,.09-2.19,.23-4.2-.6-6.5-.65-1.8-1.83-3.37-2.72-5.04-.03,1.55-.08,3.11-.23,4.66-.03,.33-.53,.63-.81,.31-.61-.7-1.24-1.33-1.97-1.88,.49,4.45,2.09,8.77,1.35,13.28-.05,.27-.58,.71-.81,.31-1.06-1.87-2.1-3.69-3.66-5.25,.21,2.49,.76,5.09-.36,7.44-.11,.23-.45,.32-.68,.18-2.17-1.25-3.62-3.03-5.14-4.82-.78,1.52-1.07,3.19-1.77,4.74-.13,.28-.53,.5-.79,.21-1.88-2.06-2.33-4.71-3.4-7.11-2.77,2.63-4.44,6.38-8.65,7.45-.29,.07-.46-.2-.4-.41,.56-1.89,2.12-3.66,1.95-5.65-.99,.49-2.04,.85-3.11,1.22-.27,.09-.51-.03-.52-.29-.11-2.16,1-4.6,.23-6.71-1.3,1.21-2.54,2.45-4.25,3.23-.26,.12-.51-.05-.52-.29-.12-3.87,1.16-7.68,.55-11.53-1.65,1.08-3.19,2.28-4.82,3.38-.23,1.54-.64,3.03-1.4,4.42,1.04-.75,2.03-1.55,3.02-2.39,.26-.88,.6-1.76,1.03-2.63-.5,3.37-.8,6.73-.16,10.12,.02,.09,.06,.17,.11,.23,.14,1.59,.28,3.17,.32,4.76,.61-1.07,1.18-2.16,1.66-3.28,0,.04,.01,.08,.02,.12,.06,.44,.03,.88-.05,1.32-.79,2.48-2.02,5.27-4.31,6.8,1.47,.08,2.87-.09,4.42-.21,1.01-1.14,2.29-2.08,3.81-2.58,.31-.1,.35,.25,.14,.38-2.01,1.22-3.58,3.09-4.45,5.13,2.28-1.59,5.32-2.59,8.11-2.6,.16,0,.28,.05,.37,.12,.96-.87,2.12-1.52,3.53-1.78-1.36,1.05-2.65,2.15-3.54,3.56-.07,.11-.08,.22-.04,.32-.35,.46-.69,.94-1,1.44,3.38-1.75,7.54-3.46,10.96-1.37,.05,.03,.08,.07,.12,.11,.3-.62,.71-1.21,1.22-1.74-.28,.81-.43,1.64-.28,2.55-.08,.41-.15,.82-.17,1.23,1.16-.72,2.5-1.5,3.82-1.06,.68,.23,.03,.99-.43,1.06-.34,.05-.65,.13-.95,.22-.28,1-.77,1.92-1.49,2.71,3.56,.26,7.26,1.12,10.43-.78,1.2-.72,1.96-1.51,2.41-2.34,.25,.1,.57,.05,.62-.25,.43-2.57,0-5.3-1.41-7.58,1.46,.54,2.84,1.21,3.95,2.23,.36,.33,.86-.02,.8-.41-.03-.2-.09-.39-.15-.58,.4-1.96,.49-4.02,.12-5.98Z"/><path class="cls-6" d="M186.52,234.96c-.85-1.78-2.31-3.3-4.18-4.39-.29-.88-.7-1.76-1.23-2.58,1.81,.47,3.7,.37,5.57-.05,3.85,.82,6.89,4.7,7.14,7.89,.08,1.04-.06,2.75-1.58,1.29-.41-.4-.83-.88-1.36-1.17-1.18-.65-2.98-.78-4.35-.97Z"/><path class="cls-6" d="M175.52,232.74c.13-.13,.19-.32,.07-.55-.64-1.29-1.39-2.72-2.39-3.94,3.01,.63,6.1,1.2,8.15,3.45,.3,.33,1.28,.52,1.25-.09,1.77,1.55,3.17,3.43,3.32,5.68,.03,.41,.29,2.6-1.35,1.54-.56-.36-1.11-.86-1.7-1.21-1.32-.77-2.71-1.43-4.22-1.85-.15-.04-.26-.02-.35,.03-.68-1.18-1.6-2.2-2.78-3.07Z"/><path class="cls-6" d="M154.63,236.37c2.35,.05,4.81-.41,7.34-.92,.72-.15,.36-.87-.11-1.06-1.22-.5-1.82-1.46-2.3-2.45,.77,.32,1.47,.74,2.27,1.17,.48,.26,.98,.04,.99-.45,.03-.84-.09-1.67-.35-2.45,.14,.05,.29,.06,.45,.02,4.36-1.32,8.01,.66,11.65,2.6,.06,.03,.13,.06,.2,.08,1.21,1.06,2.22,2.25,2.7,3.76,.82,2.6-1.1,2.07-2.88,1.03-1.46-.86-3.26-2.01-5.08-2.17-4-.35-11.04,3.04-14.87,.83Z"/><path class="cls-4" d="M141.83,205.07c.94-.53,1.8-1.14,2.64-1.78,1.02-1.12,1.75-2.43,2.3-3.84,.41,.42,1.25,.66,1.33-.05,.18-1.6,.04-3.21-.12-4.83,.19-1.27,.31-2.53,.41-3.74,.01-.1-.19-.19-.22-.07-.13,.59-.26,1.2-.39,1.83-.15-1.75-.18-3.49,.28-5.2,1-3.75,3.87-6.62,7.79-8.34,4.02-1.76,8.77-3.04,13.31-2.25,5.97,1.04,8.92,4.08,11.91,8.4,0,.02-.02,.02-.01,.04,.37,2.98,2.05,5.64,2.6,8.61,.61,3.33,.81,6.61,.9,9.98,.08,2.8,.34,5.6,1.69,8.06-1.04-.75-2.02-1.55-3.01-2.39-.26-.88-.6-1.76-1.04-2.63,.5,3.37,.8,6.73,.16,10.12-.02,.09-.06,.17-.11,.23-.14,1.59-.28,3.17-.32,4.76-.61-1.07-1.17-2.16-1.66-3.28,0,.04-.01,.08-.02,.12-.06,.44-.03,.88,.05,1.32,.79,2.48,2.01,5.27,4.31,6.8-1.47,.08-2.87-.09-4.43-.21-1.01-1.14-2.29-2.08-3.81-2.58-.31-.1-.35,.25-.14,.38,2.01,1.22,3.58,3.09,4.45,5.13-2.28-1.59-5.33-2.59-8.11-2.6-.17,0-.28,.05-.37,.12-.96-.87-2.12-1.52-3.53-1.78,1.36,1.05,2.65,2.15,3.54,3.56,.07,.11,.08,.22,.04,.32,.36,.46,.69,.94,1,1.44-3.38-1.75-7.54-3.46-10.96-1.37-.05,.03-.08,.07-.12,.11-.3-.62-.71-1.21-1.22-1.74,.28,.81,.44,1.64,.29,2.55,.09,.41,.15,.82,.17,1.23-1.16-.72-2.5-1.5-3.82-1.06-.68,.23-.03,.99,.42,1.06,.34,.05,.65,.13,.95,.22,.28,1,.77,1.92,1.49,2.71-3.56,.26-7.26,1.12-10.43-.78-1.2-.72-1.96-1.51-2.41-2.34-.25,.1-.57,.05-.62-.25-.43-2.57,0-5.3,1.41-7.58-1.46,.54-2.84,1.21-3.95,2.23-.36,.33-.86-.02-.8-.41,.03-.2,.09-.39,.15-.58-.4-1.96-.49-4.02-.12-5.98,.05-.07,.09-.16,.09-.28,0-.05,0-.09,0-.14,.45-1.99,1.37-3.87,2.92-5.39,.07-.07-.06-.18-.14-.12-1.31,1.04-2.21,2.32-2.82,3.72-.09-2.19-.23-4.2,.6-6.5,.69-1.9,1.97-3.54,2.88-5.32-.73,.42-1.56,.71-2.43,.89-.18,.06-.36,.12-.54,.15-.08,.02-.16,0-.23-.01-.64,.08-1.29,.12-1.92,.13-.49,0-.63-.56-.24-.78Z"/><path class="cls-18" d="M157.99,231.49c-.45-.07-1.08-.81-.45-1.05-3.57,.21-7.22-.15-10.71-.92,.02,.51,.06,1.02,.14,1.53,.05,.3,.37,.35,.62,.25,.45,.83,1.21,1.62,2.41,2.34,3.17,1.9,6.88,1.04,10.43,.78-.73-.79-1.21-1.71-1.49-2.71-.3-.09-.61-.17-.95-.22Z"/><path class="cls-18" d="M172.18,228.95c-.57-.9-1.3-1.66-2.11-2.38-.8,.58-1.68,1.11-2.67,1.56-.24,.11-.48,.2-.72,.3,2.24,.22,4.53,1.24,6.53,2.28-.31-.5-.64-.98-1-1.44,.04-.1,.03-.21-.04-.32Z"/><path class="cls-18" d="M144.75,214.67s-.03-.06-.03-.1c.05-2.41,.44-4.77,.87-7.14-.49,.83-.95,1.67-1.28,2.58-.83,2.3-.69,4.32-.6,6.5,.28-.65,.63-1.26,1.04-1.84Z"/><path class="cls-17" d="M186.22,211.88c-1.35-2.46-1.61-5.26-1.69-8.06-.04-1.5-.11-2.99-.22-4.48-.47,1.1-1.05,2.17-1.82,3.16-.17,.22-.67,.42-.78,.03-.06-.18-.13-.35-.21-.53-1.54,5.1-2.75,10.29-5.21,15.13-.11,.22-.58,.39-.74,.11-1-1.69-.96-3.62-1.42-5.45-2.1,4.1-3.41,8.61-6.73,12.11-.2,.21-.61,.24-.71-.06-.61-1.78-.85-3.58-2.26-5.01-1.34,1.44-2.09,3.17-3.17,4.77-.21,.31-.75,.37-.79-.07-.18-1.93-.24-3.87-.4-5.8-2.22,2.58-3.99,5.44-5.96,8.16-.19,.27-.81,.39-.79-.06,.1-3.89,1.53-7.54,2.9-11.19-2.84,2.55-4.97,5.69-8.23,7.87-.25,.16-.64,.07-.63-.23,.13-3.58,2.01-6.93,2.12-10.49-1.52,.84-2.77,1.94-4.12,2.98-.07,.06-.16,.07-.24,.08-.65,1.06-1.09,2.22-1.36,3.42,0,.05,0,.09,0,.14,0,.12-.04,.21-.09,.28-.37,1.97-.28,4.03,.12,5.98-.06,.19-.11,.38-.15,.58-.06,.38,.43,.74,.8,.41,1.12-1.01,2.5-1.69,3.95-2.23-1.41,2.28-1.84,5.01-1.41,7.58,.05,.3,.37,.35,.62,.25,.45,.83,1.21,1.62,2.41,2.34,3.17,1.9,6.88,1.04,10.43,.78-.73-.79-1.21-1.71-1.49-2.71-.3-.09-.61-.17-.95-.22-.45-.07-1.11-.84-.42-1.06,1.32-.44,2.66,.34,3.82,1.06-.02-.41-.09-.82-.17-1.23,.15-.91,0-1.74-.29-2.55,.51,.53,.92,1.12,1.22,1.74,.04-.04,.07-.07,.12-.11,3.42-2.09,7.58-.38,10.96,1.37-.31-.5-.64-.98-1-1.44,.04-.1,.03-.21-.04-.32-.89-1.41-2.18-2.51-3.54-3.56,1.42,.26,2.57,.9,3.53,1.78,.09-.07,.21-.12,.37-.12,2.78,.01,5.83,1.02,8.11,2.6-.88-2.04-2.44-3.9-4.45-5.13-.21-.13-.17-.48,.14-.38,1.52,.51,2.8,1.44,3.81,2.58,1.56,.12,2.95,.29,4.43,.21-2.29-1.53-3.52-4.33-4.31-6.8-.08-.44-.11-.88-.05-1.32,0-.04,.01-.08,.02-.12,.49,1.12,1.06,2.21,1.66,3.28,.04-1.59,.18-3.18,.32-4.76,.05-.06,.09-.14,.11-.23,.65-3.4,.35-6.76-.16-10.12,.43,.88,.77,1.75,1.04,2.63,.99,.84,1.98,1.64,3.01,2.39Z"/><path class="cls-18" d="M89.69,205.07c-.94-.53-1.81-1.14-2.64-1.78-1.02-1.12-1.75-2.43-2.3-3.84-.04,.04-.09,.09-.15,.13-.09,1.73-.1,3.47-.12,5.21,.69,.38,1.46,.64,2.27,.81,.18,.06,.36,.12,.54,.15,.08,.02,.16,0,.23-.01,.64,.08,1.29,.12,1.92,.13,.49,0,.63-.56,.24-.78Z"/><path class="cls-15" d="M40.16,143.6c3.45-6.89,6.26-14.02,6.17-21.63-.04-3.44-1.02-7.74-5.94-7.65-3.87,.08-8.67,1.87-10.54,5.01-.08,.13,.02,.22,.13,.21-13.39,11.96-23.33,30.97-19.61,47.95-1.22,.61-2.36,1.35-3.5,2.63-2.63,2.96-4.67,6.06-6.04,9.61-.99,2.57-2.11,10.28,3.16,9.85,.05,.21,.1,.42,.16,.63,.97,3.23,3.62,7.66,8.12,7,.04,0,.07-.02,.11-.04,1.67,1.76,4.13,2.55,7.69,1.49,.12-.04,.24-.13,.33-.25,2.34,1.12,5.77,1.93,7.74,.2,1.96-1.72,.79-4.51-.77-6.21,1.21-.94,1.7-2.38,1.57-3.79-.19-2.12-.87-4.15-.19-6.28,.55-1.73,2.36-3.4,3.42-4.94,1.19-1.72,2.31-4.4,1.79-6.44-.39-1.53-1.4-2.77-2.36-4.01,.09-.1,.16-.22,.16-.35-.08-8.4,4.63-15.49,8.39-22.99Z"/><path class="cls-19" d="M29.97,167.65c1,1.92,2.23,3.78,2.01,6.21-.37,4.03-5.41,6.62-5.13,10.73,.05,.82,.65,8.07-1.69,5.79-1.25-1.21-2.02-2.92-2.73-4.4-.71-1.48-.97-3.01-1.13-4.55-.59-1.67-1.01-3.39-1.29-5.13-.18,4.38,.06,8.34,2.03,12.52,.52,1.1,2.06,3.92,3.89,4.07,.59,.97,1.17,1.82,1.54,2.93,1.33,3.96-5.29,1.55-6.06,1.25-2.54-.97-4.22-2.83-5.35-4.97-1.98-3.74-1.37-8.39-1.09-12.37,.02-.28-.43-.19-.46,.04-.82,6.29-1.99,13.53,4.39,17.76-4.55-.42-6.71-2.39-7.82-6.72-.94-3.67-.89-7.5-.52-11.23,.03-.31-.48-.26-.54-.01-.97,3.61-1.42,11.63,1.32,16.2-3.66-1.01-5.19-4.44-5.97-7.63-.96-3.94,1.39-8.43,2.85-12.07,.12-.41,.26-.83,.42-1.23-.02,.02-.05,.03-.07,.05-3.03,4.31-5.56,8.64-4.78,13.64-6.22-1.08,.24-12.48,1.83-14.62,1.97-2.66,4.17-5.26,7.6-6.55,1.2-.45,1.38-.71,2.14-1.56,.25-.28-.15-.56-.45-.4-1.25,.66-2.39,1.11-3.45,1.58-.06-8.53,.28-16.27,3.39-24.49,3.3-8.73,9.13-16.84,16.21-23.58,.04-.03,.04-.07,.04-.1,3.38-2.3,8.48-4.93,12.18-2,2.43,1.93,1.51,6.93,1.28,9.42-.35,3.63-1.61,7.17-2.97,10.59-2.1,5.27-4.99,10.28-7.52,15.4-1.99,4.02-4,8.24-3.83,12.65-.3-.57-.53-1.17-.63-1.83-.01-.08-.05-.13-.11-.17,.02,1.6,.17,3.19,.49,4.77Z"/><path class="cls-10" d="M43.26,116.82c-3.7-2.94-8.81-.3-12.18,2,0,.03,0,.07-.04,.1-7.08,6.74-12.91,14.85-16.21,23.58-.35,.93-.66,1.85-.95,2.77-.06,.5-.14,.99-.19,1.49,3.08-3.98,6.11-7.99,9.96-11.44,.34-.31,.91-.08,.66,.35-5.38,9.18-3.93,20.77-.77,30.35,1.7,5.15,2.3,10.19,2.07,15.53-.13,2.93,.09,5.65,1.15,8.11,.36-1.66,.12-4.58,.09-5.09-.28-4.11,4.76-6.7,5.13-10.73,.22-2.43-1.01-4.29-2.01-6.21-.32-1.58-.46-3.17-.49-4.77,.05,.04,.09,.09,.11,.17,.1,.66,.33,1.26,.63,1.83-.18-4.4,1.84-8.63,3.83-12.65,2.53-5.11,5.42-10.13,7.52-15.4,1.36-3.42,2.62-6.96,2.97-10.59,.24-2.49,1.15-7.49-1.28-9.42Z"/><path class="cls-15" d="M204.9,166.59c0,.13,.06,.25,.16,.35-.96,1.25-1.96,2.48-2.36,4.01-.53,2.04,.6,4.71,1.79,6.44,1.06,1.53,2.87,3.2,3.42,4.94,.69,2.14,0,4.17-.19,6.28-.13,1.41,.36,2.85,1.57,3.79-1.56,1.7-2.73,4.49-.77,6.21,1.96,1.73,5.39,.92,7.74-.2,.09,.12,.21,.21,.33,.25,3.56,1.06,6.02,.28,7.69-1.49,.04,.01,.08,.03,.11,.04,4.5,.66,7.15-3.76,8.12-7,.06-.21,.11-.42,.16-.63,5.27,.43,4.15-7.28,3.16-9.85-1.37-3.55-3.41-6.66-6.04-9.61-1.14-1.28-2.28-2.02-3.5-2.63,3.72-16.98-6.23-35.99-19.61-47.95,.12,0,.21-.08,.13-.21-1.86-3.14-6.67-4.94-10.54-5.01-4.92-.09-5.9,4.2-5.94,7.65-.09,7.61,2.71,14.74,6.17,21.63,3.76,7.51,8.47,14.6,8.39,22.99Z"/><path class="cls-19" d="M207.18,162.87s-.09,.09-.11,.17c-.1,.66-.33,1.26-.63,1.83,.18-4.4-1.84-8.63-3.83-12.65-2.53-5.11-5.41-10.13-7.51-15.4-1.37-3.42-2.62-6.96-2.97-10.59-.24-2.49-1.15-7.49,1.28-9.42,3.7-2.94,8.81-.3,12.18,2,0,.03,0,.07,.04,.1,7.08,6.74,12.91,14.85,16.21,23.58,3.11,8.22,3.45,15.96,3.39,24.49-1.07-.47-2.2-.92-3.45-1.58-.31-.16-.7,.12-.45,.4,.76,.85,.94,1.11,2.14,1.56,3.43,1.29,5.63,3.9,7.6,6.55,1.59,2.14,8.05,13.54,1.82,14.62,.78-5-1.75-9.33-4.78-13.64-.01-.02-.04-.04-.06-.05,.16,.4,.3,.81,.41,1.23,1.47,3.65,3.81,8.13,2.85,12.07-.78,3.19-2.31,6.62-5.97,7.63,2.74-4.57,2.29-12.59,1.32-16.2-.06-.25-.57-.29-.54,.01,.37,3.73,.42,7.56-.52,11.23-1.11,4.33-3.27,6.3-7.82,6.72,6.38-4.24,5.22-11.47,4.39-17.76-.03-.23-.48-.32-.46-.04,.28,3.98,.89,8.63-1.09,12.37-1.13,2.14-2.81,4-5.35,4.97-.78,.29-7.39,2.71-6.07-1.25,.37-1.11,.95-1.96,1.54-2.93,1.83-.14,3.37-2.97,3.89-4.07,1.97-4.18,2.22-8.14,2.03-12.52-.29,1.74-.71,3.46-1.29,5.13-.16,1.54-.42,3.07-1.13,4.55-.72,1.48-1.48,3.19-2.73,4.4-2.35,2.28-1.75-4.97-1.69-5.79,.27-4.11-4.76-6.7-5.13-10.73-.22-2.43,1.01-4.29,2.01-6.21,.32-1.58,.46-3.17,.49-4.77Z"/><path class="cls-10" d="M207.07,163.04c.01-.08,.06-.13,.11-.17-.02,1.6-.17,3.19-.49,4.77-1,1.92-2.23,3.78-2.01,6.21,.37,4.03,5.4,6.62,5.13,10.73-.03,.51-.28,3.55,.11,5.19,.92-1.83,1.37-3.87,1.41-6.12,.07-3.72-.32-7.41,.31-11.11,.77-4.59,3.42-8.69,4.75-13.13,.77-2.56,.92-4.77,.71-7.35-.18-2.25-1.88-13.44,.08-18.96-3.15-5.15-7.11-9.93-11.57-14.18-.04-.03-.04-.07-.04-.1-3.38-2.3-8.48-4.93-12.18-2-2.43,1.93-1.52,6.93-1.28,9.42,.35,3.63,1.6,7.17,2.97,10.59,2.1,5.27,4.99,10.28,7.51,15.4,1.99,4.02,4.01,8.24,3.83,12.65,.3-.57,.53-1.17,.63-1.83Z"/><path class="cls-13" d="M25.92,192.89c-1.83-.14-3.37-2.97-3.89-4.07-1.97-4.18-2.22-8.14-2.03-12.52,.29,1.74,.71,3.46,1.29,5.13,.16,1.54,.42,3.07,1.13,4.55,.72,1.48,1.49,3.19,2.73,4.4,2.35,2.28,1.75-4.97,1.69-5.79-.15-2.22,1.26-4,2.64-5.8-.56,.46-1.18,.86-1.85,1.19-.3,.15-.74-.03-.72-.36,.13-2,.29-3.97-.08-5.93-.79,2.26-1.48,4.54-2.48,6.74-.19,.41-.97,.4-.94-.11,.23-3.34-.13-6.57-1.24-9.74-.39,1.15-.83,2.29-1.38,3.4-.18,.37-.74,.19-.87-.1-.55-1.25-.77-2.55-1.12-3.84-1.52,2.7-2.36,5.64-3.73,8.4-.2,.39-.9,.18-.89-.21,.06-2.87,.76-5.61,1.56-8.36-2.31,1.65-4.31,3.57-5.92,5.79-.24,.32-.93,.23-.89-.21,.21-2.11,1.01-3.91,2.17-5.67-1.27,.52-2.48,1.18-3.65,1.83-.66,.75-1.27,1.53-1.86,2.33-1.59,2.14-8.05,13.54-1.83,14.62-.78-5,1.75-9.33,4.78-13.64,.01-.02,.04-.04,.07-.05-.16,.4-.3,.81-.42,1.23-1.47,3.65-3.81,8.13-2.85,12.07,.78,3.19,2.31,6.62,5.97,7.63-2.74-4.57-2.29-12.59-1.32-16.2,.06-.25,.57-.29,.54,.01-.37,3.73-.42,7.56,.52,11.23,1.11,4.33,3.27,6.3,7.82,6.72-6.38-4.24-5.22-11.47-4.39-17.76,.03-.23,.48-.32,.46-.04-.28,3.98-.89,8.63,1.09,12.37,1.13,2.14,2.81,4,5.35,4.97,.78,.29,7.39,2.71,6.06-1.25-.37-1.11-.95-1.96-1.54-2.93Z"/><path class="cls-13" d="M231.06,173.91c-.79-1.06-1.61-2.11-2.54-3.07-.22,1.86-.84,3.63-2.03,5.08-.21,.26-.81,.3-.87-.1-.32-1.95-1.2-3.63-2.51-5.14,.32,1.53,.42,3.07-.23,4.59-.16,.38-.77,.41-.92,0-.51-1.41-1.31-2.62-2.23-3.79,.19,2.03,.19,4.02-.51,6.02-.13,.37-.84,.43-.92,0-.57-2.91-1.32-5.82-3.36-8.17,.31,2.21,.71,4.33-.33,6.5-.18,.37-.76,.42-.92,0-.45-1.18-.79-2.36-1.43-3.45-.22,2.26-.39,4.54-1.52,6.62-.19,.35-.75,.21-.87-.1-.98-2.54-1.69-5.14-1.69-7.8-1.18,2.13-1.47,4.53-1.57,6.93,1.53,2.07,3.38,4.03,3.21,6.57-.05,.82-.66,8.07,1.69,5.79,1.25-1.21,2.02-2.92,2.73-4.4,.71-1.48,.98-3.01,1.13-4.55,.59-1.67,1.01-3.39,1.29-5.13,.19,4.38-.06,8.34-2.03,12.52-.52,1.1-2.06,3.92-3.89,4.07-.59,.97-1.17,1.82-1.54,2.93-1.33,3.96,5.29,1.55,6.07,1.25,2.54-.97,4.22-2.83,5.35-4.97,1.98-3.74,1.37-8.39,1.09-12.37-.02-.28,.43-.19,.46,.04,.83,6.29,1.99,13.53-4.39,17.76,4.55-.42,6.71-2.39,7.82-6.72,.94-3.67,.89-7.5,.52-11.23-.03-.31,.47-.26,.54-.01,.97,3.61,1.42,11.63-1.32,16.2,3.66-1.01,5.19-4.44,5.97-7.63,.96-3.94-1.39-8.43-2.85-12.07-.11-.41-.26-.83-.41-1.23,.02,.02,.05,.03,.06,.05,3.03,4.31,5.56,8.64,4.78,13.64,6.22-1.08-.24-12.48-1.82-14.62Z"/><path d="M209.13,126.98c1.12,.66,2.23,1.32,3.33,2.03,.48,.31,1.14-.09,1.07-.59-1.27-8.67-5.88-16.49-10.36-24.2-1.34-2.31-3.09-5.07-5.19-7.65,.75,.63,1.5,1.27,2.26,1.9,.36,.31,.98-.05,1.01-.44,.22-2.9-1.78-6.13-3.99-8.28-3.32-5.33-7.91-10.29-12.38-14.71-4.25-4.2-9.14-7.94-14.97-10,1.8-.21,3.58-.77,4.61-1.88,.25-.27,.06-.59-.3-.49,.04-.16-.02-.33-.26-.36-.18-.03-.36-.07-.54-.1-1.6-.81-3.57-1.04-5.35-1.44-.22-.05-.44-.1-.66-.16-1-1.29-2.13-2.49-3.33-3.65,.35-.74,.7-1.48,1.02-2.23,.01,0,.02,.02,.03,.03,.14-.47,.32-.93,.54-1.37h0c.16-.41,.33-.81,.49-1.22,1-2.54,2.64-5.57,2.49-8.37,6.04,.16,12.2-1.57,17.32-5.13,2.01-1.4,3.66-3.33,4.93-5.48-.03-.12-.02-.26,.07-.4,3.14-4.72,3.07-10.53,1.74-15.73-.54-2.11-1.53-4.31-2.81-6.15C185.52,4.57,177.42,.59,169.09,.04c-6.21-.41-12.65,2.31-16.81,6.34-9.04,8.78-10.51,21.29-1.03,30.42,1.9,1.83,4.06,3.27,6.37,4.38-.5,1.2-.92,2.42-1.33,3.65,.01,.08,0,.16-.04,.26-.14,.31-.25,.63-.36,.96-.04,.13-.08,.26-.13,.39-.3,.95-.54,1.91-.95,2.83-.01,.02-.03,.04-.04,.07-1.3-1-2.64-1.98-4.08-2.75,1.37-.01,2.74-.03,4.11-.08,.46-.02,.72-.57,.32-.81-5.1-3.11-10.96-5.33-16.98-5.29,.73-.35,1.45-.72,2.17-1.12,.4-.23,.58-.91-.04-1.01-5.78-.93-11.83-.98-17.58,.15-1.62,.32-3.75,.66-5.58,1.35,.52-1.61,1.06-3.26,1.13-4.91,.01-.34-.34-.59-.72-.46-2.46,.87-6.82,3.23-7.98,5.98-.77-1.28-1.8-2.47-2.99-3.43-.3-.25-.7,0-.84,.26-.67,1.28-.81,3.28-.01,4.67-6.25-3.03-14.85-2.12-20.88,.78-.41,.19-.36,.76,.15,.75,1.76-.01,3.19,.39,4.72,.98-4.62,.62-9.1,2.11-13.21,4.16-.6-1.86-1.18-3.73-1.94-5.54,2.31-1.11,4.48-2.55,6.37-4.37,9.48-9.13,8.02-21.64-1.03-30.42-4.16-4.04-10.6-6.75-16.81-6.34-8.33,.55-16.44,4.53-20.8,10.86-1.28,1.85-2.27,4.04-2.81,6.15-1.33,5.2-1.4,11,1.74,15.73,.09,.14,.1,.28,.07,.4,1.27,2.15,2.92,4.08,4.93,5.48,5.11,3.56,11.28,5.29,17.32,5.13-.14,2.81,1.5,5.83,2.5,8.37,.16,.41,.33,.81,.49,1.22-.21,.18-.42,.36-.63,.55-4.84,4.37-8.51,9.63-12.48,14.59-4.28,5.35-12.52,13.29-20.9,10.68-.59-.19-1.26,.69-.63,.88,.12,.03,.24,.06,.36,.09,.75,1.55,4.12,2.46,5.58,2.8,2.65,.62,5.24,.76,7.78,.36-11.66,5.63-19.06,14.54-20.67,26.74-.09,.71,1.12,.51,1.18-.1,.01-.12,.04-.25,.05-.37,2.29-3.69,6.45-5.42,10.71-6.93-8.48,6.2-14.34,17.16-13.37,26.16,.01,.1,.05,.15,.1,.19,.02,.09,.18,.14,.28,.05,0,0,0,0,0,0,.22-.05,.44-.23,.48-.4,0-.03,.01-.06,.02-.09,1.51-1.54,2.66-3.32,4.33-4.75,2.19-1.87,4.6-3.07,7.28-4.21-10.92,9.65-12.07,24.54-11.83,38.11,0,.52,.74,.33,.82-.07,.64-3.05,1.82-5.87,3.35-8.54-4.82,11.19-1.15,26.27,5.99,35.48,.02,.02,.04,.04,.06,.05,0,.18,0,.36,0,.54,0,.64,1.06,.45,1.06-.09,.02-3.76,.25-7.41,1.28-10.93-2.08,11.13,3.08,25.56,16.23,29.45,.2,.06,.41-.03,.56-.16,.06,.07,.12,.15,.18,.22,.14,.14,.41-.08,.32-.23-2.58-4.49-2.71-9.59-1.94-14.49,.14,1.59,.65,3.18,1.16,4.68,2.32,6.65,10.51,12.32,18.53,12.28,.03,0,.05-.01,.08-.02,.14,.08,.3-.03,.28-.16,.21-.22,.24-.59-.15-.65-.13-.02-.27-.04-.4-.06-3.67-4.5-4.95-9.23-4.75-14.83,.02-.55,.07-1.09,.13-1.64,.23,1.48,.65,2.94,1.15,4.37,2.87,8.28,10.65,14.04,19.96,16.33,.08,.05,.16,.11,.24,.16,.2,.11,.46-.05,.55-.24,.26-.24,.31-.68-.15-.81-.22-.06-.43-.13-.64-.19-3.7-4.02-3.35-11.87-2.83-16.39,.24-2.03,.8-4,1.52-5.93,.96-2.58-.23,.57-.33,1.47-.28,2.65,.28,5.29,1.19,7.8,3.48,9.68,15.32,16.39,26.53,16.98,.42,.02,.79-.6,.27-.68-.03,0-.06-.01-.09-.01,0-2.37-1.07-4.54-.82-7.05,.36-3.6,2.49-6.89,4.75-9.86,.54,4.17-.31,8.6-1.98,12.35-.06,.13,.05,.26,.21,.25,5.9-.56,11.85-3.63,15.51-7.76-.6,3.36-2.28,6.69-4.61,8.58-.29,.24-.36,.9,.19,.92,5.18,.26,10.72,.03,14.98-2.86h0c-.58,1.45-1.36,2.81-2.39,3.93-.29,.32-.26,.79,.3,.79,8.63,.12,17.7-3.7,23.27-9.73-1.18,2.3-2.89,4.37-4.96,6.15-.25,.22-.3,.74,.16,.79,10.16,1,20.04-8.22,21.36-16.97,1.22,4.15,6,7.04,10.64,7.85,.37,.06,.68-.27,.65-.57-.12-1.02-.39-1.91-.75-2.89-.73-1.97-.23-4.19,.27-6.16,.56-2.18,1.59-4.28,2.54-6.36,.38,1.81,1,3.47,1.9,5.19,.26,.51,.96,.19,1.24-.11,5.6-6.27,10.97-14.87,10.41-23.12,.68,.83,1.37,1.67,2,2.53,.3,.41,.88,.15,1.06-.21,3.68-7.29,3.88-16.33-.26-23.44,1.35,1.49,2.59,3.03,3.74,4.65,.26,.36,.9,.1,.92-.28,.36-7.76-1.21-16.02-5.55-22.9Z"/><path class="cls-14" d="M151.75,34.61c-6.44-7.48-7.24-17.1-1.43-24.54,.03,0,.06,0,.1,0,8.06-1.15,16.8,.76,24.04,3.89,3.37,1.46,6.66,3.09,9.65,5.1,3.18,2.13,5.36,4.87,8.26,7.18-.07,.35-.14,.71-.24,1.05,.01,0,.02,0,.04,0-1.52,5.33-4.7,9.95-10.82,12.21-10.16,3.75-22.44,3.42-29.59-4.88Z"/><path class="cls-2" d="M157.48,46.17c.04-.13,.12-.21,.21-.28,.36-1.46,.64-2.9,.84-4.29,2.89,1.25,6,1.96,9.17,2.15-.4,2.91-1.7,5.97-2.96,8.76-.33,.93-.81,1.82-1.26,2.75-.01,.02-.03,.03-.04,.05-1.78,3.66-4.02,7-6.31,10.46-.02,.02-.02,.04-.02,.06-.09,.11-.18,.22-.27,.33,.68-2.23,1.01-4.52-.08-6.68-.18-.36-1-.57-1.11-.19-.24-.08-.49-.03-.57,.25-.54,1.97-1.51,3.74-3.06,5.17,.31-1.63,.01-3.38-.66-5.04,.06-.15,.11-.3,.16-.43,.04-.1,.07-.21,.1-.31,.09-.03,.18-.08,.25-.17,.71-.89,1.35-1.86,1.94-2.88,0-.08,.03-.16,.08-.25,1.7-3,2.51-6.28,3.59-9.47Z"/><path class="cls-14" d="M50.85,41.34c-6.12-2.26-9.3-6.87-10.82-12.21,.01,0,.02,0,.04,0-.1-.34-.17-.7-.24-1.05,2.9-2.3,5.08-5.04,8.26-7.17,2.99-2.01,6.28-3.64,9.65-5.1,7.25-3.14,15.98-5.04,24.04-3.9,.04,0,.07,0,.1,0,5.81,7.45,5.02,17.07-1.43,24.54-7.15,8.3-19.43,8.63-29.59,4.88Z"/><path class="cls-2" d="M64.49,45.6c3.17-.18,6.28-.9,9.17-2.15,.21,1.38,.48,2.83,.84,4.29,.09,.07,.17,.15,.21,.28,1.08,3.2,1.89,6.47,3.59,9.48,.05,.09,.07,.17,.08,.25,.59,1.02,1.23,1.99,1.94,2.88,.07,.09,.16,.14,.25,.17,.04,.1,.07,.21,.1,.31,.05,.14,.11,.29,.16,.44-.68,1.66-.98,3.4-.67,5.04-1.55-1.44-2.52-3.2-3.06-5.18-.08-.28-.33-.33-.56-.25-.11-.38-.93-.17-1.11,.19-1.09,2.16-.76,4.45-.08,6.68-.09-.11-.18-.22-.27-.33,0-.02,0-.04-.02-.06-2.29-3.45-4.53-6.79-6.31-10.46-.01-.02-.03-.03-.04-.06-.45-.93-.92-1.82-1.26-2.75-1.26-2.79-2.56-5.86-2.95-8.76Z"/><path class="cls-11" d="M158.53,41.6c-.06,.41-.14,.83-.21,1.25,6,1.33,2.94,9.95-1.22,17.43,.67,1.92,.34,3.93-.26,5.89,.09-.11,.18-.22,.27-.33,0-.02,0-.04,.02-.06,2.29-3.45,4.53-6.8,6.31-10.46,.01-.02,.03-.03,.04-.05,.45-.93,.92-1.82,1.26-2.75,1.26-2.79,2.56-5.85,2.96-8.76-3.17-.19-6.28-.91-9.17-2.15Z"/><path class="cls-11" d="M66.53,47.53c.86,.33,1.75,.74,2.36,1.37,1.57,1.62,2.45,3.76,3.4,5.7,1.09,2.22,2.08,4.46,3.2,6.64,.26-.3,.94-.44,1.04-.09,.23-.08,.49-.03,.56,.25,.54,1.98,1.52,3.74,3.06,5.18-.31-1.63-.01-3.38,.67-5.04-.06-.15-.11-.3-.16-.44-.04-.1-.07-.21-.1-.31-.09-.03-.18-.08-.25-.17-.71-.89-1.35-1.86-1.94-2.88,0-.08-.03-.17-.08-.25-1.7-3-2.51-6.28-3.59-9.48-.04-.13-.12-.21-.21-.28-.35-1.46-.63-2.9-.84-4.29-2.89,1.25-6,1.97-9.17,2.15,.08,.58,.2,1.17,.35,1.76,.56-.02,1.11-.05,1.69,.17Z"/><path class="cls-22" d="M208.83,143.47c-.06-.05-.13-.06-.2-.05-1.4-1.85-3.12-3.54-5.22-4.96-.04-.02-.1,.03-.06,.06,8.63,7.67,10.81,19.33,6.33,29.24-.79-1.07-1.68-2.05-2.69-3-.01-.06-.03-.13-.04-.19-1.04-.88-1.9-1.93-2.65-3.05,2.67,10-1.48,18.38-7.9,26.75-1.14-2.16-1.98-4.34-2.02-6.77-.02-1.21,.08-2.26-.29-3.36,.05,1.38-.25,2.9-.65,4.21-.01,.29-.02,.57,0,.86-.15,.04-.27,.13-.38,.23-.04,.1-.08,.21-.12,.31-1.68,4.05-3.68,7.75-3.32,12.18,0,.12-.02,.21-.07,.29,.09,.73,.26,1.45,.52,2.17,.07,.19,.03,.35-.07,.47,.79,2.01-2.39,.03-3.4-.42-2.97-1.35-4.93-3.71-6.2-6.33,.04-.38,.05-.75,.05-1.12-.3-.65-.55-1.32-.77-2,0,0,0,0,0,0,0,7.92-4.63,14.01-12.42,17.84-1.81,.89-3.75,1.47-5.78,1.85-2.6,.49-.14-1.26,.5-2,1.4-1.64,2.44-3.37,3.02-5.27,1.32-1.68,2.36-3.51,3.08-5.45,.14-1.29,.13-2.57-.03-3.84-.51,2.79-1.56,5.3-3.04,7.55,0,0-.01,0-.01,.02,0,0,0,0,0,0-3.36,5.07-8.97,8.73-15.89,10.8-2.35,.71-4.81,.97-7.28,1.12-.27,.02,.93-2.27,1.13-2.74,1.08-2.58,1.27-5.48,1.11-8.2,0-.04-.07-.02-.07,.01-.07,2.15-.47,4.58-1.3,6.81-.03-.1-.13-.16-.3-.09-4.35,1.55-8.59,2.27-13.22,2.21,3.22-3.41,5.34-9.89,3.36-14.13-.38-.5-.8-.97-1.25-1.43,.9,1.77,1.12,4.04,.83,6.34-3.01,2.71-5.99,4.96-10,6.52-1.45,.56-2.96,.95-4.49,1.31-.81,.19,.88-2.65,.99-2.89,1.81-3.72,2.09-8.58-.03-12.28-.56-.74-1.21-1.37-1.91-1.96,.69,1.38,1.15,2.85,1.43,4.37-4.93,5.36-6.65,11.21-4.42,17.73-14.41-2.33-27.24-11.66-26.27-25.05-.16-.93-.23-1.88-.09-2.79h0c-.1,.02-.19,.07-.24,.15-2.62,4.54-3.19,9.65-2.98,14.68,.11,2.5,.5,6.72,2.33,9.36-10.05-3.5-17.84-11.05-18.66-20.63-.31-1.01-.55-2.04-.71-3.03-.02-.12-.04-.25-.06-.38-.02,.03-.03,.05-.04,.08-1.7,6.59-2.52,15.95,3.48,21.15-10.6-2-20.38-10.48-17.14-20.77,.11-.36-.42-.37-.55-.08-2.23,5.01-3.59,13.57,.03,18.61-12.44-5.61-17.5-17.88-15.51-29.73,.02-.09-.04-.11-.11-.11,.51-1.41,1.15-2.79,1.99-4.15,.1-.16-.13-.24-.23-.1-3.48,4.51-4.35,9.51-4.51,14.78-2.67-6.09-5.53-11.86-6.66-18.42-1.27-7.36,.14-14.28,3.97-20.79,.32-.78,.68-1.54,1.05-2.3-.09,.03-.19,.07-.26,.16-3.09,3.67-5.6,7.45-7.26,11.79-.31,.81-.61,1.83-.8,2.67,.19-.86,.46-2.17,.42-3.4-.1-2.98-.12-5.9,.26-8.86,.75-5.9,2.57-11.59,5.83-16.79,1.65-2.63,3.75-4.66,5.96-6.58,.75-1.02,1.56-2.01,2.41-2.99,.42-.49,.82-.99,1.21-1.5-1.26,.77-2.44,1.59-3.52,2.46-.05-.12-.2-.2-.45-.15-2.73,.54-5.13,2.08-7.25,3.62-2.1,1.53-3.38,3.46-4.76,5.42,1.05-5.25,2.14-10.12,4.99-14.97,3.25-5.52,8.01-9.5,13.56-13.22,.05-.06,.09-.13,.14-.19-.01-.04-.05-.07-.11-.04-1.63,.62-3.2,1.44-4.71,2.4-4.25,.35-9.67,3.32-12.13,6.79,1.71-11.84,9.13-19.97,20.88-25.39,.56-.14,1.11-.32,1.67-.52,.09-.09,.18-.17,.27-.26,.22-.22,.41-.45,.61-.68-.03,0-.05-.01-.08,0-.55,.21-1.07,.44-1.6,.66-2.54,.72-5.1,.89-7.84,.59-1.66-.18-5.35-1-7.09-2.44,9.74,1.88,18.11-7.7,22.95-13.76,3.24-4.05,6.89-8.19,11.01-11.88,1.5,3.48,3.32,6.9,5.82,9.9,.33,.73,.72,1.45,1.16,2.14-3.76-1.58-8.44-2.18-11.53,.17-.38,.28-.43,1.1,.23,1.13,.75,.03,1.5,.14,2.22,.3-.91,.06-1.76,.18-2.42,.32-2.67,.58-5.38,1.73-6.52,4.06-.17,.34,.21,.55,.55,.48,2.02-.41,3.95-1.09,5.99-1.41,2.33-.37,4.83,.4,6.93,1.19,.07,.03,.16-.07,.08-.11-1.94-.91-3.75-1.61-5.95-1.8-2.03-.18-4.07,.69-6.06,1.11,1.42-1.45,3.45-2.09,5.66-2.39,2.47-.34,4.28,.32,6.58,.75,.07,.02,.14,.01,.22,0,.42,.28,.83,.58,1.22,.9,.39,.32,.99-.18,.8-.57-1.06-2.12-3.92-3.42-6.63-3.95,3.6-.93,8.69,1.08,11.2,2.87,.64,.46,1.46-.25,1.22-.86-1.09-2.84-1.93-5.33-1.58-8.2,.61,2.04,2.13,3.78,4.12,4.96,.02,.06,.04,.13,.07,.2,.09,.22,.31,.21,.5,.11,.08,.04,.16,.09,.24,.13,.19,.1,.5-.21,.3-.33-.08-.06-.16-.12-.24-.17,0-.03,.01-.05,.01-.08-.37-3.39,.8-6.89,3.14-9.63,.08,2.07,.09,4.13,.4,6.2,.1,.69,1.07,.29,1.27-.11,1-2.01,2.43-3.47,4.13-4.61,1.32-1.4,2.89-2.63,4.62-3.66-3.68,1.17-6.91,3.36-8.94,6.28-.18-1.89-.2-3.78-.29-5.68-.02-.47-.76-.41-1.02-.16-1.13,1.07-2.2,2.43-3.03,3.92-.11-.15-.23-.31-.35-.46-1.21-2.6-2.58-5.11-3.64-7.77-.29-.74-.56-1.49-.81-2.24,4.15-2.36,8.67-4.08,13.6-4.81,.14,.06,.28,.02,.39-.06,2.13-.29,4.34-.4,6.62-.29,.09,0,.16-.13,.06-.14-2.2-.2-4.39-.17-6.56,.05-.02-.04-.05-.09-.11-.12-1.43-.85-2.81-1.21-4.5-1.5,1.06,.18,4.76-1.21,6.08-1.44,5.87-1.01,11.23,.36,16.28,2.89,.11,.05,.26-.1,.17-.18-.58-.49-1.2-.92-1.85-1.32,.07-.1,.1-.22,.04-.33-.69-1.31-1.06-2.75-.66-4.14,1.21,1.07,2.23,2.36,2.91,3.73,0,0,0,0,0,0,0,.33,.06,.67,.19,1,.07,.2,.42,.06,.45-.09,.88-3.27,3.6-5.62,7.02-7.01-.25,1.59-.97,3.08-1.23,4.67-.91,.51-1.66,1.15-2.09,2-.1,.2,.21,.28,.34,.15,.51-.49,1.13-.9,1.83-1.25,.28,.19,.85,.04,.96-.32,.01-.04,.03-.08,.04-.12,2.43-.95,5.44-1.34,7.66-1.69,4.58-.71,9.28-.66,13.87-.03-.88,.45-1.75,.89-2.61,1.38,0,0,0,0-.01,0-1.63,.18-3.27,.54-4.91,1.11-.26,.09-.36,.56,.02,.5,7.55-1.14,15.66,.2,22.32,3.55-1.38,.02-2.76,.04-4.14,.1-1.41-.53-2.92-.82-4.6-.71h0c3.35,.95,6.23,2.65,9,4.61,.34,.18,.68,.38,1.01,.58-1.03,2.51-2.31,4.91-3.47,7.37-.12,.15-.24,.3-.35,.46-.83-1.48-1.91-2.85-3.03-3.92-.26-.24-1-.31-1.02,.16-.09,1.9-.11,3.79-.29,5.68-2.03-2.92-5.26-5.11-8.94-6.28,1.73,1.02,3.3,2.26,4.63,3.66,1.7,1.15,3.13,2.6,4.13,4.61,.2,.4,1.17,.8,1.27,.11,.31-2.06,.32-4.13,.4-6.2,2.33,2.74,3.51,6.24,3.14,9.63,0,.03,0,.06,.01,.08-.08,.06-.15,.12-.24,.17-.2,.13,.11,.43,.3,.33,.08-.04,.16-.09,.24-.13,.19,.11,.41,.11,.5-.11,.03-.07,.04-.13,.07-.2,1.99-1.18,3.51-2.91,4.12-4.96,.35,2.87-.49,5.36-1.59,8.2-.04,.09-.04,.19-.03,.28,1.88-.96,4.14-1.51,6.11-1.95,.17-.04,.32-.01,.45,.04,2-.59,4.13-.84,5.9-.39-2.64,.51-5.42,1.77-6.54,3.8,1.77-.52,3.61-.87,5.5-.97,.13,0,.23,.02,.32,.05,.91-.13,1.85-.17,2.91-.02,2.2,.31,4.24,.94,5.66,2.39-2-.42-4.04-1.29-6.06-1.11-2.21,.19-4.02,.89-5.96,1.8-.08,.04,0,.14,.08,.11,2.1-.79,4.6-1.56,6.93-1.2,2.04,.33,3.97,1,5.99,1.41,.34,.07,.72-.14,.55-.48-1.14-2.32-3.85-3.48-6.52-4.05-.67-.15-1.52-.27-2.42-.32,.73-.16,1.47-.27,2.22-.3,.66-.03,.61-.85,.23-1.13-3.08-2.34-7.76-1.75-11.53-.16,.44-.69,.84-1.41,1.16-2.14,1.68-2.01,3.04-4.21,4.22-6.49,.79,.68,1.59,1.36,2.38,2.06-.59-.17-1.18-.35-1.76-.53,.22,.26,.41,.53,.59,.81,.55,.29,1.23,.57,1.48,.68,.87,.39,1.76,.76,2.7,1.01,.3,.08,.44,.28,.46,.5,1.2,.26,2.44,.41,3.76,.4,0,0,0,0,.01,0-2.15,.62-4.52,.39-6.7,.93-.02,0-.04,.02-.06,.03-.64-.14-1.29-.27-1.96-.36-.02,0-.04,0-.06,0,1.72,1.1,3.66,1.83,5.54,2.85,2.78,1.51,5.52,3.1,8.14,4.82,3.8,2.5,7.04,5.62,9.82,8.99,3.01,3.1,5.79,6.38,8.34,9.67,.91,2.36,2.57,4.27,3.47,6.58-1.14-.82-2.32-1.57-3.58-2.23-2.56-2.71-5.52-4.98-8.84-5.93-.07-.02-.16,.07-.08,.11,6.92,2.97,11.85,10.39,15.28,16.12,4.09,6.83,9.19,14.82,9.85,22.68-.53-.39-1.07-.74-1.63-1.06-.11,.03-.23,.04-.38,0-1.66-.49-3.49-1.41-5.06-2.6,5.21,7.79,7.82,15.78,8.45,24.83-1.46-1.77-2.89-3.53-4.79-5Z"/><path class="cls-22" d="M57.62,74.05c1.24-.26,2.51-.7,3.77-.95-.71-.02-1.43-.02-2.16,.04-.15,.01-.26-.03-.32-.1-.47,.28-.9,.61-1.29,1.01Z"/><path class="cls-3" d="M76.68,71.66c-2.51-1.79-7.6-3.8-11.2-2.87,2.71,.53,5.57,1.83,6.63,3.95,.19,.38-.42,.88-.8,.57-.39-.32-.8-.61-1.22-.9-.07,.01-.14,.01-.22,0-2.31-.43-4.12-1.09-6.58-.75-1.01,.14-1.98,.35-2.87,.68,1.9-.05,3.76,.12,5.65,.46,.39,.07,.34,.4,.14,.61,1.18,.33,2.29,.8,3.45,1.34,.08,.04,0,.14-.08,.11-1.18-.44-2.48-.87-3.8-1.11-1.66,1.26-3.39,2.44-5.16,3.58,4.21-.2,8.37,.07,12.55,.55-.74-.66-1.6-1.16-2.52-1.66-.36-.19,.07-.64,.33-.69,2.4-.48,4.71,.03,7.05,.49-.31-.98-.97-1.76-1.72-2.58-.24-.26,.19-.66,.5-.63,1.67,.14,2.94,.88,4.27,1.68,1.18-2.38,2.56-4.63,4.62-6.53,.17-.16,.52-.26,.67-.02,.77,1.22,.98,2.57,1.26,3.92,2.4-4.2,5.35-8.19,9.86-10.87,.39-.23,.74,.07,.56,.43-.55,1.09-1.12,2.17-1.69,3.25,2.54-1.83,5.12-3.66,7.17-5.92-5.09,.09-9.16,3.48-13.38,5.61-.2,.1-.46,0-.51-.19-.7-2.31,.6-4.4,2.11-6.25-.51,.44-1.01,.9-1.46,1.38-1.7,1.15-3.13,2.6-4.13,4.61-.2,.4-1.17,.8-1.27,.11-.31-2.06-.32-4.12-.4-6.2-2.33,2.74-3.51,6.24-3.14,9.63,0,.03,0,.06-.01,.08,.08,.06,.15,.12,.24,.17,.19,.13-.11,.43-.3,.33-.08-.04-.16-.09-.24-.13-.19,.1-.41,.11-.5-.11-.03-.06-.04-.13-.07-.2-1.99-1.18-3.51-2.91-4.12-4.96-.35,2.87,.49,5.36,1.58,8.2,.23,.6-.58,1.32-1.22,.86Z"/><path class="cls-3" d="M151.75,65.72c-.02,.06-.04,.13-.07,.2-.09,.22-.31,.21-.5,.11-.08,.04-.16,.09-.24,.13-.2,.1-.5-.2-.3-.33,.08-.06,.15-.12,.24-.17,0-.03-.01-.06-.01-.08,.37-3.4-.8-6.89-3.14-9.63-.07,2.07-.09,4.14-.4,6.2-.1,.69-1.07,.29-1.27-.11-1-2.01-2.43-3.46-4.13-4.61-.58-.61-1.22-1.19-1.89-1.74,.35,1.4,.81,2.79,.99,4.17,.04,.3-.38,.74-.73,.48-2.23-1.68-4.8-2.77-7.6-3.37,3.13,2.48,5.99,5.16,7.58,8.67,.14,.32-.32,.87-.69,.56-1.76-1.43-3.91-2.29-6.15-2.94,2.82,2.43,4.79,5.42,7.03,8.29,1.62-1.65,2.66-3.57,3.6-5.58,.14-.29,.66-.36,.78-.03,.66,1.83,1.02,3.52,.59,5.37,3.32-.39,6.69-.08,10-.48,0,0,0,0,0,0,.17-.12,.33-.11,.44-.05,.08-.01,.17-.02,.26-.03,.59-.09,.46,.68-.03,.76-.15,.02-.31,.04-.47,.06-1.83,1.26-3.7,2.49-5.44,3.85,4.07-.49,8.2-1.08,12.12,.36,.39,.14,.16,.61-.13,.72-2.08,.78-4.29,1.25-6.33,2.08,5.69-.34,11.39-.59,16.93,.62-1.53-1.04-3.19-1.91-4.95-2.69-.44-.2-.08-.8,.35-.75,2.5,.31,5.02,.44,7.5,.85-3.2-2.16-6.66-4.09-10.85-4.05-.17,0-.25-.07-.28-.17-.66,.2-1.31,.42-1.92,.65-.07,.03-.16-.07-.08-.11,.7-.33,1.39-.63,2.08-.89,.1-.14,.26-.25,.44-.25,.09,0,.17,0,.26,0,1-.33,2.03-.57,3.17-.66,2.03-.18,4.07,.69,6.06,1.11-1.42-1.45-3.45-2.09-5.66-2.39-1.06-.15-2-.1-2.91,.02-.09-.04-.19-.06-.32-.05-1.89,.1-3.73,.44-5.5,.97,1.12-2.03,3.9-3.29,6.54-3.8-1.77-.46-3.9-.2-5.9,.39-.13-.05-.27-.08-.45-.04-1.97,.44-4.23,.99-6.11,1.95,0-.1,0-.19,.03-.28,1.09-2.84,1.93-5.33,1.59-8.2-.61,2.05-2.14,3.77-4.12,4.96Z"/><path class="cls-3" d="M203.41,138.46c2.1,1.42,3.83,3.1,5.22,4.96,.07-.01,.14,0,.2,.05,1.9,1.47,3.33,3.23,4.79,5-.62-9.05-3.24-17.04-8.45-24.83,1.57,1.19,3.4,2.11,5.06,2.6,.15,.04,.27,.03,.38,0,.56,.33,1.1,.68,1.63,1.06-.65-7.86-5.75-15.85-9.85-22.68-3.43-5.74-8.36-13.16-15.28-16.12-.08-.04,0-.13,.08-.11,3.32,.96,6.29,3.23,8.84,5.93,1.26,.67,2.44,1.41,3.58,2.23-.9-2.31-2.56-4.22-3.47-6.58-.96-1.23-1.95-2.46-2.97-3.68-5.25-3.98-9.21-9.76-16.27-10.96,2.96,2.85,6.3,5.22,7.8,9.03,.11,.28-.33,.67-.64,.52-4.5-2.05-9.14-3.5-14.13-3.82,8.13,5.06,16.01,11.68,17.31,20.58,.04,.3-.38,.74-.73,.47-2.38-1.84-4.63-4-7.11-5.82,7.11,7.06,12.78,15.64,11.98,24.95-.02,.26-.45,.65-.74,.38-1.1-1.01-2.01-2.13-2.89-3.27,.9,2.82,1.33,5.74,1.16,8.67,3.42,5.7,5.77,12.47,1.77,17.55-.14,.17-.58,.43-.74,.11-2.2-4.17-4.82-11.46-10.71-12.56,2.05,5.05,6.85,8.75,7.51,14.33,.54,4.5,.4,9.91-3.12,13.54-.19,.19-.63,.25-.71-.06-.82-3.14-1.89-6.3-3.46-9.22-.11-.2-.22-.41-.34-.61,1.33,7.71,.76,15.79-5.03,21.88-.25,.26-.69,.2-.72-.16-.6-6.22-.38-16.56-7.52-20.19,1.94,7.39,8.04,16.8,.19,22.93-.14,.11-.49,.13-.58-.06-1.65-3.41-2.11-7.61-3.96-11,.28,4.11-.02,8.28-.99,12.25-1.4,5.68-4.3,11.43-10.48,14.2-.25,.11-.53-.05-.52-.29,.07-6.46,1.89-13.07-.93-19.25-1.54,2.92-1.16,6.41-3.05,9.28-.13,.2-.57,.41-.74,.11-4.74-8.02-3.46-18.29-12.73-23.85-1.76,7.32,2.55,14.98-1.11,22.01,0,.01,0,.02,0,.04,.04,.19-.1,.37-.28,.47-.13,.22-.26,.44-.41,.66-.28,.42-1.04,.21-.73-.26,.19-.28,.35-.56,.51-.85-1.9-8.03-5.1-16.4-12.72-21.59,.38,7.4,3.81,15.35-1.06,22.14-.16,.23-.68,.42-.78,.03-.95-3.84-1.94-7.7-3.56-11.33-.27,4.03-.73,8.05-1.67,12-1.25,5.25-3.2,10.79-7.84,14.52-.11,.09-.39,.14-.51,.02-7.05-7.2-10.17-17.78-9.79-27.27-.88,1.83-1.73,3.66-2.53,5.52-.11,.25-.75,.59-.83,.13-.51-2.92-.73-5.82-.69-8.71-5.19,6.11-10.48,12.17-14.43,18.99-.19,.32-.76,.35-.8-.07-.54-7.4,.83-14.77,4.52-21.43-6.38,5.11-11.08,11.32-14.86,18.15-.13,.23-.74,.41-.78,.03-.22-1.94-.15-3.9-.23-5.85-2.05,4.37-3.24,8.98-4.67,13.53-.1,.32-.68,.53-.83,.13-4.11-11.1-3.45-22.46-.58-33.69-6.2,5.28-10.37,11.96-11.62,19.53-.07,.41-.86,.68-.86,.13v-.07c-1.74-4.26-1.27-8.64-.16-13.01,.53-3.86,1.61-7.65,3.3-11.23,.02-.1,.05-.2,.07-.29-4.49,4.91-9.34,9.93-10.64,16.21-.08,.38-.92,.5-.84,.03,1.22-7.16,1.21-14.45,2.54-21.6,1.21-6.49,3.71-12.46,8.15-17.69-4.15,2.52-7.87,5.48-10.93,9.06-.25,.29-.86,.14-.7-.26,3.56-9.3,8.19-17.93,16.04-24.99-4.95,.99-9.55,2.88-13.84,5.26-.37,.21-.79-.06-.56-.43,4.88-7.91,12.35-13.38,20.24-18.83-6.11,.77-11.93,2.67-17.99,3.73-.34,.06-.51-.28-.35-.51,5.24-7.77,16.24-12.16,19.44-21-4.29,1.53-8.71,4.03-13.41,3.02-3.12,1.68-6.53,2.55-10.13,1.86,1.74,1.44,5.44,2.26,7.09,2.44,2.74,.3,5.31,.13,7.84-.59,.53-.22,1.05-.45,1.6-.66,.04-.01,.05,0,.08,0-.19,.23-.38,.46-.61,.68-.09,.09-.18,.17-.27,.26-.55,.2-1.11,.37-1.67,.52-11.75,5.41-19.17,13.55-20.88,25.39,2.46-3.47,7.88-6.44,12.13-6.79,1.51-.96,3.08-1.78,4.71-2.4,.07-.02,.1,0,.11,.04-.05,.06-.09,.13-.14,.19-5.55,3.72-10.31,7.69-13.56,13.22-2.86,4.85-3.94,9.72-4.99,14.97,1.38-1.96,2.66-3.89,4.76-5.42,2.12-1.54,4.52-3.07,7.25-3.62,.25-.05,.4,.03,.45,.15,1.08-.87,2.26-1.69,3.52-2.46-.39,.51-.79,1.02-1.21,1.5-.86,.98-1.66,1.97-2.41,2.99-2.22,1.92-4.31,3.95-5.96,6.58-3.26,5.2-5.08,10.89-5.83,16.79-.38,2.96-.36,5.88-.26,8.86,.04,1.23-.23,2.54-.42,3.4,.19-.83,.49-1.86,.8-2.67,1.66-4.33,4.17-8.11,7.26-11.79,.07-.09,.16-.13,.26-.16-.38,.76-.73,1.53-1.05,2.3-3.83,6.51-5.24,13.43-3.97,20.79,1.13,6.56,3.99,12.33,6.66,18.42,.17-5.26,1.03-10.27,4.51-14.78,.11-.13,.33-.06,.23,.1-.83,1.36-1.48,2.74-1.99,4.15,.07,0,.13,.02,.11,.11-1.99,11.85,3.07,24.12,15.51,29.73-3.62-5.03-2.25-13.6-.03-18.61,.13-.29,.66-.28,.55,.08-3.24,10.29,6.54,18.77,17.14,20.77-6-5.2-5.18-14.55-3.48-21.15,0-.03,.02-.05,.04-.08,.02,.13,.04,.26,.06,.38,.16,.99,.4,2.01,.71,3.03,.82,9.58,8.61,17.13,18.66,20.63-1.83-2.63-2.22-6.85-2.33-9.36-.21-5.03,.37-10.13,2.98-14.68,.05-.08,.14-.13,.24-.16h0c-.13,.93-.07,1.87,.09,2.8-.97,13.39,11.86,22.72,26.27,25.05-2.23-6.52-.51-12.37,4.42-17.73-.28-1.52-.74-2.99-1.43-4.37,.7,.6,1.35,1.22,1.91,1.96,2.11,3.7,1.84,8.56,.03,12.28-.12,.24-1.8,3.08-.99,2.89,1.53-.36,3.04-.75,4.49-1.31,4-1.56,6.98-3.8,10-6.52,.29-2.31,.06-4.57-.83-6.34,.44,.46,.87,.93,1.25,1.43,1.99,4.23-.14,10.72-3.36,14.13,4.63,.06,8.86-.66,13.22-2.21,.17-.06,.27,0,.3,.09,.83-2.24,1.23-4.67,1.3-6.81,0-.03,.07-.05,.07-.01,.16,2.71-.03,5.62-1.11,8.2-.19,.47-1.39,2.75-1.13,2.74,2.47-.15,4.92-.41,7.28-1.12,6.92-2.07,12.53-5.73,15.89-10.8,0,0,0,0,0,0,0,0,0,0,.01-.02,1.48-2.24,2.53-4.76,3.04-7.55,.16,1.28,.17,2.55,.03,3.84-.72,1.94-1.76,3.77-3.08,5.45-.58,1.91-1.62,3.63-3.02,5.27-.64,.75-3.11,2.49-.5,2,2.02-.38,3.96-.96,5.78-1.85,7.79-3.83,12.42-9.93,12.42-17.84,0,0,0,0,0,0,.23,.68,.48,1.35,.77,2,0,.37-.02,.75-.05,1.12,1.27,2.63,3.22,4.99,6.2,6.33,1.01,.46,4.19,2.43,3.4,.42,.1-.12,.14-.28,.07-.47-.26-.71-.43-1.44-.52-2.17,.05-.08,.08-.17,.07-.29-.37-4.42,1.64-8.13,3.32-12.18,.04-.09,.08-.21,.12-.31,.11-.11,.23-.19,.38-.23-.02-.29-.02-.57,0-.86,.4-1.3,.7-2.83,.65-4.21,.37,1.1,.27,2.15,.29,3.36,.04,2.44,.88,4.62,2.02,6.77,6.41-8.37,10.57-16.75,7.9-26.75,.75,1.13,1.61,2.17,2.65,3.05,.01,.06,.03,.13,.04,.19,1.01,.95,1.9,1.93,2.69,3,4.48-9.91,2.3-21.58-6.33-29.24-.03-.03,.03-.08,.06-.06Z"/><path class="cls-3" d="M203.41,138.46c2.1,1.42,3.83,3.1,5.22,4.96,.07-.01,.14,0,.2,.05,1.9,1.47,3.33,3.23,4.79,5-.62-9.05-3.24-17.04-8.45-24.83,1.57,1.19,3.4,2.11,5.06,2.6,.15,.04,.27,.03,.38,0,.56,.33,1.1,.68,1.63,1.06-.65-7.86-5.75-15.85-9.85-22.68-3.43-5.74-8.36-13.16-15.28-16.12-.08-.04,0-.13,.08-.11,3.32,.96,6.29,3.23,8.84,5.93,1.26,.67,2.44,1.41,3.58,2.23-.9-2.31-2.56-4.22-3.47-6.58-.96-1.23-1.95-2.46-2.97-3.68-5.25-3.98-9.21-9.76-16.27-10.96,2.96,2.85,6.3,5.22,7.8,9.03,.11,.28-.33,.67-.64,.52-4.5-2.05-9.14-3.5-14.13-3.82,8.13,5.06,16.01,11.68,17.31,20.58,.04,.3-.38,.74-.73,.47-2.38-1.84-4.63-4-7.11-5.82,7.11,7.06,12.78,15.64,11.98,24.95-.02,.26-.45,.65-.74,.38-1.1-1.01-2.01-2.13-2.89-3.27,.9,2.82,1.33,5.74,1.16,8.67,3.42,5.7,5.77,12.47,1.77,17.55-.14,.17-.58,.43-.74,.11-2.2-4.17-4.82-11.46-10.71-12.56,2.05,5.05,6.85,8.75,7.51,14.33,.54,4.5,.4,9.91-3.12,13.54-.19,.19-.63,.25-.71-.06-.82-3.14-1.89-6.3-3.46-9.22-.11-.2-.22-.41-.34-.61,1.33,7.71,.76,15.79-5.03,21.88-.25,.26-.69,.2-.72-.16-.6-6.22-.38-16.56-7.52-20.19,1.94,7.39,8.04,16.8,.19,22.93-.14,.11-.49,.13-.58-.06-1.65-3.41-2.11-7.61-3.96-11,.28,4.11-.02,8.28-.99,12.25-1.4,5.68-4.3,11.43-10.48,14.2-.25,.11-.53-.05-.52-.29,.07-6.46,1.89-13.07-.93-19.25-1.54,2.92-1.16,6.41-3.05,9.28-.13,.2-.57,.41-.74,.11-4.74-8.02-3.46-18.29-12.73-23.85-1.76,7.32,2.55,14.98-1.11,22.01,0,.01,0,.02,0,.04,.04,.19-.1,.37-.28,.47-.13,.22-.26,.44-.41,.66-.28,.42-1.04,.21-.73-.26,.19-.28,.35-.56,.51-.85-1.9-8.03-5.1-16.4-12.72-21.59,.38,7.4,3.81,15.35-1.06,22.14-.16,.23-.68,.42-.78,.03-.95-3.84-1.94-7.7-3.56-11.33-.27,4.03-.73,8.05-1.67,12-1.25,5.25-3.2,10.79-7.84,14.52-.11,.09-.39,.14-.51,.02-7.05-7.2-10.17-17.78-9.79-27.27-.88,1.83-1.73,3.66-2.53,5.52-.11,.25-.75,.59-.83,.13-.51-2.92-.73-5.82-.69-8.71-5.19,6.11-10.48,12.17-14.43,18.99-.19,.32-.76,.35-.8-.07-.54-7.4,.83-14.77,4.52-21.43-6.38,5.11-11.08,11.32-14.86,18.15-.13,.23-.74,.41-.78,.03-.22-1.94-.15-3.9-.23-5.85-2.05,4.37-3.24,8.98-4.67,13.53-.1,.32-.68,.53-.83,.13-4.11-11.1-3.45-22.46-.58-33.69-6.2,5.28-10.37,11.96-11.62,19.53-.07,.41-.86,.68-.86,.13v-.07c-1.74-4.26-1.27-8.64-.16-13.01,.53-3.86,1.61-7.65,3.3-11.23,.02-.1,.05-.2,.07-.29-4.49,4.91-9.34,9.93-10.64,16.21-.08,.38-.92,.5-.84,.03,1.22-7.16,1.21-14.45,2.54-21.6,1.21-6.49,3.71-12.46,8.15-17.69-4.15,2.52-7.87,5.48-10.93,9.06-.25,.29-.86,.14-.7-.26,3.56-9.3,8.19-17.93,16.04-24.99-4.95,.99-9.55,2.88-13.84,5.26-.37,.21-.79-.06-.56-.43,4.88-7.91,12.35-13.38,20.24-18.83-6.11,.77-11.93,2.67-17.99,3.73-.34,.06-.51-.28-.35-.51,5.24-7.77,16.24-12.16,19.44-21-4.29,1.53-8.71,4.03-13.41,3.02-3.12,1.68-6.53,2.55-10.13,1.86,1.74,1.44,5.44,2.26,7.09,2.44,2.74,.3,5.31,.13,7.84-.59,.53-.22,1.05-.45,1.6-.66,.04-.01,.05,0,.08,0-.19,.23-.38,.46-.61,.68-.09,.09-.18,.17-.27,.26-.55,.2-1.11,.37-1.67,.52-11.75,5.41-19.17,13.55-20.88,25.39,2.46-3.47,7.88-6.44,12.13-6.79,1.51-.96,3.08-1.78,4.71-2.4,.07-.02,.1,0,.11,.04-.05,.06-.09,.13-.14,.19-5.55,3.72-10.31,7.69-13.56,13.22-2.86,4.85-3.94,9.72-4.99,14.97,1.38-1.96,2.66-3.89,4.76-5.42,2.12-1.54,4.52-3.07,7.25-3.62,.25-.05,.4,.03,.45,.15,1.08-.87,2.26-1.69,3.52-2.46-.39,.51-.79,1.02-1.21,1.5-.86,.98-1.66,1.97-2.41,2.99-2.22,1.92-4.31,3.95-5.96,6.58-3.26,5.2-5.08,10.89-5.83,16.79-.38,2.96-.36,5.88-.26,8.86,.04,1.23-.23,2.54-.42,3.4,.19-.83,.49-1.86,.8-2.67,1.66-4.33,4.17-8.11,7.26-11.79,.07-.09,.16-.13,.26-.16-.38,.76-.73,1.53-1.05,2.3-3.83,6.51-5.24,13.43-3.97,20.79,1.13,6.56,3.99,12.33,6.66,18.42,.17-5.26,1.03-10.27,4.51-14.78,.11-.13,.33-.06,.23,.1-.83,1.36-1.48,2.74-1.99,4.15,.07,0,.13,.02,.11,.11-1.99,11.85,3.07,24.12,15.51,29.73-3.62-5.03-2.25-13.6-.03-18.61,.13-.29,.66-.28,.55,.08-3.24,10.29,6.54,18.77,17.14,20.77-6-5.2-5.18-14.55-3.48-21.15,0-.03,.02-.05,.04-.08,.02,.13,.04,.26,.06,.38,.16,.99,.4,2.01,.71,3.03,.82,9.58,8.61,17.13,18.66,20.63-1.83-2.63-2.22-6.85-2.33-9.36-.21-5.03,.37-10.13,2.98-14.68,.05-.08,.14-.13,.24-.16h0c-.13,.93-.07,1.87,.09,2.8-.97,13.39,11.86,22.72,26.27,25.05-2.23-6.52-.51-12.37,4.42-17.73-.28-1.52-.74-2.99-1.43-4.37,.7,.6,1.35,1.22,1.91,1.96,2.11,3.7,1.84,8.56,.03,12.28-.12,.24-1.8,3.08-.99,2.89,1.53-.36,3.04-.75,4.49-1.31,4-1.56,6.98-3.8,10-6.52,.29-2.31,.06-4.57-.83-6.34,.44,.46,.87,.93,1.25,1.43,1.99,4.23-.14,10.72-3.36,14.13,4.63,.06,8.86-.66,13.22-2.21,.17-.06,.27,0,.3,.09,.83-2.24,1.23-4.67,1.3-6.81,0-.03,.07-.05,.07-.01,.16,2.71-.03,5.62-1.11,8.2-.19,.47-1.39,2.75-1.13,2.74,2.47-.15,4.92-.41,7.28-1.12,6.92-2.07,12.53-5.73,15.89-10.8,0,0,0,0,0,0,0,0,0,0,.01-.02,1.48-2.24,2.53-4.76,3.04-7.55,.16,1.28,.17,2.55,.03,3.84-.72,1.94-1.76,3.77-3.08,5.45-.58,1.91-1.62,3.63-3.02,5.27-.64,.75-3.11,2.49-.5,2,2.02-.38,3.96-.96,5.78-1.85,7.79-3.83,12.42-9.93,12.42-17.84,0,0,0,0,0,0,.23,.68,.48,1.35,.77,2,0,.37-.02,.75-.05,1.12,1.27,2.63,3.22,4.99,6.2,6.33,1.01,.46,4.19,2.43,3.4,.42,.1-.12,.14-.28,.07-.47-.26-.71-.43-1.44-.52-2.17,.05-.08,.08-.17,.07-.29-.37-4.42,1.64-8.13,3.32-12.18,.04-.09,.08-.21,.12-.31,.11-.11,.23-.19,.38-.23-.02-.29-.02-.57,0-.86,.4-1.3,.7-2.83,.65-4.21,.37,1.1,.27,2.15,.29,3.36,.04,2.44,.88,4.62,2.02,6.77,6.41-8.37,10.57-16.75,7.9-26.75,.75,1.13,1.61,2.17,2.65,3.05,.01,.06,.03,.13,.04,.19,1.01,.95,1.9,1.93,2.69,3,4.48-9.91,2.3-21.58-6.33-29.24-.03-.03,.03-.08,.06-.06Z"/><path class="cls-3" d="M39.18,170.46c-.83,1.36-1.48,2.74-1.99,4.15,.07,0,.13,.02,.11,.11-.78,4.67-.45,9.4,.97,13.77,.83-2.8,1.89-5.57,2.75-8.37,.12-.38,.81-.51,.84-.03,.34,5.01,1.46,9.93,3.89,14.47,1.5-6.48,2.93-13.07,7.09-18.72,.09-.12,.31-.24,.5-.25-.76-7.41,.15-14.87,2.05-22.28-6.2,5.28-10.37,11.96-11.62,19.53-.07,.41-.86,.68-.86,.13v-.07c-1.74-4.26-1.27-8.64-.16-13.01,.53-3.86,1.61-7.65,3.3-11.23,.02-.1,.05-.2,.07-.29-4.49,4.91-9.34,9.93-10.64,16.21-.08,.38-.92,.5-.84,.03,1.22-7.16,1.21-14.45,2.54-21.6,1.21-6.49,3.71-12.46,8.15-17.69-4.15,2.52-7.87,5.48-10.93,9.06-.25,.29-.86,.14-.7-.26,3.56-9.3,8.19-17.93,16.04-24.99-4.95,.99-9.55,2.88-13.84,5.26-.37,.21-.79-.06-.56-.43,4.88-7.91,12.35-13.38,20.24-18.83-6.11,.77-11.93,2.67-17.99,3.73-.34,.06-.51-.28-.35-.51,5.24-7.77,16.24-12.16,19.44-21-4.29,1.53-8.71,4.03-13.41,3.02-3.12,1.68-6.53,2.55-10.13,1.86,1.74,1.44,5.44,2.26,7.09,2.44,2.74,.3,5.31,.13,7.84-.59,.53-.22,1.05-.45,1.6-.66,.04-.01,.05,0,.08,0-.19,.23-.38,.46-.61,.68-.09,.09-.18,.17-.27,.26-.55,.2-1.11,.37-1.67,.52-11.75,5.41-19.17,13.55-20.88,25.39,2.46-3.47,7.88-6.44,12.13-6.79,1.51-.96,3.08-1.78,4.71-2.4,.07-.02,.1,0,.11,.04-.05,.06-.09,.13-.14,.19-5.55,3.72-10.31,7.69-13.56,13.22-2.86,4.85-3.94,9.72-4.99,14.97,1.38-1.96,2.66-3.89,4.76-5.42,2.12-1.54,4.52-3.07,7.25-3.62,.25-.05,.4,.03,.45,.15,1.08-.87,2.26-1.69,3.52-2.46-.39,.51-.79,1.02-1.21,1.5-.86,.98-1.66,1.97-2.41,2.99-2.22,1.92-4.31,3.95-5.96,6.58-3.26,5.2-5.08,10.89-5.83,16.79-.38,2.96-.36,5.88-.26,8.86,.04,1.23-.23,2.54-.42,3.4,.19-.83,.49-1.86,.8-2.67,1.66-4.33,4.17-8.11,7.26-11.79,.07-.09,.16-.13,.26-.16-.38,.76-.73,1.53-1.05,2.3-3.83,6.51-5.24,13.43-3.97,20.79,1.13,6.56,3.99,12.33,6.66,18.42,.17-5.26,1.03-10.27,4.51-14.78,.11-.13,.33-.06,.23,.1Z"/><path class="cls-16" d="M165.01,199.66s0,0,0,0c0,0,0,0,.01-.02,.5-.75,.93-1.55,1.33-2.37-.96,.84-1.96,1.61-2.92,2.3-5.35,3.8-11.67,7.07-18.19,9.09-.32,.1-.58-.09-.5-.39,.99-4.05,3.12-8.23,1.51-12.33-3.27,3.58-5.92,7.64-10.44,10.15-.31,.17-.72,.03-.61-.33,2.05-6.9-.73-14.82-7.17-19.25-.26,4.72-.36,9.51-3.91,13.37-.18,.2-.63,.25-.71-.06-1.32-5.35-3.34-11.29-8.2-15-1.3,8.14-2.81,16.3-5.93,24.07-.09,.23-.35,.41-.64,.33-15.77-4.44-17.6-18.9-19.79-31.29-5.83,6.24-7.28,14.5-9.79,22.04-.07,.2-.49,.52-.72,.28-5.34-5.61-8.95-12.32-10.44-19.5-3.82,4.76-4.71,10.92-6.33,16.43-.08,.27-.58,.53-.79,.21-4.27-6.27-6.51-13.25-7.83-20.41-3.87,5.73-5.13,12.35-6.65,18.81-.06,.26-.6,.53-.79,.21-2.52-4.32-3.8-9-4.32-13.79-.85,2.53-1.77,5.05-2.45,7.61,2.37,6.15,7.04,11.45,14.08,14.62-3.62-5.03-2.25-13.6-.03-18.61,.13-.29,.66-.28,.55,.08-3.24,10.29,6.54,18.77,17.14,20.77-6-5.2-5.18-14.55-3.48-21.15,0-.03,.02-.05,.04-.08,.02,.13,.04,.26,.06,.38,.16,.99,.4,2.01,.71,3.03,.82,9.58,8.61,17.13,18.66,20.63-1.83-2.63-2.22-6.85-2.33-9.36-.21-5.03,.37-10.13,2.98-14.68,.05-.08,.14-.13,.24-.16h0c-.13,.93-.07,1.87,.09,2.8-.97,13.39,11.86,22.72,26.27,25.05-2.23-6.52-.51-12.37,4.42-17.73-.28-1.52-.74-2.99-1.43-4.37,.7,.6,1.35,1.22,1.91,1.96,2.11,3.7,1.84,8.56,.03,12.28-.12,.24-1.8,3.08-.99,2.89,1.53-.36,3.04-.75,4.49-1.31,4-1.56,6.98-3.8,10-6.52,.29-2.31,.06-4.57-.83-6.34,.44,.46,.87,.93,1.25,1.43,1.99,4.23-.14,10.72-3.36,14.13,4.63,.06,8.86-.66,13.22-2.21,.17-.06,.27,0,.3,.09,.83-2.24,1.23-4.67,1.3-6.81,0-.03,.07-.05,.07-.01,.16,2.71-.03,5.62-1.11,8.2-.19,.47-1.39,2.75-1.13,2.74,2.47-.15,4.92-.41,7.28-1.12,6.92-2.07,12.53-5.73,15.89-10.8Z"/><path class="cls-16" d="M202.16,158.23c-.16,.27-.66,.42-.81,.05-.34-.9-.7-1.9-1.17-2.85-.78-.99-1.63-1.95-2.55-2.85-.1-.1-.11-.23-.07-.35-.04-.02-.06-.05-.09-.07,.56,7.87,3.31,17-2.73,23.74-.16,.19-.66,.25-.71-.06-.31-1.96-.91-3.72-2.04-5.39-2.37,6.29-3.9,12.78-5.72,19.2-.06,.21-.49,.52-.72,.28-2.75-2.8-4.37-6.34-7.21-9.06-.06,7.91-3.42,17.22-11.79,21.09-.31,.14-.58-.12-.5-.39,.27-.88,.46-1.75,.6-2.62-.49,.84-1.03,1.65-1.64,2.42-.58,1.91-1.62,3.63-3.02,5.27-.64,.75-3.11,2.49-.5,2,2.02-.38,3.96-.96,5.78-1.85,7.79-3.83,12.42-9.93,12.42-17.84,0,0,0,0,0,0,.23,.68,.48,1.35,.77,2,0,.37-.02,.75-.05,1.12,1.27,2.63,3.22,4.99,6.2,6.33,1.01,.46,4.19,2.43,3.4,.42,.1-.12,.14-.28,.07-.47-.26-.71-.43-1.44-.52-2.17,.05-.08,.08-.17,.07-.29-.37-4.42,1.64-8.13,3.32-12.18,.04-.09,.08-.21,.12-.31,.11-.11,.23-.19,.38-.23-.02-.29-.02-.57,0-.86,.4-1.3,.7-2.83,.65-4.21,.37,1.1,.27,2.15,.29,3.36,.04,2.44,.88,4.62,2.02,6.77,6.1-7.96,10.14-15.94,8.23-25.3-.68-1.63-1.5-3.22-2.45-4.73Z"/><path class="cls-16" d="M203.41,138.46c2.1,1.42,3.83,3.1,5.22,4.96,.07-.01,.14,0,.2,.05,1.9,1.47,3.33,3.23,4.79,5-.62-9.05-3.24-17.04-8.45-24.83,1.57,1.19,3.4,2.11,5.06,2.6,.15,.04,.27,.03,.38,0,.56,.33,1.1,.68,1.63,1.06-.54-6.54-4.17-13.17-7.73-19.14,.94,4.22,1.47,8.51,1.5,12.82,0,.28-.45,.61-.74,.38-2.41-1.95-4.38-4.28-6.81-6.19,3.58,7.34,8.4,14.38,9.45,22.44,.04,.26-.28,.69-.64,.52-2.71-1.28-4.82-3.22-7.22-4.87,1.8,5.25,4.36,10.29,5.83,15.62,.69,2.51,1.19,5.07,1.28,7.66,.23,.97,.43,1.93,.6,2.91,.27-.07,.56,.05,.46,.38-.09,.3-.18,.6-.27,.91,.26,1.8,.41,3.62,.41,5.46,.46,.5,.9,1.01,1.3,1.56,4.48-9.91,2.3-21.58-6.33-29.24-.03-.03,.03-.08,.06-.06Z"/><path class="cls-12" d="M75.34,18.6c-2.28-3.32-6.39-5.3-10.71-5.8-2.51,.74-5.03,1.49-7.38,2.47-1.88,.88-3.75,1.79-5.62,2.69-.39,.2-.8,.38-1.19,.57-3.31,5.36-1.89,13.05,4.37,16.27,8.07,4.14,19.68-.56,21.61-8.58,.52-2.13,.23-5.71-1.08-7.61Z"/><path class="cls-12" d="M183.71,18.56c-3.04-1.45-5.76-3.34-8.84-4.78-3.3-1.54-6.93-2.37-10.34-3.68-.94,.32-1.86,.74-2.72,1.28-5.84,3.67-8.23,11.61-3.73,16.87,5.6,6.56,18.39,6.16,23.72-.58,1.42-1.79,2.74-5.18,2.37-7.39-.1-.6-.25-1.17-.46-1.74Z"/><path class="cls-22" d="M153.99,6.37c4.65-3.73,9.62-5.09,14.55-4.84,5.9-.18,13.12,2.21,16.77,6.03,2.86,2.04,4.69,5.22,5.78,8.41,.95,2.8,1.77,6.18,1.43,9.3-5.44-5.48-11.1-9.77-18.91-12.75-7.03-2.68-14.61-4.53-22.3-3.62,.79-.88,1.68-1.73,2.68-2.53Z"/><path class="cls-21" d="M191.08,15.97c-.41-1.2-.92-2.39-1.56-3.53-.42,.53-.95,1.03-1.55,1.47-2.81,2.03-6.46,1.1-9.42-.15-4.95-2.09-9.47-4.39-14.99-5.18-3.86-.56-7.73-.57-11.6-.34-.22,.22-.45,.44-.66,.67,7.68-.91,15.27,.95,22.3,3.62,7.81,2.98,13.48,7.27,18.91,12.75,.34-3.13-.48-6.51-1.43-9.3Z"/><path class="cls-22" d="M41.11,17.82c1.08-3.19,2.92-6.37,5.78-8.41,3.64-3.82,10.87-6.21,16.77-6.03,4.93-.25,9.91,1.11,14.55,4.85,.99,.8,1.88,1.64,2.68,2.52-7.68-.91-15.27,.94-22.3,3.62-7.81,2.98-13.48,7.27-18.91,12.75-.34-3.13,.48-6.51,1.43-9.31Z"/><path class="cls-21" d="M78.2,8.23c-1.58-1.27-3.2-2.26-4.84-3.01-.08,.73-.39,1.47-.95,2.2-1.19,1.55-3.52,2.06-5.45,2.51-3.38,.8-6.69,1.89-9.87,3.17-3.09,1.24-5.93,2.71-8.64,4.53-2.19,1.46-4.66,3.84-7.25,4.75-.53,.18-.97,.26-1.35,.27-.24,1.49-.34,3-.18,4.47,5.44-5.48,11.1-9.77,18.91-12.75,7.03-2.68,14.61-4.53,22.3-3.62-.8-.88-1.69-1.73-2.68-2.52Z"/><path class="cls-20" d="M62.34,15.83c-3.18,.07-6.28,1.3-8.02,3.78-2.68,3.83-1.75,9.62,2.87,12,5.75,2.96,14.04-.4,15.41-6.12,.37-1.52,.17-4.07-.77-5.43-1.95-2.84-5.78-4.31-9.49-4.23Z"/><path class="cls-14" d="M66.1,15.32c-1.99,.05-3.93,.81-5.02,2.37-1.68,2.4-1.1,6.02,1.79,7.51,3.6,1.85,8.78-.25,9.65-3.83,.23-.95,.1-2.55-.48-3.4-1.22-1.78-3.62-2.7-5.94-2.65Z"/><path class="cls-20" d="M170.33,13.14c-2.98,0-5.92,1.06-7.63,3.34-2.63,3.52-1.95,8.97,2.3,11.3,5.29,2.91,13.14-.03,14.62-5.35,.39-1.41,.28-3.8-.55-5.1-1.74-2.71-5.27-4.18-8.75-4.19Z"/><path class="cls-14" d="M178.89,15.83c-1.51-.52-3.25-.48-4.63,.39-2.13,1.33-3,4.23-1.36,6.14,2.04,2.39,6.7,2.25,8.64-.21,.52-.65,1-1.89,.86-2.69-.28-1.68-1.75-3.03-3.51-3.64Z"/><path class="cls-14" d="M174.78,25.42c-.85-.29-1.82-.27-2.6,.22-1.2,.75-1.68,2.37-.76,3.45,1.14,1.34,3.76,1.26,4.85-.12,.29-.37,.56-1.06,.49-1.51-.16-.94-.98-1.7-1.97-2.04Z"/><path class="cls-14" d="M69.95,27.38c-.85-.29-1.82-.27-2.6,.22-1.19,.75-1.68,2.37-.76,3.45,1.15,1.34,3.76,1.26,4.85-.11,.29-.37,.56-1.06,.49-1.51-.16-.94-.98-1.7-1.97-2.04Z"/><path class="cls-2" d="M111.23,81.39c-.13,.05-.26,.14-.37,.26-3.87,.67-7.14,2.62-6.92,6.59,.27,4.76,8.46,5.29,12.29,4.99,4.54-.35,8.82-2.61,8.6-6.97-.29-5.69-8.93-6.48-13.6-4.87Z"/><path class="cls-14" d="M108.51,86.91s-.05,.03-.08,.05c-.79,.14-1.45,.53-1.4,1.34,.06,.96,1.72,1.07,2.49,1.01,.92-.07,1.79-.53,1.74-1.41-.06-1.16-1.81-1.31-2.76-.99Z"/><path class="cls-14" d="M117.44,86.91s-.05,.03-.07,.05c-.79,.14-1.45,.53-1.4,1.34,.06,.96,1.71,1.07,2.49,1.01,.92-.07,1.79-.53,1.74-1.41-.06-1.16-1.81-1.31-2.76-.99Z"/><path d="M124.87,84.69c-1.33-2.67-4.47-3.8-7.64-4.15,.16-.68,.15-1.4,.2-2.1,.09-1.3,.4-2.58,.82-3.82,.23-.69-.79-.88-1.15-.33-.7,1.07-1,2.15-1.1,3.37-.07,.83-.16,1.88,.04,2.79-.69-.04-1.37-.04-2.03-.02-.38,.01-.76,.04-1.14,.08,.64-2.19,.07-4.54-.6-6.69-.19-.6-1.12-.19-1.04,.32,.33,2.15,.89,4.31,.75,6.49-3.58,.55-7.08,2.27-7.93,5.56-1.02,3.95,2.89,6.79,6.83,7.51,.26,.05,.46-.33,.16-.4-3.81-.92-7.51-4.28-5.24-7.85,1.5-2.36,5.25-3,8.01-3.19,2.84-.2,5.96,.16,8.18,1.84,3.85,2.91-.17,6.68-3.15,8.31-.49,.26-.34,1.08,.31,.84,3.67-1.37,7.65-4.65,5.71-8.54Z"/><path class="cls-3" d="M151.35,102.77c-5.07-1.32-10.6-.18-15.6,.81-4.36,.86-8.56,1.22-12.79,1.34-3.53,.54-7.08,.94-10.64,1.14-8.05,.46-16.45,.1-24.07-2.32-.56-.07-1.13-.15-1.69-.22-3.71-.48-8.4-1.19-11.9,.47-6.41,3.05-5.98,10.38-3.19,15.43,3.56,6.44,11.31,10.89,18.26,14.18,7.62,3.6,15.79,5.98,24.47,6.18,6.94,.16,13.91-1.13,20.66-2.39,5.1-.95,10.13-1.8,14.94-3.63,7.83-2.98,12.95-9.47,13.43-16.93,.44-6.76-4.75-12.21-11.89-14.08Z"/><path class="cls-3" d="M96.43,105.35c1.05,.14,2.11,.26,3.17,.35-1.06-.11-2.12-.23-3.17-.35Z"/><g><path d="M159.9,112.06c-3.25-10.5-18.86-7.28-27.5-5.57-5.48,1.09-10.89,2.31-16.49,2.86-7.53,.73-15.08,.05-22.57-.67-4.61-.44-9.49-1.14-14.14-.8-8.06,.59-5.74,9.07-2.8,13.02,5.85,7.86,16.94,11.8,26.95,13.75,15.18,2.96,35.97,3.44,49.07-4.98,6.24-4.01,9.53-11,7.48-17.61Z"/><path class="cls-1" d="M145.57,131.72c-12.56,4.77-28.56,3.93-41.66,1.52-9.23-1.7-17.94-5.2-24.41-11.31-3.77-3.57-9.19-12.89,.65-13.5,4.15-.26,8.57,1.12,12.56,1.85,9.35,1.71,19.07,1.16,28.4-.3,10.47-1.63,20.55-5.21,31.19-3.25,4.61,1.52,6.88,5.64,6.85,10.11-.06,7.13-6.69,12.28-13.57,14.89Z"/><path class="cls-8" d="M152.29,106.73c-10.63-1.96-20.71,1.62-31.19,3.25-9.32,1.45-19.05,2.01-28.4,.3-3.99-.73-8.41-2.11-12.56-1.85-9.83,.61-4.42,9.94-.65,13.5,6.47,6.12,15.18,9.61,24.41,11.31,13.1,2.41,29.1,3.25,41.66-1.52,6.88-2.61,13.51-7.76,13.57-14.89,.04-4.46-2.24-8.58-6.85-10.11Zm-13.37,21.91c-2.13,2.63-6.3,3.74-9.75,4.25-7.32,1.09-15.77,1.15-22.96-.72-2.36-.61-6.05-1.63-6.88-3.98-.91-2.59,1.38-3.35,3.86-2.9,5.76,1.06,12.31,.95,18.15,.42,3.4-.31,7.07-.61,10.35-1.49,2.77-.74,5.42-1.75,8.21-2.44,.23-.06,.4,.03,.5,.16,.09,0,.19,.02,.28,.09,2.17,1.51-.65,5.25-1.75,6.61Zm9.17-19.59c.29,1.56-2.17,3.42-2.98,4.36-1.72,1.99-5.18,2.86-7.79,3.7-4.9,1.58-10.08,2.15-15.24,2.71-8.81,.96-18.09,.49-26.78-1.6-1.68-.41-3.64-.89-4.98-1.94-.77-.6-2.24-1.82-1.54-2.87,.75-1.11,3.06-1.07,4.28-1.01,5.67,.3,11.15,1.75,16.87,1.95,5.87,.21,11.82-.19,17.54-1.35,4.25-.86,8.15-2.31,12.2-3.66,1.51-.5,7.39-2.77,8.33-.54,.04,.08,.06,.17,.08,.25Zm6.41,7.7c-4.32,.43-6.65-7.09-2.51-8.49,.24-.08,.42,.02,.51,.17,3.58,.62,6.79,7.84,2,8.31Z"/><path class="cls-9" d="M157.87,111.38c-.1,1.63-.53,3.28-1.3,4.89-4.11,8.62-13.78,13.61-23.79,15.85-1.22,.34-2.46,.59-3.61,.76-1.27,.19-2.59,.33-3.92,.45-11.46,1.25-23.01-.1-33.36-4.94-4.24-1.98-8.39-4.39-11.37-7.75-2.2-2.48-3.68-6.34-1.85-9.32,2.26-3.69,7.64-1.8,11.84-1.5-3.38-.73-6.96-1.61-10.36-1.4-9.83,.61-4.42,9.94-.65,13.5,6.47,6.12,15.18,9.61,24.41,11.31,13.1,2.41,29.1,3.25,41.66-1.52,6.88-2.61,13.51-7.76,13.57-14.89,.02-1.95-.41-3.82-1.27-5.45Z"/><path d="M152.98,117.63c-2.19-.68-3.55-2.48-4.12-4.57-.24-.42-.34-.86-.25-1.3-.04-.36-.08-.72-.08-1.08-1.42,1.03-1.53,2.26-.91,3.41-10.3,6.66-23.25,8.98-35.86,8.46-6.38-.26-12.73-.71-18.79-2.58-3.42-1.06-11.96-3.64-11.93-7.54,0-.17-.28-.12-.29,.02-.14,3.04,3.82,4.6,6.45,5.76,.97,.43,1.93,.83,2.9,1.23-.72,2.21-.06,4.6,1.4,6.44,.18,.23,.54,.17,.69-.06,.48-.71,.85-1.48,1.29-2.21,.49-.81,1.16-1.52,1.68-2.31,3.98,1.3,8.06,2.25,12.45,2.7,11,1.12,23.51-.04,33.59-4.76,.28,.47,1.32,1.96,1.43,2.15,.65,1.17,.95,2.48,1.24,3.75,.1,.43,.68,.29,.89,.03,1.18-1.45,2.12-3.18,2.46-4.95,.24-1.22,.44-3.05-.59-4.05,.55-.37,1.1-.75,1.63-1.15,1.18,1.32,3.16,2.4,4.84,2.74-.05-.03-.08-.07-.13-.1Z"/><path class="cls-5" d="M91.7,124.96c-1.3-1.38-1.45-3.72-1.27-5.4,1.24,.5,2.48,.97,3.73,1.4-1.16,.97-1.98,2.6-2.46,4Z"/><path class="cls-5" d="M145.92,120.31c-.15,1.24-.64,2.46-1.33,3.57-.51-1.78-1.24-3.65-2.68-4.98,1.26-.62,2.47-1.3,3.64-2.03,.15,1.15,.53,2.2,.37,3.45Z"/></g><path class="cls-5" d="M68.43,38.04c-2.08-.42-4.3,0-6.43-.12-2.43-.13-4.78-.77-6.99-1.63-4.5-1.74-7.1-5.36-8.64-9.3-.26-.65-1.29-.13-1.45,.29-2.15,5.41,.66,10.16,6.06,13.04,4.85,2.58,13.35,3.5,17.95,.15,.97-.71,.78-2.17-.5-2.43Z"/><path class="cls-5" d="M166.35,34.63c-4.69-1.62-8.84-2.6-11.54-6.72-2.85-4.35-.25-9.58-.31-14.17,0-.59-.81-.84-1.25-.36-3.92,4.14-6.68,11.06-4.07,16.32,2.52,5.08,8.95,9.6,15.54,9.03,1.88-.16,4.15-3.22,1.63-4.09Z"/><path class="cls-5" d="M77.94,30.46c-1.4,.85-1.72,2.02-2.42,3.12-.61,.96-1.35,1.3-2.29,2.08-.41,.34-.75,1.21-.17,1.58,1.72,1.1,3.77-.09,5.06-1.18,1.34-1.12,3.02-3.03,2.8-4.73-.16-1.26-1.97-1.49-2.98-.88Z"/><path class="cls-5" d="M176.83,34.47c-1.05,.1-1.84,.51-2.74,.95-.67,.33-1.65,.67-2.41,.49-1.44-.34-2.93,1.87-1.38,2.51,2.61,1.07,6.28,.71,7.95-1.56,.75-1.03,.16-2.54-1.41-2.39Z"/><path class="cls-17" d="M24.32,192.42c-1.96-1.75-3.42-3.06-4.73-5.26-1.44-2.42-1.41-5.36-1.49-8.02-.01-.46-.7-.31-.75,.06-.64,4.96-3.18,14.05,4.21,16.24,1.84,.55,4.43-1.53,2.76-3.03Z"/><path class="cls-17" d="M14.42,190.97c-1.36-2.9-.87-6.05-1.94-9.01-.19-.53-1.02-.18-.94,.29,.53,3.32-.59,6.59,.92,9.81,.51,1.08,2.43-.09,1.96-1.09Z"/><path class="cls-17" d="M9.73,190.9c-1.23-3.56-1.62-6.76-.45-10.38,.23-.7-.75-.84-1.14-.32-2.55,3.39-3.05,8.13-.91,11.77,.68,1.15,2.88,.05,2.5-1.06Z"/><path class="cls-17" d="M219.27,179.32c-.68-.86-2.18,.07-1.74,.97,2.23,4.58-2.28,9.51-4.62,13.21-.55,.87,.1,2.28,1.44,1.73,5.42-2.21,8.37-11.6,4.93-15.91Z"/><path class="cls-17" d="M225.14,182.98c-.16-.48-.91-.35-1.05,.09-.43,1.35-.74,2.75-1.04,4.13-.29,1.35-.94,2.64-.79,4.03,.11,1.09,1.64,.59,2.1,.06,1.83-2.09,1.6-5.91,.78-8.32Z"/><path class="cls-17" d="M229.52,182.8c-.29-.64-1.44-.01-1.3,.55,.35,1.36-.09,2.71,.21,4.05,.24,1.07,1.74,.38,1.9-.37,.29-1.37-.22-2.96-.8-4.24Z"/><path class="cls-7" d="M47.82,229.13c-.74,.05-1.45-.06-2.2,.02-.84,.1-1.56,.38-2.3,.73-1.45,.7-2.9,2.04-2.95,3.55-.04,1.27,1.58,1.1,2.23,.33,.69-.81,1.07-1.7,1.94-2.4,.84-.67,2.21-1.51,3.3-1.8,.25-.07,.31-.46-.01-.44Z"/><path class="cls-7" d="M51.66,231.91c-1.12,.02-2.11,.55-2.9,1.22-.82,.7-1.89,1.78-1.98,2.82-.09,1.04,1.37,1.29,2.06,.6,.64-.64,.89-1.49,1.4-2.21,.46-.65,1.04-1.25,1.65-1.81,.25-.23,.18-.62-.23-.61Z"/><path class="cls-7" d="M66.8,231.27c-3.59-.85-8.49,.24-10.27,3.38-.64,1.14,.5,2.67,1.93,1.69,1.34-.92,2.36-2.05,3.94-2.67,1.51-.59,3.02-.91,4.42-1.69,.31-.17,.38-.61-.03-.7Z"/><path class="cls-7" d="M172.5,232.56c-1.37-1.6-4.58-1.99-6.73-1.79-.74,.07-1.71,1.1-.93,1.67,.79,.58,1.7,.85,2.66,1.13,1.17,.34,2.23,.86,3.4,1.19,1.38,.39,2.34-1.34,1.6-2.21Z"/><path class="cls-7" d="M182.23,233.02c-.66-.5-1.4-.81-2.15-1.19-.83-.42-1.65-.86-2.48-1.27-.77-.38-1.71,.66-1.13,1.23,1.29,1.27,2.75,2.84,4.84,2.87,.79,.01,1.61-1.11,.92-1.64Z"/><path class="cls-7" d="M190.75,230.75c-.41-.35-.82-.7-1.27-1.02-1.04-.74-2.15-.94-3.43-.63-.56,.14-1.06,1.07-.34,1.33,.79,.29,1.37,.9,1.88,1.48,.23,.26,.43,.56,.64,.83,.42,.54,.84,.75,1.57,.82,.95,.1,1.75-.65,1.66-1.46-.06-.58-.24-.95-.72-1.36Z"/></g></g></g></g></svg>