<?xml version="1.0" encoding="UTF-8"?><svg xmlns="http://www.w3.org/2000/svg" viewBox="0 0 272.45 162.74"><defs><style>.cls-1,.cls-2,.cls-3{fill:#fff;}.cls-4{fill:#fadb7c;}.cls-5{fill:#83c0c3;}.cls-6{fill:#c0da7d;}.cls-7,.cls-8,.cls-9{fill:#c6dd7d;}.cls-10{fill:#db4a30;}.cls-11{fill:#dfdcbf;}.cls-12{fill:#221f1f;}.cls-13,.cls-14,.cls-15{fill:#769f58;}.cls-16{fill:#7c5421;}.cls-16,.cls-17,.cls-8,.cls-14,.cls-18,.cls-9,.cls-15{mix-blend-mode:multiply;}.cls-17{fill:#e0e897;}.cls-14{opacity:.3;}.cls-18{fill:#0299c2;opacity:.4;}.cls-9{opacity:.6;}.cls-15{opacity:.8;}.cls-19{isolation:isolate;}.cls-2{mix-blend-mode:overlay;opacity:.2;}.cls-3{opacity:.7;}</style></defs><g class="cls-19"><g id="Layer_2"><g id="_4"><g><path class="cls-13" d="M268.09,131.99c-2.92,2.11-6.4,3.27-9.98,3.56,3.49,1.03,7.11,.96,10.47-1.07,.24-.3,.47-.6,.69-.92,.85-1.26,1.33-2.65,1.43-4.03-.76,.92-1.64,1.75-2.62,2.46Z"/><g><path class="cls-12" d="M95.85,18.43c-.03-.25-.07-.51-.11-.76l.11,.76Z"/><path class="cls-12" d="M96.03,19.98c-.03-.25-.05-.5-.08-.74l.08,.74Z"/><path d="M260.35,119.98c-2.99-.35-7.73-.05-9.36-3.1-1.63-3.04,.47-7.95,1.28-10.96,1.63-6.06,1.01-12.62-1.89-18.21-6.55-12.59-23.22-11.01-34.06-5.68-7.22,3.55-13.51,8.54-19.57,13.77-1.2,1.03-2.35,2.12-3.62,3.08-3.03,2.3-4.93-.63-6.08-2.88-1.51-2.95-2.91-5.7-4.96-8.36-3.95-5.13-9.38-8.63-16.01-7.16-4.88,1.08-9,4.64-12.45,8.06-4.13,4.11-7.77,8.68-12.19,12.5-6.21,5.37-12.81,5.74-20.09,2.35,1.54-.71,2.76-1.68,3.38-2.99,1.47-3.1,3.4-8-.18-10.24-.53-.26-1.19-.51-1.78-.58,.77,1.65,.57,3.37-.82,4.52-1.01,1.15-2.78,1.71-5.27,.95-2.76-.83-2.88-3.52-2.63-5.47,.39-3.06,2.07-6.17,3.21-9.08,.88-2.23,1.63-4.97,1.64-7.64,.34,1.04,.52,2.08,.33,3.3-.04,.29,.41,.19,.51,.01,3.61-6.15,4.97-12.89,4.46-19.67-.19-2.49-.69-5.58-1.81-8.45,.06-.03,.1-.08,.11-.15,.84-7.2-1.26-14.13-6.71-19.9-2.69-2.85-6.26-5.28-10.17-6.95-1.65-.71-3.9-1.34-6.12-1.6-.55-6.31-3.66-12.32-8.3-17.05-.05-.05-.13,.01-.08,.07,3.29,4.01,6.13,8.37,7.09,13.56,.17,.93,.28,1.82,.34,2.7-.41-.21-.82-.39-1.24-.56-.1-.42-.2-.83-.32-1.24-1.03-3.68-2.82-7.37-5.29-10.37h0c-3.64-4.44-8.76-7.35-15.08-6.4-10.57,1.59-12.15,10.92-11.45,19.81-.11-.48-.21-.96-.3-1.41-.01-.06-.04-.11-.07-.16-.71-3.25-1.24-6.52-1.01-9.78,0,0,0-.01-.01,0-.58,2.97-.34,5.94,.03,8.93,.03,.24,.06,.48,.09,.73-.03,.07-.05,.15-.04,.26,.07,.48,.15,.95,.24,1.44,.05,.4,.11,.79,.17,1.19-1.23,1.08-2.23,2.32-2.9,3.72-.55-1.6-1.96-2.99-3.59-4.11,0-1.11-.07-2.21-.29-3.31,0,0,0,0,0,0,.07,1.03,.06,2.06-.02,3.1-.46-.3-.94-.58-1.42-.84-.89-4.72-3.5-8.58-9.53-9.49-5.41-.81-9.78,1.68-12.9,5.47h0c-2.11,2.57-3.64,5.73-4.52,8.87-.01,.04-.02,.09-.03,.13-.41,.19-.82,.39-1.22,.6,.06-.49,.12-.99,.22-1.5,.82-4.44,3.25-8.17,6.07-11.6,.04-.05-.03-.1-.07-.06-3.71,3.79-6.29,8.55-6.98,13.57-2.36,1.34-4.49,3.01-6.25,4.81-2.94,3-4.11,6.28-6.2,9.64-.2,.32,.21,.54,.53,.31,1.82-1.35,3.72-2.01,5.88-2.61-8.41,5.33-11.37,15.55-9.81,23.9,1.38,7.37,7.27,13.55,8.17,21.06,.6,4.99-4.26,10.67-11.03,8.11-2.15-.81-3.5-2.84-4.35-4.54-1.06-2.1-.63-4.17,.61-5.95,.33-.34,.68-.67,1.06-.99,.03-.06,.06-.12,.1-.18,.23-.39,.5-.74,.78-1.06-.38,.3-.74,.59-1.06,.9-7.91,5.39-7.32,16.41,1.79,21.16,4.43,2.31,9.49,2.94,14.44,2.01,0,.06,0,.12,.02,.18,.92,2.79-.22,5.82-.55,8.61-.24,2-.19,4.02-.05,6.03,.32,4.66,2.21,9.09,4.83,12.9,1.93,2.81,4.16,5.28,6.64,7.46-2.22,.88-4.55,2.29-5.43,4.62-.78,2.07-.23,3.58,1.75,4.16-2.1,3.44,.31,6.12,4.06,6.06-.81,1.31-.18,3.07,1.14,3.83,2.5,1.44,5.7,1.37,8.49,1.14,7.14-.56,14.86-2.65,20.63-7.02,.09-.07,.18-.16,.28-.23,4.12,.39,8.27,.3,12.26-.38,.19,.92,.85,1.59,2.02,1.94-2.1,3.44,.31,6.11,4.06,6.06-.81,1.31-.18,3.07,1.14,3.83,2.5,1.44,5.7,1.36,8.49,1.15,7.14-.56,14.86-2.65,20.63-7.03,2.59-1.96,5.14-5.26,4.92-8.65-.03-.41-.13-.77-.28-1.08-.61-2.06-3.04-2.67-5.27-2.72-.02-.04-.03-.08-.06-.12-1.23-1.53-1.6-3.39-2-5.26-.22-1.01-.44-2.01-.63-3.02,2.82,.23,5.65,1.11,8.34,2.23,8.87,3.7,16.45,9.86,25.16,13.88,8.43,3.9,17.57,5.64,26.6,2.87,6.82-2.09,12.51-7.2,17.72-11.85,.74-.66,1.5-1.36,2.26-2.08,.14,2.05,2.13,3.42,4.82,3.38-.81,1.31-.18,3.07,1.14,3.83,2.5,1.44,5.7,1.36,8.49,1.14,7.14-.56,14.86-2.65,20.63-7.02,2.59-1.96,5.14-5.26,4.92-8.65-.03-.41-.13-.76-.28-1.08-.61-2.06-3.04-2.67-5.27-2.72-.02-.04-.03-.08-.06-.12-1.23-1.53-1.6-3.39-2-5.26-.12-.56-.24-1.13-.36-1.69,.66,.07,1.32,.17,1.99,.31,8.27,1.78,13.41,9.58,19.56,14.69,5.39,4.48,11.93,6.57,18.72,4.26,5.13-1.75,11.16-6.09,11.26-12.03,.11-6.51-7.04-8.25-12.1-8.85Z"/><path class="cls-11" d="M66.37,11.12c.34-1.77,.94-3.44,2.02-4.7,.31-.47,.66-.91,1.04-1.33,.02-.03,.04-.06,.05-.08,.03-.05,.08-.09,.12-.12,1.55-1.64,3.66-2.84,6.49-3.37,6.22-1.16,11.33,1.17,14.96,5.24-.04,.02-.08,.04-.12,.06l.23,.35c.05-.03,.11-.06,.17-.09,.73-.47,4.21,7.4,4.47,8.19,2.4,7.34,2.33,18.54-4.22,23.92-1.64,1.34-3.96,2.45-6.04,2.89-4.11,.87-7.56-.37-10.4-2.76-.17-.17-.34-.34-.5-.51-.06-.07-.13-.1-.2-.11-5.57-5.24-8.97-13.45-8.87-21.08,.03-2.18,.38-4.35,.79-6.49Z"/><path class="cls-9" d="M27.78,26.14c.36-.19,.72-.38,1.09-.56-.5,2.11-.75,4.36-.67,6.58-.38-1.99-.56-3.95-.42-6.03Z"/><path class="cls-7" d="M9.71,100.18c-9.1-3.61-10.78-12.8-5.73-18.97-.55,1.14-.75,2.41-.64,3.89,.2,2.67,2.02,6.04,5.46,6.87,3.17,.77,6.72,.12,8.84-2.05,2.71-2.76,2.93-5.85,2.33-9.23-.73-4.06-3.03-7.87-4.84-11.66-1.67-3.49-2.75-6.94-3-10.57-.59-2.26-.33-4.74,.1-6.95,.49-2.53,1.72-5.06,3.44-7.21,.56-.69,1.16-1.35,1.79-1.99,2.6-3.03,6.09-5.52,10.43-7.12,.11-.04,.11-.19-.03-.16-1.95,.47-3.72,1.16-5.33,2-.02,0-.04,0-.07,0-2.19,.21-6.01,1.2-6.73,2.51,2.04-3.7,3.55-7.02,7.06-10.03,1.27-1.09,2.69-2.06,4.2-2.92-.32,3.31,.19,6.71,1.74,10.01,.02,.04,.05,.07,.08,.09,1.28,5.15,4.57,9.45,10.58,10.45,1.06,.18,2.09,.15,3.09-.02-4.4,1.92-9.97,2.26-14.06-.45-.08-.05-.23,.09-.15,.16,3.84,3.25,10.69,3.11,15.14,.58-3.49,2.43-7.65,4.29-11.46,4.42-.17,0-.34,.34-.11,.36,2.87,.34,5.65-.99,8.16-2.25,2.78-1.4,5.78-3.14,7.93-5.48,.7-.58,1.36-1.23,1.95-1.92,2.26-2.64,4.27-6.12,5.68-9.71,.09-.04,.17-.11,.22-.19,.87-1.7,1.21-3.58,1.45-5.46,.08-.41,.15-.83,.21-1.23,.01-.1,0-.17-.03-.23,.02-.21,.05-.42,.07-.62,.15-1.19,.27-2.37,.31-3.56,1.53,1.06,2.8,2.37,3.34,3.91,0,.01-.01,.02-.01,.03-.02,.06,.01,.1,.06,.11,.17,.54,.26,1.09,.25,1.68,0,.07,.1,.04,.11,0,.15-.68,.12-1.33-.03-1.95,.83-1.21,1.81-2.34,2.92-3.37,.28,1.53,.68,3.03,1.39,4.43,.05,.1,.15,.17,.25,.22,1.64,4.2,3.99,8.27,6.64,11.35,.69,.81,1.46,1.56,2.28,2.24,2.51,2.74,6.02,4.77,9.28,6.41,2.93,1.48,6.18,3.03,9.54,2.64,.27-.03,.08-.42-.13-.43-4.45-.16-9.31-2.33-13.4-5.17,5.21,2.95,13.22,3.12,17.71-.68,.1-.08-.07-.25-.17-.19-4.78,3.16-11.29,2.77-16.44,.52,1.16,.2,2.37,.23,3.61,.02,7.02-1.17,10.88-6.2,12.37-12.22,.04-.02,.07-.06,.09-.11,1.68-3.59,2.31-7.28,2.09-10.88,1.98,.23,3.9,.77,5.68,1.48,3.54,1.42,6.58,3.96,9.13,6.36,5.61,5.26,8.18,12.51,7.73,19.4-1.18-2.72-2.95-5.19-5.6-6.66-.02-.01-.05,.02-.03,.03,6.82,4.47,7.01,14.01,6.73,20.42-.17,3.91-1.2,7.7-2.42,11.47-.21,.6-.44,1.2-.7,1.79-.05,.13-.09,.24-.13,.33,.04-.17,.06-.36,.07-.57,.03-1.24-.58-2.5-1.3-3.58-.34-1.83-1.16-3.53-2.68-4.89,.03,.05,.06,.1,.09,.15,.21,.4,.39,.81,.54,1.22,.68,1.07,1.13,2.21,1.38,3.38-.03,.05-.04,.11-.01,.17s.05,.11,.07,.17c.7,3.85-.61,8.04-2.32,11.6-1.46,3.04-4.31,7.33-2.94,10.69,2.45,6.02,12.88,2.88,11.42-2.32,1.54,1.12,1.92,2.92,1.72,4.75-.32,3.02-2.32,6.2-5.76,7.41-5.83,2.04-12.66,1.38-18.38-.47-10.85-3.5-18.45-12.45-18.87-21.77-.02-.23-.06-.46-.07-.7-.08-1.31,.04-2.58,.19-3.86,.01-.16,.02-.32,.03-.48-.13,.02-.27,.09-.31,.19-.38,.94-.65,1.87-.84,2.81-.07,.02-.13,.04-.16,.09-1.65,2.49-2.31,5.81-1.6,8.68-2.71-3.63-4.94-7.13-5.81-11.44-1.01-4.99,.28-9.79,1.98-14.56-.43,.68-.99,1.32-1.58,1.94-.02,.05-.05,.1-.07,.15-.01,0-.03-.01-.05-.02-.92,.95-1.91,1.87-2.71,2.87-.66,1.09-1.2,2.22-1.49,3.41-.02,.07-.07,.12-.13,.16-.24,.85-.4,1.69-.46,2.51-.32-1.08-.77-2.09-1.25-3.15-1.16-2.55-1.59-5.11-1.65-7.81-.07-3.23,.54-6.26,1.91-9.15,.28-1.23,.96-2.4,1.82-3.47-.01,0-.02,0-.03,.01-1.12,.94-2.02,1.99-2.73,3.14-.08,.01-.17,.05-.25,.13-2.4,2.24-4.02,4.8-4.49,7.64-2.19-6.55-1.81-13.39,3.15-19.14,.07-.08-.06-.14-.14-.08-4.7,3.72-5.61,9.75-4.8,15.26-.44,3.77-1.3,7.4-4.29,10.52-.09-4.06-1.36-8.11-3.74-11.74-.02-.03-.08,0-.07,.03,5.01,8.04,4.26,18.56-2.53,25.88-.23-2.47-.67-4.66-2.92-6.57,0,0-.01,0-.02-.01-.06-.24-.15-.47-.22-.7-.29-.31-.57-.63-.82-.97,2.92,7.52-1.6,16.38-7.48,22.23-1.43,1.43-3.21,2.61-5.09,3.62-3.59,1.92-1.09-.47-.46-1.8,.1-.22,.19-.45,.28-.67,0-.02,0-.04,0-.06,.27-.75,.44-1.49,.52-2.22v-.06c.16-1.63-.18-3.2-1.04-4.7,.18,.79,.31,1.56,.35,2.32-.03,.02-.05,.05-.07,.09-2.16,3.92-4.12,7.61-9.17,9.59-4.73,1.85-10.36,1.42-14.96-.41Z"/><path class="cls-9" d="M124.27,90.74c1.46,5.21-8.97,8.34-11.42,2.32-1.37-3.37,1.48-7.66,2.94-10.69,1.71-3.56,3.02-7.74,2.32-11.6-.02-.06-.05-.11-.07-.17s-.02-.12,.01-.17c-.25-1.17-.7-2.3-1.38-3.38-.15-.41-.33-.82-.54-1.22-.03-.05-.06-.1-.09-.15,1.52,1.36,2.34,3.06,2.68,4.89,.72,1.08,1.33,2.34,1.3,3.58,0,.21-.03,.4-.07,.57,.04-.1,.08-.2,.13-.33,.25-.59,.49-1.19,.7-1.79,1.22-3.77,2.25-7.56,2.42-11.47,.28-6.41,.09-15.95-6.73-20.42-.02-.01,.01-.04,.03-.03,2.65,1.48,4.42,3.94,5.6,6.66,.45-6.89-2.12-14.14-7.73-19.4-2.56-2.4-5.59-4.94-9.13-6.36-1.79-.72-3.7-1.25-5.68-1.48,.21,3.61-.42,7.3-2.09,10.88-.02,.05-.05,.08-.09,.11-1.49,6.02-5.35,11.05-12.37,12.22-1.2,.2-2.38,.18-3.51-.01,0,.01,.02,.02,.02,.04,5.13,2.2,11.58,2.56,16.32-.57,.1-.06,.27,.11,.17,.19-3.92,3.32-10.52,3.61-15.6,1.67,.18,.23,.36,.47,.54,.69,3.45,1.98,7.22,3.37,10.75,3.49,.2,0,.4,.39,.13,.43-3.36,.4-6.61-1.16-9.54-2.64-.12-.06-.24-.13-.36-.18,1.31,1.37,2.83,2.51,4.55,3.23,3.83,1.61,10.1,.76,11.96-3.53-1.87,.58-3.67,1.29-5.68,1.07-.34-.04-.24-.52,.02-.61,1.42-.48,2.81-1.25,3.91-2.27,.74-.69,1.57-1.54,1.85-2.55,.26-.93,.32-2.69-1.19-1.97-2.35,1.13-4.56,2.93-7.29,2.15-.21-.06-.17-.37-.05-.49,2.15-2.09,4.23-4.34,5.68-6.98,1.47-2.68,2.34-5.56,2.95-8.55,.04-.21,.27-.33,.46-.28,2.57,.75,5.08,2.06,7.27,3.6,1.8,1.26,4.08,2.98,4.21,5.37,.01,.23-.26,.44-.48,.36-1.3-.47-2.54-1.18-3.89-1.53-.59-.15-3.38-.62-2.34,.7,.55,.69,1.11,1.37,1.72,2.01,1.95,2.1,4.18,4.13,5.51,6.71,2.28,4.41,3.78,10.89,1.71,15.62-.08,.19-.42,.32-.54,.1-1.65-3.12-2.12-9.41-6.25-10.25,1.04,3.82,4.21,7.34,2.82,11.47-.09,.25-.5,.45-.61,.11-.83-2.64-1.78-5.45-3.93-7.26,.86,2.48,1.99,4.85,2.76,7.36,.79,2.59,1.05,5.18,.91,7.88-.23,4.61-1.07,9.67-4.1,13.34-.12,.15-.49,.22-.52-.05-.42-3.96,.48-8.09-1.15-11.83-3.16,5.62-2.25,12.78-3.11,18.96-.03,.25-.39,.56-.59,.26-1.19-1.8-2.02-3.78-2.61-5.85,.02,4.65,.93,9.2,3.69,13.11,.16,.23-.19,.65-.44,.51-6.18-3.51-11.59-8.63-13.61-15.64-1.92-6.65-.92-13.61,1.12-20.11-1.78,1.78-3.31,3.86-4.68,5.94-1.05,1.58-2.81,3.77-2.92,5.75,0,.02-.01,.04-.02,.06,0,.01,0,.02,0,.03,.12,.34-.48,.66-.61,.27-2.53-7.39,.28-14.54,1.97-21.76-4.33,1.85-7.9,4.91-11.21,8.21-.18,.18-.52,.19-.53-.13-.14-4.97,.82-10.34,4.33-14.05-3.2-.11-6.4,.88-8.69,3.2-.2,.21-.62,.15-.51-.21,.76-2.65,2.01-4.94,3.87-6.77-.04-.15,.02-.37,.19-.47,.3-.17,.61-.34,.91-.5,.46-.36,.93-.71,1.45-1.02,.17-.11,.32-.05,.4,.05,.28-.14,.57-.29,.86-.43-.25-.26-.51-.52-.74-.8-2.65-3.08-4.99-7.15-6.64-11.35-.11-.05-.21-.12-.25-.22-.71-1.4-1.12-2.9-1.39-4.43-1.11,1.03-2.09,2.16-2.92,3.37,.15,.62,.17,1.27,.03,1.95,0,.05-.11,.08-.11,0,.02-.58-.07-1.14-.25-1.68-.05-.01-.09-.05-.06-.11,0-.01,.01-.02,.01-.03-.55-1.54-1.81-2.85-3.34-3.91-.04,1.19-.16,2.37-.31,3.56-.02,.21-.05,.42-.07,.62,.03,.06,.05,.13,.03,.23-.06,.41-.13,.82-.21,1.23-.24,1.89-.58,3.76-1.45,5.46-.04,.08-.13,.15-.22,.19-1.4,3.59-3.41,7.07-5.68,9.71-.59,.69-1.25,1.33-1.95,1.92-2.15,2.34-5.15,4.08-7.93,5.48-2.51,1.26-5.29,2.59-8.16,2.25-.23-.03-.07-.36,.11-.36,3.81-.13,7.97-1.99,11.46-4.42-4.46,2.53-11.31,2.67-15.14-.58-.08-.07,.06-.21,.15-.16,4.09,2.71,9.66,2.37,14.06,.45-1,.17-2.03,.2-3.09,.02-6.01-1-9.31-5.3-10.58-10.45-.03-.02-.06-.05-.08-.09-1.54-3.3-2.05-6.7-1.74-10.01-1.51,.86-2.93,1.83-4.2,2.92-3.51,3.02-5.02,6.34-7.06,10.03,.72-1.31,4.54-2.3,6.73-2.51,.03,0,.05,0,.07,0,1.6-.84,3.37-1.53,5.33-2,.15-.03,.14,.12,.03,.16-4.34,1.6-7.83,4.1-10.43,7.12-.64,.64-1.24,1.3-1.79,1.99-1.72,2.15-2.95,4.68-3.44,7.21-.43,2.21-.69,4.7-.1,6.95,.25,3.64,1.33,7.09,3,10.57,1.81,3.78,4.11,7.6,4.84,11.66,.61,3.38,.38,6.47-2.33,9.23-2.12,2.16-5.67,2.82-8.84,2.05-3.43-.84-5.26-4.2-5.46-6.87-.11-1.48,.09-2.75,.64-3.89-5.05,6.17-3.36,15.36,5.73,18.97,4.59,1.83,10.23,2.26,14.96,.41,5.05-1.98,7.01-5.66,9.17-9.59,.02-.03,.04-.06,.07-.09-.04-.76-.16-1.54-.35-2.32,.87,1.5,1.21,3.07,1.05,4.7v.06c-.08,.73-.25,1.47-.52,2.22,0,.02,0,.04,0,.06-.09,.23-.17,.45-.28,.67-.64,1.32-3.13,3.72,.46,1.8,1.88-1.01,3.66-2.2,5.09-3.62,5.89-5.85,10.41-14.71,7.48-22.23,.25,.33,.53,.66,.82,.97,.08,.23,.16,.47,.22,.7,0,0,.01,0,.02,.01,2.24,1.91,2.68,4.1,2.92,6.57,6.79-7.32,7.54-17.84,2.53-25.88-.02-.03,.04-.07,.07-.03,2.38,3.63,3.65,7.68,3.74,11.74,2.99-3.12,3.85-6.75,4.29-10.52-.8-5.5,.1-11.54,4.8-15.26,.08-.06,.2,0,.14,.08-4.96,5.74-5.34,12.58-3.15,19.14,.47-2.84,2.09-5.4,4.49-7.64,.08-.08,.17-.11,.25-.13,.71-1.15,1.61-2.2,2.73-3.14,0,0,.02,0,.03-.01-.86,1.08-1.54,2.24-1.82,3.47-1.37,2.89-1.98,5.91-1.91,9.15,.06,2.7,.49,5.27,1.65,7.81,.48,1.06,.93,2.07,1.25,3.15,.07-.81,.22-1.66,.46-2.51,.06-.04,.11-.09,.13-.16,.29-1.2,.83-2.33,1.49-3.41,.81-1,1.79-1.92,2.71-2.87,.02,0,.03,.01,.05,.02,.02-.05,.05-.1,.07-.15,.6-.62,1.15-1.26,1.58-1.94-1.7,4.76-2.99,9.57-1.98,14.56,.87,4.3,3.1,7.81,5.81,11.44-.71-2.88-.05-6.2,1.6-8.68,.03-.05,.09-.08,.16-.09,.18-.93,.45-1.87,.84-2.81,.04-.1,.18-.17,.31-.19-.01,.16-.02,.32-.03,.48-.15,1.28-.27,2.55-.19,3.86,.01,.23,.05,.47,.07,.7,.41,9.32,8.02,18.27,18.87,21.77,5.72,1.85,12.55,2.51,18.38,.47,3.44-1.21,5.44-4.39,5.76-7.41,.2-1.83-.19-3.64-1.72-4.75Zm-75.54-22.33c-.1,.2-.4,.31-.54,.1-2.12-3.16-3.85-6.52-6.58-9,2.75,8.12,2.17,18.05-3.91,24.32-.17,.18-.53,.19-.53-.13,.09-3.66-.8-8.5-2.98-12.1,.24,4.76-.83,9.49-3.59,13.57-2.43,3.58-6.22,8.39-10.99,8.39-.17,0-.26-.2-.21-.35,.94-2.6,2.57-5.01,3.17-7.72,.76-3.41-.03-6.84-1.26-10.05-1.93-5.02-4.27-9.7-4.49-15.18-.33-8.3,2.78-17.36,10.6-21.16,.03-.3,.47-.54,.58-.28,.06-.03,.12-.06,.18-.08,.42-.18,.49,.43,.14,.58-.07,.03-.13,.07-.2,.1,.58,2.86,3.22,4.8,5.42,6.5,.26,.2-.06,.61-.32,.58-2.57-.27-4.49-1.83-6.71-2.98-.48,2.28,1.33,4.18,2.84,5.71,.22,.22-.03,.62-.32,.58-1.02-.11-1.9-.59-2.82-1,.71,3.97,5.4,7.17,9.37,6.64,4.24-.57,6.75-3.7,9.35-6.72-.02-.02-.03-.05-.05-.08-.2-.28,.27-.67,.51-.45,.08-.09,.17-.19,.25-.29,.29-.33,.72,.04,.43,.37-.11,.13-.23,.26-.34,.39,3.81,5.68,6.24,13.28,3.01,19.75Zm9.29-13.24c-.03,.3-.49,.57-.62,.19-1.61-4.92-1.58-10.45-.12-15.4,.64-2.16,1.47-4.53,2.83-6.36,.55-.74,1.28-1.33,1.94-1.96,.5-.48,1.78-1.39,1.79-2.16,0-.37,.63-.55,.63-.11,0,.12-.02,.25-.06,.37,.03,.04,.05,.09,.06,.16,.2,2.37,.7,4.62,2.36,6.42,.15,.16,.08,.39-.08,.51-5.91,4.54-8.03,11.18-8.72,18.35Z"/><path class="cls-5" d="M30.68,139.94c.81-.71,1.83-1.25,2.87-1.69,1.51,1.25,3.11,2.39,4.78,3.43-3.28,.08-6.75,1.27-8.67,3.57-.07,.09-.13,.18-.2,.27-2.99-1.59,.13-4.63,1.21-5.59Z"/><path class="cls-5" d="M57,152.99c-3.87,1.78-8.24,2.51-12.44,3.05-2.57,.32-14.04,.47-9.03-4.46,2.25-2.22,7.07-4.57,10.31-3.91,.07,.02,.13-.08,.05-.11-3.42-1.55-9.53,1.35-12.19,3.95-2.19-.14-4.69-1.17-3.95-3.75,.46-1.62,2.02-2.8,3.33-3.72,1.69-1.19,3.77-1.85,5.86-1.98,1.5,.9,3.06,1.73,4.68,2.49,5.68,2.65,12.15,4.59,18.7,5.35-1.61,1.27-3.48,2.25-5.31,3.1Z"/><path class="cls-5" d="M110.07,143.19c-.38,.03-.73,.07-1.05,.13-.34,.05-.77,.66-.3,.86,1.12,.48,2.41,.38,3.6,.51,1.2,.13,1.92,.62,2.67,1.24,.79,.86,1.14,2.09,.65,3.59-.54,1.62-1.66,3.03-2.81,4.26-1.9,2.02-4.45,3.41-6.94,4.56-3.87,1.78-8.24,2.51-12.44,3.04-2.57,.32-14.04,.47-9.03-4.45,2.25-2.22,7.07-4.57,10.31-3.91,.07,.01,.13-.08,.05-.11-3.41-1.55-9.53,1.35-12.19,3.95-2.19-.14-4.69-1.17-3.95-3.76,.46-1.62,2.02-2.8,3.33-3.72,2.78-1.97,6.62-2.52,9.85-1.55,.03,0,.06-.03,.02-.05-4-1.61-10.39-.63-13.28,2.83-.08,.09-.13,.18-.2,.27-2.99-1.59,.13-4.63,1.21-5.59,1.3-1.16,3.16-1.88,4.8-2.37,2.67-.81,5.5-.56,8.23-.26,2.15,.24,5.3,1.3,8,1.28,.11,.11,.27,.09,.4,0,.38-.02,.75-.06,1.1-.13-.07-.12-.14-.25-.21-.37-.23,.02-.47,.04-.71,.04,0,0,0,0,0-.01-1.25-3.52-1.93-7.19-1.5-10.92,2.29-1.96,5.6-3.15,8.39-2.42-.34,2.7-.02,5.3,.44,8,.27,1.6,.49,3.73,1.59,5.08Z"/><path class="cls-5" d="M221.9,128.71c-.38,.03-.73,.07-1.05,.13-.34,.05-.77,.65-.3,.86,1.12,.48,2.41,.38,3.6,.51,1.2,.13,1.92,.62,2.67,1.24,.79,.86,1.14,2.09,.65,3.59-.54,1.63-1.66,3.03-2.81,4.26-1.9,2.02-4.45,3.41-6.94,4.56-3.87,1.78-8.24,2.52-12.44,3.05-2.57,.33-14.04,.47-9.03-4.45,2.25-2.22,7.07-4.57,10.31-3.91,.07,.01,.13-.08,.05-.11-3.41-1.55-9.53,1.35-12.19,3.95-2.19-.14-4.69-1.17-3.95-3.75,.46-1.63,2.02-2.8,3.33-3.72,2.78-1.97,6.62-2.52,9.84-1.55,.03,0,.06-.04,.02-.05-4-1.61-10.39-.63-13.28,2.83-.07,.09-.13,.18-.2,.26-2.99-1.59,.13-4.64,1.21-5.59,1.3-1.15,3.16-1.88,4.8-2.37,2.67-.81,5.5-.56,8.23-.26,2.15,.24,5.3,1.3,8,1.28,.11,.12,.27,.09,.4,0,.38-.02,.75-.06,1.1-.13-.07-.12-.14-.25-.21-.38-.23,.02-.47,.04-.71,.04,0,0,0,0,0-.01-1.25-3.52-1.94-7.19-1.5-10.92,2.29-1.96,5.6-3.15,8.39-2.42-.34,2.7-.02,5.3,.44,8,.27,1.6,.5,3.73,1.59,5.08Z"/><path class="cls-4" d="M245.97,136.92c-6.81-4.43-11.13-11.76-18.56-15.38-2.29-1.11-4.57-1.66-6.84-1.78-.23-1.34-.39-2.69-.36-4.06,.57,.18,1.12,.45,1.62,.81,.6,.43,1.56-.53,.97-.97-4.57-3.42-11.62-.42-13.53,4.65-.07,.18,.18,.22,.26,.09,.39-.65,.9-1.27,1.5-1.83-.49,3.48-.31,7.3,1.13,10.52-3.01-.15-6.55-1.37-9-1.69-3.05-.4-6.35-.22-9.27,.84-2.37,.86-5.04,2.31-5.98,4.83-.78,2.07-.23,3.58,1.75,4.16-.08,.13-.14,.27-.21,.4-3.64,3.34-7.27,6.69-11.23,9.65-9.11,6.8-19.62,7.51-30.15,3.86-13.05-4.51-23.61-15.63-37.56-17.47-.65-.09-1.28-.12-1.9-.13-.16-1.07-.25-2.14-.23-3.23,.57,.18,1.12,.45,1.62,.81,.6,.43,1.56-.53,.97-.97-4.57-3.42-11.62-.42-13.53,4.65-.07,.18,.18,.22,.26,.09,.39-.65,.9-1.26,1.5-1.83-.49,3.48-.31,7.3,1.13,10.52-3.01-.15-6.55-1.36-9-1.69-3.05-.4-6.35-.22-9.27,.84-2.37,.86-5.04,2.31-5.98,4.84-.09,.25-.17,.49-.22,.72-.28,.05-.56,.1-.85,.13-3.18,.42-6.48,.48-9.81,.24,0,0,0,0,0,0-.01,0-.03,0-.04,0-8.75-.65-17.68-3.45-25.05-7.71-6.05-7.36-5.77-17.46,1-24.84,6.49-7.07,16.87-1.58,23.4,2.45,6.62,4.09,12.02,9.31,20.28,9.2,4.35-.06,8.36-2.01,12.23-3.79,4.76-2.19,9.86-3.61,14.97-4.75,5.02-1.11,10.39-1.59,15.26,.34,4.69,1.86,8.65,5.42,12.8,8.19,6.98,4.67,12.91,10.88,21.81,11.13,8.12,.22,15.69-1.78,21.94-7.06,7.18-6.06,12.89-13.56,21.08-18.46,7.56-4.52,16.52-3.31,24.41-.35,6.35,2.39,9.79,8.36,13.84,13.4,5.25,6.53,15.33,13.67,23.7,10.02-5.72,4.99-14.65,4.65-20.86,.6Z"/><path class="cls-17" d="M47.14,133.84c6.36-4.06,11.43-10.35,13.63-17.58-6.3-3.39-14.3-6.11-19.65-.28-5.8,6.31-6.82,14.62-3.2,21.5,3.27-.6,6.42-1.85,9.22-3.64Z"/><path class="cls-17" d="M75.86,148.16c.05-.23,.13-.47,.22-.72,.95-2.52,3.61-3.97,5.98-4.84,2.74-.99,5.8-1.21,8.69-.9,2.74-5.27,4.35-11.4,5.12-17.33-3.52,1.62-7.17,3.21-11.09,3.27-2.82,.04-5.29-.55-7.61-1.5-2.76,8.24-8.56,15.43-16.45,19.38-1.32,.66-2.71,1.23-4.12,1.71,2.83,.64,5.7,1.09,8.55,1.3,.01,0,.03,0,.04,0,0,0,0,0,0,0,3.33,.24,6.64,.19,9.81-.24,.29-.04,.57-.09,.85-.13Z"/><path class="cls-7" d="M99.21,132.92c-.6,.57-1.11,1.19-1.5,1.83-.08,.14-.33,.09-.26-.09,1.9-5.06,8.96-8.06,13.53-4.65,.59,.44-.37,1.4-.97,.97-.51-.36-1.05-.63-1.62-.81-.02,1.09,.07,2.16,.23,3.23,.62,0,1.25,.05,1.9,.13,1.39,.18,2.75,.46,4.08,.82,1.56-5.18,1.84-10.54,.54-15.85-1.06,.16-2.1,.36-3.14,.59-5.11,1.13-10.21,2.55-14.97,4.75-.16,.07-.33,.15-.49,.23-.76,6.04-2.39,12.3-5.16,17.69,2.46,.33,5.97,1.54,8.97,1.68-1.44-3.22-1.62-7.03-1.13-10.52Z"/><path class="cls-17" d="M184.04,139.49c-.26-2.36-.7-4.68-1.26-6.98-5.86,4.52-12.78,6.33-20.19,6.25,.1,3.22,.09,6.42-.57,9.58-.27,1.3-.86,3.08-1.7,4.83,6.28-.01,12.35-1.88,17.9-6.02,2.07-1.55,4.06-3.2,6-4.91-.01-.93-.08-1.85-.17-2.75Z"/><path class="cls-7" d="M202.18,115.01c-6.8,4.82-12.01,11.31-18.38,16.68-.14,.12-.29,.23-.43,.35,.77,3.08,1.34,6.2,1.46,9.36,0,.1,0,.2,0,.3,1.56-1.38,3.1-2.79,4.63-4.2,.07-.13,.13-.26,.21-.4-1.98-.58-2.53-2.09-1.75-4.16,.95-2.52,3.61-3.97,5.98-4.83,2.92-1.06,6.21-1.24,9.27-.84,1.39,.18,3.14,.65,4.94,1.05-.13-4.57-2.85-9.21-5.93-13.31Z"/><path class="cls-17" d="M233.7,125.87c.23-.7,.41-1.34,.56-1.86,.64-2.28,1.11-4.62,1.3-6.99-1.79-1.74-3.81-3.21-6.27-4.13-7.89-2.96-16.85-4.18-24.41,.35-.74,.44-1.45,.91-2.15,1.39,3.17,4.25,5.97,9.08,6.01,13.83,1.16,.24,2.33,.44,3.43,.5-1.44-3.22-1.62-7.03-1.13-10.52-.6,.57-1.11,1.18-1.5,1.83-.08,.14-.33,.1-.26-.09,1.9-5.06,8.96-8.06,13.53-4.65,.59,.44-.37,1.4-.97,.97-.5-.36-1.05-.63-1.62-.81-.03,1.37,.13,2.72,.36,4.06,2.27,.12,4.55,.67,6.84,1.78,2.35,1.14,4.39,2.65,6.29,4.33Z"/><path class="cls-7" d="M251.35,133.71c-.63,1.81-1.36,3.5-2.15,4.88,5.81,2.34,12.84,1.91,17.63-2.27-5.01,2.18-10.64,.5-15.48-2.61Z"/><path class="cls-17" d="M136.7,145.51c1.4-1.89,2.55-4.02,3.42-5.9,1.38-2.98,2.6-6.16,3.54-9.42-1.18-.87-2.38-1.75-3.6-2.57-4.15-2.78-8.12-6.34-12.8-8.19-3.67-1.45-7.61-1.54-11.47-1.03,1.28,5.38,.99,10.88-.61,16.11,7.71,2.19,14.5,6.89,21.52,10.99Z"/><path class="cls-13" d="M268.58,134.48c-7.95,4.8-17.31-1.3-22.98-7.17-5.62-5.82-8.69-12.81-16.7-15.82-7.71-2.9-16.05-3.43-23.52,.31-7.74,3.88-13.85,11.02-19.92,17-7.35,7.25-17.27,10.22-27.47,8.39-4.9-.88-8.97-4.47-12.8-7.38-3.63-2.77-7.49-5.27-11.25-7.86-3.54-2.45-7.17-4.34-11.48-4.81-4.28-.47-8.67,.46-12.8,1.45-4.39,1.05-8.71,2.39-12.83,4.25-5.2,2.36-10.1,4.37-15.95,3.46-7.21-1.12-13.09-7.3-19.36-10.61-5-2.65-10.88-5-16.51-3.01-5.08,1.8-8.68,7.99-9.6,13.03-.95,5.28,.23,10.32,3.36,14.31-.4-.25-.82-.5-1.21-.76-5.91-3.89-10.84-9.65-13.46-16.23-1.52-3.8-1.78-8.05-1.51-12.09,.21-3.07,1.28-5.91,.26-8.9,.67-.16,1.33-.34,1.99-.55,4.65-1.51,7.4-5.18,9.02-8.9-.22,2.37-1.16,4.62-2.84,6.82-.18,.24,.04,.57,.41,.46,6.29-1.98,10.2-6.36,13-11.17,2.4-4.13,4.37-8.88,3.7-13.46,1.19,2.04,1.44,4.27,1.67,6.54,.04,.36,.67,.35,.89,.13,4.24-4.22,6.34-9.41,6.45-14.66,.13,0,.28-.03,.42-.15,2.83-2.24,3.97-5.59,4.32-8.96,.32,1.35,.73,2.64,1.2,3.81,.15,.38,.87,.22,.86-.16-.11-2.92,1.06-5.44,2.97-7.75-2.47,6.19-.45,14.08,2.83,19.33,.02,.04,.05,.05,.09,.06,0,.02,0,.04,0,.06,0,.09,.13,.07,.16,0,.02-.04,.03-.09,.05-.13,.04-.04,.07-.08,.06-.13,0,0,0,0,0-.01,.59-1.49,.99-3.03,1.59-4.52,.61-1.52,1.66-2.81,2.6-4.17-3.08,8.06-.57,17.64,6.22,23.98,.02,.02,.05,.03,.07,.04,.06,.16,.13,.32,.21,.48,.06,.13,.29,0,.28-.11-.22-1.75-.34-3.42-.09-5.16,.13-.93,.44-1.83,.73-2.73-.28,11.53,13.28,22.23,26.94,23.82,3.06,.36,7.71,.26,11.3-.93,0,.17,.08,.32,.27,.42,6.05,2.95,11.75,3.92,17.88,.78,5.56-2.86,9.71-8.1,13.85-12.62,4.84-5.28,10.86-11.85,18.72-11.12,4.4,.41,7.94,3.86,10.57,7.1,2.62,3.22,3.66,7.05,5.74,10.52,3.72,6.21,10.13-1.56,13.38-4.28,7.82-6.55,16.6-12.64,26.81-14.53,8.79-1.62,17.66,1.04,21.94,9.26,3.57,6.85,2.03,13.84,.51,20.92-.52,2.4-.79,4.92,.15,7.24,.97,2.38,3.93,2.81,6.13,3.14,3.41,.5,6.87,.53,10.15,1.71,4.83,1.74,5.89,7.09,3.19,11.07-.22,.32-.45,.62-.69,.92Z"/><path class="cls-14" d="M154.3,127.64c-5.83-3.37-10.91-8.05-16.95-11.02-6.81-3.36-14.84-5.01-22.4-3.74-5.07,.85-9.83,2.72-14.57,4.66-4.03,1.65-8.3,3.78-12.71,4.07-6.73,.45-11.49-3.56-16.58-7.33-6.01-4.44-13.19-7.52-20.77-5.64-5.05,1.25-8.92,4.36-11.07,8.56,1.57-2.05,3.53-3.72,5.79-4.52,5.63-1.99,11.51,.36,16.51,3.01,6.27,3.32,12.15,9.49,19.36,10.61,5.85,.91,10.74-1.1,15.95-3.46,4.11-1.87,8.43-3.2,12.83-4.25,4.13-.99,8.52-1.92,12.8-1.45,4.31,.47,7.94,2.36,11.48,4.81,3.76,2.59,7.62,5.1,11.25,7.86,3.83,2.92,7.9,6.51,12.8,7.38,7.56,1.36,14.96,.07,21.28-3.63-8.27,1.82-17.5-1.6-24.98-5.92Z"/><path class="cls-14" d="M266.08,122.49c-.18-.07-.36-.11-.54-.17-.45,.62-.95,1.2-1.53,1.74-4.27,3.96-11.43,4.23-16.09,.8-7.14-5.25-9.2-15.64-18.48-18.18-6.58-1.8-14.14,.05-20.16,3.58,6.4-1.94,13.22-1.17,19.62,1.23,8.01,3.01,11.08,10,16.7,15.82,5.67,5.87,15.03,11.97,22.98,7.17,.24-.3,.47-.6,.69-.92,2.71-3.98,1.64-9.33-3.19-11.07Z"/><path class="cls-15" d="M83.77,95.35c.13-.15,.38-.23,.5-.03,.14,.22,.18,.44,.22,.69,.01,.06,0,.12-.03,.17,.36,.67,1.17,1.52,1.41,1.77,.7,.72,1.44,1.4,2.26,1.98,1.89,1.36,3.96,2.46,6.11,3.35,4.16,1.73,8.58,2.84,13.08,3.11,4.68,.28,9.33-.27,13.7-1.65-.27-.12-.53-.24-.8-.37-.2-.1-.27-.25-.27-.42-3.59,1.19-8.25,1.28-11.3,.93-13.66-1.59-27.22-12.28-26.94-23.82-.29,.9-.6,1.8-.73,2.73-.24,1.75-.13,3.42,.09,5.16,.01,.1-.21,.24-.28,.11-.07-.16-.14-.32-.21-.48-.02,0-.05-.02-.07-.04-6.79-6.34-9.29-15.92-6.22-23.98-.94,1.37-1.99,2.65-2.6,4.17-.6,1.49-1,3.03-1.59,4.52,0,0,0,0,0,.01,0,.05-.02,.09-.06,.13-.02,.04-.03,.09-.05,.13-.03,.07-.16,.08-.16,0,0-.02,0-.04,0-.06-.03,0-.07-.02-.09-.06-3.28-5.26-5.3-13.15-2.83-19.33-1.91,2.31-3.08,4.83-2.97,7.75,.01,.38-.71,.54-.86,.16-.47-1.18-.88-2.47-1.2-3.81-.35,3.36-1.49,6.71-4.32,8.96-.14,.11-.29,.15-.42,.15-.11,5.25-2.21,10.44-6.45,14.66-.23,.23-.86,.23-.89-.13-.22-2.27-.47-4.5-1.67-6.54,.67,4.58-1.3,9.33-3.7,13.46-2.8,4.81-6.71,9.18-13,11.17-.37,.12-.59-.21-.41-.46,1.68-2.19,2.62-4.45,2.84-6.82-1.61,3.72-4.37,7.38-9.02,8.9-.66,.21-1.32,.4-1.99,.55,.29,.84,.41,1.67,.43,2.5,2.21-.78,4.45-2.41,5.89-3.32,.26-.17,.6,.05,.41,.36-.61,.97-1.29,1.89-1.87,2.88,10.77,1.57,18.65-9.44,22.26-18.21,.12-.28,.57-.29,.58,.05,.03,1.03,.13,2.04,.04,3.06,3.69-1.71,5.38-6.29,6.57-9.89,1.14-3.45,1.9-7.05,3.27-10.42,.07-.18,.44-.33,.54-.09,.33,.72,.85,1.33,1.23,2.02,.67-.65,1.29-1.28,1.71-2.16,.11-.22,.5-.32,.57-.02,.69,2.82,.7,5.7,1.16,8.55,.48,3.01,1.66,5.47,3.85,7.56,.91-1.64,1.16-3.5,1.59-5.32,.06-.25,.55-.46,.6-.11,1.44,8.43,4.53,16.75,11.74,21.82,.1-1.86-.02-3.73-.04-5.59,0-.16,.19-.35,.36-.38Z"/><path class="cls-11" d="M30.14,23.14c.22-.68,3.19-7.4,3.82-7.01,0,0,0,0,.01,0,.08-.09,.16-.18,.24-.26,0,0-.01,0-.02,0,3.1-3.48,7.47-5.47,12.79-4.48,2.43,.45,4.23,1.48,5.55,2.89,.04,.03,.08,.06,.11,.1,.02,.02,.03,.05,.05,.07,.32,.36,.62,.73,.89,1.13,.93,1.08,1.43,2.51,1.73,4.02,.36,1.83,.65,3.68,.68,5.55,.08,6.53-2.82,13.55-7.59,18.03-.06,0-.12,.04-.17,.09-.13,.15-.28,.29-.42,.44-2.43,2.05-5.38,3.11-8.89,2.36-1.78-.38-3.76-1.32-5.16-2.47-5.61-4.6-5.66-14.18-3.61-20.46Z"/><path class="cls-10" d="M37.78,20.19c1.24-.86,2.71-1.51,4.17-1.47,2.2-.39,5.08,.7,6.83,2.37,1.57,1.25,2.7,3.09,3.05,5.7,.07,.49,.09,.97,.09,1.44,.07,.39,.07,.78-.06,1.17,0,.01,0,.02-.01,.03-.48,4.11-3.41,7.24-7.42,8.18-3.91,.91-7.82-1.49-9.71-5.06-2.49-4.71-1.24-9.38,3.06-12.35Z"/><path class="cls-16" d="M40.47,23.2c.73-.5,1.59-.88,2.44-.86,1.29-.23,2.97,.41,4,1.38,.92,.73,1.58,1.81,1.78,3.33,.04,.29,.05,.57,.05,.84,.04,.23,.04,.46-.03,.69,0,0,0,.01,0,.02-.28,2.4-2,4.23-4.34,4.78-2.28,.53-4.57-.87-5.68-2.96-1.45-2.75-.73-5.48,1.79-7.22Z"/><path class="cls-1" d="M43.15,21.07c.39-.27,.85-.47,1.3-.46,.68-.12,1.58,.22,2.12,.74,.49,.39,.84,.96,.95,1.77,.02,.15,.03,.3,.03,.45,.02,.12,.02,.24-.02,.36,0,0,0,0,0,0-.15,1.28-1.06,2.25-2.31,2.54-1.21,.28-2.43-.46-3.02-1.57-.77-1.46-.39-2.91,.95-3.84Z"/><path class="cls-10" d="M75.68,10.8c1.38-.94,3-1.65,4.61-1.59,2.43-.41,5.6,.85,7.52,2.72,1.72,1.41,2.95,3.48,3.31,6.39,.07,.54,.09,1.08,.09,1.6,.07,.44,.07,.88-.07,1.31,0,.01,0,.02-.01,.03-.56,4.58-3.82,8.03-8.25,9.02-4.31,.96-8.61-1.76-10.66-5.77-2.7-5.28-1.29-10.47,3.47-13.72Z"/><path class="cls-16" d="M78.16,14.09c.84-.57,1.82-1,2.79-.96,1.48-.25,3.4,.51,4.56,1.65,1.04,.86,1.79,2.11,2.01,3.87,.04,.33,.06,.66,.05,.97,.05,.26,.04,.53-.04,.79,0,0,0,.01,0,.02-.34,2.77-2.32,4.87-5,5.47-2.61,.58-5.22-1.06-6.46-3.5-1.64-3.2-.79-6.34,2.1-8.32Z"/><path class="cls-1" d="M81.3,11.92c.46-.31,1-.55,1.53-.53,.81-.14,1.86,.28,2.5,.91,.57,.47,.98,1.16,1.1,2.12,.02,.18,.03,.36,.03,.54,.02,.15,.02,.29-.03,.44,0,0,0,0,0,0-.19,1.52-1.27,2.67-2.74,3-1.43,.32-2.86-.58-3.55-1.92-.9-1.75-.43-3.48,1.16-4.56Z"/><path class="cls-9" d="M98.53,20.01s.05,0,.08,0c.03,1.97-.17,3.87-.54,5.8,.07-1.96-.07-3.93-.39-5.84,.29,.01,.58,.02,.86,.04Z"/><path class="cls-9" d="M56.33,20.62c.08-.02,.16-.01,.23,.04,.26,.18,.5,.37,.75,.56,.03,.02,.07,.04,.1,.07-.16,1.52-.44,3.04-.77,4.55-.02,.04-.05,.09-.06,.14-.08,.39-.17,.79-.26,1.21,.19-2.38,.19-4.8-.19-7.03,.07,.16,.13,.31,.19,.47Z"/><g><path class="cls-4" d="M178.23,118.36c0,2.95-2.39,5.33-5.33,5.33s-5.33-2.39-5.33-5.33,2.39-5.33,5.33-5.33,5.33,2.39,5.33,5.33Z"/><path class="cls-4" d="M176.82,127.89c0,1.01-.81,1.82-1.82,1.82s-1.82-.81-1.82-1.82,.81-1.82,1.82-1.82,1.82,.81,1.82,1.82Z"/><path class="cls-6" d="M154.5,123.92c0,2.05-1.66,3.72-3.72,3.72s-3.72-1.66-3.72-3.72,1.66-3.72,3.72-3.72,3.72,1.66,3.72,3.72Z"/><path class="cls-4" d="M144.58,109.16c0,1.52-1.23,2.75-2.75,2.75s-2.75-1.23-2.75-2.75,1.23-2.75,2.75-2.75,2.75,1.23,2.75,2.75Z"/></g><g><path class="cls-6" d="M91.49,112.61c0,2.45-1.98,4.43-4.43,4.43s-4.43-1.98-4.43-4.43,1.98-4.43,4.43-4.43,4.43,1.98,4.43,4.43Z"/><path class="cls-4" d="M90.31,120.53c0,.83-.68,1.51-1.51,1.51s-1.51-.68-1.51-1.51,.68-1.51,1.51-1.51,1.51,.67,1.51,1.51Z"/><path class="cls-6" d="M59.74,106.14c0,1.71-1.38,3.09-3.09,3.09s-3.09-1.38-3.09-3.09,1.38-3.09,3.09-3.09,3.09,1.38,3.09,3.09Z"/><path class="cls-4" d="M79.14,102.68c0,1.26-1.02,2.28-2.28,2.28s-2.28-1.02-2.28-2.28,1.02-2.28,2.28-2.28,2.28,1.02,2.28,2.28Z"/></g><g><path class="cls-6" d="M241.66,98.59c0,2.05-1.66,3.72-3.72,3.72s-3.72-1.66-3.72-3.72,1.66-3.72,3.72-3.72,3.72,1.66,3.72,3.72Z"/><path class="cls-4" d="M242.12,113.11c0,.7-.57,1.27-1.27,1.27s-1.27-.57-1.27-1.27,.57-1.27,1.27-1.27,1.27,.57,1.27,1.27Z"/><path class="cls-4" d="M229.49,93.12c0,1.43-1.16,2.59-2.59,2.59s-2.59-1.16-2.59-2.59,1.16-2.59,2.59-2.59,2.59,1.16,2.59,2.59Z"/><path class="cls-4" d="M215.34,102.65c0,1.06-.86,1.91-1.92,1.91s-1.91-.86-1.91-1.91,.86-1.91,1.91-1.91,1.92,.86,1.92,1.91Z"/></g><g><path class="cls-4" d="M33.61,124.47c0,1.67-1.36,3.03-3.04,3.03s-3.04-1.36-3.04-3.03,1.36-3.04,3.04-3.04,3.04,1.36,3.04,3.04Z"/><path class="cls-4" d="M40.03,111.36c0,.83-.68,1.51-1.51,1.51s-1.51-.68-1.51-1.51,.68-1.51,1.51-1.51,1.51,.68,1.51,1.51Z"/><path class="cls-6" d="M265.98,130.61c0,1.7-1.38,3.09-3.09,3.09s-3.09-1.38-3.09-3.09,1.38-3.09,3.09-3.09,3.09,1.38,3.09,3.09Z"/><path class="cls-4" d="M69.87,114.85c0,.95-.77,1.71-1.71,1.71s-1.71-.77-1.71-1.71,.77-1.71,1.71-1.71,1.71,.77,1.71,1.71Z"/></g><path class="cls-8" d="M47.86,136.97c-4.57-3.25-8.5-7.22-11.64-11.78-1.19,5.39,.13,11.05,3.89,15.63,7.37,4.26,16.3,7.06,25.05,7.71,.01,0,.03,0,.04,0,0,0,0,0,0,0,3.33,.24,6.64,.19,9.81-.24,.29-.04,.57-.09,.85-.13,.05-.23,.13-.47,.22-.72h0c-10.13-.96-20.11-4.69-28.22-10.47Z"/><path class="cls-8" d="M254.72,135.56c-3.44-.24-6.83-1.24-9.77-2.94-3.53-2.05-6.56-4.84-9.02-8.1-2.42-3.21-4.63-6.98-8.43-8.73-7.21-3.33-17.61-2.29-23.14,3.75,1.63,1.29,3.39,3.36,3.81,5.38,.31,1.48-.22,2.95-1.93,2.9-.13,0-.25-.01-.38-.02,2.01,.47,4.28,1.05,6.31,1.15-1.44-3.22-1.62-7.03-1.13-10.52-.6,.57-1.11,1.18-1.5,1.83-.08,.14-.33,.1-.26-.09,1.9-5.06,8.96-8.06,13.53-4.65,.59,.44-.37,1.4-.97,.97-.5-.36-1.05-.63-1.62-.81-.03,1.37,.13,2.72,.36,4.06,2.27,.12,4.55,.67,6.84,1.78,7.44,3.61,11.75,10.94,18.56,15.38,6.21,4.04,15.13,4.38,20.86-.6-3.88,1.69-8.14,1.06-12.11-.75Z"/><path class="cls-8" d="M149.57,147.44c-5.68-2.03-10.94-4.93-16.34-7.61-5.65-2.8-11.36-5.49-17.12-8.06-.3-.13-.1-.59,.18-.62,.67-.07,1.32-.26,1.98-.38-5.75-8.82-23.19-1.89-23.74,7.88,.66-.6,1.41-1.1,2.01-1.78,.12-.14,.49-.22,.52,.05,.11,.97,.18,3.87-.34,5.99,1.23,.26,2.47,.48,3.63,.54-1.44-3.22-1.62-7.03-1.13-10.52-.6,.57-1.11,1.19-1.5,1.83-.08,.14-.33,.09-.26-.09,1.9-5.06,8.96-8.06,13.53-4.65,.59,.44-.37,1.4-.97,.97-.51-.36-1.05-.63-1.62-.81-.02,1.09,.07,2.16,.23,3.23,.62,0,1.25,.05,1.9,.13,13.95,1.84,24.51,12.96,37.56,17.47,8.71,3.01,17.39,3.04,25.28-.87-7.9,1.36-16.23,0-23.79-2.7Z"/><path class="cls-14" d="M35.44,125.72c.08-.42,.18-.84,.29-1.27-1.58-2.4-2.96-4.95-4.09-7.65-1.72-4.1-3.27-8.64-3.61-13.1-.09-1.25-.08-2.48,0-3.71-.95,.62-2,1.15-3.17,1.53-.66,.21-1.32,.4-1.99,.55,1.02,2.99-.05,5.82-.26,8.9-.27,4.03-.01,8.28,1.51,12.09,2.62,6.57,7.56,12.34,13.46,16.23,.39,.26,.8,.51,1.21,.76-3.13-3.99-4.31-9.03-3.36-14.31Z"/><path class="cls-14" d="M125.96,110.45c9.34,5.25,18.23-4.02,24.34-10.02,5.29-5.19,12.13-11.16,20.17-9.26,3.65,.86,6.89,2.98,9.13,6,2.13,2.87,4.22,6.8,7.94,7.85,4.1,1.16,8.32-1.46,11.6-3.63,3.24-2.15,6.22-4.64,9.25-7.06,5.68-4.52,11.89-8.67,19.41-8.82,6.15-.13,13.42,1.73,15.05,8.52,.77,3.19,.43,6.54-.31,9.7-1.1,4.68-3.31,11.05,.96,14.87,3.01,2.69,6.92,2.57,10.63,1.88-1.8-.37-3.62-1.07-4.34-2.84-.94-2.32-.67-4.84-.15-7.24,1.52-7.08,3.05-14.07-.51-20.92-4.28-8.22-13.15-10.88-21.94-9.26-10.21,1.89-18.99,7.98-26.81,14.53-3.25,2.72-9.65,10.49-13.38,4.28-2.09-3.48-3.13-7.31-5.74-10.52-2.64-3.24-6.17-6.69-10.57-7.1-7.86-.73-13.88,5.83-18.72,11.12-4.14,4.52-8.29,9.76-13.85,12.62-6.06,3.11-11.71,2.19-17.68-.69,1,2.37,2.75,4.44,5.53,6Z"/><path class="cls-2" d="M178.64,100c-6.14-5.98-18.59-4.85-24.53,.33-7.26,6.33-8.34,18.67,.56,24.09,4.04,2.46,12.37,4.08,16.97,2.61,11.31-3.61,15.59-18.65,6.99-27.03Z"/><path class="cls-2" d="M236.98,90.74c-6.67-7.87-23.13-.18-27.06,7.15-1.65,3.08-.56,7.02,3.5,6.79,2.87-.17,5.7-.58,8.55-.93,2.81-.34,5.75-.18,8.5-.88,.48,.06,.97,.1,1.47,.11,6.92,.05,9.05-7.48,5.03-12.23Z"/><path class="cls-2" d="M99.58,106.55c-11.48,.2-20.02-5.24-25.58-15.05-2.91-5.13-9.26-9.35-15-5.45-4.36,2.96-7,8.52-8.25,13.53-.76,3.07,1.54,6.83,5.14,5.13,4.12-1.95,7.29,1.22,11.03,2.51,1.65,1.86,3.57,3.47,5.67,4.85,3.52,2.31,7.36,4.76,11.45,5.85,5.29,1.41,10.75,.76,15.9-.9,5.37-1.73,6.44-10.6-.36-10.48Z"/><path class="cls-18" d="M31.62,141.84c-.05-.95,.05-1.91,.32-2.79-.46,.27-.89,.56-1.27,.9-1.08,.95-4.2,4-1.21,5.59,.07-.09,.12-.18,.2-.27,.61-.73,1.39-1.34,2.25-1.84-.15-.5-.26-1.02-.29-1.59Z"/><path class="cls-18" d="M32.39,144.53c-1.12,.84-2.25,1.87-2.64,3.22-.74,2.58,1.76,3.62,3.95,3.75,1.05-1.02,2.62-2.08,4.36-2.91-2.34-.68-4.55-2.01-5.67-4.06Z"/><path class="cls-18" d="M50.26,147.19c-3.21,1.76-6.87,2.53-10.8,1.75-1.56,.75-2.97,1.71-3.93,2.65-5.01,4.92,6.46,4.78,9.03,4.46,4.21-.53,8.57-1.26,12.44-3.05,1.83-.85,3.7-1.83,5.31-3.1-4.11-.48-8.19-1.42-12.05-2.71Z"/><path class="cls-18" d="M84.39,147.36c.11-1.67,.69-3.35,1.62-4.82-.56,.09-1.11,.2-1.65,.36-1.64,.49-3.49,1.22-4.8,2.37-1.08,.95-4.2,4-1.21,5.59,.07-.09,.12-.18,.2-.27,1.37-1.64,3.53-2.71,5.84-3.23Z"/><path class="cls-18" d="M114.99,145.92c-.75-.62-1.47-1.11-2.67-1.24-1.19-.13-2.48-.03-3.6-.51-.47-.2-.04-.81,.3-.86,.32-.05,.67-.09,1.05-.13-1.09-1.35-1.31-3.48-1.59-5.08-.46-2.71-.78-5.3-.44-8-1.16-.3-2.42-.27-3.65,.02,.66,4.99,2.63,10.11-.01,14.64,2.06,.44,2.37,2.12,1.61,4.09-.79,2.05-2.89,3.52-4.79,4.45-3.72,1.81-9.25,3.36-13.14,1.11-1.44,.73-2.75,1.63-3.64,2.51-5.01,4.92,6.46,4.78,9.03,4.45,4.21-.53,8.57-1.26,12.44-3.04,2.49-1.14,5.04-2.54,6.94-4.56,1.15-1.23,2.28-2.63,2.81-4.26,.49-1.5,.15-2.72-.65-3.59Z"/><path class="cls-18" d="M84.36,148.1c-.85,.32-1.67,.74-2.41,1.26-1.31,.93-2.87,2.1-3.33,3.72-.74,2.59,1.76,3.62,3.95,3.76,1.09-1.07,2.77-2.18,4.6-3.02-1.93-1.5-2.78-3.57-2.81-5.72Z"/><path class="cls-18" d="M196.07,132.91c.17-2.16,1.15-3.83,2.62-4.96-.85,.08-1.68,.22-2.51,.47-1.64,.5-3.49,1.22-4.8,2.37-1.08,.95-4.2,4-1.21,5.59,.07-.09,.12-.18,.2-.26,1.34-1.61,3.44-2.67,5.7-3.2Z"/><path class="cls-18" d="M226.82,131.44c-.75-.62-1.47-1.11-2.67-1.24-1.19-.13-2.48-.03-3.6-.51-.47-.2-.04-.8,.3-.86,.32-.05,.67-.09,1.05-.13-1.09-1.35-1.31-3.48-1.59-5.08-.46-2.7-.78-5.3-.44-8-1.22-.32-2.54-.27-3.82,.05,1.13,5.87,3.01,12.43-.99,16.72,1.62-.2,4.04-.5,4.9,.77,1.03,1.53-.51,3.45-1.74,4.31-2.15,1.5-4.77,2.31-7.31,2.87-2.13,.47-4.5,.98-6.7,.8-1.47-.13-2.92-.57-4.19-1.29-1.5,.74-2.86,1.67-3.78,2.58-5.01,4.92,6.46,4.78,9.03,4.45,4.21-.53,8.57-1.26,12.44-3.05,2.49-1.15,5.04-2.54,6.94-4.56,1.15-1.23,2.28-2.63,2.81-4.26,.49-1.49,.15-2.72-.65-3.59Z"/><path class="cls-18" d="M196.06,133.67c-.8,.31-1.57,.72-2.27,1.21-1.31,.93-2.87,2.1-3.33,3.72-.74,2.58,1.76,3.62,3.95,3.75,1.12-1.09,2.84-2.23,4.72-3.07-1.78-1.3-3.01-3.23-3.07-5.62Z"/></g><path class="cls-3" d="M86.85,33.95c-3.99,1.06-6.72,.56-10.01-2-2.49-1.92-4.78-4.85-6.61-7.38-.42-.58-1.17,.26-1.14,.73,.51,8.2,10.64,17.7,18.84,11.94,1.66-1.17,1.28-3.92-1.07-3.3Z"/><path class="cls-3" d="M41.78,40.58c-1.59-.61-3.29-.8-4.69-1.85-1.5-1.12-2.33-3.06-2.86-4.8-1.1-3.61-1.4-7.93-.52-11.61,.07-.31-.33-.42-.46-.15-2.08,4.31-3.33,8.93-2.53,13.73,.83,4.94,5.19,9.05,10.34,7.87,1.2-.27,2.22-2.62,.71-3.2Z"/><path class="cls-3" d="M53.1,19.09c-.27-2.58-2.36-4.22-4.44-5.42-.57-.33-1.39,.63-.87,1.1,1.5,1.34,2.45,3.23,3.01,5.13,.45,1.51,2.44,.49,2.31-.81Z"/><path class="cls-3" d="M85.36,3.82c-.76-.11-1.56,.88-.97,1.53,.86,.94,1.88,1.71,2.74,2.67,.94,1.05,1.29,2.5,2.49,3.31,.63,.42,1.6-.27,1.77-.88,.84-3.04-3.32-6.23-6.03-6.62Z"/></g></g></g></g></svg>