<?xml version="1.0" encoding="UTF-8"?><svg xmlns="http://www.w3.org/2000/svg" viewBox="0 0 241.8 265.86"><defs><style>.cls-1{mix-blend-mode:screen;}.cls-1,.cls-2{fill:#8ed7f7;}.cls-1,.cls-3{opacity:.4;}.cls-4{fill:#f06670;}.cls-5,.cls-3{fill:#fff;}.cls-6{fill:#f37e63;}.cls-7{fill:#ef3c6f;}.cls-8{fill:#fce044;}.cls-9{fill:#fdec72;}.cls-10{fill:#fdf9d6;}.cls-11{fill:#3078ac;}.cls-12{fill:#dfdcbf;}.cls-13{fill:#a43c53;}.cls-14,.cls-15,.cls-16{fill:#3bc5f3;}.cls-17{fill:#4678ac;}.cls-18{fill:#7567ad;}.cls-19{fill:#dfdcbe;}.cls-19,.cls-15,.cls-16{mix-blend-mode:multiply;}.cls-15,.cls-20{opacity:.3;}.cls-16{opacity:.5;}.cls-21{isolation:isolate;}</style></defs><g class="cls-21"><g id="Layer_2"><g id="_5"><g><g><path d="M239.57,165.31c-1.33-.61-3.11-1.25-4.63-1.5,1.35-.6,2.61-1.45,3.79-2.32,1.07-.78,2.9-2.05,2.87-3.56-.02-1.63-2.43-1.61-3.55-1.65-1.03-.04-3.12-.28-4.35,.26-.59-3.2-1.67-6.25-3.35-8.86-3.96-6.14-14.48-12.58-21.87-9.41-3.07,1.32-10.68,6.53-8.82,10.82,1.51,3.49,8.27,3.53,9,.02,6.71,4.55,8.92,14.02,1.73,19.42-5.6,4.21-13.01,3.02-17.54-1.96-5.24-5.77-9.66-17.52-18.61-17.53-1.38-.56-2.74-.77-4.3-.95-2.5-.28-4.83-1.42-7.15-2.32-3.42-1.33-7.27-2.12-10.94-2.18-4.16-.07-8.06,.57-11.94,2.08-4.21,1.65-7.76,4.66-11.91,6.48-5.46,2.39-11.27,1.07-16.86,.04-4.62-.85-9.18-1.19-13.87-.87-4.61,.32-9.15,1.47-13.56,2.79-4.16,1.24-7.68,4.55-11.57,6.43-.16,.08-.23,.25-.21,.37-9.36,7.15-10.83,21.79-19.55,29.73-7.13,6.48-18.8,7.44-25.43,.1-3.23-3.57-3.52-8.41-2.81-12.91,.9-5.67,6.45-14.54,12.39-7.98,.12,.13,.26,.17,.4,.17,.02,.05,.04,.1,.06,.14-.7,.6-1.24,1.34-1.41,2.32-.46,2.66,4.69,2.22,6.02,1.79,6.3-2,3.67-11.26,.32-14.49-4.52-4.36-12.54-3.18-17.88-1.44-5.71,1.86-10.37,5.56-13.5,10.51-1.5-.42-3.13,0-4.61,.46-1.37,.42-3.13,1.01-3.69,2.47-.88,2.29,3.1,4.88,4.78,5.51,.01,0,.02,0,.03,0-.01,.06-.02,.11-.03,.17-2.51,.33-7.21,2.3-7,4.92,.13,1.55,1.48,2.54,2.67,3.36,1.05,.72,2.43,1.62,3.76,2.01-2.76,1.1-6,3.47-5.24,6.46,.4,1.56,2.07,2.44,3.43,2.99,1.52,.62,3.89,1.52,5.53,1.22,0,0,0,0,.01,0,0,0,.01,.02,.02,.03-1.39,.63-2.89,2.29-3.66,3.1-1.09,1.15-2.69,3.17-1.4,4.74,1.26,1.54,3.57,1.54,5.38,1.48,1.17-.04,3.41-.06,4.87-.65-.73,.91-1.28,2.29-1.57,2.95-.72,1.6-1.51,3.89-.13,5.35,1.24,1.31,3.78,.42,5.14-.12,1.05-.42,2.36-.96,3.41-1.71-.77,2.58,.2,6.26,1.95,7.84,2.37,2.13,6.04-1.51,7.78-3.36-.01,1.01,.3,2.11,.53,2.93,.4,1.42,1.13,3.73,2.85,4.05,1.59,.29,2.9-.73,3.99-1.76,.88-.84,1.94-1.99,2.57-3.18,.32,1.52,1.02,2.91,1.99,4.19,.86,1.13,2.39,2.55,3.96,2.09,2.19-.64,4.06-3.64,4.45-6.12,.86,2.13,3.43,4.1,5.45,3.61,1.72-.42,3.01-3.38,3.33-5.44,1.03,1.85,3.4,3.67,5.09,2.85,1.25-.6,1.58-2.12,1.73-3.36,.06-.5,.16-1.22,.17-1.94,1.71,1.42,4.04,2.91,5.73,1.33,.94-.88,1.21-2.13,1.39-3.35,.09-.63,.26-1.53,.29-2.36,1.52,1.23,3.61,2,4.94,.19,.52-.71,.88-1.51,1.17-2.34,2.5,5.85,6.42,10.64,7.23,17.25,.6,4.91-1.61,9.1-5.88,11.5-4,2.25-8.37,.86-9.79-3.04,3.86-1.29,4.51-6.56,.91-8.94-5.35-3.53-10.56,1.59-13.31,6-6.08,9.76-.39,19.25,8.14,24.11-.54,2.63,0,7.35,2.63,7.96,1.64,.38,3.04-.67,4.19-1.72,.85-.78,1.94-1.9,2.59-3.06,.08,0,.16,.01,.25,.02,.64,2.58,2.68,7.07,5.69,6.24,2.15-.6,4.43-3.75,4.89-6.18,1.34,2.1,4.15,4.5,6.17,3.69,1.45-.58,2.06-2.49,2.46-3.84,.35-1.15,.89-2.78,.65-4.08,1.5,1.22,5.05,2.51,5.98,2.29,3-.72,1.87-5.02,1.04-7.59,2.28,1.2,5.91,2.19,7.46,0,1.16-1.64-.73-4.25-1.99-5.71,.74,.14,1.65,.11,2,.12,1.64,.05,3.12,.12,4.45-.96,1.27-1.03,.78-2.82,.11-4.01-.42-.76-1.12-1.81-1.93-2.56,.71-.12,1.48-.39,1.93-.51,1.33-.35,3.28-1.09,4.02-2.35,.66-1.12,.28-2.11-.63-2.95-.51-.48-1.4-1.12-2.29-1.51,1.67-.42,3.41-1.33,3.8-2.87,.26-1.05-.55-1.87-1.32-2.43-.57-.42-1.5-1.12-2.35-1.38,1.57-.55,3.47-1.31,3.96-2.77,.33-.97-.12-1.75-.78-2.45-.67-.72-1.93-1.75-2.95-2.04-.36-.23-.7-.49-1.02-.78-.05-1.11-.13-2.22-.26-3.27-.62-5.11-.21-9.84,.89-14.41-.63,8.95,2.46,17.37,7.93,24.34-1.81,1.98-1.18,6.3-.07,8.42,1.16,2.21,4.28,1.08,6.03-.58-.1,1.11-.04,2.26,.06,3.35,.16,1.72,.47,3.88,1.77,5.15,1.88,1.85,4.73-1.88,6.08-4.2,.08,1.57,.55,3.11,1.21,4.53,.59,1.28,1.48,2.89,2.95,3.24,1.14,.28,2.25-.85,2.86-1.64,.49-.64,1.13-1.44,1.56-2.27,.2,.44,.44,.83,.52,1.02,.76,1.65,1.5,3.49,3.03,4.57,2.5,1.76,5-2.04,5.48-4.85,1.43,2.13,4.2,4.03,6.43,3.01,1.39-.64,1.86-2.19,2.11-3.57,.12-.69,.31-1.86,.21-2.84,1.72,1.43,3.99,2.6,5.94,1.22,1.32-.93,1.7-3.32,1.09-5.04,1.47,.45,3.08,.27,3.99-1.04,.69-1,.36-2.46,.02-3.51-.16-.5-.36-1.19-.65-1.82,2.02,.42,4.45-.07,5.58-1.67,.79-1.12,0-2.45-.68-3.38-.51-.7-1.16-1.3-1.8-1.89-.37-.35-.84-.9-1.38-.96,1.55-7.55-.46-15.4-10.05-15.22-4.16,.08-7.66,3.01-5.48,7.23,.79,1.54,2.59,2.36,4.08,2.23-1.94,5.23-8.39,5.39-12.03,1.53-2.74-2.91-3.38-7.4-3.72-11.19-.55-6.15,1.35-11.66,4.63-16.42,4.37,10.95,15.52,15.65,26.91,16.54-.05,1.16,.4,2.27,.88,3.34,.57,1.28,1.6,3.79,3.01,4.39,1.46,.62,2.38-.66,3.12-1.76,.93-1.39,2.13-3.34,2.72-5.19,.44,2.67,2.4,6.71,4.72,5.7,1.43-.62,2.08-2.8,2.61-4.11,.41-1.03,.78-2.07,1.16-3.11,.06-.18,.15-.37,.23-.56,1.19,2.57,4.09,5.76,6.93,4.14,1.3-.75,1.84-2.61,2.18-3.95,.2-.79,.45-1.76,.51-2.7,.47,.56,1.09,1.05,1.43,1.3,1.33,1.01,2.7,1.74,4.38,1.18,1.54-.51,2.31-2.25,2.61-3.7,.21-1.02,.56-2.76,.21-3.98,2.28,1.34,5.2,3.11,7.25,.65,.95-1.13,.81-2.78,.56-4.13-.12-.62-.29-1.73-.62-2.66,1.47,.91,3.81,1.02,5.09,.34,2.69-1.44,1.01-4.11-.25-6.12,1.7,.25,3.78-.28,4.53-1.29,.97-1.3,.49-2.72-.37-3.94-.53-.74-1.6-2.2-2.69-2.75,1.06,.11,2.77-.5,3.35-.66,1.96-.54,4.3-1.46,5.01-3.56,.51-1.51-.94-2.52-2.12-3.06Z"/><g><path class="cls-17" d="M3.37,172.73c-1.11-2.09,4.38-2.92,6.76-3.2-.57,.97-1.09,1.97-1.54,3.02-.52,1.22-.94,2.45-1.27,3.69-1.39-1.07-3.09-1.93-3.94-3.52Z"/><path class="cls-17" d="M5.23,185.85c-1.26-.61-2.48-1.31-3.48-2.29-2.58-2.52,2.57-4.4,5.11-5.29-.51,2.71-.6,5.45-.33,8.16-.43-.2-.88-.37-1.29-.58Z"/><path class="cls-17" d="M7.49,196.8c-1.56-.38-3.17-.87-4.42-1.92-3.01-2.52,1.28-4.74,3.74-6.41,.51,3.03,1.47,5.99,2.8,8.8-.68-.25-1.47-.32-2.12-.48Z"/><path class="cls-17" d="M13.28,206.32c-1.81,.32-3.7,.48-5.52,.13-4.8-.93,.49-5.21,2.81-7.27,1.3,2.37,2.85,4.62,4.62,6.67-.66,.12-1.36,.38-1.92,.48Z"/><path class="cls-17" d="M15.4,214.72c-3-.25-.33-5.4,1.03-7.54,1.73,1.82,3.63,3.47,5.66,4.89-2.16,1.07-4.13,2.86-6.69,2.64Z"/><path class="cls-17" d="M25.4,220.43c-1.28-.47-1.83-2.76-2.11-3.89-.32-1.25-.29-2.45,0-3.66,1.45,.93,2.96,1.76,4.52,2.45,1.27,.56,2.57,1.06,3.89,1.49-1.59,1.1-4.13,4.4-6.3,3.6Z"/><path class="cls-17" d="M37.07,223.37c-2.41,1.43-3.85-3.82-4.16-6.16,2.77,.83,5.62,1.39,8.49,1.68-1.58,1.36-2.46,3.37-4.33,4.48Z"/><path class="cls-17" d="M51.48,218.91c-.9,1.86-1.29,3.9-2.72,5.48-2.36,2.6-5.46-2.95-6.42-5.41,0,0,0-.01,0-.02,3.06,.25,6.15,.19,9.21-.14-.03,.03-.05,.06-.06,.09Z"/><path class="cls-17" d="M60.17,217.23c-1.03,1.51-.84,3.57-2.05,5.05-1.55,1.89-4.56-1.84-5.38-3.59,2.58-.34,5.14-.89,7.64-1.64-.09,.05-.16,.12-.21,.18Z"/><path class="cls-17" d="M66.67,214.69s0,.01,0,.02c-.14,.63-.01,1.34,0,1.97,.02,1.05,.01,2.27-.52,3.2-.89,1.55-4.47-1.87-4.89-3.11,1.85-.59,3.66-1.29,5.42-2.09,0,0,0,0,0,.01Z"/><path class="cls-17" d="M73.54,215.6c-.59,2.33-3.63,.54-5.53-.53-.05-.33-.13-.64-.27-.89,2.28-1.11,4.47-2.4,6.52-3.86-.93,1.38-.32,3.7-.71,5.28Z"/><path class="cls-17" d="M80.07,209.89c-.42,1.1-.91,1.98-2.21,1.54-.99-.34-1.9-1.08-2.72-1.72,0,0-.02,0-.02-.01,1.12-.83,2.2-1.71,3.22-2.65,.63-.57,1.22-1.17,1.8-1.79,.2,.73,.43,1.45,.67,2.17-.18,.84-.43,1.67-.74,2.47Z"/></g><g><path class="cls-17" d="M72.45,262.89c-2.2,.32-3.04-3.9-3.03-6.28,2.24,1.21,4.65,2.09,7.09,2.59-1.16,1.49-2.04,3.39-4.06,3.69Z"/><path class="cls-17" d="M84.76,263.99c-1.93,1.48-4.16-2.18-5.19-4.38,.04,0,.09,0,.13,.01,2.83,.16,5.61-.1,8.31-.71-1.22,1.59-1.56,3.78-3.26,5.08Z"/><path class="cls-17" d="M95.34,261.44c-.99,1.66-4.48-1.23-5.85-2.9,2.62-.73,5.16-1.78,7.56-3.12-.79,1.91-.6,4.16-1.71,6.02Z"/><path class="cls-17" d="M104.62,256.18c-.66,1.17-4.15-.91-5.79-1.83,1.79-1.13,3.5-2.41,5.1-3.81,.07,.61,.24,1.22,.4,1.83,.27,1.05,.87,2.78,.29,3.81Z"/><path class="cls-17" d="M111.69,248.96c.38,1.7-4.16,.64-6.2,.13,1.4-1.36,2.7-2.82,3.89-4.36,.79,1.37,1.96,2.65,2.31,4.22Z"/><path class="cls-17" d="M115.28,242.97c-.49,.07-3.37-.09-4.75,.2,1.25-1.78,2.34-3.63,3.26-5.55,1.36,1.7,4.7,4.92,1.49,5.35Z"/><path class="cls-17" d="M119.65,234.13c-.97,.75-2.28,1.09-3.44,1.44-.56,.17-1.27,.25-1.76,.61,.77-1.83,1.42-3.78,1.94-5.82,.96,1.11,5.65,1.91,3.26,3.77Z"/><path class="cls-17" d="M117.95,216.66c.09,.08,.18,.15,.28,.22,.91,.98,3.56,1.78,3.19,3.08-.21,.71-1.47,1.23-2.06,1.56-.54,.31-1.1,.58-1.65,.88,.18-1.93,.26-3.86,.24-5.74Z"/><path class="cls-17" d="M117.54,224.07c.33,.36,.86,.52,1.32,.74,.8,.37,1.78,.8,2.22,1.61,.71,1.33-3.4,2.22-4.41,2.67,.37-1.65,.66-3.33,.87-5.02Z"/></g><g><path class="cls-17" d="M127.35,228.6c-.85-1.73-1.27-4.66-.53-6.6,1.59,1.98,3.38,3.83,5.33,5.55-1.56,1.22-3.56,3.6-4.8,1.05Z"/><path class="cls-17" d="M134.9,236.22c-1.2-1.8-1.77-5.16-1.56-7.64,1.16,.95,2.36,1.86,3.62,2.71,.76,.52,1.55,1,2.35,1.45-1.32,1.82-3.31,5.12-4.4,3.48Z"/><path class="cls-17" d="M145.1,239.8c-.94,.2-2.11-2.24-2.45-2.86-.32-.58-.6-1.16-.86-1.77-.11-.29-.23-.59-.34-.89-.05-.17-.11-.35-.16-.52,2.17,1.03,4.43,1.79,6.72,2.28-1.1,1.05-1.46,3.45-2.92,3.76Z"/><path class="cls-17" d="M152.31,241.05c-1.16-1.38-1.77-3.36-2.96-4.7,0-.02,.01-.04,.01-.05,2.56,.43,5.15,.5,7.68,.23-.94,1.69-1.72,8.11-4.73,4.52Z"/><path class="cls-17" d="M164.08,239.58c-1.15,1.4-4.83-1.82-6.01-3.17,2.38-.35,4.69-1.02,6.89-2.03-.54,1.61,.33,3.75-.88,5.21Z"/><path class="cls-17" d="M171.77,234.99c-1.27,.98-3.62-.54-5.15-1.47,1.76-.98,3.43-2.19,4.97-3.64,.05,.04,.1,.09,.15,.13-.02,.07-.03,.15-.03,.23,.05,1.27,1.38,3.73,.06,4.74Z"/><path class="cls-17" d="M172.55,228.94c.72-.75,1.41-1.56,2.06-2.43,.24-.33,.48-.67,.71-1.03,.04,.09,.09,.19,.13,.28,.39,.89,.75,1.79,.91,2.75,.31,1.88-2.3,1.1-3.81,.43Z"/><path class="cls-17" d="M179.34,219.05c.87,.77,1.93,1.71,2.29,2.85,.58,1.83-3.39,1.84-5.15,1.56,.81-1.59,1.49-3.34,1.97-5.15,.28,.28,.64,.51,.89,.74Z"/></g><path class="cls-14" d="M157.39,183.87c-.05-.11-.11-.18-.19-.23,.22-.29,.45-.56,.68-.85,.37-1.38,1.58-2.71,2.43-3.7,.03-.03,.06-.07,.09-.1-8.98,6.1-12.59,17.93-9.99,28.34,1.13,4.53,4.4,8.4,9.14,9.14,4.21,.66,7.89-1.95,9.06-5.82,.73-.46,1.19-1.3,1.09-2.58-.03-.31-.47-.16-.54,.05-1.23,4.21-8.79-2.02-3.28-4.61,1.71-.8,3.83-.64,5.63-.34,5.46,.91,7.02,6.81,6.56,11.51-1.06,10.77-10.31,19.04-20.7,20.52-10.4,1.48-20.44-4.8-27.31-12-4.16-4.36-7.37-9.71-9.16-15.46-.57-1.83-.87-3.7-1.01-5.57-.5-3.12-.44-6.39-.04-9.44,.26-2.01,.65-4.06,1.32-6,.13-.52,.27-1.04,.44-1.54-4.69,8.9-6.6,18.13-5.36,28.51,.79,6.6-.7,14.78-2.84,21.02-2.1,6.14-6.28,11.42-11.16,15.59-9.55,8.16-24.56,10.54-35.01,2.83-4.98-3.67-7.74-9.4-6.93-15.57,.45-3.38,2.45-6.33,4.79-8.68,1.96-1.97,4.48-3.02,7.19-1.94,2.92,1.17,4.41,5.81,.68,7.62-.11-.4-.2-.81-.25-1.25-.08-.68-1.03-.26-1.09,.24-.65,6.03,4.82,8.51,9.98,6.66,5.24-1.89,8.13-7.43,7.77-12.76-.49-7.26-3.5-13.96-6.33-20.54-2.81-6.53-2.48-17.52,2.61-23.6,1.31-1.85,3.2-3.06,5.29-3.99-.02,0-.03-.02-.06-.01-5.04,.83-7.93,5.42-9.83,9.77-2.15,4.9-2.33,10.25-1.13,15.34-18.17,20.47-59.45,17.13-69.62-9.72-4.93-13.03-.98-28.34,12.33-34.17,4.81-2.11,10.74-3.32,15.8-1.45,2.91,1.08,4.69,3.58,5.57,6.45,.67,2.18,.1,4.47-1.49,6.04-.71,.97-1.66,1.74-2.76,1.85-.65,.06-1.33-.24-1.74-.75-.03-.04-.06-.07-.08-.11-.16-.23-.28-.49-.31-.78-.03-.3,.03-.58,.14-.84,.03-.12,.06-.23,.09-.32,.38-.99,1.16-1.59,2.02-2.12-.57,.24-1.14,.51-1.69,.82-.21-.26-.47-.49-.67-.7-.05-.05-.1-.08-.16-.09-6.16-6.23-12.04,1.81-13.61,8.01-2.27,8.99,1.98,17.96,11.05,20.78,8.9,2.76,18.68-3.44,23.45-10.48,5.52-8.14,6.88-19.55,14.63-26,3.52-1.03,6.43-3.45,9.76-4.96,4.33-1.96,9.74-2.44,14.44-2.78,9.53-.69,19,3.84,28.39,1.79,3.28-.71,6.25-2.53,9.01-4.34,4.26-2.8,8.06-4.76,13.2-5.41,4.74-.6,9.76,.37,14.19,2.04,1.67,.63,3.26,1.49,4.97,2.01,1.32,.4,2.64,.54,3.96,.77,.03,.05,.07,.09,.16,.1,.23,.01,.45,.04,.67,.06,.84,.18,1.67,.42,2.48,.83,.33,.17,.68,.05,.94-.19,5.7,1.76,8.84,6.5,12.42,11.88,3.33,4.99,7.2,10.18,13.78,10.28,5.6,.08,11.91-2.83,14.21-8.24,1.53-3.6,1.3-7.63-.31-11.02-.83-1.47-1.96-2.78-3.53-3.88-1.46-1.03-3.47-1.72-4.82-2.93,2.39,4.02-8.52,4.69-4.93-1.67,1.26-2.22,3.62-3.99,5.7-5.36,7.49-4.93,18.26,3.18,22.11,9.56,6.73,11.16,2.52,27.27-5.69,36.35-15.26,16.86-55.43,22.34-66.65-1.87Z"/><path class="cls-18" d="M13.22,187.25c2.57-2.95,6.1-5.23,9.96-6.54,.05-1.37,.22-2.76,.58-4.15,1.57-6.2,7.45-14.24,13.61-8.01,.06,.02,.11,.04,.16,.09,.21,.21,.46,.45,.67,.7,.55-.31,1.12-.58,1.69-.82-.85,.53-1.63,1.13-2.02,2.12-.04,.1-.07,.21-.09,.32-.11,.26-.17,.54-.14,.84,.03,.29,.15,.55,.31,.78,.02,.04,.05,.07,.08,.11,.41,.5,1.09,.81,1.74,.75,1.1-.11,2.05-.87,2.76-1.85,1.59-1.57,2.16-3.85,1.49-6.04-.88-2.87-2.66-5.37-5.57-6.45-5.06-1.87-10.99-.66-15.8,1.45-12.76,5.59-16.92,19.88-12.9,32.53,.81-2.09,1.94-4.07,3.47-5.83Z"/><path class="cls-14" d="M171.51,203.17c-1.8-.3-3.92-.46-5.63,.34-5.51,2.6,2.04,8.82,3.28,4.61,.07-.22,.51-.37,.54-.05,.11,1.29-.36,2.13-1.09,2.58-.14,.45-.31,.88-.51,1.29,.39,.38,.75,.77,1.08,1.14,1.85,2.12,3.43,4.52,4.52,7.12,.49,1.17,.92,2.41,1.21,3.68,1.71-2.74,2.83-5.85,3.16-9.21,.46-4.7-1.1-10.6-6.56-11.51Z"/><path class="cls-18" d="M167.77,212.56c-1.38,2.34-3.81,3.89-6.61,4.01,.07,3.08-.96,6.47-1.92,8.84-1.33,3.27-3.31,7.17-6.07,9.98,1.39,.07,2.78,.02,4.19-.18,6.8-.97,13.12-4.85,16.97-10.44-.37-1.88-1.08-3.74-1.88-5.31-1.01-1.99-2.63-4.92-4.68-6.89Z"/><path class="cls-18" d="M149.82,197.02c-8.49,5.81-20.46,9.68-29.91,5.41,.15,1.79,.45,3.56,.99,5.31,1.48,4.78,3.96,9.26,7.13,13.14,5.34,.13,10.69-2.14,15.08-5.06,2.83-1.88,5.54-4.1,7.91-6.63-.24-.6-.45-1.22-.6-1.85-.84-3.37-1.02-6.89-.59-10.31Z"/><path class="cls-18" d="M215.5,164.69c-.08,.18-.17,.35-.25,.52,5.9,2.83,10.57,8.4,12.97,14.7,3.7-6.49,5.65-14.56,4.54-21.93-5.3-3.97-11.73-5.98-18.1-5.17,.19,.28,.38,.56,.54,.86,1.6,3.39,1.84,7.42,.31,11.02Z"/><path class="cls-18" d="M205.18,172.53c-1.3,.29-2.61,.43-3.89,.41-3.38-.05-6.04-1.45-8.29-3.47-.39,1.36-.86,2.64-1.18,3.64-1.64,5.07-4.41,9.78-8.33,13.43-3.32,3.09-7.24,5.72-11.37,7.61-1.19,.54-2.48,1.08-3.81,1.5,9.49,5.41,22.4,5.71,33.96,2.52,2.05-4.67,3.48-9.61,3.82-14.68,.24-3.59,.18-7.49-.9-10.96Z"/><path class="cls-18" d="M87.67,218.74c.87,2.84,1.51,5.74,1.71,8.73,.22,3.32-.82,6.72-2.9,9.28,4.66,5.86,14.81,6.65,22.83,5.87,1.71-2.43,3.12-5.07,4.09-7.89,2.06-6.01,3.51-13.81,2.91-20.27-8.24,4.92-19.37,7.23-28.64,4.29Z"/><path class="cls-18" d="M74.85,247.64c-.25-2.44-.14-4.98,.33-7.41-2.35-1.01-3.91-3.27-3.55-6.66,.05-.51,1.01-.93,1.09-.24,.05,.44,.14,.86,.25,1.25,3.73-1.81,2.23-6.45-.68-7.62-2.7-1.09-5.23-.03-7.19,1.94-2.35,2.36-4.35,5.3-4.79,8.68-.81,6.17,1.95,11.9,6.93,15.57,3.7,2.72,7.97,4.18,12.36,4.58-2.85-2.28-4.33-6.11-4.75-10.09Z"/><path class="cls-18" d="M49.39,201.61c-.86-1.76-1.51-3.65-1.83-5.6-4.02,1.9-8.49,2.64-12.76,1.32-1.01-.32-1.96-.71-2.85-1.17-1.11,2.47-1.81,5.12-1.98,7.91-.23,3.66,.29,7.22,1.33,10.64,10.44,3.92,22.74,3.92,33.26,0-6.29-2.28-12.21-7.04-15.16-13.1Z"/><path class="cls-16" d="M32.47,162.41c-1.77,1.12-3.79,1.68-5.5,2.93-1.99,1.46-3.78,3.22-5.13,5.29-5.52,8.5-4.47,19.77,3.65,26.26,7.51,6,18.42,6.54,26.74,1.85,4.95-2.79,8.32-6.97,10.52-12.18,2.1-4.97,3.62-10.14,6.74-14.61,.08-.12,.32-.22,.45-.14,3.45,2.04,7.53,3.91,11.65,3.24,4.29-.69,7.66-3.4,10.62-6.43,.17-.18,.42-.23,.58-.03,3.67,4.49,9.02,7.66,14.99,6.77,5.58-.83,10.2-4.19,13.79-8.41,.15-.18,.44-.24,.59-.02,5.33,7.78,19.39,9.14,26.09,2.38,1.63-1.65,3.07-3.57,4.3-5.53,.36-.58,.68-1.23,1.32-1.55,3.82-1.92,8.29-2.29,11.83-4.85,2.61-1.88,5.75-5.94,9.41-4.32,3.06,1.35,5.16,4.4,6.95,7.1,2.04,3.07,3.77,6.51,6.66,8.88,3.36,2.76,7.19,5.15,11.37,6.45,4.61,1.42,9.93,1.7,14.17-.98,4.93-3.13,8.22-9,8.15-14.89-.04-3.11-.73-5.15-2.91-7.33-1.15-1.14-2.58-2.24-3.47-3.61-.85-1.3-.26-3.62,1.5-3.76,2.49-.2,5.06,1.54,7,2.89,2.22,1.54,4.88,3.41,6.32,5.77,1.31,2.15,1.94,4.86,2.2,7.55-.15-4.16-1.18-8.2-3.32-11.74-3.85-6.38-14.62-14.5-22.11-9.56-2.09,1.37-4.45,3.14-5.7,5.36-3.59,6.36,7.31,5.69,4.93,1.67,1.35,1.21,3.37,1.91,4.82,2.93,1.56,1.11,2.7,2.41,3.53,3.88,1.6,3.39,1.84,7.42,.31,11.02-2.3,5.41-8.62,8.32-14.21,8.24-6.59-.1-10.45-5.29-13.78-10.28-3.59-5.38-6.73-10.12-12.42-11.88-.26,.23-.61,.35-.94,.19-.81-.41-1.65-.65-2.48-.83-.22-.02-.44-.05-.67-.06-.09,0-.14-.04-.16-.1-1.31-.23-2.64-.37-3.96-.77-1.71-.52-3.3-1.38-4.97-2.01-4.43-1.66-9.45-2.63-14.19-2.04-5.14,.65-8.94,2.6-13.2,5.41-2.77,1.82-5.73,3.63-9.01,4.34-9.4,2.04-18.86-2.48-28.39-1.79-4.71,.34-10.11,.82-14.44,2.78-3.34,1.51-6.24,3.93-9.76,4.96-7.74,6.45-9.11,17.86-14.63,26-4.78,7.05-14.56,13.24-23.45,10.48-9.07-2.81-13.32-11.78-11.05-20.78,1.57-6.2,7.45-14.24,13.61-8.01,.06,.02,.11,.04,.16,.09,.21,.21,.46,.45,.67,.7,.55-.31,1.12-.58,1.69-.82-.85,.53-1.63,1.13-2.02,2.12-.04,.1-.07,.21-.09,.32-.11,.26-.17,.54-.14,.84,.03,.29,.15,.55,.31,.78,.02,.04,.05,.07,.08,.11,.41,.5,1.09,.81,1.74,.75,1.1-.11,2.05-.87,2.76-1.85,1.59-1.57,2.16-3.85,1.49-6.04-.88-2.87-2.66-5.37-5.57-6.45-1.27-.47-2.59-.74-3.94-.86,.26,1.54-.41,3.14-2.04,4.18Z"/><path class="cls-16" d="M79.93,204.44c-1.2-5.09-1.02-10.44,1.13-15.34,.15-.35,.32-.71,.49-1.07-2.42,2.57-4.71,5.27-7.19,7.8-7.61,7.78-17.3,12.76-28.33,12.96-8.8,.16-18.7-2.02-25.43-8.04-6.8-6.09-9.1-15.43-7.94-24.31,.61-4.68,2.21-9.01,4.7-12.73-9,7.14-11.26,19.9-7.05,31,10.17,26.86,51.45,30.2,69.62,9.72Z"/><path class="cls-16" d="M171.51,203.17c-1.8-.3-3.92-.46-5.63,.34-5.51,2.6,2.04,8.82,3.28,4.61,.07-.22,.51-.37,.54-.05,.11,1.29-.36,2.13-1.09,2.58-1.17,3.87-4.85,6.48-9.06,5.82-4.73-.74-8-4.61-9.14-9.14-2.29-9.16,.23-19.42,6.99-25.9-5.6,2.92-10.32,7.58-12.92,13.38-2.45,5.46-3.9,13.13-.43,18.5,5.65,8.73,19.87,9.37,26.57,1.58,.15-.18,.56-.26,.62,.06,1.15,6.84-4.66,12.12-10.59,14.27-7.23,2.62-15.23,.13-21.52-3.75-6.85-4.23-12.75-10.14-15.67-17.76-2.68-7-3.11-14.51-2.04-21.86-.08,.29-.17,.57-.25,.87-.67,1.94-1.06,3.99-1.32,6-.4,3.06-.46,6.33,.04,9.44,.14,1.87,.44,3.73,1.01,5.57,1.79,5.76,5,11.1,9.16,15.46,6.87,7.2,16.91,13.48,27.31,12,10.38-1.48,19.64-9.75,20.7-20.52,.46-4.7-1.1-10.6-6.56-11.51Z"/><path class="cls-16" d="M209.71,193.34c-8.68,4.12-18.75,4.98-27.97,2.14-8.73-2.7-16.05-8.29-21.66-15.42-.04,.09-.11,.18-.22,.22-.28,.12-.56,.25-.85,.37-.5,.67-.94,1.39-1.14,2.14-.23,.28-.46,.56-.68,.85,.07,.05,.14,.13,.19,.23,11.22,24.21,51.38,18.73,66.65,1.87,3.73-4.12,6.63-9.69,8.06-15.6,.2-1.4,.31-2.8,.33-4.19-2.59,11.74-11.72,22.17-22.71,27.39Z"/><g><path class="cls-17" d="M236.13,157.79c.57-.03,3.89-.32,4.11,.44,.25,.84-2.52,2.65-3.02,3.02-.98,.72-1.99,1.42-3,2.09,.04-1.77-.06-3.55-.3-5.3,.74,.01,1.63-.22,2.2-.25Z"/><path class="cls-17" d="M190.3,204.59c-.42,.82-1.78,4.14-2.97,2.97-1.29-1.27-2.98-3.92-3.27-5.97,2.57,.15,5.13,.12,7.63-.07-.51,1-.89,2.09-1.4,3.08Z"/><path class="cls-17" d="M199.77,201.18c-.55,1.54-1.07,3.12-1.82,4.58-.11,.22-.5,1.08-.78,1.06-.79-.05-1.5-.99-1.97-1.54-.8-.96-1.76-2.53-1.93-3.92,2.18-.23,4.3-.58,6.29-1.03,.18-.04,.35-.09,.53-.13-.11,.35-.21,.69-.32,.98Z"/><path class="cls-17" d="M208.44,202.51c-1.49,2.73-4.95-.97-6.35-2.82,2.6-.71,5.16-1.6,7.63-2.67-.44,1.82-.33,3.77-1.27,5.5Z"/><path class="cls-17" d="M218.14,194.96c-.06,1.18-.25,2.58-1.09,3.48-1.29,1.39-4.52-.75-5.65-2.2,2.42-1.15,4.74-2.48,6.9-4-.29,.84-.12,1.85-.16,2.72Z"/><path class="cls-17" d="M219.4,191.44c2.04-1.52,3.93-3.21,5.64-5.07,.04,.35,.15,.71,.27,1.09,.38,1.2,.81,2.45,.84,3.72,.1,3.72-4.84,.76-6.76,.26Z"/><path class="cls-17" d="M231.75,185.28c-.39,.68-2.1,.44-2.7,.36-.79-.11-2-.31-2.53-1,1.17-1.44,2.23-2.98,3.17-4.61,.07,1.82,3.1,3.44,2.06,5.26Z"/><path class="cls-17" d="M233.5,175.16c.74,.72,1.87,1.82,1.84,2.94-.02,.96-1.88,1.01-2.51,1.02-.8,.02-1.69-.12-2.34-.59,.71-1.39,1.34-2.83,1.86-4.35,.38,.37,.84,.69,1.15,.98Z"/><path class="cls-17" d="M233.08,171.79c.55-2.07,.91-4.3,1.07-6.56,.73,.37,1.71,.48,2.43,.68,1.2,.32,2.62,.66,3.54,1.56,1.99,1.94-5.99,4.35-7.04,4.33Z"/></g><path d="M185.4,131.01c-.13-.25-.25-.49-.36-.76-1.42-3.4-1.19-7.65-1.39-11.25-.42-7.72-.37-15.45-1.36-23.13-1.63-12.68-5.99-25-13.09-35.65-5.71-8.56-13.7-16.27-22.9-21.25,.08-.07,.15-.16,.18-.27,1.24-5.06,2.79-9.99,5.08-14.68,1.75-3.58,4.1-6.84,5.7-10.49,2.38-.22,4.2-2.31,4.48-4.82,.42-3.75-2.77-7.28-6.11-8.41-3.17-1.08-6.31,.98-7.12,4.09-.54,2.06,.12,5.14,1.87,6.67-1.61,4.87-2.81,9.76-4.73,14.54-1.38,3.45-2.57,8.26-5.92,10.37-.14-.05-.28-.12-.43-.17-6.31-2.29-13.18-2.97-19.86-2.97-6.03,0-12.41-.76-18.25,1.01-3.33,.46-6.61,1.13-9.83,1.99,.17-.25,.21-.55-.04-.78-4.03-3.7-6.33-8.89-8.6-13.78-1.44-3.12-2.06-6.32-.95-9.52,.05-.05,.1-.1,.15-.15,.14-.15,.15-.34,.09-.48,.06-.14,.11-.27,.17-.4,.54-1.16,1.27-2.91,1.03-4.24-1.36-7.61-9.8-3.67-12.73,.27-1.81,2.44-2.26,11.19,2.19,11.49,.83,.06,1.35-.12,2.1-.51,1.14-.6,3.59,4.99,4.11,6.01,2.35,4.65,3.07,10.83,1.64,15.93-7.78,3.5-14.96,8.48-21.18,15.26-10.14,11.05-13.52,26.6-14.39,41.23-.46,7.72,.46,15.57,1.95,23.14,1.4,7.12,3.76,13.78,2.9,20.71-3.29,5.18-10.04,8.46-7.17,15.67,2.43,6.12,9.48,7.96,15.28,5.57,1.74-.72,5.68-3.56,7.33-.97,1.05,1.65,1.09,3.52,2.42,5.12,2.3,2.77,5.24,4.42,8.71,5.3,6.46,1.64,14.04-.77,17.48-6.6,1.7,.51,4.02,4.2,4.73,4.99,1.69,1.89,5.46,2.7,7.86,2.73,3.12,.04,5.92-.52,8.68-1.98,1.33-.7,2.43-1.85,3.43-2.94,1.2-1.3,2.73-5.64,5.48-3.12,2,1.85,2.75,3.8,5.6,4.57,3.08,.82,6.86,1.42,10.04,.68,5.62-1.31,9.28-5.46,9.84-11.12,3.94,2.46,9.23,2.07,13.38,.26,2.17-.95,3.82-2.56,5.23-4.43,1.65-2.19,2.66-4.49,6.08-3.71,2.12,.48,4.18,.73,6.35,.8,5.96,.17,11.3-4.04,12.97-9.59,1.4-4.66-3.85-9.66-8.14-10.24Z"/><path class="cls-14" d="M145.42,29.07c2.4-5.45,5.42-11.32,6.18-17.3,.27,.1,.56,.18,.86,.21,.32,.03,.7-.39,.43-.67-1.52-1.58-2.64-2.82-3.01-5.09-.55-3.32,2.33-5.46,5.44-5.25,2.99,.2,4.85,3.59,5.44,6.14,.88,3.78-1.91,5.58-5.23,5.54-.35,0-.51,.55-.14,.66,.32,.1,.64,.16,.95,.2-4.82,7.86-9.01,15.88-10.93,24.98-1.56-.81-3.14-1.54-4.76-2.19,2.41-1.5,3.71-4.82,4.78-7.24Z"/><path class="cls-14" d="M75.77,16.2c-.23-.38-.77-.36-1.05-.04-2.32,2.64-3.96-1.01-4.53-2.83-.74-2.36-.64-4.19,.75-6.38,2.18-3.45,6.33-4.97,9.71-2.31,2.3,1.82,.53,4.85-.21,7.18-.64,.53-1.3,1.02-2.21,1.11-.39,.03-.53,.66-.07,.66,.7,.01,1.38-.22,2-.57-.52,4.01,.79,7.7,2.42,11.32,1.89,4.21,4.09,8.75,7.7,11.75,.01,0,.02,0,.03,.02-2.98,.84-5.9,1.87-8.74,3.09,.78-2.27,.58-4.95,.37-7.26-.51-5.61-3.36-10.98-6.17-15.73Z"/><path class="cls-2" d="M189.53,145.34c-5.17,5.45-12.09,2.21-18.37,2.74-.96,.08-1.68,.7-2.29,1.38-1.83,2.01-2.4,4.32-4.74,6.09-4.49,3.39-10.03,2.16-14.98,.9-.26-.07-.57,.2-.64,.48-.21,.14-.38,.34-.39,.62-.29,4.41-2.52,7.79-6.63,9.54-3.7,1.58-10.7,1.09-13.86-1.5-2.43-1.99-4.55-6.63-7.7-2.52-2.73,3.56-4.97,6.79-9.73,7.71-3.92,.76-8.94-.05-11.53-3.22-.96-1.17-3.29-5.81-5.22-4.79-.3-.03-.63,.11-.84,.47-3.89,6.9-12.51,8.2-18.98,5.05-3.21-1.57-5.89-5.48-7.7-8.43-.58-.94-1.56-1.8-2.77-1.45-3.78,1.11-6.73,3.02-10.87,2.35-3.26-.53-6.05-2.37-7.58-5.3-3.31-6.33,2.26-9.89,5-14.66-.26,1.64-.71,3.29-1.41,4.97-.24,.57,.58,.58,.79,.13,2.65-5.56,2.84-11.22,1.63-17.18-1.5-7.46-3.49-14.7-4.3-22.3-.87-8.17,.04-16.24,1.73-24.24,1.8-8.52,3.78-16.4,9.42-23.27,14.38-17.49,36.04-24.43,57.85-25.07,1.3,.06,2.61,.12,3.92,.15,8.46,.16,16.83,1.59,24.5,5.3,11.85,5.73,21.47,16.41,27.77,27.76,6.22,11.2,9.17,23.96,10.02,36.66,.41,6.11,.34,12.26,.74,18.38,.07,.04,.11,.12,.1,.26-.02,.2-.03,.39-.04,.58,.1,1.34,.21,2.68,.37,4.01,.01,.11,.04,.21,.05,.32,.65,1.74,1.41,3.43,2.35,5.02,.51,.74,1.08,1.43,1.7,2.06,.58,.44,1.18,.87,1.79,1.29-.03-.12,0-.25,.08-.35-.78-.76-1.52-1.53-2.17-2.38,1.16,.68,2.33,1.34,3.38,2.28,3.3,2.96,2.28,7.28-.44,10.15Z"/><g class="cls-20"><g><path class="cls-11" d="M66.63,149.26c0,2.01-1.63,3.64-3.64,3.64s-3.63-1.63-3.63-3.64,1.63-3.64,3.63-3.64,3.64,1.63,3.64,3.64Z"/><path class="cls-11" d="M65.66,155.76c0,.68-.56,1.24-1.24,1.24s-1.24-.56-1.24-1.24,.56-1.24,1.24-1.24,1.24,.55,1.24,1.24Z"/><path class="cls-11" d="M55.61,150.58c0,1.4-1.13,2.53-2.53,2.53s-2.54-1.13-2.54-2.53,1.13-2.54,2.54-2.54,2.53,1.14,2.53,2.54Z"/><path class="cls-11" d="M56.49,141.11c0,1.03-.84,1.87-1.87,1.87s-1.87-.84-1.87-1.87,.84-1.87,1.87-1.87,1.87,.84,1.87,1.87Z"/></g><g><path class="cls-11" d="M83.23,162.69c-1.88,.71-3.98-.23-4.69-2.11-.71-1.88,.23-3.98,2.11-4.69,1.88-.71,3.98,.23,4.69,2.11,.71,1.88-.23,3.98-2.11,4.69Z"/><path class="cls-11" d="M76.81,164.1c-.64,.24-1.36-.08-1.6-.72-.24-.64,.08-1.36,.72-1.6,.64-.24,1.36,.08,1.6,.72,.24,.64-.08,1.36-.72,1.6Z"/><path class="cls-11" d="M78.08,152.86c-1.31,.5-2.77-.16-3.27-1.47-.5-1.31,.16-2.77,1.47-3.27,1.31-.5,2.77,.16,3.27,1.47,.5,1.31-.16,2.77-1.47,3.27Z"/><path class="cls-11" d="M91.67,159.66c-.97,.37-2.05-.12-2.42-1.09-.37-.97,.12-2.05,1.09-2.42,.97-.37,2.05,.12,2.42,1.09,.37,.97-.12,2.05-1.09,2.42Z"/></g><g><path class="cls-11" d="M108.26,164.76c-1.88,.71-3.97-.23-4.69-2.11-.71-1.88,.23-3.98,2.11-4.69,1.88-.71,3.98,.23,4.69,2.11,.71,1.88-.23,3.98-2.11,4.69Z"/><path class="cls-11" d="M103.54,166.87c-.64,.24-1.36-.08-1.6-.72-.24-.64,.08-1.35,.72-1.6,.64-.24,1.36,.08,1.6,.72,.24,.64-.08,1.36-.72,1.6Z"/><path class="cls-11" d="M97.33,161.03c-1.31,.5-2.77-.16-3.27-1.47-.5-1.31,.16-2.77,1.47-3.27,1.31-.5,2.77,.16,3.27,1.47,.5,1.31-.16,2.77-1.47,3.27Z"/><path class="cls-11" d="M117.1,161.4c-.97,.37-2.05-.12-2.42-1.09-.37-.97,.12-2.05,1.08-2.42,.97-.37,2.05,.12,2.41,1.09,.37,.97-.12,2.05-1.08,2.42Z"/></g><g><path class="cls-11" d="M136.51,161.72c-1.88,.71-3.97-.23-4.69-2.11-.72-1.88,.23-3.98,2.11-4.69s3.98,.23,4.69,2.11c.71,1.88-.23,3.98-2.11,4.69Z"/><path class="cls-11" d="M130.09,163.12c-.64,.25-1.36-.08-1.6-.72-.24-.64,.08-1.35,.72-1.6,.64-.24,1.36,.08,1.6,.72,.24,.64-.08,1.36-.72,1.6Z"/><path class="cls-11" d="M127.83,157.29c-1.31,.5-2.77-.16-3.27-1.47-.5-1.31,.16-2.77,1.47-3.27,1.31-.5,2.77,.16,3.27,1.47,.5,1.31-.16,2.77-1.47,3.27Z"/><path class="cls-11" d="M145.49,159.86c-.97,.37-2.05-.12-2.42-1.09-.37-.97,.12-2.05,1.09-2.41,.97-.37,2.05,.12,2.41,1.09,.37,.97-.12,2.05-1.08,2.42Z"/></g><g><path class="cls-11" d="M158.17,153.62c-1.88,.71-3.98-.23-4.69-2.11-.71-1.88,.23-3.98,2.11-4.69,1.88-.71,3.98,.23,4.69,2.11,.71,1.88-.23,3.98-2.11,4.69Z"/><path class="cls-11" d="M151.75,155.02c-.64,.24-1.36-.08-1.6-.72-.24-.64,.08-1.35,.72-1.6,.64-.24,1.36,.08,1.6,.72,.24,.64-.08,1.36-.72,1.6Z"/><path class="cls-11" d="M148.01,149.88c-1.31,.5-2.77-.16-3.27-1.47-.5-1.31,.16-2.77,1.47-3.27,1.31-.5,2.77,.16,3.27,1.47,.5,1.31-.16,2.77-1.47,3.27Z"/><path class="cls-11" d="M162.19,141.25c-.97,.37-2.05-.12-2.42-1.09-.37-.97,.12-2.05,1.08-2.42,.97-.37,2.05,.12,2.42,1.09,.37,.97-.12,2.05-1.09,2.42Z"/></g><g><path class="cls-11" d="M178.53,145.1c-1.88,.71-3.98-.23-4.69-2.11-.71-1.88,.23-3.98,2.11-4.69,1.88-.71,3.98,.23,4.69,2.11,.71,1.88-.23,3.98-2.11,4.69Z"/><path class="cls-11" d="M167.71,147.01c-.64,.24-1.36-.08-1.6-.72-.24-.64,.08-1.35,.72-1.6,.64-.24,1.36,.08,1.6,.72,.24,.64-.08,1.36-.72,1.6Z"/><path class="cls-11" d="M179.2,136.51c-1.31,.5-2.77-.16-3.27-1.47-.5-1.31,.16-2.77,1.47-3.27,1.31-.5,2.77,.16,3.27,1.47,.5,1.31-.16,2.77-1.47,3.27Z"/><path class="cls-11" d="M188.92,140.95c-.97,.37-2.05-.12-2.41-1.09-.37-.97,.12-2.05,1.09-2.42,.97-.37,2.05,.12,2.42,1.09,.37,.97-.12,2.05-1.09,2.42Z"/></g></g><path class="cls-14" d="M175.7,106.16c-.85,4.23-1.64,9.01-.14,13.2,.8,2.23,2.06,4.35,3.46,6.26,1.29,1.77,3.36,4.3,5.69,5.79-.71-1.33-1.33-2.72-1.86-4.14-.01-.11-.04-.21-.05-.32-.16-1.33-.27-2.67-.37-4.01,.01-.19,.02-.38,.04-.58,.02-.14-.03-.22-.1-.26-.4-6.12-.33-12.27-.74-18.38-.43-6.4-1.39-12.81-3.04-19.03-.36,7.23-1.47,14.37-2.9,21.48Z"/><path class="cls-14" d="M50.73,128.71c.78,3.85,.97,7.58,.3,11.23,1.25-1.63,2.83-3.37,2.91-5.47,.29-7.32-.98-19.73-2.61-29.35-2.27-13.31,.08-29.5,9.86-40.39,.21-.23,.62-.22,.63,.16,.04,4.81,1.03,9.15,3.84,13.12,.15,.21-.06,.5-.25,.59-1.91,.93-3.73,2.34-4.97,4.07-.74,1.03-1.54,2.33-1.49,3.66,.04,1.01,1.42,.04,1.87-.18,2.84-1.33,5.58-3.13,8.77-3.47,3.58-.39,7.13,.4,10.22,2.27,2.78,1.68,5.25,3.8,8.05,5.45,.65-2.53-.49-5.22-2.08-7.2-.19-.24,.13-.57,.34-.62,11.42-2.77,20.19-12.18,21.91-23.92,1.07-7.34,1.48-18.05-4.12-23.86-17.72,2.47-34.48,9.71-46.32,24.11-5.65,6.87-7.62,14.75-9.42,23.27-1.69,8-2.6,16.06-1.73,24.24,.81,7.6,2.8,14.83,4.3,22.3Z"/><path class="cls-14" d="M124.67,34.88c-2.35,2.07-5.07,4.47-6.68,7.21-4.09,6.99-4.05,16.27-2.05,23.94,1.56,5.98,4.95,11.21,10.69,13.86,5.45,2.52,11.55,2.95,17.47,2.97,.26,0,.31,.33,.21,.51-.72,1.28-1.5,2.63-1.85,4.07-.41,1.71-.44,1.97,1.14,1.37,1.57-.6,3.02-1.42,4.44-2.32,2.62-1.67,5.2-3.63,8.1-4.8,5.73-2.31,13.02-2.81,18.92-.73-1.24-4.37-8.68-4.44-12.14-5.94-.2-.09-.21-.32-.12-.49,1.99-4.03,4.03-8.92,4.88-13.83-6.1-8.87-14.23-16.76-23.83-21.4-5.87-2.84-12.14-4.33-18.55-4.96-.21,.19-.42,.37-.61,.55Z"/><path class="cls-15" d="M189.97,135.19c-1.05-.94-2.22-1.59-3.38-2.28,.65,.85,1.39,1.62,2.17,2.38-.07,.11-.11,.23-.08,.35-.61-.42-1.21-.84-1.79-1.29-.61-.63-1.18-1.32-1.7-2.06-.94-1.59-1.7-3.28-2.35-5.02-.01-.11-.04-.21-.05-.32-.05-.46-.1-.92-.14-1.37,.1,2.05,.49,4.07,1.33,6,.8,1.84,2.28,4.47,1.66,6.55-1.22,4.03-5.42,4.29-9.01,3.85-4.43-.55-9.73-2.53-12.86,1.87-1.74,2.43-2.72,5.86-5.4,7.49-2.64,1.6-5.07,1.11-7.86,.44-2.2-.53-3.41,2.77-4.34,4.19-.84,1.28-1.81,2.62-3.17,3.39-2.64,1.5-5.36,.39-7.76-1.04-3.19-1.9-6.5-4.56-10.36-4.83-4.16-.3-7.11,1.87-10.15,4.38-2.03,1.67-4.16,3.14-6.9,2.53-3.85-.86-6.04-5.36-10.15-5.48-3.43-.1-5.78,2.98-7.88,5.28-2.12,2.32-4.35,4.62-7.39,5.66-2.67,.92-6.03,.77-7.93-1.55-2.07-2.52-2.49-5.9-4.18-8.64-1.07-1.74-2.78-3.52-4.96-3.6-2-.07-3.86,.77-5.62,1.65-3.29,1.64-6.74,3.66-10.55,2.77-1.97-.46-3.85-1.42-5.17-2.87,.16,.59,.41,1.2,.74,1.83,1.53,2.94,4.32,4.77,7.58,5.3,4.14,.67,7.09-1.24,10.87-2.35,1.2-.36,2.19,.51,2.77,1.45,1.81,2.95,4.49,6.86,7.7,8.43,6.47,3.15,15.09,1.85,18.98-5.05,.21-.36,.54-.5,.84-.47,1.92-1.01,4.26,3.62,5.22,4.79,2.59,3.17,7.61,3.98,11.53,3.22,4.76-.92,7.01-4.15,9.73-7.71,3.15-4.11,5.27,.53,7.7,2.52,3.16,2.59,10.16,3.08,13.86,1.5,4.1-1.75,6.33-5.13,6.63-9.54,.02-.27,.18-.48,.39-.62,.07-.27,.38-.55,.64-.48,4.95,1.27,10.49,2.49,14.98-.9,2.34-1.77,2.91-4.08,4.74-6.09,.61-.67,1.32-1.3,2.29-1.38,6.28-.53,13.2,2.71,18.37-2.74,2.72-2.87,3.74-7.19,.44-10.15Z"/><path d="M151.78,100.6c-2.35-6.63-8.67-8.9-15.14-9.74-8.36-1.09-17.56-.98-25.93-.48-5.21,.31-10.27,1.39-15.3,2.72-3.72,.99-7.48,1.58-11.26,2.02-5.25,.6-10.71,.43-13.44,5.95-2.38,4.81-.69,10.87,.6,15.75,.69,2.62,1.51,5.21,2.37,7.78,6.26,18.83,30.59,26.23,48.53,21.77,9.64-2.4,17.77-10.69,23.03-18.77,4.64-7.14,9.59-18.42,6.54-27.01Z"/><path class="cls-9" d="M139.28,133.37c-8.12,9.07-17.89,13.63-30.12,12.74-9.45-.68-19.46-3.88-26.69-10.13-8.11-7-11.28-20.92-10.7-31.26,.34-6.1,5.65-7.56,10.77-8.11,3.83-.6,7.66-1.24,11.49-1.83,4.49-1.01,8.91-2.23,13.52-2.8,8.4-1.02,17.42-.57,25.88-.05,7.2,.44,15.14,2.38,17.32,10.19,2.92,10.49-4.76,23.74-11.46,31.24Z"/><path class="cls-8" d="M150.74,102.13c-.42-1.52-1.07-2.81-1.88-3.92,.12,.66,.21,1.33,.27,2,.94,10.48-2.81,22.36-10,30.08-12.38,13.3-34.48,17.67-49.71,6.48-7.38-5.43-12.36-13.89-14.02-22.88-1.09-5.87-.47-11.83,2.61-16.43-3.34,1-6.02,3-6.26,7.27-.57,10.34,2.59,24.26,10.7,31.26,7.24,6.25,17.24,9.45,26.69,10.13,12.23,.89,22.01-3.67,30.12-12.74,6.7-7.5,14.39-20.75,11.46-31.24Z"/><path d="M140.12,105.1c-1.71-4.83-6.31-6.48-11.02-7.1-6.09-.8-12.79-.71-18.89-.35-3.8,.23-7.48,1.01-11.14,1.98-2.71,.72-5.45,1.15-8.2,1.47-3.83,.44-7.8,.31-9.79,4.33-1.73,3.51-.5,7.92,.44,11.47,.5,1.91,1.1,3.79,1.73,5.67,4.56,13.71,22.28,19.11,35.35,15.86,6.63-1.65,12.28-7.13,16.12-12.69,.22-.14,.39-.41,.44-.65,.07-.11,.14-.21,.21-.32,3.38-5.2,6.99-13.41,4.77-19.67Z"/><path class="cls-10" d="M128.77,98.98c2.29,.28,4.56,.86,6.45,1.95,0,.02-.02,.04-.02,.07,0,.14-.04,.27-.06,.41-.01,.02-.04,.03-.05,.04-1.29,1.63-1.97,3.63-3.44,5.18-1.33,1.39-1.67-1.29-1.87-2.27-.33-1.61-1.03-3.26-1.05-4.92,.03-.16,.04-.31,.04-.46Z"/><path class="cls-10" d="M126.75,98.79c.28,.02,.55,.04,.83,.06-.5,.66-.75,1.56-1.08,2.3-.63,1.39-1.38,2.82-2.45,3.91-1.6,1.63-3.07-2.62-3.87-5.09,.14-.62,.17-1.17-.03-1.51,2.22,.08,4.44,.2,6.6,.33Z"/><path class="cls-10" d="M119.08,98.43c-.65,.61-.74,2.02-.98,2.82-.49,1.68-1.04,3.36-1.86,4.91-.3,.57-.76,1.69-1.52,1.1-.77-.6-1.26-1.63-1.74-2.46-1.04-1.82-2.11-3.62-2.98-5.52,.01-.09,.03-.18,.04-.27,.02-.17-.02-.29-.07-.38,2.99-.25,6.06-.27,9.11-.2Z"/><path class="cls-10" d="M107.9,98.84c.33-.04,.67-.07,1-.1-.07,.07-.14,.15-.18,.24-.43,.94-.52,2.13-.74,3.13-.36,1.68-.75,3.38-1.31,5-.08,.25-.47,1.63-.95,1.22-.72-.61-1.2-1.58-1.68-2.39-1-1.69-2.11-3.31-3.11-5,0-.19,.03-.37,.03-.55,0-.07-.01-.13-.03-.18,2.3-.55,4.61-1.08,6.98-1.37Z"/><path class="cls-10" d="M98.05,100.87c.62-.14,1.25-.29,1.87-.44-.39,1.58-.58,3.19-.99,4.77-.1,.41-1.49,5.25-1.85,4.97-1.27-.96-2.41-2.84-3.31-4.13-.76-1.08-1.38-2.25-1.85-3.47,0-.11,0-.22,0-.32,0-.18-.06-.3-.16-.38,2.1-.34,4.19-.68,6.29-1Z"/><path class="cls-10" d="M89.68,102.2c.45-.07,.9-.15,1.35-.22-.09,.1-.16,.22-.16,.37-.12,3.22-.29,8.22-2.29,11.01-2.84-2.35-4.22-5.68-4.79-9.26,1.52-1.21,3.73-1.67,5.89-1.9Z"/><path class="cls-10" d="M131.01,128.97c-5.91,6.61-13.03,9.93-21.94,9.28-6.15-.45-12.61-2.36-17.68-6-.4-1.2-.21-2.76-.12-3.97,.11-1.61,.24-3.38,.99-4.83,.66-1.27,2.36,2.79,2.64,3.43,.9,2.08,2.12,4.12,3.52,5.93,.2,.14,.44,.23,.67,.15,.11-.16,.2-.34,.3-.51,.26-1.43,.8-2.77,1.2-4.16,.4-1.37,.71-2.8,1.39-4.07,.24-.45,1.56,2.77,1.66,3.01,.79,1.96,1.49,4.22,2.64,5.99,.13,.19,.3,.26,.47,.26,.08,.03,.17,0,.25-.05,.31-.12,.57-.45,.53-.81,.94-1.6,1.67-3.31,2.39-5.04,.43-1.02,.89-2.03,1.49-2.96,.76-1.17,1.39,.17,1.82,.86,.99,1.59,1.69,3.4,2.38,5.13,.12,.3,.23,.71,.38,1.14,.38,.34,.8,.66,1.27,.77,.28,.07,.54,.05,.79-.02,.02-.01,.03-.03,.05-.05,0-.02,0-.03,0-.05,1.46-1.6,2.31-3.9,3.31-5.73,.44-.81,.94-1.58,1.54-2.28,.35-.51,.43-.45,.23,.17,.21,.32,.4,.65,.58,.99,.74,1.34,1.01,3.13,2,4.29,.37-.28,.72-.57,1.05-.9,.15-.24,.3-.48,.45-.72,.91-1.64,1.63-3.38,2.56-5.01,1.67-2.92,2.76,.86,3.97,2.22-.92,1.3-1.87,2.49-2.8,3.53Z"/><path class="cls-19" d="M128.1,126.66c-.26,.53-.53,1.06-.82,1.58-.16,.24-.31,.48-.45,.72-.33,.33-.69,.62-1.05,.9-.25-.29-.45-.62-.63-.98-4.85,3.29-10.45,5.39-16.5,5.68-5.4,.26-10.97-.67-15.9-2.95-.5-.23-1.04-.49-1.58-.78,.02,.5,.09,.99,.23,1.43,5.07,3.65,11.53,5.56,17.68,6,8.91,.64,16.03-2.67,21.94-9.28,.93-1.04,1.88-2.23,2.8-3.53-.57-.65-1.12-1.83-1.72-2.59-1.25,1.36-2.59,2.64-4,3.81Z"/><path class="cls-6" d="M134.9,123.83c-.72-1.93-2.84-4.32-4.69-3.07-1.21,.82-1.82,2.2-2.38,3.49-.45,1.04-.89,2.11-1.29,3.19-.75-2.41-2.33-5.7-3.86-4.73-1.33,.84-2.18,2.74-2.83,4.09-.63,1.32-1.12,3.12-1.93,4.53-.37-1.21-1.15-2.56-1.47-3.29-.71-1.64-1.64-4.14-3.28-5.1-1.54-.91-2.65,.74-3.31,1.94-1.04,1.89-1.94,4.21-2.64,6.4-.63-2.16-1.89-4.22-2.68-6.29-.48-1.25-1.23-3.06-2.86-2.31-1.34,.62-1.71,2.95-2.01,4.19-.32,1.34-.8,2.73-1,4.13-.7-1.48-1.56-2.87-2.26-4.36-.52-1.11-.97-2.25-1.57-3.32-.74-1.31-2.02-2.35-3.29-1.01-1.29,1.36-1.38,3.94-1.47,5.67-.05,.95-.1,2.27,.17,3.4-.21-.17-.41-.33-.61-.5-5.9-5.1-8.21-15.24-7.8-22.76,.09-1.6,.65-2.75,1.5-3.6,.14,3.85,1.81,7.48,4.9,9.88,.2,.15,.48,.13,.65-.06,1.09-1.28,1.59-2.79,1.93-4.42,.39-1.85,.79-3.68,.98-5.55,.43,1.18,1.11,2.27,1.89,3.32,.66,.89,2.27,3.87,3.59,3.74,1.34-.13,1.59-2.43,1.89-3.36,.62-1.92,1.37-4.03,1.66-6.11,1.2,3.01,4.02,9.08,5.84,7.27,1.17-1.17,1.64-3.09,2.06-4.62,.35-1.25,.75-2.58,1.03-3.9,.61,2.12,1.74,4.16,2.83,6.03,.75,1.28,1.88,2.68,3.41,1.72,1.54-.97,2.28-3.36,2.88-4.95,.15-.4,.5-1.17,.82-1.99,.5,2.72,1.41,5.99,4.03,5.21,1.47-.43,2.49-2.28,3.2-3.49,.29-.49,.7-1.14,1.06-1.82,.07,1.44,.44,2.91,.72,4.26,.23,1.11,.77,3.13,2.3,2.76,1.39-.34,2.37-1.85,3.12-2.95,.75-1.09,1.81-2.51,1.98-3.86,0-.02,0-.03,0-.05,0-.02,.01-.04,.01-.07,1.49,1.1,2.66,2.61,3.24,4.71,1.56,5.61-1.04,12.29-4.46,17.62Z"/><path class="cls-4" d="M121.6,115.61c-6.81-1.09-14.53-1.05-21.02,1.56-4.46,1.79-8.85,4.12-12.64,7.1-.69,.54-1.43,1.16-2.14,1.84,1.05,1.83,2.33,3.47,3.84,4.77,.2,.17,.41,.34,.61,.5-.27-1.12-.22-2.45-.17-3.4,.09-1.73,.18-4.31,1.47-5.67,1.27-1.33,2.55-.3,3.29,1.01,.6,1.07,1.05,2.21,1.57,3.32,.7,1.5,1.56,2.89,2.26,4.36,.2-1.4,.68-2.79,1-4.13,.29-1.25,.66-3.57,2.01-4.19,1.64-.75,2.38,1.06,2.86,2.31,.8,2.07,2.05,4.13,2.68,6.29,.7-2.19,1.6-4.51,2.64-6.4,.66-1.2,1.77-2.85,3.31-1.94,1.64,.97,2.57,3.46,3.28,5.1,.31,.73,1.1,2.08,1.47,3.29,.81-1.41,1.3-3.21,1.93-4.53,.65-1.35,1.5-3.25,2.83-4.09,1.53-.97,3.1,2.32,3.86,4.73,.4-1.08,.84-2.15,1.29-3.19,.57-1.3,1.17-2.68,2.38-3.49,1.85-1.25,3.97,1.14,4.69,3.07,.63-.98,1.23-2.01,1.79-3.08-4.74-2.46-9.81-4.3-15.1-5.15Z"/><path d="M106.52,52.28c-.09-2.11-.42-4.38-1-6.6-1.56-5.9-4.97-11.54-10.84-13.45-5.9-1.93-12.54,.03-17.72,3.06-2.69,1.58-5.73,3.59-7.87,5.89-8.23,8.86-10.59,25.01-2.36,34.65,1.29,1.51,2.8,2.65,4.46,3.48-3.07,.39-6.17,1.47-8.96,3.01-.16,.09-.1,.38,.09,.29,4.37-1.87,8.33-2.79,13.09-1.9h0c3.89,.73,6.68,3.17,9.64,5.58,.31,.26,.9-.17,.67-.54-1.34-2.14-2.98-3.7-4.83-4.76,6.52-.49,13.2-3.65,17.21-7.78,5.3-5.46,8.74-13.27,8.41-20.94Z"/><path class="cls-12" d="M94.8,33.74c-3.77-1.32-7.74-1.49-11.6-.41-6.21,1.74-11.89,5.64-15.33,11.16-5.24,8.39-7.48,23.14,.66,30.73,8.85,8.25,24.44,4.26,30.94-4.97,3.61-5.12,5.76-11.63,5.74-17.91-.02-7.13-3.07-16.02-10.41-18.59Z"/><path d="M172.77,78.9c-4.65-2.74-10.13-3.04-15.21-1.64,.5-.44,.98-.92,1.43-1.44,8.23-9.64,5.86-25.79-2.36-34.65-2.14-2.3-5.17-4.32-7.87-5.89-5.17-3.03-11.81-4.98-17.72-3.06-5.86,1.91-9.28,7.55-10.83,13.45-.59,2.23-.91,4.49-1,6.6-.33,7.67,3.11,15.47,8.41,20.94,5.1,5.26,14.54,8.96,22.46,7.54-2.03,1.4-3.83,3.08-5.28,4.97-.09,.12,.09,.23,.18,.13,3.65-3.93,8.38-6.24,13.62-7.24,4.78-.91,9.04,.32,13.63,1.4,.58,.14,1.11-.78,.54-1.12Z"/><path class="cls-12" d="M126.25,70.24c-3.61-5.12-5.76-11.63-5.74-17.91,.02-7.13,3.07-16.02,10.41-18.59,3.77-1.32,7.74-1.49,11.6-.41,6.21,1.74,11.89,5.64,15.34,11.16,5.24,8.39,7.48,23.14-.66,30.73-8.85,8.25-24.43,4.26-30.94-4.97Z"/><path class="cls-7" d="M93.36,43.55c-3.39-4.48-10.22-4.54-14.52-.45-5.9,5.6-8.94,15.55-4.11,22.7,4.98,7.37,14.21,3.66,17.86-2.69,2.83-4.93,4.21-12.3,1.89-17.64-.31-.71-.68-1.35-1.11-1.92Z"/><path class="cls-13" d="M90.24,47.81c-2.13-2.81-6.41-2.85-9.12-.28-3.7,3.51-5.61,9.76-2.58,14.24,3.13,4.62,8.92,2.3,11.21-1.69,1.78-3.09,2.64-7.72,1.18-11.07-.19-.45-.43-.85-.7-1.21Z"/><path class="cls-5" d="M91.95,44.92c-1.47-1.93-4.41-1.96-6.27-.19-2.55,2.42-3.86,6.72-1.77,9.81,2.15,3.18,6.14,1.58,7.71-1.16,1.22-2.13,1.82-5.31,.82-7.62-.13-.31-.3-.58-.48-.83Z"/><g><path class="cls-7" d="M143.05,39.92c-5.46-1.33-10.79,2.93-11.55,8.82-1.04,8.07,2.88,17.7,11.14,20.2,8.52,2.57,13.33-6.13,12.15-13.36-.92-5.61-4.5-12.2-9.67-14.87-.69-.36-1.38-.61-2.07-.79Z"/><path class="cls-13" d="M143.72,44.97c-3.43-.84-6.78,1.84-7.25,5.54-.65,5.06,1.81,11.11,6.99,12.68,5.35,1.62,8.38-3.85,7.63-8.39-.57-3.52-2.83-7.66-6.07-9.34-.43-.22-.87-.39-1.3-.49Z"/><path class="cls-5" d="M146.31,43.71c-2.36-.58-4.66,1.26-4.99,3.81-.45,3.49,1.24,7.65,4.81,8.73,3.68,1.11,5.76-2.65,5.25-5.77-.39-2.42-1.94-5.27-4.18-6.43-.3-.15-.6-.27-.9-.34Z"/></g><path class="cls-16" d="M116.1,202.86c-2.21,3.9-3.97,7.91-4.49,12.6-.6,5.5,.1,11.34-1.65,16.67-2.88,8.77-11.32,17.31-20.5,19.21-2.81,.58-6.62,1.36-9.33,.03-2.04-1-3.26-4.01-.91-5.48,1.39-.86,3-1.14,4.58-1.46,2.41-.49,4.17-1.38,5.89-3.2,3.52-3.71,5.55-8.71,5.85-13.81,.59-10.06-5.76-17.73-9.65-26.45-1.62-3.62-3.03-7.71-2.41-11.73,.49-3.13,1.94-5.76,3.91-8.05-.65,.54-1.24,1.15-1.74,1.86-5.09,6.08-5.42,17.07-2.61,23.6,2.83,6.58,5.83,13.28,6.33,20.54,.36,5.32-2.53,10.87-7.77,12.75-5.16,1.86-10.63-.62-9.98-6.66,.05-.51,1.01-.93,1.09-.24,.05,.44,.14,.86,.25,1.25,3.73-1.81,2.23-6.45-.68-7.63-2.7-1.09-5.23-.03-7.19,1.94-2.35,2.36-4.35,5.3-4.79,8.68-.81,6.17,1.95,11.9,6.93,15.57,10.45,7.71,25.46,5.33,35.01-2.83,4.88-4.17,9.06-9.45,11.16-15.59,2.14-6.24,3.63-14.42,2.84-21.02-.44-3.65-.47-7.16-.15-10.56Z"/><path class="cls-16" d="M91.96,255.24c-7.04,1.57-15.09,1.57-20.79-3.5-2.37-2.11-4.85-5-5.42-8.22-.51-2.85-.53-5.97,.2-8.78,.56-2.12,1.63-4.5,4.06-4.82,2.7-.36,3.31,1.68,4.09,3.61,2.2-2.11,.74-5.81-1.82-6.84-2.7-1.09-5.23-.03-7.19,1.94-2.35,2.36-4.35,5.3-4.79,8.68-.81,6.17,1.95,11.9,6.93,15.57,8.44,6.22,19.84,5.87,28.94,1.21-1.39,.44-2.79,.84-4.22,1.16Z"/></g><path class="cls-5" d="M140.54,97.41c-2.85-5.46-10.47-5.41-15.83-5.3-9.46,.18-18.02,2.23-27.24,4.14-.25,.05-.52,.55-.13,.59,7.38,.72,14.95-.44,22.35-.58,3.33-.06,6.63-.27,9.96,.03,3.3,.3,5.9,1.83,8.83,3.18,1.13,.52,2.66-.89,2.05-2.06Z"/><path class="cls-5" d="M145.38,103.74c-.29-.44-.97-1.73-1.69-1.36-.94,.47-.9,1.41-.76,2.32,.14,.95-.11,2.23,.91,2.73,.56,.27,1.24,.04,1.66-.38,1.07-1.06,.61-2.24-.11-3.31Z"/><path class="cls-2" d="M76,5.55c-.75,.24-1.33,.37-1.97,.88-.72,.58-1.32,1.36-1.74,2.17-.78,1.5-1.02,4.52,1.34,4.7,1.04,.08,2.42-.9,2.09-2.1-.24-.87-.76-1.28-.49-2.19,.14-.47,.39-.86,.64-1.27,.22-.36,.37-.82,.69-1.09,.57-.46,.14-1.35-.57-1.12Z"/><path class="cls-2" d="M156.31,7.7c-1-.85-2-1.45-2.56-2.7-.5-1.11,.47-.84,1.27-1.62,.28-.28,.41-.78,.1-1.09-.75-.75-2.1-.45-2.92,.04-1.04,.61-1.58,1.59-1.77,2.76-.33,2.09,1.4,5,3.36,5.78,1.64,.65,4.17-1.77,2.53-3.17Z"/><path class="cls-2" d="M152.51,13.94c-.92,1.41-1.61,3-2.07,4.62-.27,.96,1,1.27,1.42,.46,.74-1.44,1.17-3.01,1.91-4.45,.5-.98-.71-1.47-1.27-.63Z"/><path class="cls-2" d="M80.71,22.84c-.68-1.82-1.29-3.65-2.21-5.37-.09-.18-.39,0-.34,.16,.59,1.87,1.11,3.76,1.64,5.64,.19,.66,1.12,.14,.91-.44Z"/><path class="cls-3" d="M74.61,44.47c2.1-2.91,5.11-4.52,7.74-6.81,.53-.46,.57-1.68-.32-1.76-8.57-.79-14.74,11.39-16.33,18.13-1.8,7.59,.36,21.11,10.33,21.91,1.47,.12,3.58-1.94,2.08-3.29-2.66-2.38-5.41-3.49-7.15-6.84-1.7-3.3-1.64-7.24-1.05-10.8,.63-3.81,2.45-7.44,4.69-10.54Z"/><path class="cls-3" d="M86.83,72.09c-.78-.39-1.7-.13-2.39,.31-.55,.35-1.53,.56-2.09,.68-.86,.19-1.73,1.06-1.28,2,.5,1.03,1.76,1.14,2.78,1.1,1.54-.05,3.04-.62,3.65-2.15,.28-.72,.05-1.6-.66-1.95Z"/><path class="cls-3" d="M140,71.16c-1.71-1.73-4.13-2.26-6.11-3.68-1.44-1.04-2.36-2.61-3.11-4.18-1.41-2.97-2.08-6.3-2.55-9.54-.91-6.35-.9-15.31,6.75-17.1,.73-.17,1.05-1.47,.15-1.63-17.95-3.12-15.23,39.09,2.62,39.67,1.63,.05,3.78-1.98,2.24-3.54Z"/><path class="cls-3" d="M149.44,71.89c-1.16-.23-2.51,.42-3.62,.74-.56,.16-1.93,.56-2.42,.12-.77-.69-1.92,.25-1.8,1.14,.52,3.76,6.29,3.04,8.43,1.28,1.13-.93,.95-2.97-.59-3.29Z"/><path class="cls-1" d="M71.72,178.52c-.19-1.12-1.62-.4-1.74,.39-.56,3.46-2.71,6.47-4.69,9.27-1.85,2.62-4.61,4.91-5.98,7.79-.88,1.85,1.35,2.59,2.66,1.93,3.09-1.57,5.62-5.97,7.28-8.88,1.8-3.15,3.1-6.85,2.47-10.49Z"/><path class="cls-1" d="M56.96,198.97c-1.35,.75-2.93,1.23-4.34,1.88-1.55,.71-3.15,1.31-4.75,1.89-1.21,.44-2.26,3.09-.31,3.23,4.09,.29,8.28-2.74,10.35-6.05,.45-.71-.26-1.33-.95-.95Z"/><path class="cls-1" d="M100.49,211.71c-2.56-5.43-5.76-10.55-7.43-16.36-.9-3.13-1.08-6.23-.35-9.41,.5-2.13,1.15-4.09,.81-6.29-.14-.94-1.29-.42-1.53,.15-1.77,4.16-4.23,7.69-4.22,12.34,.01,5.1,2.02,9.84,4.05,14.42,2.18,4.9,5.13,9.35,6.55,14.57,.78,2.85,.87,5.89,.62,8.82-.23,2.66-1.69,4.9-2.12,7.49-.22,1.33,1.42,1.91,2.37,1.22,8.17-5.95,4.81-19.37,1.23-26.95Z"/><path class="cls-1" d="M95.49,242.19c.05-1.07-1.26-.77-1.57-.05,.19-.45-.38,.3-.36,.29-.28,.22-.59,.41-.9,.59,.02-.01-.54,.29-.27,.16-.19,.09-.37,.17-.56,.26-.61,.29-1.12,.54-1.59,1.04-.95,.99-.79,3.03,.95,2.85,1.35-.14,2.45-1.12,3.27-2.13,.41-.51,.73-1.01,.93-1.63,.08-.25,.13-.51,.17-.76,.04-.23-.09-.4-.08-.61Z"/><path class="cls-1" d="M137.21,218.46c-.27-1.38-1.1-2.21-1.98-3.27-1.59-1.91-2.99-3.98-4.3-6.09-2.5-4.01-4.8-8.05-4.72-12.87,0-.6-.63-.5-.91-.16-2.69,3.42-.8,8.87,.61,12.42,1.38,3.46,5.22,11.13,9.24,12.03,1.1,.24,2.27-.99,2.06-2.06Z"/><path class="cls-1" d="M145.97,222.28c-.82-.73-1.67-.77-2.7-1.01-1.01-.23-1.95-.47-2.89-.93-.78-.38-1.84,.63-1.41,1.42,1.13,2.09,3.65,3.92,6.1,3.06,.89-.31,1.81-1.75,.91-2.54Z"/><path class="cls-1" d="M195.31,188.41c-2.24-.67-4.74-.14-7.06-.27-3.05-.17-6.06-.83-8.93-1.87-4.96-1.8-9.72-5.15-12.94-9.34-.41-.53-1.26,.22-1.15,.73,1.36,6.34,5.56,10.37,11.44,12.83,5.17,2.16,13.59,4.07,18.75,1.16,1.35-.76,1.45-2.77-.12-3.24Z"/><path class="cls-1" d="M205.63,187c-.34-.68-1.12-.81-1.79-.6-.27,.08-.52,.17-.77,.29-.11,.05-.23,.11-.34,.17-.02,0-.07,.03-.16,.07-.17,.07-.34,.12-.52,.18-.35,.11-.36,.08-.79,.23-.51,.18-1.24,.67-1.23,1.29,.01,.59,.1,1.26,.73,1.53,.52,.22,1.01,.31,1.57,.27,1.05-.07,2.14-.63,2.84-1.39,.49-.53,.81-1.32,.46-2.02Z"/></g></g></g></g></svg>