<?xml version="1.0" encoding="UTF-8"?><svg xmlns="http://www.w3.org/2000/svg" viewBox="0 0 194.65 184.37"><defs><style>.cls-1{mix-blend-mode:screen;opacity:.3;}.cls-1,.cls-2,.cls-3{fill:#fdf9d6;}.cls-4{fill:#fff;}.cls-5{fill:#f38784;}.cls-6{fill:#f17084;}.cls-7,.cls-8{fill:#89cca3;}.cls-9,.cls-10{fill:#c8dc68;}.cls-11{fill:#99cb68;}.cls-3,.cls-12,.cls-8,.cls-10{mix-blend-mode:multiply;}.cls-8{opacity:.4;}.cls-10{opacity:.5;}.cls-13{isolation:isolate;}</style></defs><g class="cls-13"><g id="Layer_2"><g id="_6"><g><g><path d="M30.52,159.66c7.12-12.65,11.92-26.91,24.28-35.54,.32,.38,.65,.75,1.02,1.08,.38,.34,1.24,.16,1.05-.48-.42-1.42-1.37-2.55-2.24-3.74-1.17-1.61-2.32-3.23-3.49-4.83-.39-.53-1.33-.24-1.01,.45,.3,.67,.65,1.32,1.02,1.95-6.53,4.53-11.53,10.31-15.31,17.36-4.69,8.73,11.31,9.83,.2,9.21-6.5-.36-13.27-3.01-17.3-8.24-3.29-4.28-2.87-10.31-2.04-15.31,1.83-.09,6.31,.38,6.69,.44-1.7-8.38-10.47-14.8-17.96-17.6-.44-.16-.97,.02-.87,.57,1.22,6.56-1.38,12.64-3.52,18.71-.94,2.66-1.46,5.23-.65,7.79,1.3-2.52,5.44-6.96,7.2-7.38-.59,11.62,4.09,23.03,14,29.52,9.38,6.15,3.24,16.12,8.91,6.04Z"/><path class="cls-9" d="M8.78,123.52s-.03-.05-.05-.07c.01,0,.03-.01,.04-.02-.06-.75-.1-1.5-.16-2.26,0-.03,0-.07,0-.1-2.87,.88-5.36,2.38-6.76,4.72,.59-2.57,1.72-5.13,2.55-7.44,1.34-3.73,2.06-7.42,1.84-11.38-.11-2.06,7.01,3.01,8.22,3.97,3.42,2.72,5.66,6.09,7.37,9.89-1.73-.46-3.82-.73-5.98-.74-3.15,19.53,5.88,21.65,14.31,25.86,10.57,5.29,12.89-3.97,7.98,5.29-5.47,10.3-30.84-4.18-29.35-27.73Z"/><path class="cls-10" d="M30.67,152.53c-7.86-2.67-26.79-15.58-17.46-27.09,.51-1.19,2.07-4.17,2.63-5.34,2.17,.02,4.25,.28,5.98,.74-1.71-3.8-3.95-7.18-7.37-9.89-1.22-.96-8.33-6.03-8.22-3.97,.22,3.96-.5,7.66-1.84,11.38-.83,2.31-1.96,4.86-2.55,7.44,1.39-2.33,3.89-3.83,6.76-4.72,0,.03,0,.07,0,.1,.05,.75,.1,1.51,.16,2.26-.02,0-.03,0-.04,.02,.02,.02,.03,.04,.05,.07,.12,1.58,.29,3.15,.62,4.69,.58,5.58,1.21,11.08,4.62,15.92,3.8,5.4,8.82,9.77,15.49,11.01,6.57,1.23,7.13-.6,1.16-2.62Z"/></g><path d="M57.88,165.15c4.2,2.89,10.11,4.39,15.08,5.27,3.57,.89,7.44,1.34,11.31,1.36,1.98-.24,3.97-.32,5.92-.81,.36-.09,.48,.16,.43,.44,.19-.03,.38-.04,.57-.07,5.11,5.65,15.66,5.92,22.57,5.12,9.6-1.12,17.7-3.76,24.08-11.28,20.04-1.86,35.57-13.8,43.59-31.94,1.94-4.39,3.46-8.92,4.51-13.6,.33-1.45,.42-2.93,.37-4.4,.16-7.91-2.95-15.96-6.15-22.98-3.3-7.24-8.62-18.9-16.81-21.86,.38-3.27-1.98-7.14-4.25-9.07-1.53-1.28-4.14-2.78-6.38-2.8,1.83-5.17,2.61-10.75,2.85-16.2,4.94-.63,9.73-2.99,13.43-6.9,1.49-1.57,2.6-3.6,3.36-5.8-.04-.11-.05-.24,0-.39,1.07-2.63,1.31-5.45,1.02-8.24-.25-2.38-.88-4.73-1.71-6.94-.73-1.94-1.86-3.92-3.18-5.52-4.5-5.5-11.8-8.32-18.83-7.85-5.23,.35-10.23,3.7-13.15,8.04-6.35,9.44-5.86,21.52,3.29,29.08,1.83,1.51,3.83,2.63,5.91,3.4-.08,.39-.16,.78-.23,1.17,0,.16-.02,.32-.03,.48-1.09,3.72-1.47,7.71-2.61,11.41-.12,.39-.25,.76-.38,1.14-.02-.02-.04-.03-.07-.04-2.91-1.2-9.08-3.07-13.01-1.59-1.38,1.22-2.61,2.6-3.46,4.24-.04,.19-.06,.36-.08,.55-.03-.04-.06-.08-.13-.11-1.13-.39-2.48-.24-3.66-.28-1.21-.04-2.44-.13-3.64-.32-.28-.27-.58-.52-.92-.75-3.36-2.28-7.3-3.34-11.34-3.22,0-.01,0-.03-.01-.05-1.03-2.37-2.07-4.73-2.79-7.19-.09-.3-.16-.63-.23-.96-1.24-3.41-2.2-6.7-1.53-7.97-.11-.27-.21-.53-.34-.78,1.81-.66,3.56-1.6,5.16-2.88,8.47-6.71,9.12-17.7,3.52-26.39-2.58-4-7.06-7.14-11.82-7.56-6.38-.56-13.07,1.88-17.27,6.8-1.22,1.44-2.29,3.22-2.99,4.97-.8,1.99-1.42,4.12-1.68,6.28-.31,2.53-.15,5.1,.78,7.52,.05,.13,.04,.25,0,.35,.65,2.01,1.63,3.88,2.96,5.34,3.11,3.43,7.13,5.59,11.35,6.38,1.05,3.77,.93,7.97,2.04,11.78,.5,1.69,.98,3.42,1.53,5.12-.37-.13-.78-.19-1.12-.22-.96-.09-1.86-.08-2.77,.24-.09,.03-.15,.07-.21,.11-.76,.17-1.48,.39-2.07,.63-2.4,.98-5.36,3.42-6.3,6.18-.01,0-.02-.01-.04-.01-1.32-.26-2.89,.36-4.16,.68-1.21,.31-2.41,.47-3.63,.67-2.05-2.06-5.75-2.97-8.33-2.81-.64,.04-1.38,.15-2.14,.33-.07-.02-.15-.02-.24-.02-.96,.11-1.77,.48-2.6,.98-.3,.18-.64,.41-.92,.68-.24-1.77-.55-3.53-.84-5.28-.65-3.91-2.58-7.65-3.27-11.5,3.46-2.54,6.14-6.23,7.47-10.67,.56-1.88,.63-3.99,.35-6.09-.08-.07-.14-.18-.15-.32-.21-2.58-1.17-4.97-2.55-7.11-1.18-1.83-2.66-3.48-4.24-4.93-1.4-1.28-3.12-2.41-4.85-3.18-5.92-2.62-13-1.91-18.51,1.35-4.11,2.44-6.79,7.21-7.38,11.93-1.28,10.27,4.07,19.88,14.61,22.26,2,.45,3.98,.54,5.9,.36-.01,.28,.01,.56,.03,.85,1.15,.85,1.71,4.24,2.07,7.84,.08,.33,.16,.66,.21,.97,.41,2.53,.5,5.11,.6,7.68,0,.02,0,.03,0,.05-3.69,1.65-6.79,4.31-8.83,7.82-1.32,2.28-1.16,5,.67,6.54-4.59,7.42-9.02,14.09-11.93,22.45-2.67,7.65-2.9,16.04-1.62,23.98,2.09,12.99,11.3,25.69,22.56,32.87,1.75,1.62,3.7,3.06,5.78,4.29,.47,.31,.96,.62,1.47,.91Z"/><path class="cls-2" d="M139.92,35.64c-6.23-6.19-8.25-14.96-4.79-22.61,0-.02,0-.04,0-.06,.18-.82,.6-1.5,1.13-2.09,.49-.81,1.04-1.61,1.67-2.38,3.36-4.11,7.33-5.99,11.47-6.35,4.9-.87,11.25,.53,14.81,3.74,2.66,1.6,4.63,4.41,5.96,7.31,3.66,7.93,3.33,18.59-4.92,23.55-7.96,4.79-18.25,5.94-25.34-1.11Z"/><path class="cls-11" d="M145.08,54.03c1.12-4.02,2.33-8.27,1.8-12.45,2.47,.76,5.04,1.05,7.59,.86,0,.28,0,.56,0,.84-1.75,7.83-2.86,16.06-6.58,23.2,0,0,0,.02,0,.02-1.56,.19-3.15,.13-4.6-.28-1.53-.44-2.61-1.12-3.52-1.96,3-2.55,4.28-6.5,5.32-10.22Z"/><path class="cls-2" d="M83.28,32.62c-7.42-4.66-7.52-14.36-4.05-21.51,1.27-2.62,3.11-5.14,5.56-6.55,3.3-2.85,9.09-4.01,13.54-3.13,3.76,.4,7.33,2.19,10.32,5.98,.56,.71,1.04,1.45,1.48,2.2,.48,.55,.84,1.17,.99,1.92,0,.02,0,.04,0,.06,3.01,7.02,1.02,14.96-4.77,20.48-6.58,6.28-15.91,5.04-23.07,.55Z"/><path class="cls-11" d="M92.99,38.76c0-.26,0-.51,0-.77,2.31,.22,4.66,0,6.92-.64-.04,.3-.06,.59-.09,.89,1.46,2.72,1.21,6.01,2.05,8.93,1.3,4.5,3.71,8.57,4.82,13.15,.02,.07,.01,.14,0,.19,.16,.5,.32,.99,.47,1.49-1.24,.78-2.67,1.44-4.08,1.7-.77,.15-1.64,.19-2.53,.12-.41-.65-.83-1.29-1.25-1.93,0-.05,0-.11-.02-.16-1.09-3.28-2.44-6.44-3.58-9.69-1.15-4.37-1.84-8.89-2.73-13.29Z"/><path class="cls-2" d="M40.16,46.75c-7.6-2.47-12.84-8.76-13.17-16.39,0-.02-.02-.03-.02-.05-.19-.74-.13-1.46,.06-2.16,.07-.86,.18-1.73,.38-2.62,1.05-4.71,3.49-7.88,6.71-9.86,3.62-2.72,9.35-4.18,13.56-3.04,2.82,.21,5.57,1.68,7.85,3.49,6.22,4.94,10.33,13.73,5.67,21.14-4.5,7.15-12.38,12.31-21.03,9.5Z"/><path class="cls-3" d="M157.04,29c-6.73-2.25-12.77-6.92-16.15-13.24-1.24-2.32-2.25-4.87-2.78-7.46-.06,.07-.12,.13-.17,.19-.63,.77-1.18,1.57-1.67,2.38-.53,.59-.95,1.27-1.13,2.09,0,.02,0,.04,0,.06-3.46,7.65-1.44,16.42,4.79,22.61,7.09,7.05,17.38,5.89,25.34,1.11,2.68-1.61,4.51-3.83,5.65-6.35-4.68,.47-9.39,.11-13.88-1.39Z"/><path class="cls-3" d="M96.05,23.43c-7.28-.71-14.17-4.88-17.52-10.7-2.71,6.93-2.12,15.58,4.75,19.89,7.16,4.5,16.49,5.73,23.07-.55,4.22-4.03,6.41-9.34,6.12-14.64-4.55,4.03-10.04,6.62-16.43,6Z"/><path class="cls-3" d="M61.05,22.62c-2.45,7.03-7.65,12.6-16.25,12.95-6.82,.28-13.19-2.55-17.76-7.63,0,.07-.02,.14-.02,.21-.19,.7-.25,1.42-.06,2.16,0,.02,.01,.03,.02,.05,.33,7.63,5.56,13.92,13.17,16.39,8.65,2.81,16.53-2.35,21.03-9.5,3-4.77,2.36-10.11-.13-14.63Z"/><path class="cls-11" d="M48.71,49.48c-.15-.26-.3-.52-.46-.76,2.32-.4,4.53-1.22,6.52-2.42,.12,.22,.23,.45,.34,.68,1.11,4.35,2.45,8.73,3.3,13.17,.38,3.42,.53,6.86,.97,10.28,0,.06,.03,.11,.06,.15-.1,.76-.21,1.52-.29,2.28-.77,.44-1.57,.78-2.33,.98-1.39,.37-2.96,.4-4.41,.23-.08-.52-.15-1.03-.22-1.55-.04-.05-.07-.11-.09-.18-.99-4.61-.57-9.32-1.35-13.94-.51-3-2.16-5.85-2.02-8.94Z"/><path class="cls-9" d="M44.62,153.26c-2.4-2.08-4.63-4.41-6.58-6.93-4.83-6.24-6.67-13.82-7.79-21.47-1.16-7.94,.04-15.67,1.89-23.39,1.17-4.9,2.79-9.37,5.5-13.6,1.49-2.32,3.06-4.52,4.33-6.96,.37,.25,.79,.47,1.27,.63,.03,0,.07,.01,.1,.01,2.35,1.61,5.52,1.64,8.53,1.04,.3-.14,.59-.29,.87-.46,0-.19-.15-.38-.41-.35-2.09,.26-5.29,.43-7.53-.58-1.27-.44-2.48-1.15-2.82-2.39-1.08-4,3.9-8.48,7.05-10.06,.16-.08,.31-.08,.43-.05,.13-.08,.27-.16,.4-.24,.09,1.72,.25,3.41,.53,5.09-.84-.38-1.66-.89-2.51-1.16-.47-.15-1.36,.44-1,.98,1.18,1.78,3.08,2.72,5.19,3.01,5.36-.1,10.49-2.48,11.95-7.82,0-.6-.1-1.18-.19-1.76-.22,1.85-1.45,3.58-3.02,4.89-.04-.05-.08-.09-.12-.11-.04-.36-.08-.71-.12-1.07,.05-.07,.08-.15,.09-.24,.22-2.31,.09-4.64-.15-6.96,.92-.91,2.38-1.13,3.5-1.69,.07-.04,.14-.09,.19-.15,.65-.21,1.32-.38,2.05-.41,2.35-.11,5.79,.82,7.08,3.08,1.95,3.42-.6,6.35-2.51,9.03,1.59-.81,3.04-1.77,4.23-3.11,.78-1.38,1.2-2.91,.97-4.42-.11-.68-.36-1.29-.71-1.84,.62-.02,1.27-.14,1.78-.23,1.62-.28,3.49-.49,5.04-1.02-.1,.69-.07,1.38,.14,2.07,.45,1.46,1.49,2.66,2.79,3.56,1.65,.69,3.38,.93,5.16,.97-2.88-1.59-6.45-3.12-6.18-7.05,.18-2.6,2.88-4.93,5.04-5.85,.67-.28,1.35-.42,2.02-.52,.08,.03,.16,.05,.24,.05,1.25,.02,2.66-.41,3.91,0,.76,2.21,1.65,4.36,2.85,6.34,.04,.07,.11,.13,.18,.17,.12,.34,.24,.68,.36,1.02-.03,.05-.05,.1-.06,.16-1.98-.5-3.84-1.53-4.84-3.1,.17,.56,.34,1.12,.59,1.67,3.62,4.18,9.28,4.1,14.15,1.87,1.78-1.18,3.08-2.85,3.37-4.96,.09-.64-.97-.79-1.32-.45-.65,.62-1.17,1.43-1.76,2.13-.47-1.63-1.06-3.23-1.73-4.82,.15,.01,.31,.03,.47,.04,.09-.09,.23-.15,.41-.14,3.52,.06,9.95,1.93,10.71,6.01,.24,1.27-.55,2.43-1.5,3.38-1.58,1.88-4.54,3.12-6.54,3.79-.24,.08-.3,.32-.22,.49,.32,.03,.65,.04,.99,.04,2.97-.76,5.81-2.17,7.23-4.63,.03-.02,.06-.04,.09-.06,1.97-1.89,1.8-4.43,.31-6.33,.62,.14,1.25,.24,1.9,.32,1.48,.17,3.19,.46,4.67,.3,.11-.01,.21-.08,.28-.16-.34,4.15,2.83,7.34,6.43,9.47,.43,.26,.8-.33,.4-.62-3.03-2.25-8.34-7.01-4.25-11.01,3.67-3.59,9.5-1.41,13.85-.6-.88,2.57-1.89,5.01-3.13,7.46-.98-1.06-1.81-2.31-2.93-3.6-.31-.36-1.17-.48-1.06,.23,.55,3.63,4.6,6.55,8,7.33,2.49,.58,8.37,1.39,9.44-1.86,.07-.21-.15-.4-.35-.32-1.04,.42-2.19,.77-3.37,.98,1.49-2.22,2.68-4.61,3.61-7.09,2.01,.89,4.19,1.3,5.94,2.81,1.88,1.63,3.82,4.85,3.15,7.53-1.03,4.11-5.24,4.42-8.69,5.09-.54,.11-.29,.89,.14,.98,3.2,.61,7.53-.14,9.51-2.95,.22-.31,.38-.64,.51-.98,.6,.43,1.13,.97,1.65,1.51,.22,.23,.46,.49,.73,.72,.07-.09,.15-.16,.22-.24,12.01,12.56,20.93,30.48,18.38,47.89-.85,3.21-2.24,6.35-3.47,9.32-2.9,6.99-6.36,13.17-11.44,18.81-11.35,12.6-28.74,16-44.86,13.47,1.53,.73,3.11,1.37,4.74,1.84,2.16,.29,4.38,.36,6.61,.27-5.48,5.84-12.09,8.11-20.04,9.35-6.96,1.08-17.33,1-23.43-3.49,2.53-.43,4.98-1.09,7.26-2.01,.94-.38,.59-1.72-.43-1.48-4.37,1.02-8.79,1.93-13.27,2.23-4.32,.29-8.65-.57-12.92-1.05-11.18-1.27-19.89-8.48-28.11-15.61Z"/><path class="cls-9" d="M127.47,154.15c-1.12,.47-2.26,.94-3.41,1.34-1.78,.63-3.57,1.21-5.4,1.67-4.19,1.07-8.47,1.82-12.8,2.09-6.33,.4-12.62,.03-18.82-1.11,8.38,3.26,17.37,4.62,26.36,3.47,4.49-.57,16.98-1.74,16.84-8.25-.02-.83-2.42,.62-2.78,.78Z"/><path class="cls-10" d="M165.61,73.72c-.07,.08-.15,.16-.22,.24-.26-.23-.5-.49-.73-.72-.52-.53-1.05-1.07-1.65-1.51-.14,.34-.3,.67-.51,.98-1.98,2.82-6.31,3.56-9.51,2.95-.43-.08-.68-.87-.14-.98,3.46-.68,7.67-.98,8.69-5.09,.67-2.67-1.27-5.9-3.15-7.53-1.75-1.52-3.93-1.92-5.94-2.81-.94,2.48-2.12,4.87-3.61,7.09,1.18-.22,2.33-.56,3.37-.98,.2-.08,.42,.11,.35,.32-1.07,3.25-6.95,2.44-9.44,1.86-3.39-.78-7.45-3.7-8-7.33-.11-.72,.75-.59,1.06-.23,1.11,1.29,1.95,2.54,2.93,3.6,1.24-2.44,2.25-4.89,3.13-7.46-4.34-.8-10.18-2.99-13.85,.6-4.09,4,1.23,8.76,4.25,11.01,.39,.29,.03,.88-.4,.62-3.59-2.14-6.77-5.32-6.43-9.47-.08,.08-.17,.14-.28,.16-1.48,.16-3.19-.12-4.67-.3-.65-.07-1.28-.17-1.9-.32,1.49,1.89,1.66,4.43-.31,6.33-.02,.02-.06,.04-.09,.06-1.42,2.46-4.26,3.87-7.23,4.63-.33,0-.66,0-.99-.04-.08-.17-.03-.41,.22-.49,2-.67,4.96-1.91,6.54-3.79,.95-.94,1.74-2.11,1.5-3.38-.76-4.08-7.19-5.95-10.71-6.01-.18,0-.31,.06-.41,.14-.16-.02-.32-.03-.47-.04,.66,1.58,1.25,3.19,1.73,4.82,.6-.71,1.12-1.52,1.76-2.13,.35-.34,1.41-.19,1.32,.45-.29,2.12-1.59,3.79-3.37,4.96-4.88,2.23-10.53,2.31-14.15-1.87-.25-.54-.42-1.1-.59-1.67,1,1.57,2.85,2.6,4.84,3.1,.02-.05,.03-.11,.06-.16-.12-.34-.23-.68-.36-1.02-.07-.04-.14-.1-.18-.17-1.2-1.98-2.09-4.14-2.85-6.34-1.25-.42-2.66,.01-3.91,0-.08,0-.16-.02-.24-.05-.68,.1-1.35,.23-2.02,.52-2.17,.92-4.86,3.24-5.04,5.85-.28,3.93,3.29,5.46,6.18,7.05-1.78-.04-3.51-.28-5.16-.97-1.3-.9-2.34-2.1-2.79-3.56-.21-.69-.24-1.38-.14-2.07-1.55,.53-3.42,.74-5.04,1.02-.52,.09-1.16,.22-1.78,.23,.36,.55,.61,1.16,.71,1.84,.23,1.51-.19,3.04-.97,4.42-1.19,1.34-2.64,2.3-4.23,3.11,1.91-2.68,4.47-5.61,2.51-9.03-1.29-2.27-4.73-3.2-7.08-3.08-.72,.03-1.39,.2-2.05,.41-.06,.06-.12,.11-.19,.15-1.12,.56-2.58,.78-3.5,1.69,.25,2.33,.37,4.65,.15,6.96,0,.09-.04,.17-.09,.24,.04,.36,.08,.71,.12,1.07,.05,.03,.09,.07,.12,.11,1.57-1.31,2.8-3.04,3.02-4.89,.09,.58,.18,1.16,.19,1.76-1.45,5.34-6.58,7.72-11.95,7.82-2.11-.29-4-1.23-5.19-3.01-.36-.54,.53-1.13,1-.98,.85,.28,1.67,.78,2.51,1.16-.28-1.68-.44-3.37-.53-5.09-.13,.08-.27,.16-.4,.24-.12-.04-.27-.03-.43,.05-3.14,1.58-8.13,6.05-7.05,10.06,.34,1.25,1.55,1.95,2.82,2.39,2.24,1.01,5.44,.84,7.53,.58,.26-.03,.41,.16,.41,.35-.28,.17-.57,.32-.87,.46-3.01,.6-6.18,.57-8.53-1.04-.03,0-.07,0-.1-.01-.48-.16-.9-.38-1.27-.63-1.27,2.44-2.84,4.64-4.33,6.96-2.72,4.23-4.33,8.7-5.5,13.6-1.85,7.72-3.05,15.45-1.89,23.39,1.12,7.65,2.95,15.23,7.79,21.47,1.95,2.51,4.17,4.84,6.58,6.93,8.22,7.12,16.93,14.33,28.11,15.61,4.27,.49,8.61,1.34,12.92,1.05,4.48-.3,8.9-1.21,13.27-2.23,1.02-.24,1.37,1.1,.43,1.48-2.28,.92-4.73,1.57-7.26,2.01,6.1,4.49,16.47,4.57,23.43,3.49,7.95-1.24,14.56-3.5,20.04-9.35-2.23,.09-4.44,.02-6.61-.27-1.64-.47-3.21-1.11-4.74-1.84,16.12,2.53,33.51-.87,44.86-13.47,5.08-5.64,8.54-11.81,11.44-18.81,1.23-2.97,2.62-6.12,3.47-9.32,2.56-17.41-6.37-35.33-18.38-47.89ZM59.81,144.07c-3.58-2.13-6.93-2.29-10.97-1.76-2.44,.32-5.57,1.05-7.89-.2-4.1-2.2-4.43-8.1-4.77-12.2-.93-11.12,2.23-24.9,11.26-32.22,.21-.17,.51-.15,.67,.07,1.89,2.56,3.24,5.46,4.97,8.12,.2,0,.36,.1,.32,.39,0,.05,0,.1-.02,.15,.04,.12,.02,.24-.04,.35-1.56,12.75,2.55,24.78,7.17,36.5,.14,.36-.24,1.07-.7,.8Zm47.85-33.01c-12.07,1.17-25.65,.43-36.66-5.14-4.18-2.12-9.22-5.2-10.89-9.86-1.32-3.69-.26-7.47,1.99-10.56,5.29-7.29,14.88-12.62,23.63-14.39,.09-.02,.17,0,.23,0,3.8-.84,7.98-1.07,11.67-1.1,2.59-.02,8.16,.44,5.68,3.82,8,3.2,14.61-4.1,21.17-7.65,.2-.11,.42-.03,.55,.14,4.98,6.67,12.32,3.69,19.16,5.83,4.7,1.47,2.44,5.22,.1,7.9,6.93,.98,13.03-1.82,19.75-3.15,.29-.06,.46,.16,.48,.42,.23,2.85,.16,6.51-1.89,8.79-1.88,2.09-4.1,2.29-6.77,2.28-6.88-.03-15.98-.05-19.21,7.2,2.49-.27,4.85-1.14,7.39-1.04,.42,.01,.41,.56,.2,.8-.37,.42-.76,.82-1.15,1.21-9.29,9.08-22.74,13.28-35.43,14.5Zm65.21,20.71c-1.59,2.56-3.43,5.77-5.92,7.55-2.42,1.73-5.82,1.54-8.6,1.98-2.6,.41-4.75,1.32-6.75,3.06-.51,.45-1.1,1.06-1.83,1.15-3.18,.39-6.19-.95-9.32-1.13-.44-.03-.39-.55-.2-.8,9.71-12.12,18.3-28.74,14.28-44.65-.11-.17-.21-.33-.32-.51-.28-.5,.58-1.19,.88-.65,.02,.04,.04,.07,.07,.11,.11,.03,.21,.12,.25,.28,.02,.07,.03,.14,.05,.22,3.94,5.69,11.54-3.92,12.78-8.05,.09-.31,.7-.74,.91-.28,6.16,13.22,12.24,28.05,3.71,41.73Z"/><path d="M157.3,94.11c-.59-2.58-3.09-4.71-5.8-4.65-3.1,.06-5.92,1.87-8.38,3.63-.23,.17-.19,.49,.12,.49,1.6-.04,3.38-1.44,4.8-2.04,.73-.31,1.38-.48,1.98-.53-.09,.06-.16,.14-.22,.25-2.86,5.29-7.17,9.43-12.27,12.65-.32-.07-.81,.16-.88,.54-11.73,7.05-27.39,9.47-39.79,9.79-10.22,.25-20.5-1.44-30.04-5.1-4.17-1.6-8.23-3.42-11.71-6.27-4.77-3.91-8.8-14.32,.32-16.72,.09-.02,.09-.18-.02-.16-8.41,1.77-6.4,11.47-2.53,16.82,1.27,1.75,3,3.11,4.9,4.26-.24,12.04,2,26.29,9.48,35.96,8.48,10.97,23.11,13.24,36.11,12.52,14.46-.8,27.02-7.93,35.7-19.28,.13-.1,.24-.24,.29-.38,.13-.17,.26-.33,.39-.5,8.58-11.71,15.81-29.7,11.8-44.24,1.71,.47,2.99,1.96,4.36,3.65,.47,.58,1.54,.06,1.38-.68Z"/><path class="cls-2" d="M150.51,92.69c.02,.08,.02,.16,.04,.24-1.07,4.81-1.27,9.22-4.77,13.12-2.35,2.61-5.56,.62-8.14-.72,.01-.08,.03-.17,.04-.25,5.18-3.1,9.73-7.11,12.83-12.39Z"/><path class="cls-2" d="M122.91,111.42c4.6-1.41,9.24-3.23,13.5-5.61-1.04,5.85-3.15,13.5-10.27,13.33-3.86-.09-7.07-2.85-9.68-5.47,.02-.17,.04-.34,.05-.5,2.16-.52,4.29-1.1,6.4-1.75Z"/><path class="cls-2" d="M115.1,113.5c-1.73,4.23-3.8,10.01-8.97,10.83-4.36,.7-8.9-4.91-11.29-8.36,6.8-.06,13.63-.96,20.26-2.47Z"/><path class="cls-2" d="M84.2,115.37c2.88,.37,5.78,.56,8.69,.6-1.65,3.32-2.6,8.44-6.71,9.29-2.49,.52-5.06-4.05-6.17-5.69-1.19-1.75-2.33-3.55-3.23-5.47,2.45,.53,4.92,.95,7.41,1.28Z"/><path class="cls-2" d="M65.8,110.77c3.1,1.25,6.27,2.22,9.49,2.99-1.06,3.26-3.39,10.88-7.34,9.46-3.44-1.23-5.2-7.16-6.2-10.18-.42-1.28-.64-3.25-1.34-4.58,1.8,.87,3.66,1.61,5.38,2.31Z"/><path class="cls-2" d="M70.77,142.97c1.74-2.93,6.25-9.3,9.43-7.36,2.63,1.6,2.83,6.93,2.98,9.57,.1,1.89-.06,3.92,.14,5.86-4.69-1.8-8.97-4.47-12.55-8.07Z"/><path class="cls-2" d="M101.78,153.85c-5.78,.28-11.56-.44-16.9-2.23,.01-.48,0-.97,0-1.46,.6-1.89,1.91-3.54,3.02-5.17,1.29-1.88,2.13-3.9,3.71-5.61,4.55-4.93,8.99,10.49,10.24,14.46-.03,0-.05,0-.07,0Z"/><path class="cls-2" d="M103.55,153.72c-.02-.13-.05-.26-.08-.41,2.28-4,1.65-9.33,4.76-12.98,4.29-5.03,10.26,5.1,13.49,8.56-5.57,2.71-11.73,4.32-18.17,4.84Z"/><path class="cls-2" d="M123.45,147.99c-.06-.09-.12-.19-.18-.29,.69-3.16,1.8-6.32,2.88-9.35,1.08-3.01,2.69-4.61,6.07-4.15,1.88,.26,3.44,1.2,5.14,1.84-3.84,5.08-8.57,9.06-13.92,11.95Z"/><path class="cls-5" d="M151.11,99.05c.04,12.01-5.78,24.89-11.87,34.33-.26,.4-.53,.77-.8,1.15-3.08-2.55-9.68-3.32-12.06,0-1.65,2.3-2.31,5.02-3.03,7.71-.25,.94-.87,2.38-1.2,3.76-2.88-4.14-7.89-9.72-12.06-8.44-6.26,1.94-5.23,9.07-6.94,14.29-1.31-5.63-5.07-17.75-10.75-14.88-2.94,1.48-4.43,4.66-5.86,7.45-.41,.8-1.14,1.83-1.75,2.93-.11-2.06-.3-4.13-.58-6.09-.32-2.21-1.41-6.75-4.16-7.2-4.2-.68-8.11,4.71-9.74,8.44-1.2-1.25-2.31-2.61-3.33-4.09-6.43-9.35-7.19-20.39-8.9-31.19,.51,.29,1.03,.56,1.55,.83,.48,.56,.84,3.68,.98,4.25,.5,2.15,1.29,4.2,2.21,6.2,1.09,2.37,3.11,5.87,6.12,5.91,3.95,.04,6.2-6.01,7.37-9.71,.67,2.54,2.22,5.01,3.59,7.09,1.19,1.81,3.15,4.88,5.67,4.81,2.51-.07,4.21-2.01,5.58-3.9,1.1-1.51,2.7-4.02,3.22-6.18,2.34,4.55,7.11,9.79,12.48,8.98,4.13-.62,8.45-6.47,9.43-10.84,2.38,3.57,7.32,6.69,11.49,5.66,6.36-1.56,8.66-8.24,9.7-14.12,2.45,1.71,5.17,3.2,8.04,1.48,2.59-1.54,4.61-5.08,5.58-8.65Z"/><path class="cls-6" d="M110.61,123.67c-1.2,.97-2.48,1.66-3.74,1.85-2.28,.35-4.45-.4-6.38-1.73-.85,.09-1.7,.19-2.55,.32-7.31,1.11-13.58,3.57-19.83,7.37-1.32,.8-7.44,4.45-10.5,7.8,.84,1.14,1.73,2.24,2.69,3.24,1.63-3.73,5.54-9.12,9.74-8.44,2.75,.45,3.84,4.99,4.16,7.2,.28,1.96,.48,4.02,.58,6.09,.6-1.1,1.34-2.13,1.75-2.93,1.43-2.8,2.92-5.97,5.86-7.45,5.68-2.87,9.44,9.25,10.75,14.88,1.71-5.22,.68-12.35,6.94-14.29,4.16-1.29,9.17,4.3,12.06,8.44,.33-1.38,.95-2.82,1.2-3.76,.72-2.7,1.38-5.41,3.03-7.71,2.38-3.33,8.98-2.56,12.06,0,.17-.25,.35-.5,.52-.75-8.25-5.84-18.2-9.33-28.35-10.11Z"/><path d="M76.22,165.78c0-.09-.03-.15-.06-.21-.23-8.56-3.06-17.11-13.18-17.38-2.23-.06-4.34,.54-6.3,1.58-.62-3.22-6.95-3.58-9.54-3.33-2.61,.25-5.04,1.32-7.22,2.87-2.38-3.7-8.9-1.42-12.2-.34-5.69,1.85-9.76,6.92-11.41,12.51-2.72,9.22,3.76,23.78,14.65,15.56,.07-.05,.12-.12,.17-.19,.17,.37,.34,.73,.53,1.09,2.94,5.68,8.32,6.54,13.33,3.36,1.42,2.54,3.95,3.93,8.18,2.49,2.28-.78,4.15-2.02,6.08-3.47,3.41-2.57,6.21-3.31,10.35-4.31,3.96-.95,5.97-3.59,6.51-7.08,.03-.05,.04-.11,.05-.17,0-.05,0-.11,0-.16,.11-.89,.14-1.83,.07-2.82Z"/><path class="cls-7" d="M30.26,175.65c-10.21,7.78-13.84-5.95-12.82-13.07,.71-4.92,3.71-8.84,7.84-11.45,3.12-1.97,10.98-4.53,14.06-1.38-3.37,2.57-6.1,6.23-7.89,9.64-2.72,5.2-2.87,10.86-.89,16.11-.1,.03-.2,.08-.3,.16Z"/><path class="cls-7" d="M32.51,175.67c-2.38-4.6-1.9-9.51-.23-14.21,1.62-4.56,5.18-8.29,9.1-10.97,2.92-1.99,11.85-4.33,14.29-.14-6.04,3.81-10.42,11.85-11.71,17.85-.69,3.21-.93,8.21,.43,11.81-5.32,3.11-9.31,.62-11.87-4.34Z"/><path class="cls-7" d="M74.7,166.12c-.46,3.96-.11,7.61-6.77,8.67-1.61,.26-2.98,.57-4.5,1.18-2.6,1.04-4.79,3.21-7.05,4.8-4.77,3.35-10.46,1.95-11.63-3.86-.63-3.1,.16-6.63,.9-9.64,1.97-7.96,8.59-16.19,17.12-16.97,8.78-.8,11.3,8.23,12.11,15.44-.09,.12-.17,.25-.18,.38Z"/><path d="M134.18,168.59c0,.05,0,.1,0,.16,0,.06,.02,.12,.05,.17,.54,3.49,2.55,6.13,6.51,7.08,4.14,1,6.94,1.74,10.35,4.31,1.93,1.45,3.79,2.69,6.08,3.47,4.23,1.44,6.76,.06,8.18-2.49,5.01,3.18,10.39,2.32,13.33-3.36,.19-.36,.36-.72,.53-1.09,.05,.07,.1,.13,.17,.19,10.89,8.22,17.38-6.35,14.65-15.56-1.65-5.59-5.72-10.66-11.41-12.51-3.3-1.07-9.82-3.36-12.2,.34-2.18-1.55-4.61-2.62-7.22-2.87-2.59-.25-8.92,.11-9.54,3.33-1.96-1.05-4.07-1.64-6.3-1.58-10.12,.28-12.95,8.82-13.18,17.38-.03,.06-.05,.12-.06,.21-.06,.98-.04,1.93,.07,2.82Z"/><path class="cls-7" d="M179.76,175.49c1.98-5.26,1.84-10.91-.89-16.11-1.79-3.41-4.52-7.07-7.89-9.64,3.08-3.15,10.94-.59,14.06,1.38,4.13,2.61,7.13,6.53,7.84,11.45,1.02,7.12-2.6,20.85-12.82,13.07-.11-.08-.21-.13-.3-.16Z"/><path class="cls-7" d="M165.94,180.01c1.36-3.59,1.12-8.6,.43-11.81-1.29-6-5.68-14.05-11.71-17.85,2.44-4.19,11.38-1.85,14.29,.14,3.92,2.67,7.48,6.41,9.1,10.97,1.67,4.7,2.14,9.61-.23,14.21-2.57,4.97-6.55,7.45-11.87,4.34Z"/><path class="cls-7" d="M135.44,165.74c.8-7.21,3.33-16.24,12.11-15.44,8.53,.78,15.15,9.02,17.12,16.97,.75,3.01,1.53,6.54,.9,9.64-1.17,5.8-6.86,7.2-11.63,3.86-2.26-1.59-4.45-3.76-7.05-4.8-1.53-.61-2.9-.92-4.5-1.18-6.66-1.06-6.31-4.72-6.77-8.67-.02-.13-.09-.26-.18-.38Z"/><path class="cls-7" d="M19.45,156.98c.18,.93,.53,1.88,1.12,2.85,1.99,3.28,5.2,5.45,8.77,6.55,.24-2.37,.92-4.73,2.11-7,1.79-3.41,4.52-7.07,7.89-9.64-3.08-3.15-10.94-.59-14.06,1.38-2.41,1.52-4.42,3.5-5.82,5.86Z"/><path class="cls-8" d="M18.73,158.35c-.62,1.31-1.07,2.71-1.29,4.22-1.02,7.12,2.6,20.85,12.82,13.07,.11-.08,.21-.13,.3-.16-.98-2.59-1.43-5.28-1.32-7.97-4.46-1.23-9.19-4.59-10.51-9.17Z"/><path class="cls-7" d="M34.06,167.24c3.52,.18,7.04-.25,10.46-1.17,1.76-5.65,5.8-12.34,11.14-15.71-2.44-4.19-11.38-1.85-14.29,.14-3.92,2.67-7.48,6.41-9.1,10.97-.63,1.76-1.09,3.56-1.29,5.35,1.01,.22,2.04,.37,3.08,.43Z"/><path class="cls-8" d="M43.95,168.21c.07-.3,.15-.62,.23-.93-4.36,1.13-8.86,1.42-13.28,.61-.14,2.63,.3,5.25,1.61,7.78,2.57,4.97,6.55,7.45,11.87,4.34-1.36-3.59-1.12-8.6-.43-11.81Z"/><path class="cls-7" d="M67.27,150.89c-1.28-.52-2.76-.76-4.5-.6-7.93,.72-14.21,7.9-16.63,15.29,8.26-2.61,15.81-8.04,21.13-14.7Z"/><path class="cls-8" d="M68.09,151.28c-5.52,6.9-13.58,12.85-22.32,15.54-.04,.15-.09,.3-.12,.44-.75,3.01-1.53,6.54-.9,9.64,1.17,5.8,6.86,7.2,11.63,3.86,2.26-1.59,4.45-3.76,7.05-4.8,1.53-.61,2.89-.92,4.5-1.18,6.66-1.06,6.31-4.72,6.77-8.67,.02-.13,.09-.26,.18-.38-.61-5.47-2.22-11.98-6.79-14.46Z"/><path class="cls-8" d="M192.88,162.57c-.6-4.2-2.89-7.67-6.11-10.22-1.6,3.26-4.14,6.22-7.15,8.66,1.97,4.74,1.92,9.76,.14,14.47,.1,.03,.2,.08,.3,.16,10.21,7.78,13.84-5.95,12.82-13.07Z"/><path class="cls-8" d="M166.21,167.53c.06,.23,.12,.46,.17,.68,.69,3.21,.93,8.21-.43,11.81,5.32,3.11,9.31,.62,11.87-4.34,2.27-4.4,1.94-9.09,.44-13.6-3.74,2.73-8.02,4.67-12.05,5.46Z"/><path class="cls-8" d="M136.67,159.36c-.62,2.09-1,4.31-1.23,6.37,.09,.12,.17,.25,.18,.38,.46,3.96,.11,7.61,6.77,8.67,1.61,.26,2.98,.57,4.5,1.18,2.59,1.04,4.79,3.21,7.05,4.8,4.77,3.35,10.46,1.95,11.63-3.86,.59-2.94-.08-6.26-.79-9.16-9.83,1.46-20.9-1.46-28.12-8.39Z"/><path d="M44.84,20.05c1.85-.07,3.83,.22,5.35,1.18,2.59,1.01,4.98,3.93,5.81,6.69,.9,2.24,.96,4.79-.29,7.61-.24,.53-.51,1.02-.8,1.49-.17,.43-.41,.83-.79,1.13,0,0-.02,0-.03,.02-3.06,3.79-8.13,5.04-12.97,3.43-4.72-1.57-7.4-6.44-7.2-11.2,.27-6.26,4.49-10.12,10.91-10.35Z"/><path class="cls-4" d="M47.85,23.63c.84-.03,1.74,.1,2.43,.54,1.18,.46,2.27,1.79,2.64,3.04,.41,1.02,.43,2.18-.13,3.46-.11,.24-.23,.47-.36,.68-.08,.19-.19,.37-.36,.51,0,0,0,0-.01,0-1.39,1.72-3.69,2.29-5.9,1.56-2.14-.71-3.36-2.93-3.27-5.09,.12-2.84,2.04-4.6,4.96-4.71Z"/><path d="M94.26,6.66c1.85-.06,3.83,.22,5.35,1.18,2.59,1.01,4.98,3.93,5.81,6.69,.9,2.24,.96,4.79-.29,7.61-.23,.53-.51,1.02-.8,1.49-.17,.43-.41,.83-.79,1.13-.01,0-.02,.01-.03,.02-3.06,3.79-8.13,5.04-12.97,3.43-4.72-1.58-7.4-6.44-7.2-11.2,.27-6.27,4.49-10.12,10.91-10.35Z"/><path class="cls-4" d="M97.27,10.24c.84-.03,1.74,.1,2.43,.54,1.18,.46,2.27,1.79,2.64,3.04,.41,1.02,.44,2.18-.13,3.45-.11,.24-.23,.47-.36,.68-.08,.19-.19,.37-.36,.51,0,0,0,0-.01,0-1.39,1.72-3.7,2.29-5.9,1.56-2.15-.71-3.36-2.93-3.27-5.09,.12-2.85,2.04-4.6,4.96-4.71Z"/><path d="M154.37,10.52c1.86-.07,3.83,.22,5.35,1.18,2.59,1,4.98,3.93,5.81,6.69,.9,2.24,.96,4.79-.29,7.61-.24,.53-.51,1.02-.8,1.49-.17,.43-.41,.82-.79,1.13-.01,0-.02,.01-.03,.02-3.06,3.79-8.13,5.04-12.97,3.43-4.72-1.58-7.4-6.44-7.2-11.2,.27-6.27,4.49-10.12,10.91-10.35Z"/><path class="cls-4" d="M157.39,14.11c.84-.03,1.74,.1,2.43,.54,1.18,.46,2.26,1.79,2.64,3.04,.41,1.02,.44,2.18-.13,3.46-.11,.24-.23,.47-.36,.68-.08,.19-.19,.37-.36,.51,0,0,0,0-.01,0-1.39,1.72-3.7,2.29-5.9,1.56-2.15-.71-3.36-2.93-3.27-5.09,.12-2.85,2.04-4.6,4.96-4.7Z"/><g class="cls-12"><path class="cls-7" d="M43.87,133.69c-1.7,.65-3.6-.21-4.25-1.91-.65-1.7,.21-3.6,1.91-4.25,1.7-.65,3.61,.21,4.25,1.91,.65,1.7-.21,3.61-1.91,4.25Z"/><path class="cls-7" d="M38.06,134.97c-.58,.22-1.23-.07-1.45-.65-.22-.58,.07-1.23,.65-1.45,.58-.22,1.23,.07,1.45,.65,.22,.58-.07,1.23-.65,1.45Z"/><path class="cls-7" d="M39.21,124.78c-1.19,.45-2.51-.15-2.96-1.33-.45-1.19,.14-2.51,1.33-2.96,1.19-.45,2.51,.15,2.96,1.33,.45,1.19-.15,2.51-1.33,2.96Z"/><path class="cls-7" d="M51.53,130.94c-.88,.33-1.86-.11-2.19-.98-.33-.88,.11-1.86,.98-2.19,.88-.33,1.86,.11,2.19,.99,.33,.88-.11,1.86-.98,2.19Z"/></g><g class="cls-12"><path class="cls-7" d="M111.07,172.44c-1.25,.47-2.64-.15-3.11-1.4-.47-1.25,.15-2.64,1.4-3.11,1.25-.48,2.64,.15,3.11,1.4,.47,1.25-.15,2.64-1.4,3.11Z"/><path class="cls-7" d="M106.81,173.37c-.42,.16-.9-.05-1.06-.48-.16-.43,.05-.9,.48-1.06,.43-.16,.9,.05,1.06,.48,.16,.42-.05,.9-.48,1.06Z"/><path class="cls-7" d="M107.65,165.91c-.87,.33-1.84-.11-2.17-.98-.33-.87,.11-1.84,.98-2.17,.87-.33,1.84,.11,2.17,.97,.33,.87-.11,1.84-.98,2.17Z"/><path class="cls-7" d="M116.67,170.42c-.64,.25-1.36-.08-1.6-.72-.24-.64,.08-1.36,.72-1.6,.64-.24,1.36,.08,1.6,.72,.24,.64-.08,1.36-.72,1.6Z"/></g><g class="cls-12"><path class="cls-7" d="M89.43,165.37c-1.01,.87-2.53,.76-3.41-.24-.87-1.01-.76-2.53,.24-3.4,1.01-.87,2.53-.76,3.4,.24,.87,1.01,.77,2.53-.24,3.4Z"/><path class="cls-7" d="M85.74,167.72c-.34,.3-.86,.26-1.16-.09-.3-.34-.26-.86,.08-1.16,.34-.3,.86-.26,1.16,.08,.3,.34,.26,.86-.08,1.16Z"/><path class="cls-7" d="M83.97,160.42c-.7,.61-1.76,.53-2.37-.17-.61-.7-.53-1.76,.17-2.37,.7-.61,1.76-.53,2.37,.17,.61,.7,.53,1.76-.17,2.38Z"/><path class="cls-7" d="M94,161.56c-.52,.45-1.3,.39-1.75-.12-.45-.52-.39-1.3,.13-1.75,.52-.45,1.3-.39,1.75,.13,.45,.52,.39,1.3-.13,1.75Z"/></g><g class="cls-12"><path class="cls-7" d="M128.02,160.12c-1.01,.87-2.53,.76-3.41-.25-.87-1.01-.76-2.53,.24-3.4,1.01-.87,2.53-.76,3.4,.24,.87,1.01,.76,2.53-.24,3.41Z"/><path class="cls-7" d="M124.34,162.46c-.34,.3-.86,.26-1.16-.08-.3-.34-.26-.86,.08-1.16,.35-.3,.86-.26,1.16,.08,.3,.34,.26,.86-.08,1.16Z"/><path class="cls-7" d="M122.57,155.16c-.7,.61-1.77,.53-2.37-.17-.61-.7-.53-1.76,.17-2.37,.7-.61,1.76-.53,2.37,.17,.61,.7,.53,1.76-.17,2.37Z"/><path class="cls-7" d="M132.59,156.3c-.52,.45-1.3,.39-1.75-.13-.45-.52-.39-1.3,.13-1.75,.52-.45,1.3-.39,1.75,.13,.45,.52,.39,1.3-.13,1.75Z"/></g><g class="cls-12"><path class="cls-7" d="M165.98,138.33c-1.77,1.53-4.44,1.34-5.97-.43-1.53-1.77-1.34-4.44,.43-5.97,1.77-1.53,4.44-1.34,5.97,.43,1.53,1.77,1.34,4.44-.42,5.98Z"/><path class="cls-7" d="M159.52,142.44c-.6,.52-1.51,.46-2.04-.14-.52-.6-.46-1.51,.15-2.04,.6-.52,1.51-.46,2.04,.15,.52,.6,.46,1.51-.15,2.04Z"/><path class="cls-7" d="M156.42,129.64c-1.23,1.07-3.1,.93-4.16-.3-1.06-1.23-.93-3.09,.3-4.16,1.24-1.07,3.1-.93,4.16,.3,1.07,1.23,.93,3.1-.3,4.16Z"/><path class="cls-7" d="M174,131.63c-.91,.79-2.29,.69-3.08-.22-.79-.91-.69-2.29,.22-3.08,.91-.79,2.28-.69,3.07,.22,.79,.91,.69,2.28-.22,3.07Z"/></g><path class="cls-1" d="M132.95,81.24c-11.3,1.09-20.54,.78-30.45-5.27-4.87-2.97-9.55-3.34-14.21-2.15-11.98,1.99-31.28,17.37-16.32,28.45,7.24,5.36,17.34,5.49,25.92,5.2,11.45-.38,22.53-3.79,32.58-9.14,2.06-1.1,2.11-4.12-.17-4.83-2.58-.8-5.18-.59-7.77-.44,4.01-2.35,8.44-4.11,11.93-7.28,1.69-1.53,1.13-4.8-1.51-4.55Z"/><path class="cls-1" d="M44.15,103.18c-4.36,8.83-9.67,22.11-3.53,31.23,1.84,2.72,5.72-.23,4.7-2.97-3.68-9.82,.09-18.05,1.92-27.73,.36-1.88-2.43-1.87-3.09-.53Z"/><path class="cls-1" d="M170.96,101.09c-1.22-1.71-3.62,.13-3,1.89,1.88,5.31,2.49,10.38,2.1,16.01-.32,4.65-2.11,8.9-3,13.42-.58,2.92,3.28,2.26,4.38,.75,6.06-8.29,5.39-23.86-.48-32.08Z"/><path class="cls-1" d="M46.01,149.61c-2.36,.52-4.39,1.64-6.28,3.15-1.63,1.3-4.91,4.06-4.2,6.45,.3,1.01,1.32,1.31,2.21,.74,1.64-1.05,2.38-3.32,3.75-4.74,1.43-1.47,3.17-2.64,4.82-3.85,.59-.43,.86-2-.3-1.74Z"/><path class="cls-1" d="M60.89,152.94c-1.12,.27-2.03,.51-3.07,1.04-1.03,.52-1.95,1.25-2.8,2.02-1.32,1.19,.42,2.94,1.65,1.65,1.3-1.37,2.95-2.66,4.57-3.63,.6-.36,.39-1.26-.35-1.08Z"/><path class="cls-1" d="M156.02,158.82c-.45-2.12-2.48-2.75-4.27-3.61-1.92-.92-3.7-1.98-5.74-2.65-1.5-.5-3.26,1.67-1.65,2.63,1.66,.99,3.43,1.88,4.97,3.05,1.64,1.25,2.65,2.9,4.89,2.8,1.01-.04,2.01-1.21,1.79-2.23Z"/><path class="cls-1" d="M170.65,154.74c-1.02-1.69-2.84-2.55-4.53-3.45-1.11-.6-2.58,1.13-1.65,2.08,1.15,1.18,2.27,2.39,3.31,3.68,1.15,1.42,3.76-.83,2.87-2.3Z"/></g></g></g></g></svg>