<?xml version="1.0" encoding="UTF-8"?><svg id="Layer_2" xmlns="http://www.w3.org/2000/svg" viewBox="0 0 274.87 391.26"><defs><style>.cls-1{fill:#fff;}.cls-2{fill:#ddac0f;}.cls-3{fill:none;stroke:#ddac0f;stroke-miterlimit:10;}</style></defs><g id="_1"><path class="cls-2" d="M263.33,23.08c-6.34,0-11.54-5.2-11.54-11.54s5.2-11.54,11.54-11.54,11.54,5.2,11.54,11.54-5.2,11.54-11.54,11.54Zm0-22.11c-5.85,0-10.65,4.8-10.65,10.65s4.8,10.65,10.65,10.65,10.65-4.8,10.65-10.65-4.8-10.65-10.65-10.65Z"/><path class="cls-2" d="M263.33,391.26c-6.34,0-11.54-5.2-11.54-11.54s5.2-11.54,11.54-11.54,11.54,5.2,11.54,11.54-5.2,11.54-11.54,11.54Zm0-22.11c-5.85,0-10.65,4.8-10.65,10.65s4.8,10.65,10.65,10.65,10.65-4.8,10.65-10.65-4.8-10.65-10.65-10.65Z"/><line class="cls-3" x1="263.33" y1="23.08" x2="263.33" y2="368.18"/><path class="cls-2" d="M11.54,23.08C5.2,23.08,0,17.88,0,11.54S5.2,0,11.54,0s11.54,5.2,11.54,11.54-5.2,11.54-11.54,11.54ZM11.54,.98C5.69,.98,.89,5.77,.89,11.62s4.8,10.65,10.65,10.65,10.65-4.8,10.65-10.65S17.39,.98,11.54,.98Z"/><path class="cls-2" d="M11.76,391.26c-6.34,0-11.54-5.2-11.54-11.54s5.2-11.54,11.54-11.54,11.54,5.2,11.54,11.54-5.2,11.54-11.54,11.54Zm0-22.11c-5.85,0-10.65,4.8-10.65,10.65s4.8,10.65,10.65,10.65,10.65-4.8,10.65-10.65-4.8-10.65-10.65-10.65Z"/><path class="cls-1" d="M14.7,379.8c0,1.63-1.32,2.94-2.94,2.94s-2.94-1.32-2.94-2.94,1.32-2.94,2.94-2.94c1.63-.08,2.94,1.24,2.94,2.94Z"/><line class="cls-3" x1="11.54" y1="23.08" x2="11.54" y2="368.8"/><line class="cls-3" x1="23.08" y1="11.54" x2="251.79" y2="11.66"/><line class="cls-3" x1="22.87" y1="379.84" x2="251.79" y2="379.84"/><path class="cls-1" d="M266.27,379.72c0,1.63-1.32,2.94-2.94,2.94s-2.94-1.32-2.94-2.94,1.32-2.94,2.94-2.94c1.63-.08,2.94,1.24,2.94,2.94Z"/><path class="cls-1" d="M266.27,11.54c0,1.63-1.32,2.94-2.94,2.94s-2.94-1.32-2.94-2.94,1.32-2.94,2.94-2.94c1.63-.08,2.94,1.24,2.94,2.94Z"/><path class="cls-1" d="M14.48,11.54c0,1.63-1.32,2.94-2.94,2.94s-2.94-1.32-2.94-2.94,1.32-2.94,2.94-2.94c1.63-.08,2.94,1.24,2.94,2.94Z"/></g></svg>