<?xml version="1.0" encoding="utf-8"?>
<!-- Generator: Adobe Illustrator 27.2.0, SVG Export Plug-In . SVG Version: 6.00 Build 0)  -->
<svg version="1.1" id="Layer_2_00000130632968793739946370000011529520994506096532_"
	 xmlns="http://www.w3.org/2000/svg" xmlns:xlink="http://www.w3.org/1999/xlink" x="0px" y="0px" viewBox="0 0 283.2 422.1"
	 style="enable-background:new 0 0 283.2 422.1;" xml:space="preserve">
<style type="text/css">
	.st0{fill:#808181;}
	.st1{fill:#574A2E;}
	.st2{fill:#FFB124;}
</style>
<g>
	<path class="st0" d="M273.3,50.2c0.3,2.4,0,4.6-0.5,6.5s-1.3,3.6-2.1,4.9c-0.8,1.3-1.6,2.3-2.4,3.1c-0.1,0.2-0.3,0.3-0.5,0.5
		c-0.2,0.1-0.3,0.3-0.5,0.4c-0.1,0.2-0.3,0.3-0.4,0.4c-0.2,0.1-0.3,0.2-0.4,0.3c-0.5,0.3-0.7,0.5-0.7,0.5s0.2-0.2,0.6-0.6
		c0.1-0.1,0.2-0.2,0.3-0.3c0.1-0.1,0.3-0.2,0.4-0.4c0.1-0.2,0.2-0.3,0.4-0.5c0.2-0.2,0.3-0.4,0.5-0.6c0.6-0.9,1.3-2,1.9-3.3
		c0.6-1.3,1.1-2.9,1.4-4.7c0.3-1.8,0.3-3.8-0.1-5.9c-0.3-2-1.2-4.1-2.5-6.1c-1.2-2-2.9-3.8-4.9-5.6c-1.9-1.7-4.2-3.4-6.5-5.1
		c-2.3-1.7-4.6-3.4-6.7-5.3c-1.1-1-2.1-2-3-3s-1.7-2.1-2.4-3.2c-1.4-2.3-2.4-4.7-2.9-7c-0.3-1.1-0.3-2.3-0.3-3.4s0.2-2.1,0.5-3.1
		c0.3-0.9,0.7-1.8,1.1-2.6c0.1-0.2,0.2-0.4,0.3-0.6c0.1-0.1,0.1-0.2,0.2-0.3c0.1-0.1,0.1-0.2,0.2-0.3c0.2-0.2,0.3-0.3,0.4-0.5
		c0.1-0.2,0.3-0.3,0.4-0.5c1-1.2,2.1-2,3.1-2.5c0.2-0.1,0.3-0.1,0.4-0.2c0.1,0,0.2-0.1,0.3-0.1c0.2,0,0.4-0.1,0.6-0.2
		c0.4-0.1,0.7-0.3,1-0.3c0.6-0.1,0.9-0.1,0.9-0.1s-0.3,0.1-0.8,0.3c-0.2,0.1-0.5,0.2-0.9,0.4c-0.2,0.1-0.4,0.2-0.6,0.3
		c-0.1,0.1-0.2,0.1-0.3,0.2c-0.1,0-0.2,0.1-0.3,0.2c-0.9,0.6-1.8,1.5-2.6,2.7c-0.1,0.2-0.2,0.3-0.3,0.5c-0.1,0.2-0.2,0.3-0.3,0.5
		c0,0.1-0.1,0.2-0.1,0.3s-0.1,0.2-0.1,0.3s-0.1,0.3-0.2,0.5c-0.3,0.8-0.6,1.6-0.7,2.5c-0.2,0.9-0.3,1.8-0.2,2.8s0.2,2,0.5,3
		c0.6,2.1,1.6,4.1,3,6c0.7,1,1.5,1.9,2.4,2.8c0.7,0.8,1.5,1.6,2.4,2.3l0.1,0.1c0.2,0.1,0.4,0.2,0.6,0.3c0.2,0.1,0.4,0.2,0.6,0.3
		c0.4,0.2,0.8,0.3,1.3,0.5c0.2,0.1,0.5,0.1,0.7,0.2c0.2,0.1,0.5,0.2,0.7,0.2c1.9,0.4,4.1,0.4,6.2-0.2c2.1-0.6,4.2-1.7,5.9-3.3
		c0.8-0.8,1.5-1.8,2.1-2.8c0.1-0.1,0.1-0.3,0.2-0.4l0.2-0.4c0.1-0.2,0.2-0.5,0.3-0.8c0-0.3,0.1-0.6,0.2-0.9l0.1-0.4
		c0.1-0.1,0.1-0.2,0.1-0.4c0.3-2.4-0.1-4.9-1.2-6.9c-0.5-1-1.3-1.8-2.1-2.5c-0.8-0.7-1.8-1.2-2.8-1.5c-1-0.3-2.1-0.5-3.1-0.5
		c-1-0.1-2,0.1-2.9,0.4c-0.9,0.3-1.7,0.8-2.4,1.3s-1.2,1.2-1.7,1.9c-0.1,0.1-0.2,0.3-0.3,0.5c-0.1,0.2-0.2,0.4-0.3,0.6
		c-0.2,0.4-0.3,0.7-0.4,1.1c-0.2,0.8-0.4,1.5-0.4,2.2c-0.1,1.4,0.2,2.6,0.5,3.5c0,0.1,0.1,0.2,0.1,0.3c0,0.1,0.1,0.2,0.1,0.3
		c0.1,0.2,0.2,0.4,0.3,0.6c0.2,0.3,0.3,0.6,0.5,0.8c0.3,0.4,0.5,0.6,0.5,0.6s-0.2-0.1-0.6-0.5c-0.2-0.1-0.4-0.4-0.7-0.7
		c-0.1-0.1-0.3-0.3-0.4-0.5c-0.1-0.1-0.1-0.2-0.2-0.3s-0.1-0.2-0.3-0.1c-0.5-0.9-1-2.2-1.1-3.7c-0.1-0.8,0-1.6,0.1-2.5
		c0.1-0.4,0.1-0.9,0.3-1.3c0-0.2,0.1-0.5,0.2-0.7c0.1-0.2,0.2-0.5,0.3-0.7c0.5-0.9,1.1-1.8,1.9-2.6c0.8-0.8,1.8-1.4,2.9-1.9
		s2.3-0.8,3.6-0.9s2.6,0,3.9,0.4c1.3,0.3,2.6,0.9,3.8,1.8c1.2,0.9,2.2,2,3,3.3c1.6,2.6,2.2,5.8,1.7,8.9c0,0.2-0.1,0.4-0.1,0.6
		l-0.1,0.6c-0.1,0.4-0.2,0.7-0.3,1.1c-0.1,0.4-0.2,0.7-0.4,1.1l-0.3,0.5c-0.1,0.2-0.2,0.3-0.3,0.5c-0.8,1.3-1.7,2.5-2.8,3.5
		c-2.2,2-4.8,3.2-7.4,3.7c-2,0.4-4,0.3-5.8,0c0.7,0.5,1.3,0.9,1.9,1.4c2.3,1.8,4.7,3.5,6.7,5.5c2.1,1.9,3.9,4.1,5.2,6.4
		c0.7,1.2,1.2,2.4,1.6,3.6c0.2,0.6,0.3,1.2,0.5,1.8c0.1,0.3,0.1,0.6,0.2,0.9c0.1,0.1,0.1,0.3,0.1,0.4S273.2,50.6,273.3,50.2
		L273.3,50.2z"/>
	<path class="st1" d="M273.3,26.2c-0.4,0.5-0.8,1.2-1.3,1.9c-0.1,0.2-0.3,0.4-0.4,0.6c-0.2,0.2-0.3,0.4-0.5,0.6
		c-0.4,0.4-0.8,0.7-1.3,1.1c-0.5,0.3-1,0.6-1.6,0.9c-0.3,0.2-0.6,0.3-0.9,0.4s-0.6,0.2-0.9,0.3c-1.2,0.3-2.5,0.3-3.6,0.1
		c0.6,0.3,1.2,0.5,1.8,0.8c0.6,0.2,1.3,0.5,2,0.7c0.7,0.2,1.4,0.4,2.2,0.5c0.7,0.1,1.5,0.2,2.3,0.2c1.6-0.1,3.2-0.4,4.6-1
		s2.6-1.4,3.3-2.3c0.8-0.9,1.3-1.8,1.6-2.8s0.4-1.9,0.3-2.7c-0.1-0.8-0.3-1.5-0.7-1.9c-0.4-0.5-0.8-0.7-1.3-0.8s-1,0-1.5,0.2
		c-0.5,0.2-0.9,0.5-1.4,0.8c-0.4,0.3-0.9,0.7-1.3,1.1C274.3,25.3,273.8,25.8,273.3,26.2L273.3,26.2z M277.2,26.1c0.3-0.6,0.7-1,1-1
		s0.6,0.5,0.6,1.4c0,0.5,0,1-0.2,1.5s-0.4,1.1-0.8,1.6s-0.9,1.1-1.6,1.6s-1.5,0.9-2.4,1.2c-0.9,0.2-1.8,0.4-2.7,0.4
		s-1.7-0.1-2.5-0.2c0.7,0,1.5-0.1,2.3-0.3c0.3-0.1,0.7-0.2,1.1-0.4c0.4-0.2,0.8-0.4,1.1-0.6c1.4-0.9,2.2-2.1,2.7-2.9
		C276.4,27.6,276.8,26.9,277.2,26.1z"/>
	<path class="st1" d="M283,48.7c0-0.5-0.2-1.1-0.2-1.6c-0.2-0.6-0.4-1.1-0.7-1.7c-0.1-0.3-0.3-0.6-0.5-0.9c-0.1-0.1-0.2-0.2-0.3-0.4
		c-0.1-0.1-0.2-0.3-0.3-0.4c-0.2-0.3-0.5-0.6-0.7-0.9c-0.3-0.2-0.5-0.5-0.8-0.8c-0.2-0.3-0.5-0.5-0.8-0.8c-0.3-0.3-0.6-0.6-0.9-0.8
		c-0.3-0.2-0.6-0.5-0.9-0.7c-0.3-0.2-0.7-0.4-1-0.6s-0.7-0.4-1-0.6c-0.4-0.2-0.7-0.3-1-0.5c-0.4-0.2-0.7-0.3-1-0.5
		c-0.3-0.1-0.6-0.3-0.9-0.4c-0.1-0.1-0.3-0.1-0.4-0.2c-0.1-0.1-0.3-0.1-0.4-0.2c-0.3-0.2-0.5-0.3-0.8-0.4c1,0.7,1.9,1.7,2.6,2.9
		c0.7,1.2,1.2,2.5,1.5,3.7c0.1,0.3,0.1,0.6,0.2,0.9c0,0.1,0.1,0.3,0.1,0.4c0.1,0.1,0.1,0.3,0.1,0.4c0,0.3,0.1,0.6,0.1,0.9
		c0,0.3,0.1,0.5,0.1,0.8c0.1,0.3,0.1,0.6,0.1,0.8c0,0.3,0.1,0.5,0.1,0.7c0,0.4,0.1,0.8,0.2,1.2c0.1,0.3,0.2,0.7,0.3,1
		c0.1,0.4,0.3,0.7,0.4,1c0.1,0.3,0.2,0.6,0.4,0.9c0.2,0.3,0.3,0.5,0.5,0.8c0.4,0.5,0.8,1,1.2,1.3c0.4,0.3,0.9,0.5,1.4,0.6
		s1-0.1,1.5-0.4c0.4-0.3,0.9-0.8,1.2-1.5c0.1-0.4,0.3-0.8,0.4-1.2c0.1-0.4,0.2-0.8,0.2-1.3S283,49.2,283,48.7L283,48.7z M280.5,50.6
		c0,0.4-0.1,0.8-0.2,1c-0.1,0.3-0.2,0.4-0.4,0.4c-0.3,0-0.7-0.4-1-1.1c-0.3-0.6-0.7-1.6-1-2.6c-0.3-1.1-0.6-2.5-1.2-4.1
		c-0.3-0.8-0.6-1.5-1-2.3c-0.4-0.8-0.9-1.5-1.4-2.1c0.5,0.4,1.1,1,1.7,1.6s1.2,1.3,1.8,2c1.2,1.4,2,2.9,2.4,4.1
		C280.5,48.7,280.6,49.8,280.5,50.6L280.5,50.6z"/>
	<path class="st2" d="M141.6,272.6c-16.5,0-31.9-6.4-43.6-18C86.4,243,80,227.5,80,211s6.4-31.9,18-43.6c11.6-11.6,27.1-18,43.6-18
		s31.9,6.4,43.6,18c11.6,11.6,18,27.1,18,43.6s-6.4,31.9-18,43.6C173.5,266.2,158,272.6,141.6,272.6z M141.6,149.9
		c-33.7,0-61.1,27.4-61.1,61.1s27.4,61.1,61.1,61.1s61.1-27.4,61.1-61.1S175.3,149.9,141.6,149.9z"/>
	<path class="st0" d="M273.2,372.4c0,0.1,0,0.3-0.1,0.4c-0.1,0.3-0.1,0.6-0.2,0.9c-0.2,0.6-0.3,1.2-0.5,1.8
		c-0.4,1.2-0.9,2.4-1.6,3.6c-1.3,2.3-3.1,4.5-5.2,6.4c-2,2-4.4,3.7-6.7,5.5c-0.6,0.5-1.2,0.9-1.9,1.4c1.8-0.3,3.8-0.4,5.8,0
		c2.6,0.5,5.2,1.7,7.4,3.7c1.1,1,2,2.2,2.8,3.5c0.1,0.2,0.2,0.3,0.3,0.5l0.3,0.5c0.2,0.4,0.3,0.7,0.4,1.1s0.2,0.7,0.3,1.1l0.1,0.6
		c0,0.2,0.1,0.4,0.1,0.6c0.5,3.1-0.1,6.3-1.7,8.9c-0.8,1.3-1.8,2.4-3,3.3s-2.5,1.5-3.8,1.8c-1.3,0.4-2.6,0.5-3.9,0.4
		s-2.5-0.4-3.6-0.9s-2.1-1.1-2.9-1.9s-1.4-1.7-1.9-2.6c-0.1-0.2-0.2-0.5-0.3-0.7s-0.2-0.5-0.2-0.7c-0.2-0.4-0.2-0.9-0.3-1.3
		c-0.1-0.9-0.2-1.7-0.1-2.5c0.1-1.5,0.6-2.8,1.1-3.7c0.1-0.1,0.1-0.2,0.2-0.3c0.1-0.1,0.1-0.2,0.2-0.3c0.1-0.2,0.3-0.4,0.4-0.5
		c0.3-0.3,0.5-0.6,0.7-0.7c0.4-0.4,0.6-0.5,0.6-0.5s-0.2,0.2-0.5,0.6c-0.2,0.2-0.3,0.5-0.5,0.8c-0.1,0.2-0.2,0.4-0.3,0.6
		c0,0.1-0.1,0.2-0.1,0.3s-0.1,0.2-0.1,0.3c-0.3,0.9-0.6,2.1-0.5,3.5c0,0.7,0.2,1.4,0.4,2.2c0.1,0.4,0.2,0.7,0.4,1.1
		c0.1,0.2,0.2,0.4,0.3,0.6s0.2,0.4,0.3,0.5c0.5,0.7,1,1.4,1.7,1.9s1.5,1,2.4,1.3s1.9,0.5,2.9,0.4c1,0,2.1-0.2,3.1-0.5s2-0.8,2.8-1.5
		s1.6-1.5,2.1-2.5c1.1-2,1.5-4.5,1.2-6.9c0-0.2,0-0.3-0.1-0.4l-0.1-0.4c-0.1-0.3-0.2-0.6-0.2-0.9c-0.1-0.3-0.2-0.6-0.3-0.8l-0.2-0.4
		c-0.1-0.1-0.1-0.3-0.2-0.4c-0.6-1-1.3-2-2.1-2.8c-1.7-1.6-3.8-2.7-5.9-3.3c-2.1-0.6-4.3-0.6-6.2-0.2c-0.2,0-0.5,0.1-0.7,0.2
		s-0.5,0.1-0.7,0.2c-0.5,0.2-0.9,0.3-1.3,0.5l-0.6,0.3l-0.6,0.3l-0.1,0.1c-0.9,0.7-1.7,1.5-2.4,2.3c-0.9,0.9-1.7,1.8-2.4,2.8
		c-1.4,1.9-2.4,3.9-3,6c-0.3,1-0.4,2-0.5,3s0,1.9,0.2,2.8c0.1,0.9,0.4,1.7,0.7,2.5c0.1,0.2,0.2,0.4,0.2,0.5s0.1,0.2,0.1,0.3
		s0.1,0.2,0.1,0.3c0.1,0.2,0.2,0.3,0.3,0.5s0.2,0.3,0.3,0.5c0.8,1.2,1.7,2.1,2.6,2.7c0.1,0.1,0.2,0.2,0.3,0.2
		c0.1,0.1,0.2,0.1,0.3,0.2l0.6,0.3c0.4,0.2,0.7,0.3,0.9,0.4c0.5,0.2,0.8,0.3,0.8,0.3s-0.3,0-0.9-0.1c-0.3,0-0.6-0.2-1-0.3
		c-0.2-0.1-0.4-0.2-0.6-0.2c-0.1,0-0.2-0.1-0.3-0.1c-0.1-0.1-0.2-0.1-0.4-0.2c-1-0.5-2.1-1.3-3.1-2.5c-0.1-0.2-0.3-0.3-0.4-0.5
		c-0.1-0.2-0.2-0.3-0.4-0.5c-0.1-0.1-0.1-0.2-0.2-0.3c-0.1-0.1-0.1-0.2-0.2-0.3c-0.1-0.2-0.2-0.4-0.3-0.6c-0.4-0.8-0.8-1.7-1.1-2.6
		c-0.3-1-0.5-2-0.5-3.1s0-2.3,0.3-3.4c0.5-2.3,1.5-4.7,2.9-7c0.7-1.1,1.5-2.2,2.4-3.2s1.9-2,3-3c2.1-1.9,4.4-3.6,6.7-5.3
		c2.3-1.7,4.6-3.4,6.5-5.1c2-1.8,3.7-3.6,4.9-5.6c1.3-2,2.2-4.1,2.5-6.1c0.4-2.1,0.4-4.1,0.1-5.9s-0.8-3.4-1.4-4.7
		c-0.6-1.3-1.3-2.4-1.9-3.3c-0.2-0.2-0.3-0.4-0.5-0.6s-0.3-0.3-0.4-0.5s-0.3-0.3-0.4-0.4s-0.2-0.2-0.3-0.3c-0.4-0.4-0.6-0.6-0.6-0.6
		s0.2,0.2,0.7,0.5c0.1,0.1,0.2,0.2,0.4,0.3c0.1,0.1,0.3,0.2,0.4,0.4c0.2,0.1,0.3,0.3,0.5,0.4c0.2,0.2,0.4,0.3,0.5,0.5
		c0.8,0.8,1.6,1.8,2.4,3.1c0.8,1.3,1.6,3,2.1,4.9S273.6,370,273.2,372.4C273.3,372.1,273.3,372.3,273.2,372.4L273.2,372.4z"/>
	<path class="st1" d="M274.8,397.8c0.4,0.4,0.9,0.8,1.3,1.1c0.5,0.3,0.9,0.6,1.4,0.8c0.5,0.2,1,0.3,1.5,0.2c0.5-0.1,0.9-0.3,1.3-0.8
		c0.4-0.4,0.6-1.1,0.7-1.9s0-1.7-0.3-2.7s-0.8-1.9-1.6-2.8c-0.7-0.9-1.9-1.7-3.3-2.3c-1.4-0.6-3-0.9-4.6-1c-0.8,0-1.6,0.1-2.3,0.2
		c-0.8,0.1-1.5,0.3-2.2,0.5s-1.4,0.5-2,0.7c-0.6,0.3-1.2,0.5-1.8,0.8c1.1-0.2,2.4-0.2,3.6,0.1c0.3,0.1,0.6,0.2,0.9,0.3
		c0.3,0.1,0.6,0.2,0.9,0.4c0.6,0.3,1.1,0.6,1.6,0.9c0.5,0.4,0.9,0.7,1.3,1.1c0.2,0.2,0.3,0.4,0.5,0.6c0.1,0.2,0.3,0.4,0.4,0.6
		c0.5,0.7,0.9,1.4,1.3,1.9C274,397,274.4,397.4,274.8,397.8L274.8,397.8z M276,394.3c-0.5-0.8-1.3-2-2.7-2.9
		c-0.3-0.2-0.7-0.4-1.1-0.6s-0.8-0.3-1.1-0.4c-0.8-0.2-1.6-0.3-2.3-0.3c0.8-0.1,1.6-0.2,2.5-0.2s1.8,0.2,2.7,0.4
		c0.9,0.3,1.7,0.7,2.4,1.2s1.2,1.1,1.6,1.6s0.6,1.1,0.8,1.6s0.2,1,0.2,1.5c0,0.9-0.3,1.4-0.6,1.4s-0.7-0.4-1-1
		C276.9,395.9,276.5,395.1,276,394.3L276,394.3z"/>
	<path class="st1" d="M283.1,372.6c0-0.5-0.1-0.9-0.2-1.3s-0.3-0.8-0.4-1.2c-0.3-0.7-0.8-1.2-1.2-1.5c-0.5-0.3-1-0.5-1.5-0.4
		s-1,0.3-1.4,0.6c-0.4,0.3-0.8,0.8-1.2,1.3c-0.2,0.3-0.3,0.5-0.5,0.8s-0.3,0.6-0.4,0.9s-0.3,0.6-0.4,1c-0.1,0.3-0.2,0.7-0.3,1
		c-0.1,0.4-0.2,0.8-0.2,1.2c0,0.2-0.1,0.4-0.1,0.7c0,0.2,0,0.5-0.1,0.8c0,0.3-0.1,0.5-0.1,0.8s-0.1,0.6-0.1,0.9c0,0.1,0,0.3-0.1,0.4
		c0,0.1-0.1,0.3-0.1,0.4c-0.1,0.3-0.1,0.6-0.2,0.9c-0.3,1.2-0.8,2.5-1.5,3.7s-1.6,2.2-2.6,2.9c0.3-0.1,0.5-0.2,0.8-0.4
		c0.1-0.1,0.3-0.1,0.4-0.2s0.3-0.1,0.4-0.2c0.3-0.1,0.6-0.3,0.9-0.4c0.3-0.2,0.6-0.3,1-0.5c0.3-0.2,0.6-0.3,1-0.5
		c0.3-0.2,0.7-0.4,1-0.6s0.7-0.4,1-0.6s0.6-0.5,0.9-0.7s0.6-0.5,0.9-0.8s0.6-0.5,0.8-0.8c0.3-0.3,0.5-0.6,0.8-0.8
		c0.2-0.3,0.5-0.6,0.7-0.9c0.1-0.1,0.2-0.3,0.3-0.4c0.1-0.2,0.2-0.3,0.3-0.4c0.2-0.3,0.4-0.6,0.5-0.9c0.3-0.6,0.5-1.1,0.7-1.7
		c0.1-0.5,0.2-1.1,0.3-1.6C283.2,373.6,283.2,373.1,283.1,372.6L283.1,372.6z M280.3,375.2c-0.4,1.2-1.2,2.7-2.4,4.1
		c-0.6,0.7-1.2,1.4-1.8,2s-1.2,1.2-1.7,1.6c0.5-0.6,1-1.3,1.4-2.1c0.4-0.8,0.7-1.5,1-2.3c0.6-1.6,0.9-3,1.2-4.1c0.3-1,0.7-2,1-2.6
		c0.3-0.7,0.7-1.1,1-1.1c0.2,0,0.3,0.1,0.4,0.4c0.1,0.2,0.2,0.6,0.2,1C280.8,373,280.7,374.1,280.3,375.2L280.3,375.2z"/>
	<path class="st0" d="M9.9,372.4c0,0.1,0,0.3,0.1,0.4c0.1,0.3,0.1,0.6,0.2,0.9c0.2,0.6,0.3,1.2,0.5,1.8c0.4,1.2,0.9,2.4,1.6,3.6
		c1.3,2.3,3.1,4.5,5.2,6.4c2,2,4.4,3.7,6.7,5.5c0.6,0.5,1.2,0.9,1.9,1.4c-1.8-0.3-3.8-0.4-5.8,0c-2.6,0.5-5.2,1.7-7.4,3.7
		c-1.1,1-2,2.2-2.8,3.5c-0.1,0.2-0.2,0.3-0.3,0.5l-0.3,0.5c-0.2,0.4-0.3,0.7-0.4,1.1c-0.1,0.4-0.2,0.7-0.3,1.1l-0.1,0.6
		c0,0.2-0.1,0.4-0.1,0.6c-0.5,3.1,0.1,6.3,1.7,8.9c0.8,1.3,1.8,2.4,3,3.3s2.5,1.5,3.8,1.8c1.3,0.4,2.6,0.5,3.9,0.4s2.5-0.4,3.6-0.9
		s2.1-1.1,2.9-1.9s1.4-1.7,1.9-2.6c0.1-0.2,0.2-0.5,0.3-0.7s0.2-0.5,0.2-0.7c0.2-0.4,0.2-0.9,0.3-1.3c0.1-0.9,0.2-1.7,0.1-2.5
		c-0.1-1.5-0.6-2.8-1.1-3.7c-0.1-0.1-0.1-0.2-0.2-0.3c-0.1-0.1-0.1-0.2-0.2-0.3c-0.1-0.2-0.3-0.4-0.4-0.5c-0.3-0.3-0.5-0.6-0.7-0.7
		c-0.4-0.4-0.6-0.5-0.6-0.5s0.2,0.2,0.5,0.6c0.2,0.2,0.3,0.5,0.5,0.8c0.1,0.2,0.2,0.4,0.3,0.6c0,0.1,0.1,0.2,0.1,0.3
		s0.1,0.2,0.1,0.3c0.3,0.9,0.6,2.1,0.5,3.5c0,0.7-0.2,1.4-0.4,2.2c-0.1,0.4-0.2,0.7-0.4,1.1c-0.1,0.2-0.2,0.4-0.3,0.6
		s-0.2,0.4-0.3,0.5c-0.5,0.7-1,1.4-1.7,1.9s-1.5,1-2.4,1.3s-1.9,0.5-2.9,0.4c-1,0-2.1-0.2-3.1-0.5s-2-0.8-2.8-1.5s-1.6-1.5-2.1-2.5
		c-1.1-2-1.5-4.5-1.2-6.9c0-0.2,0-0.3,0.1-0.4l0.1-0.4c0.1-0.3,0.2-0.6,0.2-0.9c0.1-0.3,0.2-0.6,0.3-0.8l0.2-0.4
		c0.1-0.1,0.1-0.3,0.2-0.4c0.6-1,1.3-2,2.1-2.8c1.7-1.6,3.8-2.7,5.9-3.3c2.1-0.6,4.3-0.6,6.2-0.2c0.2,0,0.5,0.1,0.7,0.2
		s0.5,0.1,0.7,0.2c0.5,0.2,0.9,0.3,1.3,0.5l0.6,0.3l0.6,0.3l0.1,0.1c0.9,0.7,1.7,1.5,2.4,2.3c0.9,0.9,1.7,1.8,2.4,2.8
		c1.4,1.9,2.4,3.9,3,6c0.3,1,0.4,2,0.5,3s0,1.9-0.2,2.8c-0.1,0.9-0.4,1.7-0.7,2.5c-0.1,0.2-0.2,0.4-0.2,0.5s-0.1,0.2-0.1,0.3
		s-0.1,0.2-0.1,0.3c-0.1,0.2-0.2,0.3-0.3,0.5s-0.2,0.3-0.3,0.5c-0.8,1.2-1.7,2.1-2.6,2.7c-0.1,0.1-0.2,0.2-0.3,0.2
		c-0.1,0.1-0.2,0.1-0.3,0.2l-0.6,0.3c-0.4,0.2-0.7,0.3-0.9,0.4c-0.5,0.2-0.8,0.3-0.8,0.3s0.3,0,0.9-0.1c0.3,0,0.6-0.2,1-0.3
		c0.2-0.1,0.4-0.2,0.6-0.2c0.1,0,0.2-0.1,0.3-0.1c0.1-0.1,0.2-0.1,0.4-0.2c1-0.5,2.1-1.3,3.1-2.5c0.1-0.2,0.3-0.3,0.4-0.5
		c0.1-0.2,0.2-0.3,0.4-0.5c0.1-0.1,0.1-0.2,0.2-0.3c0.1-0.1,0.1-0.2,0.2-0.3c0.1-0.2,0.2-0.4,0.3-0.6c0.4-0.8,0.8-1.7,1.1-2.6
		c0.3-1,0.5-2,0.5-3.1s0-2.3-0.3-3.4c-0.5-2.3-1.5-4.7-2.9-7c-0.7-1.1-1.5-2.2-2.4-3.2s-1.9-2-3-3c-2.1-1.9-4.4-3.6-6.7-5.3
		c-2.3-1.7-4.6-3.4-6.5-5.1c-2-1.8-3.7-3.6-4.9-5.6c-1.3-2-2.2-4.1-2.5-6.1c-0.4-2.1-0.4-4.1-0.1-5.9c0.3-1.8,0.8-3.4,1.4-4.7
		c0.6-1.3,1.3-2.4,1.9-3.3c0.2-0.2,0.3-0.4,0.5-0.6s0.3-0.3,0.4-0.5c0.1-0.2,0.3-0.3,0.4-0.4s0.2-0.2,0.3-0.3
		c0.4-0.4,0.6-0.6,0.6-0.6s-0.2,0.2-0.7,0.5c-0.1,0.1-0.2,0.2-0.4,0.3c-0.1,0.1-0.3,0.2-0.4,0.4c-0.2,0.1-0.3,0.3-0.5,0.4
		c-0.2,0.2-0.4,0.3-0.5,0.5c-0.8,0.8-1.6,1.8-2.4,3.1c-0.8,1.3-1.6,3-2.1,4.9S9.5,370,9.9,372.4C9.8,372.1,9.9,372.3,9.9,372.4
		L9.9,372.4z"/>
	<path class="st1" d="M9.6,396.5c0.4-0.5,0.8-1.1,1.3-1.9c0.1-0.2,0.3-0.4,0.4-0.6c0.2-0.2,0.3-0.4,0.5-0.6c0.4-0.4,0.8-0.8,1.3-1.1
		c0.5-0.4,1-0.7,1.6-0.9c0.3-0.1,0.6-0.3,0.9-0.4c0.3-0.1,0.6-0.2,0.9-0.3c1.2-0.3,2.5-0.3,3.6-0.1c-0.6-0.3-1.1-0.5-1.8-0.8
		c-0.6-0.3-1.3-0.5-2-0.7s-1.4-0.4-2.2-0.5s-1.5-0.2-2.3-0.2c-1.6,0-3.2,0.3-4.6,1c-1.4,0.6-2.5,1.4-3.3,2.3
		c-0.7,0.9-1.3,1.9-1.6,2.8c-0.3,1-0.4,1.9-0.3,2.7c0.1,0.8,0.4,1.4,0.7,1.9c0.4,0.4,0.8,0.7,1.3,0.8c0.5,0.1,1,0,1.5-0.2
		s1-0.5,1.4-0.8c0.5-0.3,0.9-0.7,1.3-1.1C8.7,397.4,9.2,397,9.6,396.5L9.6,396.5z M5.8,396.5c-0.4,0.6-0.7,1-1,1s-0.6-0.5-0.6-1.4
		c0-0.4,0.1-0.9,0.2-1.5c0.2-0.5,0.4-1.1,0.8-1.6s0.9-1.1,1.6-1.6s1.5-0.9,2.4-1.2c0.9-0.3,1.8-0.4,2.7-0.4s1.7,0.1,2.5,0.2
		c-0.7,0-1.5,0-2.3,0.3c-0.4,0.1-0.8,0.3-1.1,0.4c-0.4,0.2-0.7,0.4-1.1,0.6c-1.3,0.9-2.1,2.1-2.7,2.9C6.6,395.1,6.2,395.9,5.8,396.5
		L5.8,396.5z"/>
	<path class="st1" d="M0,374.1c0,0.5,0.2,1,0.3,1.6c0.1,0.5,0.4,1.1,0.7,1.7c0.2,0.3,0.3,0.6,0.5,0.9c0.1,0.1,0.2,0.3,0.3,0.4
		s0.2,0.3,0.3,0.4c0.2,0.3,0.5,0.6,0.7,0.9c0.3,0.3,0.5,0.6,0.8,0.8c0.3,0.3,0.6,0.6,0.8,0.8c0.3,0.3,0.6,0.5,0.9,0.8
		c0.3,0.2,0.6,0.5,0.9,0.7s0.7,0.4,1,0.6s0.7,0.4,1,0.6c0.3,0.2,0.6,0.4,1,0.5c0.3,0.2,0.6,0.3,1,0.5c0.3,0.1,0.6,0.3,0.9,0.4
		c0.1,0.1,0.3,0.1,0.4,0.2s0.3,0.1,0.4,0.2c0.3,0.1,0.6,0.2,0.8,0.4c-1-0.8-1.9-1.8-2.6-2.9c-0.7-1.2-1.2-2.5-1.5-3.7
		c-0.1-0.3-0.1-0.6-0.2-0.9c0-0.2-0.1-0.3-0.1-0.4c0-0.2,0-0.3-0.1-0.4c0-0.3-0.1-0.6-0.1-0.9S8,376.7,8,376.5
		c0-0.3-0.1-0.5-0.1-0.8c0-0.2-0.1-0.5-0.1-0.7c0-0.4-0.1-0.8-0.2-1.2c-0.1-0.4-0.2-0.7-0.3-1s-0.2-0.7-0.4-1
		c-0.1-0.3-0.3-0.6-0.4-0.9c-0.2-0.3-0.3-0.6-0.5-0.8c-0.4-0.5-0.7-0.9-1.2-1.3c-0.4-0.3-0.9-0.6-1.4-0.6c-0.5-0.1-1,0.1-1.5,0.4
		s-0.9,0.9-1.2,1.5c-0.2,0.3-0.3,0.7-0.4,1.2c-0.1,0.4-0.2,0.9-0.2,1.3C0,373.1,0,373.6,0,374.1z M2.4,372.2c0-0.4,0.1-0.7,0.2-1
		c0.1-0.2,0.3-0.4,0.4-0.4c0.3,0,0.7,0.4,1,1.1s0.7,1.6,1,2.6s0.6,2.5,1.2,4.1c0.3,0.8,0.6,1.6,1,2.3c0.4,0.8,0.9,1.5,1.4,2.1
		c-0.5-0.5-1.1-1-1.7-1.6s-1.2-1.3-1.8-2c-1.1-1.4-2-3-2.4-4.1C2.5,374.1,2.4,373,2.4,372.2z"/>
	<path class="st0" d="M9.9,50.2c0-0.1,0-0.3,0.1-0.4c0.1-0.3,0.1-0.6,0.2-0.9c0.2-0.6,0.3-1.2,0.5-1.8c0.4-1.2,0.9-2.4,1.6-3.6
		c1.3-2.3,3.1-4.5,5.2-6.4c2-2,4.4-3.7,6.7-5.5c0.6-0.5,1.2-0.9,1.9-1.4c-1.8,0.3-3.8,0.4-5.8,0c-2.6-0.5-5.2-1.7-7.4-3.7
		c-1.1-1-2-2.2-2.8-3.5c-0.1-0.2-0.2-0.3-0.3-0.5L9.5,22c-0.2-0.4-0.3-0.7-0.4-1.1c-0.1-0.4-0.2-0.7-0.3-1.1l-0.1-0.6
		c0-0.2-0.1-0.4-0.1-0.6c-0.5-3.1,0.1-6.3,1.7-8.9c0.8-1.3,1.8-2.4,3-3.3c1.2-0.9,2.5-1.5,3.8-1.8c1.3-0.4,2.6-0.5,3.9-0.4
		s2.5,0.4,3.6,0.9s2.1,1.1,2.9,1.9c0.8,0.8,1.4,1.7,1.9,2.6c0.1,0.2,0.2,0.5,0.3,0.7c0.1,0.2,0.2,0.5,0.2,0.7
		c0.2,0.4,0.2,0.9,0.3,1.3c0.1,0.9,0.2,1.7,0.1,2.5c-0.1,1.5-0.6,2.8-1.1,3.7c-0.2-0.1-0.2,0-0.3,0.1s-0.1,0.2-0.2,0.3
		c-0.1,0.2-0.3,0.4-0.4,0.5c-0.3,0.3-0.5,0.6-0.7,0.7c-0.4,0.4-0.6,0.5-0.6,0.5s0.2-0.2,0.5-0.6c0.2-0.2,0.3-0.5,0.5-0.8
		c0.1-0.2,0.2-0.4,0.3-0.6c0-0.1,0.1-0.2,0.1-0.3c0-0.1,0.1-0.2,0.1-0.3c0.3-0.9,0.6-2.1,0.5-3.5c0-0.7-0.2-1.4-0.4-2.2
		c-0.1-0.4-0.2-0.7-0.4-1.1c-0.1-0.2-0.2-0.4-0.3-0.6s-0.2-0.4-0.3-0.5c-0.5-0.7-1-1.4-1.7-1.9s-1.5-1-2.4-1.3
		c-0.9-0.3-1.9-0.5-2.9-0.4c-1,0-2.1,0.2-3.1,0.5c-1,0.3-2,0.8-2.8,1.5c-0.8,0.7-1.6,1.5-2.1,2.5c-1.1,2-1.5,4.5-1.2,6.9
		c0,0.2,0,0.3,0.1,0.4l0.1,0.4c0.1,0.3,0.2,0.6,0.2,0.9c0.1,0.3,0.2,0.6,0.3,0.8l0.2,0.4c0.1,0.1,0.1,0.3,0.2,0.4
		c0.6,1,1.3,2,2.1,2.8c1.7,1.6,3.8,2.7,5.9,3.3c2.1,0.6,4.3,0.6,6.2,0.2c0.2,0,0.5-0.1,0.7-0.2c0.2-0.1,0.5-0.1,0.7-0.2
		c0.5-0.2,0.9-0.3,1.3-0.5c0.2-0.1,0.4-0.2,0.6-0.3c0.2-0.1,0.4-0.2,0.6-0.3l0.1-0.1c0.9-0.7,1.7-1.5,2.4-2.3
		c0.9-0.9,1.7-1.8,2.4-2.8c1.4-1.9,2.4-3.9,3-6c0.3-1,0.4-2,0.5-3s0-1.9-0.2-2.8c-0.1-0.9-0.4-1.7-0.7-2.5C38,6.3,37.9,6.1,37.9,6
		s-0.1-0.2-0.1-0.3s-0.1-0.2-0.1-0.3c-0.1-0.2-0.2-0.3-0.3-0.5c-0.1-0.2-0.2-0.3-0.3-0.5c-0.8-1.2-1.7-2.1-2.6-2.7
		c-0.1-0.1-0.2-0.2-0.3-0.2c-0.1-0.1-0.2-0.1-0.3-0.2c-0.2-0.1-0.4-0.2-0.6-0.3c-0.4-0.2-0.7-0.3-0.9-0.4c-0.5-0.2-0.8-0.3-0.8-0.3
		s0.3,0,0.9,0.1c0.3,0,0.6,0.2,1,0.3c0.2,0.1,0.4,0.2,0.6,0.2c0.1,0,0.2,0.1,0.3,0.1c0.1,0.1,0.2,0.1,0.4,0.2c1,0.5,2.1,1.3,3.1,2.5
		C38,3.9,38.2,4,38.3,4.2c0.1,0.2,0.2,0.3,0.4,0.5c0.1,0.1,0.1,0.2,0.2,0.3C39,5.1,39,5.2,39.1,5.3c0.1,0.2,0.2,0.4,0.3,0.6
		c0.4,0.8,0.8,1.7,1.1,2.6c0.3,1,0.5,2,0.5,3.1s0,2.3-0.3,3.4c-0.5,2.3-1.5,4.7-2.9,7c-0.7,1.1-1.5,2.2-2.4,3.2s-1.9,2-3,3
		c-2.1,1.9-4.4,3.6-6.7,5.3c-2.3,1.7-4.6,3.4-6.5,5.1c-2,1.8-3.7,3.6-4.9,5.6c-1.3,2-2.2,4.1-2.5,6.1c-0.4,2.1-0.4,4.1-0.1,5.9
		c0.3,1.8,0.8,3.4,1.4,4.7c0.6,1.3,1.3,2.4,1.9,3.3c0.2,0.2,0.3,0.4,0.5,0.6c0.2,0.2,0.3,0.3,0.4,0.5c0.1,0.2,0.3,0.3,0.4,0.4
		s0.2,0.2,0.3,0.3c0.4,0.4,0.6,0.6,0.6,0.6s-0.2-0.2-0.7-0.5c-0.1-0.1-0.2-0.2-0.4-0.3c-0.1-0.1-0.3-0.2-0.4-0.4
		c-0.2-0.1-0.3-0.3-0.5-0.4c-0.2-0.2-0.4-0.3-0.5-0.5c-0.8-0.8-1.6-1.8-2.4-3.1c-0.8-1.3-1.6-3-2.1-4.9S9.4,52.4,9.7,50
		C9.8,50.4,9.9,50.3,9.9,50.2z"/>
	<path class="st1" d="M8.3,24.7c-0.4-0.4-0.9-0.8-1.3-1.1c-0.5-0.3-0.9-0.6-1.4-0.8c-0.5-0.2-1-0.3-1.5-0.2s-0.9,0.3-1.3,0.8
		c-0.4,0.4-0.6,1.1-0.7,1.9C2,26.1,2.1,27,2.4,28s0.8,1.9,1.6,2.8c0.7,0.9,1.9,1.7,3.3,2.3s3,0.9,4.6,1c0.8,0,1.6-0.1,2.3-0.2
		c0.8-0.1,1.5-0.3,2.2-0.5c0.7-0.2,1.4-0.5,2-0.7c0.6-0.3,1.2-0.5,1.8-0.8c-1.1,0.2-2.4,0.2-3.6-0.1c-0.3-0.1-0.6-0.2-0.9-0.3
		c-0.3-0.1-0.6-0.2-0.9-0.4c-0.6-0.3-1.1-0.6-1.6-0.9c-0.5-0.4-0.9-0.7-1.3-1.1c-0.2-0.2-0.3-0.4-0.5-0.6c-0.1-0.2-0.3-0.4-0.4-0.6
		c-0.5-0.7-0.9-1.4-1.3-1.9C9.2,25.6,8.7,25.1,8.3,24.7z M7.2,28.2c0.5,0.8,1.3,2,2.7,2.9c0.3,0.2,0.7,0.4,1.1,0.6
		c0.4,0.2,0.8,0.3,1.1,0.4c0.8,0.2,1.6,0.3,2.3,0.3c-0.8,0.1-1.6,0.2-2.5,0.2s-1.8-0.2-2.7-0.4c-0.9-0.3-1.7-0.7-2.4-1.2
		s-1.2-1.1-1.6-1.6c-0.4-0.5-0.6-1.1-0.8-1.6s-0.2-1-0.2-1.5c0-0.9,0.3-1.4,0.6-1.4s0.7,0.4,1,1C6.2,26.7,6.6,27.4,7.2,28.2z"/>
	<path class="st1" d="M0,50c0,0.5,0.1,0.9,0.2,1.3s0.3,0.8,0.4,1.2c0.3,0.7,0.8,1.2,1.2,1.5c0.5,0.3,1,0.5,1.5,0.4
		c0.5-0.1,1-0.3,1.4-0.6c0.4-0.3,0.8-0.8,1.2-1.3c0.2-0.3,0.3-0.5,0.5-0.8s0.3-0.6,0.4-0.9c0.1-0.3,0.3-0.6,0.4-1
		c0.1-0.3,0.2-0.7,0.3-1c0.1-0.4,0.2-0.8,0.2-1.2c0-0.2,0.1-0.4,0.1-0.7c0-0.2,0-0.5,0.1-0.8c0-0.3,0.1-0.5,0.1-0.8
		c0-0.3,0.1-0.6,0.1-0.9c0-0.1,0-0.3,0.1-0.4c0-0.1,0.1-0.3,0.1-0.4c0.1-0.3,0.1-0.6,0.2-0.9c0.3-1.2,0.8-2.5,1.5-3.7
		c0.7-1.2,1.6-2.2,2.6-2.9c-0.3,0.1-0.5,0.2-0.8,0.4c-0.1,0.1-0.3,0.1-0.4,0.2c-0.1,0.1-0.3,0.1-0.4,0.2c-0.3,0.1-0.6,0.3-0.9,0.4
		c-0.3,0.2-0.6,0.3-1,0.5c-0.3,0.2-0.6,0.3-1,0.5c-0.3,0.2-0.7,0.4-1,0.6c-0.3,0.2-0.7,0.4-1,0.6c-0.3,0.2-0.6,0.5-0.9,0.7
		c-0.3,0.2-0.6,0.5-0.9,0.8c-0.3,0.3-0.6,0.5-0.8,0.8c-0.3,0.3-0.5,0.6-0.8,0.8c-0.2,0.3-0.5,0.6-0.7,0.9c-0.1,0.1-0.2,0.3-0.3,0.4
		c-0.1,0.2-0.2,0.3-0.3,0.4c-0.2,0.3-0.4,0.6-0.5,0.9c-0.3,0.6-0.5,1.1-0.7,1.7C0.2,47.4,0,48,0,48.5S0,49.5,0,50z M2.8,47.3
		c0.4-1.2,1.2-2.7,2.4-4.1c0.6-0.7,1.2-1.4,1.8-2s1.2-1.2,1.7-1.6c-0.5,0.6-1,1.3-1.4,2.1s-0.7,1.5-1,2.3c-0.6,1.6-0.9,3-1.2,4.1
		c-0.3,1-0.7,2-1,2.6c-0.3,0.7-0.7,1.1-1,1.1c-0.2,0-0.3-0.1-0.4-0.4c-0.1-0.2-0.2-0.6-0.2-1C2.4,49.6,2.5,48.5,2.8,47.3z"/>
	<path class="st0" d="M201.9,399.5c-3.9,0-7.1,3-7.4,6.8c-0.1,0-0.2-0.1-0.3-0.1H89c-0.1,0-0.2,0-0.3,0.1c-0.3-3.8-3.5-6.8-7.4-6.8
		c-4.1,0-7.5,3.3-7.5,7.5s3.3,7.5,7.5,7.5s7.2-3.1,7.4-7.1c0.1,0,0.2,0.1,0.3,0.1h105.2c0.1,0,0.2,0,0.3-0.1c0.2,3.9,3.5,7,7.4,7
		c4.1,0,7.5-3.3,7.5-7.5S206,399.5,201.9,399.5z M81.3,412.9c-3.3,0-5.9-2.7-5.9-5.9s2.7-5.9,5.9-5.9s5.9,2.7,5.9,5.9
		S84.5,412.9,81.3,412.9z M201.9,412.9c-3.3,0-5.9-2.7-5.9-5.9s2.7-5.9,5.9-5.9s5.9,2.7,5.9,5.9S205.2,412.9,201.9,412.9z"/>
	<path class="st0" d="M201.9,9.4c-3.9,0-7.1,3-7.4,6.8c-0.1,0-0.2-0.1-0.3-0.1H89c-0.1,0-0.2,0-0.3,0.1c-0.4-3.8-3.6-6.8-7.4-6.8
		c-4.1,0-7.5,3.3-7.5,7.5c0,4.2,3.3,7.5,7.5,7.5s7.2-3.1,7.4-7.1c0.1,0,0.2,0.1,0.3,0.1h105.2c0.1,0,0.2,0,0.3-0.1
		c0.2,3.9,3.5,7,7.4,7c4.1,0,7.5-3.3,7.5-7.5C209.4,12.6,206,9.4,201.9,9.4z M81.3,22.8c-3.3,0-5.9-2.7-5.9-5.9
		c0-3.2,2.7-5.9,5.9-5.9s5.9,2.7,5.9,5.9C87.2,20.1,84.5,22.8,81.3,22.8z M201.9,22.8c-3.3,0-5.9-2.7-5.9-5.9c0-3.2,2.7-5.9,5.9-5.9
		s5.9,2.7,5.9,5.9C207.8,20.1,205.2,22.8,201.9,22.8z"/>
	<path class="st2" d="M141.6,268.8c-15.4,0-29.9-6-40.9-16.9C89.8,241,83.8,226.5,83.8,211s6-30,16.9-40.9s25.4-16.9,40.9-16.9
		s29.9,6,40.9,16.9c10.9,10.9,16.9,25.4,16.9,40.9s-6,30-16.9,40.9C171.5,262.8,157,268.8,141.6,268.8z M141.6,155
		c-30.8,0-55.9,25.1-55.9,55.9s25.1,55.9,55.9,55.9s55.9-25.1,55.9-55.9S172.4,155,141.6,155L141.6,155z"/>
	<path class="st2" d="M141.6,339.5c-34.3,0-66.6-13.4-90.9-37.6c-24.3-24.3-37.6-56.5-37.6-90.9s13.4-66.6,37.6-90.9
		s56.5-37.6,90.9-37.6s66.6,13.4,90.9,37.6c24.3,24.3,37.6,56.5,37.6,90.9s-13.4,66.6-37.6,90.9
		C208.2,326.1,175.9,339.5,141.6,339.5z M141.6,83.6C71.3,83.6,14.2,140.7,14.2,211s57.1,127.4,127.4,127.4S269,281.3,269,211
		S211.8,83.6,141.6,83.6z"/>
	<circle class="st0" cx="206.3" cy="71.6" r="1.5"/>
	<path class="st0" d="M229.7,95.1c0.4,0,0.8,0.4,0.8,0.8c0,0.4-0.4,0.8-0.8,0.8s-0.8-0.4-0.8-0.8C228.9,95.5,229.3,95.1,229.7,95.1z
		"/>
	<path class="st0" d="M273.8,77.3c0.4,0,0.8,0.4,0.8,0.8s-0.4,0.8-0.8,0.8s-0.8-0.4-0.8-0.8S273.4,77.3,273.8,77.3z"/>
	<path class="st0" d="M258.5,95.3c0.9,0,1.7,0.8,1.7,1.7c0,0.9-0.8,1.7-1.7,1.7s-1.7-0.8-1.7-1.7C256.8,96.1,257.6,95.3,258.5,95.3z
		"/>
	<circle class="st0" cx="219.8" cy="96.2" r="0.9"/>
	<path class="st0" d="M257,18c0.5,0,0.9,0.4,0.9,0.9c0,0.5-0.4,0.9-0.9,0.9s-0.9-0.4-0.9-0.9C256.1,18.4,256.5,18,257,18z"/>
	<circle class="st0" cx="221" cy="163.1" r="1.5"/>
	<circle class="st0" cx="264.7" cy="169.4" r="1.5"/>
	<circle class="st0" cx="37.7" cy="37.6" r="1.5"/>
	<circle class="st0" cx="141.6" cy="211" r="0.9"/>
	<circle class="st0" cx="198.5" cy="146.6" r="0.9"/>
	<path class="st0" d="M169.7,105.7c0.9,0,1.7,0.8,1.7,1.7c0,0.9-0.8,1.7-1.7,1.7s-1.7-0.8-1.7-1.7
		C168,106.5,168.8,105.7,169.7,105.7z"/>
	<circle class="st0" cx="130.9" cy="106.6" r="0.9"/>
	<path class="st0" d="M225.9,33.7c0.9,0,1.7,0.8,1.7,1.7c0,0.9-0.8,1.7-1.7,1.7s-1.7-0.8-1.7-1.7C224.2,34.5,225,33.7,225.9,33.7z"
		/>
	<circle class="st0" cx="194.4" cy="12.8" r="0.9"/>
	<circle class="st0" cx="109.6" cy="157" r="0.9"/>
	<circle class="st0" cx="125.7" cy="45.4" r="1.5"/>
	<path class="st0" d="M87,53c0.5,0,0.9,0.4,0.9,0.9c0,0.5-0.4,0.9-0.9,0.9s-0.9-0.4-0.9-0.9C86.1,53.4,86.5,53,87,53z"/>
	<circle class="st0" cx="112.3" cy="198.6" r="1.7"/>
	<circle class="st0" cx="74.2" cy="197.8" r="0.9"/>
	<circle class="st0" cx="69" cy="137.6" r="1.4"/>
	<circle class="st0" cx="30.9" cy="146" r="0.9"/>
	<path class="st0" d="M109.6,141.3c0.9,0,1.7,0.8,1.7,1.7c0,0.9-0.8,1.7-1.7,1.7s-1.7-0.8-1.7-1.7
		C107.9,142.1,108.7,141.3,109.6,141.3z"/>
	<circle class="st0" cx="71.5" cy="142.2" r="0.9"/>
	<path class="st0" d="M66.4,80.6c0.8,0,1.4,0.6,1.4,1.4c0,0.8-0.6,1.4-1.4,1.4S65,82.8,65,82C65,81.2,65.6,80.6,66.4,80.6z"/>
	<path class="st0" d="M28.2,89.5c0.5,0,0.9,0.4,0.9,0.9c0,0.5-0.4,0.9-0.9,0.9s-0.9-0.4-0.9-0.9C27.3,89.9,27.7,89.5,28.2,89.5z"/>
	<path class="st0" d="M113.9,102.1c0.5,0,0.9,0.4,0.9,0.9c0,0.5-0.4,0.9-0.9,0.9s-0.9-0.4-0.9-0.9
		C113,102.5,113.4,102.1,113.9,102.1z"/>
	<path class="st0" d="M32.9,3.1c0.5,0,0.9,0.4,0.9,0.9c0,0.5-0.4,0.9-0.9,0.9S32,4.5,32,4C32,3.5,32.4,3.1,32.9,3.1z"/>
	<circle class="st0" cx="14.4" cy="18.8" r="0.9"/>
	<circle class="st0" cx="164" cy="52.7" r="0.9"/>
	<circle class="st0" cx="65.7" cy="104.3" r="0.9"/>
	<circle class="st0" cx="202.7" cy="244.4" r="1.5"/>
	<path class="st0" d="M226,267.9c0.4,0,0.8,0.4,0.8,0.8s-0.4,0.8-0.8,0.8s-0.8-0.4-0.8-0.8S225.6,267.9,226,267.9z"/>
	<circle class="st0" cx="270.2" cy="250.8" r="0.8"/>
	<circle class="st0" cx="254.9" cy="269.8" r="1.7"/>
	<circle class="st0" cx="216.2" cy="269" r="0.9"/>
	<circle class="st0" cx="194.9" cy="319.4" r="0.9"/>
	<circle class="st0" cx="166" cy="280.2" r="1.7"/>
	<circle class="st0" cx="127.3" cy="279.4" r="0.9"/>
	<circle class="st0" cx="106" cy="329.7" r="0.9"/>
	<circle class="st0" cx="122.1" cy="218.2" r="1.5"/>
	<circle class="st0" cx="83.4" cy="226.7" r="0.9"/>
	<circle class="st0" cx="108.6" cy="371.4" r="1.7"/>
	<circle class="st0" cx="168.4" cy="388.5" r="1.7"/>
	<circle class="st0" cx="70.5" cy="370.6" r="0.9"/>
	<circle class="st0" cx="65.4" cy="310.3" r="1.4"/>
	<circle class="st0" cx="27.3" cy="318.7" r="0.9"/>
	<circle class="st0" cx="14.3" cy="407.2" r="0.9"/>
	<circle class="st0" cx="106" cy="315.8" r="1.7"/>
	<circle class="st0" cx="239.1" cy="356.4" r="0.8"/>
	<circle class="st0" cx="247.7" cy="322.7" r="0.9"/>
	<circle class="st0" cx="207.9" cy="387.1" r="0.9"/>
	<circle class="st0" cx="208.6" cy="350.6" r="1.7"/>
	<circle class="st0" cx="67.9" cy="315" r="0.9"/>
	<circle class="st0" cx="62.7" cy="254.8" r="1.4"/>
	<circle class="st0" cx="24.6" cy="263.2" r="0.9"/>
	<circle class="st0" cx="110.3" cy="275.8" r="0.9"/>
	<circle class="st0" cx="160.4" cy="225.5" r="0.9"/>
	<circle class="st0" cx="62" cy="277.1" r="0.9"/>
</g>
</svg>
