<?xml version="1.0" encoding="UTF-8"?><svg id="Layer_2" xmlns="http://www.w3.org/2000/svg" viewBox="0 0 186.7 186.3"><defs><style>.cls-1{fill:#fff;}</style></defs><g id="hover-circle"><path class="cls-1" d="M92.5,51.9c2.9,0,5.7,.3,8.4,.9-1.5-5.7-4.2-11.1-8.3-15.7-4.1,4.6-6.9,10-8.4,15.6,2.7-.5,5.4-.8,8.3-.8h0Zm-66.5,4c6.6-4.2,14.3-6.6,22.3-6.9,.3-7.9,2.7-15.6,7-22.3-8.7,1.2-7.9,11.1-13,16.1-5.2,5.1-16.7,4.6-16.3,13.1h0Zm-7.1,57.9c1.7-7.7,5.4-14.8,10.9-20.6-5.4-5.8-9.1-13-10.8-20.7-5.4,7,2.2,13.4,2.2,20.6,0,7.2-8.6,15-2.3,20.7h0Zm36,46c-4.2-6.6-6.6-14.3-6.9-22.3-7.9-.3-15.6-2.7-22.3-7,1.2,8.7,11.1,7.9,16.1,13,5.2,5.2,4.6,16.7,13.1,16.3h0Zm58,7.1c-7.7-1.7-14.8-5.4-20.6-10.9-5.8,5.4-13,9.1-20.7,10.8,7,5.4,13.4-2.2,20.6-2.2,7.2,0,14.9,8.5,20.7,2.3h0Zm46-36.1c-6.6,4.2-14.3,6.6-22.3,6.9-.3,7.9-2.7,15.6-7,22.3,8.7-1.2,7.9-11.1,13-16.1,5.2-5.1,16.7-4.6,16.3-13.1h0Zm7.1-58c-1.7,7.7-5.4,14.8-10.9,20.6,5.4,5.8,9.1,13,10.8,20.7,5.3-7-2.3-13.4-2.3-20.6,.1-7.1,8.6-14.9,2.4-20.7h0Zm-36.1-45.9c4.3,6.6,6.6,14.3,6.9,22.3,8,.3,15.6,2.7,22.3,7-1.2-8.7-11.1-7.9-16.1-13-5.1-5.2-4.6-16.7-13.1-16.3h0Zm-58-7.1c7.7,1.7,14.8,5.4,20.6,10.9,5.8-5.4,13-9.1,20.7-10.8-7-5.3-13.4,2.3-20.6,2.3-7.1-.1-14.9-8.6-20.7-2.4h0ZM93.3,.6c11.6,0,22.7,2.1,33,6,1-2.2,2.8-4.1,5.2-5.6l.9-.5,.3,1.1c.6,2.8,.5,5.4-.3,7.6,9.9,4.6,18.9,10.9,26.6,18.5,7.9,7.9,14.4,17.2,19,27.6,2.3-.8,4.8-.9,7.6-.2l1.1,.2-.6,.9c-1.5,2.5-3.4,4.2-5.6,5.2,3.6,9.9,5.7,20.7,5.7,31.9s-2.2,22.7-6,33c2.2,1,4.1,2.8,5.6,5.2l.6,.9h0l-1.1,.3h-3.6c-1.4,0-2.8-.2-4.2-.7-4.6,9.9-10.9,18.9-18.5,26.6-7.9,7.9-17.2,14.4-27.6,19,.8,2.3,.9,4.8,.2,7.6l-.3,1.1-.9-.6c-2.5-1.5-4.2-3.4-5.2-5.6-9.9,3.6-20.7,5.7-31.9,5.7s-22.7-2.2-32.9-6c-1.1,2.2-2.8,4.1-5.3,5.6l-.9,.6h0l-.2-1.1c-.7-2.8-.6-5.4,.3-7.7-9.9-4.6-18.9-10.9-26.6-18.5-7.9-7.9-14.4-17.2-19-27.6-2.3,.8-4.8,.9-7.6,.2l-1.1-.3,.6-.9c1.5-2.5,3.4-4.2,5.6-5.2-3.6-9.9-5.6-20.7-5.6-31.9s2.1-22.7,6-32.9c-2.2-1.1-4.1-2.8-5.6-5.3l-.5-.9,1.1-.2c2.8-.7,5.4-.6,7.6,.3,4.5-9.6,10.8-18.6,18.5-26.3,7.9-7.9,17.2-14.4,27.6-19-.8-2.3-.9-4.8-.2-7.6l.2-1.1,.9,.6c2.5,1.5,4.2,3.4,5.2,5.6,10-3.6,20.7-5.6,31.9-5.6h0Zm32.3,7.5c-10-3.8-21-5.9-32.4-5.9s-21.5,2-31.3,5.6c.7,2.2,.8,4.7,.2,7.5l-.2,1.2-1-.7c-2.3-1.6-4-3.4-5.1-5.5-10.1,4.6-19.3,11-27,18.7-7.5,7.5-13.7,16.3-18.3,26,2,1.1,3.9,2.8,5.4,5.1l.7,1-1.2,.2c-2.8,.5-5.3,.4-7.5-.3-3.8,10-5.9,21-5.9,32.4s2,21.6,5.6,31.3c2.2-.7,4.7-.7,7.4-.2l1.2,.2-.7,1c-1.6,2.3-3.4,4-5.5,5.1,4.6,10.1,11,19.3,18.7,27.1,7.5,7.5,16.3,13.7,26,18.2,1.1-2,2.8-3.8,5.1-5.4l1-.7h0l.2,1.2c.5,2.8,.4,5.2-.3,7.4,10,3.8,21,5.9,32.4,5.9s21.6-2,31.3-5.6c-.7-2.2-.7-4.7-.2-7.4l.2-1.2,1,.7c2.3,1.6,4,3.4,5.1,5.5,10.1-4.6,19.3-11,27.1-18.7,7.5-7.5,13.7-16.3,18.2-26.1-2-1.1-3.9-2.8-5.4-5.1l-.7-1h0l1.2-.2c.8-.1,1.5-.2,2.3-.2h.8c1.5,0,3,.2,4.3,.6,3.8-10.1,5.9-21,5.9-32.4s-2-21.5-5.6-31.3c-2.2,.7-4.7,.8-7.4,.2l-1.2-.2,.7-1c1.6-2.3,3.4-4,5.5-5.1-4.6-10.1-11-19.3-18.7-27-7.5-7.5-16.3-13.7-26.1-18.3-1.1,2-2.8,3.9-5.1,5.4l-1,.7-.2-1.2c-.2-2.8-.1-5.3,.5-7.5h0ZM55.9,177.6c-.8,1.8-1,3.9-.7,6.1,1.9-1.4,3.1-2.9,3.9-4.8,.7-1.8,1-3.9,.7-6.2-1.8,1.5-3.1,3.1-3.9,4.9h0Zm121.6-46.9c1.3,.6,2.7,.9,4.2,.9h1.9c-1.4-1.8-2.9-3.1-4.8-3.9-1.5-.6-3.2-.9-5-.8h-.3c-.2,0-.5,0-.8,.1,1.4,1.7,3,3,4.8,3.7h0Zm1.8-70.5c1.8-.7,3.4-2,4.8-3.8-2.2-.4-4.3-.2-6.1,.6s-3.5,2.1-4.9,3.9c2.3,.3,4.4,.1,6.2-.7h0Zm-52.9,119.2c.7,1.8,2,3.4,3.9,4.8,.3-2.2,.1-4.3-.6-6.1-.8-1.8-2.1-3.5-3.9-4.9-.3,2.3-.1,4.3,.6,6.2h0ZM7.3,126.5c-1.8,.7-3.4,2-4.8,3.9,2.3,.3,4.3,.1,6.1-.6,1.8-.8,3.4-2.1,4.9-3.9-2.3-.3-4.4-.1-6.2,.6h0Zm1.8-70.5c-1.8-.8-3.9-1-6.1-.7,1.4,1.9,2.9,3.1,4.8,3.9,1.8,.7,3.9,1,6.2,.7-1.5-1.8-3.1-3.1-4.9-3.9h0ZM60.2,7.4c-.7-1.8-2-3.4-3.8-4.8-.4,2.3-.2,4.3,.6,6.1,.8,1.8,2.1,3.4,3.9,4.9,.2-2.3,0-4.4-.7-6.2h0Zm70.5,1.8c.8-1.8,1.1-3.9,.7-6.1-1.8,1.4-3.1,2.9-3.9,4.8-.7,1.8-1,3.9-.7,6.2,1.8-1.5,3.1-3.2,3.9-4.9h0Zm-28.1,43.9c4.1,1,7.8,2.6,11.3,4.7,5.5-3.3,11.8-5.4,18.6-5.8v-1.4c0-10.6-4.1-20.2-10.9-27.4-9.9,.3-19.6,4.2-27.1,11.7-.3,.2-.6,.5-.9,.8,4.5,5.3,7.5,11.2,9,17.4h0ZM32.9,33.8h0c8.1-8.1,18.7-12.2,29.4-12.2h.6l.3-.3c7.5-7.5,17.9-12.2,29.4-12.2s21.8,4.6,29.4,12.2c.1,.1,.2,.3,.4,.4h.4c10.6,0,21.2,4.1,29.4,12.2h0c8.1,8.1,12.2,18.8,12.2,29.4v.6l.3,.3c7.5,7.5,12.2,17.9,12.2,29.4s-4.6,21.9-12.2,29.4c-.1,.1-.3,.3-.4,.4v.4c0,10.6-4.1,21.2-12.2,29.4h0c-8.1,8.1-18.7,12.2-29.4,12.2h-.6l-.3,.3c-7.5,7.5-17.9,12.2-29.4,12.2s-21.8-4.6-29.4-12.2c-.1-.1-.3-.2-.4-.4h-.4c-10.6,0-21.2-4.1-29.4-12.2h0c-8.1-8.3-12.1-18.9-12.1-29.5v-.6l-.3-.3c-7.5-7.5-12.2-17.9-12.2-29.4s4.6-21.8,12.2-29.4c.1-.1,.2-.2,.4-.4v-.4c0-10.6,4-21.2,12.1-29.3h0Zm32.1-12.1c9.7,.6,19.2,4.6,26.7,12.1h0c.3,.3,.6,.6,.9,.9,.3-.3,.5-.5,.8-.8,7.5-7.4,17-11.4,26.8-12.1-7.1-6.9-16.9-11.1-27.6-11.1-10.7,0-20.4,4.2-27.6,11h0Zm38.4,47.6c-1,6.6-3.6,13-7.8,18.7-.1,.8-.2,1.7-.3,2.6,.9,0,1.7-.1,2.6-.3,5.6-4.2,12.1-6.7,18.7-7.7,1.5-1.1,2.9-2.4,4.2-3.7,2-2,3.9-4.3,5.5-6.8-1.6-2.5-3.5-4.8-5.6-7-2.1-2.1-4.3-3.9-6.8-5.5-2.6,1.6-4.9,3.4-7,5.6-1.3,1.3-2.4,2.7-3.5,4.1h0Zm-16.4,27.3c-5.6,4.2-12.1,6.8-18.7,7.7-1.5,1.1-2.9,2.3-4.2,3.6-2.1,2.1-3.9,4.3-5.5,6.8,1.6,2.6,3.4,4.9,5.6,7,2,2.1,4.3,3.9,6.8,5.5,2.5-1.6,4.9-3.5,7-5.6,1.3-1.3,2.5-2.7,3.6-4.1,1-6.7,3.6-13.1,7.8-18.7,.1-.9,.2-1.7,.2-2.6-.9,.2-1.7,.3-2.6,.4h0Zm-34.9,6.9c-6.2-1.6-12.2-4.6-17.2-9.1-.3,.3-.7,.6-1,1h0c-7.5,7.5-11.4,17.2-11.7,27,7.1,6.8,16.8,11,27.5,11h1.2c.4-6.8,2.5-13.1,5.8-18.6-2-3.6-3.6-7.3-4.6-11.3h0Zm-18.4-10.2c-.3-.2-.5-.5-.8-.8-7.4-7.5-11.5-17-12.1-26.8-6.9,7.1-11.1,16.9-11.1,27.6s4.2,20.4,11,27.5c.6-9.7,4.6-19.2,12.1-26.7h0c.3-.2,.6-.5,.9-.8h0Zm.3-58.4h0c-7.5,7.5-11.4,17.3-11.7,27.2,7.3-6.4,16.9-10.3,27.4-10.3h1.3v-1.2c0-10.5,4-20.1,10.4-27.5-9.9,.3-19.8,4.2-27.4,11.8h0Zm-11.6,29.4c.3,9.9,4.2,19.7,11.7,27.1,.3,.3,.6,.6,.9,.9,5.1-4.4,11.1-7.4,17.3-9,1-4.1,2.6-7.8,4.7-11.3-3.3-5.5-5.4-11.8-5.8-18.6h-1.4c-10.6,0-20.3,4.1-27.4,10.9h0Zm13.7,29c4.6,4.1,10,6.9,15.6,8.4-.6-2.7-.8-5.4-.8-8.3s.3-5.7,.8-8.4c-5.6,1.5-11,4.3-15.6,8.3h0Zm17.3,8.8c2.9,.7,5.9,1,8.8,1,1.8,0,3.6-.1,5.4-.4,5.4-4,11.7-6.7,18.7-7.7,.7-.5,1.4-1.1,2-1.6-.7-.6-1.4-1.1-2-1.6-6.9-1-13.3-3.8-18.7-7.8-1.8-.2-3.7-.4-5.5-.4-2.9,0-5.8,.3-8.7,1-.7,2.8-1,5.8-1,8.8,.1,3,.4,5.9,1,8.7h0Zm18.2-.1c14.4-3.4,12.7-7.7,0,0h0Zm20.9-12.6c.6-.7,1.1-1.3,1.6-2,1-7,3.8-13.3,7.8-18.7,.2-1.8,.4-3.7,.4-5.6,0-2.9-.3-5.8-1-8.7-2.8-.6-5.8-1-8.8-1s-5.9,.3-8.7,.9c-.7,2.9-1,5.9-1,8.9,0,1.8,.1,3.6,.4,5.4,4,5.4,6.7,11.8,7.7,18.7,.5,.8,1,1.4,1.6,2.1h0Zm8.7-16.8c-7.9,12.7-3.6,14.4,0,0h0Zm-9.7-36.7c-.3-.3-.6-.6-1-1h0c-7.5-7.5-17.2-11.4-27-11.7-6.8,7.1-11,16.9-11,27.5v1.2c6.8,.5,13.1,2.6,18.6,5.8,3.5-2.1,7.2-3.6,11.3-4.6,1.6-6.2,4.6-12.1,9.1-17.2h0Zm-.7,63.6c-1,6.9-3.8,13.3-7.8,18.7-.2,1.8-.4,3.7-.4,5.5,0,2.9,.3,5.8,1,8.7,2.8,.7,5.8,1,8.8,1s5.9-.3,8.7-1c.7-2.9,1-5.9,1-8.8,0-1.8-.1-3.6-.3-5.4-4-5.4-6.7-11.7-7.7-18.7-.5-.7-1.1-1.4-1.6-2-.6,.7-1.1,1.3-1.7,2h0Zm-19.8,29.5c-5.5,3.3-11.8,5.4-18.6,5.8v1.4c0,10.6,4.1,20.2,10.8,27.4,9.9-.3,19.7-4.2,27.2-11.7,.3-.3,.6-.6,.8-.9-4.4-5.1-7.4-11.1-9-17.2-3.9-1.1-7.7-2.7-11.2-4.8h0Zm-20.2,5.9h-1.1c-10.5,0-20.2-4-27.5-10.4,.2,9.9,4.1,19.8,11.7,27.4h0c7.5,7.5,17.3,11.4,27.2,11.7-6.4-7.3-10.3-16.9-10.3-27.4,0-.5,0-.9,0-1.3h0Zm1.7-1.7c6.1-.4,11.9-2.2,17-5.1-2.3-1.5-4.5-3.3-6.4-5.3-2-2-3.8-4.2-5.4-6.6-2.9,5.1-4.7,10.9-5.2,17h0Zm31.3-18.9c7.8-12.7,3.5-14.5,0,0h0Zm5.8-23.7c0-.9-.1-1.7-.2-2.6-4.2-5.6-6.8-12.1-7.7-18.7-1.1-1.5-2.3-2.9-3.6-4.2-2.1-2-4.3-3.9-6.8-5.5-2.5,1.6-4.9,3.5-7,5.6s-3.9,4.3-5.5,6.8c1.6,2.6,3.5,4.9,5.6,7,1.3,1.3,2.7,2.5,4.1,3.6,6.7,1,13.1,3.6,18.7,7.8,.7,0,1.5,.1,2.4,.2h0Zm-5.7-18c3.4,14.4,7.7,12.7,0,0h0Zm-14.2-13.9c-5.1-2.9-10.9-4.8-17-5.2,.4,6.2,2.3,11.9,5.2,17,1.5-2.3,3.3-4.5,5.3-6.4,1.9-2.1,4.1-3.9,6.5-5.4h0Zm25.9,40.2c4.2,5.6,6.7,12.1,7.7,18.7,1.1,1.5,2.4,2.9,3.7,4.2,2,2.1,4.3,3.9,6.8,5.5,2.5-1.6,4.9-3.4,7-5.6,2.1-2,3.9-4.3,5.5-6.8-1.6-2.5-3.4-4.9-5.6-7-1.3-1.3-2.6-2.5-4.1-3.5-6.6-1-13-3.6-18.7-7.8-.8-.1-1.7-.2-2.6-.2,.1,.8,.2,1.7,.3,2.5h0Zm6.9,34.8c-1.5,6.2-4.6,12.2-9,17.2,.3,.3,.6,.7,.9,1h0c7.5,7.5,17.2,11.4,27,11.7,6.8-7.1,11-16.8,11-27.5v-1.2c-6.8-.4-13-2.5-18.5-5.8-3.6,2.1-7.4,3.7-11.4,4.6h0Zm-10.1,18.4c-.3,.3-.5,.6-.8,.8-7.4,7.4-17,11.5-26.8,12.1,7.2,6.9,16.9,11.1,27.6,11.1s20.3-4.2,27.5-11c-9.7-.7-19.2-4.7-26.7-12.1h0c-.2-.2-.5-.5-.8-.9h0Zm0-2.3c4-4.6,6.8-10,8.4-15.6-2.7,.6-5.4,.9-8.3,.9s-5.7-.3-8.5-.9c1.6,5.6,4.3,10.9,8.4,15.6h0Zm8.7-35.5c-3.5-14.5-7.8-12.7,0,0h0Zm-29.5-29.5c12.7,7.8,14.5,3.5,0,0h0Zm27,10.3c6.9,1,13.3,3.8,18.6,7.8,1.8,.3,3.7,.4,5.6,.4,2.9,0,5.8-.3,8.7-1,.6-2.8,1-5.8,1-8.8s-.3-5.9-.9-8.7c-2.9-.7-5.9-1-8.9-1-1.8,0-3.6,.1-5.4,.3-5.4,4-11.8,6.7-18.7,7.7-.7,.5-1.4,1.1-2,1.6,.6,.6,1.2,1.1,2,1.7h0Zm29.5,19.8c3.3,5.5,5.4,11.8,5.8,18.6h1.4c10.6,0,20.2-4.1,27.4-10.8-.3-9.9-4.2-19.7-11.7-27.2-.3-.3-.6-.6-.9-.8-5.1,4.4-11.1,7.4-17.3,9-1.1,3.9-2.7,7.7-4.7,11.2h0Zm5.8,20.1v1.1c0,10.5-3.9,20.2-10.4,27.5,9.9-.2,19.8-4.1,27.4-11.7h0c7.5-7.5,11.4-17.3,11.7-27.2-7.3,6.4-16.9,10.3-27.4,10.3h-1.3Zm-1.6-1.6c-.4-6.1-2.3-11.9-5.2-17-1.5,2.3-3.3,4.5-5.3,6.5s-4.2,3.8-6.6,5.3c5.1,2.9,10.9,4.7,17.1,5.2h0Zm-19-31.3c-12.7-7.8-14.5-3.5,0,0h0Zm19.5-18.7c6.2,1.5,12.1,4.6,17.2,9,.3-.3,.6-.6,1-.9h0c7.5-7.5,11.4-17.2,11.7-27-7.1-6.8-16.9-11-27.5-11h-1.2c-.5,6.8-2.6,13.1-5.8,18.5,2,3.6,3.6,7.4,4.6,11.4h0Zm18.4,10.2c.3,.2,.5,.5,.8,.8,7.4,7.4,11.5,17,12.1,26.8,6.9-7.2,11.1-16.9,11.1-27.6s-4.2-20.3-11-27.5c-.6,9.7-4.6,19.2-12.1,26.7h0c-.3,.1-.6,.4-.9,.8h0Zm-2.4-.1c-4.6-4-10-6.8-15.6-8.4,.5,2.7,.8,5.5,.8,8.3s-.3,5.7-.9,8.5c5.7-1.6,11.1-4.3,15.7-8.4h0Zm-35.5-8.7c-14.5,3.5-12.7,7.8,0,0h0Zm2.1-26c2.3,1.5,4.5,3.3,6.4,5.3,2,2,3.8,4.2,5.4,6.6,2.9-5.1,4.8-10.8,5.2-17-6.2,.4-11.9,2.2-17,5.1h0Zm18.6-6.8h1.2c10.5,0,20.1,3.9,27.5,10.4-.2-9.9-4.1-19.8-11.7-27.3h0c-7.5-7.5-17.3-11.4-27.2-11.7,6.4,7.3,10.3,16.9,10.3,27.4,0,.3,0,.8-.1,1.2h0Z"/></g></svg>