<?xml version="1.0" encoding="UTF-8"?><svg id="Layer_2" xmlns="http://www.w3.org/2000/svg" viewBox="0 0 283.2 398.3"><defs><style>.cls-1{fill:#ffb124;}.cls-2{fill:#808181;}.cls-3{fill:#574a2e;}</style></defs><g id="Layer_1-2"><g><path class="cls-2" d="M273.3,51.3c.3,2.4,0,4.6-.5,6.5s-1.3,3.6-2.1,4.9c-.8,1.3-1.6,2.3-2.4,3.1-.1,.2-.3,.3-.5,.5-.2,.1-.3,.3-.5,.4-.1,.2-.3,.3-.4,.4-.2,.1-.3,.2-.4,.3-.5,.3-.7,.5-.7,.5,0,0,.2-.2,.6-.6,.1-.1,.2-.2,.3-.3,.1-.1,.3-.2,.4-.4,.1-.2,.2-.3,.4-.5s.3-.4,.5-.6c.6-.9,1.3-2,1.9-3.3,.6-1.3,1.1-2.9,1.4-4.7,.3-1.8,.3-3.8-.1-5.9-.3-2-1.2-4.1-2.5-6.1-1.2-2-2.9-3.8-4.9-5.6-1.9-1.7-4.2-3.4-6.5-5.1s-4.6-3.4-6.7-5.3c-1.1-1-2.1-2-3-3s-1.7-2.1-2.4-3.2c-1.4-2.3-2.4-4.7-2.9-7-.3-1.1-.3-2.3-.3-3.4s.2-2.1,.5-3.1c.3-.9,.7-1.8,1.1-2.6,.1-.2,.2-.4,.3-.6,.1-.1,.1-.2,.2-.3,.1-.1,.1-.2,.2-.3,.2-.2,.3-.3,.4-.5,.1-.2,.3-.3,.4-.5,1-1.2,2.1-2,3.1-2.5,.2-.1,.3-.1,.4-.2,.1,0,.2-.1,.3-.1,.2,0,.4-.1,.6-.2,.4-.1,.7-.3,1-.3,.6-.1,.9-.1,.9-.1,0,0-.3,.1-.8,.3-.2,.1-.5,.2-.9,.4-.2,.1-.4,.2-.6,.3-.1,.1-.2,.1-.3,.2-.1,0-.2,.1-.3,.2-.9,.6-1.8,1.5-2.6,2.7-.1,.2-.2,.3-.3,.5s-.2,.3-.3,.5c0,.1-.1,.2-.1,.3s-.1,.2-.1,.3-.1,.3-.2,.5c-.3,.8-.6,1.6-.7,2.5-.2,.9-.3,1.8-.2,2.8s.2,2,.5,3c.6,2.1,1.6,4.1,3,6,.7,1,1.5,1.9,2.4,2.8,.7,.8,1.5,1.6,2.4,2.3l.1,.1c.2,.1,.4,.2,.6,.3s.4,.2,.6,.3c.4,.2,.8,.3,1.3,.5,.2,.1,.5,.1,.7,.2,.2,.1,.5,.2,.7,.2,1.9,.4,4.1,.4,6.2-.2s4.2-1.7,5.9-3.3c.8-.8,1.5-1.8,2.1-2.8,.1-.1,.1-.3,.2-.4l.2-.4c.1-.2,.2-.5,.3-.8,0-.3,.1-.6,.2-.9l.1-.4c.1-.1,.1-.2,.1-.4,.3-2.4-.1-4.9-1.2-6.9-.5-1-1.3-1.8-2.1-2.5s-1.8-1.2-2.8-1.5-2.1-.5-3.1-.5c-1-.1-2,.1-2.9,.4s-1.7,.8-2.4,1.3-1.2,1.2-1.7,1.9c-.1,.1-.2,.3-.3,.5s-.2,.4-.3,.6c-.2,.4-.3,.7-.4,1.1-.2,.8-.4,1.5-.4,2.2-.1,1.4,.2,2.6,.5,3.5,0,.1,.1,.2,.1,.3s.1,.2,.1,.3c.1,.2,.2,.4,.3,.6,.2,.3,.3,.6,.5,.8,.3,.4,.5,.6,.5,.6,0,0-.2-.1-.6-.5-.2-.1-.4-.4-.7-.7-.1-.1-.3-.3-.4-.5-.1-.1-.1-.2-.2-.3s-.1-.2-.3-.1c-.5-.9-1-2.2-1.1-3.7-.1-.8,0-1.6,.1-2.5,.1-.4,.1-.9,.3-1.3,0-.2,.1-.5,.2-.7s.2-.5,.3-.7c.5-.9,1.1-1.8,1.9-2.6s1.8-1.4,2.9-1.9,2.3-.8,3.6-.9,2.6,0,3.9,.4c1.3,.3,2.6,.9,3.8,1.8,1.2,.9,2.2,2,3,3.3,1.6,2.6,2.2,5.8,1.7,8.9,0,.2-.1,.4-.1,.6l-.1,.6c-.1,.4-.2,.7-.3,1.1-.1,.4-.2,.7-.4,1.1l-.3,.5c-.1,.2-.2,.3-.3,.5-.8,1.3-1.7,2.5-2.8,3.5-2.2,2-4.8,3.2-7.4,3.7-2,.4-4,.3-5.8,0,.7,.5,1.3,.9,1.9,1.4,2.3,1.8,4.7,3.5,6.7,5.5,2.1,1.9,3.9,4.1,5.2,6.4,.7,1.2,1.2,2.4,1.6,3.6,.2,.6,.3,1.2,.5,1.8,.1,.3,.1,.6,.2,.9,.1,.1,.1,.3,.1,.4s.1,.2,.2-.2Z"/><path class="cls-3" d="M273.3,27.3c-.4,.5-.8,1.2-1.3,1.9-.1,.2-.3,.4-.4,.6-.2,.2-.3,.4-.5,.6-.4,.4-.8,.7-1.3,1.1-.5,.3-1,.6-1.6,.9-.3,.2-.6,.3-.9,.4s-.6,.2-.9,.3c-1.2,.3-2.5,.3-3.6,.1,.6,.3,1.2,.5,1.8,.8,.6,.2,1.3,.5,2,.7s1.4,.4,2.2,.5c.7,.1,1.5,.2,2.3,.2,1.6-.1,3.2-.4,4.6-1,1.4-.6,2.6-1.4,3.3-2.3,.8-.9,1.3-1.8,1.6-2.8s.4-1.9,.3-2.7c-.1-.8-.3-1.5-.7-1.9-.4-.5-.8-.7-1.3-.8-.5-.1-1,0-1.5,.2-.5,.2-.9,.5-1.4,.8-.4,.3-.9,.7-1.3,1.1s-.9,.9-1.4,1.3Zm3.9-.1c.3-.6,.7-1,1-1s.6,.5,.6,1.4c0,.5,0,1-.2,1.5s-.4,1.1-.8,1.6c-.4,.5-.9,1.1-1.6,1.6s-1.5,.9-2.4,1.2c-.9,.2-1.8,.4-2.7,.4s-1.7-.1-2.5-.2c.7,0,1.5-.1,2.3-.3,.3-.1,.7-.2,1.1-.4,.4-.2,.8-.4,1.1-.6,1.4-.9,2.2-2.1,2.7-2.9,.6-.8,1-1.5,1.4-2.3Z"/><path class="cls-3" d="M283,49.8c0-.5-.2-1.1-.2-1.6-.2-.6-.4-1.1-.7-1.7-.1-.3-.3-.6-.5-.9-.1-.1-.2-.2-.3-.4-.1-.1-.2-.3-.3-.4-.2-.3-.5-.6-.7-.9-.3-.2-.5-.5-.8-.8-.2-.3-.5-.5-.8-.8-.3-.3-.6-.6-.9-.8s-.6-.5-.9-.7c-.3-.2-.7-.4-1-.6-.3-.2-.7-.4-1-.6-.4-.2-.7-.3-1-.5-.4-.2-.7-.3-1-.5-.3-.1-.6-.3-.9-.4-.1-.1-.3-.1-.4-.2-.1-.1-.3-.1-.4-.2-.3-.2-.5-.3-.8-.4,1,.7,1.9,1.7,2.6,2.9s1.2,2.5,1.5,3.7c.1,.3,.1,.6,.2,.9,0,.1,.1,.3,.1,.4,.1,.1,.1,.3,.1,.4,0,.3,.1,.6,.1,.9s.1,.5,.1,.8c.1,.3,.1,.6,.1,.8,0,.3,.1,.5,.1,.7,0,.4,.1,.8,.2,1.2,.1,.3,.2,.7,.3,1,.1,.4,.3,.7,.4,1,.1,.3,.2,.6,.4,.9s.3,.5,.5,.8c.4,.5,.8,1,1.2,1.3s.9,.5,1.4,.6,1-.1,1.5-.4c.4-.3,.9-.8,1.2-1.5,.1-.4,.3-.8,.4-1.2,.1-.4,.2-.8,.2-1.3s0-1,0-1.5Zm-2.5,1.9c0,.4-.1,.8-.2,1-.1,.3-.2,.4-.4,.4-.3,0-.7-.4-1-1.1-.3-.6-.7-1.6-1-2.6-.3-1.1-.6-2.5-1.2-4.1-.3-.8-.6-1.5-1-2.3s-.9-1.5-1.4-2.1c.5,.4,1.1,1,1.7,1.6s1.2,1.3,1.8,2c1.2,1.4,2,2.9,2.4,4.1,.3,1.2,.4,2.3,.3,3.1Z"/></g><path class="cls-1" d="M141.6,260.1c-16.5,0-31.9-6.4-43.6-18-11.6-11.6-18-27.1-18-43.6s6.4-31.9,18-43.6c11.6-11.6,27.1-18,43.6-18s31.9,6.4,43.6,18c11.6,11.6,18,27.1,18,43.6s-6.4,31.9-18,43.6c-11.7,11.6-27.2,18-43.6,18Zm0-122.7c-33.7,0-61.1,27.4-61.1,61.1s27.4,61.1,61.1,61.1,61.1-27.4,61.1-61.1-27.4-61.1-61.1-61.1Z"/><g><g><path class="cls-2" d="M273.2,345.5c0,.1,0,.3-.1,.4-.1,.3-.1,.6-.2,.9-.2,.6-.3,1.2-.5,1.8-.4,1.2-.9,2.4-1.6,3.6-1.3,2.3-3.1,4.5-5.2,6.4-2,2-4.4,3.7-6.7,5.5-.6,.5-1.2,.9-1.9,1.4,1.8-.3,3.8-.4,5.8,0,2.6,.5,5.2,1.7,7.4,3.7,1.1,1,2,2.2,2.8,3.5,.1,.2,.2,.3,.3,.5l.3,.5c.2,.4,.3,.7,.4,1.1,.1,.4,.2,.7,.3,1.1l.1,.6c0,.2,.1,.4,.1,.6,.5,3.1-.1,6.3-1.7,8.9-.8,1.3-1.8,2.4-3,3.3s-2.5,1.5-3.8,1.8c-1.3,.4-2.6,.5-3.9,.4s-2.5-.4-3.6-.9-2.1-1.1-2.9-1.9-1.4-1.7-1.9-2.6c-.1-.2-.2-.5-.3-.7s-.2-.5-.2-.7c-.2-.4-.2-.9-.3-1.3-.1-.9-.2-1.7-.1-2.5,.1-1.5,.6-2.8,1.1-3.7,.1-.1,.1-.2,.2-.3,.1-.1,.1-.2,.2-.3,.1-.2,.3-.4,.4-.5,.3-.3,.5-.6,.7-.7,.4-.4,.6-.5,.6-.5,0,0-.2,.2-.5,.6-.2,.2-.3,.5-.5,.8-.1,.2-.2,.4-.3,.6,0,.1-.1,.2-.1,.3s-.1,.2-.1,.3c-.3,.9-.6,2.1-.5,3.5,0,.7,.2,1.4,.4,2.2,.1,.4,.2,.7,.4,1.1,.1,.2,.2,.4,.3,.6s.2,.4,.3,.5c.5,.7,1,1.4,1.7,1.9s1.5,1,2.4,1.3,1.9,.5,2.9,.4c1,0,2.1-.2,3.1-.5s2-.8,2.8-1.5,1.6-1.5,2.1-2.5c1.1-2,1.5-4.5,1.2-6.9,0-.2,0-.3-.1-.4l-.1-.4c-.1-.3-.2-.6-.2-.9-.1-.3-.2-.6-.3-.8l-.2-.4c-.1-.1-.1-.3-.2-.4-.6-1-1.3-2-2.1-2.8-1.7-1.6-3.8-2.7-5.9-3.3-2.1-.6-4.3-.6-6.2-.2-.2,0-.5,.1-.7,.2s-.5,.1-.7,.2c-.5,.2-.9,.3-1.3,.5l-.6,.3-.6,.3-.1,.1c-.9,.7-1.7,1.5-2.4,2.3-.9,.9-1.7,1.8-2.4,2.8-1.4,1.9-2.4,3.9-3,6-.3,1-.4,2-.5,3s0,1.9,.2,2.8c.1,.9,.4,1.7,.7,2.5,.1,.2,.2,.4,.2,.5s.1,.2,.1,.3,.1,.2,.1,.3c.1,.2,.2,.3,.3,.5s.2,.3,.3,.5c.8,1.2,1.7,2.1,2.6,2.7,.1,.1,.2,.2,.3,.2,.1,.1,.2,.1,.3,.2l.6,.3c.4,.2,.7,.3,.9,.4,.5,.2,.8,.3,.8,.3,0,0-.3,0-.9-.1-.3,0-.6-.2-1-.3-.2-.1-.4-.2-.6-.2-.1,0-.2-.1-.3-.1-.1-.1-.2-.1-.4-.2-1-.5-2.1-1.3-3.1-2.5-.1-.2-.3-.3-.4-.5-.1-.2-.2-.3-.4-.5-.1-.1-.1-.2-.2-.3-.1-.1-.1-.2-.2-.3-.1-.2-.2-.4-.3-.6-.4-.8-.8-1.7-1.1-2.6-.3-1-.5-2-.5-3.1s0-2.3,.3-3.4c.5-2.3,1.5-4.7,2.9-7,.7-1.1,1.5-2.2,2.4-3.2s1.9-2,3-3c2.1-1.9,4.4-3.6,6.7-5.3,2.3-1.7,4.6-3.4,6.5-5.1,2-1.8,3.7-3.6,4.9-5.6,1.3-2,2.2-4.1,2.5-6.1,.4-2.1,.4-4.1,.1-5.9s-.8-3.4-1.4-4.7c-.6-1.3-1.3-2.4-1.9-3.3-.2-.2-.3-.4-.5-.6s-.3-.3-.4-.5c-.1-.2-.3-.3-.4-.4-.1-.1-.2-.2-.3-.3-.4-.4-.6-.6-.6-.6,0,0,.2,.2,.7,.5,.1,.1,.2,.2,.4,.3,.1,.1,.3,.2,.4,.4,.2,.1,.3,.3,.5,.4,.2,.2,.4,.3,.5,.5,.8,.8,1.6,1.8,2.4,3.1,.8,1.3,1.6,3,2.1,4.9s.8,4.1,.4,6.5c.1-.3,.1-.1,0,0Z"/><path class="cls-3" d="M274.8,370.9c.4,.4,.9,.8,1.3,1.1,.5,.3,.9,.6,1.4,.8,.5,.2,1,.3,1.5,.2,.5-.1,.9-.3,1.3-.8,.4-.4,.6-1.1,.7-1.9,.1-.8,0-1.7-.3-2.7s-.8-1.9-1.6-2.8c-.7-.9-1.9-1.7-3.3-2.3-1.4-.6-3-.9-4.6-1-.8,0-1.6,.1-2.3,.2-.8,.1-1.5,.3-2.2,.5s-1.4,.5-2,.7c-.6,.3-1.2,.5-1.8,.8,1.1-.2,2.4-.2,3.6,.1,.3,.1,.6,.2,.9,.3,.3,.1,.6,.2,.9,.4,.6,.3,1.1,.6,1.6,.9,.5,.4,.9,.7,1.3,1.1,.2,.2,.3,.4,.5,.6,.1,.2,.3,.4,.4,.6,.5,.7,.9,1.4,1.3,1.9,.6,.5,1,.9,1.4,1.3Zm1.2-3.5c-.5-.8-1.3-2-2.7-2.9-.3-.2-.7-.4-1.1-.6-.4-.2-.8-.3-1.1-.4-.8-.2-1.6-.3-2.3-.3,.8-.1,1.6-.2,2.5-.2s1.8,.2,2.7,.4c.9,.3,1.7,.7,2.4,1.2s1.2,1.1,1.6,1.6c.4,.5,.6,1.1,.8,1.6s.2,1,.2,1.5c0,.9-.3,1.4-.6,1.4s-.7-.4-1-1c-.5-.7-.9-1.5-1.4-2.3Z"/><path class="cls-3" d="M283.1,345.7c0-.5-.1-.9-.2-1.3-.1-.4-.3-.8-.4-1.2-.3-.7-.8-1.2-1.2-1.5-.5-.3-1-.5-1.5-.4s-1,.3-1.4,.6c-.4,.3-.8,.8-1.2,1.3-.2,.3-.3,.5-.5,.8s-.3,.6-.4,.9c-.1,.3-.3,.6-.4,1-.1,.3-.2,.7-.3,1-.1,.4-.2,.8-.2,1.2,0,.2-.1,.4-.1,.7,0,.2,0,.5-.1,.8,0,.3-.1,.5-.1,.8s-.1,.6-.1,.9c0,.1,0,.3-.1,.4,0,.1-.1,.3-.1,.4-.1,.3-.1,.6-.2,.9-.3,1.2-.8,2.5-1.5,3.7s-1.6,2.2-2.6,2.9c.3-.1,.5-.2,.8-.4,.1-.1,.3-.1,.4-.2,.1-.1,.3-.1,.4-.2,.3-.1,.6-.3,.9-.4,.3-.2,.6-.3,1-.5,.3-.2,.6-.3,1-.5,.3-.2,.7-.4,1-.6s.7-.4,1-.6,.6-.5,.9-.7,.6-.5,.9-.8,.6-.5,.8-.8c.3-.3,.5-.6,.8-.8,.2-.3,.5-.6,.7-.9,.1-.1,.2-.3,.3-.4,.1-.2,.2-.3,.3-.4,.2-.3,.4-.6,.5-.9,.3-.6,.5-1.1,.7-1.7,.1-.5,.2-1.1,.3-1.6,0-.5,0-1-.1-1.5Zm-2.8,2.6c-.4,1.2-1.2,2.7-2.4,4.1-.6,.7-1.2,1.4-1.8,2s-1.2,1.2-1.7,1.6c.5-.6,1-1.3,1.4-2.1,.4-.8,.7-1.5,1-2.3,.6-1.6,.9-3,1.2-4.1,.3-1,.7-2,1-2.6,.3-.7,.7-1.1,1-1.1,.2,0,.3,.1,.4,.4,.1,.2,.2,.6,.2,1,.2,.9,.1,2-.3,3.1Z"/></g><g><path class="cls-2" d="M9.9,345.5c0,.1,0,.3,.1,.4,.1,.3,.1,.6,.2,.9,.2,.6,.3,1.2,.5,1.8,.4,1.2,.9,2.4,1.6,3.6,1.3,2.3,3.1,4.5,5.2,6.4,2,2,4.4,3.7,6.7,5.5,.6,.5,1.2,.9,1.9,1.4-1.8-.3-3.8-.4-5.8,0-2.6,.5-5.2,1.7-7.4,3.7-1.1,1-2,2.2-2.8,3.5-.1,.2-.2,.3-.3,.5l-.3,.5c-.2,.4-.3,.7-.4,1.1-.1,.4-.2,.7-.3,1.1l-.1,.6c0,.2-.1,.4-.1,.6-.5,3.1,.1,6.3,1.7,8.9,.8,1.3,1.8,2.4,3,3.3s2.5,1.5,3.8,1.8c1.3,.4,2.6,.5,3.9,.4s2.5-.4,3.6-.9,2.1-1.1,2.9-1.9,1.4-1.7,1.9-2.6c.1-.2,.2-.5,.3-.7s.2-.5,.2-.7c.2-.4,.2-.9,.3-1.3,.1-.9,.2-1.7,.1-2.5-.1-1.5-.6-2.8-1.1-3.7-.1-.1-.1-.2-.2-.3-.1-.1-.1-.2-.2-.3-.1-.2-.3-.4-.4-.5-.3-.3-.5-.6-.7-.7-.4-.4-.6-.5-.6-.5,0,0,.2,.2,.5,.6,.2,.2,.3,.5,.5,.8,.1,.2,.2,.4,.3,.6,0,.1,.1,.2,.1,.3s.1,.2,.1,.3c.3,.9,.6,2.1,.5,3.5,0,.7-.2,1.4-.4,2.2-.1,.4-.2,.7-.4,1.1-.1,.2-.2,.4-.3,.6s-.2,.4-.3,.5c-.5,.7-1,1.4-1.7,1.9s-1.5,1-2.4,1.3-1.9,.5-2.9,.4c-1,0-2.1-.2-3.1-.5s-2-.8-2.8-1.5-1.6-1.5-2.1-2.5c-1.1-2-1.5-4.5-1.2-6.9,0-.2,0-.3,.1-.4l.1-.4c.1-.3,.2-.6,.2-.9,.1-.3,.2-.6,.3-.8l.2-.4c.1-.1,.1-.3,.2-.4,.6-1,1.3-2,2.1-2.8,1.7-1.6,3.8-2.7,5.9-3.3,2.1-.6,4.3-.6,6.2-.2,.2,0,.5,.1,.7,.2s.5,.1,.7,.2c.5,.2,.9,.3,1.3,.5l.6,.3,.6,.3,.1,.1c.9,.7,1.7,1.5,2.4,2.3,.9,.9,1.7,1.8,2.4,2.8,1.4,1.9,2.4,3.9,3,6,.3,1,.4,2,.5,3s0,1.9-.2,2.8c-.1,.9-.4,1.7-.7,2.5-.1,.2-.2,.4-.2,.5s-.1,.2-.1,.3-.1,.2-.1,.3c-.1,.2-.2,.3-.3,.5s-.2,.3-.3,.5c-.8,1.2-1.7,2.1-2.6,2.7-.1,.1-.2,.2-.3,.2-.1,.1-.2,.1-.3,.2l-.6,.3c-.4,.2-.7,.3-.9,.4-.5,.2-.8,.3-.8,.3,0,0,.3,0,.9-.1,.3,0,.6-.2,1-.3,.2-.1,.4-.2,.6-.2,.1,0,.2-.1,.3-.1,.1-.1,.2-.1,.4-.2,1-.5,2.1-1.3,3.1-2.5,.1-.2,.3-.3,.4-.5,.1-.2,.2-.3,.4-.5,.1-.1,.1-.2,.2-.3,.1-.1,.1-.2,.2-.3,.1-.2,.2-.4,.3-.6,.4-.8,.8-1.7,1.1-2.6,.3-1,.5-2,.5-3.1s0-2.3-.3-3.4c-.5-2.3-1.5-4.7-2.9-7-.7-1.1-1.5-2.2-2.4-3.2s-1.9-2-3-3c-2.1-1.9-4.4-3.6-6.7-5.3-2.3-1.7-4.6-3.4-6.5-5.1-2-1.8-3.7-3.6-4.9-5.6-1.3-2-2.2-4.1-2.5-6.1-.4-2.1-.4-4.1-.1-5.9,.3-1.8,.8-3.4,1.4-4.7,.6-1.3,1.3-2.4,1.9-3.3,.2-.2,.3-.4,.5-.6s.3-.3,.4-.5c.1-.2,.3-.3,.4-.4,.1-.1,.2-.2,.3-.3,.4-.4,.6-.6,.6-.6,0,0-.2,.2-.7,.5-.1,.1-.2,.2-.4,.3-.1,.1-.3,.2-.4,.4-.2,.1-.3,.3-.5,.4-.2,.2-.4,.3-.5,.5-.8,.8-1.6,1.8-2.4,3.1-.8,1.3-1.6,3-2.1,4.9s-.8,4.1-.4,6.5c-.1-.3,0-.1,0,0Z"/><path class="cls-3" d="M9.6,369.6c.4-.5,.8-1.1,1.3-1.9,.1-.2,.3-.4,.4-.6,.2-.2,.3-.4,.5-.6,.4-.4,.8-.8,1.3-1.1,.5-.4,1-.7,1.6-.9,.3-.1,.6-.3,.9-.4,.3-.1,.6-.2,.9-.3,1.2-.3,2.5-.3,3.6-.1-.6-.3-1.1-.5-1.8-.8-.6-.3-1.3-.5-2-.7s-1.4-.4-2.2-.5-1.5-.2-2.3-.2c-1.6,0-3.2,.3-4.6,1-1.4,.6-2.5,1.4-3.3,2.3-.7,.9-1.3,1.9-1.6,2.8-.3,1-.4,1.9-.3,2.7,.1,.8,.4,1.4,.7,1.9,.4,.4,.8,.7,1.3,.8,.5,.1,1,0,1.5-.2s1-.5,1.4-.8c.5-.3,.9-.7,1.3-1.1,.5-.4,1-.8,1.4-1.3Zm-3.8,0c-.4,.6-.7,1-1,1s-.6-.5-.6-1.4c0-.4,.1-.9,.2-1.5,.2-.5,.4-1.1,.8-1.6,.4-.5,.9-1.1,1.6-1.6s1.5-.9,2.4-1.2c.9-.3,1.8-.4,2.7-.4s1.7,.1,2.5,.2c-.7,0-1.5,0-2.3,.3-.4,.1-.8,.3-1.1,.4-.4,.2-.7,.4-1.1,.6-1.3,.9-2.1,2.1-2.7,2.9-.6,.9-1,1.7-1.4,2.3Z"/><path class="cls-3" d="M0,347.2c0,.5,.2,1,.3,1.6,.1,.5,.4,1.1,.7,1.7,.2,.3,.3,.6,.5,.9,.1,.1,.2,.3,.3,.4s.2,.3,.3,.4c.2,.3,.5,.6,.7,.9,.3,.3,.5,.6,.8,.8,.3,.3,.6,.6,.8,.8,.3,.3,.6,.5,.9,.8,.3,.2,.6,.5,.9,.7s.7,.4,1,.6,.7,.4,1,.6,.6,.4,1,.5c.3,.2,.6,.3,1,.5,.3,.1,.6,.3,.9,.4,.1,.1,.3,.1,.4,.2s.3,.1,.4,.2c.3,.1,.6,.2,.8,.4-1-.8-1.9-1.8-2.6-2.9-.7-1.2-1.2-2.5-1.5-3.7-.1-.3-.1-.6-.2-.9,0-.2-.1-.3-.1-.4,0-.2,0-.3-.1-.4,0-.3-.1-.6-.1-.9s-.1-.6-.1-.8c0-.3-.1-.5-.1-.8,0-.2-.1-.5-.1-.7,0-.4-.1-.8-.2-1.2-.1-.4-.2-.7-.3-1s-.2-.7-.4-1c-.1-.3-.3-.6-.4-.9-.2-.3-.3-.6-.5-.8-.4-.5-.7-.9-1.2-1.3-.4-.3-.9-.6-1.4-.6-.5-.1-1,.1-1.5,.4s-.9,.9-1.2,1.5c-.2,.3-.3,.7-.4,1.2-.1,.4-.2,.9-.2,1.3C0,346.2,0,346.7,0,347.2Zm2.4-1.9c0-.4,.1-.7,.2-1,.1-.2,.3-.4,.4-.4,.3,0,.7,.4,1,1.1s.7,1.6,1,2.6,.6,2.5,1.2,4.1c.3,.8,.6,1.6,1,2.3,.4,.8,.9,1.5,1.4,2.1-.5-.5-1.1-1-1.7-1.6-.6-.6-1.2-1.3-1.8-2-1.1-1.4-2-3-2.4-4.1-.2-1.2-.3-2.3-.3-3.1Z"/></g></g><g><path class="cls-2" d="M9.9,51.3c0-.1,0-.3,.1-.4,.1-.3,.1-.6,.2-.9,.2-.6,.3-1.2,.5-1.8,.4-1.2,.9-2.4,1.6-3.6,1.3-2.3,3.1-4.5,5.2-6.4,2-2,4.4-3.7,6.7-5.5,.6-.5,1.2-.9,1.9-1.4-1.8,.3-3.8,.4-5.8,0-2.6-.5-5.2-1.7-7.4-3.7-1.1-1-2-2.2-2.8-3.5-.1-.2-.2-.3-.3-.5l-.3-.5c-.2-.4-.3-.7-.4-1.1-.1-.4-.2-.7-.3-1.1l-.1-.6c0-.2-.1-.4-.1-.6-.5-3.1,.1-6.3,1.7-8.9,.8-1.3,1.8-2.4,3-3.3,1.2-.9,2.5-1.5,3.8-1.8,1.3-.4,2.6-.5,3.9-.4s2.5,.4,3.6,.9,2.1,1.1,2.9,1.9,1.4,1.7,1.9,2.6c.1,.2,.2,.5,.3,.7s.2,.5,.2,.7c.2,.4,.2,.9,.3,1.3,.1,.9,.2,1.7,.1,2.5-.1,1.5-.6,2.8-1.1,3.7-.2-.1-.2,0-.3,.1s-.1,.2-.2,.3c-.1,.2-.3,.4-.4,.5-.3,.3-.5,.6-.7,.7-.4,.4-.6,.5-.6,.5,0,0,.2-.2,.5-.6,.2-.2,.3-.5,.5-.8,.1-.2,.2-.4,.3-.6,0-.1,.1-.2,.1-.3s.1-.2,.1-.3c.3-.9,.6-2.1,.5-3.5,0-.7-.2-1.4-.4-2.2-.1-.4-.2-.7-.4-1.1-.1-.2-.2-.4-.3-.6s-.2-.4-.3-.5c-.5-.7-1-1.4-1.7-1.9s-1.5-1-2.4-1.3-1.9-.5-2.9-.4c-1,0-2.1,.2-3.1,.5s-2,.8-2.8,1.5-1.6,1.5-2.1,2.5c-1.1,2-1.5,4.5-1.2,6.9,0,.2,0,.3,.1,.4l.1,.4c.1,.3,.2,.6,.2,.9,.1,.3,.2,.6,.3,.8l.2,.4c.1,.1,.1,.3,.2,.4,.6,1,1.3,2,2.1,2.8,1.7,1.6,3.8,2.7,5.9,3.3s4.3,.6,6.2,.2c.2,0,.5-.1,.7-.2,.2-.1,.5-.1,.7-.2,.5-.2,.9-.3,1.3-.5,.2-.1,.4-.2,.6-.3s.4-.2,.6-.3l.1-.1c.9-.7,1.7-1.5,2.4-2.3,.9-.9,1.7-1.8,2.4-2.8,1.4-1.9,2.4-3.9,3-6,.3-1,.4-2,.5-3s0-1.9-.2-2.8c-.1-.9-.4-1.7-.7-2.5-.1-.2-.2-.4-.2-.5s-.1-.2-.1-.3-.1-.2-.1-.3c-.1-.2-.2-.3-.3-.5s-.2-.3-.3-.5c-.8-1.2-1.7-2.1-2.6-2.7-.1-.1-.2-.2-.3-.2-.1-.1-.2-.1-.3-.2-.2-.1-.4-.2-.6-.3-.4-.2-.7-.3-.9-.4-.5-.2-.8-.3-.8-.3,0,0,.3,0,.9,.1,.3,0,.6,.2,1,.3,.2,.1,.4,.2,.6,.2,.1,0,.2,.1,.3,.1,.1,.1,.2,.1,.4,.2,1,.5,2.1,1.3,3.1,2.5,.1,.2,.3,.3,.4,.5,.1,.2,.2,.3,.4,.5,.1,.1,.1,.2,.2,.3,.1,.1,.1,.2,.2,.3,.1,.2,.2,.4,.3,.6,.4,.8,.8,1.7,1.1,2.6,.3,1,.5,2,.5,3.1s0,2.3-.3,3.4c-.5,2.3-1.5,4.7-2.9,7-.7,1.1-1.5,2.2-2.4,3.2s-1.9,2-3,3c-2.1,1.9-4.4,3.6-6.7,5.3s-4.6,3.4-6.5,5.1c-2,1.8-3.7,3.6-4.9,5.6-1.3,2-2.2,4.1-2.5,6.1-.4,2.1-.4,4.1-.1,5.9,.3,1.8,.8,3.4,1.4,4.7,.6,1.3,1.3,2.4,1.9,3.3,.2,.2,.3,.4,.5,.6s.3,.3,.4,.5c.1,.2,.3,.3,.4,.4,.1,.1,.2,.2,.3,.3,.4,.4,.6,.6,.6,.6,0,0-.2-.2-.7-.5-.1-.1-.2-.2-.4-.3-.1-.1-.3-.2-.4-.4-.2-.1-.3-.3-.5-.4-.2-.2-.4-.3-.5-.5-.8-.8-1.6-1.8-2.4-3.1-.8-1.3-1.6-3-2.1-4.9s-.8-4.1-.5-6.5c.1,.4,.2,.3,.2,.2Z"/><path class="cls-3" d="M8.3,25.8c-.4-.4-.9-.8-1.3-1.1-.5-.3-.9-.6-1.4-.8-.5-.2-1-.3-1.5-.2-.5,.1-.9,.3-1.3,.8-.4,.4-.6,1.1-.7,1.9-.1,.8,0,1.7,.3,2.7s.8,1.9,1.6,2.8c.7,.9,1.9,1.7,3.3,2.3,1.4,.6,3,.9,4.6,1,.8,0,1.6-.1,2.3-.2,.8-.1,1.5-.3,2.2-.5s1.4-.5,2-.7c.6-.3,1.2-.5,1.8-.8-1.1,.2-2.4,.2-3.6-.1-.3-.1-.6-.2-.9-.3s-.6-.2-.9-.4c-.6-.3-1.1-.6-1.6-.9-.5-.4-.9-.7-1.3-1.1-.2-.2-.3-.4-.5-.6-.1-.2-.3-.4-.4-.6-.5-.7-.9-1.4-1.3-1.9-.5-.4-1-.9-1.4-1.3Zm-1.1,3.5c.5,.8,1.3,2,2.7,2.9,.3,.2,.7,.4,1.1,.6,.4,.2,.8,.3,1.1,.4,.8,.2,1.6,.3,2.3,.3-.8,.1-1.6,.2-2.5,.2s-1.8-.2-2.7-.4c-.9-.3-1.7-.7-2.4-1.2s-1.2-1.1-1.6-1.6c-.4-.5-.6-1.1-.8-1.6s-.2-1-.2-1.5c0-.9,.3-1.4,.6-1.4s.7,.4,1,1c.4,.8,.8,1.5,1.4,2.3Z"/><path class="cls-3" d="M0,51.1c0,.5,.1,.9,.2,1.3,.1,.4,.3,.8,.4,1.2,.3,.7,.8,1.2,1.2,1.5,.5,.3,1,.5,1.5,.4s1-.3,1.4-.6,.8-.8,1.2-1.3c.2-.3,.3-.5,.5-.8s.3-.6,.4-.9c.1-.3,.3-.6,.4-1,.1-.3,.2-.7,.3-1,.1-.4,.2-.8,.2-1.2,0-.2,.1-.4,.1-.7,0-.2,0-.5,.1-.8,0-.3,.1-.5,.1-.8s.1-.6,.1-.9c0-.1,0-.3,.1-.4,0-.1,.1-.3,.1-.4,.1-.3,.1-.6,.2-.9,.3-1.2,.8-2.5,1.5-3.7s1.6-2.2,2.6-2.9c-.3,.1-.5,.2-.8,.4-.1,.1-.3,.1-.4,.2-.1,.1-.3,.1-.4,.2-.3,.1-.6,.3-.9,.4-.3,.2-.6,.3-1,.5-.3,.2-.6,.3-1,.5-.3,.2-.7,.4-1,.6-.3,.2-.7,.4-1,.6-.3,.2-.6,.5-.9,.7s-.6,.5-.9,.8c-.3,.3-.6,.5-.8,.8-.3,.3-.5,.6-.8,.8-.2,.3-.5,.6-.7,.9-.1,.1-.2,.3-.3,.4-.1,.2-.2,.3-.3,.4-.2,.3-.4,.6-.5,.9-.3,.6-.5,1.1-.7,1.7,0,.5-.2,1.1-.2,1.6s0,1,0,1.5Zm2.8-2.7c.4-1.2,1.2-2.7,2.4-4.1,.6-.7,1.2-1.4,1.8-2s1.2-1.2,1.7-1.6c-.5,.6-1,1.3-1.4,2.1s-.7,1.5-1,2.3c-.6,1.6-.9,3-1.2,4.1-.3,1-.7,2-1,2.6-.3,.7-.7,1.1-1,1.1-.2,0-.3-.1-.4-.4-.1-.2-.2-.6-.2-1-.1-.8,0-1.9,.3-3.1Z"/></g><path class="cls-2" d="M201.9,372.6c-3.9,0-7.1,3-7.4,6.8-.1,0-.2-.1-.3-.1H89c-.1,0-.2,0-.3,.1-.3-3.8-3.5-6.8-7.4-6.8-4.1,0-7.5,3.3-7.5,7.5s3.3,7.5,7.5,7.5,7.2-3.1,7.4-7.1c.1,0,.2,.1,.3,.1h105.2c.1,0,.2,0,.3-.1,.2,3.9,3.5,7,7.4,7,4.1,0,7.5-3.3,7.5-7.5s-3.4-7.4-7.5-7.4Zm-120.6,13.4c-3.3,0-5.9-2.7-5.9-5.9s2.7-5.9,5.9-5.9,5.9,2.7,5.9,5.9-2.7,5.9-5.9,5.9Zm120.6,0c-3.3,0-5.9-2.7-5.9-5.9s2.7-5.9,5.9-5.9,5.9,2.7,5.9,5.9-2.6,5.9-5.9,5.9Z"/><path class="cls-2" d="M201.9,12.5c-3.9,0-7.1,3-7.4,6.8-.1,0-.2-.1-.3-.1H89c-.1,0-.2,0-.3,.1-.4-3.8-3.6-6.8-7.4-6.8-4.1,0-7.5,3.3-7.5,7.5s3.3,7.5,7.5,7.5,7.2-3.1,7.4-7.1c.1,0,.2,.1,.3,.1h105.2c.1,0,.2,0,.3-.1,.2,3.9,3.5,7,7.4,7,4.1,0,7.5-3.3,7.5-7.5s-3.4-7.4-7.5-7.4Zm-120.6,13.4c-3.3,0-5.9-2.7-5.9-5.9s2.7-5.9,5.9-5.9,5.9,2.7,5.9,5.9-2.7,5.9-5.9,5.9Zm120.6,0c-3.3,0-5.9-2.7-5.9-5.9s2.7-5.9,5.9-5.9,5.9,2.7,5.9,5.9-2.6,5.9-5.9,5.9Z"/><path class="cls-1" d="M141.6,256.3c-15.4,0-29.9-6-40.9-16.9-10.9-10.9-16.9-25.4-16.9-40.9s6-30,16.9-40.9,25.4-16.9,40.9-16.9,29.9,6,40.9,16.9c10.9,10.9,16.9,25.4,16.9,40.9s-6,30-16.9,40.9c-11,10.9-25.5,16.9-40.9,16.9Zm0-113.8c-30.8,0-55.9,25.1-55.9,55.9s25.1,55.9,55.9,55.9,55.9-25.1,55.9-55.9-25.1-55.9-55.9-55.9Z"/><path class="cls-1" d="M141.6,327c-34.3,0-66.6-13.4-90.9-37.6-24.3-24.3-37.6-56.5-37.6-90.9s13.4-66.6,37.6-90.9,56.5-37.6,90.9-37.6,66.6,13.4,90.9,37.6c24.3,24.3,37.6,56.5,37.6,90.9s-13.4,66.6-37.6,90.9c-24.3,24.2-56.6,37.6-90.9,37.6Zm0-255.9c-70.3,0-127.4,57.1-127.4,127.4s57.1,127.4,127.4,127.4,127.4-57.1,127.4-127.4-57.2-127.4-127.4-127.4Z"/><g id="stars"><circle class="cls-2" cx="206.3" cy="59.7" r="1.5"/><circle class="cls-2" cx="229.7" cy="84" r=".8"/><circle class="cls-2" cx="273.8" cy="66.2" r=".8"/><circle class="cls-2" cx="258.5" cy="85.1" r="1.7"/><circle class="cls-2" cx="219.8" cy="84.3" r=".9"/><circle class="cls-2" cx="257" cy="20" r=".9"/><circle class="cls-2" cx="221" cy="151.2" r="1.5"/><circle class="cls-2" cx="264.7" cy="157.5" r="1.5"/><circle class="cls-2" cx="37.7" cy="38.7" r="1.5"/><circle class="cls-2" cx="234.6" cy="175.8" r=".9"/><circle class="cls-2" cx="198.5" cy="134.7" r=".9"/><circle class="cls-2" cx="169.7" cy="95.5" r="1.7"/><circle class="cls-2" cx="130.9" cy="94.7" r=".9"/><circle class="cls-2" cx="225.9" cy="23.5" r="1.7"/><circle class="cls-2" cx="194.4" cy=".9" r=".9"/><circle class="cls-2" cx="109.6" cy="145.1" r=".9"/><circle class="cls-2" cx="125.7" cy="33.5" r="1.5"/><circle class="cls-2" cx="87" cy="42" r=".9"/><circle class="cls-2" cx="112.3" cy="186.7" r="1.7"/><circle class="cls-2" cx="74.2" cy="185.9" r=".9"/><circle class="cls-2" cx="69" cy="125.7" r="1.4"/><circle class="cls-2" cx="30.9" cy="134.1" r=".9"/><circle class="cls-2" cx="109.6" cy="131.1" r="1.7"/><circle class="cls-2" cx="71.5" cy="130.3" r=".9"/><circle class="cls-2" cx="66.4" cy="70.1" r="1.4"/><circle class="cls-2" cx="28.2" cy="78.5" r=".9"/><circle class="cls-2" cx="113.9" cy="91.1" r=".9"/><circle class="cls-2" cx="32.9" cy="5.1" r=".9"/><circle class="cls-2" cx="14.4" cy="19.9" r=".9"/><circle class="cls-2" cx="164" cy="40.8" r=".9"/><circle class="cls-2" cx="65.7" cy="92.4" r=".9"/><circle class="cls-2" cx="202.7" cy="232.5" r="1.5"/><circle class="cls-2" cx="226" cy="256.8" r=".8"/><circle class="cls-2" cx="270.2" cy="238.9" r=".8"/><circle class="cls-2" cx="254.9" cy="257.9" r="1.7"/><circle class="cls-2" cx="216.2" cy="257.1" r=".9"/><circle class="cls-2" cx="194.9" cy="307.5" r=".9"/><circle class="cls-2" cx="166" cy="268.3" r="1.7"/><circle class="cls-2" cx="127.3" cy="267.5" r=".9"/><circle class="cls-2" cx="106" cy="317.8" r=".9"/><circle class="cls-2" cx="122.1" cy="206.3" r="1.5"/><circle class="cls-2" cx="83.4" cy="214.8" r=".9"/><circle class="cls-2" cx="108.6" cy="359.5" r="1.7"/><circle class="cls-2" cx="168.4" cy="396.6" r="1.7"/><circle class="cls-2" cx="70.5" cy="358.7" r=".9"/><circle class="cls-2" cx="65.4" cy="298.4" r="1.4"/><circle class="cls-2" cx="27.3" cy="306.8" r=".9"/><circle class="cls-2" cx="14.3" cy="380.3" r=".9"/><circle class="cls-2" cx="106" cy="303.9" r="1.7"/><circle class="cls-2" cx="239.1" cy="344.5" r=".8"/><circle class="cls-2" cx="247.7" cy="310.8" r=".9"/><circle class="cls-2" cx="207.9" cy="395.2" r=".9"/><circle class="cls-2" cx="208.6" cy="338.7" r="1.7"/><circle class="cls-2" cx="67.9" cy="303.1" r=".9"/><circle class="cls-2" cx="62.7" cy="242.9" r="1.4"/><circle class="cls-2" cx="24.6" cy="251.3" r=".9"/><circle class="cls-2" cx="110.3" cy="263.9" r=".9"/><circle class="cls-2" cx="160.4" cy="213.6" r=".9"/><circle class="cls-2" cx="62" cy="265.2" r=".9"/></g></g></svg>