<?xml version="1.0" encoding="UTF-8"?><svg id="Layer_2" xmlns="http://www.w3.org/2000/svg" viewBox="0 0 240.8 278"><defs><style>.cls-1{fill:#a8a6a6;}</style></defs><g id="hover-square"><path class="cls-1" d="M122,.8l-1.6-.8C80.3,23.2,40.2,46.3,0,69.5V208.4c40.1,23.3,80.2,46.4,120.4,69.6,40.1-23.2,80.2-46.3,120.4-69.6V69.5C201.2,46.7,161.5,23.7,122,.8Zm114.9,205.4c-38.8,22.5-77.7,44.9-116.5,67.4-38.8-22.4-77.7-44.8-116.5-67.4V71.7C42.7,49.3,81.6,26.9,120.4,4.5l1.5,.8c38.3,22.2,76.7,44.4,115,66.5V206.2Z"/></g></svg>