<?xml version="1.0" encoding="UTF-8"?><svg id="Layer_2" xmlns="http://www.w3.org/2000/svg" viewBox="0 0 1235 650"><defs><style>.cls-1{fill:#010101;}.cls-2{fill:#fff;}.cls-3{fill:#b32335;}.cls-4{fill:#3c3c6f;}</style></defs><g id="america"><g><rect class="cls-3" width="1235" height="650"/><g><path class="cls-1" d="m0,75h1235m0,100H0m0,100h1235m0,100H0m0,100h1235m0,100H0"/><path class="cls-2" d="m1235,600H0v-50h1235v50Zm0-100H0v-50h1235v50Zm0-100H0v-50h1235v50Zm0-100H0v-50h1235v50Zm0-100H0v-50h1235v50Zm0-100H0v-50h1235v50Z"/></g><rect class="cls-4" width="494" height="350"/><g><g id="s18"><g id="s9"><g id="s5"><g id="s4"><g id="s"><path class="cls-2" d="m41.17,15l11.76,36.18-30.78-22.36h38.04l-30.78,22.36,11.76-36.18Z"/></g><g id="s-2"><path class="cls-2" d="m41.17,85l11.76,36.18-30.78-22.36h38.04l-30.78,22.36,11.76-36.18Z"/></g><g id="s-3"><path class="cls-2" d="m41.17,155l11.76,36.18-30.78-22.36h38.04l-30.78,22.36,11.76-36.18Z"/></g><g id="s-4"><path class="cls-2" d="m41.17,225l11.76,36.18-30.78-22.36h38.04l-30.78,22.36,11.76-36.18Z"/></g></g><g id="s-5"><path class="cls-2" d="m41.17,295l11.76,36.18-30.78-22.36h38.04l-30.78,22.36,11.76-36.18Z"/></g></g><g id="s4-2"><g id="s-6"><path class="cls-2" d="m82.33,50l11.76,36.18-30.78-22.36h38.04l-30.78,22.36,11.76-36.18Z"/></g><g id="s-7"><path class="cls-2" d="m82.33,120l11.76,36.18-30.78-22.36h38.04l-30.78,22.36,11.76-36.18Z"/></g><g id="s-8"><path class="cls-2" d="m82.33,190l11.76,36.18-30.78-22.36h38.04l-30.78,22.36,11.76-36.18Z"/></g><g id="s-9"><path class="cls-2" d="m82.33,260l11.76,36.18-30.78-22.36h38.04l-30.78,22.36,11.76-36.18Z"/></g></g></g><g id="s9-2"><g id="s5-2"><g id="s4-3"><g id="s-10"><path class="cls-2" d="m123.5,15l11.76,36.18-30.78-22.36h38.04l-30.78,22.36,11.76-36.18Z"/></g><g id="s-11"><path class="cls-2" d="m123.5,85l11.76,36.18-30.78-22.36h38.04l-30.78,22.36,11.76-36.18Z"/></g><g id="s-12"><path class="cls-2" d="m123.5,155l11.76,36.18-30.78-22.36h38.04l-30.78,22.36,11.76-36.18Z"/></g><g id="s-13"><path class="cls-2" d="m123.5,225l11.76,36.18-30.78-22.36h38.04l-30.78,22.36,11.76-36.18Z"/></g></g><g id="s-14"><path class="cls-2" d="m123.5,295l11.76,36.18-30.78-22.36h38.04l-30.78,22.36,11.76-36.18Z"/></g></g><g id="s4-4"><g id="s-15"><path class="cls-2" d="m164.67,50l11.76,36.18-30.78-22.36h38.04l-30.78,22.36,11.76-36.18Z"/></g><g id="s-16"><path class="cls-2" d="m164.67,120l11.76,36.18-30.78-22.36h38.04l-30.78,22.36,11.76-36.18Z"/></g><g id="s-17"><path class="cls-2" d="m164.67,190l11.76,36.18-30.78-22.36h38.04l-30.78,22.36,11.76-36.18Z"/></g><g id="s-18"><path class="cls-2" d="m164.67,260l11.76,36.18-30.78-22.36h38.04l-30.78,22.36,11.76-36.18Z"/></g></g></g></g><g id="s18-2"><g id="s9-3"><g id="s5-3"><g id="s4-5"><g id="s-19"><path class="cls-2" d="m205.83,15l11.76,36.18-30.78-22.36h38.04l-30.78,22.36,11.76-36.18Z"/></g><g id="s-20"><path class="cls-2" d="m205.83,85l11.76,36.18-30.78-22.36h38.04l-30.78,22.36,11.76-36.18Z"/></g><g id="s-21"><path class="cls-2" d="m205.83,155l11.76,36.18-30.78-22.36h38.04l-30.78,22.36,11.76-36.18Z"/></g><g id="s-22"><path class="cls-2" d="m205.83,225l11.76,36.18-30.78-22.36h38.04l-30.78,22.36,11.76-36.18Z"/></g></g><g id="s-23"><path class="cls-2" d="m205.83,295l11.76,36.18-30.78-22.36h38.04l-30.78,22.36,11.76-36.18Z"/></g></g><g id="s4-6"><g id="s-24"><path class="cls-2" d="m247,50l11.76,36.18-30.78-22.36h38.04l-30.78,22.36,11.76-36.18Z"/></g><g id="s-25"><path class="cls-2" d="m247,120l11.76,36.18-30.78-22.36h38.04l-30.78,22.36,11.76-36.18Z"/></g><g id="s-26"><path class="cls-2" d="m247,190l11.76,36.18-30.78-22.36h38.04l-30.78,22.36,11.76-36.18Z"/></g><g id="s-27"><path class="cls-2" d="m247,260l11.76,36.18-30.78-22.36h38.04l-30.78,22.36,11.76-36.18Z"/></g></g></g><g id="s9-4"><g id="s5-4"><g id="s4-7"><g id="s-28"><path class="cls-2" d="m288.17,15l11.76,36.18-30.78-22.36h38.04l-30.78,22.36,11.76-36.18Z"/></g><g id="s-29"><path class="cls-2" d="m288.17,85l11.76,36.18-30.78-22.36h38.04l-30.78,22.36,11.76-36.18Z"/></g><g id="s-30"><path class="cls-2" d="m288.17,155l11.76,36.18-30.78-22.36h38.04l-30.78,22.36,11.76-36.18Z"/></g><g id="s-31"><path class="cls-2" d="m288.17,225l11.76,36.18-30.78-22.36h38.04l-30.78,22.36,11.76-36.18Z"/></g></g><g id="s-32"><path class="cls-2" d="m288.17,295l11.76,36.18-30.78-22.36h38.04l-30.78,22.36,11.76-36.18Z"/></g></g><g id="s4-8"><g id="s-33"><path class="cls-2" d="m329.33,50l11.76,36.18-30.78-22.36h38.04l-30.78,22.36,11.76-36.18Z"/></g><g id="s-34"><path class="cls-2" d="m329.33,120l11.76,36.18-30.78-22.36h38.04l-30.78,22.36,11.76-36.18Z"/></g><g id="s-35"><path class="cls-2" d="m329.33,190l11.76,36.18-30.78-22.36h38.04l-30.78,22.36,11.76-36.18Z"/></g><g id="s-36"><path class="cls-2" d="m329.33,260l11.76,36.18-30.78-22.36h38.04l-30.78,22.36,11.76-36.18Z"/></g></g></g></g><g id="s9-5"><g id="s5-5"><g id="s4-9"><g id="s-37"><path class="cls-2" d="m370.5,15l11.76,36.18-30.78-22.36h38.04l-30.78,22.36,11.76-36.18Z"/></g><g id="s-38"><path class="cls-2" d="m370.5,85l11.76,36.18-30.78-22.36h38.04l-30.78,22.36,11.76-36.18Z"/></g><g id="s-39"><path class="cls-2" d="m370.5,155l11.76,36.18-30.78-22.36h38.04l-30.78,22.36,11.76-36.18Z"/></g><g id="s-40"><path class="cls-2" d="m370.5,225l11.76,36.18-30.78-22.36h38.04l-30.78,22.36,11.76-36.18Z"/></g></g><g id="s-41"><path class="cls-2" d="m370.5,295l11.76,36.18-30.78-22.36h38.04l-30.78,22.36,11.76-36.18Z"/></g></g><g id="s4-10"><g id="s-42"><path class="cls-2" d="m411.67,50l11.76,36.18-30.78-22.36h38.04l-30.78,22.36,11.76-36.18Z"/></g><g id="s-43"><path class="cls-2" d="m411.67,120l11.76,36.18-30.78-22.36h38.04l-30.78,22.36,11.76-36.18Z"/></g><g id="s-44"><path class="cls-2" d="m411.67,190l11.76,36.18-30.78-22.36h38.04l-30.78,22.36,11.76-36.18Z"/></g><g id="s-45"><path class="cls-2" d="m411.67,260l11.76,36.18-30.78-22.36h38.04l-30.78,22.36,11.76-36.18Z"/></g></g></g><g id="s5-6"><g id="s4-11"><g id="s-46"><path class="cls-2" d="m452.83,15l11.76,36.18-30.78-22.36h38.04l-30.78,22.36,11.76-36.18Z"/></g><g id="s-47"><path class="cls-2" d="m452.83,85l11.76,36.18-30.78-22.36h38.04l-30.78,22.36,11.76-36.18Z"/></g><g id="s-48"><path class="cls-2" d="m452.83,155l11.76,36.18-30.78-22.36h38.04l-30.78,22.36,11.76-36.18Z"/></g><g id="s-49"><path class="cls-2" d="m452.83,225l11.76,36.18-30.78-22.36h38.04l-30.78,22.36,11.76-36.18Z"/></g></g><g id="s-50"><path class="cls-2" d="m452.83,295l11.76,36.18-30.78-22.36h38.04l-30.78,22.36,11.76-36.18Z"/></g></g></g></g></g></svg>