<?xml version="1.0" encoding="utf-8"?>
<!-- Generator: Adobe Illustrator 26.5.0, SVG Export Plug-In . SVG Version: 6.00 Build 0)  -->
<svg version="1.1" id="Layer_1" xmlns="http://www.w3.org/2000/svg" xmlns:xlink="http://www.w3.org/1999/xlink" x="0px" y="0px"
	 viewBox="0 0 207 124" style="enable-background:new 0 0 207 124;" xml:space="preserve">
<style type="text/css">
	.st0{fill:#FFFFFF;}
</style>
<g id="EXT-_x2B_-Type-something">
	<path id="EXT" class="st0" d="M48.9,32.6h39v3.1H52.5v23.2h33.3V62H52.5v25.5h35.8v3.1H48.9V32.6z M91.4,32.6h4.1l18.3,25.5
		l18.7-25.5l25.5-32.3l-41.9,60.5l21.6,29.8h-4.3l-19.6-27.1L94.2,90.5h-4.2l21.8-29.8L91.4,32.6z M139.4,35.7v-3.1h44.4v3.1h-20.5
		v54.8h-3.6V35.7H139.4z"/>
	<polygon id="Type-something" class="st0" points="0.2,32.6 4.7,32.6 66.2,124.3 40.8,90.5 3.9,37 3.8,90.5 0.2,90.5 	"/>
</g>
<path id="_x2E_JS" class="st0" d="M183.4,86.5c0.7,0,1.3-0.6,1.3-1.3c0-0.7-0.5-1.3-1.3-1.3c-0.7,0-1.3,0.6-1.3,1.3
	C182.1,86,182.7,86.5,183.4,86.5z M186.9,83.1c0,2.1,1.6,3.5,3.8,3.5c2.4,0,3.9-1.4,3.9-4v-8.8h-1.9v8.8c0,1.4-0.7,2.1-1.9,2.1
	c-1.1,0-1.9-0.7-1.9-1.7H186.9z M197.1,83c0.1,2.2,2,3.7,4.8,3.7c3,0,4.8-1.5,4.8-3.9c0-1.9-1.1-2.9-3.6-3.5l-1.4-0.3
	c-1.6-0.4-2.3-0.9-2.3-1.8c0-1.1,1-1.9,2.6-1.9c1.5,0,2.5,0.7,2.6,1.9h1.9c-0.1-2.1-2-3.6-4.5-3.6c-2.7,0-4.6,1.5-4.6,3.7
	c0,1.8,1,2.9,3.3,3.5l1.6,0.4c1.7,0.4,2.4,1,2.4,1.9c0,1.1-1.1,1.9-2.7,1.9c-1.7,0-2.8-0.8-3-1.9H197.1z"/>
</svg>
