<?xml version="1.0" encoding="utf-8"?>
<!-- Generator: Adobe Illustrator 26.5.0, SVG Export Plug-In . SVG Version: 6.00 Build 0)  -->
<svg version="1.1" id="Layer_1" xmlns="http://www.w3.org/2000/svg" xmlns:xlink="http://www.w3.org/1999/xlink" x="0px" y="0px"
	 viewBox="0 0 23 20.5" style="enable-background:new 0 0 23 20.5;" xml:space="preserve">
<style type="text/css">
	.st0{fill:#FFFFFF;}
</style>
<g>
	<circle class="st0" cx="11.5" cy="10.2" r="2"/>
	<path class="st0" d="M23,10.2c0-1.6-1.9-3-4.8-3.8c0.7-3,0.5-5.3-0.9-6.1c-1.4-0.8-3.6,0.1-5.8,2.3C9.3,0.4,7.1-0.5,5.8,0.3
		C4.4,1.1,4.1,3.4,4.8,6.4C1.9,7.2,0,8.6,0,10.2c0,1.6,1.9,3,4.8,3.8c-0.7,3-0.5,5.3,0.9,6.1c0.3,0.2,0.7,0.3,1.2,0.3
		c1,0,2.3-0.6,3.6-1.6c0.3-0.3,0.7-0.6,1-0.9c0.3,0.3,0.7,0.6,1,0.9c1.3,1.1,2.6,1.6,3.6,1.6c0.4,0,0.8-0.1,1.2-0.3
		c1.4-0.8,1.7-3.1,0.9-6.1C21.1,13.2,23,11.8,23,10.2z M16.8,1.1c0.9,0.5,1.1,2.4,0.5,5c-0.9-0.2-2-0.4-3.1-0.5
		c-0.6-0.9-1.3-1.7-1.9-2.4C13.7,1.8,15.1,1,16.1,1C16.3,1,16.6,1,16.8,1.1z M14.7,12.1c-0.4,0.6-0.7,1.2-1.1,1.8
		c-0.7,0.1-1.4,0.1-2.1,0.1c-0.7,0-1.4,0-2.1-0.1c-0.4-0.6-0.8-1.2-1.1-1.8c-0.4-0.6-0.7-1.2-1-1.9c0.3-0.6,0.6-1.2,1-1.9
		C8.7,7.8,9,7.2,9.4,6.6c0.7-0.1,1.4-0.1,2.1-0.1c0.7,0,1.4,0,2.1,0.1c0.4,0.6,0.8,1.1,1.1,1.8c0.4,0.6,0.7,1.2,1,1.9
		C15.4,10.8,15.1,11.5,14.7,12.1z M16.2,11.4c0.3,0.7,0.5,1.3,0.7,2c-0.6,0.1-1.3,0.3-2.1,0.4c0.2-0.4,0.5-0.8,0.7-1.1
		C15.8,12.2,16,11.8,16.2,11.4z M11.5,16.5c-0.5-0.5-0.9-1-1.3-1.6c0.4,0,0.9,0,1.3,0c0.5,0,0.9,0,1.3,0C12.4,15.5,12,16,11.5,16.5z
		 M8.1,13.7c-0.7-0.1-1.4-0.2-2.1-0.4c0.2-0.6,0.4-1.3,0.7-2c0.2,0.4,0.4,0.8,0.6,1.2C7.7,13,7.9,13.4,8.1,13.7z M6.8,9.1
		c-0.3-0.7-0.5-1.3-0.7-2C6.7,7,7.4,6.8,8.1,6.7C7.9,7.1,7.7,7.5,7.4,7.9C7.2,8.3,7,8.7,6.8,9.1z M11.5,4c0.4,0.5,0.9,1,1.3,1.6
		c-0.4,0-0.9,0-1.3,0c-0.5,0-0.9,0-1.3,0C10.6,5,11.1,4.4,11.5,4z M15.6,7.9c-0.2-0.4-0.5-0.8-0.7-1.1c0.7,0.1,1.4,0.2,2.1,0.4
		c-0.2,0.6-0.4,1.3-0.7,2C16,8.7,15.8,8.3,15.6,7.9z M6.2,1.1C6.4,1,6.7,1,6.9,1c1,0,2.4,0.8,3.9,2.3C10.1,4,9.5,4.8,8.9,5.7
		C7.8,5.8,6.7,5.9,5.8,6.1C5.2,3.6,5.3,1.7,6.2,1.1z M1,10.2c0-1,1.5-2.2,4.1-2.9c0.3,0.9,0.7,1.9,1.1,2.9c-0.5,1-0.8,2-1.1,2.9
		C2.5,12.4,1,11.3,1,10.2z M9.9,18.1c-1.5,1.2-2.8,1.7-3.6,1.3c-0.9-0.5-1.1-2.4-0.5-5c0.9,0.2,2,0.4,3.1,0.5
		c0.6,0.9,1.3,1.7,1.9,2.4C10.5,17.5,10.2,17.8,9.9,18.1z M16.8,19.3c-0.8,0.4-2.1,0-3.6-1.3c-0.3-0.3-0.6-0.5-0.9-0.8
		c0.7-0.7,1.3-1.5,1.9-2.4c1.1-0.1,2.1-0.3,3.1-0.5C17.8,16.9,17.7,18.8,16.8,19.3z M17.9,13.1c-0.3-0.9-0.7-1.9-1.1-2.9
		c0.5-1,0.8-2,1.1-2.9c2.6,0.7,4.1,1.8,4.1,2.9C22,11.3,20.5,12.4,17.9,13.1z"/>
</g>
</svg>
