<?xml version="1.0" encoding="utf-8"?>
<!-- Generator: Adobe Illustrator 27.2.0, SVG Export Plug-In . SVG Version: 6.00 Build 0)  -->
<svg version="1.1" xmlns="http://www.w3.org/2000/svg" xmlns:xlink="http://www.w3.org/1999/xlink" x="0px" y="0px"
	 viewBox="0 0 150.2 71.7" style="enable-background:new 0 0 150.2 71.7;" xml:space="preserve">
<style type="text/css">
	.st0{display:none;}
	.st1{fill:#808080;}
	.st2{fill:#02A5DC;}
	.st3{fill:#B0CC07;}
</style>
<g id="Layer_1" class="st0">
	
		<image style="display:inline;overflow:visible;" width="492" height="98" xlink:href="aid-berlin_logo.jpg"  transform="matrix(1 0 0 1 47.0647 358.3242)">
	</image>
</g>
<g id="Layer_2">
	<path class="st1" d="M51.2,67.3H66l-26-62.1H29L2.9,67.3h15l5.3-14.2h22.6L51.2,67.3z M27.1,42.7l7.3-19.5l7.4,19.5H27.1z"/>
	<rect x="69.4" y="5.7" class="st2" width="12.8" height="61"/>
	<path class="st3" d="M115.8,5.7c-5.3,0-24.8,0-24.8,0V66c0,0,22,0,27.4,0s26.4-1.8,26.7-29.8C145.4,8.2,123.6,5.7,115.8,5.7z
		 M118,54.2c-3.5,0.2-14.1-0.1-14.1-0.1V18.2c0,0,10.2,0,12.1,0c2,0,15.5,0.1,16,17.6S121.4,54,118,54.2z"/>
</g>
</svg>
