<?xml version="1.0" encoding="utf-8"?>
<!-- Generator: Adobe Illustrator 27.2.0, SVG Export Plug-In . SVG Version: 6.00 Build 0)  -->
<svg version="1.1" id="Layer_1" xmlns="http://www.w3.org/2000/svg" xmlns:xlink="http://www.w3.org/1999/xlink" x="0px" y="0px"
	 viewBox="0 0 413.9 100" style="enable-background:new 0 0 413.9 100;" xml:space="preserve">
<style type="text/css">
	.st0{fill:#FFFFFF;}
	.st1{fill:#FF8282;}
	.st2{fill:#FF645F;}
	.st3{fill:#8CDBA6;}
	.st4{fill:#21D68F;}
	.st5{fill:#00ABFA;}
	.st6{fill:#BD3B38;}
	.st7{fill:#00B05C;}
	.st8{fill:#78CCC7;}
	.st9{fill:#96DBD6;}
	.st10{fill:#40A6A6;}
</style>
<g id="Ebene_2">
</g>
<g>
	<g>
		<path class="st0" d="M254.9,15.1c-1.5-0.9-2.5-1.3-3.8-1.3c-2.3,0-3.5,1.4-3.5,4.5v1.5h9.2v3.6h-9.2v20.1h-4V23.4H237v-3.6h6.7
			v-1.5c0-5.7,2.8-8.1,7.3-8.1c2.2,0,3.6,0.6,4.9,1.4L254.9,15.1z"/>
		<path class="st0" d="M270,40.3c4.9,0,7.6-4.1,7.6-8.7c0-4.6-2.8-8.7-7.6-8.7c-4.8,0-7.6,4.1-7.6,8.7
			C262.4,36.2,265.2,40.3,270,40.3 M270,19.4c7.2,0,11.7,5.7,11.7,12.2c0,6.5-4.4,12.2-11.7,12.2c-7.2,0-11.7-5.7-11.7-12.2
			C258.4,25.1,262.8,19.4,270,19.4"/>
		<path class="st0" d="M303.1,27.3c-0.3-2.7-1.7-4.3-4.6-4.3c-4.1,0-8,3.9-8,12v8.6h-4V19.8h4v4.4c1.8-2.9,4.8-4.8,8.8-4.8
			c4.7,0,7.5,2.8,7.8,7.9L303.1,27.3L303.1,27.3z"/>
		<path class="st0" d="M256.2,84.7c-1.5,3.3-4.8,4.8-8.3,4.8c-7.2,0-13.3-5.5-13.3-16.9c0-11.4,6.2-16.8,13.6-16.8
			c6.5,0,10.4,4.2,11.8,10l-3.9,1.2c-1.5-4.8-3.8-7.2-7.9-7.2c-5.6,0-9.3,3.9-9.3,12.9c0,9,3.7,12.9,9.3,12.9c4.5,0,7-3.2,7.4-9.1
			h-7.4v-4h11.7v16.6h-3.4L256.2,84.7z"/>
		<path class="st0" d="M268,74.5h14.1c-0.7-3.8-3.2-5.9-7.1-5.9C271.2,68.6,268.8,70.9,268,74.5 M286.3,78.1h-18.5
			c0.2,4.7,3.1,7.8,7.3,7.8c3.6,0,6-1.7,7.6-4.7l3.2,1.6c-2.6,5-6.4,6.6-10.8,6.6c-6.9,0-11.3-5.3-11.3-12.2
			c0-6.7,4.2-12.2,11.3-12.2c7.3,0,11.2,5.2,11.2,11.4V78.1z"/>
		<path class="st0" d="M307,72.9c-0.3-2.7-1.7-4.3-4.6-4.3c-4.1,0-8,3.9-8,12v8.6h-4V65.4h4v4.4c1.8-2.9,4.8-4.8,8.8-4.8
			c4.7,0,7.5,2.8,7.8,7.9L307,72.9L307,72.9z"/>
		<path class="st0" d="M339.1,89.1h-4V72.3c0-2.6-0.8-3.6-2.6-3.6c-2.3,0-4.2,2.7-4.2,9.3v11.2h-4V72.3c0-2.6-0.8-3.6-2.6-3.6
			c-2.3,0-4.2,2.7-4.2,9.3v11.2h-4V65.4h4v3c1.2-2,3.1-3.4,5.6-3.4c2.7,0,4.2,1.5,4.9,3.9c1.2-2.3,3.3-3.9,5.8-3.9
			c2.9,0,5.2,1.9,5.2,6.4L339.1,89.1L339.1,89.1z"/>
		<path class="st0" d="M351.4,85.9c3.1,0,7.6-1.9,7.6-7.2v-0.8h-5.2c-4,0-6.3,1.7-6.3,4.4C347.5,84.5,349.1,85.9,351.4,85.9
			 M363,89.1h-3.2l-0.6-3.3c-1.5,2.2-4.8,3.7-8.4,3.7c-4,0-7.3-2.4-7.3-7.2c0-5.3,4.2-7.8,10.7-7.8h4.8v-1c0-3.7-2.6-4.9-5.5-4.9
			c-2.8,0-4.8,1.7-5.6,4l-3.5-0.9c1.1-4.1,4.8-6.7,9.1-6.7c5.6,0,9.4,2.6,9.4,9.1L363,89.1L363,89.1z"/>
		<path class="st0" d="M388.1,89.1h-4V73.4c0-3.3-1.6-4.8-4.4-4.8c-3.7,0-7,4-7,11v9.6h-4V65.4h4v4.4c1.7-2.7,4.7-4.8,8-4.8
			c4.9,0,7.3,3,7.3,7.6L388.1,89.1L388.1,89.1z"/>
	</g>
	<polygon class="st0" points="409.6,65.4 402.6,82.8 394.6,65.4 390.2,65.4 400.4,87.5 395.8,98.7 399.8,98.7 413.9,65.4 	"/>
</g>
<g>
	<polygon class="st1" points="55.8,9.1 55.8,10.4 55.8,92.2 62.7,92.2 64.6,92.2 66.2,92.2 66.2,9.1 	"/>
	<g>
		<path class="st2" d="M97.1,100c0.7,0,1.7-0.6,1.7-1.4V1.3c0-0.7-0.9-1.3-1.7-1.3H64.6c-0.7,0-1,0.3-1,0.6v1.9v6.5
			c0,0.7,0.2,1.3,1,1.3h22.1c0.7,0,1.6,0.6,1.6,1.3v76.6c0,0.7-0.9,1.3-1.6,1.3H64.6c-0.7,0-1,0.2-1,0.6v1.9v6.5
			c0,0.7,0.2,1.4,1,1.4C64.6,100,97.1,100,97.1,100z"/>
	</g>
	<polygon class="st3" points="111.7,9.1 111.7,10.4 111.7,92.2 120.4,92.2 122.1,92.2 122.1,9.1 	"/>
	<g>
		<path class="st4" d="M120.8,99.9V89.6c14.3,0,24.3-17.8,24.3-39.6c0-21.8-10-39.6-24.3-39.6V0c19.5,0,34.6,22.4,34.6,50
			C155.4,77.5,140.3,99.9,120.8,99.9"/>
		<path class="st5" d="M13,68v14.3v4.6c0,7.8,5,13.1,12.8,13.1H28h6.4h7.5c0.4,0,1-0.6,1-1.4v-7.8c0-0.7-0.9-1.2-1.6-1.2h-7.5H30
			h-2.4c-3.4,0-4.2-1.6-4.2-5.4v-6.1v-8.5v-7.6c0-7.8-3.2-10.7-7.1-12.1c3.9-1.4,7.1-4.3,7.1-12.1v-5.4V18.6v-3.3
			c0-3.8,0.8-4.9,4.2-4.9h2.9h3.7h7.6c0.4,0,1-0.6,1-1.3V1.3C42.9,0.6,42,0,41.2,0H35h-5.9h-3.3C18,0,13,5.1,13,12.7v4.1v17
			c0,0-0.3,3.9-0.4,5.2c-0.5,3.5-4.8,6.5-7.5,6.5H1c-0.7,0-1,0.6-1,1.3v7.8c0,0.7,0.3,1.3,1,1.3h3.7c3.4,0,7.7,2.8,8,7.1
			C12.8,64.2,13,68,13,68"/>
		<path class="st6" d="M64.6,0h-3.7h-4.1c-0.7,0-1,0.6-1,1.3v2.4v5.4v1.3h1h7.8h1.6V9.1V1.3V0H64.6z"/>
		<path class="st6" d="M55.8,90.9v3.7v4.1c0,0.7,0.3,1.4,1,1.4h2.4h5.4h1.6v-1.4v-7.8v-1.2h-1.6h-7.8h-1
			C55.8,89.6,55.8,90.9,55.8,90.9z"/>
		<path class="st7" d="M120.4,0h-3.7h-4.1c-0.7,0-0.9,0.6-0.9,1.3v2.4v5.4v1.3h0.9h7.8h1.7V9.1V1.3V0H120.4z"/>
		<path class="st7" d="M111.7,90.9v3.7v4.1c0,0.7,0.2,1.4,0.9,1.4h2.4h5.4h1.7v-1.4v-7.8v-1.2h-1.7h-7.8h-0.9V90.9z"/>
		<path class="st8" d="M176.6,68v14.3v4.6c0,7.8,4.9,13.1,12.7,13.1h2.2h6.4h7.5c0.4,0,1.1-0.6,1.1-1.4v-7.8c0-0.7-1-1.2-1.7-1.2
			h-7.5h-3.8h-2.4c-3.4,0-4.1-1.4-4.1-5.3v-2.3V69.6v-7.6c0-2.5-0.7-4.8-1.3-6.1h-17.4c4.8,1.3,6.8,3,7.8,7.2
			C176.6,65.1,176.6,68,176.6,68"/>
		<path class="st8" d="M175.9,39c-1,3.4-3.2,5.2-7.3,6.5H185c1-2.6,2-4.3,2-7.8v-5.4V18.6v-3.3c0-3.8,0.7-4.9,4.1-4.9h2.9h3.7h7.6
			c0.4,0,1.1-0.6,1.1-1.3V1.3c0-0.7-1-1.3-1.7-1.3h-6.2h-5.9h-3.3c-7.9,0-12.7,5.1-12.7,12.7v4.1v17C176.6,33.8,176.4,37.3,175.9,39
			"/>
		<path class="st9" d="M178.4,50.7c2.6,1,5.5,2.5,7.3,5.1h19.1c0.7,0,1.7-0.6,1.7-1.3v-7.8c0-0.7-1-1.3-1.7-1.3H185
			C183.7,48.1,180.6,49.9,178.4,50.7"/>
		<path class="st10" d="M164.5,45.5c-0.7,0-0.9,0.6-0.9,1.3v7.8c0,0.7,0.2,1.3,0.9,1.3h3.7h17.4c-1.2-2.6-4.1-4.4-6.2-5.2
			c2.2-0.8,4.1-2.6,5.4-5.2h-16.4L164.5,45.5L164.5,45.5z"/>
	</g>
</g>
</svg>
