<?xml version="1.0" encoding="utf-8"?>
<!-- Generator: Adobe Illustrator 27.2.0, SVG Export Plug-In . SVG Version: 6.00 Build 0)  -->
<svg version="1.1" id="Layer_1" xmlns="http://www.w3.org/2000/svg" xmlns:xlink="http://www.w3.org/1999/xlink" x="0px" y="0px"
	 viewBox="0 0 251.7 212.5" style="enable-background:new 0 0 251.7 212.5;" xml:space="preserve">
<style type="text/css">
	.st0{fill-rule:evenodd;clip-rule:evenodd;fill:#ED6B3B;}
	.st1{fill:#ED6B3B;}
</style>
<g id="Layer_2">
</g>
<polygon class="st0" points="36.9,185.4 36.9,193.7 215.2,193.7 215.2,185.4 36.9,185.4 "/>
<g>
	<polygon class="st0" points="144.3,52.3 177.8,79.5 204.6,79.5 204.6,79.5 157.4,41.1 	"/>
	<polygon class="st0" points="149.3,34.5 126,15.6 47.5,79.5 47.5,79.5 96.7,79.5 	"/>
</g>
<polygon class="st1" points="25.1,143.8 25.1,152.9 36.5,152.9 36.5,157.6 25.1,157.6 25.1,166.9 39.6,166.9 39.6,171.7 19,171.7 
	19,139 39.6,139 39.6,143.8 25.1,143.8 "/>
<path class="st1" d="M70.5,171.7h-6c-0.4,0-0.8-0.1-1-0.3c-0.2-0.2-0.4-0.5-0.6-0.7l-7.5-12.6c-0.1,0.4-0.3,0.7-0.4,1l-7.2,11.6
	c-0.2,0.3-0.4,0.5-0.6,0.7c-0.2,0.2-0.5,0.3-0.9,0.3h-5.7l10.8-16.9L41,139h6c0.4,0,0.7,0.1,0.9,0.2c0.2,0.1,0.4,0.3,0.5,0.6l7.4,12
	c0.1-0.4,0.3-0.8,0.5-1.1l6.8-10.8c0.2-0.3,0.3-0.5,0.5-0.6c0.2-0.1,0.4-0.2,0.7-0.2h5.8l-10.5,15.7L70.5,171.7L70.5,171.7z"/>
<path class="st1" d="M95.9,145.2c-0.5-1.3-1.3-2.4-2.3-3.3c-1-0.9-2.3-1.6-3.9-2.2c-1.6-0.5-3.5-0.8-5.7-0.8H73.4v32.8h6.1v-11.5H84
	c2.1,0,4-0.3,5.5-0.8c1.6-0.5,2.9-1.3,4-2.2c1.1-1,1.8-2.1,2.4-3.4c0.5-1.3,0.8-2.8,0.8-4.4C96.6,147.9,96.4,146.5,95.9,145.2z
	 M90.2,151.9c-0.3,0.7-0.7,1.4-1.2,1.9s-1.2,0.9-2.1,1.2c-0.8,0.3-1.8,0.4-2.9,0.4h-4.5v-11.8H84c1.1,0,2.1,0.1,2.9,0.4
	c0.8,0.3,1.5,0.6,2,1.1c0.5,0.5,0.9,1.1,1.2,1.8c0.3,0.7,0.4,1.5,0.4,2.4C90.6,150.3,90.5,151.2,90.2,151.9z"/>
<polygon class="st1" points="106.5,143.8 106.5,152.9 117.9,152.9 117.9,157.6 106.5,157.6 106.5,166.9 121,166.9 121,171.7 
	100.4,171.7 100.4,139 121,139 121,143.8 106.5,143.8 "/>
<path class="st1" d="M142.7,159.6c-0.3-0.4-0.6-0.8-0.9-1.1c-0.3-0.3-0.7-0.6-1.1-0.8c1.1-0.3,2.2-0.8,3.1-1.4
	c0.9-0.6,1.6-1.3,2.3-2.1c0.6-0.8,1.1-1.7,1.4-2.7c0.3-1,0.5-2,0.5-3.1c0-1.4-0.2-2.7-0.7-3.8c-0.5-1.2-1.2-2.1-2.2-3
	c-1-0.8-2.3-1.5-3.9-1.9s-3.5-0.7-5.7-0.7h-9.9v32.8h6.1v-12.8h2.6c0.6,0,1.1,0.1,1.4,0.3c0.3,0.2,0.6,0.4,0.8,0.8l6.8,10.5
	c0.5,0.8,1.2,1.2,2.3,1.2h5.5L142.7,159.6z M138.3,154.1c-0.8,0.3-1.8,0.4-3,0.4h-3.8v-10.9h3.9c2.2,0,3.9,0.4,5,1.3
	c1.1,0.9,1.6,2.2,1.6,3.8c0,0.8-0.1,1.6-0.4,2.3c-0.3,0.7-0.7,1.3-1.2,1.8C139.8,153.5,139.1,153.8,138.3,154.1z"/>
<polygon class="st1" points="175.4,144 165.6,144 165.6,171.7 159.6,171.7 159.6,144 149.8,144 149.8,139 175.4,139 175.4,144 "/>
<polygon class="st1" points="184.9,143.8 184.9,152.9 196.3,152.9 196.3,157.6 184.9,157.6 184.9,166.9 199.4,166.9 199.4,171.7 
	178.9,171.7 178.9,139 199.4,139 199.4,143.8 184.9,143.8 "/>
<path class="st1" d="M231.3,139v32.8h-3.1c-0.5,0-0.9-0.1-1.2-0.2c-0.3-0.2-0.6-0.4-0.9-0.8l-17-21.9c0.1,1,0.1,1.9,0.1,2.8v20.1
	h-5.3V139h3.2c0.3,0,0.5,0,0.7,0c0.2,0,0.4,0.1,0.5,0.1c0.1,0.1,0.3,0.2,0.4,0.3s0.3,0.3,0.5,0.5l17.1,21.9c0-0.5-0.1-1.1-0.1-1.6
	c0-0.5,0-1,0-1.4V139H231.3L231.3,139z"/>
<path class="st1" d="M39.1,118.9h-3.3c-0.7,0-1.2-0.3-1.5-0.8l-7.1-9.8c-0.2-0.3-0.4-0.5-0.7-0.7c-0.2-0.1-0.6-0.2-1.2-0.2h-2.8
	v11.5h-3.7V91.4h7.7c1.7,0,3.2,0.2,4.5,0.5c1.3,0.4,2.3,0.9,3.1,1.5c0.8,0.7,1.4,1.5,1.8,2.4c0.4,0.9,0.6,2,0.6,3.2
	c0,1-0.2,1.9-0.5,2.7c-0.3,0.8-0.7,1.6-1.3,2.3s-1.3,1.2-2.1,1.7c-0.8,0.5-1.8,0.8-2.8,1.1c0.5,0.3,0.9,0.7,1.2,1.2L39.1,118.9z
	 M26.5,104.7c1.1,0,2-0.1,2.8-0.4c0.8-0.3,1.5-0.6,2.1-1.1c0.6-0.5,1-1.1,1.2-1.7c0.3-0.7,0.4-1.4,0.4-2.2c0-1.6-0.5-2.9-1.6-3.7
	c-1.1-0.8-2.7-1.2-4.8-1.2h-4v10.4H26.5z"/>
<path class="st1" d="M64.9,118.9h-2.9c-0.3,0-0.6-0.1-0.8-0.2s-0.4-0.4-0.5-0.6l-2.6-6.6H46l-2.6,6.6c-0.1,0.2-0.2,0.4-0.4,0.6
	c-0.2,0.2-0.5,0.3-0.8,0.3h-2.9l10.9-27.5H54L64.9,118.9z M50.2,86.9c0,0.3-0.1,0.5-0.2,0.8s-0.3,0.5-0.5,0.7
	c-0.2,0.2-0.4,0.3-0.7,0.5C48.7,89,48.4,89,48.1,89c-0.3,0-0.5-0.1-0.8-0.2c-0.2-0.1-0.5-0.3-0.7-0.5s-0.3-0.4-0.5-0.7
	c-0.1-0.2-0.2-0.5-0.2-0.8c0-0.3,0.1-0.6,0.2-0.8c0.1-0.3,0.3-0.5,0.5-0.7s0.4-0.3,0.7-0.5s0.5-0.2,0.8-0.2c0.3,0,0.5,0.1,0.8,0.2
	s0.5,0.3,0.7,0.5c0.2,0.2,0.4,0.4,0.5,0.7S50.2,86.7,50.2,86.9z M57.2,108.7l-4.3-11.2c-0.1-0.3-0.3-0.7-0.4-1.2
	c-0.1-0.4-0.3-0.9-0.4-1.4c-0.3,1-0.5,1.9-0.8,2.6L47,108.7H57.2z M58.2,86.9c0,0.3-0.1,0.5-0.2,0.8s-0.3,0.5-0.5,0.7
	s-0.4,0.3-0.7,0.5C56.7,89,56.4,89,56.1,89c-0.3,0-0.6-0.1-0.8-0.2c-0.3-0.1-0.5-0.3-0.7-0.5c-0.2-0.2-0.3-0.4-0.4-0.7
	c-0.1-0.2-0.2-0.5-0.2-0.8c0-0.3,0.1-0.6,0.2-0.8c0.1-0.3,0.3-0.5,0.4-0.7c0.2-0.2,0.4-0.3,0.7-0.5s0.5-0.2,0.8-0.2
	c0.3,0,0.5,0.1,0.8,0.2s0.5,0.3,0.7,0.5s0.3,0.4,0.5,0.7S58.2,86.7,58.2,86.9z"/>
<path class="st1" d="M78.4,115.9c1.1,0,2.1-0.2,3-0.6c0.9-0.4,1.6-0.9,2.3-1.6c0.6-0.7,1.1-1.5,1.4-2.5s0.5-2,0.5-3.2V91.4h3.7v16.7
	c0,1.6-0.3,3.1-0.8,4.4c-0.5,1.4-1.2,2.5-2.2,3.5s-2.1,1.8-3.4,2.3c-1.3,0.6-2.9,0.8-4.5,0.8c-1.7,0-3.2-0.3-4.5-0.8
	c-1.3-0.6-2.5-1.3-3.4-2.3s-1.7-2.2-2.2-3.5c-0.5-1.4-0.8-2.8-0.8-4.4V91.4h3.7v16.7c0,1.2,0.2,2.2,0.5,3.2c0.3,1,0.8,1.8,1.4,2.5
	c0.6,0.7,1.4,1.2,2.3,1.6C76.3,115.7,77.3,115.9,78.4,115.9z"/>
<path class="st1" d="M124.3,91.4v27.5H121V98.7c0-0.3,0-0.6,0-0.9s0-0.6,0.1-0.9l-9.4,17.2c-0.3,0.6-0.7,0.9-1.3,0.9h-0.5
	c-0.6,0-1-0.3-1.3-0.9L99,96.8c0.1,0.7,0.1,1.3,0.1,1.9v20.2h-3.2V91.4h2.7c0.3,0,0.6,0,0.8,0.1c0.2,0.1,0.3,0.2,0.5,0.5l9.4,16.9
	c0.2,0.3,0.3,0.6,0.4,1s0.3,0.7,0.4,1c0.1-0.3,0.3-0.7,0.4-1s0.3-0.7,0.5-1l9.3-16.9c0.2-0.3,0.3-0.5,0.5-0.5
	c0.2-0.1,0.4-0.1,0.8-0.1H124.3z"/>
<path class="st1" d="M141.8,115.9c1.1,0,2.1-0.2,3-0.6c0.9-0.4,1.6-0.9,2.3-1.6c0.6-0.7,1.1-1.5,1.4-2.5s0.5-2,0.5-3.2V91.4h3.7
	v16.7c0,1.6-0.3,3.1-0.8,4.4c-0.5,1.4-1.2,2.5-2.2,3.5s-2.1,1.8-3.4,2.3c-1.3,0.6-2.9,0.8-4.5,0.8c-1.7,0-3.2-0.3-4.5-0.8
	c-1.3-0.6-2.5-1.3-3.4-2.3s-1.7-2.2-2.2-3.5c-0.5-1.4-0.8-2.8-0.8-4.4V91.4h3.7v16.7c0,1.2,0.2,2.2,0.5,3.2c0.3,1,0.8,1.8,1.4,2.5
	c0.6,0.7,1.4,1.2,2.3,1.6C139.6,115.7,140.6,115.9,141.8,115.9z"/>
<path class="st1" d="M181.3,91.4v27.5h-1.8c-0.3,0-0.5-0.1-0.7-0.2c-0.2-0.1-0.4-0.3-0.6-0.5l-15.8-20.7c0,0.3,0,0.6,0.1,0.9
	c0,0.3,0,0.6,0,0.9v19.6h-3.2V91.4h1.9c0.2,0,0.3,0,0.4,0c0.1,0,0.2,0.1,0.3,0.1s0.2,0.1,0.3,0.2s0.2,0.2,0.3,0.3l15.8,20.7
	c0-0.3,0-0.7-0.1-1c0-0.3,0-0.6,0-0.9V91.4H181.3z"/>
<path class="st1" d="M210.5,105.7v10.5c-1.4,1-2.8,1.7-4.4,2.2c-1.6,0.5-3.3,0.7-5.1,0.7c-2.2,0-4.2-0.3-5.9-1
	c-1.8-0.7-3.3-1.6-4.5-2.9c-1.2-1.2-2.2-2.7-2.9-4.4c-0.7-1.7-1-3.6-1-5.7c0-2.1,0.3-4,1-5.7c0.7-1.7,1.6-3.2,2.8-4.4
	c1.2-1.2,2.7-2.2,4.4-2.9c1.7-0.7,3.7-1,5.8-1c1.1,0,2.1,0.1,3,0.2c0.9,0.2,1.8,0.4,2.6,0.7c0.8,0.3,1.5,0.7,2.2,1.1
	c0.7,0.4,1.3,0.9,1.9,1.4l-1,1.7c-0.2,0.3-0.4,0.4-0.6,0.5s-0.5,0-0.9-0.2c-0.3-0.2-0.7-0.4-1-0.7c-0.4-0.3-0.9-0.5-1.4-0.7
	c-0.6-0.2-1.2-0.4-2-0.6c-0.8-0.2-1.7-0.2-2.7-0.2c-1.5,0-2.9,0.3-4.2,0.8c-1.2,0.5-2.3,1.2-3.2,2.2c-0.9,0.9-1.5,2.1-2,3.4
	c-0.5,1.3-0.7,2.8-0.7,4.5c0,1.7,0.2,3.3,0.7,4.6c0.5,1.4,1.2,2.5,2.1,3.5c0.9,1,2,1.7,3.3,2.2c1.3,0.5,2.7,0.7,4.4,0.7
	c1.3,0,2.4-0.1,3.4-0.4c1-0.3,1.9-0.7,2.9-1.2v-6h-4.2c-0.2,0-0.4-0.1-0.6-0.2c-0.1-0.1-0.2-0.3-0.2-0.5v-2.1H210.5z"/>
<path class="st1" d="M230.1,95.7c-0.1,0.2-0.2,0.3-0.4,0.4c-0.1,0.1-0.3,0.1-0.5,0.1c-0.2,0-0.5-0.1-0.8-0.3
	c-0.3-0.2-0.7-0.5-1.1-0.7c-0.4-0.3-1-0.5-1.6-0.7c-0.6-0.2-1.4-0.3-2.2-0.3c-0.8,0-1.6,0.1-2.2,0.3c-0.6,0.2-1.2,0.5-1.6,0.9
	c-0.4,0.4-0.7,0.8-1,1.4c-0.2,0.5-0.3,1.1-0.3,1.7c0,0.8,0.2,1.4,0.6,1.9s0.9,0.9,1.5,1.3c0.6,0.4,1.3,0.7,2.1,0.9
	c0.8,0.3,1.6,0.5,2.4,0.8c0.8,0.3,1.6,0.6,2.4,0.9c0.8,0.4,1.5,0.8,2.1,1.3c0.6,0.5,1.1,1.2,1.5,2c0.4,0.8,0.6,1.7,0.6,2.9
	c0,1.2-0.2,2.3-0.6,3.4s-1,2-1.8,2.8c-0.8,0.8-1.7,1.4-2.9,1.8c-1.1,0.4-2.4,0.7-3.9,0.7c-1.8,0-3.4-0.3-4.8-1
	c-1.4-0.6-2.7-1.5-3.7-2.6l1.1-1.8c0.1-0.1,0.2-0.3,0.4-0.4c0.1-0.1,0.3-0.1,0.5-0.1c0.2,0,0.4,0.1,0.6,0.2c0.2,0.1,0.4,0.3,0.7,0.5
	s0.6,0.4,0.9,0.7c0.3,0.2,0.7,0.5,1.2,0.7c0.4,0.2,0.9,0.4,1.5,0.5c0.6,0.1,1.2,0.2,1.9,0.2c0.9,0,1.7-0.1,2.3-0.4
	c0.7-0.2,1.3-0.6,1.7-1c0.5-0.4,0.8-1,1.1-1.6s0.4-1.3,0.4-2.1c0-0.8-0.2-1.5-0.6-2s-0.9-1-1.5-1.3c-0.6-0.4-1.3-0.7-2.1-0.9
	c-0.8-0.2-1.6-0.5-2.4-0.8c-0.8-0.3-1.6-0.6-2.4-0.9c-0.8-0.3-1.5-0.8-2.1-1.3c-0.6-0.5-1.1-1.2-1.5-2.1s-0.6-1.8-0.6-3.1
	c0-1,0.2-1.9,0.6-2.8s0.9-1.7,1.6-2.4c0.7-0.7,1.6-1.3,2.6-1.7s2.2-0.6,3.6-0.6c1.5,0,2.9,0.2,4.2,0.7c1.2,0.5,2.4,1.2,3.3,2.1
	L230.1,95.7z"/>
</svg>
