<?xml version="1.0" encoding="utf-8"?>
<!-- Generator: Adobe Illustrator 26.5.0, SVG Export Plug-In . SVG Version: 6.00 Build 0)  -->
<svg version="1.1" xmlns="http://www.w3.org/2000/svg" xmlns:xlink="http://www.w3.org/1999/xlink" x="0px" y="0px"
	 viewBox="0 0 403.5 389.4" style="enable-background:new 0 0 403.5 389.4;" xml:space="preserve">
<style type="text/css">
	.st0{fill:#020203;}
	.st1{fill:#7C7C7C;}
	.st2{fill:url(#SVGID_1_);}
	.st3{fill:#B7B7B7;}
	.st4{fill:#8D8D8E;}
	.st5{fill:url(#Rectangle_8_00000008836961364279644720000017249415122272849540_);}
	.st6{fill:url(#SVGID_00000062911652126088292670000000715636393850227636_);}
	.st7{fill:#BABABA;}
	.st8{fill:url(#SVGID_00000119838177155280608040000007974254578072536472_);}
	.st9{fill:url(#SVGID_00000095316249253188538730000018040125668808568722_);}
	.st10{fill:url(#SVGID_00000078038883901879225210000013554355540173713800_);}
	.st11{fill:#FFFFFF;}
</style>
<g id="Layer_1">
	<polygon class="st0" points="400.2,389.5 2.2,389.5 2.2,103.7 15.4,92.6 390.6,96.2 400.2,103.7 	"/>
	<g id="Layer_5">
		
			<ellipse transform="matrix(9.736196e-02 -0.9952 0.9952 9.736196e-02 -36.3245 162.8662)" class="st1" cx="71.6" cy="101.5" rx="2.7" ry="0.9"/>
		
			<ellipse transform="matrix(9.736081e-02 -0.9952 0.9952 9.736081e-02 -39.2002 165.1896)" class="st1" cx="71.5" cy="104.2" rx="1.8" ry="1.8"/>
		
			<ellipse transform="matrix(0.9997 -2.383490e-02 2.383490e-02 0.9997 -2.4891 4.013)" class="st1" cx="167.1" cy="106.4" rx="0.9" ry="2.8"/>
		
			<ellipse transform="matrix(0.9997 -2.383605e-02 2.383605e-02 0.9997 -2.5584 4.0185)" class="st1" cx="167.3" cy="109.3" rx="2" ry="1.9"/>
		
			<ellipse transform="matrix(4.321473e-02 -0.9991 0.9991 4.321473e-02 118.1542 332.8384)" class="st1" cx="232.9" cy="104.7" rx="2.8" ry="0.9"/>
		
			<ellipse transform="matrix(4.321357e-02 -0.9991 0.9991 4.321357e-02 115.3006 335.5561)" class="st1" cx="232.8" cy="107.6" rx="1.9" ry="1.9"/>
		
			<ellipse transform="matrix(0.9972 -7.451077e-02 7.451077e-02 0.9972 -6.857 23.7198)" class="st1" cx="314.5" cy="103.8" rx="0.9" ry="2.7"/>
		
			<ellipse transform="matrix(0.9972 -7.451182e-02 7.451182e-02 0.9972 -7.0612 23.7515)" class="st1" cx="314.8" cy="106.5" rx="1.9" ry="1.8"/>
	</g>
	<g id="nubsies">
		<linearGradient id="SVGID_1_" gradientUnits="userSpaceOnUse" x1="201.8644" y1="106.2478" x2="201.8644" y2="13.4074">
			<stop  offset="0" style="stop-color:#17223C"/>
			<stop  offset="0.1997" style="stop-color:#09111B"/>
		</linearGradient>
		<path class="st2" d="M11.4,96.8c0,0-2.6,1.6-5.3,3.9c12.5-7.7,39.6-4.3,65.6,0.4c31.9-1.7,57-9.3,95.5,5.1
			c24.8-9.2,48.9-9.5,65.7-1.5c23-5.6,57.4-6.1,81.6-1.2c14.3-8.5,71.5-7.1,83.2-2.8c-10.2-9.7-122.6-86.8-188.7-87.3
			c-0.2,0-0.4,0-0.6,0C142,13.4,23,91.7,15.1,97.3"/>
		<ellipse transform="matrix(0.7071 -0.7071 0.7071 0.7071 -72.2958 32.9895)" class="st3" cx="3.7" cy="103.8" rx="2.1" ry="2"/>
		<ellipse transform="matrix(0.7071 -0.7071 0.7071 0.7071 -70.0543 33.8165)" class="st3" cx="5.8" cy="101.5" rx="3.1" ry="0.9"/>
		
			<ellipse transform="matrix(9.736081e-02 -0.9952 0.9952 9.736081e-02 5.0859 213.7202)" class="st3" cx="120.4" cy="104.1" rx="2.3" ry="2.3"/>
		
			<ellipse transform="matrix(9.736196e-02 -0.9952 0.9952 9.736196e-02 8.7532 210.7574)" class="st3" cx="120.6" cy="100.6" rx="3.4" ry="1.1"/>
		
			<ellipse transform="matrix(0.9998 -2.033460e-02 2.033460e-02 0.9998 -2.0575 5.8741)" class="st3" cx="287.8" cy="104.1" rx="2.3" ry="2.3"/>
		
			<ellipse transform="matrix(0.9998 -2.033344e-02 2.033344e-02 0.9998 -1.9862 5.8688)" class="st3" cx="287.6" cy="100.6" rx="1.1" ry="3.4"/>
		
			<ellipse transform="matrix(0.7225 -0.6913 0.6913 0.7225 38.9416 305.3863)" class="st3" cx="399.9" cy="104.2" rx="2.3" ry="2.3"/>
		
			<ellipse transform="matrix(0.7226 -0.6913 0.6913 0.7226 39.924 302.9638)" class="st3" cx="397.4" cy="101.7" rx="1.1" ry="3.4"/>
	</g>
	<g>
		<ellipse class="st4" cx="202" cy="2.5" rx="4.3" ry="2.5"/>
		
			<linearGradient id="Rectangle_8_00000158001997329069384770000017507328229628230291_" gradientUnits="userSpaceOnUse" x1="-152.8622" y1="750.7372" x2="-152.7154" y2="750.7372" gradientTransform="matrix(4.776 0 0 -886.41 787.1795 665631.625)">
			<stop  offset="0" style="stop-color:#FFFFFF"/>
			<stop  offset="0.172" style="stop-color:#FFFFFF"/>
			<stop  offset="0.726" style="stop-color:#FFFFFF"/>
			<stop  offset="1" style="stop-color:#FFFFFF"/>
		</linearGradient>
		
			<rect id="Rectangle_8_00000031911877893648394680000010626976403344353423_" x="200.1" y="2.5" style="fill:url(#Rectangle_8_00000158001997329069384770000017507328229628230291_);" width="3.5" height="336.5"/>
		
			<linearGradient id="SVGID_00000018937295713408511270000006878327362980165796_" gradientUnits="userSpaceOnUse" x1="201.8996" y1="126.1567" x2="201.8996" y2="89.9753">
			<stop  offset="0" style="stop-color:#FFFFFF"/>
			<stop  offset="1" style="stop-color:#000000"/>
		</linearGradient>
		
			<rect x="200.1" y="91.2" style="fill:url(#SVGID_00000018937295713408511270000006878327362980165796_);" width="3.6" height="35.5"/>
		<path class="st7" d="M215.9,12.6c0-1.7-6-6.7-13.3-6.7c-7.4,0-13.3,5-13.3,6.7c0,1.7,6-0.4,13.3-0.4
			C210,12.2,215.9,14.4,215.9,12.6z"/>
		
			<radialGradient id="SVGID_00000143610920924603446720000008840557735580611748_" cx="46.9005" cy="21.0714" r="85.3542" gradientUnits="userSpaceOnUse">
			<stop  offset="0.436" style="stop-color:#3165AE"/>
			<stop  offset="0.5673" style="stop-color:#2F5FAA"/>
			<stop  offset="0.7743" style="stop-color:#2D519F"/>
			<stop  offset="1" style="stop-color:#2B3D91"/>
		</radialGradient>
		<path style="fill:url(#SVGID_00000143610920924603446720000008840557735580611748_);" d="M169.2,12.5c0,0-29.7-8.8-78.6,20.7
			S4.5,101.3,4.5,101.3s23-10.1,49.7-10.7c26.7-0.6,54.4,4.4,66.2,9.3C131.4,72.9,143.3,35.7,169.2,12.5z"/>
		
			<radialGradient id="SVGID_00000116235695748086719110000011704908435479671176_" cx="233.3298" cy="91.0503" r="129.8123" gradientUnits="userSpaceOnUse">
			<stop  offset="9.050079e-03" style="stop-color:#3165AE"/>
			<stop  offset="0.1422" style="stop-color:#2F5FAA"/>
			<stop  offset="0.3522" style="stop-color:#2D519F"/>
			<stop  offset="0.5812" style="stop-color:#2B3D91"/>
			<stop  offset="1" style="stop-color:#3165AE"/>
		</radialGradient>
		<path style="fill:url(#SVGID_00000116235695748086719110000011704908435479671176_);" d="M233.8,12.5c0,0,29.7-8.8,78.6,20.7
			s86.1,68.1,86.1,68.1s-23-10.1-49.7-10.7c-26.7-0.6-49,4.4-60.8,9.3C277,72.9,259.7,35.7,233.8,12.5z"/>
		
			<radialGradient id="SVGID_00000169532587999922630210000006856763140817737626_" cx="203.0427" cy="191.935" r="187.487" gradientUnits="userSpaceOnUse">
			<stop  offset="0.3374" style="stop-color:#3B75BA"/>
			<stop  offset="0.4275" style="stop-color:#3870B6"/>
			<stop  offset="0.5696" style="stop-color:#3361AB"/>
			<stop  offset="0.7449" style="stop-color:#2E499A"/>
			<stop  offset="0.8258" style="stop-color:#2B3D91"/>
			<stop  offset="0.861" style="stop-color:#2C4496"/>
			<stop  offset="0.9235" style="stop-color:#3057A4"/>
			<stop  offset="1" style="stop-color:#3B75BA"/>
		</radialGradient>
		<path style="fill:url(#SVGID_00000169532587999922630210000006856763140817737626_);" d="M261.7,33.6C236.8,3.4,228,8.6,221.9,8.3
			c-6.2-0.3-19.9,2.4-19.9,2.4s-8.2-2.6-14.4-2.4c-6.2,0.3-15.9-4.9-40.8,25.2c-24.9,30.1-27.3,65.8-26.3,66.4
			c1,0.6,11.2-1.8,23.5-3.7c12.3-1.9,37.2-4.9,59.9-4.6c0.1,0,0.3,0,0.4,0c0.1,0,0.2,0,0.4,0c22.7-0.3,47.6,2.7,59.9,4.6
			c12.3,1.9,22.5,4.3,23.5,3.7C289,99.4,286.6,63.7,261.7,33.6z"/>
	</g>
	<g id="Layer_2">
	</g>
	<g id="Group_198" transform="translate(427.367 696.236) rotate(90)">
		<path id="Path_92" class="st11" d="M-360.4,220.8l3.1,4.6l-3.1,4.6h3.1l3.1-4.6l-3.1-4.6H-360.4z"/>
		<path id="Path_94" class="st11" d="M-354.3,217.2l5.5,8.3l-5.5,8.3h5.5l5.5-8.3l-5.5-8.3H-354.3z"/>
	</g>
</g>
<g id="Layer_4">
</g>
</svg>
