<?xml version="1.0" encoding="utf-8"?>
<!-- Generator: Adobe Illustrator 26.5.0, SVG Export Plug-In . SVG Version: 6.00 Build 0)  -->
<svg version="1.1" id="Layer_1" xmlns="http://www.w3.org/2000/svg" xmlns:xlink="http://www.w3.org/1999/xlink" x="0px" y="0px"
	 viewBox="0 0 403.5 389.4" style="enable-background:new 0 0 403.5 389.4;" xml:space="preserve">
<style type="text/css">
	.st0{fill:#020203;}
	.st1{fill:#7C7C7C;}
	.st2{fill:url(#SVGID_1_);}
	.st3{fill:#B7B7B7;}
	.st4{fill:#8D8D8E;}
	.st5{fill:url(#Rectangle_8_00000098918655829691225710000017364660992082984578_);}
	.st6{fill:url(#SVGID_00000145750722942512938780000018348616661737639554_);}
	.st7{fill:#BABABA;}
	.st8{fill:url(#SVGID_00000164504369028184057230000013682415909918751930_);}
	.st9{fill:url(#SVGID_00000116207519665623260520000006311320595177416326_);}
	.st10{fill:url(#SVGID_00000024000976029972932530000007939287523119787703_);}
	.st11{fill:#FFFFFF;}
</style>
<g id="Layer_1_00000163795179896553464710000013102805564020241030_">
	<polygon class="st0" points="400.2,389.5 2.2,389.5 2.2,103.7 15.4,92.6 390.6,96.2 400.2,103.7 	"/>
	<g id="Layer_5">
		
			<ellipse transform="matrix(9.736671e-02 -0.9952 0.9952 9.736671e-02 -36.3277 162.9291)" class="st1" cx="71.7" cy="101.5" rx="2.7" ry="0.9"/>
		<ellipse class="st1" cx="71.5" cy="104.2" rx="1.8" ry="1.8"/>
		
			<ellipse transform="matrix(0.9997 -2.383528e-02 2.383528e-02 0.9997 -2.4886 4.013)" class="st1" cx="167.1" cy="106.4" rx="0.9" ry="2.8"/>
		
			<ellipse transform="matrix(0.9997 -2.383643e-02 2.383643e-02 0.9997 -2.5577 4.0188)" class="st1" cx="167.3" cy="109.3" rx="2" ry="1.9"/>
		
			<ellipse transform="matrix(4.321325e-02 -0.9991 0.9991 4.321325e-02 118.1887 332.7566)" class="st1" cx="232.8" cy="104.7" rx="2.8" ry="0.9"/>
		
			<ellipse transform="matrix(4.321207e-02 -0.9991 0.9991 4.321207e-02 115.2865 335.6115)" class="st1" cx="232.9" cy="107.6" rx="1.9" ry="1.9"/>
		
			<ellipse transform="matrix(0.9972 -7.451227e-02 7.451227e-02 0.9972 -6.8598 23.7224)" class="st1" cx="314.5" cy="103.8" rx="0.9" ry="2.7"/>
		
			<ellipse transform="matrix(0.9972 -7.451332e-02 7.451332e-02 0.9972 -7.0603 23.7523)" class="st1" cx="314.8" cy="106.5" rx="1.9" ry="1.8"/>
	</g>
	<g id="nubsies">
		
			<linearGradient id="SVGID_1_" gradientUnits="userSpaceOnUse" x1="201.9" y1="283.6898" x2="201.9" y2="376.4898" gradientTransform="matrix(1 0 0 -1 0 389.8898)">
			<stop  offset="0" style="stop-color:#17223C"/>
			<stop  offset="0.1997" style="stop-color:#09111B"/>
		</linearGradient>
		<path class="st2" d="M11.4,96.8c0,0-2.6,1.6-5.3,3.9c12.5-7.7,39.6-4.3,65.6,0.4c31.9-1.7,57-9.3,95.5,5.1
			c24.8-9.2,48.9-9.5,65.7-1.5c23-5.6,57.4-6.1,81.6-1.2c14.3-8.5,71.5-7.1,83.2-2.8C387.5,91,275.1,13.9,209,13.4
			c-0.2,0-0.4,0-0.6,0C142,13.4,23,91.7,15.1,97.3"/>
		<ellipse transform="matrix(0.7071 -0.7071 0.7071 0.7071 -72.2878 33.0222)" class="st3" cx="3.7" cy="103.8" rx="2.1" ry="2"/>
		<ellipse transform="matrix(0.7071 -0.7071 0.7071 0.7071 -70.0575 33.8382)" class="st3" cx="5.8" cy="101.5" rx="3.1" ry="0.9"/>
		<ellipse class="st3" cx="120.4" cy="104" rx="2.3" ry="2.3"/>
		
			<ellipse transform="matrix(9.736671e-02 -0.9952 0.9952 9.736671e-02 8.8153 210.7816)" class="st3" cx="120.6" cy="100.5" rx="3.4" ry="1.1"/>
		
			<ellipse transform="matrix(0.9998 -2.033447e-02 2.033447e-02 0.9998 -2.0573 5.8738)" class="st3" cx="287.8" cy="104.1" rx="2.3" ry="2.3"/>
		
			<ellipse transform="matrix(0.9998 -2.033330e-02 2.033330e-02 0.9998 -1.9861 5.8687)" class="st3" cx="287.6" cy="100.6" rx="1.1" ry="3.4"/>
		
			<ellipse transform="matrix(0.7225 -0.6913 0.6913 0.7225 38.9081 305.3837)" class="st3" cx="399.9" cy="104.2" rx="2.3" ry="2.3"/>
		
			<ellipse transform="matrix(0.7226 -0.6913 0.6913 0.7226 39.9187 302.9311)" class="st3" cx="397.4" cy="101.7" rx="1.1" ry="3.4"/>
	</g>
	<g>
		<ellipse class="st4" cx="202" cy="2.5" rx="4.3" ry="2.5"/>
		
			<linearGradient id="Rectangle_8_00000000938953235706074050000001218974353149343888_" gradientUnits="userSpaceOnUse" x1="-227.9711" y1="-134.5923" x2="-227.8243" y2="-134.5923" gradientTransform="matrix(4.776 0 0 886.41 1145.8995 119474.7344)">
			<stop  offset="0" style="stop-color:#FFFFFF"/>
			<stop  offset="0.172" style="stop-color:#FFFFFF"/>
			<stop  offset="0.726" style="stop-color:#FFFFFF"/>
			<stop  offset="1" style="stop-color:#FFFFFF"/>
		</linearGradient>
		
			<rect id="Rectangle_8_00000031911877893648394680000010626976403344353423_" x="200.1" y="2.5" style="fill:url(#Rectangle_8_00000000938953235706074050000001218974353149343888_);" width="3.5" height="336.5"/>
		
			<linearGradient id="SVGID_00000052804039576877314960000016835868301557567630_" gradientUnits="userSpaceOnUse" x1="201.9" y1="263.7331" x2="201.9" y2="299.9145" gradientTransform="matrix(1 0 0 -1 0 389.8898)">
			<stop  offset="0" style="stop-color:#FFFFFF"/>
			<stop  offset="1" style="stop-color:#000000"/>
		</linearGradient>
		
			<rect x="200.1" y="91.2" style="fill:url(#SVGID_00000052804039576877314960000016835868301557567630_);" width="3.6" height="35.5"/>
		<path class="st7" d="M215.9,12.6c0-1.7-6-6.7-13.3-6.7c-7.4,0-13.3,5-13.3,6.7s6-0.4,13.3-0.4C210,12.2,215.9,14.4,215.9,12.6z"/>
		
			<radialGradient id="SVGID_00000143580536826753705120000006254831310609595290_" cx="122.1949" cy="233.8407" r="212.6458" gradientUnits="userSpaceOnUse">
			<stop  offset="0.537" style="stop-color:#C02ADB"/>
			<stop  offset="0.7309" style="stop-color:#9800AC"/>
			<stop  offset="0.7773" style="stop-color:#A00DB4"/>
			<stop  offset="0.8634" style="stop-color:#B530CA"/>
			<stop  offset="0.9569" style="stop-color:#D05CE5"/>
		</radialGradient>
		<path style="fill:url(#SVGID_00000143580536826753705120000006254831310609595290_);" d="M169.2,12.5c0,0-29.7-8.8-78.6,20.7
			S4.5,101.3,4.5,101.3s23-10.1,49.7-10.7s54.4,4.4,66.2,9.3C131.4,72.9,143.3,35.7,169.2,12.5z"/>
		
			<radialGradient id="SVGID_00000093153046411611860280000015102188248285957517_" cx="252.5229" cy="196.4953" r="172.216" gradientUnits="userSpaceOnUse">
			<stop  offset="0.537" style="stop-color:#C02ADB"/>
			<stop  offset="0.7309" style="stop-color:#9800AC"/>
			<stop  offset="0.7773" style="stop-color:#A00DB4"/>
			<stop  offset="0.8634" style="stop-color:#B530CA"/>
			<stop  offset="0.9569" style="stop-color:#D05CE5"/>
		</radialGradient>
		<path style="fill:url(#SVGID_00000093153046411611860280000015102188248285957517_);" d="M233.8,12.5c0,0,29.7-8.8,78.6,20.7
			s86.1,68.1,86.1,68.1s-23-10.1-49.7-10.7s-49,4.4-60.8,9.3C277,72.9,259.7,35.7,233.8,12.5z"/>
		
			<radialGradient id="SVGID_00000134953704543503645490000016550440973527005863_" cx="203.0427" cy="197.9548" r="187.487" gradientTransform="matrix(1 0 0 -1 0 389.8898)" gradientUnits="userSpaceOnUse">
			<stop  offset="0.537" style="stop-color:#C02ADB"/>
			<stop  offset="0.7309" style="stop-color:#9800AC"/>
			<stop  offset="0.7773" style="stop-color:#A00DB4"/>
			<stop  offset="0.8634" style="stop-color:#B530CA"/>
			<stop  offset="0.9569" style="stop-color:#D05CE5"/>
		</radialGradient>
		<path style="fill:url(#SVGID_00000134953704543503645490000016550440973527005863_);" d="M261.7,33.6C236.8,3.4,228,8.6,221.9,8.3
			C215.7,8,202,10.7,202,10.7s-8.2-2.6-14.4-2.4c-6.2,0.3-15.9-4.9-40.8,25.2s-27.3,65.8-26.3,66.4s11.2-1.8,23.5-3.7
			c12.3-1.9,37.2-4.9,59.9-4.6c0.1,0,0.3,0,0.4,0c0.1,0,0.2,0,0.4,0c22.7-0.3,47.6,2.7,59.9,4.6s22.5,4.3,23.5,3.7
			C289,99.4,286.6,63.7,261.7,33.6z"/>
	</g>
	<g id="Layer_2_00000103244402284868296430000006780940917243089304_">
	</g>
	<g id="Group_198" transform="translate(427.367 696.236) rotate(90)">
		<path id="Path_92" class="st11" d="M-360.4,220.8l3.1,4.6l-3.1,4.6h3.1l3.1-4.6l-3.1-4.6H-360.4z"/>
		<path id="Path_94" class="st11" d="M-354.3,217.2l5.5,8.3l-5.5,8.3h5.5l5.5-8.3l-5.5-8.3H-354.3z"/>
	</g>
</g>
<g id="Layer_4">
</g>
</svg>
