<?xml version="1.0" encoding="utf-8"?>
<!-- Generator: Adobe Illustrator 26.5.0, SVG Export Plug-In . SVG Version: 6.00 Build 0)  -->
<svg version="1.1" id="Layer_1" xmlns="http://www.w3.org/2000/svg" xmlns:xlink="http://www.w3.org/1999/xlink" x="0px" y="0px"
	 viewBox="0 0 403.5 389.4" style="enable-background:new 0 0 403.5 389.4;" xml:space="preserve">
<style type="text/css">
	.st0{fill:#020203;}
	.st1{fill:#7C7C7C;}
	.st2{fill:#053335;}
	.st3{fill:#B7B7B7;}
	.st4{fill:#8D8D8E;}
	.st5{fill:url(#Rectangle_8_00000070078628915152196330000002622787022669523644_);}
	.st6{fill:url(#SVGID_1_);}
	.st7{fill:#BABABA;}
	.st8{fill:url(#SVGID_00000027596685586164563080000008024512212876889480_);}
	.st9{fill:url(#SVGID_00000108289842380369835040000010049805281310135178_);}
	.st10{opacity:0.54;fill:url(#SVGID_00000168075196767407913410000006581335370321615744_);}
	.st11{fill:#FFFFFF;}
	.st12{fill:url(#SVGID_00000084502580283018040330000012675160491421937046_);}
</style>
<g id="Layer_1_00000163795179896553464710000013102805564020241030_">
	<polygon class="st0" points="400.2,389.5 2.2,389.5 2.2,103.7 15.4,92.6 390.6,96.2 400.2,103.7 	"/>
	<g id="Layer_5">
		
			<ellipse transform="matrix(9.737142e-02 -0.9952 0.9952 9.737142e-02 -36.2858 162.9028)" class="st1" cx="71.7" cy="101.5" rx="2.7" ry="0.9"/>
		<ellipse class="st1" cx="71.5" cy="104.2" rx="1.8" ry="1.8"/>
		
			<ellipse transform="matrix(0.9997 -2.383566e-02 2.383566e-02 0.9997 -2.4886 4.0131)" class="st1" cx="167.1" cy="106.4" rx="0.9" ry="2.8"/>
		
			<ellipse transform="matrix(0.9997 -2.383681e-02 2.383681e-02 0.9997 -2.5578 4.0189)" class="st1" cx="167.3" cy="109.3" rx="2" ry="1.9"/>
		
			<ellipse transform="matrix(4.321177e-02 -0.9991 0.9991 4.321177e-02 118.1997 332.8037)" class="st1" cx="232.9" cy="104.7" rx="2.8" ry="0.9"/>
		
			<ellipse transform="matrix(4.321063e-02 -0.9991 0.9991 4.321063e-02 115.3217 335.5588)" class="st1" cx="232.9" cy="107.6" rx="1.9" ry="1.9"/>
		
			<ellipse transform="matrix(0.9972 -7.451376e-02 7.451376e-02 0.9972 -6.8601 23.7227)" class="st1" cx="314.5" cy="103.8" rx="0.9" ry="2.7"/>
		
			<ellipse transform="matrix(0.9972 -7.451481e-02 7.451481e-02 0.9972 -7.0605 23.7529)" class="st1" cx="314.8" cy="106.5" rx="1.9" ry="1.8"/>
	</g>
	<g id="nubsies">
		<path class="st2" d="M11.4,96.8c0,0-2.6,1.6-5.3,3.9c12.5-7.7,39.6-4.3,65.6,0.4c31.9-1.7,57-9.3,95.5,5.1
			c24.8-9.2,48.9-9.5,65.7-1.5c23-5.6,57.4-6.1,81.6-1.2c14.3-8.5,71.5-7.1,83.2-2.8C387.5,91,275.1,13.9,209,13.4
			c-0.2,0-0.4,0-0.6,0C142,13.4,23,91.7,15.1,97.3"/>
		<ellipse transform="matrix(0.7071 -0.7071 0.7071 0.7071 -72.3086 33.0375)" class="st3" cx="3.7" cy="103.8" rx="2.1" ry="2"/>
		<ellipse transform="matrix(0.7071 -0.7071 0.7071 0.7071 -70.0738 33.8423)" class="st3" cx="5.8" cy="101.5" rx="3.1" ry="0.9"/>
		<ellipse class="st3" cx="120.4" cy="104" rx="2.3" ry="2.3"/>
		
			<ellipse transform="matrix(9.737142e-02 -0.9952 0.9952 9.737142e-02 8.7667 210.7579)" class="st3" cx="120.6" cy="100.5" rx="3.4" ry="1.1"/>
		
			<ellipse transform="matrix(0.9998 -2.033436e-02 2.033436e-02 0.9998 -2.0573 5.8738)" class="st3" cx="287.8" cy="104.1" rx="2.3" ry="2.3"/>
		
			<ellipse transform="matrix(0.9998 -2.033316e-02 2.033316e-02 0.9998 -1.9861 5.8687)" class="st3" cx="287.6" cy="100.6" rx="1.1" ry="3.4"/>
		
			<ellipse transform="matrix(0.7225 -0.6913 0.6913 0.7225 38.9006 305.3598)" class="st3" cx="399.9" cy="104.2" rx="2.3" ry="2.3"/>
		
			<ellipse transform="matrix(0.7226 -0.6913 0.6913 0.7226 39.9399 302.9184)" class="st3" cx="397.4" cy="101.7" rx="1.1" ry="3.4"/>
	</g>
	<g>
		<ellipse class="st4" cx="202" cy="2.5" rx="4.3" ry="2.5"/>
		
			<linearGradient id="Rectangle_8_00000039125268583640174510000013689691634656521113_" gradientUnits="userSpaceOnUse" x1="-303.08" y1="750.2272" x2="-302.9332" y2="750.2272" gradientTransform="matrix(4.776 0 0 -886.41 1504.6195 665179.625)">
			<stop  offset="0" style="stop-color:#FFFFFF"/>
			<stop  offset="0.172" style="stop-color:#FFFFFF"/>
			<stop  offset="0.726" style="stop-color:#FFFFFF"/>
			<stop  offset="1" style="stop-color:#FFFFFF"/>
		</linearGradient>
		
			<rect id="Rectangle_8_00000031911877893648394680000010626976403344353423_" x="200.1" y="2.5" style="fill:url(#Rectangle_8_00000039125268583640174510000013689691634656521113_);" width="3.5" height="336.5"/>
		
			<linearGradient id="SVGID_1_" gradientUnits="userSpaceOnUse" x1="201.9" y1="578.1567" x2="201.9" y2="541.9753" gradientTransform="matrix(1 0 0 1 0 -452)">
			<stop  offset="0" style="stop-color:#FFFFFF"/>
			<stop  offset="1" style="stop-color:#000000"/>
		</linearGradient>
		<rect x="200.1" y="91.2" class="st6" width="3.6" height="35.5"/>
		<path class="st7" d="M215.9,12.6c0-1.7-6-6.7-13.3-6.7c-7.4,0-13.3,5-13.3,6.7s6-0.4,13.3-0.4C210,12.2,215.9,14.4,215.9,12.6z"/>
		
			<radialGradient id="SVGID_00000178204700988022313830000009311736377800670651_" cx="122.1949" cy="156.0491" r="212.6458" gradientTransform="matrix(1 0 0 -1 0 389.8898)" gradientUnits="userSpaceOnUse">
			<stop  offset="0.4753" style="stop-color:#00CED3"/>
			<stop  offset="0.4861" style="stop-color:#02C3CA"/>
			<stop  offset="0.5132" style="stop-color:#05ACB8"/>
			<stop  offset="0.5448" style="stop-color:#089AAA"/>
			<stop  offset="0.583" style="stop-color:#0A8EA0"/>
			<stop  offset="0.6346" style="stop-color:#0B879B"/>
			<stop  offset="0.7592" style="stop-color:#0B8599"/>
			<stop  offset="0.8021" style="stop-color:#0A8A9D"/>
			<stop  offset="0.8512" style="stop-color:#0898A8"/>
			<stop  offset="0.9035" style="stop-color:#05AFBA"/>
			<stop  offset="0.9569" style="stop-color:#00CED3"/>
		</radialGradient>
		<path style="fill:url(#SVGID_00000178204700988022313830000009311736377800670651_);" d="M169.2,12.5c0,0-29.7-8.8-78.6,20.7
			S4.5,101.3,4.5,101.3s23-10.1,49.7-10.7s54.4,4.4,66.2,9.3C131.4,72.9,143.3,35.7,169.2,12.5z"/>
		
			<radialGradient id="SVGID_00000042720650292234798060000003156964152412825518_" cx="252.5229" cy="193.3945" r="172.216" gradientTransform="matrix(1 0 0 -1 0 389.8898)" gradientUnits="userSpaceOnUse">
			<stop  offset="0.4753" style="stop-color:#00CED3"/>
			<stop  offset="0.477" style="stop-color:#00CDD2"/>
			<stop  offset="0.5175" style="stop-color:#04B3BD"/>
			<stop  offset="0.5618" style="stop-color:#079EAD"/>
			<stop  offset="0.6122" style="stop-color:#0990A2"/>
			<stop  offset="0.6729" style="stop-color:#0B889B"/>
			<stop  offset="0.7725" style="stop-color:#0B8599"/>
			<stop  offset="0.8215" style="stop-color:#0A889C"/>
			<stop  offset="0.8623" style="stop-color:#0993A4"/>
			<stop  offset="0.9001" style="stop-color:#06A4B2"/>
			<stop  offset="0.936" style="stop-color:#03BCC5"/>
			<stop  offset="0.9569" style="stop-color:#00CED3"/>
		</radialGradient>
		<path style="fill:url(#SVGID_00000042720650292234798060000003156964152412825518_);" d="M233.8,12.5c0,0,29.7-8.8,78.6,20.7
			s86.1,68.1,86.1,68.1s-23-10.1-49.7-10.7c-24.1-0.5-44.7,3.5-57.1,7.9c-1.3,0.5-2.8-0.2-3.9,0.3C276.8,71.7,259.7,35.7,233.8,12.5
			z"/>
		
			<radialGradient id="SVGID_00000106130485952508222170000002744507183213374636_" cx="207.9395" cy="134.952" r="137.8082" gradientUnits="userSpaceOnUse">
			<stop  offset="0.6873" style="stop-color:#09717C"/>
			<stop  offset="0.7425" style="stop-color:#087984;stop-opacity:0.8747"/>
			<stop  offset="0.8305" style="stop-color:#06919A;stop-opacity:0.6749"/>
			<stop  offset="0.9397" style="stop-color:#02B6BD;stop-opacity:0.427"/>
			<stop  offset="1" style="stop-color:#00CED3;stop-opacity:0.29"/>
		</radialGradient>
		<path style="opacity:0.54;fill:url(#SVGID_00000106130485952508222170000002744507183213374636_);" d="M269.7,35.2
			c-28.4-27.8-38.4-23-45.3-23.3c-7.1-0.3-22.7,2.2-22.7,2.2s-9.3-2.4-16.4-2.2c-7.1,0.3-18.1-4.5-46.5,23.2s-31.1,60.5-30,61.1
			c0.4,0.2,9.8,3.8,12.2,3.5c4.8-0.6,9.2-3.2,14.6-6.9c14-1.7,42.4-4.5,68.2-4.2c0.1,0,0.3,0,0.5,0c0.1,0,0.2,0,0.5,0
			c25.9-0.3,54.2,2.5,68.2,4.2c4.4,0.6,8.6,1.2,12.3,1.7c1.4,0.2,0.8,4.1,2.1,4.3c5.8,0.9,11.7-2.3,12.3-2.6
			C300.8,95.8,298.1,62.9,269.7,35.2z"/>
	</g>
	<g id="Layer_2_00000103244402284868296430000006780940917243089304_">
	</g>
	<g id="Group_198" transform="translate(427.367 696.236) rotate(90)">
		<path id="Path_92" class="st11" d="M-360.4,220.8l3.1,4.6l-3.1,4.6h3.1l3.1-4.6l-3.1-4.6H-360.4z"/>
		<path id="Path_94" class="st11" d="M-354.3,217.2l5.5,8.3l-5.5,8.3h5.5l5.5-8.3l-5.5-8.3H-354.3z"/>
	</g>
</g>
<g id="Layer_4">
</g>
<radialGradient id="SVGID_00000029724283759229105340000011833370382003538067_" cx="203.5419" cy="642.8113" r="187.487" gradientTransform="matrix(1 0 0 1 0 -452)" gradientUnits="userSpaceOnUse">
	<stop  offset="0.4812" style="stop-color:#00DBDB"/>
	<stop  offset="0.5213" style="stop-color:#03C2C8"/>
	<stop  offset="0.5758" style="stop-color:#07A7B3"/>
	<stop  offset="0.6314" style="stop-color:#0994A5"/>
	<stop  offset="0.6882" style="stop-color:#0B899C"/>
	<stop  offset="0.7478" style="stop-color:#0B8599"/>
	<stop  offset="0.7796" style="stop-color:#0B8DA0"/>
	<stop  offset="0.8301" style="stop-color:#0AA5B1"/>
	<stop  offset="0.8929" style="stop-color:#08CACE"/>
	<stop  offset="0.9205" style="stop-color:#07DDDD"/>
</radialGradient>
<path style="fill:url(#SVGID_00000029724283759229105340000011833370382003538067_);" d="M262.2,32.5c-24.9-30.2-33.7-25-39.8-25.3
	c-6.2-0.3-19.9,2.4-19.9,2.4s-8.2-2.6-14.4-2.4c-6.2,0.3-15.9-4.9-40.8,25.2S120,98.2,121,98.8s11.2-1.8,23.5-3.7
	c12.3-1.9,37.2-4.9,59.9-4.6c0.1,0,0.3,0,0.4,0c0.1,0,0.2,0,0.4,0c22.7-0.3,47.6,2.7,59.9,4.6s22.5,4.3,23.5,3.7
	C289.5,98.3,287.1,62.6,262.2,32.5z"/>
</svg>
