<?xml version="1.0" encoding="utf-8"?>
<!-- Generator: Adobe Illustrator 26.5.0, SVG Export Plug-In . SVG Version: 6.00 Build 0)  -->
<svg version="1.1" id="Layer_1" xmlns="http://www.w3.org/2000/svg" xmlns:xlink="http://www.w3.org/1999/xlink" x="0px" y="0px"
	 viewBox="0 0 512 512" style="enable-background:new 0 0 512 512;" xml:space="preserve">
<style type="text/css">
	.st0{fill-rule:evenodd;clip-rule:evenodd;fill:#9800AC;}
	.st1{fill:#9800AC;}
</style>
<g>
	<path class="st0" d="M256,38.3c-122.7,0-222.2,99.5-222.2,222.2c0,98.2,63.7,181.4,151.9,210.8c11.1,2.1,15.2-4.8,15.2-10.7
		c0-5.3-0.2-22.8-0.3-41.4c-61.8,13.4-74.8-26.2-74.8-26.2c-10.1-25.7-24.7-32.5-24.7-32.5c-20.2-13.8,1.5-13.5,1.5-13.5
		c22.3,1.6,34.1,22.9,34.1,22.9c19.8,34,52,24.1,64.7,18.5c2-14.4,7.7-24.2,14.1-29.7c-49.3-5.6-101.2-24.7-101.2-109.8
		c0-24.3,8.7-44.1,22.9-59.6c-2.3-5.6-9.9-28.2,2.2-58.8c0,0,18.7-6,61.1,22.8c17.7-4.9,36.7-7.4,55.6-7.5
		c18.9,0.1,37.9,2.6,55.7,7.5c42.4-28.7,61-22.8,61-22.8c12.1,30.6,4.5,53.2,2.2,58.8c14.2,15.6,22.9,35.4,22.9,59.6
		c0,85.3-52,104.1-101.4,109.6c8,6.9,15.1,20.4,15.1,41.1c0,29.7-0.3,53.6-0.3,61c0,5.9,4,12.8,15.3,10.7
		c88.2-29.4,151.8-112.7,151.8-210.8C478.2,137.8,378.7,38.3,256,38.3z"/>
	<path class="st1" d="M118,357.3c-0.5,1.1-2.2,1.4-3.8,0.7c-1.6-0.7-2.5-2.2-2-3.3c0.5-1.1,2.2-1.5,3.8-0.7
		C117.6,354.7,118.5,356.2,118,357.3L118,357.3z M115.2,355.3"/>
	<path class="st1" d="M127,367.3c-1.1,1-3.1,0.5-4.5-1c-1.5-1.5-1.7-3.6-0.7-4.6c1.1-1,3.1-0.5,4.6,1
		C127.8,364.3,128.1,366.3,127,367.3L127,367.3z M124.9,365.1"/>
	<path class="st1" d="M135.7,380.1c-1.4,0.9-3.6,0.1-5-1.9c-1.4-2-1.4-4.3,0-5.3c1.4-0.9,3.6-0.1,5,1.9
		C137.1,376.8,137.1,379.2,135.7,380.1L135.7,380.1z M135.7,380.1"/>
	<path class="st1" d="M147.7,392.5c-1.2,1.3-3.8,1-5.7-0.9c-1.9-1.8-2.5-4.3-1.3-5.7c1.2-1.3,3.8-1,5.8,0.9
		C148.5,388.6,149,391.2,147.7,392.5L147.7,392.5z M147.7,392.5"/>
	<path class="st1" d="M164.3,399.7c-0.5,1.7-3,2.5-5.6,1.8c-2.5-0.8-4.2-2.8-3.7-4.6c0.5-1.8,3-2.6,5.6-1.8
		C163.2,395.9,164.8,397.9,164.3,399.7L164.3,399.7z M164.3,399.7"/>
	<path class="st1" d="M182.5,401c0.1,1.8-2.1,3.4-4.7,3.4c-2.7,0.1-4.8-1.4-4.8-3.2c0-1.9,2.1-3.4,4.7-3.4
		C180.3,397.7,182.5,399.2,182.5,401L182.5,401z M182.5,401"/>
	<path class="st1" d="M199.4,398.1c0.3,1.8-1.5,3.6-4.1,4.1c-2.6,0.5-5-0.6-5.3-2.4c-0.3-1.8,1.5-3.7,4.1-4.1
		C196.7,395.2,199.1,396.3,199.4,398.1L199.4,398.1z M199.4,398.1"/>
</g>
</svg>
