<?xml version="1.0" encoding="utf-8"?>
<!-- Generator: Adobe Illustrator 19.0.0, SVG Export Plug-In . SVG Version: 6.00 Build 0)  -->
<svg version="1.1" id="layer" xmlns="http://www.w3.org/2000/svg" xmlns:xlink="http://www.w3.org/1999/xlink" x="0px" y="0px"
	 viewBox="-153 -46 652 652" style="enable-background:new -153 -46 652 652;" xml:space="preserve">
<style type="text/css">
	.st0{fill:#FFFFFF;}
</style>
<path d="M34,250.5c-22.2,0-36.4,15-36.4,36.7c0,21.9,14.2,37,36.4,37c22.3,0,36.5-15,36.5-37C70.6,265.6,56.4,250.5,34,250.5z
	 M448.3,300.3c-3.9,14.7-15.4,23.6-31,23.6c-20.7,0-33.2-15.2-33.2-35.6c0-21.2,13.5-36.4,33.5-36.4c20,0,31.3,15.3,31.3,36v2.3
	h-52.9v0.6c0.8,13.9,9.1,23.4,21.1,23.4c7.7,0,15.4-4,18.8-13.9H448.3L448.3,300.3z M257.9,300.3c-3.9,14.7-15.4,23.6-31,23.6
	c-20.7,0-33.2-15.2-33.2-35.6c0-21.2,13.5-36.4,33.5-36.4c20,0,31.3,15.3,31.3,36v2.3h-52.9v0.6c0.8,13.9,9.1,23.4,21.1,23.4
	c7.7,0,15.4-4,18.8-13.9C245.3,300.3,257.9,300.3,257.9,300.3z M143.8,296.9c-1.8,15.6-13.1,27-31.7,27c-20.7,0-33.5-15.3-33.5-36
	c0-20.7,12.8-36,33.5-36c17.8,0,29,10.8,31.3,25.4h-11.6c-1.9-9-8.1-15.7-19.7-15.7c-14.2,0-22.5,11.2-22.5,26.3
	c0,15.2,8.3,26.3,22.5,26.3c12.3,0,18.8-7.4,20.4-17.4C132.5,296.9,143.8,296.9,143.8,296.9z M356.2,231.4v22.1h25.2v9.6h-25.2v36.5
	c0,9,4.8,13.8,13.9,13.8c2.7,0,5.8-0.4,9.2-1.5v10c-2.7,0.9-5.8,1.4-9.2,1.4c-15.4,0-25.2-9.1-25.2-23.7v-36.5h-14.5v-9.6h0.1
	c10.9,0,14.3-3,14.3-12.7v-9.4C344.9,231.4,356.2,231.4,356.2,231.4z M-30,252.3V270c4-11.6,12.3-16.9,24.7-18.1v19.5
	C-23.5,270.9-30,279-30,296v26.3h-19.4v-70H-30z M165.8,253.4v16.8c4.8-10.9,14-16,26.1-17.1v12.3c-17.4-0.1-26.1,8.4-26.1,27.3
	v29.6h-11.3v-68.9H165.8z M-89.9,225.8c20.4,0,33.6,12.7,33.6,30.1c0,17.4-13.2,30.5-33.6,30.5h-20.5v36H-132v-96.5H-89.9z
	 M34,308.6c-11,0-17.4-9-17.4-21.4c0-12.1,6.3-21.1,17.4-21.1c11.2,0,17.5,9,17.5,21.1C51.5,299.6,45.2,308.6,34,308.6z
	 M437.4,281.7c-0.3-11.6-7.4-20.1-20-20.1c-11.9,0-19.2,7.7-21.2,20.1H437.4z M247,281.7c-0.3-11.6-7.4-20.1-20-20.1
	c-11.9,0-19.2,7.7-21.2,20.1H247z M-93.2,270.1c9.9,0,15.7-6.5,15.7-14.2c0-7.4-5.8-13.8-15.7-13.8h-17.1v28
	C-110.4,270.1-93.2,270.1-93.2,270.1z M468,243.1c0,7.8-6,13.5-13.4,13.5c-7.3,0-13.3-5.6-13.3-13.4s6-13.4,13.4-13.4
	C462,229.8,468,235.4,468,243.1z M465.6,243.1c0-6.4-5-11-10.9-11c-5.9,0-11,4.6-11,11c0,6.4,5,11,10.9,11
	C460.5,254.2,465.6,249.6,465.6,243.1z M451.7,249.9h-2.5v-14h7.1c2.7,0,4.5,1.6,4.5,3.8c0,1.9-1.3,3.4-3.2,3.9l3.7,6.3h-2.9l-3.1-6
	h-3.7L451.7,249.9L451.7,249.9z M456.3,238.1h-4.6v3.6h4.4c1.4,0,2.4-0.8,2.4-1.9C458.5,238.8,457.6,238.1,456.3,238.1L456.3,238.1z
	"/>
<path d="M314,280.4v-3c0-9.8-6.2-15.9-16.3-15.9c-9.5,0-15.9,5.2-16.4,13.6H270c0.4-14.3,11-23.3,27.7-23.3
	c16.8,0,27.3,9.8,27.3,25.5v45h-11v-10.9h-0.3c-3.3,5.2-11.7,11.6-24.3,11.6c-13.5,0-22.5-7.6-22.5-19.7c0-13.1,9.8-22.9,37.5-22.9
	C304.5,280.4,314,280.4,314,280.4z"/>
<path class="st0" d="M314,295.8c0,9.5-9.9,18.2-22.1,18.2c-8.5,0-13.9-4-13.9-10.9c0-7.7,6.1-13.8,26.5-13.8h9.5
	C314,289.3,314,295.8,314,295.8z"/>
</svg>
