<?xml version="1.0" encoding="utf-8"?>
<!-- Generator: Adobe Illustrator 26.5.0, SVG Export Plug-In . SVG Version: 6.00 Build 0)  -->
<svg version="1.1" id="layer" xmlns="http://www.w3.org/2000/svg" xmlns:xlink="http://www.w3.org/1999/xlink" x="0px" y="0px"
	 viewBox="0 0 652 142.6" style="enable-background:new 0 0 652 142.6;" xml:space="preserve">
<style type="text/css">
	.st0{fill:#BB00E2;}
</style>
<path class="st0" d="M187,40.7c-22.2,0-36.4,15-36.4,36.7c0,21.9,14.2,37,36.4,37c22.3,0,36.5-15,36.5-37
	C223.6,55.8,209.4,40.7,187,40.7z M601.3,90.5c-3.9,14.7-15.4,23.6-31,23.6c-20.7,0-33.2-15.2-33.2-35.6c0-21.2,13.5-36.4,33.5-36.4
	s31.3,15.3,31.3,36v2.3H549V81c0.8,13.9,9.1,23.4,21.1,23.4c7.7,0,15.4-4,18.8-13.9H601.3L601.3,90.5z M410.9,90.5
	c-3.9,14.7-15.4,23.6-31,23.6c-20.7,0-33.2-15.2-33.2-35.6c0-21.2,13.5-36.4,33.5-36.4s31.3,15.3,31.3,36v2.3h-52.9V81
	c0.8,13.9,9.1,23.4,21.1,23.4c7.7,0,15.4-4,18.8-13.9C398.3,90.5,410.9,90.5,410.9,90.5z M296.8,87.1c-1.8,15.6-13.1,27-31.7,27
	c-20.7,0-33.5-15.3-33.5-36s12.8-36,33.5-36c17.8,0,29,10.8,31.3,25.4h-11.6c-1.9-9-8.1-15.7-19.7-15.7c-14.2,0-22.5,11.2-22.5,26.3
	c0,15.2,8.3,26.3,22.5,26.3c12.3,0,18.8-7.4,20.4-17.4C285.5,87.1,296.8,87.1,296.8,87.1z M509.2,21.6v22.1h25.2v9.6h-25.2v36.5
	c0,9,4.8,13.8,13.9,13.8c2.7,0,5.8-0.4,9.2-1.5v10c-2.7,0.9-5.8,1.4-9.2,1.4c-15.4,0-25.2-9.1-25.2-23.7V53.3h-14.5v-9.6h0.1
	c10.9,0,14.3-3,14.3-12.7v-9.4C497.9,21.6,509.2,21.6,509.2,21.6z M123,42.5v17.7c4-11.6,12.3-16.9,24.7-18.1v19.5
	c-18.2-0.5-24.7,7.6-24.7,24.6v26.3h-19.4v-70H123L123,42.5z M318.8,43.6v16.8c4.8-10.9,14-16,26.1-17.1v12.3
	c-17.4-0.1-26.1,8.4-26.1,27.3v29.6h-11.3V43.6H318.8L318.8,43.6z M63.1,16c20.4,0,33.6,12.7,33.6,30.1S83.5,76.6,63.1,76.6H42.6v36
	H21V16.1h42.1V16z M187,98.8c-11,0-17.4-9-17.4-21.4c0-12.1,6.3-21.1,17.4-21.1c11.2,0,17.5,9,17.5,21.1
	C204.5,89.8,198.2,98.8,187,98.8z M590.4,71.9c-0.3-11.6-7.4-20.1-20-20.1c-11.9,0-19.2,7.7-21.2,20.1H590.4z M400,71.9
	c-0.3-11.6-7.4-20.1-20-20.1c-11.9,0-19.2,7.7-21.2,20.1H400z M59.8,60.3c9.9,0,15.7-6.5,15.7-14.2c0-7.4-5.8-13.8-15.7-13.8H42.7
	v28C42.6,60.3,59.8,60.3,59.8,60.3z M621,33.3c0,7.8-6,13.5-13.4,13.5c-7.3,0-13.3-5.6-13.3-13.4s6-13.4,13.4-13.4
	C615,20,621,25.6,621,33.3z M618.6,33.3c0-6.4-5-11-10.9-11s-11,4.6-11,11s5,11,10.9,11C613.5,44.4,618.6,39.8,618.6,33.3z
	 M604.7,40.1h-2.5v-14h7.1c2.7,0,4.5,1.6,4.5,3.8c0,1.9-1.3,3.4-3.2,3.9l3.7,6.3h-2.9l-3.1-6h-3.7L604.7,40.1L604.7,40.1z
	 M609.3,28.3h-4.6v3.6h4.4c1.4,0,2.4-0.8,2.4-1.9C611.5,29,610.6,28.3,609.3,28.3L609.3,28.3z"/>
<path class="st0" d="M450.7,42c-16.7,0-27.3,9-27.7,23.3h11.3c0.5-8.4,6.9-13.6,16.4-13.6c10.1,0,16.3,6.1,16.3,15.9v3
	c0,0-9.5,0-9.6,0c-27.7,0-37.5,9.8-37.5,22.9c0,12.1,9,19.7,22.5,19.7c12.6,0,21-6.4,24.3-11.6h0.3v10.9h11v-45
	C478,51.8,467.5,42,450.7,42z M467,86c0,9.5-9.9,18.2-22.1,18.2c-8.5,0-13.9-4-13.9-10.9c0-7.7,6.1-13.8,26.5-13.8h9.5
	C467,79.5,467,86,467,86z"/>
</svg>
