<?xml version="1.0" encoding="UTF-8"?><svg id="Layer_2" xmlns="http://www.w3.org/2000/svg" viewBox="0 0 170.47 170.47"><defs><style>.cls-1{fill:#695342;}.cls-2{fill:#f06669;}.cls-3{fill:#ffd77f;}.cls-4{fill:#ffd05d;}.cls-5{fill:#fdc453;}.cls-6{fill:#303030;}</style></defs><g id="Object"><g><g><circle class="cls-4" cx="85.24" cy="85.24" r="85.24" transform="translate(-35.31 85.24) rotate(-45)"/><path class="cls-5" d="m129.83,12.49c8.49,13.25,13.41,29.01,13.41,45.91,0,47.07-38.16,85.24-85.24,85.24-16.35,0-31.62-4.61-44.59-12.59,15.15,23.65,41.66,39.32,71.83,39.32,47.07,0,85.24-38.16,85.24-85.24,0-30.73-16.26-57.65-40.64-72.65Z"/><path class="cls-3" d="m11.58,94.23C11.58,50.52,47.02,15.09,90.72,15.09c25.55,0,48.26,12.11,62.73,30.9C139.79,22.26,114.17,6.29,84.83,6.29,41.12,6.29,5.69,41.72,5.69,85.43c0,18.16,6.12,34.89,16.41,48.24-6.69-11.61-10.52-25.08-10.52-39.44Z"/></g><g><path class="cls-6" d="m60.11,64.56c0,5.85-2.81,10.59-6.28,10.59s-6.28-4.74-6.28-10.59,2.81-10.59,6.28-10.59,6.28,4.74,6.28,10.59Z"/><path class="cls-6" d="m122.92,64.56c0,5.85-2.81,10.59-6.28,10.59s-6.28-4.74-6.28-10.59,2.81-10.59,6.28-10.59,6.28,4.74,6.28,10.59Z"/></g><path class="cls-1" d="m27.96,93.3c3.25,28.76,27.64,51.12,57.28,51.12s54.03-22.36,57.27-51.12H27.96Z"/><path class="cls-2" d="m45.67,128.67c10.32,9.75,24.24,15.74,39.56,15.74s28.04-5.48,38.21-14.5l-.53-1.24c-38.46-18.76-76.72-.26-77.24,0Z"/></g></g></svg>