<?xml version="1.0" encoding="utf-8"?>
<!-- Generator: Adobe Illustrator 27.3.0, SVG Export Plug-In . SVG Version: 6.00 Build 0)  -->
<svg version="1.1" id="Layer_1" xmlns="http://www.w3.org/2000/svg" xmlns:xlink="http://www.w3.org/1999/xlink" x="0px" y="0px"
	 viewBox="0 0 81.4 78" style="enable-background:new 0 0 81.4 78;" xml:space="preserve">
<style type="text/css">
	.st0{display:none;}
	.st1{display:inline;opacity:0.3;}
	.st2{opacity:0.6;enable-background:new    ;}
	.st3{fill:#FFFFFF;}
</style>
<g id="Layer_1_00000181780799196583102720000008274530303114921111_" class="st0">
	<g id="x3imYS_00000106112005221516749860000016685108338455797391_" class="st1">
		
			<image style="overflow:visible;enable-background:new    ;" width="1792" height="1231" id="x3imYS" xlink:href="DD2CF59AB5539E08.jpg"  transform="matrix(0.1016 0 0 0.1051 -32.4701 -20.8616)">
		</image>
	</g>
</g>
<g id="Layer_2_00000014595544960565757390000001750714442734998945_">
	<path class="st2" d="M37.1,4.9c0,0-2.6,2.3-2.4,4.3s5,3.7,5,3.7s-3.7,5.5-0.9,9.5c2.9,4,8.5,0.4,8.5,0.4s-3.7,8.1,1.7,9.3
		c5.4,1.2,8.3-2.2,8-5.1c2.8,3.7,5.5,5.5,7.3,4c1.8-1.4,2.2-6.9,1.2-8.2c3.5,2.2,7.1,2.9,7.4,2.2c0.3-0.6,0-3.7,0-3.7l5.3,1.8
		l-5.7,14.3l-12.4,29l-50-8.4l3.4-46L32.9,0.3L37.1,4.9z"/>
	<g id="Layer_3">
	</g>
	<path class="st3" d="M78.2,23.2c0,0-0.4,2.2-2.5,4.6s-7.1-0.6-7.1-0.6s2.8,6-2.2,9c-4.9,3-8.7-2.8-8.7-2.8s-4.8,5.5-12,3.3
		c-5.1-1.6-5-9.7-5-9.7s-6.4,4.9-9.1-2.3c-2.8-7.3,4.1-11.9,4.1-11.9s-5.4,0.3-6.1-4.8s3.3-7.8,3.3-7.8s-6.8-1-12,1
		C8.9,6,7.7,11.7,4.4,17.2C1.1,22.8-0.8,33,0.3,43.9c1.2,10.8,10.3,24.6,14.8,28.4s15.6,6.1,22.4,5.7s21.1-2.8,27.1-7.3
		s14.2-15,16.1-23.5C82.7,38.6,79.8,24.8,78.2,23.2z M13.6,21.6c1.4-2.4,5.9-4,5.9-4c-1.5,1.4-0.4,1.3-0.4,2.7
		c2.7,2.2,4.2,7.8,4.2,7.8s-1,1-1.7,1.5s-6.3-0.4-7.3-0.5S11.1,27,11.1,27S12.2,24,13.6,21.6z M23.2,48.5c-0.4,1-3.9,2.1-4,1.2
		c-0.1-0.8,1.1-1.7,1.3-2.8s-2.3-0.2-3.1-0.7c-0.8-0.4-0.2-1.5,0-2.8s0.4-3,0.4-3c1.2,0,6.7,0.6,9.5,4.8
		C26.3,44.8,23.6,47.5,23.2,48.5z M31.8,69.2c-2.5,0.1-6-2.1-6-3.1s6.7-5.8,6.7-5.8c1.7,0.2,1.4,2,1.6,2.9c0.2,0.9,3.7,2.4,3.5,3.7
		S34.2,69.1,31.8,69.2z M48.7,58c0,0,0.4-2.3-0.2-3.3c-0.6-1-3.1-4.5-0.8-6s3-4.2,3-4.2s2.6,1.8,3,4.4C54.1,51.5,48.7,58,48.7,58z
		 M66.4,58c-1.1-0.2-1.2,0-2.4,3.3c-1.2-1.8,0-11,0-11c4.6-0.3,7.9,2.4,8.2,3.3C72.5,54.5,67.5,58.2,66.4,58z"/>
</g>
</svg>
