<?xml version="1.0" encoding="UTF-8"?><svg id="Layer_1" xmlns="http://www.w3.org/2000/svg" viewBox="0 0 417.02 264.03"><defs><style>.cls-1{fill:#fff;}</style></defs><path class="cls-1" d="M30.52,0c-4.07,0-7.63,.51-11.19,2.04L198.4,153.63c6.61,5.6,14.75,5.6,20.86,0L397.82,2.04c-3.56-1.53-7.12-2.04-11.19-2.04H30.52ZM.51,25.94c0,1.53-.51,3.05-.51,4.58V234.01c0,4.07,1.02,8.14,2.54,12.21l124.13-112.94L.51,25.94H.51Zm416.13,0l-126.16,106.83,123.62,113.45c1.53-3.56,2.54-7.63,2.54-12.21V30.52c.51-1.53,.51-3.05,0-4.58h0Zm-149.06,126.67l-28.49,24.42c-17.3,14.75-43.24,14.75-60.54,0l-28.49-24.42L27.47,264.03H389.68l-122.09-111.41h0Z"/></svg>