<?xml version="1.0" encoding="UTF-8"?><svg id="Layer_1" xmlns="http://www.w3.org/2000/svg" viewBox="0 0 44.04 45.06"><defs><style>.cls-1{fill:#fff;fill-rule:evenodd;}</style></defs><path class="cls-1" d="M10.8,15.85c.9-1.2,5.11-3.46,3.91-7.52l-2.1-6.02c-1.65-4.51-8.42-1.2-9.48-.3C1.93,3.07,.72,4.12,.43,5.77-3.49,21.86,20.42,47.57,36.81,44.87c1.65-.3,2.85-1.35,3.91-2.4s4.81-7.52,.45-9.48l-5.86-2.56c-3.91-1.35-6.47,2.56-7.81,3.31-7.06-2.71-14.43-10.52-16.68-17.89h0Zm10.97,1.65c-2.26-.15-2.1-3.6,.15-3.46,4.36,.3,8.26,4.36,8.26,8.72-.15,2.26-3.46,2.26-3.46,0,0-2.4-2.56-5.27-4.96-5.27h0Zm22.25,6.48c.3,2.1-3.16,2.56-3.31,.3-1.2-11.43-8.12-18.94-19.39-20.9-2.26-.3-1.65-3.76,.45-3.31,12.93,2.1,21.05,10.82,22.25,23.9h0Zm-6.92-.74c.15,2.26-3.31,2.4-3.46,.15-.45-6.47-5.56-12.03-12.03-12.93-2.26-.3-1.81-3.6,.45-3.31,4.06,.45,7.67,2.4,10.37,5.41h0c2.71,3.01,4.36,6.47,4.66,10.68h0Z"/></svg>