<?xml version="1.0" encoding="UTF-8"?><svg id="Layer_1" xmlns="http://www.w3.org/2000/svg" viewBox="0 0 54.97 54.97"><defs><style>.cls-1{fill:#fff;}</style></defs><path class="cls-1" d="M46.74,7.99C41.6,2.83,34.75,0,27.47,0,12.45,0,.23,12.22,.23,27.24c0,4.8,1.25,9.49,3.63,13.62L0,54.97l14.44-3.79c3.98,2.17,8.45,3.31,13.02,3.31h.01c15.01,0,27.5-12.22,27.5-27.24,0-7.28-3.09-14.11-8.23-19.26ZM27.47,49.9c-4.07,0-8.06-1.09-11.53-3.15l-.82-.49-8.56,2.25,2.28-8.36-.54-.86c-2.27-3.61-3.46-7.77-3.46-12.05C4.83,14.76,14.99,4.6,27.49,4.6c6.05,0,11.73,2.36,16,6.64,4.27,4.28,6.9,9.96,6.88,16.01,0,12.49-10.42,22.65-22.9,22.65Zm12.42-16.96c-.67-.34-4.02-1.99-4.65-2.21-.63-.23-1.08-.34-1.53,.34-.45,.69-1.75,2.21-2.16,2.67-.39,.45-.8,.52-1.47,.17-4-2-6.63-3.57-9.26-8.1-.7-1.2,.7-1.12,2-3.72,.22-.45,.11-.85-.06-1.19s-1.53-3.69-2.1-5.06c-.55-1.33-1.12-1.14-1.53-1.17-.39-.02-.85-.02-1.3-.02s-1.19,.17-1.82,.85c-.63,.69-2.38,2.33-2.38,5.68s2.44,6.59,2.77,7.04c.34,.45,4.8,7.33,11.63,10.28,4.32,1.87,6.01,2.02,8.17,1.71,1.31-.2,4.02-1.64,4.59-3.24s.56-2.96,.39-3.24c-.16-.31-.61-.48-1.29-.81Z"/></svg>