<?xml version="1.0" encoding="UTF-8"?><svg id="Layer_2" xmlns="http://www.w3.org/2000/svg" viewBox="0 0 116.7 116.71"><defs><style>.cls-1{fill:#fff;}.cls-2{opacity:.5;}</style></defs><g id="Layer_2-2"><g id="token" class="cls-2"><path class="cls-1" d="m99.66,17.05C88.57,6.06,73.99,0,58.35,0S28.04,6.06,17.05,17.05C6.06,28.14,0,42.72,0,58.36s6.06,30.31,17.05,41.3c11.08,10.99,25.67,17.05,41.3,17.05s30.22-6.06,41.3-17.05c10.99-11.08,17.05-25.67,17.05-41.3s-6.06-30.31-17.05-41.3h.01ZM6.72,75.59c-1.62-4.9-2.57-10.1-2.74-15.51.67-.29,1.13-.95,1.13-1.73s-.47-1.44-1.13-1.73c.18-5.82,1.27-11.42,3.14-16.66l7.66-.23-5.25-5.47c2.4-4.89,5.5-9.37,9.18-13.31.24.11.5.18.79.18,1.04,0,1.88-.84,1.88-1.88,0-.29-.07-.55-.18-.8,4.08-3.86,8.75-7.1,13.86-9.57l5.64,5.18.22-7.58c4.92-1.7,10.15-2.73,15.6-2.96.14.9.91,1.59,1.85,1.59s1.72-.7,1.86-1.6c5.95.2,11.67,1.35,16.99,3.33v7.46l5.93-4.83c4.64,2.38,8.89,5.4,12.64,8.95-.13.25-.2.53-.2.83,0,1.04.84,1.88,1.88,1.88.3,0,.57-.08.82-.2,3.95,4.24,7.24,9.1,9.69,14.41l-5.1,5.1,7.3.42c1.67,4.96,2.64,10.23,2.79,15.68-.79.22-1.37.94-1.37,1.81s.58,1.57,1.36,1.8c-.2,5.4-1.19,10.61-2.85,15.5l-7.94.84,5.79,4.55c-2.47,5.34-5.78,10.21-9.76,14.45-.23-.1-.47-.15-.73-.15-1.04,0-1.88.84-1.88,1.88,0,.26.05.51.15.73-4.08,3.82-8.73,7.04-13.83,9.48l-6.11-5.27.63,7.52c-5.14,1.8-10.62,2.85-16.33,3.03-.29-.67-.95-1.13-1.73-1.13s-1.44.47-1.73,1.13c-5.82-.18-11.42-1.27-16.65-3.14v-7.65l-5.82,5.18c-4.78-2.37-9.15-5.41-13.02-9,.14-.26.23-.56.23-.88,0-1.04-.84-1.88-1.88-1.88-.32,0-.62.09-.89.23-1.35-1.43-2.62-2.93-3.81-4.49-2.18-2.93-4.07-6.09-5.65-9.43l5.4-5.63-7.82-.43h0Zm13.74,23.24c3.52,3.34,7.48,6.22,11.76,8.56-4.33-2.31-8.31-5.19-11.85-8.52.03-.02.06-.02.09-.04ZM2.98,62.78c.9,10.76,4.88,20.67,11.06,28.83,1.2,1.61,2.49,3.15,3.85,4.62-.02.03-.03.07-.05.11-8.38-8.93-13.84-20.63-14.86-33.56Zm-.13-2.05c.02.42.04.83.07,1.25-.03-.42-.05-.83-.07-1.25Z"/><path class="cls-1" d="m84.84,31.87c-7.11-7.05-16.46-10.93-26.48-10.93s-19.44,3.89-26.48,10.93c-7.05,7.11-10.93,16.46-10.93,26.48s3.89,19.44,10.93,26.48c7.11,7.05,16.46,10.93,26.48,10.93s19.38-3.89,26.48-10.93c7.05-7.11,10.93-16.46,10.93-26.48s-3.89-19.44-10.93-26.48Zm-28.42-9.09h.11-.11Zm.11,71.16h-.13.13ZM24.42,58.36c0-18.71,15.22-33.93,33.93-33.93s33.93,15.22,33.93,33.93-15.22,33.93-33.93,33.93-33.93-15.22-33.93-33.93ZM60.18,22.77h.13-.13Zm.39,71.14c-.14,0-.27.02-.41.03.14,0,.27-.02.41-.03Zm1.71-.14c-.1.01-.21.03-.31.04.11-.01.21-.03.31-.04Zm1.6-.21s-.08.01-.12.02c.04,0,.08-.01.12-.02ZM22.78,56.4v.13-.13Zm0,3.89v-.11.11Zm71.15.02v-.13.13Zm0-3.89v.11-.11Z"/></g></g></svg>