<?xml version="1.0" encoding="utf-8"?>
<!-- Generator: Adobe Illustrator 27.3.1, SVG Export Plug-In . SVG Version: 6.00 Build 0)  -->
<svg version="1.1" id="Layer_2_00000057121355559740485830000004148066066364225182_"
	 xmlns="http://www.w3.org/2000/svg" xmlns:xlink="http://www.w3.org/1999/xlink" x="0px" y="0px" viewBox="0 0 159.8 159.8"
	 style="enable-background:new 0 0 159.8 159.8;" xml:space="preserve">
<style type="text/css">
	.st0{fill:#FFFFFF;}
	.st1{opacity:0.5;fill:#FFFFFF;enable-background:new    ;}
</style>
<g id="vector">
	<path class="st0" d="M79.9,3.6c-3.5,0-6.1,2.7-6.1,6.1s2.7,6.1,6.1,6.1S86,13,86,9.8C86,6.3,83.4,3.6,79.9,3.6z M79.9,4.2
		c2.2,0,4.1,1.3,4.9,3.3c-1-1.3-2.7-2.2-4.6-2.2c-2.9,0-5.3,2-5.6,4.6c0-0.1,0-0.2,0-0.3C74.6,6.6,77,4.2,79.9,4.2L79.9,4.2z"/>
	<path class="st0" d="M34.8,25.8c-2.4-2.4-6.4-2.4-8.8,0s-2.4,6.4,0,8.8c1.1,1.3,2.7,1.9,4.3,1.9c0,0,0.1,0,0.1,0c0,0,0.1,0,0.2,0
		c1.6,0,3-0.7,4-1.7c0.1,0,0.1-0.1,0.2-0.2C37.2,32.2,37.2,28.2,34.8,25.8z M26.6,26.6c1.1-1.1,2.4-1.6,3.7-1.6c1,0,2,0.3,2.9,0.9
		c-0.8-0.4-1.7-0.6-2.6-0.6c-3,0-5.4,2.3-5.6,5.2C24.9,29.1,25.5,27.7,26.6,26.6z"/>
	<circle class="st0" cx="9.8" cy="79.9" r="6.1"/>
	<path class="st0" d="M35.1,125.9c-0.3-0.5-0.8-0.9-1.2-1.3c-0.6-0.5-1.3-0.8-2-1c-0.5-0.1-1-0.2-1.5-0.2c0,0,0,0-0.1,0
		c0,0,0,0-0.1,0c-1.6,0-3.2,0.8-4.3,1.9c-1.3,1.1-1.9,2.7-1.9,4.3c0,1.6,0.8,3.2,1.9,4.3c1.1,1.3,2.7,1.9,4.3,1.9s3.2-0.5,4.3-1.9
		c1.3-1.1,1.9-2.7,1.9-4.3C36.4,128.2,35.9,126.9,35.1,125.9L35.1,125.9z M26.6,133.2c-0.6-0.6-1-1.3-1.3-2c0.9,2,2.8,3.4,5.1,3.4
		c1.2,0,2.3-0.4,3.2-1c-1,0.8-2.1,1.2-3.3,1.2C29,134.8,27.6,134.3,26.6,133.2L26.6,133.2z"/>
	<circle class="st0" cx="79.9" cy="150" r="6.1"/>
	<path class="st0" d="M133.5,125.8c-1.1-1.3-2.7-1.9-4.3-1.9s-3.2,0.8-4.3,1.9c-2.4,2.4-2.4,6.4,0,8.8c1.1,1.3,2.7,1.9,4.3,1.9
		c1.2,0,3-0.6,4.4-2.1c1.2-1.3,1.8-3.1,1.8-4.3C135.3,128.4,134.5,126.8,133.5,125.8L133.5,125.8z"/>
	<ellipse transform="matrix(0.9871 -0.1602 0.1602 0.9871 -10.8595 25.1142)" class="st0" cx="150.3" cy="79.9" rx="6.1" ry="6.1"/>
	<path class="st0" d="M134,25.8c-2.4-2.4-6.4-2.4-8.8,0s-2.4,6.4,0,8.8c1.1,1.3,2.7,1.9,4.3,1.9s3.2-0.8,4.5-1.9
		C136.4,32.2,136.4,28.2,134,25.8z"/>
	<path class="st1" d="M79.9,0C35.8,0,0,35.8,0,79.9s35.8,79.9,79.9,79.9s79.9-35.8,79.9-79.9S123.9,0,79.9,0z M79.9,156
		c-42,0-76.1-34.1-76.1-76.1S37.9,3.8,79.9,3.8c20.3,0,39.3,7.9,53.7,22.3C148.1,40.4,156,59.6,156,79.9
		C156,121.9,121.9,156,79.9,156z"/>
</g>
</svg>
