<?xml version="1.0" encoding="UTF-8"?><svg id="Layer_2" xmlns="http://www.w3.org/2000/svg" viewBox="0 0 159.8 159.79"><defs><style>.cls-1{fill:#710000;}.cls-2{fill:#fff;opacity:.5;}</style></defs><g id="vector"><path class="cls-1" d="m79.9,3.63c-3.47,0-6.13,2.67-6.13,6.13s2.67,6.13,6.13,6.13,6.13-2.93,6.13-6.13c0-3.47-2.67-6.13-6.13-6.13Zm0,.53c2.2,0,4.1,1.35,4.91,3.27-1.01-1.32-2.71-2.19-4.63-2.19-2.91,0-5.3,1.99-5.59,4.55,0-.1-.03-.19-.03-.29,0-2.93,2.4-5.33,5.33-5.33Z"/><path class="cls-1" d="m34.83,25.77c-2.4-2.4-6.4-2.4-8.8,0s-2.4,6.4,0,8.8c1.07,1.33,2.67,1.87,4.27,1.87.04,0,.09,0,.13,0,.05,0,.1,0,.16,0,1.58,0,3.01-.66,4.03-1.71.07-.05.14-.11.21-.16,2.4-2.4,2.4-6.4,0-8.8Zm-8.27.8c1.07-1.07,2.4-1.6,3.73-1.6,1.01,0,2.01.3,2.9.91-.78-.41-1.67-.65-2.61-.65-2.98,0-5.42,2.32-5.6,5.25-.05-1.39.47-2.8,1.58-3.91Z"/><circle class="cls-1" cx="9.77" cy="79.9" r="6.13"/><path class="cls-1" d="m35.11,125.86c-.34-.51-.76-.95-1.24-1.32-.59-.48-1.26-.8-1.98-.98-.47-.12-.95-.2-1.46-.2-.02,0-.04,0-.06,0-.02,0-.05,0-.07,0-1.6,0-3.2.8-4.27,1.87-1.33,1.07-1.87,2.67-1.87,4.27s.8,3.2,1.87,4.27c1.07,1.33,2.67,1.87,4.27,1.87s3.2-.53,4.27-1.87c1.33-1.07,1.87-2.67,1.87-4.27,0-1.31-.54-2.61-1.32-3.63Zm-8.55,7.37c-.6-.6-1.01-1.29-1.28-2.01.87,1.97,2.84,3.35,5.14,3.35,1.17,0,2.26-.36,3.16-.97-.98.81-2.13,1.24-3.3,1.24-1.33,0-2.67-.53-3.73-1.6Z"/><circle class="cls-1" cx="79.9" cy="150.03" r="6.13"/><path class="cls-1" d="m133.46,125.76c-1.07-1.33-2.67-1.87-4.27-1.87s-3.2.8-4.27,1.87c-2.4,2.4-2.4,6.4,0,8.8,1.07,1.33,2.67,1.87,4.27,1.87,1.21,0,2.98-.6,4.35-2.08,1.19-1.27,1.78-3.1,1.78-4.32,0-1.6-.8-3.2-1.87-4.27Z"/><circle class="cls-1" cx="150.3" cy="79.9" r="6.13" transform="translate(-10.86 25.11) rotate(-9.22)"/><path class="cls-1" d="m134.03,25.77c-2.4-2.4-6.4-2.4-8.8,0s-2.4,6.4,0,8.8c1.07,1.33,2.67,1.87,4.27,1.87s3.2-.8,4.53-1.87c2.4-2.4,2.4-6.4,0-8.8Z"/><path class="cls-2" d="m79.9,0C35.84,0,0,35.84,0,79.9s35.84,79.9,79.9,79.9,79.9-35.84,79.9-79.9S123.95,0,79.9,0Zm0,156C37.94,156,3.8,121.86,3.8,79.9S37.94,3.8,79.9,3.8c20.26,0,39.35,7.91,53.74,22.26,14.42,14.38,22.36,33.5,22.36,53.84,0,41.96-34.14,76.1-76.1,76.1Z"/></g></svg>