<?xml version="1.0" encoding="UTF-8"?><svg id="Layer_2" xmlns="http://www.w3.org/2000/svg" viewBox="0 0 3180.91 3228.44"><defs><style>.cls-1{fill:#010101;}.cls-2{fill:#010102;}.cls-3{fill:#010203;}.cls-4{fill:#010202;}.cls-5{fill:#020204;}.cls-6{fill:#fefefe;}.cls-7{fill:#989898;}.cls-8{fill:#c2c3c3;}.cls-9{fill:#ccced3;}.cls-10{fill:#c3c3c3;}.cls-11{fill:#c5c5c6;}.cls-12{fill:#090909;}.cls-13{fill:#080e1a;}.cls-14{fill:#0f1a2d;}.cls-15{fill:#0f192c;}.cls-16{fill:#0e1628;}.cls-17{fill:#646d80;}.cls-18{fill:#2a3856;}.cls-19{fill:#2b3a58;}.cls-20{fill:#2b3957;}.cls-21{fill:#636c7f;}.cls-22{fill:#293754;}.cls-23{fill:#293855;}.cls-24{fill:#2e3c59;}.cls-25{fill:#38445e;}.cls-26{fill:#3c424f;}.cls-27{fill:#3c4760;}.cls-28{fill:#5f687d;}.cls-29{fill:#5f6779;}</style></defs><g id="Layer_1-2"><g id="_9PC6HC.tif"><g><path class="cls-6" d="M3180.53,1614.22c0,532.01-.07,1064.03,.38,1596.04,.01,14.89-3.28,18.18-18.18,18.18-1048.18-.42-2096.37-.42-3144.55,0-14.89,0-18.19-3.27-18.18-18.17C.41,2146.24,.41,1082.21,0,18.18,0,3.3,3.27,0,18.17,0,1066.36,.42,2114.54,.42,3162.72,0c14.88,0,18.2,3.26,18.19,18.17-.46,532.02-.38,1064.03-.38,1596.05Z"/><path class="cls-13" d="M415.45,2179.54c-17.75,.66-35.55,.68-53.23,2.13-37.19,3.04-60.76-10.48-79.47-45.54-83.99-157.38-164.04-316.69-231.13-481.89-14.48-35.65-26.41-72.56-43.57-107.42-5.11-10.38-12.17-26.08,12.07-23.14,5.48,1.43,9.48,4.64,11.25,10.08,25.59,78.55,78.46,140.99,123.11,208.26,7.27,10.95,14.68,21.85,23.04,32.06,4.13,8.64,7.88,17.53,16.07,23.42,9.95,2.55,15.54,11.69,25.24,17.72,4.94-20.48,7.18-39.9,10.87-59.02,45.63-236.21,89.2-472.82,136.18-708.77,4.25-21.34,8.25-42.77,14.5-63.6,6.52-21.77,5.97-42.71-2.62-63.77-21.89-53.67-41.47-108.4-72.9-157.66-10.91-17.1-13.88-36.8-18.02-56.12,.25-6.18,3.14-10.14,9.42-11.26,21.97,9.77,35.05,29.87,33.52,51.47-5.06,9.05-.45,16.57,4.11,23.83,29.75,47.32,55.52,97.48,88.3,142.42,29.53,40.5,38.51,83.98,38.68,131.06,.27,76.24,8.67,151.84,15.61,227.57,1.54,16.81-2.73,34.35,6.35,50.21,1.68,5.75,2.06,11.68,2.07,17.61,.04,86.92,6.1,173.73,4.25,260.71-1.5,70.54,8.48,140.54,12.31,210.84,.56,10.18,5.01,19.01,10.79,27.22,17.45,24.8,36.91,48.08,54.56,72.72,6.92,9.66,12.58,10.6,17.95-1.52,41.1-92.83,89.45-182.12,133.63-273.45,8.31-17.18,11.17-36.64,21.87-52.87,4.6-5.7,7.04-12.69,11.25-18.6,4.09-5.73,9.29-9.66,16.69-7.99,8.29,1.86,11.28,8.25,12.32,16,1.09,8.14-1.23,15.76-3.86,23.19-17.14,48.5-27.79,98.7-39.98,148.54-6.65,27.18-5.39,53.07,2.31,79.78,16.14,56.01,41.68,108.15,63.98,161.64,5.84,14.02,16.76,17.75,29.99,17.84,69.81,.45,139.53,4.25,209.34,5.44,73.61,1.26,147.28,5.59,220.88,9.35,33.44,1.71,66.79,5.37,100.35,1.24,18.44-2.27,25.04-7.36,26.32-25.5,3.37-47.97,6.73-96.13,13.72-143.51,5.87-39.79,6.42-79.84,12.17-119.45,1.81-12.45,2.38-24.91,2.34-37.44-.03-10.54-.41-21.11,.33-31.63,1-14.25,3.22-30.35,19.58-32.73,17.74-2.59,21.67,14.44,25.61,27.37,11.35,37.22,21.26,74.75,22.95,114.02,.82,19.16,5.72,37.9,11.22,56.13,7.62,25.25,15.71,50.25,17.92,76.75,.43,5.22,1.69,11.04,5.14,14.81,30.82,33.64,31.02,78.61,44.36,118.67,9.12,27.42,12.55,56.42,22.64,83.61,2.3,6.2,4.61,12.34,9.02,17.4,4.18,6.01,7.67,12.69,8.77,19.73,3.91,25.08,20.05,32.96,43.27,37.46,64.64,12.53,128.44,29.03,192.29,45.22,136.66,34.67,274.86,62.46,412.91,90.86,9.66,1.99,19.48,3.41,29.4,2.23,34.93-2.33,61.98-22.44,87.28-42.91,53.1-42.97,46.07-28.21,16.09-85.93-45.28-87.16-86.19-176.27-123.52-267.11-47.07-114.55-90.7-230.42-134.18-346.34-9.48-25.27-16.51-51.38-31.33-74.46-7.34-11.44-15.33-18.35-30.26-17.37-17.29,1.13-23.49-6.43-23.24-23.83,.35-24.52,9.25-35.76,35.72-46.06,9.71-3.78,25.4-3.32,27.72-12.16,2.76-10.55-13.63-13.06-20.58-20.37-10.61-11.16-17.63-24.56-26.03-37.13-17.64-26.36-32.61-54.18-46.19-82.78-4.54-9.57-9.08-19.32-3.02-30.04,13.31-7.19,17.57,4.47,22.7,11.86,20.28,29.22,39.99,58.84,59.3,88.71,9.61,14.88,21.02,26.93,38.27,32.5,13.23,4.28,21.76,14.29,23.74,26.94,9.54,61.03,52.17,103.88,83.08,153.01,65.52,104.14,140.08,202.65,195.05,313.38,4.11,8.29,8.97,16.11,15.35,22.9,4.28,3.12,7.78,5.98,13.97,2.24,38.77-23.38,47.33-43.9,37.7-88.94-8.61-40.26,3.81-74.92,34.28-101.12,28.69-24.67,37.23-53.76,26.22-88.35-22.2-69.71-33.14-142.32-55.77-211.92-6.73-20.71,2.15-40.6,10.89-58.66,7.4-15.27,22.69-15.19,38.43-1.72,22.59,19.34,41.85,41.92,60.06,65.31,49.73,63.87,97.64,128.95,139.62,198.4,28.93,47.87,62.19,93,95.74,137.82,37.12,49.59,30.37,72.88-27.27,96.37-16.46,6.71-33.04,13.11-52.46,21.05,34.13-1.63,64.64-10.15,95.89-8.53,7.85,.41,17.5-2.52,21.78,8.12-4.44,7.24-12.27,6.9-19.16,8.45-36.02,8.11-72.89,11.31-109.03,18.75-11.42,2.35-23.23,3.79-35.29,10.61,6.92,5.75,13.29,3.55,19.17,2.73,66.52-9.24,133.64-14.01,199.67-26.9,8.23-1.61,17.04-3.99,23.96,3.84-10.72,7.07-.64,11.1,2.88,14.58,61.7,60.93,108.69,135.57,177.14,190.18,26.79,21.38,30.19,45.86,14.3,76.42-19.97,38.42-33.48,80.52-55.95,117.25-56.31,92.06-59.63,187.99-30.53,288.37,8.4,29,15.07,58.5,22.54,87.76,3.56,36.36-4.39,44.11-39.52,40.42-45.25-4.75-90.66-4.06-136.05-2.32-31.07,1.19-61.89-1.4-92.55-6.17-20.67-3.22-39.9-.2-59.81,7.28-84.55,31.81-165.25,72.68-249.76,104.6-44.26,16.72-85.72,18.47-132.24,2.72-176.59-59.81-351.46-124.62-529.35-180.7-75.37-23.76-149.8-50.71-224.85-75.61-29.6-9.82-56.58-25.06-84.49-38.37-13.57-6.47-21.11-19.59-28.19-32.32-7.68-13.83-15.73-27.42-23.81-41.02-7.65-12.88-17.98-18-32.63-17.37-108.83,4.7-216.94-9.83-325.53-13.04-97.27-2.88-194.45-12.39-290.8-28.29-36.34-6-73.3-8.23-109.81-13.53-7.9-1.15-15.68-2.02-22.48-6.59-22.86-1.12-45.9-4.58-68.54-2.82-38.17,2.97-64.31-12.22-81.96-45.03-3.04-5.66-7.51-10.55-11.32-15.8-10.32-6.6-16.33-16.77-21.86-27.14-14.18-26.58-32.63-50.4-48.6-75.82-6.69-10.65-15.71-15.47-28.12-12.47-13.47,3.25-27.07-4.89-40.45,.74Z"/><path class="cls-7" d="M716.3,2357.87c61.79,3.04,122.72,13.39,183.89,21.61,87.45,11.76,175.35,19.65,263.46,21.9,105.94,2.7,211.43,17.61,317.64,11.5,7.17-.41,10.77,3.24,14.02,8.59,4.79,7.87,11.58,14.98,14.51,23.45,19.99,57.85,69.61,77.87,120.92,95.36,209.7,71.48,419.52,142.6,629.29,213.88,51.63,17.55,103.38,34.78,154.79,52.96,33.65,11.9,65.32,3.7,96.01-8.73,88.98-36.05,177.73-72.73,266.05-110.37,23.8-10.14,46.51-5.03,69.52-1.35,62.3,9.96,124.96-2.72,187.25,3.92,7.83,.83,15.8,.62,23.58,1.78,34.97,5.2,41.27,.05,40.96-34.2,5.89,13.03,6.55,25.8,.85,39.44-34.12,81.74-68,163.57-101.53,245.55-4.8,11.74-12.21,18.96-23.49,24.69-159.95,81.26-319.77,162.76-479.29,244.85-14.34,7.38-26.23,7.15-40.9,1.89-294.9-105.65-589.41-212.42-885.24-315.39-121.73-42.37-246.36-76.38-369.68-114.16-9.44-2.89-18.38-6.15-26.04-13.09-141.57-128.25-283.31-256.32-424.96-384.48-10.7-9.68-21.06-19.72-31.58-29.6Z"/><path class="cls-16" d="M2013.73,1245.9c-2.82,22.27,10.4,39.45,20.55,56.43,22.92,38.32,37.38,83.43,80.43,106.87,3.55,1.93,7.62,7.15,7.47,10.67-.26,6.24-7.39,3.04-11.13,4.84-23.66,11.45-58.95,7.87-61.58,46.85-1.06,15.72-.26,28.76,22.27,21.38,12.21-4,20.94,3.11,27,14.29,34.91,64.43,54.45,134.94,80.83,202.74,49.29,126.72,96.93,254.17,155.75,376.91,24.96,52.08,46.76,105.91,79.32,154.14,3.92,5.81,5.07,14.61,.48,18.6-38.41,33.39-74.48,71.01-128.81,78.29,9.07-31.44-.91-60.6-10.04-90.15-25.1-81.22-51.75-161.87-83.85-240.66-26.12-64.13-58.73-125.22-86.7-188.47-6.53-14.77-16-29.06-7.63-46.82,2.96-6.28-2.41-12.55-5.62-18.24-36.11-64.15-59.6-133.31-81.02-203.31-6.86-22.4-7.8-45.25-7.65-68.41,.15-22.89-2.77-28.18-24.84-29.72-27.55-1.93-41.93-17.95-54.66-39.42-62.76-105.79-115.27-216.08-149.64-334.55-5.16-17.78-9.02-19.7-20.45-10.5-79.55,64.05-163.18,122.7-243.79,185.32-24.61,19.12-41.7,46.99-68.36,64.73-9.87,6.57-6.21,17.88-4.23,27.51,15.81,76.8,29.47,154,43.74,231.09,25.3,136.69,54.35,272.65,80.93,409.09,8.29,42.55,17.99,85.06,30.26,126.82,2.65,9.04,8.39,18.47,1.33,28.19-21.38-19.88-18.61-48.78-26.63-73.5-10.29-31.75-16.5-64.8-25.42-97.03-4.14-14.96-8.54-29.51-22.37-40.51-7.03-5.59-9.57-18.36-11.66-28.4-16.49-79.17-32.07-158.53-48.78-237.65-2.56-12.12-4.5-31.92-19.29-30.45-17.32,1.71-15.68,21.15-15.63,35.66,.25,72.2-10.21,143.42-18.82,214.86-4.31,35.72-7.27,71.71-8.43,107.66-.78,23.94-9.63,34.53-34.17,34.81-148.76,1.73-296.95-14.98-445.78-13.24-28.5,.33-57.63-2.1-86.47-2.68-13.55-.27-25.9-3.39-31.16-16.44-25.94-64.41-59.14-126.04-73.07-195.13-3.6-17.84-.9-34.19,2.99-50.44,12.34-51.62,23.61-103.57,41.56-153.73,3.96-11.07,12.58-26.99-2.52-33.15-14.43-5.88-13.63,13.76-20.51,21.26-1.32,1.44-2.72,2.8-4.08,4.2-4.35-4.38-3.75-9.63-1.98-14.64,18.23-51.67,36.92-103.16,59.53-153.12,6.77-9.22,11.43-19.33,12.67-30.84,1.24-7.09,3.09-14.12,6.36-20.45,8.38-16.21,9.57-32.14-.11-48.18,1.45-12.01-1.64-22-12.57-28.63-1.66-1.01-3.47-2.3-4.32-3.96-21.85-42.93-63.92-68.03-92.71-105.09-20.31-26.15-45.78-48.33-74.87-65.4-18.98-13.91-36.13-29.91-53.56-45.67-37.74-34.13-72.03-72.09-113.38-102.22-4.23-3.93-7.68-8.39-9.48-13.96,.08-17.66-11.26-27.89-24.26-37.04-13.75-14.07-21.54-32.01-31.48-48.53-2.67-4.45-3.99-9.63-.3-14.55,19.01,.55,31.18,12.75,41.88,26.09,9.42,11.75,21.14,18.91,34.51,25.35,82.9,39.93,170.56,66.55,258.09,93.6,15.89,4.91,29.86,12.39,43.1,23.05,21.81,17.57,49.53,24.13,75.09,34.46,28.11,11.36,57.81,18.18,86.56,27.83,28.24,9.49,62.97-14.27,61.4-43.66-1.48-27.78,6.2-52.31,18.45-75.69,6.91-13.18,4.18-19.78-7.51-27.05-46.42-28.87-93.28-57.03-139.67-85.95-50.87-31.72-102.61-61.99-149.27-99.94-5.76-4.68-13.01-6.35-19.24-9.91-12.31-7.04-26.19-13.14-26.32-30.77,4.22-3.08,8.9-2.45,13.24-.89,33.62,12.07,60.16-1.62,84.66-22.97,7.38-6.43,13.21-14.85,23.19-17.94,3.07-.57,5.99-.19,8.72,1.36,5,9.69-3.48,13.85-8,19.63-9.97,6.97-19.17,15-28.79,22.49-5.77,4.49-9.33,9.46-1.12,15.15,65.34,43.14,130.78,86.05,196.76,128.15,29.41,18.76,57.11,39.98,86.53,58.69,4.98,3.16,9.84,6.73,11.49,13.01,.43,15.05-5.42,28.59-11.85,41.39-10.79,21.49-17.78,43.86-21.39,67.51-4.51,29.53-16.95,53.8-45.07,67.83-9.13,4.56-17.33,11.81-18.78,21.85-5.19,36.07-30.53,58.91-53.43,83.05-15.89,16.75-30.45,34.63-46.19,51.47-4.57,4.89-12.73,11.51-6.24,18.3,6.24,6.52,14.25,.22,18.62-5.13,21.64-26.5,47.46-49.08,68.17-76.66,26.59-35.41,58.54-64.82,94.4-92.6,54.19-41.98,110.36-38.34,169.85-29.86,51.65,7.37,103.81,5.84,155.55,10.92,24.23,2.38,48.67,3.11,72.55,8.15,5.3,1.12,16.62-.07,10.38,12.17-3.55,1.98-7.39,3.06-11.34,3.04-60.38-.29-120.75,2.28-181.16-1.74-46.49-3.1-93.04-4.93-139.35-10.46-14.84-1.77-26.58,6.5-37.67,14.66-18.04,13.27-36.14,26.36-57.06,34.73-10.79,4.32-15.65,13.41-20.73,22.57-13.4,13.31-32.16,22.59-34.02,44.75-7.93,14.84-21.91,24.33-32.52,36.81-6.24,7.33-13.64,13.99-16.45,23.75,7.2,4.52,13.69,1.71,19.9,.71,189.59-30.69,380-55.81,570.18-82.38,22.35-3.12,40.04-11.58,53.23-29.66,12.32-16.91,29.55-29.9,40.22-49.88-15.91-8.83-34.71,1.79-49.37-8.67-5.61-19.79-20.63-26.32-39.17-30.87-100.34-24.61-200.68-49.06-302.5-67.04-20.15-3.56-40.66-3.23-60.65-7.68-21.76-4.85-27.28-12.68-23.43-34.97,3.6-20.8,12.01-40.4,15.87-61.09,3.47-18.55-.16-22.52-19.47-25.2-7.74-1.14-12.66-6.42-17.38-12-41.98-49.69-84-99.34-126.01-149-5.29-6.26-12.29-12.56-6.79-22.35,11.54-3.67,19.9-9.33,25.19-21.9,7.47-17.75,24.81-21.97,43.13-11.56,21.09,11.99,43.01,22.62,63.02,36.45,8.81,6.09,18.22,10.21,28.82,11.93,14.57,2.36,26.37,.64,28.31-17.41,8.92-3.34,14.98,2.46,21.26,6.92,11.2,7.96,22.15,16.3,33.02,24.71,10.54,8.16,21.39,14.59,35.4,15.11,6.01,.22,15.55-.52,13.27,11.1-2.22,2.52-5.15,4.04-7.84,5.94-11.38,8.05-11.19,14.39,.88,21.24,8.76,4.97,18.79,5.81,28.48,7.6,49.19,9.06,98.8,15.6,148.06,24.32,68.1,12.06,134.18,33.92,202.71,43.39,79.17,10.94,153.35,41.98,231.87,55.32,17.45,2.96,34.21,10.19,47.91,22.21,4.86,4.26,13.22,7.98,7.78,17.32-26.43,5.31-52.47-1.74-78.25-4.46-93.86-9.87-187.85-12.27-282.04-10.61-58.73,1.04-117.05-2.99-175.26-10.65-25.5-3.35-51.56-3.24-76.94-.68-36.98,3.72-74.66,0-111.31,10.21,10.74,5.35,22.36,6.05,33.68,7.91,94.91,15.66,191.16,20.72,286.08,36.31,78.01,12.81,156.44,22.42,234.88,32.13,14.66,1.82,27.26,.11,38.83-9.26,5.1-4.13,10.85-7.47,16.68-10.55,26.3-13.86,43.2-10.88,58.24,14.93,12.93,22.19,29.04,32.21,55.16,33.39,37.34,1.68,74.22,9.95,113.77,14.54-6.46-18.24-25.76-24.66-30.29-41.38,.6-8.74,7.37-7.39,11.13-4.74,26.14,18.38,49.27,8.43,72.21-6.46,3.83-2.49,8.21-3.92,12.91-4,4.68,.14,8.88,1.93,13.16,3.67,35.18,14.32,70.95-6.03,71.15-43.47,.16-28.8,.97-56.7,7.67-85.01,4.93-20.8-1.16-42.61-15.97-58.79-24.5-26.76-30.01-62.16-45.42-92.98-1.23-2.46-.17-5.09,1.89-7.1,4.81-3.27,10.22-3.5,15.73-3.22,20.33,4.45,41.28,1.12,61.63,4.82,10.97,4.58,16.21,14.78,22.38,23.84,21.34,31.33,41.35,63.59,60.88,96.01,15.47,25.68,39.16,43.27,57.12,66.18,7.76,3.87,11.88,11.7,18.83,18.65,9.85-12.23,11.32-26.71,16.17-39.62,5.04-13.4,8.07-27.63,14.43-40.46,5.91-11.9,2.99-19.61-8.25-25.31,1.14-13.81,1.73-27.85,16.2-35.55,4.45,15.64,14.17,3.08,19.13,1.93,39.45-9.13,104.99,25.3,113,60.71-8.42,32.56-21.55,63.39-34.62,94.24-1.29,3.04-2.92,6.29-5.59,8.04-26.19,17.2-28.92,45.47-34.16,72.4-1.79,9.21-2.12,18.89-12.66,22.61-11.47,4.05-20.4-1.23-28.33-9.08-7.56-7.49-12.54-16.88-18.91-25.25-1.79-2.34-4.33-5.96-7.69-2.15-1.69,1.92-.65,5.07-.36,7.69,.61,4.53,.7,9.14,2.99,13.32,26.73,48.82,54.18,97.15,94.24,136.8,66.53,86.65,129.89,175.75,199.21,260.21,36.71,44.73,77.28,86.53,104.71,138.06,48.16,90.48,111.37,170.76,170.28,253.96,28.06,39.62,27.49,41.9-20.87,50.25-15.56,2.69-31.15,5.23-46.75,7.74-7.78,1.26-15.78,2.86-22.29-3.77-40.25-2.34-79.67,5.21-119.29,10.23-4.47,.57-10.44,3.58-12.39-1.35-2.87-7.27,4.67-7.61,9.27-9.51,24.9-10.28,50.21-19.69,74.56-31.14,31.93-15.01,37.32-34.09,17.47-63.13-32.96-48.23-68.96-94.47-100.28-143.71-57.8-90.88-117.52-180.17-191.43-258.96-9.9-10.55-20.04-31.38-37.42-20.91-19.15,11.53-23.58,38.68-18.05,56.09,22.07,69.56,31.86,142.2,55.71,211.16,15.35,44.39,4.1,75.34-31.83,104.18-20.96,16.82-38.14,61.79-27.08,94.94,12.72,38.12-9.21,83.9-46.53,98.19-3.4,1.3-10.39-6.81-15.72-10.55,9.56-10.51,9.08-20.73,3.21-33.88-37.57-84.15-76.84-167.58-111.86-252.81-37.02-90.1-69.63-182.03-110.3-270.63-25.81-56.23-54.43-111.15-78.76-168.07-6.18-14.46-16.6-18.81-32.03-21.14-45.54-6.87-90.64,.26-135.92,.67-13.92,.12-16.11,5.58-9.13,16.87,11.1,17.92,23.39,35.05,34.61,52.88,4.41,7.01,11.3,13.31,9.07,23.03Z"/><path class="cls-17" d="M1190.57,13c46.24,13.89,87.08,38.92,127.25,64.4,114.6,72.7,240.68,122.18,365.03,173.05,87.39,35.75,154.77,89.65,214.25,158.68,4.88,5.67,11.54,9.8,17.37,14.65-4.14,8.82,3.95,11.72,8.3,15.64,45.59,41.07,80.08,90.39,108.3,144.44,10.48,20.09,15.35,41.91,18.9,63.97,1.37,8.55,.09,17.92-10.03,21.28-9.58,3.18-14.41-3.52-18.27-10.95-1.65-9.54-9.25-17.3-8.42-27.59,4.06-51.56-24.83-85.7-67.01-111.96-13.06-8.13-27.45-15.69-43.78-17.3-8.69-.86-17.1-.96-25.33,2.04-14.28,5.21-15.38,10.53-2.78,19.83,22.63,16.7,39.95,37.98,56.18,60.57,19.25,26.8,44.52,48.4,65.49,73.73,12.13,16.55,22.36,35.64,47.27,34.92,1.88,.28,3.71,.73,5.55,1.23,37.54,6.72,67.99,23.21,83.46,60.4,3.56,6,5.06,12.58,5.48,19.45-1.19,17.26,12.48,25.62,21.99,36.48,21.95,28.15,25.15,59.52,16.01,93.02-5.03,14.32-1.22,27.99,3.09,41.63,.61,2.91,.65,5.82,.21,8.75-2.35,8.54-4.57,17.13-9.38,24.76-2.77,3.09-6.19,5.11-10.14,6.28-8.89,1.88-15.49-1.81-20.8-8.57-6.89-14.64-10.8-30.97-23.38-42.52-1.97-1.81-3.74-3.8-5.39-5.89-6.45-10.16-16.39-15.05-27.55-18.13-1.7-.81-3.21-1.85-4.61-3.11-12.4-14.11-28.14-23.27-45.03-30.87-19.19-8.65-39.15-18.47-59.09-21.13-38.43-5.12-73.78-19.37-110.56-29.2-3.84-.02-7.67-.19-11.5-.49-17.69-.67-29.61-13.17-43.71-21.26-14.79-8.49-27.31-22.4-48.06-13.82-8.64,3.57-16.82-5.93-24.32-10.94-14.2-9.5-27.29-20.25-46.66-15.34-8.96,2.27-15.33-6.27-22.51-10.63-2.33-1.51-4.46-3.3-6.48-5.2-7.14-7.91-15.57-14.33-24.17-20.57-7.15-6.65-13.84-13.76-20.99-20.42-19.47-18.87-37.39-39.32-58.33-56.65-7.5-5.16-13.66-11.85-20.47-17.79-19.68-10.9-37.54-24.45-55.56-37.79-1.57-.94-3.06-1.99-4.51-3.09-5.22-4.9-11.31-4.7-18.09-4.46-17.42,.61-43.71-18.89-49.78-35.93,4.9-5.91,11.64-6,18.18-5.01,40.4,6.1,81.12,8.5,121.77,12.01,24.03,2.08,40.63,20.82,55.32,38.65,27.26,33.09,54.27,66.42,87.36,93.94,49.68,41.32,104.42,73.07,167.8,89.25,60.78,15.52,118.63,39.76,176.84,62.77,26.42,10.44,49.04,27.99,75.47,38.78,14.6,5.96,18.46,24.92,28.37,37.12,2.42-43.19-2.79-56.56-32.15-86.73-72.7-74.71-157.11-134.05-245.83-187.74-19.8-11.98-42.47-17.72-62.87-28.68-36.66-19.69-68.17-44.61-90.65-80.28-8.19-13-13.75-26.28-17.11-41.51-8.37-37.89-33.68-66.69-57.48-95.41-32.73-39.51-75.24-64.7-124.16-80.92-41.21-13.66-81.58-30.09-121.41-47.62-39.67-17.45-81.53-19.73-124.02-16.66-3.28,.24-6.58,1.73-9.76,1.4-64.24-6.54-117.86,21.69-170.82,52.02-21.78,12.48-44.9,18.35-70.07,16.47-15.98-1.19-32.94-1.18-41.35-17.67-8.51-16.67,4.43-28.39,12.64-40.8,43.32-46.9,87.05-93.47,125.78-144.41,6.33-9.1,2.52-14.53-6.5-18.07-8.42-3.3-16.79-1.81-25.13,.35-19.31,5-36.32,14.92-53.34,24.86-36.86,21.53-76,27.98-117.43,16.6-14.84-4.07-30.13-1.2-44.94-4.26-7.71-2.13-14-7.24-21.28-10.28-35.45-14.75-69.3,9.73-65.99,47.7,18.2-38.76,37.17-50.06,62.27-37.09,23.08,11.92,28.01,35.98,12.82,62.55-7.37,7.66-8.27,17.66-9.75,27.34-3.02,19.81-15.06,31.87-33.34,37.64-19.28,6.09-39.14,6.39-58.38,.05-25.35-8.35-44.51-.81-61.07,19.24-18.35,22.23-41.27,40.81-53.01,68.25-1.71,3.99-4.94,8.13-10.83,5.97-14.05-17.56-8.93-37.56-6.02-56.61,4.19-27.4,14.57-53.05,26.23-78.13,3.58-7.7,7.55-15.3,8.62-23.92,15.26-31.22,34.57-58.2,70.78-67.42,8.04,2.47,14.36-1.77,19.77-6.31,55.49-46.56,122.12-71.44,188.6-96.24,21.26-7.93,40.42-22.58,64.69-22.05,36.04-2.21,72.07-3.67,107.86,1.22,28.7,3.91,57.3,4.22,86.05,2.03Z"/><path class="cls-18" d="M289.15,703.48c23.78,70.2,62.38,133.72,91.17,201.77,19.69,46.55,2.29,87.46-5.94,130.38-46.48,242.32-93.71,484.5-139.61,726.94-3.28,17.33-11.84,34.97-5.5,53.79,1.67,4.95-1.61,9.08-6.44,10.74-5.06,1.75-10.13-.48-11.49-5.07-3.85-12.97-14.61-16.94-25.23-21.46,1.16-11.02-8.5-16.96-12.07-25.77-23.99-20.67-37.35-49.36-55.15-74.57-31.25-44.25-62-88.94-84.51-138.77-5.63-12.45-3.69-27.5-14.26-37.8,34.55-93.31,81.04-181.44,118.64-273.43,28.77-63.29,52.97-128.57,83.22-191.21,4.04-8.35,6.8-17.13,8.38-26.23,5.25-30.33,9.09-60.9,14.48-91.21,3.87-39.2,7.75-78.4,11.62-117.61,3.89-33.15,5.86-66.52,11-99.51,1.83-11.75,4.72-24.12,21.7-21.02Z"/><path class="cls-3" d="M2887.85,1863.44c31.03-4.41,62.08-8.72,93.09-13.27,17.03-2.49,11.34-10.97,5.08-19.8-45.48-64.16-91.43-128-136.12-192.71-29.81-43.16-49.39-92.95-82.72-133.77-65.83-80.63-132.18-160.8-193.37-245.09-24.23-33.38-49.06-66.32-73.62-99.46-37.06-47.41-71.03-96.86-98.85-150.34,.79-7.58-11.03-17.57,1.27-22.17,9.23-3.45,13.98,6.63,18.68,14.06,5.59,8.83,12.36,16.94,18.92,25.12,5.65,7.04,13.43,8.53,21.42,5.45,7.65-2.95,5.66-10.66,7.1-16.94,6.39-27.81,6.42-56.45,34.67-77.34,14.49-10.71,17.25-37.18,25.5-56.44,6.13-14.32,7.16-31.03,19.71-42.36,18.86,4.36,12.09,18.95,9.05,28.52-20.81,65.53-42.54,130.78-64.69,195.87-6.15,18.07-6.88,32.02,6.76,49.02,41.21,51.34,79.67,104.88,119.21,157.57,37.93,43.22,74.8,87.38,113.4,130.01,4.67,5.15,4.82,12.13,9.06,17.19,77.77,97.3,133.05,209.79,208.59,308.65,27.44,35.91,52.62,73.55,78.65,110.52,6.18,8.77,10.26,18.09,.99,27.65-17.39,13.13-38.59,14.98-58.79,19.81l-1.43,.94-1.63-.52c-52.96,7.1-105.91,14.3-158.9,21.25-27.16,3.56-54.35,6.9-81.58,9.82-6.19,.67-14.9,1.47-15.51-7.58-.5-7.51,6.36-10.71,13.26-11.98,50.71-9.27,101.43-18.46,152.12-27.83,3.66-.68,7.11-2.53,10.65-3.84Z"/><path class="cls-16" d="M2405.34,487.15c15.45-11.67,31.4-12.83,49.21-4.66,19.35,8.88,39.46,16.09,59.29,23.93,9.18,3.63,16.32,8.48,13.76,20.07-10.49,10.22-17.46,22.58-23.82,35.74-23.46,48.48-44.87,98.33-72.94,144.06-19.2,31.27-36.04,63.53-54.03,95.31-9.45,16.69-16.34,34.34-24.86,51.3-7.68,15.27-19.5,16.64-25.81,2.35-15.83-35.85-42.7-64.54-61.49-98.38-.82-2.95-.66-5.84,.54-8.66,17.36-19.79,23.39-45.4,34.7-68.29,18.64-37.71,34.96-76.55,55.37-113.42,6.41-11.59,13.01-22.95,22.76-32.02,14-13.02,18.63-31.31,27.32-47.32Z"/><path d="M652.82,201.78c9.91,8.4,.66,15.8-2.05,22.62-14.45,36.35-31.76,71.88-29.33,112.51,.46,7.66,2.93,15.2,4.48,22.79,5.42,2.75,9.04,7.23,12,12.34,7.88,17.02,8.9,35.18,8.89,53.57-.02,20.53,.11,20.52,20.6,13.88,2.49-.81,5.09-1.14,7.71-1.35,25.89-2.01,47.06,3.56,54.63,32.63,2.25,8.65,8.55,6.26,14,2.93,14.59-8.9,29.08-18.13,38.46-32.95,6.68-10.55,14.43-20.26,21.82-30.27,33.81-28.21,57.73-65.57,89.24-96.28,23.22-22.62,40.41-52.77,50.14-85.35,15.08-15.29,30.57-29.07,50.05-39.88,26.07-14.47,49.32-34.3,72.43-53.58,8.1-6.76,15.75-14,25.85-17.57,7.62-2.7,15.52-4.91,20.04,5.16-15.94,18.83-24.38,42.69-45.97,58.24-25.11,18.08-36.52,49.87-61.41,69.21-5.56,4.32-10.19,9.83-15.25,14.79-20.74,21.52-46.49,38.37-58.65,67.76-6.58,15.91-19.52,27.11-33.07,38.31-25.82,21.35-49.59,45.5-69.87,72.21-25.22,33.21-54.33,60.19-93.54,76.2-14.54,5.94-28.74,8.8-44.07,8.36-15.1,.69-29.66-.95-42.76-9.34-24.26-18.08-27.21-27.84-14.74-48.7-2.41-14.09-5.63-28.1-7.03-42.28-1.98-20.02-2.58-39.57-15.53-57.22-14.44-19.68-8.87-42.41-4.35-64.34,7.92-38.37,24.43-72.82,47.28-104.42Z"/><path class="cls-27" d="M2405.34,487.15c1.73,14.75-3.7,27.47-13.02,38.01-48.81,55.18-69.86,125.2-102.34,189.13-6.08,11.97-4.37,30.2-23.17,33.67-9.4-1.4-14.75-8.37-19.26-15.42-18.06-28.27-45.36-37.49-76.89-38.21-17.77-.4-35.6-.18-48.49-15.55-1.71-2.04-2.59-4.51-3.17-7.06,.12-7.02,5.54-9.95,10.47-13.03,27.65-17.26,54.56-35.67,82.16-53.02,55.02-36.1,109.95-72.35,165.16-108.15,8.48-5.5,17.08-12.35,28.55-10.39Z"/><path class="cls-25" d="M632.44,470.04c-7.66,19.8,.3,33.74,16.69,44.53-4.71,12.65-15.97,20.31-23.55,30.81-8.14,11.28-12.87,24-17.93,36.68-7.29,7.14-13.8,15.02-21.02,22.25-66.28,46.4-133.62,91.33-193.14,146.72-9.58,8.91-17.8,23.49-35.28,19.44-6.7-24.52-3.06-49.39-2.43-74.13,.18-6.91,4.67-12.11,9.91-16.36,48.81-39.65,98.38-78.41,144.66-121.08,33.89-25.87,67.69-51.87,101.78-77.48,6.15-4.62,13.51-7.62,20.32-11.37Z"/><path class="cls-5" d="M510.35,558.9c-19.2,34.19-54.03,52.03-81.61,77.41-19.16,17.63-40.35,33.12-61.14,48.9-6.96,5.28-7.37,11.69-7.31,19,.19,22.27,.34,44.55,.5,66.82,4.48,25.17,22.7,43.11,34.08,64.65,3.28,6.22,8.79,11.4,8.76,19.13,8.89,21.6,20.57,41.52,35.71,59.35,9.38,12.3,20.84,23.35,23.77,39.53l7.8,11.49c3.75,9.12,6.94,18.23,6.94,28.43,0,37.48,1.74,74.91,3.23,112.36,2.2,55.18,4.04,110.34,8.18,165.42,.84,11.16,1.14,22.41-.16,33.52-.79,6.7,.09,15.22-10.02,16.65-16.72-21.21-8.69-47.14-10.78-70.24-8.1-89.59-11.81-179.58-16.89-269.43-.47-8.29-3.39-15.07-7.64-21.91-39.47-63.48-79.09-126.88-117.6-190.93-3.78-6.29-21.92-19.45,2.56-25.06,5.04-1.75,6.88,1.38,8.57,4.69-3.98-15.58-1.54-31.63,.47-47.85,1.88-15.2-2.32-17.73-16.55-12.09-7.73,3.06-14.17,9.98-23.6,8.1-2.83,2.22-5.65,4.44-8.48,6.65-27.19,11.19-15,36.71-19.49,55.77-5.04,21.39,1.41,45.16-13.21,64.74-8.5-4.04-7.14-11.84-6.82-18.9,1.18-26.27,1.59-52.64,4.24-78.77,3.92-38.53,65.67-75.5,102.31-61.58,9.02,3.43,11.81-3.27,16.44-6.79,41.28-31.41,82.34-63.11,123.48-94.7,4.18-3.21,8.34-6.7,14.25-4.36Z"/><path d="M2171.43,901.35c6.65-31.78,3.28-61.78-15.76-89-5.15-13.86-18.71-22.39-23.22-36.66-2.25-5.93,2.25-13.54-4.54-18.35-8.47-36.43-40.06-60.49-77.32-58.91-1.99,.08-3.81-.57-5.41-1.79l.11,.05c-32.56-3.63-43.67-28.72-54.46-54.24-6.08-14.38-9.63-29.96-19.88-42.41-4.69-7.06-7.74-14.62-7.33-23.29,2.08-9.55,3.41-19.89,17.5-17.27,10.23,5.37,13.49,15.4,16.93,25.3,2.6,26.59,15.43,49.29,27.68,72.22,3.96,3.59,5.99,11.66,13.67,7.27,10.02-5.72,5.2-15.46,4.01-22.9-8.03-50.38-36.27-91.23-64.62-131.64-18.5-26.36-40.87-49.51-65.72-70.21-5.84-4.87-14.39-11.92,1.41-15.75,80.8,54.63,138.35,124.84,150.93,225.19-3.75,17.19,4.2,26.68,19.71,33.05,16.49,6.77,32.33,11.86,50.96,9.87,20.36-2.18,24.48,3.64,20,20.35-5.18,.06-10.37,.12-15.56,.18,11.57,32.31,19.4,66.2,42.03,93.67,19.42,23.58,23.45,50.98,16.1,79.93-4.42,17.4-5.8,34.29-3.64,52.36,3.53,29.46-7.15,56.68-39.8,61.46-10.11-9.02,5.02-12.63,4.29-19.65,2.23-1.11,4.46-2.23,6.68-3.34,8.99-5.82,7.69-15.14,8.12-23.87,.39-2.06,.79-4.12,1.18-6.18-.64-15.21-2.89-30.28-4.05-45.44Z"/><path class="cls-2" d="M2266.87,755.77c23.74,28.8,45.45,58.97,61.85,92.66,2.43,4.98,1.74,13.01,9.98,12.5,6.17-.38,7.43-6.77,9.62-11.38,17.92-37.8,30.52-79.44,54.71-112.66,44.15-60.63,69.22-130.3,104.23-195.13,4.18-7.74,8.3-17.24,20.35-15.27,6.38,7.49,5.69,15.12,1.47,23.55-37.63,75.18-75.08,150.44-112.57,225.69-4.92,11.99-9.85,23.97-14.77,35.96-8.98,32.92-19.77,64.96-43.87,90.55-14.25-13.6-31.39-25.24-42.22-41.17-32.17-47.32-61.86-96.34-92.51-144.69,11.6-3.64,15.39,5.98,21.16,12.37,7.88,8.72,10,22.25,22.58,27.03Z"/><path class="cls-4" d="M989.01,12.08c-41.75,23.6-88.42,35.41-131.84,55.14-41.32,18.77-80.84,39.98-115.89,69.07-5.92,4.91-13.47,13.7-17.68-1.93,52.42-67.92,130.57-91.25,206.34-118.3,19.02-6.79,38.27-17.58,59.9-8.65,1.91,1.95,1.63,3.5-.83,4.67Z"/><path class="cls-7" d="M415.45,2179.54c48.14-15.78,60.45-11.87,86.47,29.16,17.92,28.26,35.07,57.01,52.56,85.54-22.75,4.64-37.98-4.02-50.47-23.74-15.78-24.91-35.22-47.46-51.78-71.92-9.27-13.69-19.59-22.16-36.77-19.03Z"/><path class="cls-2" d="M2266.87,755.77c-.33,2.57,.25,6.54-1.16,7.46-5.63,3.68-5.56-2.82-7.73-5.23-12.11-13.46-16.38-33.49-34.85-41.64-22.36-1.29-45.08,3.25-67.06-4.15,1.24-23.93-16.79-16.42-27.32-14.51-26.88,4.87-46.33-10.37-66.12-22.77-9.59-6.01-8.95-18.37,2.76-25.98,9.8,8.89,22.76,9.07,34.53,12.52,6.48,3.31,15.9-.8,20.19,8.02,7.78,12.82,20.12,20.68,34.1,19.17,51.39-5.55,87.12,16.65,112.58,59.31,.02,2.6,.05,5.2,.07,7.8Z"/><path class="cls-11" d="M244.83,941.6c-1.13,58.02-9.34,113.75-38.33,166.03-25.48,45.96-40.11,97.44-67.75,142.61,23.01-60.37,45.09-121.11,69.34-180.97,16.78-41.42,22.49-85.71,36.73-127.68Z"/><path class="cls-10" d="M2741.42,1416.55c-39.47-50.19-89.6-91.51-122.46-147.2,28.27,14.51,43.77,42.07,64.54,64.1,19.15,20.31,35.52,43.24,53.49,64.69,4.8,5.73,4.53,11.9,4.43,18.4Z"/><path class="cls-24" d="M989.01,12.08c.28-1.56,.55-3.12,.83-4.67,41.62-4.79,83.37-8.57,124.74,.86,25.25,5.76,50.78,1.49,75.99,4.74-29.08,6.71-58.85,4.52-87.72,1.98-38.04-3.34-75.93-1.34-113.84-2.9Z"/><path class="cls-8" d="M2120.12,669.5c-6.73-2.67-13.46-5.34-20.19-8.02,35.01-7.5,61.02-32.72,92.57-47.02,6.39-2.89,12.75-5.84,19.12-8.77-28.21,24.55-58.14,46.64-91.51,63.8Z"/><path class="cls-13" d="M2970.86,1883.18c19.6-6.6,39.19-13.21,58.79-19.81-14.82,20.77-37.27,18.92-58.79,19.81Z"/><path class="cls-19" d="M1594.1,2140.39c-49.88-190.77-81.66-385.35-121.49-578.23-15.6-75.56-28.89-151.61-43.17-227.44-1.5-7.95-.86-14.24,6.2-21.01,56.53-54.14,116.95-103.12,181.22-148.01,48.13-33.62,92.35-72.83,138.54-109.25,9.22-7.27,17.76-5.67,21.09,6.51,23.54,85.92,57.96,167.34,97.68,247,20.3,40.71,44.41,78.95,66.74,118.34,11.65,20.54,33.36,14.98,50.99,19.22,11.47,2.76,18.04,7.53,17.88,19.36-1.48,107.3,46.77,198.92,92.16,291.35,4.31,8.78,10.62,15.27-1.19,22.95-6.44,4.19-.45,9.56,1.35,13.89,32.81,78.89,74.76,153.67,105.03,233.72,34.13,90.28,66.99,180.9,89,275.15,3.48,14.91-2.84,23.76-9.83,33.98-33.91,6.05-65.61-6.5-97.43-13.6-188.55-42.07-376.74-85.8-565.12-128.64-9.59-2.18-15-6.21-17.51-15.77-3.49-13.32-8.06-26.36-12.16-39.51Z"/><path class="cls-20" d="M479.08,1321.56c8.16-18.16,3.92-37.33,3.31-55.85-1.31-39.79-5.63-79.47-7.07-119.26-2.2-60.4-3.01-120.85-4.41-181.27,39.1,21.7,64.8,58.84,99.14,86.15,23.52,18.7,44.72,40.31,66.96,60.62,38.26,25.41,66.14,60.92,93.77,96.64,24.87,32.16,54.25,60.34,80.32,91.45,4.63,5.52,10.03,10.37,11.87,17.69,25.12,25.07-1.14,47.28-3.94,70.8-4.2,10.53-9.28,20.72-12.26,31.71-23.71,54.37-46.05,109.27-62.89,166.24-44.58,114.89-110.05,219.92-157.28,333.55-4.82,11.61-8.63,16.81-18.49,3.05-20.63-28.79-42.8-56.49-63.77-85.05-16.08-21.9-10.34-48.7-12.16-72.79-5.09-67.44-10.14-134.96-9.61-202.83,.63-80.27-2.17-160.57-3.48-240.86Z"/><path class="cls-18" d="M2013.73,1245.9c-17.92-27.52-35.53-55.24-53.88-82.47-8.56-12.71-3.98-15.76,9.01-15.86,52.39-.39,104.69-7.31,157.24-.69,11.86,1.49,17.44,6.35,21.94,15.95,63.5,135.57,126.59,271.19,179.47,411.54,32.59,86.5,73.09,170.02,110.11,254.85,6.04,13.84,11.16,28.33,19.06,41.05,10.3,16.58,5.72,24.75-11.84,28.71-32.01-54.99-62.07-111.25-96.49-164.69-53.28-82.72-109.08-163.84-164.83-244.94-14.19-20.64-22.47-42.66-27.53-66.62-4.26-20.14-12.21-37.01-35.27-42.43-11.04-2.6-18.55-11.33-24.94-21.15-21.81-33.55-44.26-66.69-66.56-99.91-3.89-5.8-6.29-13.59-15.49-13.33Z"/><path class="cls-18" d="M297.63,696.83c1.6-1.13,3.11-2.43,4.82-3.37,12.3-6.76,25.4-21.98,38.12-14.01,10.77,6.74,1.75,23.97,.48,36.68-1.15,11.55-.24,23.31-.24,37.2-5.36-4.15-8.72-6.75-12.08-9.35-5.38-19.01-17.12-33.82-31.11-47.16Z"/><path class="cls-9" d="M174.04,1774.81c4.79,8.23,21.42,10.91,12.07,25.77-4.39-8.42-13.13-14.79-12.07-25.77Z"/><path class="cls-15" d="M1476.98,1240.76c-22.17,18.27-37.58,34.11-55.85,45.25-23.82,14.52-19.29,35.16-19.86,57.04-.89,34.29,20.24,63.59,20.31,96.54,.11,55.22,23.59,106.11,26.4,160.54,.47,9,2.72,16.9-13.66,15.29-21.56-2.12-24.51,18.75-24.92,33.39-1.12,40.06-11.4,81.06-6.76,119.37,7.79,64.27-25.61,121.6-20.54,184,.31,3.84-1.96,8.08-1.1,11.67,8.46,35.36-14.26,39.5-40.3,41.29-93.54,6.44-186.69-1.31-279.91-7.01-2.63-.16-5.48-.76-7.87,0-76.19,24.04-151.11-18.46-227.13-4.39-6.13,1.13-11.72-1.33-13.87-8.33-18.51-60.32-52.29-114.96-65.8-177.12-2.88-13.27-5.73-26.13-2.59-40.41,12.56-57.05,11.5-116.86,33.81-171.89,7.49-18.49,4.19-37.16,5.03-55.73,1.91-41.86,38.22-65.46,52.47-101.3,15.67-39.41,39.59-75.51,59.07-113.48,4.88-9.51,12.65-16.22,21.18-14.85,39.86,6.43,74.1-21.53,113.41-17.02,36.49,4.19,72.54,3.42,109.15-3.16,73.38-13.18,147.25-23.67,221.01-34.61,37.37-5.54,74.95-9.62,118.3-15.1Z"/><path class="cls-15" d="M403.63,854.81c-14.66-21.63-29.26-43.31-44.01-64.88-4.61-6.75,.77-12.61,1.17-18.9,65.63-58.2,135.1-111.46,207.16-161.39,5.26-3.65,11.6-5.76,17.43-8.58,4.68,6.46,2.78,13.87,2.55,20.84-1.09,34.23,22.47,69.04,53.93,80.78,10.18,3.8,17.42-4.14,26.42-3.88,6.26,2.56,13.33,4.35,12.46,13.48,31.43,30.42,68.68,52.95,105.25,76.13,81.91,51.92,164.53,102.72,246.98,153.8,5.05,3.13,6.13,5.4,2.84,10.76-17.39,28.27-26.77,57.69-26.32,92.36,.44,34.07-38.66,54.56-70.91,43.79-45.47-15.2-93.84-24.22-135.16-48.61-104.29-61.56-226.89-75.76-332.99-132.25-26.06-13.87-37.87-44.1-66.8-53.45Z"/><path class="cls-18" d="M1000.9,1171.19c2.05-18.26,13.04-27.18,29.94-33.16,12.64-4.47,25.93-11.61,34.83-21.32,34.93-38.1,78.59-23.58,119.04-19.92,90.35,8.18,180.75,7.29,271.21,6.95,3.65-4.39,8.78-5.77,14.03-6.03,24.84-1.24,49.69-1.21,74.52-.03,5.34,.25,10.2,2.23,14.22,5.93,7.24,.12,14.54-.3,21.71,.48,13.3,1.44,27.27-4.17,39.93,3.73-8.24,10.83-16.22,21.86-24.8,32.42-8.26,10.17-18.4,19.02-25.51,29.89-19,29.09-50.01,28.11-78.51,32.27-146.8,21.44-293.72,42.09-440.55,63.28-42.02,6.06-83.9,13.1-125.89,19.34-4.14,.61-10.41,.24-12.62-2.33-4.46-5.18,1.02-9.42,4.47-13.26,17.51-19.52,35.05-39.01,52.58-58.51,6.23-16.58,18.55-28.35,31.38-39.72Z"/><path class="cls-13" d="M1558.71,1103.61c-34.26,.05-68.51,.09-102.77,.13-45.04-12.69-91.73-13.35-137.68-14.76-66.87-2.05-132.79-13.84-199.58-15.55-8.83-.23-15.55,2.69-21.95,6.73-22.06,13.91-43.39,28.97-65.49,42.83-35.32,22.15-57.45,56.06-82.36,88.01-20.5,26.29-44.71,49.74-67.89,73.86-7,7.28-17.14,8.2-24.97,1.4-9.66-8.38-.65-16.15,4.09-22.04,29.19-36.26,64.79-66.88,92.08-104.93,5.16-7.19,9.66-13.23,9.57-22.64-.16-16.57,8.01-29.37,22.86-36.1,23.65-10.72,38.34-28.66,40.9-53.72,4.42-43.35,28.62-79.91,38.78-121.14,15.59-22.06,35.59-38.98,59.7-51.1,28.9-7.87,38.02,1.96,29.96,33.35-5.21,20.3-11.9,40.22-17.31,60.48-4,14.96,.84,23.17,17.85,24.99,130.52,14.01,256.77,48.9,383.89,79.45,15.99,3.84,22.79,14.38,20.31,30.74Z"/><path class="cls-18" d="M2013.58,1005.12c15.78,16.98,31.56,33.96,50.01,53.81-57.95-6.65-111.06-12.14-163.98-19.12-19.31-2.54-23.09-22.46-30.91-35.9-12.78-21.97-32.77-25.99-47.38-11.69-35.72,34.96-75.59,20.02-114.27,15.12-90.84-11.5-181.31-25.9-272.13-37.59-82.89-10.67-166.4-16.63-250.2-33.74,14.04-21.28,36.18-16.1,53.95-17.33,164.99-11.45,329.35,14.11,494.53,8.94,65.55-2.05,131.6,11.65,197.42,18.17,6.27-3.37,11.63,.13,16.71,2.78,26.38,13.77,51.35,29.3,66.26,56.55Z"/><path class="cls-13" d="M2013.58,1005.12c-25.42-22.9-50.03-46.95-82.97-59.33-33.76-35.8-80.79-37.29-124.28-47.06-26.94-6.05-53.36-12.61-79.19-22.72-38.66-15.13-80.83-14.31-120.93-24.01-65.49-15.84-131.56-29.46-197.7-42.4-44.87-8.77-90.26-14.92-135.46-21.92-14.73-2.28-28.84-7.74-29.71-23.54-.95-17.27,17.66-10.91,26.88-16.29,25.92-11.14,51.98-9.16,78.06-.91,.78,5.37-2.92,10.83,8.85,11.6,86.72,5.66,173.46,10.3,260.37,11.24,12.52,.14,22.84,5.57,32.96,11.88,25.31,15.76,51.15,27.05,82.3,29.72,25.5,2.19,51.36,13.11,74.49,24.43,56.88,27.85,116.89,43.75,178.36,55.52,38.33,7.34,67.82,26.85,90.4,58.33,8.01,11.17,18.82,20.22,26.82,31.58,3.4,4.83,7.89,9.07,5.83,15.83-10.76,6.06-21.62,11.95-32.26,18.2-23.83,14-43.21,1.35-62.84-10.17Z"/><path class="cls-18" d="M1124,874.61c-19.9,17.03-39.8,34.07-59.7,51.1-81.73-53.49-163.44-106.98-245.18-160.44-17-11.12-34.09-22.12-51.13-33.18-2.61-12.38,7.15-18.14,13.64-25.73,5.44-6.35,13.25-10.3,17.61-17.7,4.1-5.23,8.19-10.46,12.29-15.69,2.66-11.91,12.51-17.48,21.2-24.08,12.06-6.22,22.12-15.24,32.79-23.45,2.56-2.08,5.31-3.87,8.03-5.69,25.57-17.13,25.3-16.92,44.51,7,13.14,16.36,30.1,29.24,43.32,45.52,6.06,7.46,14,14.03,15.71,24.41,33.14,40.24,66.25,80.5,99.42,120.71,15.77,19.12,31.66,38.14,47.49,57.21Z"/><path class="cls-13" d="M2058.02,1380.5c-8.29,22.19-30.45,27.29-48.01,37.19-12.51,7.05-22.75-.03-29.36-11.65-16.88-29.69-33.18-59.72-50.42-89.2-51.91-88.8-93.02-182.37-124.06-280.36-7.02-22.17,13.27-27.74,25.77-36.33,12.95-8.9,20.91,2.5,26.71,11.92,17.8,28.91,31.16,59.63,43.78,91.42,15.8,39.82,43.14,74.91,63.35,113.17,26.71,50.56,54.16,100.59,85.41,148.5,2.81,4.31,4.28,9.51,6.83,15.34Z"/><path class="cls-23" d="M2273.79,1208.11c12.08,.75,31.05,1.52,49.94,3.22,12.92,1.16,20.24,6,24.44,21.46,38.86,142.95,79.14,285.54,128.43,425.32,7.29,20.67-2.13,35.36-12.03,48.87-9.26,12.63-10.67-3.77-12.32-7.75-15.34-36.95-31.25-73.76-44.25-111.55-36.37-105.71-84.59-206.4-128.98-308.71-7.84-18.07-15.41-36.38-24.98-53.54-9.61-17.24-3.33-20.71,19.75-17.31Z"/><path class="cls-2" d="M2108.69,997.09c-15.45-18.68-31.47-36.93-46.23-56.14-31.28-40.7-78.67-44.81-123.22-53.89-40.9-8.34-79.08-23.09-117.5-38.66-36.07-14.62-71.61-31.48-112.04-33.9-25.42-1.52-46.08-18.36-67.45-31.13-8.83-5.28-17.36-7.93-27.69-7.87-91.27,.53-182.21-7.1-273.27-11.78-5.61-.29-15.23,0-12.84-7.42,2.9-9,13.92-2.43,21.02-4.63,20.12-11.73,41.6-5.49,62.65-4.82,31.22,6.69,62.8,2.66,94.22,2.74,19.03,.05,38.06-.98,56.99,.38,10.29,.5,20.26,5.72,32.88,2.42-7.54-16.26-20.61-27.18-33.78-36.52-42.37-30.02-86.67-57.21-130.08-85.73-7.21-4.74-15.52-7.38-23.96-8.77-54.21-8.94-102.5-32.78-149.16-60.13-18.43-10.8-36.8-14.1-56.5-6.78-44.43,16.52-90.32,22.61-137.46,21.16-4.97-.15-10.64-1.19-14.5,4,.16,7.08,6.94,8.95,10.51,13.28,11.11,12.69,26.02,21.17,37.42,33.55,14.72,15.22,28.13,31.77,45.03,44.85,4.04,4.33,8.55,8.27,11.9,13.16,3.74,5.45,8.2,11.75,2.64,17.82-6.5,7.1-13.78,2.48-19.23-2.09-13.07-10.97-26.41-21.76-38.64-33.61-28.37-27.5-59.6-51.58-89.71-77-3.02-2.55-6.17-4.9-9.7-6.72-37.12-19.17-102.47-6.92-131.11,23.41-21.52,22.8-39.55,49.19-66.59,66.49-25.87,21.23-47.78,50.2-86.47,47.24-12.16-.93-24.07-5.07-36.09-7.75-4.02-3.9-8.04-7.79-12.06-11.69,2.95-3.69,7.01-4.38,11.36-4.3,6.62,.55,12.85,2.77,18.8,5.48,15.19,6.93,29.59,4.45,43.3-3.55,16.49-9.63,32.54-20.41,44.55-35.31,18.58-23.04,40.93-42.54,59.28-65.77,33.67-42.64,79.91-48.51,129.85-43.22,18.64,1.97,37.01,10.16,56.19,3.07,21.46-2.1,43.12,1.68,64.45-2.45,32.99-2.57,64.96-9.75,96.34-20.34,27.73-9.36,53.06-5.49,79.1,10.08,41.25,24.67,84.64,45.71,133.01,53.71,17.07,2.83,33.28,8.77,47.33,19.03,43.62,31.84,92.39,56.06,133.95,90.93,6.07,5.09,12.36,10,17.04,16.42,15.62,21.48,34.39,38.37,58,51.81,23.41,13.32,46.76,22.11,73.38,26.59,31.68,5.34,62.63,15.96,91.8,29.71,39.62,18.68,80.35,33.14,123.55,40.48,2.6,.44,5.15,1.22,7.76,1.49,58.76,6.11,103.22,35.73,138.08,82.35,14.25,19.06,31.05,36.01,56.32,40.37,29.91-4.81,39.87-25.92,39.03-52.33-.68-21.42-1.15-42.23,3.64-63.41,5.38-23.8,2.99-48.69-12.55-67.51-21.65-26.2-29.49-58.04-42.9-87.64-2.23-4.93-4.77-9.72,1.18-13.87,21.44,42.9,42.96,85.75,64.17,128.76,1.95,3.95,3.2,9.04,2.61,13.3-5.05,36.48-7.28,73.18-10.52,109.78-3.59,40.54-46.43,54.24-88.09,32.84Z"/><path class="cls-18" d="M704.41,1020.81c76.25,30.31,152.62,60.33,228.58,91.34,8.66,3.54,27.1,4.26,16.58,23.24-10.55,17.91-26.28,30.82-41.66,44.24-14.88,12.98-28.06,27.81-42.27,41.55-9.14,8.83-19.42,12.5-30.01,3.97-36.23-29.19-76.98-53.46-103.66-93.22-18.9-28.17-30.4-59.84-41.17-91.63-3.23-9.53-4.08-22.24,13.61-19.51Z"/><path class="cls-18" d="M1139.5,673.23c-17.33-11.79-30.5-27.69-43.36-43.9,7.63-5.69,15.21-1.71,22.56,.46,43.96,12.98,88.71,17.87,134.39,13.63,23.28-2.16,46.14,.92,68.36,7.13,58.25,16.3,117.48,30.81,163.6,74.04,7.93,7.44,21.75,14.46,17.36,25.74-3.41,8.77-17.86,3.28-27.24,3.26-20.94-.04-41.96,2.17-62.83-1.34-20.96-.19-41.91-.37-62.87-.56-26.08-8.11-52.87-1.57-79.24-3.83-44.03-.44-68.7-36.81-102.91-55.46-12.66-1.47-17.17-14.78-27.82-19.17Z"/><path class="cls-13" d="M1139.5,673.23c11.94,2.51,19.54,11.34,27.82,19.17-.75,6.93,9.16,15.7-2.32,20.61-17.53,7.51-35.11,3.77-50.79-4.92-24.55-13.6-47.9-29.33-72.2-43.4-15.43-8.93-32.13-4.34-34.84,11.59-3.59,21.07-14.92,21.26-30.06,20.4-21.52-22.61-46.11-43.11-63.53-68.52-12.83-18.71-20.71-18.66-35.08-5.61-3.29,2.99-7.86,4.56-11.85,6.78-11.14,7.06-22.96,13.2-31.81,23.37-7.77,6.76-15.54,13.51-23.3,20.27-2.74-.06-5.49-.12-8.23-.18,27.63-29.65,51.99-62.36,83.02-88.82,26.13-22.28,104.5-19.7,130.16,3.15,41.1,36.6,82.81,72.52,124.42,108.54,4.11,3.56,9.4,10.22,14.88,4.43,4.09-4.32-1.54-9.51-4.69-13.5-3.65-4.62-7.71-8.93-11.59-13.37Z"/><path class="cls-15" d="M704.41,1020.81c-12.1,1.82-11.6,8.41-9.07,18.59,20.64,83.07,75.85,138.31,144.87,183.04,10.47,6.79,15.35,.98,21.7-4.98,29.17-27.41,58.44-54.71,87.67-82.05-13.39,35.06-37.21,62.24-65.29,86.16-4.48,3.82-9.51,7.04-13.75,11.09-23.21,22.21-60.25,13.38-71.03-17.11-.65-1.83-.07-4.74-1.24-5.66-51.71-40.68-76.22-109.83-146.76-132.25-39.07-12.42-66.78-47.69-99.37-72.96-9.56-7.41-21.52-12.82-29.52-30.15,47.27,18.33,90.11,35.62,133.54,51.28,10.32,3.72,26.84,19.93,31.2-9.12,1.22-8.13,11.66,.04,17.07,4.13Z"/><path class="cls-18" d="M2252.61,1092.39c-28.66-5.49-56.25-10.36-83.64-16.18-14.61-3.1-9.62-12.99-5.25-21.19,16.83-31.55,49.4-41.74,79.42-49.39,15.28-3.89,23.22,23,35.14,35.32,4.46,4.61,15.51,10.15,6.02,20.94-9.93,11.29-13.39,29.31-31.69,30.5Z"/><path class="cls-22" d="M2349.35,992.78c22.67,34.6,44.76,66.02,64.12,99.04,7.46,12.71-8.17,16.7-16.34,21.69-7.53,4.6-18.46,11.77-22.83-1.64-12.21-37.46-42.65-70.87-24.96-119.09Z"/><path class="cls-15" d="M822.97,1317.74c-48.69-47.47-93.08-98.79-133.43-153.42-15.04-20.36-36.96-33.01-52.53-52.36,31.83,15.56,54.43,42.1,78.87,66.42,20.71,20.61,36.67,45.05,61.58,62.72,20.34,14.43,26.17,44.34,48.31,60.17,4.36,3.12-.09,11.14-2.8,16.47Z"/><path class="cls-23" d="M2357.86,902.23c14.62-30.19,29.24-60.37,43.87-90.55,19.62-3.61,20.61,5.06,14.66,20.57-9.6,25.02-17.89,50.53-27.01,75.73-2.37,6.57-4.57,17.04-8.89,18.22-7.85,2.14-8.36-9.59-13.59-14.07-3.37-2.89-6.04-6.57-9.03-9.9Z"/><path class="cls-13" d="M2401.35,1008.99c32.95,50.11,65.9,100.23,98.85,150.34-43.92-42.9-76.32-93.38-98.85-150.34Z"/><path class="cls-15" d="M799.25,688.66c-5.39,18.1-24.76,26.13-31.26,43.43-9.64-6.17-12.35-13.12-1.72-20.75,10.84-7.78,21.97-15.14,32.97-22.69Z"/><path class="cls-15" d="M1000.9,1171.19c-10.46,13.24-20.92,26.48-31.38,39.72-.29-21.73,14.8-31.32,31.38-39.72Z"/><path class="cls-13" d="M463.11,953.7c-7.92-13.18-15.85-26.36-23.77-39.53,13.44,9.86,27.15,19.56,23.77,39.53Z"/><path class="cls-15" d="M806.77,1420.25c.04-12.14,4.18-22.69,12.26-31.71-.11,12.11-5.71,22.1-12.26,31.71Z"/><path class="cls-26" d="M691.97,523.27c51.92-2.95,89.66-31.7,121.17-69.36,28.3-33.83,55.94-67.88,91.59-94.58,13.95-10.45,21.77-26.53,28.58-41.86,11.47-25.8,34.74-37.52,55.82-52.23-5.87,12.87-25.57,24.95-12.03,39.53,19.18,20.65,47.62,15.56,70.7,9.15,26.19-7.27,51-21.17,74.79-34.99,33.26-19.32,67.75-28.88,106.54-30.13,43.95-1.42,89.6-10.78,130.6,5.65,80.04,32.08,167.28,49.6,237.51,102.37,49.54,37.23,84.33,85.94,102.34,148.82,14.07,49.11,54.81,83.07,102.09,104.08,119.89,53.28,221.65,131.45,314.84,222.54,30.45,29.76,28.93,65.8,31.44,102.65-3.3,0-5.37,.4-5.57-.06-29.95-65.7-95.81-78.78-153.05-104.17-55.37-24.56-114.43-38.59-171.4-58.51-84.41-29.5-152.08-84.42-203.9-155.35-32.7-44.75-73.08-60.22-123.78-58.08-27.52,1.17-53.64-12.65-81.28-5.48-6.35,4.68-11.3-.43-16.12-2.9-10.11-5.18-20.26-9.14-31.9-8.22-4.63,.37-9.45-.52-13.22-3.19-20.92-14.84-43.14-27.25-66.41-38.08-10.11-4.7-12.85-14.12-9.72-25.12,3.27-11.5,8.63-21.9,15.22-31.8,17.44-26.22,25.78-55.44,28.24-86.56,2.24-4.79,9.53-8.16,3.72-16.06-9.29,2.5-14.72,10.23-20.91,16.58-19.79,20.29-39.03,41.25-63.39,56.25-21.72,13.37-43.82,22.51-70.85,13.48-28.11-9.39-52.64,4.37-72.75,21.49-42.13,35.86-91.43,43.81-143.88,43.15-12.77-.16-25.61-2.05-35.64-9.89-15.04-11.76-29.17-8.2-44.34-1.31-34.99,15.9-60.64,43.86-88.64,68.64-17.36,15.36-35.21,29.75-55.43,41.05-17.66,9.87-54.29,4.25-68.23-10.07-7.57-7.77-5.48-16.06-.24-23.34,10.03-13.92,21.16-26.98,37.49-34.12Z"/><path d="M2152.12,997.16c-29.67,10.37-43.6-14.41-54.95-30.84-40.41-58.45-97.39-82.98-164.59-91.6-34.91-4.48-66.86-18.68-98.87-32.62-36.64-15.96-74.12-28.43-113.9-35.92-43.77-8.23-82.76-29.42-110.75-65.72-20.92-27.12-46.79-48.01-76.5-63.73-43.29-22.91-76.66-63.68-127.42-72.66-49.48-8.75-94.22-29.38-136.12-55.2-27.08-16.69-52.41-17.11-80.56-7.67-28.68,9.63-57.62,18.46-88.49,16.89-16.61,4.21-33.51,.78-50.23,1.99-7,.51-14.29-1.92-20.97,1.97-15.53,14.93-31.62,.56-45.94-1.58-59.59-8.91-106.86,3.96-145.49,54.46-20.23,26.45-43.25,52.34-70.49,73.81-27.64,21.79-54.25,30.87-86.16,11.76-9.43-4.2-20.75-8.04-4.3-18.23,6.41-3.97,7.1-12.37,13.25-16.48,21.81-8.37,39.09-22.59,56.34-38.31,27.98-25.51,60.56-45.66,89.12-70.73,2.92-2.56,7.57-3.44,9.82-6.44,20.15-26.82,48.67-27.42,78.17-25.82,33.33,1.81,66.87-3.33,100.05,2.93,15.7,11.22,31.08,4.26,43.51-4.39,15.69-10.91,35.72-12.9,49.73-26.54,2.68-2.61,7.59-3.11,11.32-2.13,12.88,3.38,23.96,2.19,33.91-8.09,4.94-5.11,12.18-2.67,18.67-.74,24.83,7.39,25.73,7.82,39.46-14.22,8.62-13.84,15.1-28.59,30.12-37.41,4.8-2.82,5.59-10.12,8.22-15.38,6.92-9.36,11.58-20.65,22.59-26.52,8.87-.81,15.78-15.71,26.03-4.79,10.08,10.74-.97,19.13-4.95,28.14-6.9,15.63-16.84,29.63-24.37,44.9-11.98,24.29-8.1,35.38,15.56,46.27,10.75,4.95,20.98,10.82,30.76,17.47,16.8,11.43,33.29,22.6,55.35,22.05,13.69-.34,24.33,9.44,34.34,17.66,19.61,16.11,39.92,29.14,66.88,25.24l-.24,.06c16.46,18.59,34.41,34.93,59.91,39.97,6.28,5.67,12.57,11.35,18.85,17.02,13.46,26.4,34.31,45.07,60.64,58.01,6.24,6.53,12.48,13.06,18.73,19.59,4.26,11.26,14.08,15.86,24.14,20.19,1.18,1.18,2.36,2.36,3.55,3.54,8.28,13.15,18.29,21.26,35.58,16.79,11.71-3.03,21.27,4.78,30.42,11,13.81,9.39,26.16,22.18,45.59,12.89,5.57-2.66,11.25,1.81,16.16,5.18,12.94,8.88,26.81,16.2,40.32,24.12,5.45,3.19,10.78,8.43,17.58,2.47l11.99-.09c21.42,11.34,44.12,19.59,66.91,27.59,3.05,1.07,5.89,2.95,9.28,2.94,54.65-.09,99.63,24.43,141.94,55.75,1.17-.02,2.29,.21,3.36,.71,9.34,6.35,20.07,10.67,27.85,19.27,1.23,1.32,2.47,2.65,3.7,3.97,10.58,13.05,12.67,30.9,24.4,43.3,5.64,3.77,10.61,9.33,18.55,6.99,6.71,9.64-3.49,11.94-7.37,16.99Z"/><path class="cls-26" d="M1111.76,123.01c-12.98-8.76-23.24,.35-31.7,7.08-34,27.03-65.71,56.69-105.9,75.64-9.79,4.61-17.7,17.26-28.1,24.46-6.74-5.35-13.81-7.04-16.73,2.99-13.08,44.96-44.38,75.63-77.55,106.37-20.95,19.42-34.34,46.18-44.4,73.61-16.44,27.73-35.19,53.37-64.96,68.26-5.61,2.8-16.38,12.97-17.23-2.16-1.87-33.3-23.15-37.03-48.89-36.42-8.58-3.92-12.43-11.49-14.45-19.97-3.61-15.13,5.15-26.01,20.81-25.47,9.14,.31,18.2,1.92,27.43,.97,12.55-1.3,20.17-7.63,17.88-20.52-2.35-13.22-12.69-7.47-20.6-6.54-10.77,1.28-21.97,6.11-31.29-3.97,.8-9.96,10.2-10.76,16.27-14.87,15.6-10.58,20.78-18.4,23.09-41.38-18.97,18.46-34.89,35.83-58.6,40.17-10.74,4.3-11.27,20.25-24.56,21.65-2.13-4.4-4.26-8.8-6.4-13.2,12.59-35.89,42.5-58.83,65.7-86.63,15.59-18.68,36.59-18.38,59.33-11.98,27.03,7.61,53.98,9,76.66-13.86,10.25-10.32,5.79-23.65,10.5-34.97,2.26-5.42,2.18-11.58,8.73-14.13,7.34,7.22,2.27,16.36,3.84,24.46,1.43,7.36-.19,17.48,10.4,18.75,9.14,1.09,14.17-6.41,17.37-13.76,10.87-24.89,7.68-48.73-6.28-71.62-3.97-6.51-11.45-11.43-9.95-20.61,26.6-5.46,51.58,6.13,77.58,7.37,32.65,1.56,61.23-8.62,89.21-24.86,24.28-14.1,49.05-32.37,80.04-21.13,16.28,5.91,23.38,15.29,2.72,26.26Z"/><path class="cls-26" d="M1993.94,585.68c-4.24-7.87-8.48-15.73-12.73-23.6-6.17-4.19-12.5-8.06-20.37-11.92,.33,10.98,7.77,18.26,5.91,27.52,2.63,6.71,5.27,13.42,7.9,20.13,8.75,16.8,13.14,35.37,21.27,52.44,1.85,3.88,1.16,7.61-2.02,10.7-28.13-28.18-56.39-56.28-79.1-89.23-13.2-19.16-29.61-34.9-48.88-47.74-4.9-3.26-11.11-5.41-9.69-13,1.3-6.92,7.68-8.59,12.94-10.88,32.42-14.15,60.39,.79,85.63,17.22,35.42,23.06,62.6,53.72,64.38,99.53,.17,4.27-1.38,8.61-2.13,12.92-16.11-10.29-18.76-27.63-23.1-44.08Z"/><path class="cls-1" d="M862.21,135.36c25.76,24.9,35.16,54.35,23.82,88.99-4.64,14.18-12.3,29.4-29.89,24.12-16.21-4.86-10.39-22.32-11.33-34.98-.37-5.04,1.28-10.22,2.02-15.34,10.45-15.3,10.13-30.93-.63-45.46-7.96-10.75-20.11-14.9-33.18-12.47-17.86,3.32-25.08,16.9-29.55,33-2.04,7.35,.56,20.95-10.17,19.62-10.21-1.27-5.81-14.22-5.93-22.03-.33-20.81,9.33-36.84,27.84-45.88,24.25-11.85,46.88-7.23,67.01,10.44Z"/><path class="cls-26" d="M1119.41,217.94c-8.29-.29-16.38,.89-18.07-7.49-2.21-10.98,8.33-8.47,13.48-9.54,35.45-7.39,61.16-36.33,96.7-43.22,5.75-1.12,11.84-3.61,17.27-2.65,14.69,2.59,34.15,4.11,34.99,22.35,.72,15.77-18.2,17.33-30.24,19.82-38.41,7.96-77.19,14.16-114.12,20.73Z"/><path d="M1480.28,588.93c-15.36,7.77-31.9,9.13-43.84-3.49-28.14-29.74-68.84-31.27-102.23-48.79-19.09-10.01-36.98-22.03-56.49-31.64-16.13-7.95-12.36-27.68-7.1-41.44,7.2-18.84,18.51-36.13,28.45-53.87,3.59-6.4,13.05-11.43,5.03-20.03-9.29-9.98-9.67,7.82-16.77,6.04-1.84-.46-3.92,.02-5.89,.07-2.46-20.14,11.67-31.89,23.49-44.22,3.83-3.99,11.32-4.28,13.24,4.57,3.48,35.45-11.04,65.24-28.98,94.21-21.97,35.48-20.61,38.52,15.38,56.1,13.48,6.59,25.5,16.11,38.82,23.09,20.72,10.84,47.01,6.69,65.59,23.77,18.74,9.7,30.71,34.62,58.32,25.26,2.83-.96,8.59,6.72,12.99,10.38Z"/><path d="M2081.62,905.93c-36.24-18.63-71.41-41.06-111.61-48.93-28.87-5.65-57.9-8.6-84.82-21.75-8.33-4.07-16.92-6.95-21.71-15.6,13.73-1.31,24.63,6.77,36.73,10.96,44.45,15.42,92.96,17.11,135.31,39.58,17.35,9.21,37.31,15.34,46.1,35.73Z"/><path d="M1851.5,819.75c-1.31,7.18-5.46,8.36-11.34,5.11-15.41-8.51-31.35-16.24-45.88-26.06-8.37-5.65-14.1-8.41-24.47-3.57-14.75,6.89-25.15-6.16-36.04-13.18-12.71-8.19-23.52-15.71-41.05-11.93-13.27,2.86-26.69-4.83-26.86-22.83,26.73,14.22,58.99,25.9,84.37,29.75,40.04,6.07,65.82,33.77,101.27,42.7Z"/><path class="cls-12" d="M838.6,179.77c-2.05,13.97-6.11,25.57-24.47,26.26-11.09,.42-15.18-5.74-14.17-13.61,1.73-13.58,5.84-27.93,22.31-30.49,11.65-1.81,15.45,7.01,16.33,17.84Z"/><path class="cls-2" d="M1993.91,660.94c-6.42-21.05-12.84-42.09-19.25-63.14,15.79,15.96,19.35,37.92,26.7,57.62,8.19,21.96,25.44,31.66,43.94,41.27-27.35,2.78-40.51-14.84-51.38-35.74Z"/><path d="M1619.44,703.99c-27.88-2.66-58.04-31.51-60.64-58.01,20.21,19.34,40.43,38.67,60.64,58.01Z"/><path class="cls-2" d="M2045.18,696.63c43.5-7,83.76,22.53,82.72,60.69-14.17-38.5-47.96-50.26-82.72-60.69Z"/><path d="M1539.95,628.96c-30.53,2.51-47.19-15.77-59.91-39.96,19.97,13.32,39.94,26.64,59.91,39.96Z"/><path class="cls-2" d="M1993.94,585.68c7.7,14.69,15.41,29.39,23.11,44.08-.44,10.14,11.32,16.39,8.67,27.23-17.11-20.87-32.58-42.47-31.78-71.32Z"/><path class="cls-2" d="M2140.94,973.18c-19.19-8.2-19.44-27.08-24.4-43.3,16.21,9.88,21.05,26.17,24.4,43.3Z"/><path class="cls-2" d="M2171.43,901.35c9.99,14.37,10.11,29.62,4.05,45.43-7.3-14.61-11.64-29.49-4.05-45.43Z"/><path class="cls-2" d="M2132.45,775.68c8.36,11.83,24.13,18.96,23.22,36.66-11.75-9.68-24.25-18.88-23.22-36.66Z"/><path class="cls-2" d="M2112.83,925.91c-11.42-3.34-22.81-6.72-27.85-19.27,13.9-.25,22.78,6.76,27.85,19.27Z"/><path d="M1662.3,743.76c-14.71,1.24-24.89-2.94-24.14-20.19,9.41,5.1,18.72,10.32,24.14,20.19Z"/><path class="cls-2" d="M2174.3,952.96c2.51,9.73,7.37,20.26-8.12,23.87,2.7-7.96,5.41-15.91,8.12-23.87Z"/><path class="cls-17" d="M1318.16,356.13c-10.77-8.89-14.51,.42-18.67,7.5-6.24,10.59-12.06,21.42-18.06,32.15-10.22,4.18-8.55,18.97-19.82,22.2-16.2,20.35-34.15,39.47-48.08,61.4-8.12,12.78-17.73,12.48-28.57,8.17-12.59-5.01-23.95-6.74-34.68,3.51-1.87,1.79-4.69,3.46-7.12,3.08-32.99-5.12-54.69,17.6-80.12,31.6-11.49,6.32-24.72,8.97-38.21,5.31-47.4-.25-95.53-5.54-141.94,1.14-27.86,4.01-48.5,32.71-71.63,51.39-32.04,25.87-64.8,50.83-96.97,76.55-7.75,6.2-16.8,6.87-25.68,8.85-8.75,18.47-26.81,21.97-43.06,20.6-19.22-1.62-32.61-16.93-40.02-33.98-10.51-24.16-10.66-49.48,.22-74.18,2.5-30.04,21.79-49.19,43.37-66.85,13.32,7.65,28.1,8.05,42.84,8.7-10.35,11-21.19,21.6-30.92,33.12-8.79,10.41-11.23,17.31,5.6,26.25,45.7,24.28,72.25-7.63,101.27-31.16,31-25.14,57.12-56.4,94.03-74.04,17.87-8.54,32.36-12.92,53.65,.42,30.03,18.82,65.63,7.34,99.62,2.8,39.21-5.24,64.01-33.99,95.85-51,21.1-11.27,41.38-13.14,64.11-4.8,19.71,7.23,37.14-3.86,53.32-13.47,32.07-19.05,55.49-48.05,81.85-73.64,3.94-3.82,7.51-11.13,14.32-6.32,2.95,2.09,5,8.14,4.41,11.91-.89,5.67,1.77,16.47-10.91,12.79Z"/><path class="cls-28" d="M676.42,364.97c12.86,8.08,25.92,2.62,37.86-1.33,12.69-4.19,19.29-1.07,20.43,11.31,1.08,11.68,1.33,24.99-13.86,28.25-9.36,2.01-19.44,.63-29.19,.95-7.8,.26-16.23-7.62-23.33,2.46-6.79,9.64-1.14,17.42,2.74,25.62,1.69,3.56,3.49,7.07,5.24,10.6-1.29,.2-2.86,0-3.83,.66-33.95,23.62-34.5,3.27-31.33-23.36,1.96-16.47-3.17-32-8.85-47.23,9.02-6.28,8.69-20.74,21.06-24.1,1.25,14.58,17.17,8.21,23.06,16.16Z"/><path class="cls-21" d="M807.39,413.16c.81-35.72,22.98-62.34,46.21-83.06,31.76-28.32,58.06-57.75,70.2-98.91,2.17-7.37,5.98-16.11,15.1-16.19,10.49-.09,5.3,9.76,7.17,15.18-10.41,39.02-28.75,75.21-59.79,99.81-30.73,24.36-45.56,62.33-78.88,83.16Z"/><path class="cls-29" d="M697.38,471.48c-4.7,3.38-7.09,5.84-9.99,7.05-9.36,3.91-18.74,8.1-28.52,10.41-2.26,.53-1.06-5.66,1.28-7.84,9.54-8.92,19.11-18.26,37.24-9.62Z"/><path d="M605.75,581.42c10.05,12.54-2.24,24.85-2.19,37.45,.12,26.5,10.24,45.74,28.14,59.96,19.93,15.83,39.13,1.09,56.91-9.85,.68,7.73-1.88,14.87-8.96,17.52-17.59,6.59-.09,9.48,1.04,14.01-4.01,.03-8.02,.06-12.03,.09-20.9,14.28-52.82,1.45-72.73-27.81-15.34-22.54-17.2-46.31-10.57-71.71,5.66-7.73,8.04-18.85,20.37-19.65Z"/><path class="cls-2" d="M1966.75,577.67c-1.35-2.22-3.69-4.35-3.88-6.67-.81-9.95-20.51-18.72-7.42-26.9,11.11-6.94,19.02,8.74,25.77,17.97-12.87-2.26-9.18,10.83-14.47,15.6Z"/><path class="cls-15" d="M834.84,652.7c5.4-14.87,18.57-19.17,31.81-23.37-9.06,9.89-19.41,18.02-31.81,23.37Z"/><path class="cls-14" d="M1412.33,752.25h91.75c-20.32-24-41.14-42.36-65.21-53.57-57.14-26.61-116.06-52.15-180.63-48.79-55.83,2.91-109.44-2.89-162.11-20.56-11.93-10.54-23.86-21.09-35.8-31.63,3.04-12.92,14.73-12.55,23.44-12.68,39.68-.56,78.68-6.16,117.76-12.29,23.39-3.66,45.37,1.74,66.16,14.35,51.73,31.38,109.54,48.35,166.32,67.45,48.55,16.34,88.8,45.65,127.04,78.28,6.4,5.46,15.61,11.54,9.57,22.99-45.88,.02-91.76,.12-137.63-.05-6.97-.03-14.56,2.17-20.66-3.51Z"/><path class="cls-13" d="M1570.63,755.81c-11.45-27.39-38.82-37.98-59.74-54.88-34.72-28.06-76.99-42.44-119.16-54.92-44.41-13.14-86.64-31.02-126.72-53.56-17.38-9.77-34.29-16.52-53.93-14.48-47.41,4.92-94.77,10.31-142.13,15.73-2.99,.34-5.75,2.61-8.62,3.99-4.93-3.25-10.28-6.03-14.64-9.92-3.14-2.81-7.07-7.22-6.9-10.74,.32-6.57,6.85-7.17,12.18-6.94,54.34,2.33,107.33-3.82,158.46-23.51,18.82-7.25,35.65-.06,52.03,9.41,45.03,26.04,90.75,50.33,143.24,58.41,14.89,2.29,28.81,8.09,41.29,17.5,48.1,36.28,105.14,60.07,147.03,105.01,5.56,5.96,17.81,11.28,14.12,19.1-4.11,8.71-16.63,2.89-25.42,3.39-3.62,.2-7.39-2.32-11.09-3.6Z"/><path d="M1028.78,562.06c23.32-8.81,47.52-1.65,71.2-3.96-23.32,8.81-47.52,1.65-71.2,3.96Z"/><path d="M1024.84,531.04c28.47,.27,48.73-20.37,73.18-30.19,32.71-13.15,62.94-23.98,99.28-16.13,12.86,2.78,20.91-17.43,27.13-28.79,9.17-16.74,23.65-26.47,37.19-37.95-.4,11.95-4.37,21.13-16.49,26.3-16.73,7.13-19.37,26.22-26.43,39.42-10.09,18.87-21.16,14.17-33.24,9.53-11.91-4.58-22-9.78-29.24,5.73-.48,1.03-2.23,2.36-3.1,2.18-43.74-9.25-71.31,29.88-109.61,36.16-5.22,.86-17.82,10.9-18.67-6.25Z"/><path d="M1160.75,537.76c-5.14-.91-8.66-3.78-8.49-9.15,.17-5.18,4.38-6.11,8.56-5.7,4.99,.5,9.36,2.74,8.68,8.51-.52,4.4-4.33,6.25-8.75,6.33Z"/><path class="cls-2" d="M676.42,364.97c-6.89-6.53-35.23,17.57-23.06-16.16,19.91-9.39,41.49-16.38,52.04-38.64,2.04-4.3,7.21-6.38,11.95-4.26,5.55,2.48,6.35,7.39,5.16,13.27-5.17,25.65-22.81,38.5-46.09,45.78Z"/></g></g></g></svg>