<?xml version="1.0" encoding="UTF-8"?><svg id="Layer_2" xmlns="http://www.w3.org/2000/svg" viewBox="0 0 6000 2416.14"><defs><style>.cls-1{fill:#7ce9fa;}</style></defs><g id="Layer_1-2"><path class="cls-1" d="M4317.07,33.42c66.95,19.25,160.61,30.83,257,35.73,29.25,1.49,60.53,2.6,83.51,7.68,26.11,5.78,35.36,15.41,37.88,24.46,2.52,9.06-.1,18.32,8.78,27.08,11.6,11.46,41.5,20.83,62.26,31.32,22.84,11.53,34.68,25,25.44,37.82-9.24,12.82-41.8,24.75-87.61,29.15-71.14,6.83-149.68-5.73-195.14-21.93-45.47-16.2-70.23-35.97-113.57-52.58-6.99-2.68-14.75-5.34-25.4-6.93-28.42-4.25-63.32,.63-89.62,5.76-68.79,13.44-132.98,30.86-152.68,53.08-9.49,10.71-8.02,21.85-9.41,32.85-2.04,16.12-10.38,32.18-24.82,47.84-7.36,7.98-20.31,17-49.59,19.4-35.75,2.93-70.13-6.22-83.38-15.61-34.81-24.65,9.69-52.11,63.76-74.12,54.06-22,120.59-43.37,135.32-69.43,18.64-32.98-49.79-64.38-83.41-96.5-16.59-15.85-24.68-32.09-27.79-48.5h-1039.69c-12.1,5.13-22.07,10.66-29.81,16.34-21.97,16.13-27.51,33.55-27.43,50.72,.05,11.28,2.68,22.84,19.37,33.2,16.42,10.18,45.25,18.48,72.5,26.83,30.06,9.21,58.81,18.73,86.16,28.53,15.56,5.58,30.94,11.38,38.39,18.06,11.68,10.47,2.57,21.71-7.56,32.29-26.11,27.26-58.78,56.11-26.81,82.92,10.49,8.8,27.9,18.02,17.02,26.78-6.38,5.13-21.6,9.09-37.18,12.52-64.06,14.12-153.88,23.08-230.24,14.43-74.38-8.43-113-30.68-129.49-51.9-16.48-21.22-18.03-43.52-49.58-63.47-15.84-10.01-40.52-19.54-76.66-24.46-59.3-8.07-130.81-1.87-191.75,5.27-60.94,7.14-127.03,15.32-191.28,10.73-5.56-.4-11.18-.91-15.62-1.89-9.51-2.11-11.35-5.82-10.72-9.13,2.8-14.61,38.73-26.98,69.16-39.12,30.43-12.14,57.59-27,40.67-40.91-7.97-6.55-25.24-12.24-29.27-19.05-7.22-12.2,28.85-22.69,54.45-32.96,49.82-19.98,64.81-44.7,71.21-68.68,.62-2.34,1.16-4.69,1.61-7.05h-199.89c17.6,5.25,36.41,10.3,51.26,16.11,30.58,11.96,42.76,28.07,20.19,41.26-22.59,13.2-74.13,21.11-103.51,33.31-5.75,2.39-10.71,5.39-6.38,7.98,2.98,1.78,9.62,2.88,15.82,3.91,29.61,4.91,58.04,10.78,76.65,18.67,18.61,7.9,26.07,18.14,12.41,26.74-18.08,11.38-67.91,16.98-113.97,17.08-39.08,.08-78.73-2.92-116.77-.51-66.24,4.2-104.81,23.05-165.94,31.09-31.42,4.13-68.33,5.17-102.26,2.88-60.68-4.1-107.35-18.03-168.34-21.79-21.33-1.31-43.55-1.32-64.88-2.62-25.1-1.54-49.08-5.02-64.93-10.47-15.85-5.45-22.61-12.96-14.5-19.52,8.15-6.59,29.76-11.43,53.22-14.35,23.47-2.92,49.15-4.24,74.11-6.06,94.09-6.85,185.11-22.76,220.41-47.16,11.19-7.73,16.1-16.73,2.37-24.16-9.97-5.4-28.44-9.28-47.29-12.54-53.12-9.21-113.52-15.02-167.34-23.94-26.05-4.32-51.02-9.65-70.97-15.91h-143.22c3.18,1,6.46,1.97,9.85,2.92,48.68,13.58,115.49,21.28,170.86,32.87,55.38,11.59,101.56,30.37,81.6,48.45-16.56,15-73.27,24.25-129.24,28.6-55.97,4.36-115.5,5.32-169.64,11.11-29.19,3.12-58.88,8.56-65.04,16.83-7.27,9.75,21.09,18.79,51,24.67,35.17,6.9,75.54,11.93,107.51,19.89,35.23,8.76,58.52,20.92,64.6,33.71,3.58,7.54,.49,15.84-17.96,21.61-21.05,6.58-56.95,8.26-89.07,7.3-70.42-2.11-130.87-14.44-179.62-28.24-23.43-6.63-45.53-13.81-74.3-18.71-34.53-5.87-75.75-7.98-114.97-11.07-39.22-3.09-79.54-7.74-102.48-16.83-22.74-9-23.84-21.23-7.68-31.21,16.16-9.98,47.84-17.77,83.96-22.7,40.75-5.56,87.23-7.78,126.6-14.02,76.49-12.11,112.37-39.9,80.19-62.12-19.06-13.16-57.5-23.56-97.28-32.8-13.96-3.24-28.62-6.55-40.95-10.26h-201.02c48.39,10.72,109.16,17.15,164.2,25.56,13.42,2.05,26.87,4.31,36.36,7.58,10.6,3.66,15.38,8.31,17.45,12.91,5.99,13.27-9.59,27.14-41.9,37.32-14.18,4.47-31.9,8.3-52.75,10.06-52.85,4.46-108.37-5.48-141.59-17.38-14.86-5.32-27.76-11.26-47.92-15.13-39.85-7.64-94.94-4.96-141.13-.59-46.19,4.37-93.91,10.21-142.08,7.84-8.63-.42-17.42-1.16-23.81-2.78-9.69-2.45-11.76-6.31-13.49-9.86-4.88-10.02-13.7-21-44.01-26.99-12.07-2.39-26.47-3.73-40.32-5.27-47.63-5.29-90.84-13.32-126.56-23.29H0V21.86c2.89-.1,5.77-.22,8.61-.37,35.94-1.8,69.26-6.17,103.84-9.35,14.12-1.3,28.99-2.42,43.8-1.91,41.8,1.43,63.51,14.39,101.13,19.49,31.68,4.3,70.82,2.49,103.33,6.31,42.62,5.01,63.35,19.3,53.02,31.48-10.33,12.18-46.27,21.96-87.99,27.49-36.72,4.86-78.36,6.93-112.99,12.79-37.81,6.41-64.17,16.96-78.56,28.32-14.39,11.36-17.63,23.54-16.6,35.54,.9,10.4,4.91,20.84,.86,31.19-4.05,10.35-17.19,20.88-45.27,28.05-19.38,4.95-46.93,7.86-73.19,7.49v59.34c33.2-2.24,63.43-7.8,80.73-15.76,27.04-12.44,22.52-27.81,26.57-42.17,4.05-14.36,24.31-30.66,74.86-35.5,42.77-4.09,92.49,2.38,117.13,12.62,24.64,10.24,28.19,23.22,22.09,35.3-6.1,12.08-20.95,23.7-30.51,35.62-5.72,7.13-9.53,14.58-3.42,21.68,9.91,11.53,44.91,21.1,47.22,32.92,1.59,8.17-13.53,16.16-35.71,21.78-22.17,5.62-50.77,9.1-79.99,11.44-70.49,5.63-145.33,5-218.96,3.88v186.09c14.12-1.5,27.69-3.33,40.4-5.62,30.5-5.49,54.09-13.25,78.75-20.56,45.4-13.45,96.76-25.82,157.66-33.71,60.9-7.88,132.45-10.94,196.97-5.52,32.35,2.72,63.39,7.81,80.28,15.7,21.07,9.84,16.72,22.19,5.13,33.11-3.57,3.36-7.96,6.77-16.54,9.4-18.81,5.76-52.68,6.11-79.44,3.45-26.76-2.66-49.17-7.69-73.77-11.58-24.75-3.91-52.54-6.7-81.24-6.91-28.7-.22-58.37,2.36-78.34,7.9-23.04,6.39-30.59,15.79-30.69,24.69-.13,12.07,14.45,25.16,52.06,31.76,41.54,7.3,95.91,4.54,145.05,2.63,62.87-2.43,135.62-2.08,178.79,10.43,32.47,9.41,39,23.23,39.62,36.05,.34,7.08-.7,14.28-8.77,21.02-8.07,6.74-23.99,13.06-47.31,16.37-45.74,6.5-100.45-.08-149.99-4.09-45.08-3.65-93.91-5.05-139.19-1.59-66.65,5.09-116.03,19.69-172.26,30.56-28.21,5.45-64.11,10.03-97.16,9.4v224.25c10.46-4.18,19.63-8.6,27.34-13.17,17.45-10.33,34.15-22.97,74.99-25.87,38.22-2.71,77.39,5.61,91.37,15.53,13.98,9.93,9.64,20.93,6.57,31.51-2.77,9.56-4.34,19.15-4.7,28.75-.19,5.11,.54,10.67,12.7,14.59,19.74,6.38,57.51,4.99,86.1,1.86,37.56-4.12,71.92-10.23,110.3-13.76,38.38-3.53,84.03-4.07,116.58,2.43,36.48,7.29,45.44,21.15,39.45,33.26-3.21,6.47-10.06,12.95-24.09,18.28-13.7,5.21-33.53,9.07-47.37,14.25-32.56,12.19-25.85,28.68-36.56,43.4-7.23,9.95-23.08,19.43-45.94,27.5-11.72,4.13-26.17,8.05-44.76,9.49-17.58,1.36-36.31,.32-54.39-.42-47.15-1.92-95.49-1.71-142.38,.62-38.54,1.91-76.88,5.27-115.98,4.5-17.13-.34-33.5-1.44-49.24-3.08v19.77c.31,.02,.62,.04,.93,.06,41.98,2.73,74.06,13,116.92,14.44,50.98,1.71,94.04-9.42,142.04-14.34,33.4-3.43,71.03-3.8,105.29-1.06,17.42,1.4,34.34,3.65,46.6,7.26,20.25,5.96,24.78,14.56,26.72,22.62,2.99,12.45,2.01,24.98-2.94,37.39-3.49,8.76-9.44,17.8-28.19,25.03-22,8.49-58.74,13.39-83.43,21.33-44.75,14.38-41.33,35.13-58.51,53.29-31.46,33.25-133.39,57.98-235.18,78.72-9.52,1.94-19.6,3.91-30.24,5.42v36.21c11.82-2.23,23.68-4.4,34.98-6.58,50.37-9.73,94.95-21.73,128.86-35.68,44.57-18.34,69.68-39.5,103.67-59.41,33.99-19.91,80.37-39.53,151.96-50.02,71.59-10.49,173.14-8.72,221.83,8.85,32.42,11.7,35.44,27.39,31.98,41.95-2.25,9.47-7.16,19.27-26.16,27.27-25.48,10.73-71.9,16.48-103.31,26.01-29.08,8.82-44.04,20.89-40.46,32.63,.75,2.47,2.36,4.97,6.92,7.13,9.13,4.31,27.85,6.31,45.04,8.13,54.2,5.72,110.61,13.5,136.39,27.52,20.5,11.15,17.73,24.47,5.05,36.42-15.92,15-49.14,29.42-100.79,36.55-56.61,7.82-128.9,6.2-179.28,16.65-30.74,6.37-48.05,16.23-64.26,25.71-25.95,15.17-51.91,30.35-77.86,45.52-24.34,14.23-59.72,30.58-117.99,31.29-38.73,.48-72.45-6.41-107.48-10.87-14.85-1.89-32.31-3.18-49.09-3.37v28.61c30.23-.46,60.78,.93,88.35,4.32,29.56,3.64,56.89,9.42,89.33,10.04,37.13,.71,71.82-5.77,93.47-13.9s33.14-17.83,46.94-27.11c22.02-14.81,50.62-28.92,85.02-41.92,40.81-15.43,94.84-30.07,164.21-33.42,51.78-2.5,107.62,2.06,145.44,11.88,37.82,9.82,56.67,24.65,49.1,38.62-7.92,14.61-41.78,27.12-63.32,40.71-21.55,13.59-27.93,31.24,11.65,41.49,33.71,8.74,88.38,8.83,124.96,16.69,32.45,6.97,44.81,19.37,35.85,30.27-8.97,10.89-36.75,20.22-70.82,26.6-19.25,3.61-41,6.42-64.23,7.33-60.62,2.39-122.92-8.23-181.63-3.52-43.53,3.49-74,14.69-117.66,18.06-42.66,3.28-88.01-1.65-125.96-7.83-37.95-6.18-73.9-13.83-116.92-16.75-66.2-4.5-132.83,2.96-193.77,12.18v204.64c44.58-1.24,88.03-5.49,124.37-12.54,29.99-5.82,54.87-13.29,81.21-20.26,26.34-6.98,55.11-13.63,89.58-17.24s75.84-3.73,106.48,1.84c16.58,3.01,29.01,7.45,45.57,10.48,24.31,4.44,55.83,5.41,84.7,3.91,40.83-2.11,84.36-8.67,120.86-3.32,17.08,2.5,28.19,7.2,35.53,12.04,25.99,17.12,12.42,36.77-12.14,54.05-14.55,10.24-33.1,20.48-32.93,31.43,.1,6.49,6.85,12.86,7.28,19.35,.54,8.02-8.9,16.06-26.47,22.55-8.48,3.13-19.23,5.98-32.75,7.32-14.49,1.43-30.54,1-45.77,.3-47.48-2.17-93.45-6.72-134.86-13.32-37.82-6.03-72.58-13.86-114.65-17.31-42.07-3.45-95.88-.89-116.15,9.59-13.33,6.89-9.02,15.36-19.66,22.58-10.59,7.19-36.7,12.55-65.32,13.42-21.84,.66-43.53-1.1-65.09-2.25-9.76-.52-19.77-.9-29.83-1.09v42.44c34.44-5.97,70.33-11.18,109.34-14.5,73.03-6.2,161.21-4.31,214.74,10.4,21,5.77,35.47,13.23,41.05,21.16,21.73,30.89-88.65,62.13-48.97,91.71,23.32,17.38,91.29,27.43,127.18,43.19,36.6,16.07,34.55,37.89-5.03,53.45-39.57,15.56-114.52,24.01-183.61,20.71-68.74-3.28-126.89-16.85-196.27-18.95-19.55-.59-39.4-.16-58.43,1.15v42.62H264.02c22.82-8.82,50.54-16.46,85.9-21.35,64.32-8.9,146.88-7.62,201.66-20.31,35.43-8.21,52.53-21.73,43.03-34.04-13.65-17.67-73.07-29.52-123.07-41.58-28.18-6.8-56.73-16.05-48.31-25.96,10.68-12.56,69.99-16.24,117.95-16.81,22.85-.27,46.97-.34,67.02,2.62,20.56,3.03,33.34,8.7,46.71,13.87,33.18,12.84,82.35,24.77,140.54,24.45,43.32-.24,81.47-7.17,119.11-12.94,42.34-6.48,88.32-11.83,136.92-12.83,48.6-1.01,100.34,2.85,133.55,12.43,11.14,3.21,20.1,7.07,23.81,11.35,7.78,8.96-8.51,18.3-30.92,25.26-54.42,16.92-142.19,23.95-197.28,40.72-49.07,14.93-64.22,34.76-65.74,55.11h149.38c-.39-9.64,13.55-19.75,35.15-27.64,35.34-12.93,86.98-21.78,132.58-32.14,45.6-10.35,88-23.67,92.83-39.65,3.79-12.53-16.39-24.77-42.69-35.18-26.3-10.41-58.95-19.57-85-30.02-8.33-3.34-16.28-7.17-14.22-11.16,1.57-3.04,8.8-5.66,16.78-7.86,40.73-11.23,108.74-14.53,161.54-7.84,44.17,5.6,79.63,17.46,128.45,17.86,40.9,.34,76.3-7.83,99.15-16.94,22.85-9.11,37.83-19.61,63.55-28.15,41.09-13.65,111.36-21.06,174.85-16.88,63.5,4.17,114.55,20.64,112.36,38.18-2.41,19.31-61.73,34.63-123.6,44.5-61.87,9.87-131.77,16.87-182.33,30.62-36.98,10.05-61.33,23.4-68.26,37.41-2.42,4.89-2.74,9.94,2.3,14.69,7.21,6.8,24.63,12.41,38.29,18.46,34.65,15.33,43.04,34.36,27.37,51.75h226.93c-48.81-16.85-94.75-34.6-114-55.15-5.66-6.05-8.82-12.53-1.37-18.44,6.43-5.1,20.13-9.27,33.67-13.25,45.57-13.38,93.16-26.27,142.6-38.62,34.64-8.65,70.61-17.17,96.49-27.8,34.03-13.98,48.47-30.76,55.49-47.35,5.6-13.23,5.31-27.92-26.23-38.2-32.19-10.49-86.64-13.21-135.58-16.69-48.94-3.49-102.81-10.16-115.8-23.3-9.09-9.19,5.97-19.25,31.48-25.84,25.51-6.59,59.93-10.16,94.52-12.19,64.05-3.76,131.92-2.73,193.97,2.96,99.12,9.09,181.83,29.54,284.47,35.14,96.29,5.26,205.56-2.79,288.36,11.41,25,4.29,46.16,10.76,52.27,18.55,7.59,9.69-8.95,19.6-30.34,27.67-78.93,29.74-222.35,43.74-297.91,74.11-63.04,25.34-68.21,57.97-56.03,88.26,7.88,19.61,22.13,39.13,29.63,58.72h124.58c-6.46-23.36-6.72-46.72,6.04-69.87,24.42-44.3,103.58-88.51,244.53-112.45,65.14-11.07,156.64-16.67,215.4-3.28,42.78,9.75,53.06,25.98,72.22,40.14,23.65,17.48,64.67,33.23,117.66,45.21,26.38,5.96,56.35,11.07,89.87,13.23,25.13,1.62,51.41,1.53,77.09,.73,120.43-3.71,232.54-23.45,293.18-51.63,18.64-8.66,32.67-18.05,53.9-26.27,21.23-8.22,51.76-15.43,88.64-16.87,53.26-2.07,102.51,8.29,134.38,19.93,55.5,20.27,79.72,45.46,94.58,70.3,17.93,29.99,23.88,60.5,17.83,90.83h87.71c28.08-36.93,51.91-74.42,36.45-111.76-17.4-42.01-93.24-84.54-230.6-105.19-65.77-9.89-142.94-14.48-201.13-27.35-77.95-17.23-105.95-45.49-129.66-71.84-18.83-20.93-37.65-41.86-56.48-62.78-8.61-9.58-17.29-19.38-13.41-29.18,9.1-22.95,83.17-39.83,156.55-51.85,73.38-12.02,155.37-22.67,201.03-42.22,32.04-13.72,42.13-30.28,67.19-45.01,65.23-38.36,230.05-59.92,387.06-58.82,89.82,.63,184.05,8.64,240.08,27.49,34.36,11.56,51.48,26.18,60.43,40.78,37.81,61.64-57.65,122.7-129.9,182.08-29.08,23.9-53.11,51.62-3.24,72.91,32.39,13.82,89.42,21.79,143.79,29.12,19.17,2.58,39.49,5.24,60.9,4.88,54.41-.91,76.41-18.57,106.63-30.75,48.69-19.63,150.75-28.26,232.55-19.66,81.8,8.6,134.88,33.54,120.95,56.83-14.53,24.28-88.89,42.29-158.68,58.21-96.89,22.1-193.78,44.2-290.67,66.3-35.17,8.02-71.07,16.28-93.92,27.04-23.78,11.2-31.65,24.29-36.65,37.11-6.95,17.81-9.15,35.74-6.65,53.63h129.45c-30.83-50.48,36.02-105.2,177.91-139.66,71.2-17.29,157.22-29.42,237.79-43.44,80.56-14.02,158.72-30.84,201.67-53.89,42.95-23.05,42.11-53.6-24.06-72.27-62.08-17.52-162.39-20.41-252-17.97-101.18,2.76-214.76,10.06-296.08-6.34-63.31-12.76-83.37-36.94-65.49-57.64,17.88-20.71,67.2-38.44,121.48-53.91,40.99-11.69,86.27-22.63,139.85-29.76,117.65-15.65,268.62-10,369.36,12.61,76.56,17.18,122.34,41.96,177.19,64.35,54.85,22.38,128.48,44.17,226.6,49.06,37.69,1.88,78.4,1.23,111.87,6.25,49.52,7.42,65.48,24.4,69.56,39.58,9.41,35.06-18,71.24,19.15,104.95,17.71,16.07,49.04,30.35,89.55,42.79v-209.93c-28.57-2.6-58.64-4.39-87.77-5.72-83.36-3.81-173.47-6.32-237.49-21.15-78.01-18.07-93.93-49.05-158.34-70.65-64.47-21.62-168.14-31.1-257.51-44.93-44.69-6.91-89.91-16.39-100.26-29.95-5.6-7.34,.02-15.05,11.13-21.93,36.08-22.32,134.51-35.96,223.2-30.92,46.19,2.62,88.59,9.64,135.69,10.54,49.46,.94,98.64-5.29,132.7-14.97,34.06-9.67,54.01-22.47,63.03-35.56,10.82-15.69,8.12-32.96,42.26-46.02,33.9-12.98,96.07-18.32,154.85-19.83,22.68-.58,46.83-.64,66.68,2.37,4.33,.66,8.26,1.43,11.83,2.29v-36.92c-30.62,.27-61.57,1.82-90.77,4.09-69.65,5.42-135.04,14.51-205.7,18.89-30.63,1.9-62.82,2.89-93.39,.91-64.52-4.16-107.45-20.16-163.26-29.79-61.95-10.69-142.53-13.2-211.95-6.6-49.63,4.72-98.33,13.94-149.84,11.01-57.85-3.29-88.48-20.21-103.83-35.54-8.38-8.37-14.81-17.08-10.77-25.68,7.14-15.18,47.16-28.32,96.88-35.8,49.72-7.48,108.06-9.9,165.06-9.86,43.85,.03,88.09,1.42,131.32-.55,43.23-1.98,86.97-8.13,104.92-18.87,12.26-7.33,10.96-15.69,14.21-23.68,7.93-19.54,45.51-38.09,102.29-50.5,39.32-8.59,96.59-14.18,140.1-7.19,27.11,4.35,42.03,12.5,53.97,20.35,43.88,28.88,73.02,62.1,166.44,80.65,17.04,3.38,35.25,6.07,54.32,8.21v-88.66c-17.77-.9-35.05-2.34-51.41-4.49-64.53-8.49-105.87-26.78-171.42-34.68-51.72-6.23-112.99-5.05-165.36,.78-52.37,5.82-96.79,15.9-135.24,27.09-15.21,4.42-30.35,9.19-50.9,11.6-26.43,3.1-58.08,1.67-82.86-2.28-42.2-6.74-66.03-20.48-62.19-33.62,3.84-13.14,33.45-25.3,74.53-32.52,41.08-7.22,92.48-9.69,141.14-7.93,20.01,.72,40.26,2.12,60.13,1.15,31.62-1.54,55.6-8.88,67.6-16.89,12-8,14.45-16.76,19.22-25.29,4.78-8.53,12.62-17.31,33.11-23.96,25.34-8.22,69.29-11.94,107.6-9.09,10.67,.79,21.11,2.09,28.76,4.24,14.34,4.03,16.25,10.11,17.38,15.67,2.2,10.87,4.39,21.74,6.59,32.62,1.36,6.74,2.86,13.64,12.83,19.84,21.7,13.48,78.41,20.47,132.52,22.64,5.97,.24,11.96,.43,17.97,.6v-30.97c-6.28-1.41-11.95-3.05-16.83-4.96-8.93-3.49-14.16-7.56-18.8-11.61-15.5-13.53-25.68-27.53-45.83-40.6-20.15-13.08-52.12-25.52-99.1-31.93-36.56-4.99-79.32-5.92-120.05-4.61-34.31,1.1-69.85,4.05-92.59,11.03-22.34,6.86-28.64,16.46-30.15,25.57-1.51,9.11,.8,18.39-7.97,27.19-8.77,8.81-31.86,17.35-65.12,19.18-19.08,1.05-38.88-.22-57.15-2.03-28.62-2.84-56.08-7.19-74.18-13.79-42.17-15.36-21.44-37.25,11.99-54.09,33.43-16.84,78.96-33.06,83.4-52.11,3.71-15.91-22.11-31.08-43.7-45.92-34.72-23.88-59.91-49.18-57.59-74.81,.65-7.13,3.75-14.52,17.6-20.61,25.66-11.28,79.72-14.91,128.59-16.5,25.35-.83,52.01-1.33,75.54,1.34,48.33,5.48,64.34,21.66,66.89,35.73,2.55,14.07-.85,29.37,29.65,40.83,19.89,7.47,53.25,12.22,87.44,12.45,34.19,.23,68.39-4.07,89.65-11.26,26.43-8.94,31.53-21.11,30.77-32.52-.76-11.41-6.28-22.99,2.91-34.14,12.31-14.93,53.13-27.74,104.65-34.12v-15.23c-14.4,1.61-29.06,2.99-44.21,3.97-23.2,1.5-48.56,1.95-70.16-.77-27.25-3.44-43.31-11.3-50.11-19.17-6.81-7.87-6.16-16.06-10.01-24.07-8.26-17.17-38.4-33.72-86.62-45.22-48.22-11.5-114.66-17.63-178.65-15.46-104.2,3.54-181.87,26.74-275.4,39.57-18.25,2.5-39.03,4.66-58.83,3.24-16.2-1.16-28.87-4.56-38.79-8.19-44.4-16.25-46.48-38.65-24.51-57.92,26.57-23.3,94.94-45.12,185.1-47.98,39.13-1.24,78.51,1.14,117.9,1.37s82.8-2.34,106.29-10.83c46.61-16.85-14.79-43.6,29.11-60.96,12.26-4.85,31.34-8.18,51.25-10.59,18.03-2.18,37.76-3.73,57.42-3.17,43.4,1.25,74.43,12.52,84.23,23.94,9.8,11.42,4.01,23.33,4.97,35.04,.95,11.72,10.67,24.34,43.47,32.08,37.5,8.84,93.41,8.69,142.71,6.59,4.93-.21,9.87-.43,14.83-.66v-12.59c-2.06,.28-4.13,.55-6.21,.81-25.81,3.3-55.74,5.92-82.54,3.25-18.15-1.81-32.1-5.82-42.76-10.15-69.96-28.47-15.26-67.94-60.33-99.82-9.19-6.5-23.18-12.78-44.73-16.64-51.41-9.2-122.42-1.12-166.49,10.51-37.44,9.87-65.74,22.22-81.71,35.65-12.55,10.55-17.66,21.78-35.05,31.83-17.39,10.05-51.82,19.13-93.09,19.08-34.44-.04-65.3-6.59-81.88-14.7-16.58-8.1-21.21-17.56-23.29-26.79-5.38-23.9,5.86-49.09,55.88-68.91,54.45-21.58,153.06-36.59,169.54-62.27,14.94-23.29-45.52-44.97-107.91-61.64-62.39-16.67-134.25-33.47-151.83-56.63-19.91-26.23,37.58-52.47,108.76-71.22,31.78-8.37,67.27-15.97,108.25-20.64,37.03-4.22,83.68-5.55,114.48,1.4,13.55,3.06,22.3,7.34,30.16,11.6,20.02,10.84,36.3,22.18,48.56,33.83,5.72,5.43,11.02,11.17,25.04,15.38,22.29,6.69,60.29,7.62,93.3,6.18,33.01-1.45,65.06-4.78,98.5-4.85,8.02-.02,16.75,.23,22.54,1.72,5.48,1.41,6.96,3.58,7.95,5.6,4.87,9.93,4.56,20.33-9.43,29.62-27.52,18.29-100.31,28.36-144.54,44.11-31.63,11.26-47.96,25.56-45.27,39.64,1.41,7.42,8.41,15.02,25.78,20.81,25.62,8.53,68.94,11.65,109.69,12.28,40.75,.63,82-.7,122.22,1.16,12.44,.58,24.59,1.46,36.39,2.59v-19.3c-40.52-2.2-79.62-6.21-109.42-13.73-9.92-2.5-18.86-5.47-22.36-9.01-7.33-7.4,10.34-14.69,25.03-21.25,58.11-25.94,80.04-57.56,60.59-87.38-3.45-5.28-8.36-10.64-19.72-15.05-29.54-11.47-89.88-12.72-141.83-12.63-19.48,.04-39.95,.04-57.05-2.46-19.59-2.87-31.24-8.6-36.96-14.39-9.85-9.99-5.03-20.59-10.31-30.82-7.13-13.82-32.27-26.43-56.52-38.77-8.24-4.19-16.66-8.68-15.37-13.41,1.59-5.83,17.6-10.64,34.73-14.25,46.67-9.84,107.58-14.31,166.85-13.49,59.27,.82,116.78,6.71,165.94,15.64,5.55,1.01,11,2.06,16.39,3.13v-27.49c-43.81-7.76-92.55-13.42-144.01-16.08-83.59-4.32-174.19-.28-244.02,12.79-19.28,3.61-37.17,7.95-48.82,13.43-21.5,10.1-19.71,22.97-42.92,32.8-28.5,12.07-95.07,16.18-140.36,8.67-45.45-7.54-62.09-23.87-52.26-37.97,9.83-14.1,41-26.41,73.75-37.74s68.31-22.38,89.48-35.56c8.82-5.49,15.07-11.47,12.57-17.41-1.87-4.43-8.48-8.61-15.46-12.65-23.31-13.52-51.54-26.42-84.13-38.48-33.54-12.4-73.39-25.04-76.54-40.34-1.99-9.65,11.38-19.12,29.93-27.39,23.32-10.4,56.57-19.66,98.95-23.89,42.38-4.23,94.54-2.55,126.25,6.11,36.72,10.02,40.71,27,82.82,35.36,19.48,3.87,45.55,5.23,69,3.61,23.52-1.63,42.94-5.93,63.82-9.26,20.87-3.33,46.68-5.77,69.13-3.29,19.77,2.19,31.93,7.8,35.48,13.46,3.55,5.66-.1,11.45-3.74,17.1-10,15.55-20.01,31.1-30.01,46.65-2.69,4.18-5.27,8.63,.91,12.54,7.11,4.49,24.09,7.19,40.22,9.44,29.22,4.08,59.26,7.73,89.95,10.94v-35.62c-10.53-1.54-19.95-3.6-27.56-6.18-32.63-11.07-26.57-26.77-22.53-40.85,4.04-14.08,.25-30.58-42.55-38.79-62.62-12.01-164.09,2.41-221.31-11.4-23.26-5.61-31.58-14.84-25.65-23.08,5.92-8.24,24.47-15.53,47.31-21.27,17.81-4.47,40.17-9.06,40.75-15.6,.39-4.43-9.84-8.42-21.22-11.63-36.62-10.35-87.94-16.04-139.4-19.62-51.46-3.58-104.57-5.35-155.56-9.4-37.37-2.97-78.56-8.82-84.35-19.17-6.11-10.92,31.5-20.12,69.36-24.43,94.36-10.74,207.32-4.45,291.7,11.17,32.34,5.99,62.51,13.4,100.33,16.25,53.8,4.06,110.09-1.94,162.47-7.17,9.2-.92,18.63-1.81,28.21-2.62v-21.4c-47.93,6.52-96.4,14.33-149.36,13.09-69.46-1.62-119.32-18.01-179.72-27.36-96.49-14.94-229.59-10.06-307.64,11.27-25.58,6.99-45.41,15.43-72.35,22.04-26.94,6.61-64.66,11.34-99.71,8.6-40.2-3.15-63.25-15.87-55.33-26.91,7.92-11.04,41.02-19.92,79.38-24.43,29.6-3.48,62.38-4.73,91.62-8.41,36.41-4.59,64.88-12.72,85.17-22.15h-246.25c-22.52,6.04-43.89,12.39-63.97,19.03-26.57,8.78-51.54,18.42-59.51,29.53-9.2,12.83,5.32,25.93,20.01,38.38,8.68,7.35,17.73,14.83,34.61,21.07,16.88,6.24,43.18,11.15,71.91,11.12,55.73-.05,94.73-17.57,150.44-17.83,53.44-.25,87.6,14.87,134.02,21.99,37.9,5.81,83.71,6.1,127.35,6.16,10.36,.02,22.17,.2,28.72,2.36,3.45,1.14,4.75,2.63,5.45,4.09,5.34,11.04-18.87,21.98-52.28,28.58-33.41,6.6-74.73,9.57-115.46,11.68-52.57,2.72-109.77,4.7-148.56,14.61-40.95,10.46-50.07,27.23-43.62,42.3,4.4,10.29,13.81,21.81-8.92,30.19-11.05,4.07-28.11,6.63-45.26,8.67-60.05,7.14-129.63,9.27-192.19,3.89-62.56-5.37-116.55-18.75-134.58-35.7-19.89-18.71,4.11-38.46,22.2-57.3,18.09-18.84,28.62-40.45-12.86-56.4-33.76-12.98-98.64-20.74-110.15-36.27-5.89-7.95,4.29-16.03,8.95-24.05,4.65-8.01,1.52-17.47-22.8-22.28-11.91-2.35-27.04-3.17-41.74-3.61-42.69-1.27-85.83,.15-128.76-.19-42.93-.33-87.95-2.72-120.25-10.32-31.4-7.39-45.68-18.42-52-29.69h-153.93c15.45,12.36,41.3,23.89,74.44,33.42Zm-819.66,267.11c-62.16-3.24-58.7-6.93-208.11-17.63-61.18-4.38-76.65-28.14-76.42-45.14,.41-29.46,89.37-57.23,61.1-85.7-28.3-28.5-155.49-40.14-221.82-63.66-8.02-2.84-15.28-5.95-18.01-9.44-3.32-4.25,.36-8.67,5.53-12.78,12.3-9.79,33.61-18.92,63.82-25.33,54.94-11.65,131.22-12.94,200.63-10.46,69.41,2.48,137.35,8.19,207.35,8.67,104.69,.73,207.89-10.29,312.13-7.57,29.66,.77,59.44,2.73,84.68,6.98,39.52,6.65,63.66,18.09,86.18,29.06,35.93,17.5,72.84,35.98,72.78,55.96-.1,33.54-101.45,60.12-148.4,91.21-22.02,14.58-32.02,30.25-51.44,45.09-19.42,14.84-50.82,29.48-102.01,37.13-77.23,11.54-113.82,11.17-267.99,3.6Zm370.85,9.99c25.33-5.49,62.32-1.26,91.7,2.5,38.55,4.94,83.22,8.82,123.31,4.87,38.55-3.8,63.57-14.17,73.92-24.84,10.35-10.67,8.69-21.86,10-32.88,2.98-25.13,22.59-50.62,71.47-72.07,10-4.39,25.92-9.12,44.62-8.01,9.43,.56,16.77,2.56,22.25,4.69,23.13,9,21.54,21.04,11.66,31.65-9.87,10.61-27.04,20.74-32.46,31.58-9.51,19,18.42,38.15,58.81,53.96,18.97,7.43,40.96,14.44,53.75,22.77,37.3,24.28-11.83,53.27,22.49,77.87,9.71,7.51-.18,13.17-17,18.31-16.82,5.14-40.73,8.1-63.73,11.04-23,2.94-46.65,6.17-62.08,11.61-23.38,8.25-23.49,20.01-46.96,28.24-12.68,4.45-36.23,7.57-54.42,4.83-19.16-2.88-20.53-10.01-19.75-15.9,2.59-19.49,2.27-39.29-16.79-58.12-19.06-18.82-58.94-36.8-120.7-47.08-41.38-6.89-90.74-10.09-129.22-18.1-15.56-3.24-29.38-7.39-34.94-12.46-5.56-5.07-1.24-11.15,14.08-14.47Zm750.28,279.51c-26.11,3.74-45.53,10.46-72.96,13.44-51.48,5.59-108.5-3.78-163.99-3.23-53.04,.53-104.3,10.16-155.65,6.55-24.08-1.69-44.98-6.38-55.46-12.44-7.93-4.58-9.94-9.71-12.63-14.72-4.46-8.31-11.07-16.54-19.75-24.61-7.75-7.2-17.41-14.41-34.19-20.4-32.58-11.64-82.56-23.48-148.96-21.26-17.64,.22-30.74-5.18-28.29-9.87,2.45-4.69,15.72-8.46,30.05-11.23,17.62-3.4,37.77-5.81,58.7-7.36,83.51-6.17,172.05,1.45,251.78,10.54,79.72,9.09,160.01,19.93,246.6,20.44,53.67,.32,107.96-3.39,160.58-.54,49.15,2.67,93.81,11.41,115.83,23.51s19.84,27.31-7.84,38.53c-9.36,3.8-22.16,7.25-38.47,8.49-11.74,.9-24.22,.58-36.41,.39-30.36-.48-62.13-.09-88.96,3.75Zm-729.53,31.54c-60.99,3.09-107.9,15.93-163.85,23.14-10.12,1.3-21.27,2.45-32.32,1.92-19.72-.94-30.76-6.64-35.45-11.87-4.7-5.23-6.68-10.99-19.96-15.01-11.21-3.4-28.31-4.86-44.64-6.05-47.28-3.46-96.16-5.99-139.61-12.07-43.45-6.08-81.83-16.59-88.54-29.62-6.8-13.21,19.82-26.07,52.16-36.2,64.03-20.06,151.64-33.46,238.6-45.82,39.61-5.31,69.9-2.29,97.18,2.26,27.28,4.54,49.29,10.99,73.83,16.55,70.9,16.05,163.48,24.75,226.47,43.03,46.48,13.48,73.36,31.71,73.87,50.08,.15,5.56-2.12,11.22-10.56,16.3-8.44,5.07-23.72,9.52-43.39,11.24-38.21,3.35-76.65-3.96-115.24-6.98-22.16-1.73-45.86-2.04-68.54-.89Zm-1463.3,1043.08c84.47-4.55,166.71-12.25,252.36-14.74,95.63-2.77,199.8,1.92,269.96,19.59,78.93,19.87,98.33,51.38,99.02,80.43,.48,20.25-10.86,43.09-71.02,55.31-36.44,7.4-84.38,9.36-130.08,9.31-45.69-.05-91.37-1.88-136.95-1.01-75.48,1.44-119.86,17.35-218.41,16.21-159.18-2.73-320.08,1.98-473.32,13.86-44.49,3.45-99.74,6.78-131.14-2.36-10.77-3.13-16.5-7.3-19.66-11.48-13.98-18.53,18.08-37.18,22.83-56.04,6.84-27.17-48.73-54.78-137.13-68.13-23.66-3.57-53.3-7.78-53.04-15.07,.07-1.89,2.35-3.72,4.77-5.49,22.79-16.67,61.99-32.07,116.95-41.97,54.95-9.89,126.45-13.75,189.27-8.17,59.61,5.29,105.63,18.12,162.22,25.42,77.64,10.02,168.91,8.86,253.37,4.31Zm-172.58-36.48c-30.14-3.87-58.8-8.62-90.16-11.72-43.5-4.3-91.53-5.23-136.89-2.67-45.21,2.55-87.16,8.45-132.56,10.75-45.4,2.3-99.35-.12-124.6-10.51-30.81-12.67-4.49-29.16,6.7-43.99,14.78-19.59,.76-39.89-17.52-59.27-18.29-19.38-41-38.7-43.81-58.68-2.81-19.98,17.37-41.26,72.36-54.74,76.08-18.65,193.22-17.32,294.05-11.65,37.44,2.1,75.42,4.76,106.96,10.56,77.56,14.29,94.18,42.51,137.61,64.91,37.36,22.02,89.89,24.74,130.17,37.7,86.8,27.92,248.56,35.41,315.62,67.01,17.63,8.31,27.18,18.25,18.8,27.55-10.21,11.33-44.81,19.88-81.03,26.31-132.82,23.57-312.08,26.89-455.71,8.45ZM3675.11,476.1c-21.13,1.22-39.3,5.41-60.89,5.73-20.11,.3-38.53-2.81-54.83-5.99-15.45-3.01-32.12-7.23-29.15-12.29,1.89-3.23,11.4-5.69,20.27-7.93,62.03-15.68,117.8-33.13,166.06-51.98,19.25-7.52,37.57-15.41,46.2-24.24,9.15-9.35,6.9-19.2,10.39-28.83,.59-1.61,1.42-3.29,4.73-4.65,3.79-1.55,10.27-2.46,16.7-3.13,35.41-3.67,76.21-1.84,110.08,2.76,33.87,4.6,61.98,11.72,88.65,18.97,18.14,4.93,36.27,10.14,45.82,16.58,8.34,5.62,9.56,11.78,13.85,17.72,6.14,8.5,18.8,16.67,36.94,23.83,11.18,4.41,24.62,8.56,30.78,13.63,8.27,6.81,1.76,14.55-13.73,20.38-15.49,5.83-39.1,9.86-64.32,12.2-46.08,4.96-75.13,10.17-104.8,16.39-37.58,7.88-91.48,9.71-135.18,4.59-21.51-2.52-40.12-6.51-60.49-9.64-20.37-3.13-44.15-5.44-67.1-4.11Zm-228.41-16.02c43.08,3.46,56.02,13.89,62.47,23.36,2.27,3.34,2.56,6.84-1.42,10.06-8.56,6.92-34.13,11.04-56.48,15.18-67.49,12.51-120.7,30.49-150.81,50.97-7.12,4.84-13.05,10.08-9.56,15.2,5.48,8.05,32.16,13.63,57.12,18.33,89.62,16.86,183.88,32.93,252.6,55.79,15.63,5.2,30.09,10.88,36.15,17.36,4.35,4.66,4.18,9.53,2.58,14.31-4.48,13.41-20.1,26.54-45.4,38.16-12.8,5.88-28.63,11.53-50.39,15.03-21.76,3.51-50.44,4.52-72.5,1.15-36.56-5.59-38.68-19.13-43.02-30.36-3.63-9.42-11.97-18.7-24.71-27.53-4.42-3.07-9.63-6.17-18.71-8.38-13.66-3.32-33.24-3.99-50.83-5.46-46.37-3.9-81.63-13.91-123.98-20.3-39.54-5.97-84.93-8.73-124.41-14.72-10.06-1.53-19.9-3.31-26.81-5.8-10.04-3.62-12.82-8.34-12.52-12.85,.94-14.08,28.34-27.04,36.79-40.94,7.63-12.55-.43-25.36-.18-38.08,.25-12.71,11.1-26.48,47.2-34.71,18.64-4.25,42.23-6.6,62.31-10.35,43.55-8.14,69.65-22.63,118.83-27.98,42.91-4.67,91.43-1.06,135.7,2.58Zm-241.26,652.13c-36.23-7.8-74.38-15.59-119.28-18.79-37.81-2.69-82.85-2.57-107.97-10.62-17.1-5.48-19.24-13.17-20.61-20.31-3.75-19.59-7.44-39.43,7.43-58.63,32.02-42.46,15.6-80.07,101.08-110.83,51.73-18.61,128.59-31.63,211.4-38.34,82.81-6.71,171.34-7.35,257-4.15,42.68,1.6,86.35,4.31,120.73,11.29,35.16,7.13,57.3,18.16,67.94,29.64,10.64,11.48,10.71,23.47,8.45,35.28-2.35,12.25-7.28,24.63-23.38,36.12-16.09,11.48-44.45,22.1-84.56,27.99-58.36,8.56-135.34,6.47-186.24,17.96-46.08,10.4-54.76,28.23-60.22,44.32-3.93,11.58-7.86,23.17-11.79,34.75-2.46,7.25-5.08,14.66-16.51,21.26-11.43,6.6-33.62,12.33-60.58,13.07-30.97,.85-58.61-4.78-82.9-10.02Zm-314.28,71.13c-.3,18.93,6.4,38.77,44.43,54.71,31.46,13.19,82.79,23,103.21,37.68,19.77,14.2,6.2,30.33-18.75,43.94-15.99,8.72-37.23,17.02-67.19,22.47-65.39,11.89-154.22,7.44-227.06-.76-72.83-8.2-144.05-11.25-221.14-21.14-18.36-2.32-28.54-7.87-30.7-13.29-2.17-5.42,2.25-10.85,5.69-16.21,11.84-18.51,11.74-38.11-15.5-55.41-17.28-10.97-44.71-20.56-64.88-31.16-40.35-21.22-50.11-45.68-50.24-69.51-.13-23.82,9.87-48.61,56.56-68.87,21.24-9.21,49.3-17.14,77.83-24.8,29.23-7.86,60.39-15.73,99.25-19.53,25.83-2.53,53.78-3.1,81.26-2.88,47.66,.39,94.97,3.16,139.18,7.95,30.02,3.25,59.92,7.74,77.25,15.08,13.35,5.66,17.94,12.46,21.01,19.11,18.72,40.63-9.56,81.69-10.2,122.62Zm115.19-323.94c-20.59,13.41-24.55,28.19-26.46,42.69-1.91,14.5-2.09,29.18-15.84,43.21-4.93,5.04-15.13,10.76-34.37,11.41-21.87,.74-37.43-5.62-43.54-11.3-12.5-11.62-9.84-23.95-8.36-36.04,5.78-47.41-86.68-110.8-93.22-145.48-8.24-35.52,49.69-72.53,158.48-92.86,108.79-20.33,266.79-21.31,371.53,.49,20.82,4.33,39.81,9.61,49.86,16.15,13.91,9.06,8.98,19.52-4.34,28.64-14.41,9.87-38.45,19.02-41.81,29.58-4.35,13.68,26.91,26.41,31.54,40.09,6.37,18.83-45.85,37.82-114.77,41.72-37.95,2.15-78.06,.18-115.67,2.72-52.4,3.54-92.44,15.55-113.03,28.96Zm-632.08-335.53c17.35-.29,35.37-.69,51.56,1.01,20.45,2.14,34.7,7.42,40.88,13.07,6.18,5.65,5.31,11.69,2.87,17.54-3.95,9.49-13.4,19.57-40.58,25.72-34.69,7.86-85.21,6.77-130.51,7.56-53.52,.94-108.6,5.54-145.29,16.04-27.82,7.96-42.54,18.5-62.88,27.95-29.71,13.81-72.46,25.57-123.14,33.89-27.03,4.44-65.84,7.48-87.35,1.24-14.91-4.33-13.35-11.01-10.86-16.86,13.15-26.84,57.46-46.32,66.21-69.72,5.05-13.5,5.68-27.26,20-40.28,5.44-4.94,13.1-9.85,26.26-13.6,18.79-5.36,46.69-7.76,73.95-8.58,48.36-1.45,96.84,1.43,145.04,3.23,57.54,2.14,115.88,2.74,173.86,1.78Zm105.57,55.78c29.14-21.53,87.05-30.7,149.45-36.03,74.48-6.37,158.83-3.88,226.35,6.7,67.51,10.58,117.11,29.07,132.96,49.62,10.39,13.47,5.13,28.7-28.55,39.06-36.59,11.26-98.67,14.63-135.09,25.93-51.45,15.96-32.62,40.57-58.78,60.48-19.47,14.82-68.31,27.15-126.27,29.31-18.75,.7-38.23,.38-56.12,2.04-35.12,3.26-64.4,13.87-100.09,11.1-21.14-1.64-33.39-7.57-39.53-13.25-12.23-11.31-9.33-23.56-23.7-34.69-9.03-6.99-24.56-13.26-34.34-20.18-15.79-11.18-15.85-23.45-15.7-35.4,.13-10.73,.34-21.63,11.24-31.96,20-18.96,73.86-34.14,98.16-52.73Zm510.69-96.77c12.53,9.45,28.36,18.61,37.49,28.33,9.14,9.72,11.13,20.32-3.72,29.53-9.34,5.79-29.35,11.28-52.68,10.53-14.89-.48-27.03-3.38-36.95-6.4-11.9-3.62-13.07-3.33-29.52-7.71-30.44-6.76-62.77-13.11-99.36-17.1-36.59-3.99-78.1-5.47-115.84-2.34-43.94,3.64-84.36,13.34-129.44,10.91-33.81-1.82-58.06-10.41-65.85-19.43-7.79-9.02-2.24-18.44,4.23-27.54,6.46-9.09,13.85-18.34,9.61-27.53-6.13-13.28-35.93-25.08-43.44-38.3-.91-1.61-1.37-3.37,1.91-4.74,2.24-.93,5.91-1.54,9.62-2.02,32.28-4.24,70.91-1.38,104.12,2.3,33.21,3.68,67.41,8.23,103.12,7.17,38.32-1.14,72.16-9.45,79.78-19.59,5.38-7.16-.94-15.07,11.7-21.54,12.75-6.53,41.71-9.67,69.1-10.19,48.87-.93,96.35,4.77,137.1,12.07,7.85,1.41,15.74,2.93,20.83,5.06,5.45,2.28,7.2,5.06,7.7,7.77,2.78,14.97-28.34,28.76-39.4,43.45-11.85,15.75-.18,32.16,19.89,47.3Zm-571.78-73.71c14.51,12.85,38.98,25.04,44.05,38.4,5.93,15.59-16.99,31.78-59.99,42.38-43,10.6-105.04,15.35-162.4,12.44-42.86-2.17-83.56-8.35-127.09-7.59-44.14,.77-96.79,19.56-139.03-.08-27.88-10.57-59.71-20.39-94.84-29.27-18.28-4.62-38.16-9.09-62.07-11.15-33.29-2.86-69.25-.67-104.19-.33-9.53,.09-19.94-.04-27.18-1.7-5.5-1.26-8.15-3.19-10.15-5.05-17.89-16.66-.11-35.14,37.18-49.3,17.02-6.46,37.92-12.2,52.76-19.04,20.18-9.3,28.16-20.46,22.26-31.1-1.72-3.1-4.57-6.27-1.99-9.32,3.47-4.11,15.96-7.16,28.1-9.83,32.53-7.15,67.24-13.55,101.9-19.93,26.03-4.8,52.8-9.69,83.45-11.72,47.16-3.13,96.8,.94,140.91,6.4,111.75,13.84,209.73,38.37,246.42,69.91,13.66,11.74,18.62,24.11,31.91,35.89Zm-685.34-83.63c23.73,10.52,12.51,24.35-9.8,35.09-22.31,10.74-54.53,19.87-75.26,30.84-14.64,7.74-23.23,16.31-25.07,24.98-2.01,9.48,3.93,19.12-3.16,28.42-8.99,11.79-38.76,21.98-76.11,28.63s-81.73,10.01-126.24,11.4c-8.74,.27-18.1,.44-25.85-.68-6.36-.92-10.68-2.57-14.98-4.13-15.57-5.64-33.84-10.74-54.2-15.15-18.35-3.97-38.42-7.37-55.73-11.67-17.31-4.29-32.1-9.7-35.93-15.94-3.83-6.24,5.67-13.34,26.59-16.25,145.09-22.44,91.66-51.23,99.78-79.59,2.9-10.12,3.87-20.37-3.45-30.32-5.8-7.88-16.7-15.43-24.23-23.21-7-7.23-11.07-14.64-13.74-22.08-2.01-5.59-1.2-12.34,16.54-15.31,11.28-1.89,26.3-1.47,38.08,.17,11.78,1.65,20.97,4.35,29.58,7.07,33.62,10.6,62.69,22.24,86.46,34.61,5.74,2.99,11.27,6.05,19.56,8.57,26.73,8.11,72.48,8.25,112.61,9.33,43.98,1.18,91.66,5.04,114.54,15.2Zm-465.06,163.43c33.19,6.11,60.53,14.53,96.5,19.37,44.78,6.04,100.75,5.64,144.31-1.01,58.71-8.97,90.99-27.57,151.22-35.79,58.55-7.99,134.14-3.78,182.86,8.04,48.72,11.82,71.92,30.03,70.67,47.65-1.25,17.63-24.89,34.71-57.76,49.98-28.72,13.34-64.55,25.55-90.78,39.25-41.74,21.8-57.63,46.88-50.63,71.32,2.8,9.77,9.12,19.67,2.08,29.28-7.04,9.61-31.62,19.16-67.56,20.85-44.65,2.11-78.84-4.84-113.35-11.5-104.3-16.55-212.57-35.6-261.72-65.33-12.87-7.78-21.29-16.12-37.26-23.48-13.85-6.38-32.96-11.83-48.21-17.98-28.98-11.69-43.15-25.56-52.51-39.38-13.92-20.55-18.15-41.48-20.54-62.35-1.38-12.05,1.94-26.3,39.76-32.81,33.88-5.83,79.71-2.24,112.9,3.87Zm521.82,244.38c-6.03-3.11-7.37-6.7-8.4-10.2-3.5-11.92-2.38-25.39,29.32-33.79,30.59-8.1,78.22-8.52,121.05-9.48,42.56-.96,86.94-3.2,119.92-10.48,50.64-11.19,62.74-31.58,113.82-42.63,63.12-14.06,86.03-16.62,114.58-13.65,29.47,3.06,33.03,13.69,31.68,22.17-2.76,17.3-5.52,34.61-8.28,51.91-2.21,13.84-4.04,28.26,16.84,40.93,21.16,12.85,63.48,22.48,85.4,35.24,21.28,12.38,21.06,27.28-.58,39.61-21.64,12.33-64.29,21.87-113.39,25.35-16.69,1.18-34.27,1.69-51.29,.91-43.22-1.98-75.79-11.9-94.63-22.53-18.84-10.63-27.57-22.35-44.84-33.17-6.7-4.2-14.87-8.32-26.97-11.53-34.38-9.13-88.85-8.62-136.78-10.35-37.13-1.34-73.39-4.4-106.73-8.99-16.15-2.22-32.35-5.01-40.73-9.34Zm637.85,93.46c31.52-14.64,54.16-32.23,97.9-44.61,20.53-5.47,41.7-10.94,67.29-14.55,25.59-3.62,56.59-5.19,83.7-2.49,27.08,2.7,46.77,9.34,56.87,16.6,10.1,7.27,11.78,15.16,11.91,22.92,.37,22.32-10.97,45.24,13.77,66.55,18.73,16.13,57.11,30.25,75.01,46.45,18.32,16.59,13.2,35.28-19.62,50.17-32.81,14.89-94.5,25.34-158.93,25.26-22.22-.03-44.76-1.23-66.47,.05-37.77,2.23-64.84,11.43-101.52,14.72-41.11,3.69-90.73-1.57-111.35-11.81-27.4-13.61-3.8-31.19-26.09-45.45-23.83-15.25-89.92-21.54-138.14-31.83-24.71-5.27-45.79-12.02-56.51-20-10.72-7.97-10.14-17.24,5.56-24.59,16.09-7.54,45.74-12.29,76.02-15.35,51.76-5.24,111.45-6.94,151.34-17.23,16.34-4.21,27.9-9.56,39.24-14.82Zm-245.64,106.38c38.29,4.48,75.49,10.59,99.3,19.8,25.74,9.96,33.28,22.6,31.32,34.71-1.97,12.11-12.65,23.97-20.31,35.91-16.84,26.25-19.09,53.17-6.68,79.59,6.56,13.95,17.19,27.85,16.55,41.91-.64,14.06-13.92,28.68-49.16,39.09-14.99,4.43-33.96,8.01-55.45,9.6-14.44,1.07-29.62,1.21-44.58,1.03-131.09-1.57-241.55-26.92-369.45-34.79-47.07-2.9-97.83-3.56-138.41-10.59-64.65-11.2-81.67-34.87-73.19-55.4,8.48-20.53,36.18-40.42,36.93-61.08-1.85-17.57,2.86-20.21,10.29-29.3,6.89-8.43,26.5-15.64,45.63-22.57,41.99-15.22,85.07-30.73,143.09-41.5,107.33-19.94,254.46-20.4,374.1-6.4Zm-799.06,205.31c115.49,8.83,199.54,35.6,308.51,49.15,89.92,11.18,191.7,12.77,290.7,13.91,99,1.14,200.53,2.16,292.04,12.36,91.52,10.2,172.39,31.81,180.8,58.32,5.44,17.13-19.48,33.97-51.57,48.85-21.57,10-46.59,19.47-74.63,28.24-14.03,4.39-29.2,8.68-48.27,11.37-60.1,8.46-131.19-1.47-193.24-8.85-75.14-8.94-164.36-14.06-238.03-4.28-63.31,8.41-101.68,25.98-131.69,43.14-30.01,17.17-56.84,35.49-108.56,48.4-15.43,3.85-36.35,7.32-56.46,5.63-33.24-2.79-31.61-15.52-21.57-24.47,19.51-17.39,45.01-34.54,50.34-52.65,5.33-18.1-13.66-37.98-67.53-48.97-21.24-4.33-46.42-7.01-71.24-9.63-86.45-9.13-172.91-18.26-259.36-27.4-95.26-9.66-132.71-26.08-163.1-43.1-30.39-17.02-39.29-37.49-11.59-54.83,13.88-8.69,36.24-16.27,61.84-22.77,81.99-20.81,204.09-30.73,312.6-22.43Zm1540.91,466.95c-29.75-15.18-29.17-33.26-47.73-49.67-25.03-22.14-86.95-41.07-165.49-50.59-46.7-5.66-97.87-8.06-146.36-12.5-57.34-5.26-111.83-13.63-151.51-25.92-39.68-12.29-63.28-28.79-56.06-44.94,4.06-9.1,17.49-17.74,34.08-25.74,33.39-16.12,81.57-30.45,143.18-38.61,61.6-8.16,137.41-9.52,198.75-1.21,55.9,7.57,98.76,22.6,160.52,25.37,45.15,2.02,90.3-3.1,130.51-8.97,79.07-11.55,151.67-26.53,235.69-35.2,87.1-8.99,184.4-10.71,275.14-4.87,44.86,2.89,89.68,7.88,120.44,17.11,48.92,14.68,51.8,36.34,50.42,56.03-1.68,24.01-6.89,49.08-51.69,69.86-34.74,16.11-90.38,28.21-130.31,43.43-57.48,21.91-51.05,50-117.5,73.95-59.36,20.26-140.69,37.15-235.32,41.53-94.63,4.38-202.06-6.22-246.77-29.04Zm903.5-84.4c-18.08-.77-36.35-1.76-52.49-4.08-26.37-3.79-44.24-10.7-60.03-17.52-12.35-5.34-24.31-10.96-27.58-17.18-3.99-7.6,5.35-15.18,13.84-22.51,40.59-35,92.55-47.17,70.58-112.36-8.89-13.53,10.91-27.58,43.3-38.22,32.39-10.64,76.26-18.29,121.22-24.86,117.46-17.14,254.92-28.06,385.13-19.91,34.74,2.17,69.14,5.81,95.49,12.26,22.76,5.58,38.38,12.99,49.27,20.72,12.74,9.05,18.58,19.95-2.21,27.86-11.43,4.35-29.21,7.11-44.42,10.52-47.22,10.59-69.14,27.72-69.39,44.24-.24,16.52,18.81,32.62,41.8,47.95,18.87,12.58,40.68,26.71,20.53,39.14-9.97,6.15-29.03,10.87-48.41,15.11-147.99,32.35-348.16,46.83-536.66,38.84Zm-41.16-231.02c-6.96,5.47-14.94,11.03-29.77,15.22-15.88,4.49-38.13,6.95-60.41,8.55-121.25,8.69-252.07-5.06-374.58,2.24-26.09,1.55-51.49,4.05-78.06,4.82-26.57,.77-55.63-.48-74.94-5.44-17.94-4.61-24.33-11.5-29.23-18.04-12.52-16.7-20.68-33.74-41.94-49.78-22.1-16.68-57.88-31.91-77.88-48.78-8.91-7.51-14.6-15.3-16.93-23.16-3.93-13.27,2.6-27.32,30.94-38.24,28.34-10.92,82.36-17.69,129.27-13.39,50.06,4.59,76.78,19.4,122.41,26.59,38.16,6.01,92.5,5.36,121.72-3.56,23.87-7.29,26.39-17.86,26.2-27.57-.29-14.97-4.14-30.07,5.22-44.82,9.36-14.76,33.91-29.53,79.2-38.27,40.14-7.75,91.57-9.89,140.99-10.21,45.28-.3,94.26,1.13,128.03,9.24,40.51,9.72,46.97,25.84,49.69,40.41,8.73,46.58,7.07,93.26,5.41,139.9-3.25,27.73-28.69,53.36-55.32,74.3Zm207.18-43.29c-41.1-8.52-51.41-23.87-53.84-37.8-5.59-32.14,14.58-64.17,18.15-96.33,3.54-31.94-.07-60.03-39.23-97.85-20.47-14.14-38.23-28.57-53.19-43.2-15.78-15.44-28.43-31.85-13.13-47.32,15.3-15.47,66.74-29.47,126.29-28.62,51.33,.74,92.42,11.76,119.98,23.41,54.83,23.18,76.31,50.71,104.68,77.08,9.45,8.79,20.02,17.66,39.33,25.2,34.78,13.58,92.92,21.12,146.89,28.97,69.73,10.14,138.57,22.25,182.24,40.03,43.67,17.77,56.63,42.41,13.04,60.2-37.63,15.36-106.84,22.46-159.07,34.34-63.05,14.35-100.39,35.5-163.06,49.96-45.64,10.54-103.85,17.09-163.83,18.44-36.73,.83-76.09-.47-105.27-6.52Zm187.98-345.76c-41.74-3.71-64.17-15.46-94.45-24.01-36.24-10.24-91.28-16.46-142.53-13.25-24.89,1.56-47.29,5.15-71.45,7.39-24.15,2.24-52.74,2.94-73.72-.98-15.64-2.92-24.03-7.82-33.86-12.2-49.23-21.94-153.26-33.9-246.38-28.32-76.32,4.17-119.71-17.36-117.42-31.21,2.52-15.29,48.32-27.47,95.86-35.92,47.54-8.45,101.29-15.2,136.68-27.19,59.56-20.2,51.77-49.8,102.42-71.67,38.68-16.71,111.69-27.25,184.94-26.71,73.24,.54,143.98,12.15,179.17,29.41,51.18,25.09,25.88,56.74,61.9,83.66,29.37,21.96,101.37,39.44,185.68,45.09,50.04,3.35,108.01,3.38,143.83,13.34,16.92,4.71,26.12,11.03,32.2,17.37,17.15,17.87,12.12,37.21-14.1,54.27-9.02,5.87-21.51,11.76-42.12,14.86-15.93,2.4-34.79,2.85-53,3.25-56.62,1.24-113.24,2.49-169.86,3.73-21.38,.47-43.44,.92-63.8-.89Zm565.85-388.64c-30.84-5.37-69.14-6.42-105.85-6.92-58.56-.8-117.32-.56-175.76,.72-64.04,1.85-106.96-3.52-141.12-14.57-10.58-3.42-19.52-7.34-22.92-11.69-8.4-10.74,19.05-21.48,53.33-27.47,34.28-5.99,74.98-8.6,112.74-12.82,91.78-10.25,164.12-29.66,238.06-47.5,23.71-5.72,49.93-11.58,81.6-12.54,34.93-1.06,69.47,4.39,90,12.05,20.53,7.66,28.95,17.2,32.33,26.6,2.82,7.85,2.42,15.78-1.17,23.61-3.75,8.17-11,16.33-8.17,24.53,2.82,8.16,15.46,15.81,28.02,23.29,4.73,2.81,9.57,5.76,8.92,8.84-.58,2.76-5.51,5.3-10.84,7.66-9.8,4.34-21.31,8.4-34.29,12.09-14.63,4.16-32.82,8.03-54.1,8.29-35.77,.44-60.72-8.95-90.77-14.17Zm-1628.03-166.64c42.04-16.33,110.05-29.01,184-28.89,75.15,.12,139.95,4.77,226.35,13.68,21.56,2.38,50.73,2.13,72.29,4.51,34.77,3.84,71.5,8.1,92.85,16.41,22.99,8.95,23.1,20.92,12.32,31.4-11.35,11.03-33.86,21.22-64.48,29.19-69.48,18.08-172.58,23.27-269.33,23.39-27.81,.03-55.78-.28-83.3,.81-27.52,1.08-55.04,3.7-75.28,8.82-15.93,4.03-26.38,9.33-39.02,14.13-12.64,4.8-29.04,9.37-50.38,10.68-22.47,1.38-46.57-1.26-62.68-5.69-16.11-4.42-25.16-10.39-30.3-16.42-13.04-15.31-3.03-31.3,9.3-46.64,15.6-19.41,35.63-39.03,77.66-55.37ZM2032.94,194.73c13.81-2.96,31.67-5.16,48.87-4.09,23.83,1.49,36.33,8.31,46.68,14.26,22.86,13.15,50.7,25.67,82.94,37.31,9.04,3.26,18.58,6.5,30.83,8.89,26.55,5.18,61.55,5.67,94.36,5.96,50.69,.45,101.38,.9,152.06,1.36,29.33,.26,58.98,.54,87.29,2.61,28.31,2.07,55.6,6.15,72.29,12.63,20.95,8.13,22.4,18.66,23.28,28.55,1.04,11.63,2.34,23.35,12.18,34.67,9.85,11.33,23.63,9.97,46.4,34.73,5.04,5.95-4.71,12.36-21.44,16.49-16.73,4.13-39.46,6.17-62.08,6.72-70.23,1.71-136.54-10.07-180.76-24.82-44.22-14.75-72.08-32.46-108.31-48.7-11.73-5.26-24.56-10.43-41.57-14.52-79.24-19.04-217.03-8.47-297.29-27.19-56.32-13.14-62.84-36.31-45.54-55.8,9.74-10.97,26.95-22.04,59.79-29.08Zm-464.92-1.02c3.43-1.59,7.57-3.15,13.44-4.1,5.78-.93,12.72-1.2,19.47-1.22,40.3-.11,74.95,7.78,98.66,16.53,10.46,3.86,20.71,8.21,37.29,9.92,9.11,.94,19.18,.96,28.91,.75,46.93-1.03,92.87-7.14,139.23-4.93,7.07,.34,14.45,.94,19.06,2.42,7.8,2.49,4.56,6.21,1.38,9.36-9.46,9.36-14.57,19.23-8.18,28.77,4.07,6.08,12.7,11.89,16.88,17.96,4.43,6.44,3.78,13.04,2.79,19.58-.58,3.83-1.49,7.84-9.08,11.09-10.1,4.32-29.68,6.27-48.31,7.27-78.76,4.23-94.9,2.14-220.18-6.8-36.61-2.43-76.65-1.08-110.95-5.28-20.56-2.52-37.71-7-47.66-12.45-5.06-2.77-8.33-5.86-7.35-8.93,2.11-6.56,22.19-11.49,34.72-17.15,40.91-18.49-.17-44.15,39.88-62.77ZM430.9,333.24c-32.99-6.22-53.36-16.38-63.3-26.87-9.94-10.49-10.51-21.43-11.03-32.25-.7-14.7-1.4-29.41-2.1-44.11-.32-6.79-.72-13.71-8.54-20.17-14.59-12.05-48.13-21.91-84.4-30.01-31.11-7.25-52.35-14.73-60.92-22.51-6.71-6.09-.62-12.73,10.06-18.39,16.42-8.71,43.83-15.88,76.64-20.08,36.94-4.72,80.04-5.74,114.26-11.76,38.61-6.79,60-18.91,96.6-26.46,30.78-6.35,70.55-9.01,109.37-8.98,38.82,.03,77.04,2.56,114.03,5.72,42.11,3.6,85.09,8.39,113.16,17.55,32.92,10.75,39.57,25.78,33.66,39.6-9.92,23.18-52.28,45.26-116.84,60.88-31.68,7.67-68.26,13.79-99.28,21.65-44.26,11.21-76.21,25.88-90.89,41.73-20.6,22.24-7.92,46.43-39.8,67.69-5.29,3.53-12.31,7.09-24.29,9.12-20.03,3.39-47,1.31-66.37-2.34ZM126.44,468.15c-29.2-9.86-53.49-21.35-57.48-33.9-3.99-12.55,16.25-26.23,57.7-32.14,28.83-4.11,63.01-4.04,95.6-4.49,83.62-1.15,167.67-6.51,239.18-18.2,71.51-11.69,129.55-30.13,150.64-51.88,21.13-21.8,5.33-45.91,40.06-66.42,14.17-8.36,36.03-15.62,59.26-22.37,78.3-22.74,188.58-41.78,302.4-36.71,65.07,2.9,122.93,13.53,165.61,27.03,42.68,13.5,71.54,29.75,95.04,46.3,30.98,21.81,53.63,44.82,52.59,68.16-1.04,23.34-27.53,47.14-85.17,64.62-57.64,17.47-148.77,27.63-233.92,22.91-77.69-3.16-173.88-6.18-246.4,1.93-93.86,10.51-155.34,38.05-254.76,43.78-70.06,4.04-145.8-3.81-213.52,2.47-19.25,1.79-37.33,4.69-57.52,5.4-43.4,1.53-82.07-7.3-109.31-16.5Zm603.65,181.93c-9.5-.6-17.74-2.2-24.68-4.04-25.54-6.78-35.33-16.6-46.54-25.76-11.21-9.16-27.02-18.81-58.51-23.44-31.43-4.62-69.76-3.03-105.5-2.34-54.83,1.06-110.3-.35-163.42-4.15-14.16-1.01-29.18-2.38-37.66-5.59-11.04-4.17-7.14-9.95-.27-14.72,4.27-2.97,10.04-6,20.21-7.63,21.71-3.49,48.26,1,69.8,4.56,66.6,11.02,150.92,14,225.87,7.98,45.97-3.69,91.4-11.71,104.9-24.07,6.62-6.06,4.82-12.66-2.79-18.64-9.81-7.7-28.76-14.38-38.66-22.07-22.27-17.31,7.71-37.62,62.57-48.5,54.86-10.88,129.35-13.04,195.4-8.48,48.65,3.36,96.87,11,116.07,23.46,10.92,7.09,11.4,14.97,11.73,22.64,1.16,27.41,2.32,54.81,3.48,82.22,.63,14.42,11.23,24.29,9.56,32.07-1.66,7.78-12.28,15.76-34.59,20.75-26.71,5.98-64.5,6.65-99.21,6.08-34.7-.57-70.31-2.07-103.68,.55-26.87,2.11-50.28,6.76-77.32,8.71-8.72,.63-17.98,.96-26.77,.41Zm343.67,1.07c60.21-4.03,119,8,156.96,21.18,59.65,20.7,95.97,46.2,165.84,64.45,103.33,26.99,259.98,32.97,403.98,31.02,46.04-.62,92.34-1.9,138.09-.39,45.76,1.51,91.98,6.16,122.29,15.49,40.59,12.49,45.1,30.51,45.23,47.08,.08,10.29-1.15,21.02-18.91,30.14-23.56,12.11-72.07,19.2-120.38,23.48-48.31,4.28-99.38,6.51-145.23,12.44-117.66,15.2-175.88,50.8-215.29,84.22-11.15,9.46-21.89,19.15-42.96,27.3-29.85,11.55-81.53,19.17-133.82,18.43-52.29-.74-102.5-10.47-117.21-23.96-13.28-12.18,1.7-25.11,13.47-37.4,23.72-24.77,34.48-50.44,31.86-76.01-2.29-22.38,39.97-50.43-106.66-60.13-51.3-4.57-104.77-9.5-142.16-19.98-33.05-9.26-49.65-21.81-63.64-34.07-22.43-19.66-40.54-39.67-54.21-59.9-8.24-12.19-14.83-24.82-4.19-36.88s42.14-23.53,86.92-26.53Zm-337.25,14.47c47.8-5.31,107.2-3.62,145.57,5.69,28.73,6.98,43.22,17.17,54.4,27.12,16.95,15.09,28.61,30.61,34.79,46.29,6.04,15.31,6.87,30.79,16.73,45.96,9.86,15.17,29.7,30.34,68.4,41.7,50.05,14.7,126.11,21.54,175.7,36.35,69.83,20.85,71.15,52.56,46.96,79.83-12.16,13.72-37.18,29.04-88.18,32.41-39.14,2.59-79.1-3.02-111.55-9.45-55.09-10.9-102.37-24.77-162.44-33.58-76.33-11.19-171.58-13.99-232.45-30.66-9.37-2.57-17.82-5.49-22.03-8.9-7.59-6.16-.36-12.85,6.85-19.03,17.21-14.76,34.42-29.53,51.64-44.29,9.41-8.07,18.91-16.58,12.45-24.85-8.13-10.42-39.42-18.15-63.84-26.54-67.11-23.04-86.12-55.55-48.53-82.99,18.41-12.98,67.72-29.76,115.53-35.07Zm-412.8,315.09c-21.03-2.8-36.57-7.93-47.8-13.46-21.76-10.71-29.29-23.01-40.59-34.83-11.29-11.82-28.06-23.94-62.69-31.84-26.5-6.05-61.27-9.09-86.88-15.41-32.39-7.99-45.92-20.33-45.72-32.13,.2-11.81,15.48-21.27,16.9-38.79-2.31-25.22,39.36-49.43,94.44-69.87,36.13-13.4,80.02-25.95,136.44-32.61,56.42-6.65,127.41-6.31,174.84,4.25,55.93,12.46,64.33,34.62,56.84,54.03-2.83,7.33-7.21,14.93,1.44,21.93,19.19,15.53,93.97,22.11,114.18,37.54,7.45,5.68,6.39,11.88,5.25,17.9-3.38,17.82-7.21,36.14-35.18,52.33-18.68,10.81-47.32,20.15-68.77,30.58-25.61,12.45-41.1,26.5-73.75,37.71-32.65,11.2-91.46,18.98-138.94,12.67Zm324.41,61.17c-44.69-.67-47.79-8.94-45.89-16.65,1.9-7.71,10.95-15.18,13.66-22.87,5.02-14.24-10.7-29.98,17.88-42.06,15.02-6.35,40.2-10.49,66.2-13.3,58.84-6.35,126.87-6.74,185.59-.31,74.46,8.16,127.31,25.88,177.6,42.73,50.3,16.85,105.34,34.27,181.29,41.36,69.65,6.51,148.58,3.42,216.64,11.04,17.63,1.97,34.51,4.72,46.59,8.69,17.82,5.86,23.39,13.8,22.79,21.36-1.01,12.76-18.31,25.39-48.35,35.29-12.07,3.98-26.47,7.58-43.94,9.66-39.12,4.65-84.36,.87-124.37-3.2-40.01-4.07-83.79-8.45-124.39-4.83-39.72,3.54-65.78,13.88-103.32,18.85-12.52,1.66-28.54,2.59-39.72,.34-5.05-1.02-8.31-2.54-11.03-4.07-21.39-12.03-17.69-26.53-41.08-38.29-19.9-10-56.78-16.69-93.96-22.08-78.12-11.32-164.12-18.71-252.2-21.67Zm61.29,261.76c-29.57-2.4-43.15-11.22-61.18-17.96-26.89-10.04-69.1-16.41-112.59-20.49-24.6-2.31-52.93-4.62-64.05-10.95-6.49-3.69-5.44-7.98-4.13-12.05,6.81-21.15,37.66-29.2,25.97-64.99-12.78-18.04-16.28-36.54-10.37-54.83,2.96-9.15,8.58-18.49,25.76-26.42,24.08-11.12,69-18.25,115.91-20.88,46.91-2.63,95.8-1.19,142.48,1.73,36.4,2.27,72.65,5.51,103.03,11.35,30.39,5.84,54.51,14.58,59.47,24.52,9.35,18.75-48.74,35.76-48.55,54.68,.22,21.21,71.55,37.4,92.86,57.82,9.67,9.26,8.63,19.11,3.27,28.63-1.73,3.08-4,6.21-9.87,8.89-17.49,8-57.93,9.08-89.2,13.04-36.87,4.67-62.52,13.82-93.33,20.98-21,4.88-48.89,9.08-75.48,6.93Zm324.49,170.79c-33.13-8.09-67.74-16.27-109.94-20.28-54.14-5.15-113.88-2.83-170.67-5.13-34.75-1.4-68.51-4.57-98.97-9.28-22.06-3.41-43.4-7.98-52.05-14.41-10.49-7.8,.13-16.58,16.71-23.58,37.36-15.75,104.01-26.23,128.5-43.71,14.07-10.04,12.27-21.22,24.39-31.44,23.69-19.98,97.63-33.13,173.52-38.11,40.68-2.67,86.93-3.18,121.13,3.31,19.13,3.63,32.31,9.05,45.01,14.33,19.1,7.94,38.2,15.89,57.3,23.83,15.01,6.24,31.33,12.8,56.46,15.92,15.86,1.97,33.72,2.36,51.16,2.62,43.62,.65,88.09,.72,129.66,4.33,41.57,3.61,80.82,11.54,92.77,22.82,14.06,13.28-12.95,27.4-49.14,37.2-80.24,20.64-103.27,42.37-145.48,65.2-9.22,4.99-19.55,9.98-35.09,13.67-33.54,7.96-85.27,8.13-126.81,3.64-41.53-4.49-75.33-12.84-108.46-20.93Zm-102.56,151.64c-30.25-2.45-62.68-4.34-86.3-9.98-16.03-3.82-26.41-9.02-36.47-14.11-21.1-10.67-42.2-21.34-63.3-32.01-8.46-4.28-17.06-8.67-19.39-13.47-3.62-7.47,8.34-14.79,20.01-21.64,15.65-9.19,31.31-18.38,46.96-27.57,7.84-4.6,16.03-9.34,29.96-12.75,15.9-3.9,37.45-5.62,58.45-6.91,35.71-2.2,75.18-3.35,107.3,1.38,54.38,8.01,64.35,29.04,115.81,38.34,36.18,6.54,85.65,5.57,124.98,.51,39.33-5.06,70.7-13.6,100.88-22.05s60.77-17.14,99.3-22.63c52.68-7.5,118.17-8.15,172.77-1.72,54.61,6.43,97.19,19.8,112.34,35.28,7.16,7.32,8.45,14.95,9.11,22.51,1.09,12.38,.58,24.89-9.51,36.97-12.43,14.9-38.95,28.63-65.2,42.18-35.89,18.52-71.79,37.04-107.68,55.56-30.62,15.02-63.36,23.61-109.12,26.34-21.59,1.28-44.22,.72-65.72-.67-111.37-7.21-186.15-34.33-278.47-52.53-47.29-9.33-100.54-16.47-156.72-21.02Zm-4.11,179.99c-9.65-8.05,.85-16.68,6.14-25.02,17.38-27.4-27.81-56.97-111.85-73.19-16.93-3.27-36.75-6.57-41.57-12.02-2.37-2.67-.62-5.47,1.13-8.18,7.78-12.02,17.48-25,51.41-33.12,30.2-7.22,73.98-8.98,114.18-7.76,120.8,3.65,216,30.57,267.36,60.15,16.1,9.27,30.19,19.36,59.81,25.79,39.59,8.59,96.64,8.32,146.07,5.04s96.83-9.12,147.55-10.32c66.47-1.57,132.47,5.05,189.06,14.54,15.23,2.55,30.36,5.43,40.02,9.49,10.98,4.62,13.74,10.27,15.37,15.73,7.99,26.84-5.28,54.12-38.68,79.51-15.56,12.13-26.51,20.7-44.74,27.67-12.48,4.77-26.56,9.48-45.69,12.23-16.82,2.42-36.24,3.14-55.26,3.58-42.64,.97-85.68,.7-128.11-.81-65.59-2.34-130.16-7.63-196.32-7.29-51.51,.26-102.33,3.95-153.84,3.64-26.52-.16-53.9-1.49-75.62-5.58-60.67-11.42-48.86-36.91-90.52-53.36-17.98-7.1-46.12-12.55-55.92-20.73Zm-791.22,143.38c-31.27-1.21-59.07-7.47-68.91-15.53-10.78-8.84-.74-18.47,11.68-27.15,12.42-8.68,27.5-17.45,26.83-26.75-.72-9.91-19.24-19.01-29.23-28.56-13.79-13.18-9.35-28.62,24.97-38.74,22.69-6.69,56.56-10.35,90.27-10.46,33.71-.11,67,3.17,94.15,8.54,37.89,7.48,67.52,19.28,113.75,21.61,58.63,2.96,112.53-10.88,172.19-10.85,47.62,.02,90.66,9.44,109.35,21.2,3.77,2.37,6.74,4.88,6.95,7.46,.24,2.97-3.18,5.88-7.77,8.58-17.55,10.32-52.49,18.52-60.85,29.64-10.37,8.54,16.02,17.75,7.08,25.23-8.94,7.48-30.48,13.92-57.97,16.61-34.57,3.39-72.98,.77-107.91-2.35-34.93-3.12-71.08-6.78-107.5-5.35-40.3,1.58-73.27,9.05-105.8,15.63-32.53,6.58-70.97,12.8-111.28,11.24Zm769.32,83.15c-37-3.26-59.5-13.45-94.15-18.22-12.03-1.66-25.75-2.7-35.07-5.33-7.72-2.18-11.36-5.18-13.5-8.13-8.35-11.55,1.68-24.69-23.75-34.28-15.87-5.98-44.22-9.87-50.62-17.01-7.3-8.14,17.98-15.89,19.5-24.25,1.54-8.52-21.62-16.17-22.37-24.69-.74-8.46,20.28-15.76,33.02-23.51,17.98-10.93,19.73-23.24,31.75-34.74,4.73-4.53,11.43-9.09,23.91-12.4,10.72-2.84,24.99-4.54,39.58-5.53,64.71-4.39,138.63,6.24,160.85,23.14,13.79,10.49,9.02,21.99,13.23,33.05s22.31,23.21,61.29,26.98c23.01,2.22,48.4,1.03,72.45-.15,62.25-3.06,129.19-5.72,186.65,1.41,64.65,8.02,103.44,28.77,88.74,47.48-3.07,3.91-8.41,7.79-18.27,10.78-9.17,2.78-21.64,4.6-34.2,6.15-33.79,4.17-70.28,6.76-107.33,7.61-49.39-.84-90.1,2.33-126.88,11.22-33.55,8.11-55.01,19.19-85.34,28.16-30.34,8.98-76.61,16.05-119.51,12.27Zm122.88,206.58c-37.98,18.59-93.91,13.08-144.39,17.24-13.58,1.12-27.76,2.13-41.83,1.61-13.45-.49-25.67-2.35-36.75-4.45-37.05-7.04-67.06-17.46-110.66-20.85-62.9-4.89-125.91,6.57-190.57,9.36-17.6,.76-36.87,.77-51.77-1.85-11.74-2.07-19.18-5.53-23.77-9.09-18.58-14.4,3.65-30.54-8.98-45.39-14.1-16.57-68.59-28.61-90.29-44.58-2.57-1.89-4.69-3.91-3.61-5.9,2.41-4.44,19.43-7.19,35.55-8.35,72.42-5.23,145.82,8.64,220.77,7.92,65.24-.63,126.18-13.66,143.03-30.59,11.66-11.71,4.09-24.71,23.49-35.66,18.38-10.38,61.35-17.23,104.1-16.6,25.41,.37,49.66,3.15,70.98,6.87,69.67,12.19,108.59,33.97,126.14,55.79,17.55,21.82,17.04,44.37,26.53,66.55,3.53,8.26,4.23,16.53,4.77,24.84,1.31,20.07-31.91,23.06-52.75,33.15Zm446.91-103.47c12.63,4.74,30.51,8.25,46.54,12.17,17.27,4.23,32.63,9.03,45.62,14.25,8.75,3.52,16.55,7.3,19.57,11.46,4.43,6.08-1.78,12.37-10.68,18.09-21.75,13.98-66.21,26.88-122.51,27.9-54.35,.99-102.95-9.07-156.82-11.25-56.72-2.29-117.79,5.31-146.13,18.7-11.69,4.19-24.74,5.22-32.05,3.32-7.31-1.9-8.17-4.93-8.14-7.66,.26-21.93,28.2-43.16,36.05-64.99,6.21-17.26-.32-34.85-19.12-51.44-13.72-12.11-33.82-23.64-47.75-35.73-13.92-12.09-21.51-25.15-9.47-37.39,15.7-15.95,64.57-28.78,122.11-34.58,57.54-5.8,122.44-5.07,180.95-.01,49.93,4.32,99,12.59,118.61,25.65,9.29,6.19,11.27,12.98,11.84,19.65,.72,8.38-.62,16.81-7.04,25.02-8.88,11.36-27.28,22.04-37.05,33.35-9.76,11.31-9.7,24.07,15.45,33.51Zm235.24-24.26c-29.65,4.61-70.07,5.68-96.56-.16-19.78-4.35-27.65-11.47-31.71-18.25-17.34-28.97,14.78-60.51-33.11-86.88-16.45-9.06-41.59-16.91-55.36-26.28-13.99-9.52-15.39-20.04-12.74-30.24,1.91-7.4,6.27-15.06,21.9-21.18,31.06-12.15,95.73-14.18,149.55-11.26,20.4,1.11,40.58,2.76,61.38,2.96,55.6,.53,104.23-9.12,151.33-17.07,61.98-10.46,130.1-18.7,202.32-21.93,72.22-3.23,148.87-1.19,213.86,7.86,50.18,6.99,91.72,17.86,125.92,29.94,47.86,16.91,82.27,36.24,114.77,55.61,42.52,25.34,83.19,53.09,60.97,80.23-15.31,18.7-71.87,36.84-143.19,36.49-42.34-.21-80.36-6.72-114.36-13.5-115.11-24.71-289.11-34.59-415.02-15.02-48.61,7.56-89.5,18.25-126.19,29.67-22.38,6.97-44.1,14.41-73.75,19.01Zm2011.58-269.76c-54.22,28.52-126.25,54.39-205.03,78.43-51.81,15.81-107.9,31.41-136.62,51.01-24.54,16.75-27.14,35.19-26.31,53.19,.87,18.8,5.36,37.9,28.77,55.62,26.65,20.18,76.28,37.48,114.91,56.21,65.43,31.72,99.37,68.08,97.4,104.34-.48,8.79-3.19,17.76-16.19,25.83-20.91,12.98-66.64,22.16-116.04,27.07-95.32,9.48-209.08,4.01-286.23-13.75-77.15-17.77-114.56-47.12-94.14-73.86,22.09-21.82-35.11-54.25-105.87-66.52-75.85-13.15-185.27-12.91-237.85-32.62-36.58-13.71-31.2-32.13-28.97-48.98,5.78-43.54-25.67-90.41-139.74-121.4-37.42-10.17-87.25-22.73-67.08-35.96,5.69-3.73,16.52-6.73,28.04-9.31,115.98-26.03,295.17-15.89,430.23-34.11,138.58-18.7,202.31-66.16,168.2-106.78-18.71-22.29-60.95-46.77-17.43-66.4,19.2-8.66,52.06-14.41,84.47-19.5,69.77-10.97,150.08-20.66,229.1-16.07,65.5,3.81,117.69,16.76,164.03,29.76,101.59,28.5,196.89,63.12,197.04,102.57,.08,21.43-28.43,42.17-64.71,61.26Zm1656.78-147.63c94.13,1.13,177.36,23.81,181.15,49.08,3.79,25.27-71.53,49.57-164.66,53.42-50.22,2.08-102.41-1.12-151.93,1.93-47.65,2.94-88.54,11.52-118.17,21.96-29.63,10.44-49.09,22.68-65.77,35.02-18.36,13.58-34.29,27.73-66.84,39.23-32.55,11.5-86.79,19.95-139.3,16.81-49.07-2.94-83.67-15.06-101.43-27.69-17.76-12.63-22.95-26.28-38.08-39.15-28.34-24.12-92.8-45.02-175.76-57.01-82.96-11.98-167.92-27.36-304.95-3.32-28.97,5.48-64.2,8.54-99.63,8.66-9.14,.03-18.49-.14-26.93-1.09-12.46-1.4-21.68-4.34-28.25-7.51-20.22-9.75-18.64-22-3.55-32.4,15.08-10.4,42.31-19.21,71.85-27.07,29.61-7.88,62.5-15.08,100.6-19.62,45.09-5.37,95.16-6.74,144.29-7.92,112.13-2.69,228.51-4.57,334.1,5.91,51.47,5.11,98.93,13.03,151.74,17.03,103.24,7.82,213.92-.26,312.5-11.62,60.84-7.01,122.87-15.45,189-14.66Zm-355.13-265.96c48.89,2.74,97.38,7.58,135.01,16.4,85.49,20.03,94.42,54.56,85.89,84.93-2.01,7.15-6.06,15.06-26.54,19.67-13.31,3-31.12,3.99-48.07,5.01-49.86,2.99-98.89,6.97-146.54,11.91-51.5,5.34-104.67,12.59-131.02,25.61-37.32,18.45-8.3,41.09-12.06,62.06-1.39,7.78-9.09,16.2-32.31,20.86-18.13,3.64-42.31,4.28-64.92,3.91-98.6-1.6-183.4-19.08-279.13-25.62-78.76-5.38-164.55-2.98-237.47,6.65-98.73,13.04-169.06,37.92-264.12,52.79-22.53,3.52-46.96,6.51-72.95,7.08-54.5,1.19-105.04-8.5-137.75-20.26-32.71-11.77-52.56-25.71-80.67-38.3-28.1-12.59-83.61-14.68-150.96-29.03-79.02-17.55-102.76-52.49-37.18-73.66,28.61-9.23,69.82-15.09,112.31-18.85,187.42-16.57,396.21,4.41,588.03-8.01,127.26-8.24,235.19-30.44,333.32-53.7,77.84-18.45,155.66-38.5,254.28-47.23,68.21-6.04,142.54-6.16,212.85-2.22Zm196.29-175.17c38.97,1.12,78.45,5.53,101.42,14.05,31.22,11.58,25.03,27.63,8.44,41.21-16.59,13.58-42.31,26.63-46.52,40.88-4.9,16.55,18.24,35.09-17.07,48.73-25.88,9.99-75.84,13.49-121.07,12.71-45.23-.78-88.53-5.03-133.04-7.33-74.22-3.82-150.93-2.17-225.45,1.21-32.85,1.49-65.97,3.35-95.61,7.44-35.81,4.94-64.53,12.82-92.58,20.58-33.89,9.07-55,9.21-83.64,7.46-28.64-1.75-52.06-7.76-64.48-14.91-12.43-7.14-14.88-15.3-12.14-23.15,7.08-20.27,48.18-39.16,106.14-52.28,57.96-13.12,131.7-20.7,206.91-23.29,40.34-1.39,81.63-1.43,120.73-4.43,33.25-2.56,64.18-7.26,89.45-13.6,32.81-8.23,55.32-18.91,80.91-28.81,25.59-9.91,56.45-19.53,98.21-23.97,25.03-2.66,52.65-3.27,79.42-2.5Zm273.35-234.49c93.9-3.76,198.64,1.32,263.49,19.94,40.73,11.69,61.72,27.55,69.32,43.43,10.32,21.56-4.77,45.1-59.6,61.1-5.43,1.58-11.53,3.14-19.23,3.74-12.48,.98-25.62-.78-35.99-2.88-52.24-10.58-75.08-30.93-136.5-36.99-19.44-1.92-40.72-2.11-61.32-1.55-105.77,2.85-198.49,26.82-213.07,55.09-6.48,12.57,.67,25.9-17.73,37.6-13.31,8.46-39.91,15.34-71.88,18.6-36.61,3.73-77.6,2.75-115.4,5.5-75.11,5.45-124.22,24.12-170.96,40.82-46.73,16.7-107.26,34-185.05,34.43-44.25,.24-88.36-5.63-114.43-15.23-32.79-12.07-35.47-28.16-31.32-43.06,10.74-38.49,90.11-66.09,155.38-102.62,24.66-12.61,58.61-26.77,111.55-27.65,59.87-1,105.33,15.86,164.98,17.58,59.15,1.71,108.53-11.79,140.68-25.22,55.06-23.01,92.95-50.24,174.47-66.63,44.15-8.88,98.05-13.79,152.62-15.97Zm-407.33-221.29c14.83,1.07,30.16,2.61,39.73,5.83,7.7,2.6,10.69,5.99,11.58,9.3,3.7,13.71-24.59,26.85-23.14,40.59,1.43,13.52,31.42,25.9,33.48,39.41,3.59,23.48-74.75,41.61-103.78,63.78-34.29,26.19,3.71,55.16,53.36,79.51,8.87,4.35,17.84,10.03,6.13,13.87-4.09,1.34-10.08,2.16-16.08,2.8-52.24,5.62-113.08,.93-166.71,5.51-51.39,4.39-93.63,17.04-147.54,16.59-45.66-.38-81.4-10.05-116.28-17.96-75.82-17.21-167.81-28.43-248.29-44.04-80.48-15.61-155.14-37.51-169.37-67.54-4.24-10.31-3.49-23.26,31.09-27.88,10.42-1.39,22.4-1.71,34.03-1.58,71.38,.83,131.58,17.54,202.97,16.81,74.07-.76,126.21-19.7,156.93-37.81,49.28-29.05,78.37-62.64,169.76-83.05,68.59-15.32,165.97-20.39,252.12-14.15Zm-479.64,69.58c-2.46,.6-5.07,1.2-8.22,1.49-11.96,1.09-22.16-2.57-26.32-5.78-28.22-21.67,6.63-48.04-40.37-67.22-31.96-13.04-91.74-18.42-142.76-25.9-133.14-19.53-238.86-60.58-216.42-105.73,5.31-16.74,46.03-31.75,98.78-40.8,20.95-3.59,44.17-6.4,68.8-7.31,73.95-2.74,139.94,11.46,197.46,24.23,69.02,15.33,140.49,29.85,214.16,43.53,40.28,7.48,82.58,14.86,130.62,17.42,44.48,2.37,90.33,.42,135.63-.16,45.3-.58,93.84,.49,130,7.84,46.1,9.37,59.93,26.54,56.52,42.04-1.8,8.19-8.47,16.85-30.02,22.67-19.35,5.22-47.57,7.28-74.81,8.14-57.1,1.82-114.75-.66-172.23-.95-57.49-.29-118.56,1.99-163.11,11.74-83.62,18.32-78.11,55.17-157.72,74.73Zm653.25-348.13c-12.08,9.93-48.68,15.86-76.25,23.23-64.89,17.35-80.33,46.53-36.01,68.05,36.77,17.85,105.36,28.97,159.2,43.37,67.28,17.99,113.52,44.05,92.34,68.91-7.74,9.08-23.88,17.46-40.14,25.68-25.77,13.03-52.34,26-84.67,37.93-10.14,3.74-31.71,7.45-41.76,3.7-3.59-1.34-3.5-3.13-3.15-4.78,4.73-22.42,30.72-44.78,17.84-66.97-2.9-5-7.94-10.02-18.38-14.24-16.96-6.85-46.31-10.81-75.93-12.92-29.62-2.11-60.46-2.66-90.44-4.37-42.4-2.42-82.48-7.12-121.64-12.1-56.95-7.26-112.68-15.19-166.99-23.79-57.55-9.1-117.27-20.2-138.6-37.19-7.02-4.42-14.6-9.77-11.74-13.26,2.87-3.49,12.68-6.82,25.88-7.24,6.44-.2,12.87,.29,19.04,.82,49.79,4.32,104.62,11.69,151,5.18,26.27-3.68,42.44-11.17,50.72-18.81,8.28-7.64,10.03-15.67,15.51-23.49,17.12-24.46,72.59-46.82,150.07-60.48,43.86-7.74,98.22-12.81,148.9-9.14,50.67,3.66,91.48,18.52,75.19,31.91Zm90.29-217.94c28.79,13.03,34.62,28.87,30.9,43.99-2.46,9.99-8.96,20.06-25.17,29.07-17.79,9.9-46.45,18.1-66.37,27.71-19.05,9.18-29.79,19.6-31.06,30.1-.58,4.83,.94,9.81,8.72,14.16,18.38,10.29,64.88,14.24,95.44,22.17,19.54,5.07,32.77,12.29,30.1,19.56-2.67,7.26-23.96,14.15-51.02,14.86-22.22,.59-43.44-2.81-59.24-7.05-15.81-4.23-27.97-9.36-43.72-13.61-50.9-13.72-139.64-15.69-198.24-4.4-25.82,4.92-59.01,5.01-78.37-.61-19.37-5.62-23.82-13.98-19.91-21.56,3.91-7.58,15.06-14.73,23.31-22.06,11.84-10.51,17.79-21.49,17.59-32.47-.16-8.77-4.64-17.85-22.02-25.28-13.41-5.73-33.5-10.06-52.94-14.37-36.46-8.08-73.17-16.91-90.99-28.67-17.82-11.75-10.75-27.19,28.18-34.39,21.49-3.97,48.97-4.87,75.03-4.47,26.05,.4,51.7,1.97,77.73,2.45,38.07,.7,76.73-.99,112.01-4.9,33.19-3.67,64.09-9.32,99.63-10.68,55.88-2.13,111.63,7.38,140.42,20.41Zm-653.95-50.71c19.36,.28,39.82-.23,57.1,2.13,11.75,1.6,20.78,4.42,26.89,7.55,16.24,8.33,12.58,18.43,4.18,27.57-8.4,9.13-21.17,18.11-21.99,27.52-.57,6.58,4.76,13.08,6.46,19.65,1.7,6.56-.75,13.56-14.97,18.92-18.63,7.02-52.25,9.56-81.51,13.12-40.99,4.98-77.16,12.79-104.08,22.48-24.83,9.81-39.65,11.86-62.93,10.58-25.32-1.4-38.08-9.05-42.52-15.89-13.71-21.07,13.2-42.47,13.35-63.85,.05-6.83-3.44-14.16-20.39-19.25-12.04-3.62-29.26-5.61-44.3-8.3-39.7-7.11-64.15-19.4-70.99-32.08-6.84-12.68,2.57-25.69,19.92-37.63,9.07-6.23,23.86-12.99,48.48-14.04,21.2-.9,40.91,2.85,57.49,6.51,34.66,7.65,67.79,15.87,105.15,22.54,37.36,6.68,79.84,11.82,124.66,12.47Z"/></g></svg>