<?xml version="1.0" encoding="UTF-8"?><svg id="Layer_2" xmlns="http://www.w3.org/2000/svg" viewBox="0 0 93.51 55.64"><defs><style>.cls-1{fill:#fff;}.cls-2{fill:#e17a00;}</style></defs><g id="Layer_1-2"><path class="cls-2" d="M9.11,25.22c-.12,0-.22-.03-.3-.09s-.12-.14-.12-.25c0-.1,.04-.18,.13-.26s.18-.13,.29-.15c.51-.05,1.04-.14,1.58-.27s1.08-.28,1.61-.45,1.06-.36,1.58-.58,1.01-.43,1.48-.66h-.02l.46-.3c.15-.1,.32-.2,.52-.32s.4-.23,.59-.33,.38-.2,.56-.28,.31-.14,.41-.18c0,.12-.08,.26-.25,.44s-.36,.35-.59,.53-.45,.34-.67,.49-.4,.26-.53,.34l-.45,.26c.12,.41,.2,.79,.23,1.16s.06,.75,.06,1.15c-.03,1.27-.21,2.53-.54,3.77s-.78,2.39-1.35,3.46-1.26,2.01-2.06,2.83-1.67,1.43-2.62,1.84c-.45,.16-.93,.28-1.44,.34s-1,.11-1.47,.12c-1.13-.09-2.11-.44-2.94-1.07s-1.53-1.58-2.11-2.84c-.48-1.17-.8-2.34-.95-3.52s-.22-2.39-.22-3.62v-1.06c0-.12,0-.24,.02-.35,.1-1.31,.25-2.65,.46-4s.49-2.7,.83-4.03,.73-2.66,1.19-3.96,.99-2.57,1.59-3.78c.53-1.02,1.14-2.01,1.81-2.99s1.41-1.86,2.22-2.65,1.68-1.43,2.61-1.93,1.94-.79,3.02-.87c.32,0,.62,.02,.91,.06s.56,.11,.83,.22,.52,.26,.75,.46,.46,.44,.69,.75c.31,.53,.54,1.06,.69,1.58s.22,1.1,.22,1.74v.24c0,.11-.02,.27-.06,.5s-.09,.48-.15,.75-.14,.57-.24,.87-.2,.58-.32,.83-.25,.48-.38,.66-.28,.29-.43,.34c.01-.06,.04-.2,.08-.39s.09-.42,.13-.67,.09-.52,.14-.81,.1-.56,.14-.83,.08-.5,.1-.71,.04-.36,.04-.44c0-.61-.07-1.18-.2-1.71s-.32-.99-.57-1.38-.55-.7-.92-.93-.78-.34-1.24-.34-.91,.06-1.39,.18-.91,.28-1.29,.48c-1.11,.59-2.14,1.41-3.09,2.47s-1.81,2.27-2.59,3.63-1.46,2.83-2.06,4.4-1.1,3.16-1.5,4.77-.71,3.19-.91,4.74-.31,2.98-.31,4.3c0,1.17,.08,2.3,.23,3.4s.46,2.21,.92,3.34c.48,1.1,1.08,1.94,1.81,2.53s1.57,.92,2.52,1.02c.41-.01,.84-.05,1.31-.1s.88-.15,1.26-.28c.91-.37,1.74-.95,2.49-1.73s1.4-1.68,1.95-2.71,.99-2.13,1.32-3.31,.53-2.36,.61-3.54c0-.16,0-.33,0-.52s-.01-.38-.02-.59-.02-.4-.04-.59-.04-.36-.07-.52c-1.1,.55-2.14,.98-3.12,1.3s-1.91,.53-2.8,.63h-.06Z"/><path class="cls-2" d="M20.76,27.93c.38,0,.79-.08,1.21-.23s.84-.35,1.24-.59,.8-.49,1.18-.78,.72-.55,1.02-.81l.53-.56c.1-.13,.22-.28,.38-.46s.32-.34,.48-.5,.31-.29,.44-.39,.22-.16,.26-.16l.08-.14s.03,.07,.03,.14c0,.12-.08,.3-.23,.55s-.34,.5-.55,.77-.41,.52-.62,.76-.35,.41-.45,.52v.02c-.32,.31-.69,.63-1.1,.95s-.84,.63-1.28,.9-.89,.5-1.35,.67-.9,.26-1.32,.26c-.37,0-.73-.09-1.06-.26s-.61-.46-.83-.87c-.15-.28-.25-.59-.3-.95s-.08-.67-.1-.96c0-.45,.05-.92,.14-1.41s.22-.98,.38-1.46,.36-.94,.59-1.39,.49-.84,.78-1.19,.6-.64,.94-.87,.7-.36,1.08-.42c.15,.01,.32,.04,.52,.08s.38,.13,.55,.25,.32,.29,.43,.51,.18,.51,.18,.86c0,.4-.08,.76-.25,1.11s-.38,.65-.64,.92-.56,.52-.88,.73-.65,.39-.96,.53-.61,.25-.89,.32-.5,.11-.66,.11c-.13,0-.26-.03-.38-.1-.03,.25-.06,.48-.09,.71s-.05,.46-.06,.68c.02,.29,.06,.56,.12,.82s.15,.48,.27,.67,.28,.34,.46,.46,.42,.17,.7,.17Zm1.62-7.78c-.32,.04-.63,.19-.93,.44s-.57,.56-.82,.91-.46,.75-.66,1.16-.35,.82-.48,1.2c.16-.03,.36-.1,.59-.22s.48-.25,.74-.42,.52-.35,.78-.55,.5-.42,.71-.65,.39-.46,.54-.69,.24-.45,.28-.67c-.03-.19-.12-.33-.27-.41s-.28-.12-.4-.12h-.08Z"/><path class="cls-2" d="M34.04,21.69c-.19,.34-.44,.66-.73,.95s-.58,.54-.86,.75c-.02,.44-.07,.91-.15,1.42s-.19,1.02-.32,1.52-.3,1-.51,1.48-.44,.9-.7,1.27-.56,.68-.89,.92-.7,.38-1.11,.42c-.41-.01-.75-.15-1.02-.42s-.49-.61-.66-1-.28-.82-.35-1.27-.1-.87-.1-1.24c0-.5,.03-1.02,.1-1.54s.16-.99,.28-1.41c.03-.12,.09-.28,.18-.47s.2-.39,.31-.58,.24-.35,.36-.49,.24-.21,.34-.21c.03,0,.07,.01,.13,.03,.04-.33,.13-.65,.25-.95s.28-.56,.47-.79,.41-.4,.64-.54,.49-.2,.75-.2c.32,.03,.6,.14,.83,.32s.43,.42,.59,.72,.28,.64,.36,1.03,.14,.79,.16,1.22c.28-.19,.52-.38,.72-.57s.38-.38,.55-.59v.02l.75-1.23s.05-.02,.07-.03,.06-.02,.1-.02c.07,.04,.14,.12,.19,.24s.1,.25,.13,.39,.06,.29,.07,.44,.02,.28,.02,.38c0,.03,0,.06,0,.08s0,.04,0,.06l.02,.21c0,.61-.02,1.22-.06,1.82s-.08,1.21-.11,1.82c.01,0,.02,0,.02,.02s.01,.02,.03,.02c.1-.3,.22-.66,.38-1.09s.34-.87,.54-1.34,.41-.93,.65-1.39,.49-.87,.75-1.24,.55-.67,.83-.89,.58-.34,.88-.34h.14c.37,.09,.68,.3,.91,.66s.34,.79,.34,1.3c0,.11,0,.22-.02,.34s-.05,.2-.1,.24c-.14-.04-.21-.13-.2-.25s0-.26-.02-.41l-.05-.26c-.05-.26-.16-.47-.31-.65s-.33-.28-.54-.3c-.32,.04-.64,.26-.96,.67s-.63,.91-.94,1.52-.59,1.29-.87,2.03-.52,1.46-.74,2.17-.41,1.37-.58,1.98-.29,1.08-.36,1.43c-.03,.18-.14,.3-.32,.35-.21,0-.36-.06-.42-.19s-.11-.27-.14-.42l.35-2.66v-5.26l-.08-.02Zm-2.41,2.16c-.22,.09-.44,.15-.65,.19s-.41,.06-.6,.06c-.45,0-.86-.14-1.22-.42s-.61-.7-.75-1.26c-.19,.31-.33,.6-.42,.87s-.14,.48-.16,.64c-.25,.82-.37,1.66-.37,2.5,0,.03,0,.13,0,.3s.02,.36,.05,.58,.06,.45,.11,.7,.12,.47,.21,.68,.2,.38,.34,.53,.3,.22,.49,.23c.3-.03,.57-.15,.82-.34s.47-.45,.68-.75,.39-.64,.55-1.02,.3-.77,.42-1.17,.22-.79,.3-1.18,.14-.74,.18-1.06v-.08Zm.05-1.46c-.02-.22-.05-.46-.09-.71s-.1-.48-.18-.69-.2-.38-.34-.53-.33-.22-.55-.23c-.35,0-.67,.15-.95,.46s-.46,.68-.52,1.13c.01,.31,.06,.56,.14,.76s.18,.36,.31,.48,.28,.21,.44,.26,.34,.07,.52,.07c.19,0,.4-.03,.63-.09s.43-.13,.61-.2v-.71Z"/><path class="cls-2" d="M46.92,19.19c.05-.14,.11-.23,.18-.26s.15-.06,.23-.06c.1,0,.2,.06,.3,.18s.16,.27,.16,.46c-.14,1.28-.25,2.56-.34,3.84s-.18,2.56-.27,3.86l-.14,1.89-.3,4.12c.25-.18,.48-.34,.71-.47s.45-.26,.69-.38c.06-.03,.16-.07,.28-.12s.26-.1,.41-.14,.3-.09,.46-.13,.3-.07,.43-.09l.05,.16c-.4,.15-.73,.29-.99,.41s-.51,.25-.71,.38-.4,.28-.59,.42-.39,.33-.63,.53h.02l-.16,.13c-.11,1.41-.22,2.83-.35,4.25s-.29,2.84-.47,4.24-.41,2.79-.66,4.16-.56,2.71-.92,4.02c-.13,.47-.29,.99-.49,1.56s-.44,1.1-.72,1.6-.61,.93-.98,1.29-.78,.55-1.24,.59c-.34-.02-.64-.12-.9-.3s-.47-.43-.65-.74-.31-.68-.39-1.1-.13-.88-.13-1.37c0-.99,.09-2.04,.28-3.15s.44-2.23,.77-3.37,.71-2.26,1.16-3.38,.94-2.17,1.46-3.18,1.07-1.94,1.64-2.8,1.15-1.59,1.72-2.2c.05-.83,.11-1.66,.17-2.47s.12-1.64,.18-2.47l.16-2.15c.05-.71,.1-1.42,.14-2.13s.1-1.43,.18-2.13c-.05-.01-.09-.03-.1-.05-.14,.33-.32,.74-.53,1.23s-.46,1-.73,1.54-.56,1.08-.87,1.61-.63,1.02-.97,1.44-.68,.77-1.03,1.04-.69,.4-1.03,.4c-.31,0-.55-.12-.71-.35s-.29-.5-.37-.79-.13-.56-.14-.82-.02-.4-.02-.43c0-.86,.09-1.66,.28-2.42s.48-1.48,.89-2.15c.19-.32,.41-.63,.67-.94s.54-.58,.87-.83,.68-.44,1.07-.59,.82-.22,1.29-.22c.42,0,.79,.09,1.12,.26,.03-.09,.07-.17,.1-.24s.07-.15,.09-.24l.37-.96Zm-7.18,34.47c.1,.31,.23,.55,.41,.73s.4,.28,.68,.3c.41-.06,.78-.34,1.13-.84s.67-1.14,.97-1.92,.57-1.68,.82-2.69,.47-2.07,.67-3.17,.37-2.21,.53-3.32,.29-2.17,.4-3.17,.21-1.91,.28-2.72,.13-1.46,.18-1.96c-.53,.67-1.06,1.44-1.58,2.29s-1.01,1.77-1.48,2.74-.89,1.98-1.28,3.03-.73,2.1-1.01,3.14-.51,2.08-.67,3.09-.24,1.96-.24,2.86c0,.28,.01,.55,.04,.82s.08,.53,.15,.79Zm1.83-24.82c.18,0,.4-.13,.64-.38s.51-.59,.79-1.01,.56-.9,.86-1.44,.58-1.1,.87-1.68,.55-1.16,.81-1.74,.49-1.11,.69-1.6c-.29-.09-.52-.13-.71-.13-.6,0-1.17,.19-1.7,.57s-1,.88-1.39,1.49-.71,1.31-.94,2.08-.34,1.56-.34,2.35c0,.43,.03,.78,.1,1.07s.18,.42,.34,.42Z"/><path class="cls-2" d="M49.45,27.37c-.03-.4-.05-.81-.05-1.25,0-.2,0-.49,.02-.87s.03-.79,.06-1.23,.06-.9,.1-1.35,.09-.88,.15-1.25,.12-.68,.19-.92,.15-.36,.25-.36c.04,0,.1,.01,.18,.04s.15,.06,.22,.1,.14,.08,.19,.14,.08,.11,.08,.18c-.21,1.07-.37,2.19-.46,3.38s-.14,2.33-.15,3.44l.06,1.19c.03,.21,.07,.41,.1,.59s.1,.37,.18,.56l-.02-.02,.22,.32s-.07,.07-.1,.07-.06,0-.11,0c-.21,0-.39-.11-.52-.32s-.24-.47-.33-.76-.15-.6-.19-.91-.07-.56-.1-.74v-.02Zm1.96-12.11c-.04,.17-.09,.34-.15,.52s-.15,.28-.26,.3c-.09-.05-.14-.15-.18-.3s-.05-.29-.05-.43v-.18c0-.06,.01-.19,.03-.38s.06-.39,.1-.6,.11-.4,.19-.56,.18-.25,.3-.25c.04,0,.12,.03,.24,.1l-.03-.02s.05,.05,.07,.1,.04,.07,.04,.1v.02l.16,.08c-.07,.19-.14,.39-.21,.6s-.12,.41-.18,.6l-.08,.32Z"/><path class="cls-1" d="M68.69,.72c-.52,0-1.1,.06-1.72,.18s-1.26,.31-1.89,.55-1.25,.56-1.85,.93-1.13,.82-1.6,1.32-.84,1.08-1.11,1.72-.42,1.34-.42,2.11c0,.42,.03,.81,.1,1.18s.17,.73,.29,1.08,.28,.7,.46,1.05,.38,.71,.61,1.08v-.02c.59,.9,1.23,1.76,1.94,2.58s1.41,1.65,2.12,2.48,1.4,1.68,2.06,2.54,1.25,1.78,1.75,2.74c.41-.07,.82-.17,1.25-.29s.82-.18,1.17-.18c.03,0,.09,.02,.18,.06s.14,.08,.14,.14c0,.01-.1,.04-.31,.09s-.45,.1-.74,.16-.57,.12-.86,.18-.51,.1-.67,.12c.6,1.24,.9,2.54,.9,3.91,0,1.26-.14,2.49-.42,3.69s-.78,2.38-1.5,3.54c-.46,.64-.98,1.23-1.56,1.76s-1.2,.99-1.86,1.37-1.34,.67-2.06,.88-1.43,.31-2.15,.31c-.35-.01-.72-.05-1.1-.13s-.75-.2-1.11-.36-.7-.38-1.03-.65-.61-.6-.86-.99c-.18-.37-.3-.73-.35-1.07s-.08-.76-.08-1.25c.11-1.07,.37-2.06,.8-2.97s.96-1.75,1.6-2.51,1.36-1.45,2.16-2.06,1.63-1.15,2.49-1.62,1.72-.86,2.58-1.18,1.68-.57,2.45-.75c-.58-1.06-1.25-2.06-2-2.99s-1.53-1.86-2.32-2.77c-.6-.67-1.2-1.37-1.8-2.1s-1.14-1.47-1.63-2.24-.88-1.55-1.19-2.35-.46-1.62-.46-2.45c0-.02,0-.04,0-.05s0-.03,0-.05v-.06c.06-.86,.28-1.63,.63-2.33s.81-1.32,1.35-1.87,1.14-1.02,1.81-1.42,1.35-.73,2.04-.99,1.36-.46,2.02-.59,1.24-.19,1.76-.19c.44,0,.91,.05,1.4,.15s.96,.28,1.39,.55,.79,.62,1.07,1.07,.44,1.03,.46,1.73c-.01,.07-.03,.21-.06,.4s-.07,.4-.12,.63-.12,.44-.2,.65-.18,.36-.31,.46l-.08-.9c-.01-.12-.02-.24-.02-.37v-.35l-.03-.48c-.1-.58-.26-1.05-.5-1.41s-.51-.65-.83-.86-.67-.35-1.06-.42-.77-.11-1.15-.11Zm-.03,22c-.74,.2-1.53,.48-2.37,.83s-1.69,.77-2.53,1.27-1.65,1.07-2.42,1.71-1.46,1.35-2.06,2.13-1.08,1.64-1.45,2.57-.57,1.92-.6,2.98c.04,.44,.16,.84,.35,1.22s.45,.7,.77,.99,.7,.51,1.14,.69,.93,.28,1.48,.31c.41-.01,.8-.05,1.19-.11s.76-.17,1.14-.3c.99-.35,1.88-.85,2.65-1.48s1.43-1.39,1.96-2.28,.94-1.88,1.23-2.99,.42-2.32,.42-3.62c0-.76-.07-1.45-.22-2.06s-.37-1.22-.67-1.8h.02l-.02-.03Z"/><path class="cls-1" d="M77,5.56c-.17,.77-.32,1.56-.45,2.36s-.25,1.61-.37,2.44c1.03-.04,2.06-.08,3.09-.12s2.06-.07,3.07-.1,2-.05,2.97-.06,1.9-.03,2.79-.04h.13c.13,0,.36,0,.7,.02s.69,.03,1.05,.05,.68,.05,.96,.09,.42,.09,.42,.15c0,.09-.05,.15-.16,.21s-.29,.1-.54,.14-.58,.06-.99,.08-.91,.03-1.51,.04l-4.01,.13c-1.34,.04-2.68,.09-4.04,.14s-2.71,.11-4.06,.18c-.29,2.02-.54,4.08-.76,6.17s-.4,4.2-.55,6.31-.25,4.21-.33,6.31-.11,4.16-.11,6.19c0,.62,0,1.24,.02,1.85s.03,1.23,.06,1.85c0,.09,0,.27,.02,.55s.05,.61,.09,.99,.1,.79,.17,1.22,.16,.84,.28,1.21,.26,.7,.42,.97,.35,.45,.56,.52c.01,0,.03,0,.07,.02s.12,.05,.25,.1l-.48,.1c-.31,0-.57-.15-.78-.46s-.38-.68-.53-1.11-.26-.87-.34-1.33-.15-.83-.19-1.12c-.13-1.26-.22-2.5-.27-3.71s-.08-2.45-.08-3.71c0-1.51,.03-3.17,.1-4.99s.17-3.72,.3-5.7,.3-4.01,.5-6.08,.42-4.1,.68-6.1c-1.5,.09-2.94,.18-4.32,.28s-2.74,.24-4.08,.41h-.27s-.04,0-.06,0-.03,0-.06,0c-.16,0-.32-.02-.48-.06s-.26-.12-.3-.24c0-.11,.04-.2,.11-.27s.17-.14,.28-.19,.23-.1,.36-.13,.25-.05,.35-.06c1.35-.17,2.72-.3,4.12-.38s2.88-.17,4.44-.26c.12-.83,.25-1.65,.38-2.46s.28-1.59,.43-2.35c.05-.27,.13-.56,.22-.87s.21-.61,.34-.88,.29-.5,.47-.68,.38-.27,.59-.27l-.22,.66c-.12,.33-.21,.64-.28,.94s-.13,.59-.18,.87c-.02,.09-.03,.15-.03,.19v.02Z"/><path class="cls-1" d="M77.33,27.37c-.03-.4-.05-.81-.05-1.25,0-.2,0-.49,.02-.87s.03-.79,.06-1.23,.06-.9,.1-1.35,.09-.88,.15-1.25,.12-.68,.19-.92,.15-.36,.25-.36c.04,0,.1,.01,.18,.04s.15,.06,.22,.1,.14,.08,.19,.14,.08,.11,.08,.18c-.21,1.07-.37,2.19-.46,3.38s-.14,2.33-.15,3.44l.06,1.19c.03,.21,.07,.41,.1,.59s.1,.37,.18,.56l-.02-.02,.22,.32s-.07,.07-.1,.07-.06,0-.11,0c-.21,0-.39-.11-.52-.32s-.24-.47-.33-.76-.15-.6-.19-.91-.07-.56-.1-.74v-.02Zm1.96-12.11c-.04,.17-.09,.34-.15,.52s-.15,.28-.26,.3c-.09-.05-.14-.15-.18-.3s-.05-.29-.05-.43v-.18c0-.06,.01-.19,.03-.38s.06-.39,.1-.6,.11-.4,.19-.56,.18-.25,.3-.25c.04,0,.12,.03,.24,.1l-.03-.02s.05,.05,.07,.1,.04,.07,.04,.1v.02l.16,.08c-.07,.19-.14,.39-.21,.6s-.12,.41-.18,.6l-.08,.32Z"/><path class="cls-1" d="M87.82,29.87c-.05,.2-.17,.33-.35,.37-.18,0-.32-.07-.41-.21s-.14-.28-.14-.42c.02-.58,.05-1.15,.07-1.73s.06-1.15,.09-1.73l.16-3.4s-.02,0-.02,0,0,0-.02,0c-.11,.41-.25,.84-.44,1.3s-.41,.92-.66,1.38-.53,.9-.83,1.33-.63,.81-.97,1.15-.69,.61-1.06,.83-.73,.35-1.11,.39c-.35-.02-.65-.12-.89-.3s-.44-.41-.59-.71-.26-.64-.34-1.03-.12-.81-.14-1.26c0-.67,.09-1.39,.28-2.14s.45-1.46,.79-2.12,.75-1.22,1.23-1.68,1-.73,1.58-.8c.02-.01,.04-.02,.05-.02,.14,0,.3,.03,.48,.08s.35,.14,.51,.26,.3,.28,.41,.47,.17,.43,.17,.71c0,.62-.17,1.16-.51,1.63s-.75,.87-1.23,1.2-.99,.61-1.52,.83-1,.39-1.39,.51c-.03,.15-.05,.28-.06,.39s0,.22,0,.31c0,.25,.01,.52,.03,.83s.07,.6,.14,.87,.19,.49,.34,.68,.36,.29,.62,.3c.32,0,.64-.09,.96-.27s.63-.42,.92-.73,.58-.65,.85-1.03,.53-.78,.76-1.19,.45-.82,.63-1.21,.34-.75,.47-1.07c.02-.07,.07-.24,.14-.5s.16-.52,.26-.79,.21-.52,.32-.75,.22-.35,.33-.38c.09,.04,.15,.13,.21,.25s.1,.26,.13,.42,.05,.31,.06,.46,.02,.27,.02,.37c-.01,.51-.02,1.03-.03,1.55s-.04,1.03-.08,1.55l-.06,.88s.04,0,.05,0,.02,0,.03,0c.1-.3,.22-.66,.38-1.09s.33-.87,.53-1.34,.41-.93,.65-1.39,.48-.87,.75-1.24,.54-.67,.83-.89,.58-.34,.88-.34h.14c.41,.07,.72,.3,.94,.67s.33,.82,.33,1.35c0,.11-.02,.22-.05,.33s-.09,.22-.16,.31c-.03-.19-.07-.4-.11-.63s-.1-.44-.18-.63-.18-.36-.3-.5-.27-.21-.46-.23c-.32,.04-.64,.27-.96,.67s-.63,.92-.94,1.54-.59,1.3-.87,2.04-.52,1.47-.75,2.18-.41,1.37-.57,1.96-.27,1.06-.34,1.38Zm-3-9.19c-.03-.21-.13-.35-.29-.42s-.32-.1-.46-.11c-.33,.04-.65,.2-.95,.46s-.57,.58-.82,.95-.46,.78-.65,1.23-.34,.87-.46,1.27c.19-.09,.49-.25,.89-.48s.81-.51,1.22-.81,.77-.63,1.07-.97,.46-.67,.46-.98c0-.01,0-.02,0-.02s0-.02,0-.04v-.08Z"/></g></svg>