<?xml version="1.0" encoding="utf-8"?>
<!-- Generator: Adobe Illustrator 26.4.1, SVG Export Plug-In . SVG Version: 6.00 Build 0)  -->
<svg version="1.1" id="Layer_2_00000145750724872157737330000017716292832793827217_"
	 xmlns="http://www.w3.org/2000/svg" xmlns:xlink="http://www.w3.org/1999/xlink" x="0px" y="0px" viewBox="0 0 93.5 55.6"
	 style="enable-background:new 0 0 93.5 55.6;" xml:space="preserve">
<style type="text/css">
	.st0{fill:#FFFFFF;}
	.st1{fill:#E17A00;}
</style>
<path class="st0" d="M9.1,25.2c-0.1,0-0.2,0-0.3-0.1S8.7,25,8.7,24.9c0-0.1,0-0.2,0.1-0.3s0.2-0.1,0.3-0.1c0.5,0,1-0.1,1.6-0.3
	s1.1-0.3,1.6-0.5s1.1-0.4,1.6-0.6s1-0.4,1.5-0.7h0l0.5-0.3c0.1-0.1,0.3-0.2,0.5-0.3s0.4-0.2,0.6-0.3s0.4-0.2,0.6-0.3
	s0.3-0.1,0.4-0.2c0,0.1-0.1,0.3-0.2,0.4s-0.4,0.4-0.6,0.5s-0.5,0.3-0.7,0.5s-0.4,0.3-0.5,0.3l-0.4,0.3c0.1,0.4,0.2,0.8,0.2,1.2
	s0.1,0.8,0.1,1.1c0,1.3-0.2,2.5-0.5,3.8s-0.8,2.4-1.4,3.5s-1.3,2-2.1,2.8s-1.7,1.4-2.6,1.8c-0.4,0.2-0.9,0.3-1.4,0.3s-1,0.1-1.5,0.1
	c-1.1-0.1-2.1-0.4-2.9-1.1s-1.5-1.6-2.1-2.8c-0.5-1.2-0.8-2.3-0.9-3.5S0,28,0,26.8v-1.1c0-0.1,0-0.2,0-0.4c0.1-1.3,0.2-2.6,0.5-4
	s0.5-2.7,0.8-4s0.7-2.7,1.2-4s1-2.6,1.6-3.8c0.5-1,1.1-2,1.8-3S7.3,4.8,8.1,4S9.8,2.5,10.7,2s1.9-0.8,3-0.9c0.3,0,0.6,0,0.9,0.1
	s0.6,0.1,0.8,0.2s0.5,0.3,0.8,0.5s0.5,0.4,0.7,0.7c0.3,0.5,0.5,1.1,0.7,1.6s0.2,1.1,0.2,1.7v0.2c0,0.1,0,0.3-0.1,0.5
	s-0.1,0.5-0.1,0.8S17.5,8,17.4,8.3S17.2,8.9,17,9.2s-0.2,0.5-0.4,0.7s-0.3,0.3-0.4,0.3c0-0.1,0-0.2,0.1-0.4s0.1-0.4,0.1-0.7
	s0.1-0.5,0.1-0.8c0-0.3,0.1-0.6,0.1-0.8s0.1-0.5,0.1-0.7s0-0.4,0-0.4c0-0.6-0.1-1.2-0.2-1.7s-0.3-1-0.6-1.4s-0.6-0.7-0.9-0.9
	s-0.8-0.3-1.2-0.3S13,2,12.5,2.1s-0.9,0.3-1.3,0.5C10.1,3.2,9.1,4,8.2,5.1S6.4,7.3,5.6,8.7s-1.5,2.8-2.1,4.4S2.4,16.3,2,17.9
	s-0.7,3.2-0.9,4.7s-0.3,3-0.3,4.3c0,1.2,0.1,2.3,0.2,3.4s0.5,2.2,0.9,3.3c0.5,1.1,1.1,1.9,1.8,2.5s1.6,0.9,2.5,1
	c0.4,0,0.8,0,1.3-0.1s0.9-0.2,1.3-0.3c0.9-0.4,1.7-1,2.5-1.7s1.4-1.7,1.9-2.7c0.6-1,1-2.1,1.3-3.3s0.5-2.4,0.6-3.5
	c0-0.2,0-0.3,0-0.5s0-0.4,0-0.6s0-0.4,0-0.6s0-0.4-0.1-0.5c-1.1,0.5-2.1,1-3.1,1.3S10.1,25.2,9.1,25.2L9.1,25.2L9.1,25.2z"/>
<path class="st0" d="M20.8,27.9c0.4,0,0.8-0.1,1.2-0.2s0.8-0.4,1.2-0.6s0.8-0.5,1.2-0.8s0.7-0.5,1-0.8l0.5-0.6
	c0.1-0.1,0.2-0.3,0.4-0.5s0.3-0.3,0.5-0.5s0.3-0.3,0.4-0.4s0.2-0.2,0.3-0.2l0.1-0.1c0,0,0,0.1,0,0.1c0,0.1-0.1,0.3-0.2,0.5
	s-0.3,0.5-0.5,0.8s-0.4,0.5-0.6,0.8s-0.4,0.4-0.5,0.5v0c-0.3,0.3-0.7,0.6-1.1,1s-0.8,0.6-1.3,0.9s-0.9,0.5-1.4,0.7s-0.9,0.3-1.3,0.3
	c-0.4,0-0.7-0.1-1.1-0.3s-0.6-0.5-0.8-0.9c-0.1-0.3-0.2-0.6-0.3-1s-0.1-0.7-0.1-1c0-0.5,0-0.9,0.1-1.4s0.2-1,0.4-1.5
	s0.4-0.9,0.6-1.4s0.5-0.8,0.8-1.2s0.6-0.6,0.9-0.9s0.7-0.4,1.1-0.4c0.1,0,0.3,0,0.5,0.1s0.4,0.1,0.5,0.2s0.3,0.3,0.4,0.5
	s0.2,0.5,0.2,0.9c0,0.4-0.1,0.8-0.2,1.1s-0.4,0.6-0.6,0.9s-0.6,0.5-0.9,0.7s-0.6,0.4-1,0.5s-0.6,0.2-0.9,0.3s-0.5,0.1-0.7,0.1
	c-0.1,0-0.3,0-0.4-0.1c0,0.2-0.1,0.5-0.1,0.7s0,0.5-0.1,0.7c0,0.3,0.1,0.6,0.1,0.8s0.1,0.5,0.3,0.7s0.3,0.3,0.5,0.5
	S20.5,27.9,20.8,27.9L20.8,27.9z M22.4,20.2c-0.3,0-0.6,0.2-0.9,0.4s-0.6,0.6-0.8,0.9s-0.5,0.8-0.7,1.2s-0.4,0.8-0.5,1.2
	c0.2,0,0.4-0.1,0.6-0.2s0.5-0.2,0.7-0.4s0.5-0.4,0.8-0.5s0.5-0.4,0.7-0.6s0.4-0.5,0.5-0.7s0.2-0.5,0.3-0.7c0-0.2-0.1-0.3-0.3-0.4
	S22.6,20.1,22.4,20.2L22.4,20.2L22.4,20.2z"/>
<path class="st0" d="M34,21.7c-0.2,0.3-0.4,0.7-0.7,1s-0.6,0.5-0.9,0.8c0,0.4-0.1,0.9-0.2,1.4s-0.2,1-0.3,1.5s-0.3,1-0.5,1.5
	s-0.4,0.9-0.7,1.3s-0.6,0.7-0.9,0.9s-0.7,0.4-1.1,0.4c-0.4,0-0.8-0.1-1-0.4s-0.5-0.6-0.7-1s-0.3-0.8-0.4-1.3s-0.1-0.9-0.1-1.2
	c0-0.5,0-1,0.1-1.5s0.2-1,0.3-1.4c0-0.1,0.1-0.3,0.2-0.5s0.2-0.4,0.3-0.6s0.2-0.4,0.4-0.5s0.2-0.2,0.3-0.2c0,0,0.1,0,0.1,0
	c0-0.3,0.1-0.6,0.2-1s0.3-0.6,0.5-0.8s0.4-0.4,0.6-0.5s0.5-0.2,0.8-0.2c0.3,0,0.6,0.1,0.8,0.3s0.4,0.4,0.6,0.7
	c0.2,0.3,0.3,0.6,0.4,1s0.1,0.8,0.2,1.2c0.3-0.2,0.5-0.4,0.7-0.6s0.4-0.4,0.5-0.6v0l0.8-1.2c0,0,0,0,0.1,0s0.1,0,0.1,0
	c0.1,0,0.1,0.1,0.2,0.2s0.1,0.2,0.1,0.4s0.1,0.3,0.1,0.4s0,0.3,0,0.4c0,0,0,0.1,0,0.1s0,0,0,0.1l0,0.2c0,0.6,0,1.2-0.1,1.8
	s-0.1,1.2-0.1,1.8c0,0,0,0,0,0s0,0,0,0c0.1-0.3,0.2-0.7,0.4-1.1s0.3-0.9,0.5-1.3s0.4-0.9,0.7-1.4s0.5-0.9,0.8-1.2s0.5-0.7,0.8-0.9
	s0.6-0.3,0.9-0.3h0.1c0.4,0.1,0.7,0.3,0.9,0.7s0.3,0.8,0.3,1.3c0,0.1,0,0.2,0,0.3s0,0.2-0.1,0.2c-0.1,0-0.2-0.1-0.2-0.2s0-0.3,0-0.4
	l0-0.3c0-0.3-0.2-0.5-0.3-0.6s-0.3-0.3-0.5-0.3c-0.3,0-0.6,0.3-1,0.7s-0.6,0.9-0.9,1.5s-0.6,1.3-0.9,2s-0.5,1.5-0.7,2.2
	s-0.4,1.4-0.6,2s-0.3,1.1-0.4,1.4c0,0.2-0.1,0.3-0.3,0.4c-0.2,0-0.4-0.1-0.4-0.2s-0.1-0.3-0.1-0.4l0.3-2.7L34,21.7L34,21.7L34,21.7z
	 M31.6,23.9C31.4,23.9,31.2,24,31,24s-0.4,0.1-0.6,0.1c-0.5,0-0.9-0.1-1.2-0.4s-0.6-0.7-0.8-1.3c-0.2,0.3-0.3,0.6-0.4,0.9
	s-0.1,0.5-0.2,0.6c-0.2,0.8-0.4,1.7-0.4,2.5c0,0,0,0.1,0,0.3s0,0.4,0,0.6s0.1,0.5,0.1,0.7s0.1,0.5,0.2,0.7s0.2,0.4,0.3,0.5
	s0.3,0.2,0.5,0.2c0.3,0,0.6-0.1,0.8-0.3s0.5-0.5,0.7-0.8s0.4-0.6,0.5-1s0.3-0.8,0.4-1.2s0.2-0.8,0.3-1.2S31.6,24.3,31.6,23.9
	L31.6,23.9L31.6,23.9z M31.7,22.4c0-0.2,0-0.5-0.1-0.7s-0.1-0.5-0.2-0.7s-0.2-0.4-0.3-0.5s-0.3-0.2-0.5-0.2c-0.4,0-0.7,0.1-1,0.5
	s-0.5,0.7-0.5,1.1c0,0.3,0.1,0.6,0.1,0.8s0.2,0.4,0.3,0.5s0.3,0.2,0.4,0.3s0.3,0.1,0.5,0.1c0.2,0,0.4,0,0.6-0.1s0.4-0.1,0.6-0.2
	L31.7,22.4L31.7,22.4z"/>
<path class="st0" d="M46.9,19.2c0-0.1,0.1-0.2,0.2-0.3s0.2-0.1,0.2-0.1c0.1,0,0.2,0.1,0.3,0.2s0.2,0.3,0.2,0.5
	c-0.1,1.3-0.2,2.6-0.3,3.8s-0.2,2.6-0.3,3.9L47,29.1l-0.3,4.1c0.2-0.2,0.5-0.3,0.7-0.5s0.5-0.3,0.7-0.4c0.1,0,0.2-0.1,0.3-0.1
	s0.3-0.1,0.4-0.1s0.3-0.1,0.5-0.1c0.2,0,0.3-0.1,0.4-0.1l0,0.2c-0.4,0.2-0.7,0.3-1,0.4s-0.5,0.2-0.7,0.4s-0.4,0.3-0.6,0.4
	s-0.4,0.3-0.6,0.5h0l-0.2,0.1c-0.1,1.4-0.2,2.8-0.3,4.2s-0.3,2.8-0.5,4.2s-0.4,2.8-0.7,4.2s-0.6,2.7-0.9,4c-0.1,0.5-0.3,1-0.5,1.6
	s-0.4,1.1-0.7,1.6s-0.6,0.9-1,1.3s-0.8,0.5-1.2,0.6c-0.3,0-0.6-0.1-0.9-0.3s-0.5-0.4-0.7-0.7s-0.3-0.7-0.4-1.1s-0.1-0.9-0.1-1.4
	c0-1,0.1-2,0.3-3.2s0.4-2.2,0.8-3.4s0.7-2.3,1.2-3.4s0.9-2.2,1.5-3.2s1.1-1.9,1.6-2.8s1.2-1.6,1.7-2.2c0-0.8,0.1-1.7,0.2-2.5
	c0.1-0.8,0.1-1.6,0.2-2.5l0.2-2.1c0-0.7,0.1-1.4,0.1-2.1s0.1-1.4,0.2-2.1c0,0-0.1,0-0.1,0c-0.1,0.3-0.3,0.7-0.5,1.2s-0.5,1-0.7,1.5
	s-0.6,1.1-0.9,1.6s-0.6,1-1,1.4s-0.7,0.8-1,1s-0.7,0.4-1,0.4c-0.3,0-0.5-0.1-0.7-0.4s-0.3-0.5-0.4-0.8s-0.1-0.6-0.1-0.8s0-0.4,0-0.4
	c0-0.9,0.1-1.7,0.3-2.4s0.5-1.5,0.9-2.1c0.2-0.3,0.4-0.6,0.7-0.9s0.5-0.6,0.9-0.8s0.7-0.4,1.1-0.6s0.8-0.2,1.3-0.2
	c0.4,0,0.8,0.1,1.1,0.3c0-0.1,0.1-0.2,0.1-0.2s0.1-0.1,0.1-0.2L46.9,19.2L46.9,19.2z M39.7,53.7c0.1,0.3,0.2,0.5,0.4,0.7
	s0.4,0.3,0.7,0.3c0.4-0.1,0.8-0.3,1.1-0.8s0.7-1.1,1-1.9s0.6-1.7,0.8-2.7s0.5-2.1,0.7-3.2s0.4-2.2,0.5-3.3s0.3-2.2,0.4-3.2
	s0.2-1.9,0.3-2.7s0.1-1.5,0.2-2c-0.5,0.7-1.1,1.4-1.6,2.3s-1,1.8-1.5,2.7s-0.9,2-1.3,3s-0.7,2.1-1,3.1s-0.5,2.1-0.7,3.1
	s-0.2,2-0.2,2.9c0,0.3,0,0.5,0,0.8S39.7,53.4,39.7,53.7z M41.6,28.8c0.2,0,0.4-0.1,0.6-0.4s0.5-0.6,0.8-1s0.6-0.9,0.9-1.4
	s0.6-1.1,0.9-1.7s0.5-1.2,0.8-1.7s0.5-1.1,0.7-1.6c-0.3-0.1-0.5-0.1-0.7-0.1c-0.6,0-1.2,0.2-1.7,0.6s-1,0.9-1.4,1.5
	s-0.7,1.3-0.9,2.1s-0.3,1.6-0.3,2.4c0,0.4,0,0.8,0.1,1.1S41.4,28.8,41.6,28.8L41.6,28.8z"/>
<path class="st0" d="M49.5,27.4c0-0.4,0-0.8,0-1.2c0-0.2,0-0.5,0-0.9s0-0.8,0.1-1.2s0.1-0.9,0.1-1.4s0.1-0.9,0.2-1.2
	s0.1-0.7,0.2-0.9s0.2-0.4,0.2-0.4c0,0,0.1,0,0.2,0s0.2,0.1,0.2,0.1s0.1,0.1,0.2,0.1s0.1,0.1,0.1,0.2c-0.2,1.1-0.4,2.2-0.5,3.4
	s-0.1,2.3-0.2,3.4l0.1,1.2c0,0.2,0.1,0.4,0.1,0.6s0.1,0.4,0.2,0.6l0,0l0.2,0.3c0,0-0.1,0.1-0.1,0.1s-0.1,0-0.1,0
	c-0.2,0-0.4-0.1-0.5-0.3s-0.2-0.5-0.3-0.8s-0.2-0.6-0.2-0.9S49.5,27.6,49.5,27.4L49.5,27.4L49.5,27.4z M51.4,15.3
	c0,0.2-0.1,0.3-0.2,0.5s-0.2,0.3-0.3,0.3c-0.1,0-0.1-0.1-0.2-0.3s0-0.3,0-0.4v-0.2c0-0.1,0-0.2,0-0.4s0.1-0.4,0.1-0.6
	s0.1-0.4,0.2-0.6s0.2-0.2,0.3-0.2c0,0,0.1,0,0.2,0.1l0,0c0,0,0,0.1,0.1,0.1s0,0.1,0,0.1v0l0.2,0.1c-0.1,0.2-0.1,0.4-0.2,0.6
	s-0.1,0.4-0.2,0.6L51.4,15.3L51.4,15.3z"/>
<path class="st1" d="M68.7,0.7c-0.5,0-1.1,0.1-1.7,0.2s-1.3,0.3-1.9,0.6S63.8,2,63.2,2.4s-1.1,0.8-1.6,1.3s-0.8,1.1-1.1,1.7
	s-0.4,1.3-0.4,2.1c0,0.4,0,0.8,0.1,1.2s0.2,0.7,0.3,1.1s0.3,0.7,0.5,1.1s0.4,0.7,0.6,1.1v0c0.6,0.9,1.2,1.8,1.9,2.6
	c0.7,0.8,1.4,1.6,2.1,2.5s1.4,1.7,2.1,2.5s1.2,1.8,1.8,2.7c0.4-0.1,0.8-0.2,1.2-0.3s0.8-0.2,1.2-0.2c0,0,0.1,0,0.2,0.1
	s0.1,0.1,0.1,0.1c0,0-0.1,0-0.3,0.1s-0.4,0.1-0.7,0.2s-0.6,0.1-0.9,0.2s-0.5,0.1-0.7,0.1c0.6,1.2,0.9,2.5,0.9,3.9
	c0,1.3-0.1,2.5-0.4,3.7s-0.8,2.4-1.5,3.5c-0.5,0.6-1,1.2-1.6,1.8s-1.2,1-1.9,1.4s-1.3,0.7-2.1,0.9S61.7,38,60.9,38
	c-0.3,0-0.7,0-1.1-0.1s-0.8-0.2-1.1-0.4s-0.7-0.4-1-0.7s-0.6-0.6-0.9-1c-0.2-0.4-0.3-0.7-0.3-1.1s-0.1-0.8-0.1-1.2
	c0.1-1.1,0.4-2.1,0.8-3s1-1.8,1.6-2.5s1.4-1.5,2.2-2.1s1.6-1.1,2.5-1.6s1.7-0.9,2.6-1.2s1.7-0.6,2.4-0.8c-0.6-1.1-1.2-2.1-2-3
	s-1.5-1.9-2.3-2.8c-0.6-0.7-1.2-1.4-1.8-2.1s-1.1-1.5-1.6-2.2s-0.9-1.6-1.2-2.4s-0.5-1.6-0.5-2.5c0,0,0,0,0-0.1s0,0,0-0.1V7.4
	c0.1-0.9,0.3-1.6,0.6-2.3s0.8-1.3,1.3-1.9s1.1-1,1.8-1.4s1.4-0.7,2-1s1.4-0.5,2-0.6S68.2,0,68.7,0c0.4,0,0.9,0.1,1.4,0.2
	s1,0.3,1.4,0.6s0.8,0.6,1.1,1.1s0.4,1,0.5,1.7c0,0.1,0,0.2-0.1,0.4c0,0.2-0.1,0.4-0.1,0.6S72.7,5,72.6,5.2s-0.2,0.4-0.3,0.5
	l-0.1-0.9c0-0.1,0-0.2,0-0.4V4l0-0.5c-0.1-0.6-0.3-1-0.5-1.4s-0.5-0.6-0.8-0.9s-0.7-0.4-1.1-0.4S69,0.7,68.7,0.7L68.7,0.7z
	 M68.7,22.7c-0.7,0.2-1.5,0.5-2.4,0.8s-1.7,0.8-2.5,1.3s-1.7,1.1-2.4,1.7s-1.5,1.4-2.1,2.1s-1.1,1.6-1.5,2.6c-0.4,0.9-0.6,1.9-0.6,3
	c0,0.4,0.2,0.8,0.3,1.2s0.5,0.7,0.8,1s0.7,0.5,1.1,0.7s0.9,0.3,1.5,0.3c0.4,0,0.8,0,1.2-0.1s0.8-0.2,1.1-0.3c1-0.3,1.9-0.8,2.6-1.5
	s1.4-1.4,2-2.3s0.9-1.9,1.2-3s0.4-2.3,0.4-3.6c0-0.8-0.1-1.5-0.2-2.1S69,23.4,68.7,22.7L68.7,22.7L68.7,22.7L68.7,22.7z"/>
<path class="st1" d="M77,5.6c-0.2,0.8-0.3,1.6-0.4,2.4s-0.2,1.6-0.4,2.4c1,0,2.1-0.1,3.1-0.1s2.1-0.1,3.1-0.1s2-0.1,3-0.1
	s1.9,0,2.8,0h0.1c0.1,0,0.4,0,0.7,0s0.7,0,1.1,0.1s0.7,0.1,1,0.1s0.4,0.1,0.4,0.1c0,0.1-0.1,0.1-0.2,0.2s-0.3,0.1-0.5,0.1
	s-0.6,0.1-1,0.1s-0.9,0-1.5,0l-4,0.1c-1.3,0-2.7,0.1-4,0.1s-2.7,0.1-4.1,0.2c-0.3,2-0.5,4.1-0.8,6.2s-0.4,4.2-0.6,6.3
	s-0.2,4.2-0.3,6.3s-0.1,4.2-0.1,6.2c0,0.6,0,1.2,0,1.8s0,1.2,0.1,1.8c0,0.1,0,0.3,0,0.5s0.1,0.6,0.1,1s0.1,0.8,0.2,1.2
	s0.2,0.8,0.3,1.2s0.3,0.7,0.4,1s0.3,0.5,0.6,0.5c0,0,0,0,0.1,0s0.1,0,0.2,0.1l-0.5,0.1c-0.3,0-0.6-0.2-0.8-0.5s-0.4-0.7-0.5-1.1
	s-0.3-0.9-0.3-1.3s-0.2-0.8-0.2-1.1c-0.1-1.3-0.2-2.5-0.3-3.7s-0.1-2.5-0.1-3.7c0-1.5,0-3.2,0.1-5s0.2-3.7,0.3-5.7s0.3-4,0.5-6.1
	s0.4-4.1,0.7-6.1c-1.5,0.1-2.9,0.2-4.3,0.3s-2.7,0.2-4.1,0.4h-0.3c0,0,0,0-0.1,0s0,0-0.1,0c-0.2,0-0.3,0-0.5-0.1s-0.3-0.1-0.3-0.2
	c0-0.1,0-0.2,0.1-0.3s0.2-0.1,0.3-0.2s0.2-0.1,0.4-0.1s0.2-0.1,0.3-0.1c1.3-0.2,2.7-0.3,4.1-0.4s2.9-0.2,4.4-0.3
	c0.1-0.8,0.2-1.6,0.4-2.5s0.3-1.6,0.4-2.3c0.1-0.3,0.1-0.6,0.2-0.9s0.2-0.6,0.3-0.9s0.3-0.5,0.5-0.7s0.4-0.3,0.6-0.3l-0.2,0.7
	c-0.1,0.3-0.2,0.6-0.3,0.9S77,5.1,77,5.4C77,5.5,77,5.5,77,5.6L77,5.6L77,5.6z"/>
<path class="st1" d="M77.3,27.4c0-0.4-0.1-0.8-0.1-1.2c0-0.2,0-0.5,0-0.9s0-0.8,0.1-1.2s0.1-0.9,0.1-1.4s0.1-0.9,0.2-1.2
	s0.1-0.7,0.2-0.9s0.2-0.4,0.2-0.4c0,0,0.1,0,0.2,0s0.2,0.1,0.2,0.1s0.1,0.1,0.2,0.1s0.1,0.1,0.1,0.2c-0.2,1.1-0.4,2.2-0.5,3.4
	s-0.1,2.3-0.2,3.4l0.1,1.2c0,0.2,0.1,0.4,0.1,0.6s0.1,0.4,0.2,0.6l0,0l0.2,0.3c0,0-0.1,0.1-0.1,0.1s-0.1,0-0.1,0
	c-0.2,0-0.4-0.1-0.5-0.3s-0.2-0.5-0.3-0.8s-0.2-0.6-0.2-0.9S77.3,27.6,77.3,27.4L77.3,27.4L77.3,27.4z M79.3,15.3
	c0,0.2-0.1,0.3-0.2,0.5s-0.2,0.3-0.3,0.3c-0.1,0-0.1-0.1-0.2-0.3s-0.1-0.3-0.1-0.4v-0.2c0-0.1,0-0.2,0-0.4s0.1-0.4,0.1-0.6
	s0.1-0.4,0.2-0.6s0.2-0.2,0.3-0.2c0,0,0.1,0,0.2,0.1l0,0c0,0,0.1,0.1,0.1,0.1s0,0.1,0,0.1v0l0.2,0.1c-0.1,0.2-0.1,0.4-0.2,0.6
	s-0.1,0.4-0.2,0.6L79.3,15.3L79.3,15.3z"/>
<path class="st1" d="M87.8,29.9c-0.1,0.2-0.2,0.3-0.3,0.4c-0.2,0-0.3-0.1-0.4-0.2s-0.1-0.3-0.1-0.4c0-0.6,0.1-1.1,0.1-1.7
	s0.1-1.1,0.1-1.7l0.2-3.4h0c0,0,0,0,0,0c-0.1,0.4-0.2,0.8-0.4,1.3s-0.4,0.9-0.7,1.4s-0.5,0.9-0.8,1.3s-0.6,0.8-1,1.1
	s-0.7,0.6-1.1,0.8s-0.7,0.4-1.1,0.4c-0.3,0-0.7-0.1-0.9-0.3s-0.4-0.4-0.6-0.7s-0.3-0.6-0.3-1s-0.1-0.8-0.1-1.3
	c0-0.7,0.1-1.4,0.3-2.1s0.4-1.5,0.8-2.1s0.8-1.2,1.2-1.7s1-0.7,1.6-0.8c0,0,0,0,0.1,0c0.1,0,0.3,0,0.5,0.1s0.3,0.1,0.5,0.3
	s0.3,0.3,0.4,0.5s0.2,0.4,0.2,0.7c0,0.6-0.2,1.2-0.5,1.6s-0.8,0.9-1.2,1.2s-1,0.6-1.5,0.8s-1,0.4-1.4,0.5c0,0.1-0.1,0.3-0.1,0.4
	s0,0.2,0,0.3c0,0.2,0,0.5,0,0.8s0.1,0.6,0.1,0.9s0.2,0.5,0.3,0.7s0.4,0.3,0.6,0.3c0.3,0,0.6-0.1,1-0.3s0.6-0.4,0.9-0.7
	s0.6-0.6,0.8-1s0.5-0.8,0.8-1.2s0.4-0.8,0.6-1.2s0.3-0.8,0.5-1.1c0-0.1,0.1-0.2,0.1-0.5s0.2-0.5,0.3-0.8s0.2-0.5,0.3-0.8
	s0.2-0.4,0.3-0.4c0.1,0,0.2,0.1,0.2,0.2s0.1,0.3,0.1,0.4s0.1,0.3,0.1,0.5s0,0.3,0,0.4c0,0.5,0,1,0,1.5s0,1-0.1,1.5L88,25.7
	c0,0,0,0,0.1,0s0,0,0,0c0.1-0.3,0.2-0.7,0.4-1.1s0.3-0.9,0.5-1.3s0.4-0.9,0.7-1.4s0.5-0.9,0.8-1.2s0.5-0.7,0.8-0.9s0.6-0.3,0.9-0.3
	h0.1c0.4,0.1,0.7,0.3,0.9,0.7s0.3,0.8,0.3,1.4c0,0.1,0,0.2-0.1,0.3s-0.1,0.2-0.2,0.3c0-0.2-0.1-0.4-0.1-0.6S93.1,21,93,20.8
	s-0.2-0.4-0.3-0.5s-0.3-0.2-0.5-0.2c-0.3,0-0.6,0.3-1,0.7s-0.6,0.9-0.9,1.5s-0.6,1.3-0.9,2s-0.5,1.5-0.8,2.2s-0.4,1.4-0.6,2
	S87.9,29.5,87.8,29.9L87.8,29.9z M84.8,20.7c0-0.2-0.1-0.4-0.3-0.4s-0.3-0.1-0.5-0.1c-0.3,0-0.7,0.2-0.9,0.5s-0.6,0.6-0.8,1
	s-0.5,0.8-0.7,1.2s-0.3,0.9-0.5,1.3c0.2-0.1,0.5-0.2,0.9-0.5s0.8-0.5,1.2-0.8s0.8-0.6,1.1-1s0.5-0.7,0.5-1c0,0,0,0,0,0
	S84.8,20.8,84.8,20.7L84.8,20.7L84.8,20.7z"/>
</svg>
