<?xml version="1.0" encoding="utf-8"?>
<!-- Generator: Adobe Illustrator 27.3.1, SVG Export Plug-In . SVG Version: 6.00 Build 0)  -->
<svg version="1.1" id="Layer_2_00000085217535169927578990000004499182802874897832_"
	 xmlns="http://www.w3.org/2000/svg" xmlns:xlink="http://www.w3.org/1999/xlink" x="0px" y="0px" viewBox="0 0 96.4 57.3"
	 style="enable-background:new 0 0 96.4 57.3;" xml:space="preserve">
<style type="text/css">
	.st0{fill:#E17A00;}
	.st1{fill:#FFFFFF;}
</style>
<g id="Layer_1-2">
	<path class="st0" d="M10.5,26.1c-0.1,0-0.2,0-0.3-0.1s-0.1-0.1-0.1-0.2c0-0.1,0-0.2,0.1-0.3s0.2-0.1,0.3-0.1c0.5,0,1-0.1,1.6-0.3
		s1.1-0.3,1.6-0.5s1.1-0.4,1.6-0.6s1-0.4,1.5-0.7h0l0.5-0.3c0.1-0.1,0.3-0.2,0.5-0.3s0.4-0.2,0.6-0.3s0.4-0.2,0.6-0.3
		s0.3-0.1,0.4-0.2c0,0.1-0.1,0.3-0.2,0.4s-0.4,0.4-0.6,0.5s-0.5,0.3-0.7,0.5s-0.4,0.3-0.5,0.3L16.8,24c0.1,0.4,0.2,0.8,0.2,1.2
		c0,0.4,0.1,0.8,0.1,1.1c0,1.3-0.2,2.5-0.5,3.8s-0.8,2.4-1.4,3.5s-1.3,2-2.1,2.8s-1.7,1.4-2.6,1.8c-0.4,0.2-0.9,0.3-1.4,0.3
		c-0.5,0.1-1,0.1-1.5,0.1c-1.1-0.1-2.1-0.4-2.9-1.1S3.2,36,2.6,34.8c-0.5-1.2-0.8-2.3-0.9-3.5c-0.1-1.2-0.2-2.4-0.2-3.6v-1.1
		c0-0.1,0-0.2,0-0.4c0.1-1.3,0.2-2.6,0.5-4s0.5-2.7,0.8-4s0.7-2.7,1.2-4s1-2.6,1.6-3.8c0.5-1,1.1-2,1.8-3s1.4-1.9,2.2-2.7
		s1.7-1.4,2.6-1.9s1.9-0.8,3-0.9c0.3,0,0.6,0,0.9,0.1c0.3,0,0.6,0.1,0.8,0.2c0.3,0.1,0.5,0.3,0.8,0.5c0.2,0.2,0.5,0.4,0.7,0.8
		C18.7,4,18.9,4.6,19,5.1s0.2,1.1,0.2,1.7v0.2c0,0.1,0,0.3-0.1,0.5S19.1,8,19,8.3c-0.1,0.3-0.1,0.6-0.2,0.9s-0.2,0.6-0.3,0.8
		s-0.2,0.5-0.4,0.7S17.8,11,17.7,11c0-0.1,0-0.2,0.1-0.4s0.1-0.4,0.1-0.7S18,9.4,18,9.1s0.1-0.6,0.1-0.8c0-0.3,0.1-0.5,0.1-0.7
		s0-0.4,0-0.4c0-0.6-0.1-1.2-0.2-1.7s-0.3-1-0.6-1.4S17,3.4,16.6,3.1c-0.4-0.2-0.8-0.3-1.2-0.3S14.5,2.9,14,3s-0.9,0.3-1.3,0.5
		c-1.1,0.6-2.1,1.4-3.1,2.5S7.8,8.2,7,9.6S5.6,12.4,5,14s-1.1,3.2-1.5,4.8s-0.7,3.2-0.9,4.7s-0.3,3-0.3,4.3c0,1.2,0.1,2.3,0.2,3.4
		c0.1,1.1,0.5,2.2,0.9,3.3c0.5,1.1,1.1,1.9,1.8,2.5s1.6,0.9,2.5,1c0.4,0,0.8,0,1.3-0.1c0.5,0,0.9-0.2,1.3-0.3c0.9-0.4,1.7-1,2.5-1.7
		s1.4-1.7,1.9-2.7s1-2.1,1.3-3.3s0.5-2.4,0.6-3.5c0-0.2,0-0.3,0-0.5s0-0.4,0-0.6s0-0.4,0-0.6c0-0.2,0-0.4-0.1-0.5
		c-1.1,0.5-2.1,1-3.1,1.3S11.5,26,10.5,26.1L10.5,26.1L10.5,26.1z"/>
	<path class="st0" d="M22.2,28.8c0.4,0,0.8-0.1,1.2-0.2s0.8-0.4,1.2-0.6s0.8-0.5,1.2-0.8s0.7-0.5,1-0.8l0.5-0.6
		c0.1-0.1,0.2-0.3,0.4-0.5s0.3-0.3,0.5-0.5s0.3-0.3,0.4-0.4s0.2-0.2,0.3-0.2l0.1-0.1c0,0,0,0.1,0,0.1c0,0.1-0.1,0.3-0.2,0.5
		s-0.3,0.5-0.5,0.8s-0.4,0.5-0.6,0.8s-0.4,0.4-0.5,0.5v0c-0.3,0.3-0.7,0.6-1.1,1s-0.8,0.6-1.3,0.9s-0.9,0.5-1.4,0.7
		s-0.9,0.3-1.3,0.3c-0.4,0-0.7-0.1-1.1-0.3s-0.6-0.5-0.8-0.9c-0.1-0.3-0.2-0.6-0.3-1s-0.1-0.7-0.1-1c0-0.5,0-0.9,0.1-1.4
		s0.2-1,0.4-1.5s0.4-0.9,0.6-1.4s0.5-0.8,0.8-1.2s0.6-0.6,0.9-0.9s0.7-0.4,1.1-0.4c0.1,0,0.3,0,0.5,0.1s0.4,0.1,0.5,0.2
		s0.3,0.3,0.4,0.5s0.2,0.5,0.2,0.9c0,0.4-0.1,0.8-0.2,1.1s-0.4,0.6-0.6,0.9s-0.6,0.5-0.9,0.7s-0.6,0.4-1,0.5s-0.6,0.2-0.9,0.3
		s-0.5,0.1-0.7,0.1c-0.1,0-0.3,0-0.4-0.1c0,0.2-0.1,0.5-0.1,0.7s0,0.5-0.1,0.7c0,0.3,0.1,0.6,0.1,0.8s0.1,0.5,0.3,0.7
		s0.3,0.3,0.5,0.5S21.9,28.8,22.2,28.8L22.2,28.8z M23.8,21c-0.3,0-0.6,0.2-0.9,0.4s-0.6,0.6-0.8,0.9s-0.5,0.8-0.7,1.2
		s-0.4,0.8-0.5,1.2c0.2,0,0.4-0.1,0.6-0.2s0.5-0.2,0.7-0.4s0.5-0.4,0.8-0.5s0.5-0.4,0.7-0.6s0.4-0.5,0.5-0.7s0.2-0.5,0.3-0.7
		c0-0.2-0.1-0.3-0.3-0.4S24,21,23.8,21L23.8,21L23.8,21z"/>
	<path class="st0" d="M35.5,22.5c-0.2,0.3-0.4,0.7-0.7,1s-0.6,0.5-0.9,0.8c0,0.4-0.1,0.9-0.2,1.4s-0.2,1-0.3,1.5s-0.3,1-0.5,1.5
		c-0.2,0.5-0.4,0.9-0.7,1.3c-0.3,0.4-0.6,0.7-0.9,0.9s-0.7,0.4-1.1,0.4c-0.4,0-0.8-0.1-1-0.4s-0.5-0.6-0.7-1s-0.3-0.8-0.4-1.3
		s-0.1-0.9-0.1-1.2c0-0.5,0-1,0.1-1.5s0.2-1,0.3-1.4c0-0.1,0.1-0.3,0.2-0.5s0.2-0.4,0.3-0.6s0.2-0.4,0.4-0.5s0.2-0.2,0.3-0.2
		c0,0,0.1,0,0.1,0c0-0.3,0.1-0.6,0.2-1s0.3-0.6,0.5-0.8s0.4-0.4,0.6-0.5s0.5-0.2,0.8-0.2c0.3,0,0.6,0.1,0.8,0.3s0.4,0.4,0.6,0.7
		c0.2,0.3,0.3,0.6,0.4,1s0.1,0.8,0.2,1.2c0.3-0.2,0.5-0.4,0.7-0.6s0.4-0.4,0.5-0.6v0l0.8-1.2c0,0,0,0,0.1,0s0.1,0,0.1,0
		c0.1,0,0.1,0.1,0.2,0.2s0.1,0.2,0.1,0.4s0.1,0.3,0.1,0.4s0,0.3,0,0.4c0,0,0,0.1,0,0.1s0,0,0,0.1l0,0.2c0,0.6,0,1.2-0.1,1.8
		s-0.1,1.2-0.1,1.8c0,0,0,0,0,0s0,0,0,0c0.1-0.3,0.2-0.7,0.4-1.1s0.3-0.9,0.5-1.3s0.4-0.9,0.7-1.4s0.5-0.9,0.8-1.2s0.5-0.7,0.8-0.9
		s0.6-0.3,0.9-0.3h0.1c0.4,0.1,0.7,0.3,0.9,0.7s0.3,0.8,0.3,1.3c0,0.1,0,0.2,0,0.3s0,0.2-0.1,0.2c-0.1,0-0.2-0.1-0.2-0.2
		s0-0.3,0-0.4l0-0.3c0-0.3-0.2-0.5-0.3-0.6s-0.3-0.3-0.5-0.3c-0.3,0-0.6,0.3-1,0.7s-0.6,0.9-0.9,1.5s-0.6,1.3-0.9,2
		s-0.5,1.5-0.7,2.2s-0.4,1.4-0.6,2s-0.3,1.1-0.4,1.4c0,0.2-0.1,0.3-0.3,0.4c-0.2,0-0.4-0.1-0.4-0.2s-0.1-0.3-0.1-0.4l0.3-2.7
		L35.5,22.5L35.5,22.5L35.5,22.5z M33.1,24.7c-0.2,0.1-0.4,0.1-0.7,0.2S32,25,31.8,25c-0.5,0-0.9-0.1-1.2-0.4s-0.6-0.7-0.8-1.3
		c-0.2,0.3-0.3,0.6-0.4,0.9s-0.1,0.5-0.2,0.6c-0.2,0.8-0.4,1.7-0.4,2.5c0,0,0,0.1,0,0.3s0,0.4,0,0.6s0.1,0.5,0.1,0.7
		s0.1,0.5,0.2,0.7s0.2,0.4,0.3,0.5s0.3,0.2,0.5,0.2c0.3,0,0.6-0.1,0.8-0.3s0.5-0.5,0.7-0.8s0.4-0.6,0.5-1s0.3-0.8,0.4-1.2
		c0.1-0.4,0.2-0.8,0.3-1.2C32.9,25.5,33,25.1,33.1,24.7L33.1,24.7L33.1,24.7z M33.1,23.2c0-0.2,0-0.5-0.1-0.7s-0.1-0.5-0.2-0.7
		c-0.1-0.2-0.2-0.4-0.3-0.5s-0.3-0.2-0.5-0.2c-0.4,0-0.7,0.1-1,0.5s-0.5,0.7-0.5,1.1c0,0.3,0.1,0.6,0.1,0.8s0.2,0.4,0.3,0.5
		s0.3,0.2,0.4,0.3s0.3,0.1,0.5,0.1c0.2,0,0.4,0,0.6-0.1S33,24,33.1,24L33.1,23.2L33.1,23.2z"/>
	<path class="st0" d="M48.4,20c0-0.1,0.1-0.2,0.2-0.3s0.2-0.1,0.2-0.1c0.1,0,0.2,0.1,0.3,0.2s0.2,0.3,0.2,0.5
		c-0.1,1.3-0.2,2.6-0.3,3.8s-0.2,2.6-0.3,3.9L48.5,30l-0.3,4.1c0.2-0.2,0.5-0.3,0.7-0.5s0.5-0.3,0.7-0.4c0.1,0,0.2-0.1,0.3-0.1
		s0.3-0.1,0.4-0.1s0.3-0.1,0.5-0.1c0.2,0,0.3-0.1,0.4-0.1l0,0.2c-0.4,0.2-0.7,0.3-1,0.4s-0.5,0.2-0.7,0.4s-0.4,0.3-0.6,0.4
		s-0.4,0.3-0.6,0.5h0l-0.2,0.1c-0.1,1.4-0.2,2.8-0.3,4.2s-0.3,2.8-0.5,4.2s-0.4,2.8-0.7,4.2s-0.6,2.7-0.9,4c-0.1,0.5-0.3,1-0.5,1.6
		s-0.4,1.1-0.7,1.6s-0.6,0.9-1,1.3s-0.8,0.5-1.2,0.6c-0.3,0-0.6-0.1-0.9-0.3s-0.5-0.4-0.7-0.7s-0.3-0.7-0.4-1.1s-0.1-0.9-0.1-1.4
		c0-1,0.1-2,0.3-3.2s0.4-2.2,0.8-3.4s0.7-2.3,1.2-3.4s0.9-2.2,1.5-3.2s1.1-1.9,1.6-2.8s1.2-1.6,1.7-2.2c0-0.8,0.1-1.7,0.2-2.5
		c0.1-0.8,0.1-1.6,0.2-2.5l0.2-2.1c0-0.7,0.1-1.4,0.1-2.1s0.1-1.4,0.2-2.1c0,0-0.1,0-0.1,0c-0.1,0.3-0.3,0.7-0.5,1.2s-0.5,1-0.7,1.5
		s-0.6,1.1-0.9,1.6s-0.6,1-1,1.4s-0.7,0.8-1,1s-0.7,0.4-1,0.4c-0.3,0-0.5-0.1-0.7-0.4s-0.3-0.5-0.4-0.8s-0.1-0.6-0.1-0.8
		s0-0.4,0-0.4c0-0.9,0.1-1.7,0.3-2.4s0.5-1.5,0.9-2.1c0.2-0.3,0.4-0.6,0.7-0.9s0.5-0.6,0.9-0.8s0.7-0.4,1.1-0.6s0.8-0.2,1.3-0.2
		c0.4,0,0.8,0.1,1.1,0.3c0-0.1,0.1-0.2,0.1-0.2S48,21.1,48,21L48.4,20L48.4,20z M41.2,54.5c0.1,0.3,0.2,0.5,0.4,0.7s0.4,0.3,0.7,0.3
		c0.4-0.1,0.8-0.3,1.1-0.8s0.7-1.1,1-1.9s0.6-1.7,0.8-2.7s0.5-2.1,0.7-3.2s0.4-2.2,0.5-3.3s0.3-2.2,0.4-3.2s0.2-1.9,0.3-2.7
		s0.1-1.5,0.2-2c-0.5,0.7-1.1,1.4-1.6,2.3s-1,1.8-1.5,2.7s-0.9,2-1.3,3s-0.7,2.1-1,3.1S41.4,49,41.2,50S41,52,41,52.9
		c0,0.3,0,0.5,0,0.8S41.1,54.3,41.2,54.5z M43,29.7c0.2,0,0.4-0.1,0.6-0.4s0.5-0.6,0.8-1s0.6-0.9,0.9-1.4s0.6-1.1,0.9-1.7
		s0.5-1.2,0.8-1.7s0.5-1.1,0.7-1.6c-0.3-0.1-0.5-0.1-0.7-0.1c-0.6,0-1.2,0.2-1.7,0.6s-1,0.9-1.4,1.5s-0.7,1.3-0.9,2.1
		s-0.3,1.6-0.3,2.4c0,0.4,0,0.8,0.1,1.1S42.9,29.7,43,29.7L43,29.7z"/>
	<path class="st0" d="M50.9,28.2c0-0.4,0-0.8,0-1.2c0-0.2,0-0.5,0-0.9s0-0.8,0.1-1.2S51,24,51,23.5s0.1-0.9,0.2-1.2s0.1-0.7,0.2-0.9
		s0.2-0.4,0.2-0.4c0,0,0.1,0,0.2,0s0.2,0.1,0.2,0.1s0.1,0.1,0.2,0.1s0.1,0.1,0.1,0.2c-0.2,1.1-0.4,2.2-0.5,3.4s-0.1,2.3-0.2,3.4
		l0.1,1.2c0,0.2,0.1,0.4,0.1,0.6s0.1,0.4,0.2,0.6l0,0l0.2,0.3c0,0-0.1,0.1-0.1,0.1S52,31,52,31c-0.2,0-0.4-0.1-0.5-0.3
		s-0.2-0.5-0.3-0.8S51,29.3,51,29S50.9,28.4,50.9,28.2L50.9,28.2L50.9,28.2z M52.8,16.1c0,0.2-0.1,0.3-0.2,0.5
		c-0.1,0.2-0.2,0.3-0.3,0.3c-0.1,0-0.1-0.1-0.2-0.3c0-0.2,0-0.3,0-0.4V16c0-0.1,0-0.2,0-0.4s0.1-0.4,0.1-0.6s0.1-0.4,0.2-0.6
		s0.2-0.2,0.3-0.2c0,0,0.1,0,0.2,0.1l0,0c0,0,0,0.1,0.1,0.1s0,0.1,0,0.1v0l0.2,0.1c-0.1,0.2-0.1,0.4-0.2,0.6s-0.1,0.4-0.2,0.6
		L52.8,16.1L52.8,16.1z"/>
	<path class="st1" d="M70.1,1.6c-0.5,0-1.1,0.1-1.7,0.2s-1.3,0.3-1.9,0.6s-1.2,0.6-1.8,0.9s-1.1,0.8-1.6,1.3S62.2,5.6,62,6.3
		s-0.4,1.3-0.4,2.1c0,0.4,0,0.8,0.1,1.2s0.2,0.7,0.3,1.1s0.3,0.7,0.5,1.1s0.4,0.7,0.6,1.1v0c0.6,0.9,1.2,1.8,1.9,2.6
		s1.4,1.6,2.1,2.5s1.4,1.7,2.1,2.5s1.2,1.8,1.8,2.7c0.4-0.1,0.8-0.2,1.2-0.3s0.8-0.2,1.2-0.2c0,0,0.1,0,0.2,0.1s0.1,0.1,0.1,0.1
		c0,0-0.1,0-0.3,0.1s-0.4,0.1-0.7,0.2s-0.6,0.1-0.9,0.2s-0.5,0.1-0.7,0.1c0.6,1.2,0.9,2.5,0.9,3.9c0,1.3-0.1,2.5-0.4,3.7
		c-0.3,1.2-0.8,2.4-1.5,3.5c-0.5,0.6-1,1.2-1.6,1.8s-1.2,1-1.9,1.4s-1.3,0.7-2.1,0.9s-1.4,0.3-2.2,0.3c-0.3,0-0.7,0-1.1-0.1
		s-0.8-0.2-1.1-0.4s-0.7-0.4-1-0.7s-0.6-0.6-0.9-1c-0.2-0.4-0.3-0.7-0.3-1.1s-0.1-0.8-0.1-1.2c0.1-1.1,0.4-2.1,0.8-3s1-1.8,1.6-2.5
		s1.4-1.5,2.2-2.1s1.6-1.1,2.5-1.6s1.7-0.9,2.6-1.2s1.7-0.6,2.4-0.8c-0.6-1.1-1.2-2.1-2-3s-1.5-1.9-2.3-2.8
		c-0.6-0.7-1.2-1.4-1.8-2.1c-0.6-0.7-1.1-1.5-1.6-2.2s-0.9-1.6-1.2-2.4s-0.5-1.6-0.5-2.4c0,0,0,0,0-0.1s0,0,0-0.1V8.2
		c0.1-0.9,0.3-1.6,0.6-2.3S62,4.6,62.5,4s1.1-1,1.8-1.4c0.7-0.4,1.3-0.7,2-1s1.4-0.5,2-0.6s1.2-0.2,1.8-0.2c0.4,0,0.9,0,1.4,0.1
		s1,0.3,1.4,0.6s0.8,0.6,1.1,1.1s0.4,1,0.5,1.7c0,0.1,0,0.2-0.1,0.4s-0.1,0.4-0.1,0.6S74.2,5.8,74.1,6s-0.2,0.4-0.3,0.5l-0.1-0.9
		c0-0.1,0-0.2,0-0.4V4.9l0-0.5c-0.1-0.6-0.3-1-0.5-1.4s-0.5-0.7-0.8-0.9s-0.7-0.3-1.1-0.4S70.5,1.6,70.1,1.6L70.1,1.6z M70.1,23.6
		c-0.7,0.2-1.5,0.5-2.4,0.8s-1.7,0.8-2.5,1.3s-1.6,1.1-2.4,1.7s-1.5,1.4-2.1,2.1s-1.1,1.6-1.5,2.6c-0.4,0.9-0.6,1.9-0.6,3
		c0,0.4,0.2,0.8,0.3,1.2s0.5,0.7,0.8,1s0.7,0.5,1.1,0.7s0.9,0.3,1.5,0.3c0.4,0,0.8,0,1.2-0.1s0.8-0.2,1.1-0.3c1-0.3,1.9-0.8,2.6-1.5
		s1.4-1.4,2-2.3s0.9-1.9,1.2-3s0.4-2.3,0.4-3.6c0-0.8-0.1-1.5-0.2-2.1S70.4,24.2,70.1,23.6L70.1,23.6L70.1,23.6L70.1,23.6z"/>
	<path class="st1" d="M78.4,6.4C78.3,7.2,78.1,8,78,8.8s-0.2,1.6-0.4,2.4c1,0,2.1-0.1,3.1-0.1s2.1-0.1,3.1-0.1s2-0.1,3-0.1
		s1.9,0,2.8,0h0.1c0.1,0,0.4,0,0.7,0s0.7,0,1.1,0.1s0.7,0.1,1,0.1s0.4,0.1,0.4,0.1c0,0.1-0.1,0.1-0.2,0.2s-0.3,0.1-0.5,0.1
		s-0.6,0.1-1,0.1s-0.9,0-1.5,0l-4,0.1c-1.3,0-2.7,0.1-4,0.1s-2.7,0.1-4.1,0.2c-0.3,2-0.5,4.1-0.8,6.2s-0.4,4.2-0.6,6.3
		s-0.2,4.2-0.3,6.3s-0.1,4.2-0.1,6.2c0,0.6,0,1.2,0,1.8s0,1.2,0.1,1.8c0,0.1,0,0.3,0,0.5s0.1,0.6,0.1,1s0.1,0.8,0.2,1.2
		s0.2,0.8,0.3,1.2s0.3,0.7,0.4,1s0.3,0.5,0.6,0.5c0,0,0,0,0.1,0s0.1,0,0.2,0.1l-0.5,0.1c-0.3,0-0.6-0.2-0.8-0.5s-0.4-0.7-0.5-1.1
		s-0.3-0.9-0.3-1.3s-0.2-0.8-0.2-1.1c-0.1-1.3-0.2-2.5-0.3-3.7S75,36.3,75,35c0-1.5,0-3.2,0.1-5s0.2-3.7,0.3-5.7s0.3-4,0.5-6.1
		s0.4-4.1,0.7-6.1c-1.5,0.1-2.9,0.2-4.3,0.3s-2.7,0.2-4.1,0.4h-0.3c0,0,0,0-0.1,0s0,0-0.1,0c-0.2,0-0.3,0-0.5-0.1s-0.3-0.1-0.3-0.2
		c0-0.1,0-0.2,0.1-0.3s0.2-0.1,0.3-0.2s0.2-0.1,0.4-0.1s0.2-0.1,0.3-0.1c1.3-0.2,2.7-0.3,4.1-0.4s2.9-0.2,4.4-0.3
		c0.1-0.8,0.2-1.6,0.4-2.5s0.3-1.6,0.4-2.3c0.1-0.3,0.1-0.6,0.2-0.9S77.9,5,78,4.7s0.3-0.5,0.5-0.7c0.2-0.2,0.4-0.3,0.6-0.3
		l-0.2,0.7c-0.1,0.3-0.2,0.6-0.3,0.9S78.5,6,78.4,6.2C78.4,6.3,78.4,6.4,78.4,6.4L78.4,6.4L78.4,6.4z"/>
	<path class="st1" d="M78.8,28.2c0-0.4-0.1-0.8-0.1-1.2c0-0.2,0-0.5,0-0.9s0-0.8,0.1-1.2s0.1-0.9,0.1-1.4s0.1-0.9,0.2-1.2
		s0.1-0.7,0.2-0.9s0.2-0.4,0.2-0.4c0,0,0.1,0,0.2,0s0.2,0.1,0.2,0.1s0.1,0.1,0.2,0.1s0.1,0.1,0.1,0.2c-0.2,1.1-0.4,2.2-0.5,3.4
		s-0.1,2.3-0.2,3.4l0.1,1.2c0,0.2,0.1,0.4,0.1,0.6s0.1,0.4,0.2,0.6l0,0l0.2,0.3c0,0-0.1,0.1-0.1,0.1s-0.1,0-0.1,0
		c-0.2,0-0.4-0.1-0.5-0.3s-0.2-0.5-0.3-0.8s-0.2-0.6-0.2-0.9S78.8,28.4,78.8,28.2L78.8,28.2L78.8,28.2z M80.7,16.1
		c0,0.2-0.1,0.3-0.2,0.5c-0.1,0.2-0.2,0.3-0.3,0.3c-0.1,0-0.1-0.1-0.2-0.3c0-0.2-0.1-0.3-0.1-0.4V16c0-0.1,0-0.2,0-0.4
		s0.1-0.4,0.1-0.6s0.1-0.4,0.2-0.6s0.2-0.2,0.3-0.2c0,0,0.1,0,0.2,0.1l0,0c0,0,0.1,0.1,0.1,0.1s0,0.1,0,0.1v0l0.2,0.1
		C81.1,14.8,81,15,81,15.2s-0.1,0.4-0.2,0.6L80.7,16.1L80.7,16.1z"/>
	<path class="st1" d="M89.3,30.7c-0.1,0.2-0.2,0.3-0.3,0.4c-0.2,0-0.3-0.1-0.4-0.2s-0.1-0.3-0.1-0.4c0-0.6,0.1-1.1,0.1-1.7
		s0.1-1.1,0.1-1.7l0.2-3.4h0c0,0,0,0,0,0c-0.1,0.4-0.2,0.8-0.4,1.3s-0.4,0.9-0.7,1.4s-0.5,0.9-0.8,1.3s-0.6,0.8-1,1.1
		s-0.7,0.6-1.1,0.8s-0.7,0.4-1.1,0.4c-0.3,0-0.7-0.1-0.9-0.3s-0.4-0.4-0.6-0.7s-0.3-0.6-0.3-1s-0.1-0.8-0.1-1.3
		c0-0.7,0.1-1.4,0.3-2.1s0.4-1.5,0.8-2.1s0.8-1.2,1.2-1.7s1-0.7,1.6-0.8c0,0,0,0,0.1,0c0.1,0,0.3,0,0.5,0.1s0.3,0.1,0.5,0.3
		s0.3,0.3,0.4,0.5s0.2,0.4,0.2,0.7c0,0.6-0.2,1.2-0.5,1.6s-0.8,0.9-1.2,1.2s-1,0.6-1.5,0.8s-1,0.4-1.4,0.5c0,0.1-0.1,0.3-0.1,0.4
		s0,0.2,0,0.3c0,0.2,0,0.5,0,0.8s0.1,0.6,0.1,0.9s0.2,0.5,0.3,0.7s0.4,0.3,0.6,0.3c0.3,0,0.6-0.1,1-0.3s0.6-0.4,0.9-0.7
		s0.6-0.6,0.8-1s0.5-0.8,0.8-1.2s0.4-0.8,0.6-1.2s0.3-0.8,0.5-1.1c0-0.1,0.1-0.2,0.1-0.5s0.2-0.5,0.3-0.8s0.2-0.5,0.3-0.8
		s0.2-0.4,0.3-0.4c0.1,0,0.2,0.1,0.2,0.2s0.1,0.3,0.1,0.4s0.1,0.3,0.1,0.5s0,0.3,0,0.4c0,0.5,0,1,0,1.5s0,1-0.1,1.5l-0.1,0.9
		c0,0,0,0,0.1,0s0,0,0,0c0.1-0.3,0.2-0.7,0.4-1.1s0.3-0.9,0.5-1.3s0.4-0.9,0.7-1.4s0.5-0.9,0.8-1.2s0.5-0.7,0.8-0.9s0.6-0.3,0.9-0.3
		h0.1c0.4,0.1,0.7,0.3,0.9,0.7s0.3,0.8,0.3,1.4c0,0.1,0,0.2-0.1,0.3s-0.1,0.2-0.2,0.3c0-0.2-0.1-0.4-0.1-0.6s-0.1-0.4-0.2-0.6
		s-0.2-0.4-0.3-0.5s-0.3-0.2-0.5-0.2c-0.3,0-0.6,0.3-1,0.7s-0.6,0.9-0.9,1.5s-0.6,1.3-0.9,2s-0.5,1.5-0.8,2.2s-0.4,1.4-0.6,2
		S89.3,30.4,89.3,30.7L89.3,30.7z M86.3,21.5c0-0.2-0.1-0.4-0.3-0.4S85.6,21,85.5,21c-0.3,0-0.7,0.2-0.9,0.5s-0.6,0.6-0.8,1
		s-0.5,0.8-0.7,1.2s-0.3,0.9-0.5,1.3c0.2-0.1,0.5-0.2,0.9-0.5s0.8-0.5,1.2-0.8s0.8-0.6,1.1-1s0.5-0.7,0.5-1c0,0,0,0,0,0
		S86.3,21.6,86.3,21.5L86.3,21.5L86.3,21.5z"/>
</g>
</svg>
