<?xml version="1.0" encoding="utf-8"?>
<!-- Generator: Adobe Illustrator 27.3.1, SVG Export Plug-In . SVG Version: 6.00 Build 0)  -->
<svg version="1.1" id="Layer_2_00000145750724872157737330000017716292832793827217_"
	 xmlns="http://www.w3.org/2000/svg" xmlns:xlink="http://www.w3.org/1999/xlink" x="0px" y="0px" viewBox="0 0 96.4 57.3"
	 style="enable-background:new 0 0 96.4 57.3;" xml:space="preserve">
<style type="text/css">
	.st0{fill:#FFFFFF;}
	.st1{fill:#E17A00;}
</style>
<path class="st0" d="M10.5,26.1c-0.1,0-0.2,0-0.3-0.1s-0.1-0.1-0.1-0.2s0-0.2,0.1-0.3s0.2-0.1,0.3-0.1c0.5,0,1-0.1,1.6-0.3
	s1.1-0.3,1.6-0.5s1.1-0.4,1.6-0.6s1-0.4,1.5-0.7l0,0l0.5-0.3c0.1-0.1,0.3-0.2,0.5-0.3s0.4-0.2,0.6-0.3s0.4-0.2,0.6-0.3
	s0.3-0.1,0.4-0.2c0,0.1-0.1,0.3-0.2,0.4s-0.4,0.4-0.6,0.5s-0.5,0.3-0.7,0.5s-0.4,0.3-0.5,0.3L17,23.9c0.1,0.4,0.2,0.8,0.2,1.2
	s0.1,0.8,0.1,1.1c0,1.3-0.2,2.5-0.5,3.8c-0.3,1.3-0.8,2.4-1.4,3.5s-1.3,2-2.1,2.8s-1.7,1.4-2.6,1.8c-0.4,0.2-0.9,0.3-1.4,0.3
	c-0.5,0-1,0.1-1.5,0.1c-1.1-0.1-2.1-0.4-2.9-1.1s-1.5-1.6-2.1-2.8c-0.5-1.2-0.8-2.3-0.9-3.5c-0.1-1.2-0.5-2.2-0.5-3.4v-1.1
	c0-0.1,0-0.2,0-0.4c0.1-1.3,0.2-2.6,0.5-4s0.5-2.7,0.8-4s0.7-2.7,1.2-4s1-2.6,1.6-3.8c0.5-1,1.1-2,1.8-3s1.4-1.7,2.2-2.5
	s1.7-1.5,2.6-2s1.9-0.8,3-0.9c0.3,0,0.6,0,0.9,0.1c0.3,0.1,0.6,0.1,0.8,0.2c0.2,0.1,0.5,0.3,0.8,0.5s0.5,0.4,0.7,0.7
	C18.6,4,18.8,4.6,19,5.1s0.2,1.1,0.2,1.7V7c0,0.1,0,0.3-0.1,0.5S19,8,19,8.3c0,0.3-0.1,0.6-0.2,0.9s-0.2,0.6-0.4,0.9
	s-0.2,0.5-0.4,0.7s-0.3,0.3-0.4,0.3c0-0.1,0-0.2,0.1-0.4s0.1-0.4,0.1-0.7s0.1-0.5,0.1-0.8S18,8.6,18,8.4c0-0.2,0.1-0.5,0.1-0.7
	s0-0.4,0-0.4c0-0.6-0.1-1.2-0.2-1.7s-0.3-1-0.6-1.4s-0.6-0.7-0.9-0.9S15.6,3,15.2,3s-0.8-0.1-1.3,0S13,3.3,12.6,3.5
	c-1.1,0.6-2.1,1.4-3,2.5S7.8,8.2,7,9.6S5.5,12.4,4.9,14s-1.1,3.2-1.5,4.8S2.7,22,2.5,23.5c-0.2,1.5-0.3,3-0.3,4.3
	c0,1.2,0.1,2.3,0.2,3.4s0.5,2.2,0.9,3.3c0.5,1.1,1.1,1.9,1.8,2.5s1.6,0.9,2.5,1c0.4,0,0.8,0,1.3-0.1s0.9-0.2,1.3-0.3
	c0.9-0.4,1.7-1,2.5-1.7s1.4-1.7,1.9-2.7c0.6-1,1-2.1,1.3-3.3c0.3-1.2,0.5-2.4,0.6-3.5c0-0.2,0-0.3,0-0.5s0-0.4,0-0.6s0-0.4,0-0.6
	s0-0.4-0.1-0.5c-1.1,0.5-2.1,1-3.1,1.3S11.5,26.1,10.5,26.1L10.5,26.1L10.5,26.1z"/>
<path class="st0" d="M22.2,28.8c0.4,0,0.8-0.1,1.2-0.2s0.8-0.4,1.2-0.6s0.8-0.5,1.2-0.8s0.7-0.5,1-0.8l0.5-0.6
	c0.1-0.1,0.2-0.3,0.4-0.5s0.3-0.3,0.5-0.5s0.3-0.3,0.4-0.4s0.2-0.2,0.3-0.2l0.1-0.1v0.1c0,0.1-0.1,0.3-0.2,0.5s-0.3,0.5-0.5,0.8
	s-0.4,0.5-0.6,0.8s-0.4,0.4-0.5,0.5l0,0c-0.3,0.3-0.7,0.6-1.1,1s-0.8,0.6-1.3,0.9s-0.9,0.5-1.4,0.7s-0.9,0.3-1.3,0.3
	s-0.7-0.1-1.1-0.3s-0.6-0.5-0.8-0.9c-0.1-0.3-0.2-0.6-0.3-1s-0.1-0.7-0.1-1c0-0.5,0-0.9,0.1-1.4s0.2-1,0.4-1.5s0.4-0.9,0.6-1.4
	s0.5-0.8,0.8-1.2s0.6-0.6,0.9-0.9s0.7-0.4,1.1-0.4c0.1,0,0.3,0,0.5,0.1s0.4,0.1,0.5,0.2s0.3,0.3,0.4,0.5s0.2,0.5,0.2,0.9
	s-0.1,0.8-0.2,1.1s-0.4,0.6-0.6,0.9s-0.6,0.5-0.9,0.7s-0.6,0.4-1,0.5s-0.6,0.2-0.9,0.3S21.2,25,21,25c-0.1,0-0.3,0-0.4-0.1
	c0,0.2-0.1,0.5-0.1,0.7s0,0.5-0.1,0.7c0,0.3,0.1,0.6,0.1,0.8s0.1,0.5,0.3,0.7s0.3,0.3,0.5,0.5S21.9,28.8,22.2,28.8L22.2,28.8z
	 M23.8,21.1c-0.3,0-0.6,0.2-0.9,0.4s-0.6,0.6-0.8,0.9s-0.5,0.8-0.7,1.2s-0.4,0.8-0.5,1.2c0.2,0,0.4-0.1,0.6-0.2s0.5-0.2,0.7-0.4
	s0.5-0.4,0.8-0.5s0.5-0.4,0.7-0.6s0.4-0.5,0.5-0.7s0.2-0.5,0.3-0.7c0-0.2-0.1-0.3-0.3-0.4S24,21,23.8,21.1L23.8,21.1L23.8,21.1z"/>
<path class="st0" d="M35.4,22.6c-0.2,0.3-0.4,0.7-0.7,1s-0.6,0.5-0.9,0.8c0,0.4-0.1,0.9-0.2,1.4s-0.2,1-0.3,1.5s-0.3,1-0.5,1.5
	s-0.4,0.9-0.7,1.3c-0.3,0.4-0.6,0.7-0.9,0.9s-0.7,0.4-1.1,0.4s-0.8-0.1-1-0.4s-0.5-0.6-0.7-1s-0.3-0.8-0.4-1.3s-0.1-0.9-0.1-1.2
	c0-0.5,0-1,0.1-1.5s0.2-1,0.3-1.4c0-0.1,0.1-0.3,0.2-0.5s0.2-0.4,0.3-0.6s0.2-0.4,0.4-0.5s0.2-0.2,0.3-0.2h0.1c0-0.3,0.1-0.6,0.2-1
	s0.3-0.6,0.5-0.8s0.4-0.4,0.6-0.5s0.5-0.2,0.8-0.2s0.6,0.1,0.8,0.3c0.2,0.2,0.4,0.4,0.6,0.7c0.2,0.3,0.3,0.6,0.4,1
	c0.1,0.4,0.1,0.8,0.2,1.2c0.3-0.2,0.5-0.4,0.7-0.6s0.4-0.4,0.5-0.6l0,0l0.8-1.2c0,0,0,0,0.1,0s0.1,0,0.1,0c0.1,0,0.1,0.1,0.2,0.2
	s0.1,0.2,0.1,0.4s0.1,0.3,0.1,0.4s0,0.3,0,0.4v0.1c0,0,0,0,0,0.1v0.2c0,0.6,0,1.2-0.1,1.8s-0.1,1.2-0.1,1.8l0,0l0,0
	c0.1-0.3,0.2-0.7,0.4-1.1s0.3-0.9,0.5-1.3s0.4-0.9,0.7-1.4s0.5-0.9,0.8-1.2s0.5-0.7,0.8-0.9s0.6-0.3,0.9-0.3h0.1
	c0.4,0.1,0.7,0.3,0.9,0.7s0.3,0.8,0.3,1.3c0,0.1,0,0.2,0,0.3s0,0.2-0.1,0.2s-0.2-0.1-0.2-0.2s0-0.3,0-0.4v-0.3
	c0-0.3-0.2-0.5-0.3-0.6S40.6,21,40.4,21c-0.3,0-0.6,0.3-1,0.7s-0.6,0.9-0.9,1.5s-0.6,1.3-0.9,2s-0.5,1.5-0.7,2.2s-0.4,1.4-0.6,2
	s-0.3,1.1-0.4,1.4c0,0.2-0.1,0.3-0.3,0.4c-0.2,0-0.4-0.1-0.4-0.2s-0.1-0.3-0.1-0.4l0.3-2.7L35.4,22.6L35.4,22.6L35.4,22.6z M33,24.8
	c-0.2,0-0.4,0.1-0.6,0.1S32,25,31.8,25c-0.5,0-0.9-0.1-1.2-0.4s-0.6-0.7-0.8-1.3c-0.2,0.3-0.3,0.6-0.4,0.9s-0.1,0.5-0.2,0.6
	c-0.2,0.8-0.4,1.7-0.4,2.5c0,0,0,0.1,0,0.3s0,0.4,0,0.6s0.1,0.5,0.1,0.7s0.1,0.5,0.2,0.7s0.2,0.4,0.3,0.5s0.3,0.2,0.5,0.2
	c0.3,0,0.6-0.1,0.8-0.3s0.5-0.5,0.7-0.8s0.4-0.6,0.5-1c0.1-0.4,0.3-0.8,0.4-1.2c0.1-0.4,0.2-0.8,0.3-1.2S33,25.2,33,24.8L33,24.8
	L33,24.8z M33.1,23.3c0-0.2,0-0.5-0.1-0.7c-0.1-0.2-0.1-0.5-0.2-0.7c-0.1-0.2-0.2-0.4-0.3-0.5s-0.3-0.2-0.5-0.2
	c-0.4,0-0.7,0.1-1,0.5s-0.5,0.7-0.5,1.1c0,0.3,0.1,0.6,0.1,0.8s0.2,0.4,0.3,0.5s0.3,0.2,0.4,0.3s0.3,0.1,0.5,0.1
	c0.2,0,0.4,0,0.6-0.1s0.4-0.1,0.6-0.2L33.1,23.3L33.1,23.3z"/>
<path class="st0" d="M48.3,20.1c0-0.1,0.1-0.2,0.2-0.3s0.2-0.1,0.2-0.1c0.1,0,0.2,0.1,0.3,0.2s0.2,0.3,0.2,0.5
	c-0.1,1.3-0.2,2.6-0.3,3.8s-0.2,2.6-0.3,3.9L48.4,30l-0.3,4.1c0.2-0.2,0.5-0.3,0.7-0.5s0.5-0.3,0.7-0.4c0.1,0,0.2-0.1,0.3-0.1
	s0.3-0.1,0.4-0.1s0.3-0.1,0.5-0.1s0.3-0.1,0.4-0.1V33c-0.4,0.2-0.7,0.3-1,0.4s-0.5,0.2-0.7,0.4s-0.4,0.3-0.6,0.4s-0.4,0.3-0.6,0.5
	l0,0L48,34.8c-0.1,1.4-0.2,2.8-0.3,4.2s-0.3,2.8-0.5,4.2s-0.4,2.8-0.7,4.2s-0.6,2.7-0.9,4c-0.1,0.5-0.3,1-0.5,1.6s-0.4,1.1-0.7,1.6
	s-0.6,0.9-1,1.3s-0.8,0.5-1.2,0.6c-0.3,0-0.6-0.1-0.9-0.3s-0.5-0.4-0.7-0.7s-0.3-0.7-0.4-1.1s-0.1-0.9-0.1-1.4c0-1,0.1-2,0.3-3.2
	s0.4-2.2,0.8-3.4s0.7-2.3,1.2-3.4s0.9-2.2,1.5-3.2s1.1-1.9,1.6-2.8s1.2-1.6,1.7-2.2c0-0.8,0.1-1.7,0.2-2.5c0.1-0.8,0.1-1.6,0.2-2.5
	l0.2-2.1c0-0.7,0.1-1.4,0.1-2.1s0.1-1.4,0.2-2.1H48c-0.1,0.3-0.3,0.7-0.5,1.2s-0.5,1-0.7,1.5s-0.6,1.1-0.9,1.6s-0.6,1-1,1.4
	s-0.7,0.8-1,1s-0.7,0.4-1,0.4s-0.5-0.1-0.7-0.4s-0.3-0.5-0.4-0.8s-0.1-0.6-0.1-0.8s0-0.4,0-0.4c0-0.9,0.1-1.7,0.3-2.4
	s0.5-1.5,0.9-2.1c0.2-0.3,0.4-0.6,0.7-0.9s0.5-0.6,0.9-0.8s0.7-0.4,1.1-0.6s0.8-0.2,1.3-0.2c0.4,0,0.8,0.1,1.1,0.3
	c0-0.1,0.1-0.2,0.1-0.2s0.1-0.1,0.1-0.2L48.3,20.1L48.3,20.1z M41.1,54.6c0.1,0.3,0.2,0.5,0.4,0.7s0.4,0.3,0.7,0.3
	c0.4-0.1,0.8-0.3,1.1-0.8s0.7-1.1,1-1.9s0.6-1.7,0.8-2.7s0.5-2.1,0.7-3.2s0.4-2.2,0.5-3.3s0.3-2.2,0.4-3.2s0.2-1.9,0.3-2.7
	s0.1-1.5,0.2-2c-0.5,0.7-1.1,1.4-1.6,2.3s-1,1.8-1.5,2.7s-0.9,2-1.3,3s-0.7,2.1-1,3.1S41.3,49,41.1,50s-0.2,2-0.2,2.9
	c0,0.3,0,0.5,0,0.8S41.1,54.3,41.1,54.6z M43,29.7c0.2,0,0.4-0.1,0.6-0.4s0.5-0.6,0.8-1s0.6-0.9,0.9-1.4s0.6-1.1,0.9-1.7
	s0.5-1.2,0.8-1.7s0.5-1.1,0.7-1.6c-0.3-0.1-0.5-0.1-0.7-0.1c-0.6,0-1.2,0.2-1.7,0.6s-1,0.9-1.4,1.5S43.2,25.2,43,26
	s-0.3,1.6-0.3,2.4c0,0.4,0,0.8,0.1,1.1S42.8,29.7,43,29.7L43,29.7z"/>
<path class="st0" d="M50.9,28.3c0-0.4,0-0.8,0-1.2c0-0.2,0-0.5,0-0.9s0-0.8,0.1-1.2s0.1-0.9,0.1-1.4s0.1-0.9,0.2-1.2
	s0.1-0.7,0.2-0.9s0.2-0.4,0.2-0.4s0.1,0,0.2,0s0.2,0.1,0.2,0.1s0.1,0.1,0.2,0.1s0.1,0.1,0.1,0.2c-0.2,1.1-0.4,2.2-0.5,3.4
	s-0.1,2.3-0.2,3.4l0.1,1.2c0,0.2,0.1,0.4,0.1,0.6s0.1,0.4,0.2,0.6l0,0l0.2,0.3l-0.1,0.1h-0.1c-0.2,0-0.4-0.1-0.5-0.3
	s-0.2-0.5-0.3-0.8s-0.2-0.6-0.2-0.9S50.9,28.5,50.9,28.3L50.9,28.3L50.9,28.3z M52.8,16.2c0,0.2-0.1,0.3-0.2,0.5
	c-0.1,0.2-0.2,0.3-0.3,0.3s-0.1-0.1-0.2-0.3c-0.1-0.2,0-0.3,0-0.4v-0.2c0-0.1,0-0.2,0-0.4s0.1-0.4,0.1-0.6s0.1-0.4,0.2-0.6
	s0.2-0.2,0.3-0.2c0,0,0.1,0,0.2,0.1l0,0c0,0,0,0.1,0.1,0.1s0,0.1,0,0.1l0,0l0.2,0.1c-0.1,0.2-0.1,0.4-0.2,0.6s-0.1,0.4-0.2,0.6
	L52.8,16.2L52.8,16.2z"/>
<path class="st1" d="M70.1,1.6c-0.5,0-1.1,0.1-1.7,0.2c-0.6,0.1-1.3,0.3-1.9,0.6s-1.3,0.5-1.9,0.9S63.5,4.1,63,4.6s-0.8,1.1-1.1,1.7
	s-0.4,1.3-0.4,2.1c0,0.4,0,0.8,0.1,1.2s0.2,0.7,0.3,1.1s0.3,0.7,0.5,1.1s0.4,0.7,0.6,1.1l0,0c0.6,0.9,1.2,1.8,1.9,2.6
	c0.7,0.8,1.4,1.6,2.1,2.5s1.4,1.7,2.1,2.5s1.2,1.8,1.8,2.7c0.4-0.1,0.8-0.2,1.2-0.3s0.8-0.2,1.2-0.2c0,0,0.1,0,0.2,0.1
	s0.1,0.1,0.1,0.1s-0.1,0-0.3,0.1s-0.4,0.1-0.7,0.2s-0.6,0.1-0.9,0.2s-0.5,0.1-0.7,0.1c0.6,1.2,0.9,2.5,0.9,3.9
	c0,1.3-0.1,2.5-0.4,3.7s-0.8,2.4-1.5,3.5c-0.5,0.6-1,1.2-1.6,1.8s-1.2,1-1.9,1.4s-1.3,0.7-2.1,0.9c-0.8,0.2-1.3,0.2-2.1,0.2
	c-0.3,0-0.7,0-1.1-0.1s-0.8-0.2-1.1-0.4s-0.7-0.4-1-0.7s-0.6-0.6-0.9-1c-0.2-0.4-0.3-0.7-0.3-1.1s-0.1-0.8-0.1-1.2
	c0.1-1.1,0.4-2.1,0.8-3c0.4-0.9,1-1.8,1.6-2.5s1.4-1.5,2.2-2.1s1.6-1.1,2.5-1.6c0.9-0.5,1.7-0.9,2.6-1.2s1.7-0.6,2.4-0.8
	c-0.6-1.1-1.2-2.1-2-3s-1.5-1.9-2.3-2.8c-0.6-0.7-1.2-1.4-1.8-2.1s-1.1-1.5-1.6-2.2s-0.9-1.6-1.2-2.4s-0.5-1.6-0.5-2.5
	c0,0,0,0,0-0.1c0-0.1,0,0,0-0.1v0.3c0.1-0.9,0.3-1.6,0.6-2.3s0.8-1.3,1.3-1.9s1.1-1,1.8-1.4c0.7-0.4,1.4-0.7,2-1s1.4-0.5,2-0.6
	s1.4-0.2,1.9-0.2c0.4,0,0.9,0.1,1.4,0.2s1,0.3,1.4,0.6s0.8,0.6,1.1,1.1s0.4,1,0.5,1.7c0,0.1,0,0.2-0.1,0.4c0,0.2-0.1,0.4-0.1,0.6
	S74.1,5.9,74,6.1s-0.2,0.4-0.3,0.5l-0.1-0.9c0-0.1,0-0.2,0-0.4V4.9V4.4c-0.1-0.6-0.3-1-0.5-1.4s-0.5-0.6-0.8-0.9s-0.7-0.4-1.1-0.4
	S70.4,1.6,70.1,1.6L70.1,1.6z M70.1,23.6c-0.7,0.2-1.5,0.5-2.4,0.8s-1.7,0.8-2.5,1.3s-1.7,1.1-2.4,1.7s-1.5,1.4-2.1,2.1
	s-1.1,1.6-1.5,2.6c-0.4,0.9-0.6,1.9-0.6,3c0,0.4,0.2,0.8,0.3,1.2s0.5,0.7,0.8,1s0.7,0.5,1.1,0.7s0.9,0.3,1.5,0.3
	c0.4,0,0.8,0,1.2-0.1s0.8-0.2,1.1-0.3c1-0.3,1.9-0.8,2.6-1.5s1.4-1.4,2-2.3s0.9-1.9,1.2-3c0.3-1.1,0.4-2.3,0.4-3.6
	c0-0.8-0.1-1.5-0.2-2.1S70.4,24.3,70.1,23.6L70.1,23.6L70.1,23.6L70.1,23.6z"/>
<path class="st1" d="M78.4,6.5c-0.2,0.8-0.3,1.6-0.4,2.4s-0.2,1.6-0.4,2.4c1,0,2.1-0.1,3.1-0.1s2.1-0.1,3.1-0.1s2-0.1,3-0.1
	s1.9,0,2.8,0h0.1c0.1,0,0.4,0,0.7,0s0.7,0,1.1,0.1s0.7,0.1,1,0.1s0.4,0.1,0.4,0.1c0,0.1-0.1,0.1-0.2,0.2s-0.3,0.1-0.5,0.1
	s-0.6,0.1-1,0.1s-0.9,0-1.5,0l-4,0.1c-1.3,0-2.7,0.1-4,0.1S79,12,77.6,12.1c-0.3,2-0.5,4.1-0.8,6.2s-0.4,4.2-0.6,6.3
	s-0.2,4.2-0.3,6.3s-0.1,4.2-0.1,6.2c0,0.6,0,1.2,0,1.8s0,1.2,0.1,1.8c0,0.1,0,0.3,0,0.5s0.1,0.6,0.1,1s0.1,0.8,0.2,1.2
	s0.2,0.8,0.3,1.2s0.3,0.7,0.4,1s0.3,0.5,0.6,0.5c0,0,0,0,0.1,0s0.1,0,0.2,0.1l-0.5,0.1c-0.3,0-0.6-0.2-0.8-0.5s-0.4-0.7-0.5-1.1
	s-0.3-0.9-0.3-1.3s-0.2-0.8-0.2-1.1c-0.1-1.3-0.2-2.5-0.3-3.7s-0.1-2.5-0.1-3.7c0-1.5,0-3.2,0.1-5s0.2-3.7,0.3-5.7s0.3-4,0.5-6.1
	s0.4-4.1,0.7-6.1c-1.5,0.1-2.9,0.2-4.3,0.3s-2.7,0.2-4.1,0.4H68c0,0,0,0-0.1,0s0,0-0.1,0c-0.2,0-0.3,0-0.5-0.1S67,12.5,67,12.4
	c0-0.1,0-0.2,0.1-0.3s0.2-0.1,0.3-0.2s0.2-0.1,0.4-0.1s0.2-0.1,0.3-0.1c1.3-0.2,2.7-0.3,4.1-0.4s2.9-0.2,4.4-0.3
	c0.1-0.8,0.2-1.6,0.4-2.5s0.3-1.6,0.4-2.3c0.1-0.3,0.1-0.6,0.2-0.9s0.2-0.6,0.3-0.9s0.3-0.5,0.5-0.7s0.4-0.3,0.6-0.3l-0.2,0.7
	c-0.1,0.3-0.2,0.6-0.3,0.9s-0.1,1-0.1,1.3C78.4,6.4,78.4,6.4,78.4,6.5L78.4,6.5L78.4,6.5z"/>
<path class="st1" d="M78.7,28.3c0-0.4-0.1-0.8-0.1-1.2c0-0.2,0-0.5,0-0.9s0-0.8,0.1-1.2s0.1-0.9,0.1-1.4s0.1-0.9,0.2-1.2
	s0.1-0.7,0.2-0.9s0.2-0.4,0.2-0.4s0.1,0,0.2,0s0.2,0.1,0.2,0.1s0.1,0.1,0.2,0.1s0.1,0.1,0.1,0.2c-0.2,1.1-0.4,2.2-0.5,3.4
	s-0.1,2.3-0.2,3.4l0.1,1.2c0,0.2,0.1,0.4,0.1,0.6s0.1,0.4,0.2,0.6l0,0L80,31l-0.1,0.1h-0.1c-0.2,0-0.4-0.1-0.5-0.3S79.1,30.3,79,30
	s-0.2-0.6-0.2-0.9S78.7,28.5,78.7,28.3L78.7,28.3L78.7,28.3z M80.7,16.2c0,0.2-0.1,0.3-0.2,0.5c-0.1,0.2-0.2,0.3-0.3,0.3
	c-0.1,0-0.1-0.1-0.2-0.3c-0.1-0.2-0.1-0.3-0.1-0.4v-0.2c0-0.1,0-0.2,0-0.4s0.1-0.4,0.1-0.6s0.1-0.4,0.2-0.6s0.2-0.2,0.3-0.2
	c0,0,0.1,0,0.2,0.1l0,0l0.1,0.1v0.1l0,0l0.2,0.1c-0.1,0.2-0.1,0.4-0.2,0.6s-0.1,0.4-0.2,0.6L80.7,16.2L80.7,16.2z"/>
<path class="st1" d="M89.2,30.8c-0.1,0.2-0.2,0.3-0.3,0.4c-0.2,0-0.3-0.1-0.4-0.2s-0.1-0.3-0.1-0.4c0-0.6,0.1-1.1,0.1-1.7
	s0.1-1.1,0.1-1.7l0.2-3.4l0,0l0,0c-0.1,0.4-0.2,0.8-0.4,1.3S88,26,87.7,26.5s-0.5,0.9-0.8,1.3s-0.6,0.8-1,1.1s-0.7,0.6-1.1,0.8
	s-0.7,0.4-1.1,0.4c-0.3,0-0.7-0.1-0.9-0.3s-0.4-0.4-0.6-0.7s-0.3-0.6-0.3-1s-0.1-0.8-0.1-1.3c0-0.7,0.1-1.4,0.3-2.1s0.4-1.5,0.8-2.1
	s0.8-1.2,1.2-1.7s1-0.7,1.6-0.8c0,0,0,0,0.1,0s0.3,0,0.5,0.1s0.3,0.1,0.5,0.3s0.3,0.3,0.4,0.5s0.2,0.4,0.2,0.7
	c0,0.6-0.2,1.2-0.5,1.6s-0.8,0.9-1.2,1.2s-1,0.6-1.5,0.8s-1,0.4-1.4,0.5c0,0.1-0.1,0.3-0.1,0.4s0,0.2,0,0.3c0,0.2,0,0.5,0,0.8
	s0.1,0.6,0.1,0.9s0.2,0.5,0.3,0.7s0.4,0.3,0.6,0.3c0.3,0,0.6-0.1,1-0.3s0.6-0.4,0.9-0.7s0.6-0.6,0.8-1s0.5-0.8,0.8-1.2
	s0.4-0.8,0.6-1.2s0.3-0.8,0.5-1.1c0-0.1,0.1-0.2,0.1-0.5s0.2-0.5,0.3-0.8s0.2-0.5,0.3-0.8s0.2-0.4,0.3-0.4c0.1,0,0.2,0.1,0.2,0.2
	s0.1,0.3,0.1,0.4s0.1,0.3,0.1,0.5s0,0.3,0,0.4c0,0.5,0,1,0,1.5s0,1-0.1,1.5l-0.2,0.9c0,0,0,0,0.1,0s0,0,0,0c0.1-0.3,0.2-0.7,0.4-1.1
	s0.3-0.9,0.5-1.3s0.4-0.9,0.7-1.4s0.5-0.9,0.8-1.2s0.5-0.7,0.8-0.9s0.6-0.3,0.9-0.3h0.1c0.4,0.1,0.7,0.3,0.9,0.7s0.3,0.8,0.3,1.4
	c0,0.1,0,0.2-0.1,0.3s-0.1,0.2-0.2,0.3c0-0.2-0.1-0.4-0.1-0.6s0-0.6-0.1-0.8s-0.2-0.4-0.3-0.5S93.8,21,93.6,21c-0.3,0-0.6,0.3-1,0.7
	s-0.6,0.9-0.9,1.5s-0.6,1.3-0.9,2s-0.5,1.5-0.8,2.2s-0.4,1.4-0.6,2S89.3,30.4,89.2,30.8L89.2,30.8z M86.2,21.6
	c0-0.2-0.1-0.4-0.3-0.4s-0.3-0.1-0.5-0.1c-0.3,0-0.7,0.2-0.9,0.5s-0.6,0.6-0.8,1s-0.5,0.8-0.7,1.2s-0.3,0.9-0.5,1.3
	c0.2-0.1,0.5-0.2,0.9-0.5s0.8-0.5,1.2-0.8s0.8-0.6,1.1-1s0.5-0.7,0.5-1l0,0C86.2,21.8,86.2,21.7,86.2,21.6L86.2,21.6L86.2,21.6z"/>
</svg>
